<svg width="500" height="500" version="1.1" xmlns="http://www.w3.org/2000/svg"><path fill="rgb(1,1,1)" stroke="rgb(1,1,1)" stroke-width="1" opacity="0.9411764705882353" d="M 354.5 14 Q 360 13 361 16.5 L 361 31.5 Q 357.3 39.8 359 53.5 L 360 54.5 L 360 71.5 L 361 72.5 L 361 80.5 Q 363.5 82 362 87.5 Q 361 91 355.5 90 Q 355.2 87.7 352.5 88 Q 348.5 94 336.5 92 Q 328.4 90.6 325 84.5 Q 321 78 323 65.5 Q 327.2 52.7 337.5 46 Q 340.7 43.7 347.5 45 Q 348.2 46.8 349 45.5 Q 347.5 40 350 38.5 L 350 31.5 L 351 30.5 L 351 17.5 L 354.5 14 Z M 343 55 Q 336 59 333 68 Q 331 76 334 80 Q 335 82 339 82 L 345 82 Q 346 78 351 77 Q 353 63 348 58 Q 347 55 343 55 Z "></path><path fill="rgb(1,1,1)" stroke="rgb(1,1,1)" stroke-width="1" opacity="0.9411764705882353" d="M 372.5 52 Q 382.3 50.3 385 55.5 Q 386.3 61.8 382.5 63 Q 378.3 63.7 376.5 62 Q 375.2 62.7 377 63.5 L 377 64.5 Q 384.3 69.7 389 77.5 L 389 81.5 Q 391 82.5 390 86.5 Q 388.6 90.1 385.5 92 Q 371.5 94 367 86.5 Q 366 81 369.5 80 Q 375.8 79.2 378.5 82 Q 379.3 81.8 379 80.5 Q 373.5 72.5 366 66.5 L 366 58.5 Q 367.4 54.9 370.5 53 Q 372.2 53.2 372.5 52 Z "></path><path fill="rgb(1,1,1)" stroke="rgb(1,1,1)" stroke-width="1" opacity="0.9411764705882353" d="M 403.5 59 Q 414 57 416 63.5 Q 416.6 67.6 414.5 69 Q 413 70.5 409.5 70 Q 409 68.5 406.5 69 Q 404.3 69.8 403 71.5 Q 400.3 73.8 401 79.5 Q 402 84.5 405.5 87 L 409.5 87 Q 411.8 81.8 419.5 82 Q 423 83 422 88.5 Q 418.7 94.3 412.5 97 L 401.5 97 Q 395.4 92.6 392 85.5 Q 390.2 80.8 391 73.5 Q 393.7 64.2 401.5 60 Q 403.2 60.2 403.5 59 Z "></path><path fill="rgb(1,1,1)" stroke="rgb(1,1,1)" stroke-width="1" opacity="0.9411764705882353" d="M 306.5 78 Q 312.3 77.3 313 81.5 Q 313.8 87.3 309.5 88 Q 303.8 88.8 303 84.5 Q 302.3 78.8 306.5 78 Z "></path><path fill="rgb(1,1,1)" stroke="rgb(1,1,1)" stroke-width="1" opacity="0.9411764705882353" d="M 66.5 137 Q 68.2 138.2 65 139.5 Q 63.7 140.7 64 143.5 L 62 145.5 Q 62.4 149.4 60 150.5 L 60 153.5 L 59 154.5 Q 57.6 156.6 58 160.5 L 57 161.5 Q 59 162.5 57 163.5 Q 57.8 166.8 56 167.5 L 56 171.5 L 55 172.5 L 55 177.5 L 54 178.5 L 54 185.5 L 55 186.5 Q 54.3 192.3 56 195.5 Q 54 196.5 56 197.5 L 56 203.5 L 57 204.5 L 57 209.5 L 58 210.5 Q 56.7 215.2 59 216.5 L 59 223.5 Q 61.5 225 60 230.5 Q 62.9 235.6 63 243.5 Q 64.5 250 68 254.5 L 68 256.5 Q 72.2 263.8 74 273.5 Q 75.4 274.6 76 276.5 L 76 278.5 Q 78.3 280.2 78 284.5 Q 79.4 285.6 80 287.5 Q 80.3 293.7 83 297.5 L 83 300.5 Q 86.8 306.2 88 314.5 Q 92 326 98 335.5 L 98 337.5 Q 99.4 338.6 100 340.5 L 100 342.5 L 101 343.5 Q 100.7 347.8 103 349.5 L 103 352.5 Q 106.2 355.3 107 360.5 Q 106.6 364.4 108 366.5 L 110 368.5 L 110 371.5 Q 110.9 374.1 113 375.5 L 113 378.5 L 115 380.5 Q 116.8 391.2 122 398.5 L 122 402.5 Q 120 403.5 122 404.5 Q 121.1 410.9 123 414.5 Q 126.9 424.1 134.5 430 Q 140.3 434.3 148.5 436 L 167.5 436 L 168.5 435 Q 173.3 435.8 175.5 434 Q 176.5 436 177.5 434 Q 183 432.5 184.5 435 L 185.5 434 L 204.5 434 Q 204.8 432.8 206.5 433 Q 207.5 435 208.5 433 L 215.5 433 L 216.5 432 L 222.5 432 L 223.5 431 L 228.5 431 L 229.5 430 Q 234.3 431.3 235.5 429 L 242.5 429 Q 244 426.5 249.5 428 L 250.5 427 Q 254 427.5 255.5 426 Q 255.7 427.2 257.5 427 L 258.5 426 Q 264 427.5 265.5 425 L 272.5 425 L 273.5 424 Q 274 425.5 276.5 425 L 277.5 424 Q 283.2 424.8 286.5 423 Q 287.5 425 288.5 423 L 295.5 423 Q 296.7 421.2 299.5 421 L 302.5 421 L 303.5 420 L 306.5 420 Q 307.3 418.3 310.5 419 Q 311.7 417.2 314.5 417 L 317.5 417 Q 319.2 414.7 323.5 415 L 324.5 414 Q 329 413.5 331.5 411 Q 334.7 411.2 336.5 410 Q 340.3 408.8 342.5 406 Q 343.7 404.7 346.5 405 L 348.5 403 L 350.5 403 Q 352.7 400.2 356.5 399 Q 368.5 392 377.5 382 L 378 382.5 L 374 386.5 Q 374.3 387.8 373.5 388 Q 372.3 387.8 372 388.5 Q 372.2 391.7 369.5 392 Q 368.3 391.8 368 392.5 Q 368.3 394.8 366.5 395 Q 363.2 394.7 363 397.5 Q 363.3 398.8 362.5 399 Q 356.3 401.3 352.5 406 L 350.5 406 Q 347 410 342.5 413 Q 339.8 412.3 339 413.5 Q 339.3 414.8 338.5 415 Q 335.7 414.7 334.5 416 L 331.5 419 Q 328 418.5 327.5 421 Q 318.7 421.7 313.5 426 L 310.5 426 Q 309.2 427.7 306.5 428 Q 293.6 429.6 283.5 434 Q 283 432.5 280.5 433 L 279.5 434 Q 274 433 271.5 435 Q 271.2 433.7 269.5 434 L 268.5 435 Q 265.3 434.3 264.5 436 Q 264 434.5 261.5 435 L 260.5 436 Q 255 435 252.5 437 Q 252.3 435.7 250.5 436 Q 248.7 438.7 242.5 437 L 241.5 438 Q 236.5 437.5 234.5 440 Q 234 438.5 231.5 439 L 230.5 440 L 223.5 440 L 222.5 441 Q 219.3 440.3 218.5 442 Q 213 440.5 211.5 443 L 204.5 443 L 203.5 444 Q 203 442.5 200.5 443 L 199.5 444 Q 193.8 443.3 190.5 445 Q 189.5 443 188.5 445 Q 183.7 445.8 181.5 444 Q 181 445.5 178.5 445 Q 177.5 443 176.5 445 Q 171.8 446.3 170.5 444 L 169.5 445 L 162.5 445 L 161.5 446 Q 158.3 445.3 157.5 447 Q 152 446 149.5 448 L 148.5 447 L 140.5 447 L 139.5 446 Q 139.2 447.2 137.5 447 L 135.5 445 Q 134.5 447 133.5 445 Q 132.3 443.7 129.5 444 Q 124.7 441.2 121.5 437 Q 120.3 437.3 120 436.5 Q 116.6 433.9 116 428.5 L 114 426.5 L 114 424.5 L 113 423.5 Q 113.5 420 112 418.5 Q 113.2 418.2 113 416.5 Q 111.5 416 112 413.5 L 113 412.5 Q 111 411.5 113 410.5 L 113 409.5 L 111 407.5 Q 111.4 402.1 108 400.5 L 108 397.5 Q 105.7 395.8 106 391.5 L 104 389.5 L 104 386.5 Q 100.6 384.4 100.5 379 Q 99.3 379.3 99 378.5 L 99 375.5 L 98 374.5 L 98 372.5 Q 96.1 371.4 96.5 368 Q 95.3 368.3 95 367.5 L 95 364.5 Q 92.5 362.5 93 357.5 L 91 355.5 Q 91.3 351.2 89 349.5 L 89 346.5 Q 85.6 344.9 86 339.5 L 84 337.5 L 84 335.5 Q 80.6 333.9 81 328.5 L 79 326.5 L 79 324.5 L 78 323.5 Q 78.4 319.6 77 317.5 L 75 315.5 Q 73.7 305.8 70.5 298 Q 69.3 298.3 69 297.5 L 69 294.5 L 68 293.5 L 68 291.5 Q 66.1 290.4 66.5 287 Q 65.3 287.3 65 286.5 L 65 283.5 Q 62.5 281.5 63 276.5 L 61 274.5 L 61 272.5 L 60 271.5 Q 60.4 267.6 59 265.5 Q 55.6 263.9 56 258.5 L 54 256.5 L 54 254.5 L 53 253.5 Q 53.5 250 52 248.5 Q 53.3 248.3 53 246.5 Q 50.3 242.7 50 236.5 Q 52 235.5 50 234.5 L 50 227.5 L 49 226.5 L 49 224.5 L 48 223.5 Q 48.5 220 47 218.5 Q 48.2 218.2 48 216.5 L 47 215.5 L 47 208.5 L 46 207.5 L 46 201.5 L 45 200.5 Q 46.2 194.3 44 191.5 Q 46.3 190.3 45 185.5 Q 46.7 184.2 47 181.5 L 47 176.5 Q 49.2 175.2 48 170.5 Q 51.5 157.5 57.5 147 Q 59.8 147.3 60 145.5 Q 59.8 142.8 61.5 142 Q 62.8 142.3 63 141.5 L 63 140.5 L 66.5 137 Z "></path><path fill="rgb(1,1,1)" stroke="rgb(1,1,1)" stroke-width="1" opacity="0.9411764705882353" d="M 156.5 151 L 169.5 151 L 170.5 152 Q 171.5 150 172.5 152 Q 175 152.5 175.5 151 L 176.5 152 L 184.5 152 Q 185.5 154 189.5 153 L 190.5 154 L 192.5 154 L 193.5 155 L 195.5 155 L 196.5 156 L 198.5 156 L 199.5 157 L 201.5 157 Q 203.2 159.3 207.5 159 Q 208.6 160.4 210.5 161 L 212.5 161 Q 214.2 163.3 218.5 163 Q 221.3 166.2 226.5 167 Q 229.2 170.2 233.5 172 L 234.5 172 Q 237.3 175.2 242.5 176 Q 247.8 181.2 255.5 184 Q 261 189.5 268.5 193 Q 277.6 200.4 285.5 209 L 286.5 209 Q 288 212.5 292 213.5 L 292 214.5 L 306 228.5 Q 310.7 236.8 318 242.5 L 318 243.5 Q 320 244.5 320.5 247 Q 321.8 246.8 322 247.5 L 322 249.5 Q 326.3 253.2 329 258.5 L 329 260.5 L 331 262.5 L 331 264.5 Q 333.1 265.9 334 268.5 L 334 271.5 Q 335.8 272.3 335 275.5 Q 336.7 276.7 337 279.5 L 337 282.5 L 338 283.5 L 338 286.5 L 339 287.5 Q 338.3 290.8 340 291.5 Q 338.8 297.7 341 300.5 Q 339 301.5 341 302.5 Q 338.8 307.3 340 315.5 L 339 316.5 L 339 319.5 L 338 320.5 L 338 323.5 Q 336.3 324.3 337 327.5 Q 335 334.5 330.5 339 Q 327.3 338.8 326.5 341 Q 324.7 339.7 328 338.5 L 327 337.5 Q 327 334 329 332.5 L 329 330.5 L 330 329.5 L 330 327.5 L 331 326.5 Q 329.7 326.3 330 324.5 L 331 323.5 L 331 315.5 L 332 314.5 L 331 313.5 Q 332.2 307.3 330 304.5 Q 331.3 304.3 331 302.5 Q 329.2 301.3 329 298.5 L 329 295.5 L 328 294.5 Q 328 287.5 325 283.5 L 325 280.5 Q 321.6 278.9 322 273.5 L 320 271.5 L 320 269.5 Q 318 268.5 317.5 266 Q 316.3 266.3 316 265.5 L 316 263.5 Q 312.5 263 313 258.5 Q 309.2 255.3 306.5 251 Q 305.3 251.3 305 250.5 Q 305.5 248.5 304.5 248 Q 303.3 248.3 303 247.5 Q 303.3 246.3 302.5 246 Q 300.3 246.3 300 244.5 L 300 243.5 Q 296.7 241.3 295.5 237 L 294.5 237 L 281.5 224 Q 280.3 224.3 280 223.5 Q 280.3 222.3 279.5 222 L 278.5 222 L 265.5 209 Q 264.3 209.3 264 208.5 Q 264.3 207.3 263.5 207 L 262.5 207 Q 259.3 202.8 253.5 201 L 250.5 198 Q 247.8 198.2 247 196.5 Q 247.3 195.3 246.5 195 Q 234.3 189.7 224.5 182 L 223.5 182 Q 222.2 180.2 219.5 180 L 217.5 178 L 216.5 178 Q 214.7 175.8 211.5 175 L 209.5 175 L 207.5 173 L 204.5 173 Q 202.8 170.7 198.5 171 Q 197.4 169.6 195.5 169 Q 188.8 168.3 184.5 165 L 181.5 165 L 180.5 164 Q 177.3 164.8 176.5 163 L 172.5 163 L 171.5 162 Q 171.3 163.3 169.5 163 L 168.5 162 L 160.5 162 L 159.5 161 Q 158.5 163 154.5 162 Q 154.3 160.7 152.5 161 Q 152 162.5 149.5 162 Q 148.5 160 147.5 162 L 144.5 162 L 143.5 163 L 140.5 163 Q 136.7 165.7 130.5 166 L 127.5 169 Q 123.5 169.1 122 171.5 Q 122.3 172.8 121.5 173 Q 120.8 172.8 121 171.5 Q 124 166.4 128.5 163 L 129.5 163 Q 133.2 158.7 138.5 156 Q 143.3 153.3 150.5 153 L 151.5 152 L 155.5 152 L 156.5 151 Z "></path><path fill="rgb(194,194,194)" stroke="rgb(194,194,194)" stroke-width="1" opacity="0.9921568627450981" d="M 70.5 132 Q 71.3 132.3 71 133.5 Q 64.5 140.5 61 150.5 L 61 153.5 Q 58.5 156.5 58.5 162 Q 57.3 162.3 57 161.5 L 58 160.5 L 58 157.5 L 59 156.5 Q 59.5 150 62 145.5 L 64 143.5 L 64 141.5 Q 67 139 68 134.5 L 70.5 132 Z "></path><path fill="rgb(194,194,194)" stroke="rgb(194,194,194)" stroke-width="1" opacity="0.9921568627450981" d="M 157.5 150 L 170.5 150 L 171 150.5 Q 171.3 151.8 170.5 152 L 169.5 151 L 157.5 151 Q 156.5 150.5 157.5 150 Z "></path><path fill="rgb(194,194,194)" stroke="rgb(194,194,194)" stroke-width="1" opacity="0.9921568627450981" d="M 150.5 151 Q 154.7 149.8 156 151.5 Q 145.9 152.4 138.5 156 Q 129.5 161 123 168.5 L 123 169.5 Q 121 170.5 120.5 173 Q 119.8 172.8 120 171.5 Q 123.1 164.6 129.5 161 L 130.5 161 Q 133.6 157.1 138.5 155 L 140.5 155 L 142.5 153 L 145.5 153 L 146.5 152 Q 149.8 152.8 150.5 151 Z "></path><path fill="rgb(194,194,194)" stroke="rgb(194,194,194)" stroke-width="1" opacity="0.9921568627450981" d="M 172.5 151 Q 174.5 150.5 175 151.5 Q 174.5 152.5 172.5 152 Q 171.5 151.5 172.5 151 Z "></path><path fill="rgb(194,194,194)" stroke="rgb(194,194,194)" stroke-width="1" opacity="0.9921568627450981" d="M 176.5 151 L 184.5 151 Q 185.5 153 189.5 152 L 190.5 153 L 192.5 153 L 193.5 154 L 195.5 154 L 196.5 155 L 198.5 155 L 199.5 156 L 201.5 156 Q 203.2 158.3 207.5 158 Q 208.6 159.4 210.5 160 L 212.5 160 Q 214.2 162.3 218.5 162 Q 221.3 165.2 226.5 166 Q 248.7 177.8 268.5 192 Q 280.3 204.2 294 214.5 Q 293.8 216.8 295.5 217 Q 296.8 216.8 297 217.5 Q 296.7 220.7 299.5 221 Q 300.8 220.8 301 221.5 L 301 222.5 Q 312.8 233.3 322 246.5 Q 321.8 247.3 320.5 247 Q 320 244.5 318 243.5 L 318 242.5 Q 310.7 236.8 306 228.5 L 292 214.5 Q 292.3 213.3 291.5 213 L 290.5 213 L 286.5 209 L 285.5 209 Q 277.6 200.4 268.5 193 Q 261 189.5 255.5 184 Q 247.8 181.2 242.5 176 L 241.5 176 Q 238.7 172.8 233.5 172 Q 230.7 168.7 226.5 167 L 225.5 167 Q 222.9 164.1 218.5 163 L 216.5 163 Q 214.8 160.7 210.5 161 Q 209.4 159.6 207.5 159 L 205.5 159 L 204.5 158 L 202.5 158 L 201.5 157 L 199.5 157 L 198.5 156 L 196.5 156 L 195.5 155 Q 191.2 155.3 189.5 153 Q 185.5 154 184.5 152 L 176.5 152 Q 175.5 151.5 176.5 151 Z "></path><path fill="rgb(194,194,194)" stroke="rgb(194,194,194)" stroke-width="1" opacity="0.9921568627450981" d="M 57.5 163 Q 58.8 163.8 58 166.5 L 57 167.5 Q 59 168.5 57 169.5 Q 57.8 172.7 56 173.5 L 56 177.5 L 55 178.5 L 55 183.5 L 56 184.5 L 56 192.5 Q 55.5 193.5 55 192.5 Q 56.5 187 54 185.5 L 54 178.5 L 55 177.5 L 55 172.5 L 56 171.5 Q 55.5 166 57.5 163 Z "></path><path fill="rgb(194,194,194)" stroke="rgb(194,194,194)" stroke-width="1" opacity="0.9921568627450981" d="M 56.5 194 L 57 194.5 L 57 201.5 L 58 202.5 L 58 209.5 L 59 210.5 L 59 215.5 Q 58.5 216.5 58 215.5 L 58 210.5 L 57 209.5 Q 58.3 204.8 56 203.5 L 56 197.5 L 55 196.5 Q 56.3 195.8 56.5 194 Z "></path><path fill="rgb(194,194,194)" stroke="rgb(194,194,194)" stroke-width="1" opacity="0.9921568627450981" d="M 59.5 217 Q 61.5 218.5 60 223.5 Q 59.5 224.5 59 223.5 Q 57.5 218.5 59.5 217 Z "></path><path fill="rgb(194,194,194)" stroke="rgb(194,194,194)" stroke-width="1" opacity="0.9921568627450981" d="M 60.5 225 Q 59.9 229.1 62 230.5 L 62 234.5 Q 61.5 235.5 61 234.5 Q 61.8 231.2 60 230.5 Q 58.8 226.2 60.5 225 Z "></path><path fill="rgb(194,194,194)" stroke="rgb(194,194,194)" stroke-width="1" opacity="0.9921568627450981" d="M 62.5 236 Q 62.1 239.4 64 240.5 L 64 243.5 Q 67.2 247.3 68 253.5 Q 67.5 254.5 67 253.5 Q 62.1 246.1 62.5 236 Z "></path><path fill="rgb(194,194,194)" stroke="rgb(194,194,194)" stroke-width="1" opacity="0.9921568627450981" d="M 322.5 248 Q 324.9 253.1 329 256.5 L 329 257.5 Q 328 259 327 256.5 Q 325.5 252 322 249.5 Q 321.8 248.3 322.5 248 Z "></path><path fill="rgb(194,194,194)" stroke="rgb(194,194,194)" stroke-width="1" opacity="0.9921568627450981" d="M 68.5 255 Q 71.5 258.5 72 264.5 Q 71.5 265.5 71 264.5 Q 71 260.9 69 259.5 L 69 257.5 L 68 256.5 Q 67.8 255.3 68.5 255 Z "></path><path fill="rgb(194,194,194)" stroke="rgb(194,194,194)" stroke-width="1" opacity="0.9921568627450981" d="M 329.5 259 L 331 260.5 L 331 261.5 Q 333.9 264.1 335 268.5 Q 335.8 276.7 339 282.5 L 339 285.5 L 340 286.5 L 340 290.5 Q 339.5 291.5 339 290.5 L 339 287.5 L 338 286.5 Q 338 279.5 335 275.5 L 335 272.5 Q 333.2 271.8 334 268.5 Q 333.1 265.9 331 264.5 L 331 262.5 L 329 260.5 Q 328.8 259.3 329.5 259 Z "></path><path fill="rgb(194,194,194)" stroke="rgb(194,194,194)" stroke-width="1" opacity="0.9921568627450981" d="M 72.5 266 Q 75.5 269.5 76 275.5 Q 75.5 276.5 75 275.5 Q 75 271.9 73 270.5 L 73 268.5 L 72 267.5 Q 71.8 266.3 72.5 266 Z "></path><path fill="rgb(194,194,194)" stroke="rgb(194,194,194)" stroke-width="1" opacity="0.9921568627450981" d="M 76.5 277 Q 77 279.9 79 281.5 L 79 283.5 L 80 284.5 L 80 286.5 L 81 287.5 L 81 289.5 L 82 290.5 Q 81.7 294.8 84 296.5 L 84 299.5 L 85 300.5 L 85 302.5 Q 87.3 304.2 87 308.5 Q 88.4 309.6 89 311.5 L 89 313.5 L 90 314.5 L 90 316.5 L 91 317.5 Q 90.7 321.8 93 323.5 Q 92.5 324.5 92 323.5 Q 87.8 316.2 86 306.5 Q 84.6 305.4 84 303.5 Q 83.7 297.3 81 293.5 L 81 290.5 L 80 289.5 L 80 287.5 Q 77 284 76 278.5 Q 75.8 277.3 76.5 277 Z "></path><path fill="rgb(194,194,194)" stroke="rgb(194,194,194)" stroke-width="1" opacity="0.9921568627450981" d="M 340.5 292 Q 342.5 293.5 341 298.5 Q 340.5 299.5 340 298.5 Q 338.5 293.5 340.5 292 Z "></path><path fill="rgb(194,194,194)" stroke="rgb(194,194,194)" stroke-width="1" opacity="0.9921568627450981" d="M 341.5 300 Q 342.3 300.3 342 301.5 Q 341.8 302.3 340.5 302 Q 339 301 341.5 300 Z "></path><path fill="rgb(194,194,194)" stroke="rgb(194,194,194)" stroke-width="1" opacity="0.9921568627450981" d="M 341.5 304 Q 342.3 304.3 342 305.5 L 341 306.5 L 341 313.5 L 340.5 314 L 340 313.5 L 340 305.5 L 341.5 304 Z "></path><path fill="rgb(194,194,194)" stroke="rgb(194,194,194)" stroke-width="1" opacity="0.9921568627450981" d="M 340.5 315 Q 341.3 315.3 341 316.5 L 340 317.5 L 340 320.5 L 339 321.5 L 339 324.5 Q 336.7 326.2 337 330.5 Q 335.1 336.6 330.5 340 L 329.5 340 Q 329.3 343.3 325.5 343 Q 324 342 326.5 341 L 327.5 341 Q 329.3 338.8 332 337.5 L 332 336.5 Q 334.8 334.3 336 330.5 Q 337.4 328.4 337 324.5 L 338 323.5 L 338 320.5 L 339 319.5 L 339 316.5 L 340.5 315 Z "></path><path fill="rgb(194,194,194)" stroke="rgb(194,194,194)" stroke-width="1" opacity="0.9921568627450981" d="M 93.5 325 Q 94 327.5 96 328.5 L 96 330.5 Q 98.9 333.1 100 337.5 L 100 339.5 L 101 340.5 L 101 342.5 L 102 343.5 L 102 345.5 L 103 346.5 L 103 348.5 L 104 349.5 L 104 351.5 Q 106 352.9 106 356.5 Q 105.5 357.5 105 356.5 Q 105.2 353.3 103 352.5 L 103 349.5 L 102 348.5 L 102 346.5 Q 99.7 344.8 100 340.5 L 99 339.5 Q 98.1 333.9 95 330.5 L 95 328.5 L 93 326.5 Q 92.8 325.3 93.5 325 Z "></path><path fill="rgb(194,194,194)" stroke="rgb(194,194,194)" stroke-width="1" opacity="0.9921568627450981" d="M 107.5 361 Q 109.5 363.5 110 367.5 Q 109 369 108 366.5 Q 106.3 364 107.5 361 Z "></path><path fill="rgb(194,194,194)" stroke="rgb(194,194,194)" stroke-width="1" opacity="0.9921568627450981" d="M 110.5 369 Q 110.8 372.7 113 374.5 Q 112 376 111 373.5 Q 109.3 371.8 110.5 369 Z "></path><path fill="rgb(194,194,194)" stroke="rgb(194,194,194)" stroke-width="1" opacity="0.9921568627450981" d="M 113.5 376 Q 118.2 383.3 120 393.5 Q 122.2 395.3 123 398.5 L 123 410.5 Q 124.6 417.9 129 422.5 Q 127.5 424.5 126 420.5 L 126 419.5 Q 123.8 417.7 123 414.5 L 123 412.5 L 122 411.5 Q 123.7 405.2 121 403.5 Q 123 402.5 122 398.5 Q 116.8 391.2 115 380.5 L 113 378.5 Q 112.5 376.5 113.5 376 Z "></path><path fill="rgb(194,194,194)" stroke="rgb(194,194,194)" stroke-width="1" opacity="0.9921568627450981" d="M 377.5 381 Q 378.8 380.8 379 381.5 Q 364.4 395.4 345.5 405 Q 344 404 346.5 403 Q 364.3 394.3 377.5 381 Z "></path><path fill="rgb(194,194,194)" stroke="rgb(194,194,194)" stroke-width="1" opacity="0.9921568627450981" d="M 342.5 405 Q 343.8 404.8 344 405.5 Q 337.3 410.8 327.5 413 Q 326.5 412.5 327.5 412 Q 334 410.5 338.5 407 L 340.5 407 L 342.5 405 Z "></path><path fill="rgb(194,194,194)" stroke="rgb(194,194,194)" stroke-width="1" opacity="0.9921568627450981" d="M 323.5 413 Q 325.5 412.5 326 413.5 Q 322 416.5 315.5 417 Q 314.5 416.5 315.5 416 Q 319.1 416 320.5 414 L 322.5 414 L 323.5 413 Z "></path><path fill="rgb(194,194,194)" stroke="rgb(194,194,194)" stroke-width="1" opacity="0.9921568627450981" d="M 311.5 417 Q 313.5 416.5 314 417.5 Q 310.2 419.7 304.5 420 Q 303.5 419.5 304.5 419 Q 306.6 417.6 310.5 418 L 311.5 417 Z "></path><path fill="rgb(194,194,194)" stroke="rgb(194,194,194)" stroke-width="1" opacity="0.9921568627450981" d="M 299.5 420 Q 302.3 419.3 303 420.5 Q 298.2 420.7 295.5 423 L 289.5 423 Q 288.5 422.5 289.5 422 Q 296.5 423 299.5 420 Z "></path><path fill="rgb(194,194,194)" stroke="rgb(194,194,194)" stroke-width="1" opacity="0.9921568627450981" d="M 285.5 422 Q 287.5 421.5 288 422.5 Q 288.3 423.8 287.5 424 Q 286.8 422.8 285 422.5 L 285.5 422 Z "></path><path fill="rgb(194,194,194)" stroke="rgb(194,194,194)" stroke-width="1" opacity="0.9921568627450981" d="M 278.5 423 Q 282.7 421.7 284 423.5 Q 282.7 425.2 278.5 424 Q 277.5 423.5 278.5 423 Z "></path><path fill="rgb(194,194,194)" stroke="rgb(194,194,194)" stroke-width="1" opacity="0.9921568627450981" d="M 129.5 424 Q 130.3 425.3 132 425.5 Q 131.8 427.8 133.5 428 L 134.5 428 Q 138.4 432.6 145.5 434 L 149.5 434 L 150.5 435 L 158.5 435 L 159 435.5 L 158.5 436 L 148.5 436 Q 134.8 433.3 129.5 424 Z "></path><path fill="rgb(194,194,194)" stroke="rgb(194,194,194)" stroke-width="1" opacity="0.9921568627450981" d="M 266.5 424 Q 271.5 422.5 273 424.5 Q 271.5 426.5 266.5 425 Q 265.5 424.5 266.5 424 Z "></path><path fill="rgb(194,194,194)" stroke="rgb(194,194,194)" stroke-width="1" opacity="0.9921568627450981" d="M 274.5 424 Q 276.5 423.5 277 424.5 Q 276.5 425.5 274.5 425 Q 273.5 424.5 274.5 424 Z "></path><path fill="rgb(194,194,194)" stroke="rgb(194,194,194)" stroke-width="1" opacity="0.9921568627450981" d="M 255.5 425 Q 257.8 424.8 258 426.5 Q 257.8 427.3 256.5 427 Q 254 426 255.5 425 Z "></path><path fill="rgb(194,194,194)" stroke="rgb(194,194,194)" stroke-width="1" opacity="0.9921568627450981" d="M 259.5 425 Q 263.7 423.8 265 425.5 Q 263.7 427.2 259.5 426 Q 258.5 425.5 259.5 425 Z "></path><path fill="rgb(194,194,194)" stroke="rgb(194,194,194)" stroke-width="1" opacity="0.9921568627450981" d="M 249.5 426 Q 253 425 254 426.5 Q 250.6 428.6 244.5 428 Q 243.5 427.5 244.5 427 Q 248.5 428 249.5 426 Z "></path><path fill="rgb(194,194,194)" stroke="rgb(194,194,194)" stroke-width="1" opacity="0.9921568627450981" d="M 234.5 428 L 242.5 428 L 243 428.5 L 242.5 429 L 235.5 429 L 234.5 430 L 229.5 430 L 228.5 431 L 223.5 431 L 222.5 432 L 217.5 432 Q 216.5 431.5 217.5 431 L 222.5 431 Q 223.7 428.8 228.5 430 L 229.5 429 Q 233.5 430 234.5 428 Z "></path><path fill="rgb(194,194,194)" stroke="rgb(194,194,194)" stroke-width="1" opacity="0.9921568627450981" d="M 206.5 432 Q 207.8 431.8 208 432.5 Q 208.3 433.8 207.5 434 Q 205 433 206.5 432 Z "></path><path fill="rgb(194,194,194)" stroke="rgb(194,194,194)" stroke-width="1" opacity="0.9921568627450981" d="M 209.5 432 Q 214.5 430.5 216 432.5 Q 214.5 434.5 209.5 433 Q 208.5 432.5 209.5 432 Z "></path><path fill="rgb(194,194,194)" stroke="rgb(194,194,194)" stroke-width="1" opacity="0.9921568627450981" d="M 175.5 433 Q 176.8 432.8 177 433.5 Q 177.3 434.8 176.5 435 Q 174 434 175.5 433 Z "></path><path fill="rgb(194,194,194)" stroke="rgb(194,194,194)" stroke-width="1" opacity="0.9921568627450981" d="M 179.5 433 L 204.5 433 L 205 433.5 L 204.5 434 L 185.5 434 L 184.5 435 Q 183.5 433 179.5 434 Q 178.5 433.5 179.5 433 Z "></path><path fill="rgb(194,194,194)" stroke="rgb(194,194,194)" stroke-width="1" opacity="0.9921568627450981" d="M 168.5 434 Q 172.8 432.8 174 434.5 Q 172.7 436.2 168.5 435 L 167.5 436 L 160.5 436 Q 159.5 435.5 160.5 435 Q 166.8 436.7 168.5 434 Z "></path><path fill="rgb(0,0,0)" stroke="rgb(0,0,0)" stroke-width="1" opacity="0" d="M 0.5 0 L 499.5 0 L 500 0.5 L 500 499.5 L 499.5 500 L 0.5 500 L 0 499.5 L 0 0.5 L 0.5 0 Z M 355 14 L 351 18 L 351 31 L 350 32 L 350 39 Q 348 40 349 46 Q 348 47 348 45 Q 341 44 338 46 Q 327 53 323 66 Q 321 78 325 85 Q 328 91 337 92 Q 349 94 353 88 Q 355 88 356 90 Q 361 91 362 88 Q 364 82 361 81 L 361 73 L 360 72 L 360 55 L 359 54 Q 357 40 361 32 L 361 17 Q 360 13 355 14 Z M 373 52 Q 372 53 371 53 Q 367 55 366 59 L 366 67 Q 373 73 379 81 Q 379 82 379 82 Q 376 79 370 80 Q 366 81 367 87 Q 372 94 386 92 Q 389 90 390 87 Q 391 82 389 82 L 389 78 Q 384 70 377 65 L 377 64 Q 375 63 377 62 Q 378 64 383 63 Q 386 62 385 56 Q 382 50 373 52 Z M 404 59 Q 403 60 402 60 Q 394 64 391 74 Q 390 81 392 86 Q 395 93 402 97 L 413 97 Q 419 94 422 89 Q 423 83 420 82 Q 412 82 410 87 L 406 87 Q 402 85 401 80 Q 400 74 403 72 Q 404 70 407 69 Q 409 69 410 70 Q 413 71 415 69 Q 417 68 416 64 Q 414 57 404 59 Z M 307 78 Q 302 79 303 85 Q 304 89 310 88 Q 314 87 313 82 Q 312 77 307 78 Z M 163 85 Q 161 88 155 86 L 154 87 Q 152 87 152 86 Q 151 88 148 87 L 147 88 Q 145 88 145 87 Q 143 89 140 88 L 139 89 L 136 89 Q 133 89 132 91 L 129 91 L 128 92 L 125 92 Q 122 92 121 94 L 118 94 Q 117 94 117 96 Q 116 97 114 96 Q 112 99 108 99 L 105 102 L 103 102 Q 102 102 102 104 Q 100 106 96 107 Q 95 107 95 109 Q 95 109 93 109 Q 92 109 92 111 Q 91 112 89 112 Q 88 112 88 114 Q 88 115 86 115 Q 85 115 85 117 Q 85 117 84 117 Q 82 117 82 120 Q 82 120 81 120 Q 78 120 78 124 Q 78 124 77 124 Q 75 124 75 127 Q 75 128 73 128 Q 72 131 70 132 L 70 133 Q 70 133 69 133 Q 68 133 68 136 L 63 141 L 63 142 Q 63 142 62 142 Q 60 143 60 146 Q 60 147 58 147 Q 52 158 48 171 Q 49 175 47 177 L 47 182 Q 47 184 45 186 Q 46 190 44 192 Q 46 194 45 201 L 46 202 L 46 208 L 47 209 L 47 216 L 48 217 Q 48 218 47 219 Q 49 220 48 224 L 49 225 L 49 227 L 50 228 L 50 235 Q 52 236 50 237 Q 50 243 53 247 Q 53 248 52 249 Q 54 250 53 254 L 54 255 L 54 257 L 56 259 Q 56 264 59 266 Q 60 268 60 272 L 61 273 L 61 275 L 63 277 Q 63 282 65 284 L 65 287 Q 65 287 67 287 Q 66 290 68 292 L 68 294 L 69 295 L 69 298 Q 69 298 71 298 Q 74 306 75 316 L 77 318 Q 78 320 78 324 L 79 325 L 79 327 L 81 329 Q 81 334 84 336 L 84 338 L 86 340 Q 86 345 89 347 L 89 350 Q 91 351 91 356 L 93 358 Q 93 363 95 365 L 95 368 Q 95 368 97 368 Q 96 371 98 373 L 98 375 L 99 376 L 99 379 Q 99 379 101 379 Q 101 384 104 387 L 104 390 L 106 392 Q 106 396 108 398 L 108 401 Q 111 402 111 408 L 113 410 L 113 411 Q 111 412 113 413 L 112 414 Q 112 416 113 417 Q 113 418 112 419 Q 114 420 113 424 L 114 425 L 114 427 L 116 429 Q 117 434 120 437 Q 120 437 122 437 Q 125 441 130 444 Q 132 444 134 445 Q 135 447 136 445 L 138 447 Q 139 447 140 446 L 141 447 L 149 447 L 150 448 Q 152 446 158 447 Q 158 445 162 446 L 163 445 L 170 445 L 171 444 Q 172 446 177 445 Q 178 443 179 445 Q 181 446 182 444 Q 184 446 189 445 Q 190 443 191 445 Q 194 443 200 444 L 201 443 Q 203 443 204 444 L 205 443 L 212 443 Q 213 441 219 442 Q 219 440 223 441 L 224 440 L 231 440 L 232 439 Q 234 439 235 440 Q 236 437 242 438 L 243 437 Q 249 439 251 436 Q 252 436 253 437 Q 255 435 261 436 L 262 435 Q 264 435 265 436 Q 265 434 269 435 L 270 434 Q 271 434 272 435 Q 274 433 280 434 L 281 433 Q 283 433 284 434 Q 294 430 307 428 Q 309 428 311 426 L 314 426 Q 319 422 328 421 Q 328 418 332 419 L 335 416 Q 336 415 339 415 Q 339 415 339 414 Q 340 412 343 413 Q 347 410 351 406 L 353 406 Q 356 401 363 399 Q 363 399 363 398 Q 363 395 367 395 Q 368 395 368 393 Q 368 392 370 392 Q 372 392 372 389 Q 372 388 374 388 Q 374 388 374 387 L 379 382 L 380 382 Q 380 378 384 377 L 384 376 Q 384 375 386 375 Q 388 367 393 362 L 393 360 Q 396 358 394 357 L 396 355 Q 396 351 398 350 L 398 347 Q 400 344 400 340 L 401 339 L 401 336 Q 404 334 402 333 Q 402 331 403 331 L 403 324 Q 405 323 404 319 L 405 318 L 405 311 L 406 310 Q 405 309 405 307 Q 407 306 405 305 L 406 304 Q 407 301 405 301 Q 405 299 406 299 Q 405 297 405 295 Q 403 294 405 293 Q 406 290 404 290 Q 404 287 405 287 Q 403 286 404 283 L 403 282 Q 403 280 404 280 Q 404 276 402 275 L 402 272 L 401 271 L 401 268 L 400 267 L 400 264 Q 400 261 398 260 L 398 257 Q 396 256 397 253 L 396 252 L 396 249 Q 395 246 393 245 L 393 242 Q 393 241 392 241 Q 390 240 391 238 Q 390 235 388 234 L 388 232 L 385 229 Q 385 226 383 225 L 383 224 Q 383 223 382 223 Q 381 223 381 221 Q 381 220 380 220 Q 379 216 376 215 L 376 214 Q 376 213 375 213 Q 374 209 371 208 L 371 206 Q 371 205 370 205 Q 369 205 369 204 Q 366 201 364 198 L 364 197 Q 364 195 362 195 Q 360 194 360 192 Q 360 191 359 191 Q 357 191 357 189 Q 357 188 356 188 Q 355 185 352 184 L 352 183 Q 352 181 350 181 Q 348 181 348 179 Q 348 177 346 177 Q 345 177 345 176 Q 342 174 340 171 L 339 171 Q 338 170 338 169 Q 338 168 337 168 Q 334 168 334 165 Q 334 164 333 164 L 326 157 L 325 157 Q 324 157 324 156 Q 323 154 321 154 Q 320 154 320 153 Q 320 150 317 150 Q 316 150 316 149 Q 310 142 302 138 L 298 134 L 296 134 Q 295 134 295 133 Q 291 129 285 127 L 283 125 Q 282 124 280 124 L 277 121 L 275 121 Q 274 121 274 120 Q 269 116 263 114 Q 258 112 255 108 Q 250 108 249 106 Q 247 102 246 105 L 244 103 Q 240 104 240 102 L 237 102 L 235 100 Q 231 100 230 98 Q 225 98 224 96 L 222 96 L 221 95 L 219 95 L 218 94 L 215 94 Q 214 92 213 94 L 211 92 Q 206 92 205 90 L 200 90 L 199 89 Q 197 89 197 90 Q 194 90 193 88 Q 188 89 187 87 Q 185 87 185 88 Q 183 88 183 87 Q 178 86 178 88 Q 177 87 176 87 Q 175 85 174 87 Q 170 85 164 86 L 163 85 Z "></path><path fill="rgb(0,0,0)" stroke="rgb(0,0,0)" stroke-width="1" opacity="0" d="M 342.5 55 Q 346.9 54.6 348 57.5 Q 353.2 63.3 351 76.5 Q 346.2 77.7 344.5 82 L 338.5 82 Q 335.4 81.6 334 79.5 Q 331.3 75.7 333 67.5 Q 335.9 59.4 342.5 55 Z "></path><path fill="rgb(0,0,0)" stroke="rgb(0,0,0)" stroke-width="1" opacity="0" d="M 148.5 161 Q 149 162.5 151.5 162 Q 151.8 160.7 153.5 161 Q 154.5 163 158.5 162 Q 159.5 160 160.5 162 Q 167.3 160.7 170.5 163 Q 171.5 161 172.5 163 L 176.5 163 L 177.5 164 L 180.5 164 Q 181.2 165.8 184.5 165 Q 188.8 168.3 195.5 169 Q 196.6 170.4 198.5 171 Q 202.8 170.7 204.5 173 L 207.5 173 L 209.5 175 L 211.5 175 Q 213.5 177.5 217.5 178 L 219.5 180 L 220.5 180 Q 221.7 181.7 224.5 182 L 226.5 184 Q 228.7 183.8 229.5 185 L 231.5 187 Q 240.4 190.1 247 195.5 Q 246.8 196.8 247.5 197 Q 249.7 196.8 250.5 198 L 253.5 201 Q 259.6 203.4 264 207.5 Q 263.8 208.8 264.5 209 L 265.5 209 L 278.5 222 Q 279.8 221.8 280 222.5 Q 279.8 223.8 280.5 224 L 281.5 224 L 294.5 237 Q 295.8 236.8 296 237.5 Q 297.4 243.2 301.5 246 Q 302.8 245.8 303 246.5 Q 302.8 247.8 303.5 248 Q 304.8 247.8 305 248.5 Q 304.5 250.5 305.5 251 Q 308.7 250.7 309 253.5 L 309 254.5 L 313 258.5 L 313 260.5 Q 316.2 261.8 316.5 266 Q 317.8 265.8 318 266.5 L 318 267.5 L 320 269.5 L 320 271.5 L 322 273.5 Q 321.6 278.9 325 280.5 L 325 283.5 Q 326.7 284.7 327 287.5 L 327 290.5 L 328 291.5 L 328 294.5 L 329 295.5 L 329 298.5 Q 331.1 300 331 303.5 Q 329.7 303.8 330 305.5 L 331 306.5 Q 329.3 312.8 332 314.5 L 331 315.5 Q 332.3 322.3 330 325.5 Q 332 326.5 330 327.5 L 330 329.5 L 329 330.5 L 329 332.5 Q 327 334 327 337.5 Q 329.5 339 326 340.5 Q 326.3 341.8 325.5 342 L 323.5 342 L 319.5 346 L 317.5 346 Q 314.3 350.3 308.5 352 L 305.5 352 Q 304.2 353.7 301.5 354 L 298.5 354 L 297.5 355 L 294.5 355 Q 293.8 356.8 290.5 356 L 289.5 357 Q 287.4 358.4 283.5 358 L 282.5 359 Q 276.3 357.8 273.5 360 Q 272.5 358 271.5 360 Q 268 359.5 266.5 361 Q 266.3 359.7 264.5 360 L 263.5 361 Q 257.3 359.8 254.5 362 Q 253.5 360 252.5 362 L 245.5 362 L 244.5 363 Q 241.3 362.3 240.5 364 L 233.5 364 L 232.5 365 Q 227 364 224.5 366 Q 224.2 364.8 222.5 365 L 221.5 366 L 218.5 366 Q 216.8 368.3 212.5 368 Q 211.5 366 210.5 368 Q 206.6 367.6 204.5 369 Q 203.5 367 202.5 369 Q 196.3 367.3 194.5 370 Q 193.3 367.8 188.5 369 Q 187.5 371 186.5 369 Q 183.7 368.7 182.5 370 Q 181 369 182 365.5 Q 180.2 364.2 180 361.5 L 180 358.5 L 179 357.5 L 179 354.5 L 178 353.5 L 178 350.5 L 177 349.5 L 177 347.5 Q 175.1 346.4 175.5 343 Q 174.3 343.3 174 342.5 L 174 339.5 Q 171 335.5 171 328.5 Q 170.1 325.9 168 324.5 L 168 321.5 L 167 320.5 Q 167.5 315.5 165 313.5 L 165 310.5 Q 162.5 309 162 305.5 L 162 302.5 Q 160.2 301.3 160 298.5 L 160 295.5 L 159 294.5 L 159 291.5 Q 157.3 290.8 158 287.5 L 157 286.5 Q 155.6 284.4 156 280.5 L 155 279.5 L 155 276.5 Q 153.2 275.2 153 272.5 L 153 269.5 L 152 268.5 L 152 265.5 Q 150.3 264.8 151 261.5 Q 149.2 260.2 149 257.5 L 149 254.5 L 148 253.5 L 148 250.5 Q 146.2 249.8 147 246.5 Q 145.2 245.2 145 242.5 L 145 239.5 Q 143.3 238.8 144 235.5 Q 143.5 232 141 230.5 L 141 228.5 L 140 227.5 L 140 224.5 Q 138.1 223.4 138.5 220 Q 137.3 220.3 137 219.5 Q 135.6 217.4 136 213.5 L 135 212.5 L 135 209.5 Q 132.9 208.1 132 205.5 L 132 202.5 Q 130.3 201.8 131 198.5 Q 130.1 195.9 128 194.5 L 128 191.5 Q 126.2 190.8 127 187.5 Q 123.6 185.4 123.5 180 Q 121.3 180.3 121 178.5 Q 121.5 176 120 175.5 L 122 173.5 Q 121.5 170.5 123.5 170 Q 128.7 169.7 130.5 166 Q 138.7 165.2 144.5 162 L 147.5 162 L 148.5 161 Z "></path><path fill="rgb(254,254,254)" stroke="rgb(254,254,254)" stroke-width="1" opacity="0.9803921568627451" d="M 162.5 85 L 163.5 86 Q 170.3 84.7 173.5 87 Q 174.5 85 175.5 87 Q 177.2 86.7 177.5 88 Q 178.5 86 182.5 87 Q 182.7 88.3 184.5 88 Q 184.8 86.8 186.5 87 Q 187.8 89.2 192.5 88 Q 193.7 89.7 196.5 90 Q 196.7 88.8 198.5 89 L 199.5 90 L 204.5 90 Q 206.2 92.3 210.5 92 L 212.5 94 Q 213.5 92 214.5 94 L 217.5 94 L 218.5 95 L 220.5 95 L 221.5 96 L 223.5 96 Q 225.2 98.3 229.5 98 Q 230.6 100.4 234.5 100 L 236.5 102 L 239.5 102 Q 240.3 103.8 243.5 103 L 245.5 105 Q 247 102.5 248.5 106 Q 250.2 108.3 254.5 108 Q 257.8 111.7 262.5 114 Q 269.4 115.6 274 119.5 Q 273.8 120.8 274.5 121 L 276.5 121 L 279.5 124 Q 281.7 123.8 282.5 125 L 284.5 127 Q 290.6 128.9 295 132.5 Q 294.8 133.8 295.5 134 L 297.5 134 L 301.5 138 Q 310.2 141.8 316 148.5 Q 315.8 149.8 316.5 150 Q 319.7 149.7 320 152.5 Q 319.8 153.8 320.5 154 Q 323.2 153.8 324 155.5 Q 323.8 156.8 324.5 157 L 325.5 157 L 332.5 164 Q 333.8 163.8 334 164.5 Q 333.7 167.7 336.5 168 Q 337.8 167.8 338 168.5 Q 337.5 170.5 338.5 171 L 339.5 171 Q 341.6 173.9 345 175.5 Q 344.8 176.8 345.5 177 Q 347.8 176.8 348 178.5 Q 347.8 180.8 349.5 181 Q 351.8 180.8 352 182.5 L 352 183.5 Q 354.8 184.8 355.5 188 Q 356.8 187.8 357 188.5 Q 356.8 190.8 358.5 191 Q 359.8 190.8 360 191.5 Q 359.8 194.2 361.5 195 Q 363.8 194.8 364 196.5 L 364 197.5 Q 366 201.1 369 203.5 Q 368.8 204.8 369.5 205 Q 370.8 204.8 371 205.5 L 371 207.5 Q 374.3 208.8 374.5 213 Q 375.8 212.8 376 213.5 L 376 214.5 Q 378.6 216.4 379.5 220 Q 380.8 219.8 381 220.5 Q 380.5 222.5 381.5 223 Q 382.8 222.8 383 223.5 L 383 224.5 Q 384.7 225.7 385 228.5 L 388 231.5 L 388 233.5 Q 390.1 234.9 391 237.5 Q 390.3 240.3 391.5 241 Q 392.8 240.8 393 241.5 L 393 244.5 Q 395.1 245.9 396 248.5 L 396 251.5 L 397 252.5 Q 396.3 255.8 398 256.5 L 398 259.5 Q 399.7 260.7 400 263.5 L 400 266.5 L 401 267.5 L 401 270.5 L 402 271.5 L 402 274.5 Q 404 275.9 404 279.5 Q 402.8 279.8 403 281.5 L 404 282.5 Q 403.3 285.8 405 286.5 Q 403.5 287 404 289.5 Q 405.5 290 405 292.5 Q 403 293.5 405 294.5 Q 404.7 297.3 406 298.5 Q 404.7 298.7 405 300.5 Q 406.5 301 406 303.5 L 405 304.5 Q 407 305.5 405 306.5 Q 404.5 309 406 309.5 L 405 310.5 L 405 317.5 L 404 318.5 Q 405 322.5 403 323.5 L 403 330.5 Q 401.7 330.8 402 332.5 Q 404.5 334 401 335.5 L 401 338.5 L 400 339.5 Q 400.5 344.5 398 346.5 L 398 349.5 Q 395.6 350.6 396 354.5 L 394 356.5 Q 396.5 358 393 359.5 L 393 361.5 Q 388.5 367.5 385.5 375 Q 384.3 374.8 384 375.5 L 384 376.5 Q 380.5 378 379.5 382 Q 377.8 381.8 378 379.5 Q 378.8 377.3 380.5 376 Q 381.8 376.3 382 375.5 Q 390.3 364.8 395 350.5 Q 395.3 344.3 398 340.5 L 398 337.5 Q 399.4 336.4 400 334.5 Q 399.1 327.1 402 323.5 Q 400.8 323.2 401 321.5 L 402 320.5 Q 401 316.5 403 315.5 L 403 304.5 L 404 303.5 Q 402.5 303 403 300.5 Q 405 299.5 403 298.5 Q 404.2 292.3 402 289.5 Q 404 288.5 402 287.5 Q 400.3 283.2 401 276.5 Q 399.2 275.2 399 272.5 L 399 269.5 L 398 268.5 Q 398 261.5 395 257.5 L 395 254.5 Q 393.3 253.8 394 250.5 L 393 249.5 Q 393.4 244.1 390 242.5 Q 390.8 239.8 389.5 239 Q 388.3 239.3 388 238.5 L 388 236.5 L 386 234.5 L 386 232.5 Q 383.6 231.4 383.5 228 Q 382.3 228.3 382 227.5 Q 377.4 217.1 370 209.5 Q 370.5 207.5 369.5 207 Q 368.3 207.3 368 206.5 L 368 205.5 Q 364.8 205.2 365 201.5 Q 359.1 196.9 355.5 190 Q 353.3 190.3 353 188.5 L 353 187.5 L 337 171.5 Q 337.3 170.3 336.5 170 L 335.5 170 Q 331.5 164 325 160.5 Q 325.3 159.3 324.5 159 L 323.5 159 Q 321.7 154.7 317 153.5 Q 317.3 152.3 316.5 152 Q 303.3 139.2 286 130.5 Q 286.3 129.3 285.5 129 L 283.5 129 Q 278.6 126.9 275.5 123 Q 261 116.5 248.5 108 L 246.5 108 Q 245.4 105.6 241.5 106 L 239.5 104 Q 235.6 104.4 233.5 103 L 231.5 101 L 228.5 101 Q 223 100 219.5 97 L 216.5 97 Q 215.4 95.6 213.5 95 L 209.5 95 L 207.5 93 Q 206.5 95 205.5 93 L 202.5 93 L 201.5 92 Q 198.3 92.8 197.5 91 L 193.5 91 L 192.5 90 Q 186.3 91.2 183.5 89 Q 183.3 90.2 181.5 90 L 180.5 89 Q 174.2 90.8 172.5 88 Q 172.3 89.3 170.5 89 L 169.5 88 L 156.5 88 Q 156.3 89.3 154.5 89 Q 154.3 87.8 152.5 88 L 151.5 89 Q 148.3 88.3 147.5 90 L 141.5 90 L 140.5 91 L 137.5 91 L 136.5 92 L 133.5 92 Q 132.8 93.8 129.5 93 Q 128.3 94.7 125.5 95 L 122.5 95 L 121.5 96 Q 116.1 95.6 114.5 99 L 112.5 99 L 110.5 101 Q 108.5 100.5 108 101.5 Q 108.3 102.8 107.5 103 L 105.5 103 Q 102.3 106.8 97 108.5 Q 97.3 109.8 96.5 110 L 94.5 110 Q 93.3 112.8 90 113.5 Q 90.3 115.8 88.5 116 L 87.5 116 L 76 127.5 Q 76.3 128.8 75.5 129 Q 74.3 128.8 74 129.5 Q 74.2 132.7 71.5 133 Q 68.3 131.3 72 129.5 Q 71.8 128.3 72.5 128 Q 74.8 128.3 75 126.5 Q 74.8 124.3 76.5 124 Q 77.8 124.3 78 123.5 Q 77.7 120.2 80.5 120 Q 81.8 120.3 82 119.5 Q 81.8 117.3 83.5 117 Q 84.8 117.3 85 116.5 Q 84.8 115.3 85.5 115 Q 87.8 115.3 88 113.5 Q 87.8 112.3 88.5 112 Q 91.2 112.2 92 110.5 Q 91.8 109.3 92.5 109 Q 94.5 109.5 95 108.5 Q 94.8 107.3 95.5 107 Q 99.6 106.1 102 103.5 Q 101.8 102.3 102.5 102 L 104.5 102 L 107.5 99 Q 112.4 99.4 113.5 96 Q 116.3 96.8 117 95.5 Q 116.8 94.3 117.5 94 L 120.5 94 Q 121.7 92.2 124.5 92 L 127.5 92 L 128.5 91 L 131.5 91 Q 132.7 89.2 135.5 89 L 138.5 89 L 139.5 88 Q 143 88.5 144.5 87 Q 144.7 88.3 146.5 88 L 147.5 87 Q 150.8 87.8 151.5 86 Q 151.8 87.3 153.5 87 L 154.5 86 Q 160.8 87.8 162.5 85 Z "></path><path fill="rgb(254,254,254)" stroke="rgb(254,254,254)" stroke-width="1" opacity="0.9803921568627451" d="M 119.5 172 Q 120.3 173.3 122 173.5 Q 118.5 175 121 176.5 Q 120.5 179.5 122.5 180 Q 123.8 179.8 124 180.5 L 124 183.5 Q 126.1 184.9 127 187.5 L 127 190.5 Q 128.8 191.3 128 194.5 Q 130.1 195.9 131 198.5 L 131 201.5 Q 132.8 202.3 132 205.5 Q 132.9 208.1 135 209.5 L 135 212.5 L 136 213.5 Q 135.6 217.9 137.5 220 Q 138.8 219.8 139 220.5 L 139 223.5 Q 140.8 224.3 140 227.5 Q 140.5 231 143 232.5 Q 144.4 234.6 144 238.5 L 145 239.5 L 145 242.5 Q 146.7 243.7 147 246.5 L 147 249.5 L 148 250.5 L 148 253.5 Q 149.8 254.3 149 257.5 Q 150.8 258.7 151 261.5 L 151 264.5 L 152 265.5 Q 152 272.5 155 276.5 L 155 279.5 Q 156.8 280.3 156 283.5 Q 157.7 284.7 158 287.5 L 158 290.5 L 159 291.5 Q 159 298.5 162 302.5 L 162 305.5 Q 162.5 309 165 310.5 L 165 313.5 Q 168 317.5 168 324.5 Q 170.1 325.9 171 328.5 L 171 331.5 L 172 332.5 L 172 335.5 L 173 336.5 L 173 338.5 Q 174.9 339.6 174.5 343 Q 175.8 342.8 176 343.5 L 176 346.5 Q 177.7 347.7 178 350.5 L 178 353.5 L 179 354.5 L 179 357.5 Q 182.1 362.4 182.5 370 Q 183.7 368.7 186.5 369 Q 187.5 371 188.5 369 Q 193.3 367.8 194.5 370 L 195.5 369 Q 201.8 370.8 203.5 368 Q 204 369.5 206.5 369 L 207.5 368 Q 210.8 368.8 211.5 367 Q 212 368.5 214.5 368 L 215.5 367 L 217.5 367 L 218.5 366 Q 222 366.5 223.5 365 Q 223.7 366.2 225.5 366 L 226.5 365 Q 232 366.5 233.5 364 L 240.5 364 L 241.5 363 Q 244.8 363.8 245.5 362 Q 251.8 363.8 253.5 361 Q 253.7 362.3 255.5 362 L 256.5 361 Q 262.7 362.2 265.5 360 Q 265.8 361.3 267.5 361 L 268.5 360 Q 271.8 360.7 272.5 359 Q 272.8 360.2 274.5 360 Q 276.3 357.3 282.5 359 L 283.5 358 Q 288.5 358.5 290.5 356 L 293.5 356 L 294.5 355 Q 301.5 355 305.5 352 L 308.5 352 Q 314.3 350.3 317.5 346 L 319.5 346 L 323.5 342 L 324.5 342 Q 327.5 343.5 324.5 345 L 323.5 345 Q 321.6 347.6 318 348.5 Q 318.3 349.8 317.5 350 Q 314.8 349.3 314 350.5 Q 314.3 351.8 313.5 352 Q 310.2 351.7 308.5 353 L 306.5 355 Q 301.5 354.5 299.5 357 Q 288.6 358.1 280.5 362 Q 274.2 360.3 272.5 363 Q 272 361.5 269.5 362 L 268.5 363 Q 262.8 362.3 259.5 364 Q 258.5 362 257.5 364 L 250.5 364 L 249.5 365 L 243.5 365 L 242.5 366 Q 236.3 364.8 233.5 367 Q 233.2 365.7 231.5 366 L 230.5 367 L 224.5 367 L 223.5 368 Q 220.3 367.2 219.5 369 L 213.5 369 L 212.5 370 Q 209.3 369.3 208.5 371 Q 202.3 369.8 199.5 372 Q 199.3 370.7 197.5 371 Q 197.2 372.3 195.5 372 Q 195.2 370.7 193.5 371 Q 193.3 372.3 191.5 372 Q 190.5 370 189.5 372 L 181.5 372 L 180 370.5 L 180 367.5 L 179 366.5 L 179 363.5 L 178 362.5 L 178 359.5 Q 176.3 358.8 177 355.5 Q 175.2 354.2 175 351.5 L 175 348.5 Q 172.7 346.8 173 342.5 L 171 340.5 L 171 337.5 Q 168.5 335.5 169 330.5 L 167 328.5 Q 166.7 322.3 164 318.5 L 164 315.5 L 163 314.5 Q 163.4 310.6 161 309.5 Q 161.3 305.2 159 303.5 L 159 300.5 Q 157.2 299.3 157 296.5 L 157 293.5 L 156 292.5 L 156 289.5 Q 154.3 288.8 155 285.5 Q 153.2 284.2 153 281.5 L 153 278.5 L 152 277.5 Q 152 270.5 149 266.5 L 149 263.5 Q 147.3 262.8 148 259.5 Q 146.3 258.2 146 255.5 L 146 252.5 L 145 251.5 Q 145 244.5 142 240.5 L 142 237.5 Q 140.3 236.7 141 233.5 Q 136.7 228.3 136 219.5 Q 133.8 217.7 133 214.5 L 133 211.5 Q 131.3 210.8 132 207.5 Q 131.1 204.9 129 203.5 L 129 200.5 Q 127.3 199.8 128 196.5 Q 127.1 193.9 125 192.5 L 125 189.5 Q 121.6 187.9 122 182.5 L 120 180.5 Q 118.1 177.1 119.5 172 Z "></path><path fill="rgb(255,255,255)" stroke="rgb(255,255,255)" stroke-width="1" opacity="1" d="M 152.5 88 Q 154.7 87.8 155.5 89 L 156.5 88 L 169.5 88 Q 169.8 89.3 171.5 89 Q 172.5 87 173.5 89 Q 179.7 87.8 182.5 90 Q 182.7 88.8 184.5 89 L 185.5 90 L 192.5 90 Q 193.5 92 197.5 91 L 198.5 92 L 201.5 92 L 202.5 93 Q 205.8 92.3 206.5 94 Q 208 91.5 209.5 95 L 213.5 95 Q 214.6 96.4 216.5 97 L 219.5 97 Q 223.8 100.7 231.5 101 L 233.5 103 Q 235.6 104.4 239.5 104 L 241.5 106 L 243.5 106 Q 244.6 108.4 248.5 108 Q 258.3 115.2 270.5 120 L 272.5 122 Q 274.7 121.8 275.5 123 Q 278.6 126.9 283.5 129 Q 285.5 128.5 286 129.5 Q 285.8 130.8 286.5 131 Q 304.1 139.4 317 152.5 Q 316.8 153.8 317.5 154 L 318.5 154 Q 320.2 158.3 325 159.5 Q 324.8 161.8 326.5 162 L 327.5 162 L 335.5 170 Q 336.8 169.8 337 170.5 L 337 171.5 L 353 187.5 Q 352.8 189.8 354.5 190 Q 355.8 189.8 356 190.5 L 356 191.5 Q 359.2 191.7 359 195.5 Q 364.9 200.1 368.5 207 Q 369.8 206.8 370 207.5 L 370 209.5 L 373 212.5 L 373 213.5 Q 378.7 219.8 382.5 228 Q 383.8 227.8 384 228.5 L 384 230.5 L 386 232.5 L 386 234.5 Q 388.4 235.6 388.5 239 Q 389.8 238.8 390 239.5 L 390 242.5 Q 393.2 245.3 394 250.5 L 394 253.5 Q 397.9 261.6 399 272.5 Q 400.7 273.7 401 276.5 Q 400 284.5 403 288.5 Q 401.7 288.7 402 290.5 L 403 291.5 Q 401.3 297.8 404 299.5 Q 402.5 300 403 302.5 Q 405 303.5 403 304.5 L 403 315.5 L 402 316.5 Q 402.7 320.7 401 322.5 Q 403 323.5 401 324.5 Q 396.9 355.9 381.5 376 Q 379.3 375.8 379 377.5 Q 377.6 383.6 372.5 386 Q 358.2 398.2 340.5 407 L 338.5 407 L 337.5 408 Q 331 409.5 326.5 413 L 323.5 413 Q 321.8 415.3 317.5 415 Q 316.4 416.4 314.5 417 Q 307.5 417 303.5 420 L 299.5 420 Q 298.2 421.7 295.5 422 L 289.5 422 L 288.5 423 Q 288 421.5 285.5 422 L 284.5 423 Q 279 421.5 277.5 424 L 266.5 424 L 265.5 425 Q 260 424 257.5 426 Q 257.3 424.7 255.5 425 L 254.5 426 L 249.5 426 L 248.5 427 Q 244.5 426 243.5 428 L 234.5 428 L 233.5 429 Q 229.5 428 228.5 430 L 223.5 430 L 222.5 431 Q 217.8 429.8 216.5 432 L 209.5 432 L 208.5 433 Q 208.3 431.7 206.5 432 L 205.5 433 L 179.5 433 Q 179.2 434.2 177.5 434 Q 177.2 432.8 175.5 433 L 174.5 434 Q 169 432.5 167.5 435 L 160.5 435 L 159.5 436 L 158.5 435 L 150.5 435 L 149.5 434 Q 145 434.5 142.5 433 Q 136.4 430.6 132 426.5 Q 132.3 425.3 131.5 425 Q 129.3 425.3 129 423.5 Q 124.9 418.1 123 410.5 L 123 398.5 Q 120.8 396.7 120 393.5 L 120 391.5 Q 117.7 389.8 118 385.5 L 117 384.5 Q 116.1 378.9 113 375.5 L 113 373.5 L 111 371.5 L 111 369.5 Q 103.9 355.1 100 337.5 L 99 336.5 Q 96.1 326.9 91 319.5 L 91 317.5 Q 88.7 315.8 89 311.5 Q 87.6 310.4 87 308.5 L 87 306.5 L 86 305.5 Q 86.3 301.2 84 299.5 L 84 296.5 L 83 295.5 L 83 293.5 L 82 292.5 L 82 290.5 L 81 289.5 L 81 287.5 Q 78.7 285.8 79 281.5 Q 76.8 279.7 76 276.5 Q 74.6 274.4 75 270.5 Q 72.8 268.7 72 265.5 Q 72.4 261.6 71 259.5 Q 68.8 257.7 68 254.5 L 68 251.5 L 67 250.5 Q 66.5 246 64 243.5 L 64 240.5 L 63 239.5 Q 63.7 236.3 62 235.5 L 62 230.5 Q 60 229.5 61 225.5 L 60 224.5 L 60 217.5 L 59 216.5 Q 60.5 211 58 209.5 L 58 202.5 L 57 201.5 L 57 194.5 L 56 193.5 L 56 184.5 Q 53.8 183.3 55 178.5 L 56 177.5 Q 55.4 171.4 58 168.5 Q 56 167.5 58 166.5 L 58 162.5 L 59 161.5 L 59 157.5 Q 61.5 155.5 61 150.5 Q 65.9 137.9 74.5 129 Q 75.8 129.3 76 128.5 L 76 127.5 L 87.5 116 Q 89.8 116.3 90 114.5 Q 89.8 113.3 90.5 113 Q 92.4 109.9 97 109.5 Q 96.8 108.3 97.5 108 Q 102.8 106.8 105.5 103 Q 107.5 103.5 108 102.5 Q 107.8 101.3 108.5 101 L 110.5 101 L 112.5 99 L 114.5 99 Q 117.3 95.8 122.5 95 L 125.5 95 Q 128.3 94.8 129.5 93 L 132.5 93 L 133.5 92 L 136.5 92 L 137.5 91 Q 140.8 91.8 141.5 90 L 147.5 90 L 148.5 89 Q 151.8 89.8 152.5 88 Z M 158 150 L 157 151 L 151 151 Q 150 153 147 152 L 146 153 L 143 153 L 141 155 L 139 155 Q 134 157 131 161 L 130 161 Q 123 166 119 173 Q 118 178 120 181 L 122 183 Q 122 188 125 190 L 125 193 Q 127 194 128 197 Q 127 200 129 201 L 129 204 Q 131 205 132 208 Q 131 211 133 212 L 133 215 Q 134 218 136 220 Q 137 228 141 234 Q 140 237 142 238 L 142 241 Q 145 245 145 252 L 146 253 L 146 256 Q 146 258 148 260 Q 147 263 149 264 L 149 267 Q 152 271 152 278 L 153 279 L 153 282 Q 153 284 155 286 Q 154 289 156 290 L 156 293 L 157 294 L 157 297 Q 157 299 159 301 L 159 304 Q 161 305 161 310 Q 163 311 163 315 L 164 316 L 164 319 Q 167 322 167 329 L 169 331 Q 169 336 171 338 L 171 341 L 173 343 Q 173 347 175 349 L 175 352 Q 175 354 177 356 Q 176 359 178 360 L 178 363 L 179 364 L 179 367 L 180 368 L 180 371 L 182 372 L 190 372 Q 191 370 192 372 Q 193 372 194 371 Q 195 371 196 372 Q 197 372 198 371 Q 199 371 200 372 Q 202 370 209 371 Q 209 369 213 370 L 214 369 L 220 369 Q 220 367 224 368 L 225 367 L 231 367 L 232 366 Q 233 366 234 367 Q 236 365 243 366 L 244 365 L 250 365 L 251 364 L 258 364 Q 259 362 260 364 Q 263 362 269 363 L 270 362 Q 272 362 273 363 Q 274 360 281 362 Q 289 358 300 357 Q 301 354 307 355 L 309 353 Q 310 352 314 352 Q 314 352 314 351 Q 315 349 318 350 Q 318 350 318 349 Q 325 345 331 340 Q 335 337 337 331 Q 337 326 339 325 L 339 322 L 340 321 L 340 318 L 341 317 Q 341 315 340 315 Q 343 313 341 307 L 342 306 Q 342 304 341 304 Q 341 302 342 302 Q 342 300 341 300 L 341 293 Q 339 291 340 287 L 339 286 L 339 283 L 338 282 Q 338 278 337 276 L 336 275 L 336 272 L 335 271 L 335 269 Q 334 264 331 262 L 331 261 L 329 259 L 329 257 Q 316 238 301 222 Q 301 221 300 221 Q 297 221 297 218 Q 297 217 296 217 Q 294 217 294 215 Q 279 200 262 187 Q 241 173 219 162 Q 214 162 213 160 L 211 160 Q 209 159 208 158 Q 203 158 202 156 L 200 156 L 199 155 L 197 155 L 196 154 L 194 154 L 193 153 L 191 153 L 190 152 L 186 152 L 185 151 L 172 151 L 171 150 L 158 150 Z "></path></svg>