<svg width="500" height="500" version="1.1" xmlns="http://www.w3.org/2000/svg"><path fill="rgb(77,77,77)" stroke="rgb(77,77,77)" stroke-width="1" opacity="1" d="M 239.5 68 Q 241.5 69.5 237.5 71 L 237 70.5 L 239.5 68 Z "></path><path fill="rgb(77,77,77)" stroke="rgb(77,77,77)" stroke-width="1" opacity="1" d="M 244.5 68 L 247 70.5 L 246.5 71 L 244 68.5 L 244.5 68 Z "></path><path fill="rgb(77,77,77)" stroke="rgb(77,77,77)" stroke-width="1" opacity="1" d="M 309.5 166 Q 313.7 164.7 315 166.5 Q 313.7 168.2 309.5 167 Q 308.5 166.5 309.5 166 Z "></path><path fill="rgb(77,77,77)" stroke="rgb(77,77,77)" stroke-width="1" opacity="1" d="M 353.5 169 Q 355.5 170.5 351.5 172 L 351 171.5 L 353.5 169 Z "></path><path fill="rgb(77,77,77)" stroke="rgb(77,77,77)" stroke-width="1" opacity="1" d="M 322.5 175 Q 324.5 174.5 325 175.5 Q 324.5 176.5 322.5 176 Q 321.5 175.5 322.5 175 Z "></path><path fill="rgb(77,77,77)" stroke="rgb(77,77,77)" stroke-width="1" opacity="1" d="M 338.5 209 Q 339.8 209.8 339 212.5 Q 338.5 213.5 338 212.5 Q 337.3 209.8 338.5 209 Z "></path><path fill="rgb(77,77,77)" stroke="rgb(77,77,77)" stroke-width="1" opacity="1" d="M 238.5 228 Q 243.5 226.5 245 228.5 Q 243.5 230.5 238.5 229 Q 237.5 228.5 238.5 228 Z "></path><path fill="rgb(77,77,77)" stroke="rgb(77,77,77)" stroke-width="1" opacity="1" d="M 154.5 229 Q 155.8 228.8 156 229.5 Q 153.5 230 152.5 232 L 152 231.5 L 154.5 229 Z "></path><path fill="rgb(77,77,77)" stroke="rgb(77,77,77)" stroke-width="1" opacity="1" d="M 232.5 231 L 233 231.5 L 229.5 235 L 229 234.5 L 232.5 231 Z "></path><path fill="rgb(77,77,77)" stroke="rgb(77,77,77)" stroke-width="1" opacity="1" d="M 307.5 261 L 321.5 261 L 322 261.5 L 321.5 262 L 307.5 262 Q 306.5 261.5 307.5 261 Z "></path><path fill="rgb(77,77,77)" stroke="rgb(77,77,77)" stroke-width="1" opacity="1" d="M 207.5 291 Q 211 290 212 291.5 Q 211 293 207.5 292 Q 206.5 291.5 207.5 291 Z "></path><path fill="rgb(77,77,77)" stroke="rgb(77,77,77)" stroke-width="1" opacity="1" d="M 149.5 296 Q 152.3 295.3 153 296.5 Q 152.3 297.8 149.5 297 Q 148.5 296.5 149.5 296 Z "></path><path fill="rgb(77,77,77)" stroke="rgb(77,77,77)" stroke-width="1" opacity="1" d="M 147.5 297 Q 149.5 298.5 145.5 300 L 145 299.5 L 147.5 297 Z "></path><path fill="rgb(77,77,77)" stroke="rgb(77,77,77)" stroke-width="1" opacity="1" d="M 145.5 302 Q 146 304.5 148 305.5 Q 146.5 307.5 145 303.5 Q 144.8 302.3 145.5 302 Z "></path><path fill="rgb(134,134,134)" stroke="rgb(134,134,134)" stroke-width="1" opacity="1" d="M 142.5 30 L 174.5 30 L 175.5 31 L 182.5 31 L 183.5 32 Q 189 30.5 190.5 33 L 197.5 33 L 198.5 34 L 214.5 34 L 215.5 35 L 235.5 35 L 236.5 36 L 241.5 36 L 242.5 37 L 246.5 37 Q 247.3 38.8 250.5 38 L 251.5 39 Q 255.8 38.7 257.5 41 L 260.5 41 L 261.5 42 L 265.5 42 Q 268.4 44.6 274.5 44 Q 278.5 47 285.5 47 Q 286.6 48.4 288.5 49 L 291.5 49 Q 292.3 50.8 295.5 50 L 296.5 51 Q 304.8 52.2 310.5 56 Q 315.8 58.7 319.5 63 Q 328 66 334.5 71 Q 354.2 85.8 370 104.5 L 370 105.5 Q 373.5 107 374.5 111 Q 377.7 110.7 378 113.5 L 378 114.5 L 379 115.5 L 379 116.5 L 380 117.5 L 380 118.5 Q 383.9 122.1 385 128.5 L 386 129.5 Q 387.4 131.6 387 135.5 L 388 136.5 L 388 138.5 L 389 139.5 L 389 141.5 L 390 142.5 Q 389.7 146.8 392 148.5 L 392 151.5 Q 393.4 152.6 394 154.5 L 394 160.5 L 395 161.5 L 395 165.5 L 396 166.5 Q 395 170.5 397 171.5 L 397 177.5 L 398 178.5 L 398 188.5 L 399 189.5 L 399 199.5 Q 401.5 201 400 206.5 L 401 207.5 Q 400.5 212.5 403 214.5 Q 402 218.5 404 219.5 L 404 225.5 L 405 226.5 L 405 236.5 L 406 237.5 L 406 263.5 L 407 264.5 L 407 272.5 L 408 273.5 L 408 280.5 Q 410.8 282.3 409 288.5 L 410 289.5 Q 408.5 295 411 296.5 L 411 305.5 L 412 306.5 L 412 311.5 L 413 312.5 L 413 317.5 Q 414.8 318.3 414 321.5 L 415 322.5 Q 414.7 325.7 416 327.5 Q 419 331 420 336.5 L 420 339.5 L 421 340.5 Q 420.7 344.8 423 346.5 L 423 351.5 Q 424.7 352.7 425 355.5 Q 424 359.5 426 360.5 L 426 365.5 L 427 366.5 L 427 370.5 L 428 371.5 L 428 375.5 L 429 376.5 Q 428 380.5 430 381.5 L 430 395.5 L 429 396.5 L 429 399.5 L 428 400.5 L 428 402.5 L 427 403.5 L 427 405.5 L 426 406.5 Q 426.3 410.8 424 412.5 L 418.5 418 Q 412.1 421.1 408 426.5 L 408 427.5 L 400.5 435 L 399.5 435 Q 398.1 437.1 395.5 438 Q 393.4 439.4 389.5 439 L 388.5 440 L 385.5 440 L 384.5 441 L 380.5 441 L 379.5 442 L 374.5 442 L 373.5 443 Q 368.8 441.7 367.5 444 L 357.5 444 L 356.5 445 Q 351.7 443.7 350.5 446 L 343.5 446 L 342.5 447 L 334.5 447 L 333.5 448 L 325.5 448 L 324.5 449 L 289.5 449 L 288.5 450 L 232.5 450 L 231.5 449 L 212.5 449 L 211.5 448 L 203.5 448 L 202.5 447 Q 196.3 448.8 194.5 446 L 181.5 446 L 180.5 445 L 174.5 445 L 173.5 444 L 169.5 444 L 168.5 443 L 163.5 443 L 162.5 442 Q 156.4 442.6 153.5 440 L 149.5 440 L 148.5 439 Q 144.6 439.4 143.5 437 L 140.5 437 Q 136 433.5 128.5 433 L 127.5 432 L 126.5 432 L 125.5 431 L 124.5 431 L 123.5 430 L 122.5 430 Q 118.9 426.1 112.5 425 Q 108.1 420.4 102.5 417 Q 95.8 415.2 90.5 412 Q 87 410.1 84.5 407 L 82.5 407 Q 82 404.5 78.5 405 L 76 402.5 Q 76.5 399 74 398.5 Q 75.5 393 73 391.5 L 73 379.5 L 72 378.5 L 72 316.5 L 73 315.5 L 73 308.5 L 74 307.5 Q 72.2 301.3 75 299.5 L 75 270.5 L 74 269.5 L 74 254.5 L 73 253.5 L 73 244.5 L 72 243.5 L 72 220.5 L 71 219.5 L 71 205.5 L 70 204.5 Q 71.5 199 69 197.5 L 69 186.5 L 68 185.5 L 68 133.5 L 69 132.5 L 69 125.5 Q 71.8 123.7 70 117.5 L 71 116.5 Q 69.5 111 72 109.5 L 72 94.5 L 73 93.5 L 73 82.5 Q 74.3 82.3 74 80.5 Q 70.3 78.8 72 71.5 Q 75.4 69.9 75 64.5 L 79 60.5 L 79 58.5 L 83 54.5 Q 82.5 49.5 86.5 49 L 87.5 49 Q 90.8 45.3 95.5 43 L 97.5 43 Q 98 40.5 101.5 41 L 103.5 39 L 105.5 39 L 106.5 38 Q 110.8 38.3 112.5 36 L 115.5 36 Q 116.3 34.3 119.5 35 L 120.5 34 L 124.5 34 L 125.5 33 Q 129.5 34 130.5 32 L 135.5 32 L 136.5 31 L 141.5 31 L 142.5 30 Z M 240 68 L 237 71 Q 236 74 238 76 L 238 121 L 239 122 L 239 127 Q 241 127 240 132 L 241 133 L 241 139 Q 243 140 242 145 L 243 146 L 243 163 Q 245 165 249 167 Q 253 167 256 169 L 260 169 L 261 170 L 264 170 L 265 171 L 270 171 Q 270 173 274 172 L 275 173 L 278 173 L 279 174 L 282 174 L 283 175 L 289 175 L 290 176 L 325 176 L 326 175 L 336 175 L 337 174 L 344 174 Q 345 172 349 173 Q 352 172 354 170 Q 355 163 352 162 L 347 162 Q 344 162 343 164 Q 337 163 336 165 L 326 165 L 325 166 L 310 166 L 309 167 L 297 167 Q 295 165 291 166 L 290 165 L 285 165 Q 284 163 281 164 L 280 163 Q 273 164 271 161 L 266 161 Q 263 161 262 159 Q 257 160 255 158 L 252 156 L 252 138 Q 250 137 251 134 L 250 133 L 250 127 L 249 126 Q 250 121 248 121 L 248 114 L 247 113 Q 245 106 248 105 L 248 75 Q 246 74 247 71 Q 246 67 240 68 Z M 340 196 L 337 199 L 337 207 Q 339 208 338 213 L 339 214 L 339 231 Q 337 232 338 238 Q 338 241 335 243 L 335 244 Q 329 250 320 252 L 309 252 Q 307 249 301 251 Q 270 242 245 228 Q 236 227 233 231 Q 228 234 226 240 Q 225 242 225 246 L 224 247 L 224 252 L 223 253 L 223 259 Q 221 260 222 265 L 221 266 L 221 268 Q 220 272 217 275 L 217 276 L 215 278 L 215 279 Q 212 280 211 282 Q 208 281 205 281 Q 199 279 196 275 L 195 275 L 184 265 L 184 264 Q 175 252 168 239 L 159 229 Q 153 228 152 232 L 152 237 L 160 245 Q 167 259 177 272 Q 188 286 208 292 L 212 292 Q 212 290 216 291 Q 226 283 231 271 Q 230 266 232 266 L 232 260 L 233 259 L 233 254 L 234 253 L 234 248 L 235 247 Q 235 242 237 241 Q 238 239 241 238 Q 242 239 245 239 Q 261 248 280 255 L 282 255 Q 283 257 288 257 L 289 258 L 291 258 L 292 259 L 294 259 L 295 260 Q 298 259 300 261 L 307 261 L 308 262 L 322 262 Q 323 259 329 260 Q 332 259 335 256 L 336 256 Q 342 251 347 244 Q 346 239 348 238 L 348 232 L 349 231 L 349 213 L 348 212 Q 349 203 346 199 Q 345 195 340 196 Z M 311 204 Q 307 205 308 211 Q 309 214 316 213 Q 318 212 317 207 Q 316 203 311 204 Z M 150 296 Q 149 297 148 297 Q 144 298 145 304 Q 147 308 155 307 Q 158 306 157 301 L 153 296 L 150 296 Z "></path><path fill="rgb(0,0,0)" stroke="rgb(0,0,0)" stroke-width="1" opacity="1" d="M 240.5 68 Q 246.3 67.3 247 71.5 Q 246.2 74.8 248 75.5 L 248 102.5 L 247 103.5 L 247 113.5 L 248 114.5 L 248 121.5 Q 250 122.5 249 126.5 L 250 127.5 L 250 133.5 L 251 134.5 Q 250.3 137.8 252 138.5 L 252 156.5 L 253.5 158 Q 256 159.5 260.5 159 Q 261.7 160.7 264.5 161 L 268.5 161 L 269.5 162 L 273.5 162 Q 274.5 164 278.5 163 L 279.5 164 Q 282.8 163.3 283.5 165 L 288.5 165 Q 289.5 167 293.5 166 L 294.5 167 L 314.5 167 L 315.5 166 L 326.5 166 L 327.5 165 L 336.5 165 L 337.5 164 L 343.5 164 Q 345.5 161.5 350.5 162 Q 354.8 162.8 354 168.5 Q 352.1 172.1 347.5 173 Q 342.8 171.7 341.5 174 L 334.5 174 L 333.5 175 L 322.5 175 L 321.5 176 L 290.5 176 L 289.5 175 L 284.5 175 L 283.5 174 L 279.5 174 L 278.5 173 L 275.5 173 L 274.5 172 Q 271.3 172.8 270.5 171 L 265.5 171 L 264.5 170 L 261.5 170 L 260.5 169 L 257.5 169 L 256.5 168 L 253.5 168 Q 252.8 166.3 249.5 167 Q 245.3 165.3 243 161.5 L 243 144.5 L 242 143.5 Q 243.2 138.8 241 137.5 L 241 131.5 L 240 130.5 Q 241 126.5 239 125.5 L 239 120.5 L 238 119.5 L 238 74.5 Q 236.5 74 237 71.5 L 240.5 68 Z "></path><path fill="rgb(0,0,0)" stroke="rgb(0,0,0)" stroke-width="1" opacity="1" d="M 339.5 196 Q 343.6 195.4 345 197.5 Q 347.5 199.5 347 204.5 L 348 205.5 Q 346.2 211.7 349 213.5 L 349 229.5 L 348 230.5 L 348 236.5 Q 345.7 237.7 347 242.5 Q 343.2 250.2 336.5 255 Q 331.5 259.5 323.5 261 L 301.5 261 L 300.5 260 L 295.5 260 L 294.5 259 L 292.5 259 L 291.5 258 L 289.5 258 L 288.5 257 Q 284.2 257.3 282.5 255 L 280.5 255 Q 261.8 248.2 245.5 239 Q 243.4 237.6 239.5 238 Q 235.3 240.8 234 246.5 L 234 251.5 L 233 252.5 L 233 257.5 L 232 258.5 L 232 264.5 Q 230 265.5 231 269.5 Q 226.7 281.7 217.5 289 Q 214.7 288.7 214.5 291 L 203.5 291 Q 188.6 284.9 179 273.5 Q 168.8 260.7 161 245.5 Q 155.6 241.5 152 235.5 L 152 232.5 Q 153.6 229.6 157.5 229 Q 163.1 231.4 166 236.5 Q 174.1 246.9 180 259.5 Q 186.6 268.9 195.5 276 L 196.5 276 Q 199.2 279.2 203.5 281 L 206.5 281 Q 207.3 282.8 210.5 282 Q 214.1 280.6 216 277.5 L 216 276.5 Q 220.6 272.6 222 265.5 Q 220.8 260.8 223 259.5 L 223 253.5 L 224 252.5 L 224 247.5 L 225 246.5 Q 224.6 242.6 226 240.5 Q 228.7 233.7 234.5 230 Q 238.3 227.3 246.5 229 Q 270.3 242.7 299.5 251 Q 305 249.5 306.5 252 L 320.5 252 Q 330.6 249.6 336 242.5 Q 335.8 239.3 338 238.5 Q 336.5 233 339 231.5 L 339 209.5 Q 335.8 206.2 337 198.5 L 339.5 196 Z "></path><path fill="rgb(0,0,0)" stroke="rgb(0,0,0)" stroke-width="1" opacity="1" d="M 311.5 204 Q 316.3 203.3 317 206.5 Q 318 212 314.5 213 Q 309 214 308 210.5 Q 307.4 206.4 309.5 205 Q 311.2 205.2 311.5 204 Z "></path><path fill="rgb(0,0,0)" stroke="rgb(0,0,0)" stroke-width="1" opacity="1" d="M 148.5 297 Q 155.8 295.8 157 300.5 Q 158 306 154.5 307 Q 147.6 307.9 146 303.5 Q 146.2 301.3 145 300.5 L 148.5 297 Z "></path><path fill="rgb(0,0,0)" stroke="rgb(0,0,0)" stroke-width="1" opacity="0" d="M 0.5 0 L 499.5 0 L 500 0.5 L 500 499.5 L 499.5 500 L 0.5 500 L 0 499.5 L 0 0.5 L 0.5 0 Z M 143 30 L 142 31 L 137 31 L 136 32 L 131 32 Q 130 34 126 33 L 125 34 L 121 34 L 120 35 Q 116 34 116 36 L 113 36 Q 111 38 107 38 L 106 39 L 104 39 L 102 41 Q 98 41 98 43 L 96 43 Q 91 45 88 49 L 87 49 Q 83 49 83 55 L 79 59 L 79 61 L 75 65 Q 75 70 72 72 Q 70 79 74 81 Q 74 82 73 83 L 73 94 L 72 95 L 72 110 Q 70 111 71 117 L 70 118 Q 72 124 69 126 L 69 133 L 68 134 L 68 186 L 69 187 L 69 198 Q 72 199 70 205 L 71 206 L 71 220 L 72 221 L 72 244 L 73 245 L 73 254 L 74 255 L 74 270 L 75 271 L 75 300 Q 72 301 74 308 L 73 309 L 73 316 L 72 317 L 72 379 L 73 380 L 73 392 Q 76 393 74 399 Q 76 399 76 403 L 79 405 Q 82 404 83 407 L 85 407 Q 87 410 91 412 Q 96 415 103 417 Q 108 420 113 425 Q 119 426 123 430 L 124 430 L 125 431 L 126 431 L 127 432 L 128 432 L 129 433 Q 136 433 141 437 L 144 437 Q 145 439 149 439 L 150 440 L 154 440 Q 156 443 163 442 L 164 443 L 169 443 L 170 444 L 174 444 L 175 445 L 181 445 L 182 446 L 195 446 Q 196 449 203 447 L 204 448 L 212 448 L 213 449 L 232 449 L 233 450 L 289 450 L 290 449 L 325 449 L 326 448 L 334 448 L 335 447 L 343 447 L 344 446 L 351 446 Q 352 444 357 445 L 358 444 L 368 444 Q 369 442 374 443 L 375 442 L 380 442 L 381 441 L 385 441 L 386 440 L 389 440 L 390 439 Q 393 439 396 438 Q 398 437 400 435 L 401 435 L 408 428 L 408 427 Q 412 421 419 418 L 424 413 Q 426 411 426 407 L 427 406 L 427 404 L 428 403 L 428 401 L 429 400 L 429 397 L 430 396 L 430 382 Q 428 381 429 377 L 428 376 L 428 372 L 427 371 L 427 367 L 426 366 L 426 361 Q 424 360 425 356 Q 425 353 423 352 L 423 347 Q 421 345 421 341 L 420 340 L 420 337 Q 419 331 416 328 Q 415 326 415 323 L 414 322 Q 415 318 413 318 L 413 313 L 412 312 L 412 307 L 411 306 L 411 297 Q 409 295 410 290 L 409 289 Q 411 282 408 281 L 408 274 L 407 273 L 407 265 L 406 264 L 406 238 L 405 237 L 405 227 L 404 226 L 404 220 Q 402 218 403 215 Q 400 212 401 208 L 400 207 Q 402 201 399 200 L 399 190 L 398 189 L 398 179 L 397 178 L 397 172 Q 395 171 396 167 L 395 166 L 395 162 L 394 161 L 394 155 Q 393 153 392 152 L 392 149 Q 390 147 390 143 L 389 142 L 389 140 L 388 139 L 388 137 L 387 136 Q 387 132 386 130 L 385 129 Q 384 122 380 119 L 380 118 L 379 117 L 379 116 L 378 115 L 378 114 Q 378 111 375 111 Q 374 107 370 106 L 370 105 Q 354 86 335 71 Q 328 66 320 63 Q 316 59 311 56 Q 305 52 297 51 L 296 50 Q 292 51 292 49 L 289 49 Q 287 48 286 47 Q 279 47 275 44 Q 268 45 266 42 L 262 42 L 261 41 L 258 41 Q 256 39 252 39 L 251 38 Q 247 39 247 37 L 243 37 L 242 36 L 237 36 L 236 35 L 216 35 L 215 34 L 199 34 L 198 33 L 191 33 Q 189 31 184 32 L 183 31 L 176 31 L 175 30 L 143 30 Z "></path></svg>