<svg width="500" height="500" version="1.1" xmlns="http://www.w3.org/2000/svg"><path fill="rgb(127,127,127)" stroke="rgb(127,127,127)" stroke-width="1" opacity="0.6745098039215687" d="M 191.5 44 Q 192 45.5 194.5 45 Q 194.8 43.8 196.5 44 Q 196.7 45.2 198.5 45 Q 199.5 43 200.5 45 Q 208 46.5 211.5 44 Q 211.8 45.2 213.5 45 Q 213.7 43.8 215.5 44 Q 215.7 45.2 217.5 45 Q 218 43.5 220.5 44 Q 221.5 46 222.5 44 Q 225 43.5 225.5 45 Q 226 43.5 228.5 44 Q 229.5 46 230.5 44 Q 233 43.5 233.5 45 Q 234.5 43 235.5 45 Q 237.7 45.2 238.5 44 Q 238.8 45.2 240.5 45 Q 240.7 43.8 242.5 44 Q 242.7 45.2 244.5 45 Q 245.5 43 246.5 45 L 254.5 45 L 255.5 46 L 258.5 46 Q 259.3 47.8 262.5 47 L 264.5 49 Q 266 46.5 267.5 50 Q 274.5 50 278.5 53 L 282.5 53 L 284.5 55 Q 285.5 53 286.5 55 Q 287.7 56.3 290.5 56 L 292.5 58 Q 296 57.5 296.5 60 Q 298 57.5 299.5 61 Q 303 61.5 304.5 64 L 306.5 64 L 309.5 67 L 310.5 67 Q 314 70.5 319.5 72 L 321.5 74 L 323.5 74 L 326.5 77 Q 328.5 76.5 329 77.5 Q 328.8 79.8 330.5 80 Q 333.5 79.5 334 81.5 Q 333.8 82.8 334.5 83 Q 336 80.5 337.5 84 Q 338.8 83.8 339 84.5 Q 338.8 85.8 339.5 86 Q 341.8 85.8 342 87.5 Q 341.8 89.8 343.5 90 Q 344.8 89.8 345 90.5 Q 344.8 93.2 346.5 94 Q 347.8 93.8 348 94.5 Q 347.8 96.8 349.5 97 Q 350.8 96.8 351 97.5 Q 350.5 99.5 351.5 100 Q 352.8 99.8 353 100.5 Q 352.3 103.3 353.5 104 Q 354.8 103.8 355 104.5 Q 355.9 108.6 358.5 111 Q 359.8 110.8 360 111.5 L 360 113.5 Q 362.4 114.6 362.5 118 Q 364.8 117.8 365 119.5 L 365 121.5 Q 366.9 122.6 366.5 126 Q 367.8 125.8 368 126.5 L 368 128.5 L 370 130.5 Q 369.6 135.4 373 136.5 L 373 139.5 L 375 141.5 Q 374.7 145.8 377 147.5 L 377 150.5 L 379 152.5 L 379 154.5 L 380 155.5 L 380 157.5 Q 381.9 158.6 381.5 162 Q 382.8 161.8 383 162.5 Q 382.6 166.9 384.5 169 Q 385.8 168.8 386 169.5 L 386 171.5 Q 389.7 174.3 390.5 180 Q 391.8 179.8 392 180.5 L 392 183.5 Q 394.2 185.3 395 188.5 Q 396.4 190.6 396 194.5 L 398 196.5 Q 397.7 200.8 400 202.5 L 400 205.5 L 401 206.5 L 401 209.5 Q 402.8 210.2 402 213.5 Q 403.7 214.7 404 217.5 L 404 220.5 L 406 222.5 L 406 224.5 Q 408.3 226.2 408 230.5 L 410 232.5 L 410 235.5 Q 410.9 238.1 413 239.5 Q 412.6 243.4 414 245.5 L 416 247.5 Q 415.6 252.9 419 254.5 Q 418.6 258.4 420 260.5 L 422 262.5 L 422 264.5 Q 425.2 267.2 425.5 273 Q 426.8 272.8 427 273.5 Q 426.5 275.5 427.5 276 Q 428.8 275.8 429 276.5 Q 428.5 278.5 429.5 279 Q 430.8 278.8 431 279.5 Q 430.5 282.5 432.5 283 Q 433.8 282.8 434 283.5 Q 433.5 285.5 434.5 286 Q 435.8 285.8 436 286.5 Q 437.8 292.7 441.5 297 Q 442.8 296.8 443 297.5 L 443 300.5 Q 449 306 450.5 316 Q 451.8 315.8 452 316.5 L 452 318.5 L 454 320.5 L 454 322.5 Q 454.9 325.1 457 326.5 L 457 328.5 L 459 330.5 L 459 333.5 L 460 334.5 Q 461.4 336.6 461 340.5 L 462 341.5 L 462 351.5 Q 460 352.5 462 353.5 Q 462.2 355.2 461 355.5 Q 462.5 356 462 358.5 Q 460.3 359.3 461 362.5 L 459 364.5 L 459 366.5 Q 453.8 371.3 450 377.5 Q 448.5 379 449 382.5 L 447 384.5 Q 445.6 390.1 441.5 393 Q 440.3 392.8 440 393.5 Q 440.3 394.8 439.5 395 Q 434.8 395.8 432.5 399 L 430.5 399 L 428.5 401 Q 426.5 400.5 426 401.5 Q 426.3 402.8 425.5 403 L 422.5 403 Q 419.9 405.9 415 406.5 Q 415.3 407.8 414.5 408 L 411.5 408 L 410.5 409 Q 406.1 408.6 404 410.5 Q 404.3 411.8 403.5 412 L 400.5 412 Q 398.1 415.6 392 415.5 Q 392.3 416.8 391.5 417 Q 389.4 418.4 385.5 418 Q 382.9 418.9 381.5 421 Q 375.5 420.5 373.5 424 L 370.5 424 Q 369.2 425.7 366.5 426 L 363.5 426 L 362.5 427 Q 357.5 426.5 355.5 429 L 352.5 429 L 351.5 430 L 348.5 430 L 347.5 431 L 344.5 431 Q 343.4 432.9 340 432.5 Q 340.3 433.8 339.5 434 Q 331.3 434.8 325.5 438 L 322.5 438 L 321.5 439 L 318.5 439 Q 317.3 440.7 314.5 441 L 311.5 441 L 310.5 442 L 307.5 442 Q 306.7 443.8 303.5 443 Q 302.2 444.7 299.5 445 Q 290.6 445.6 284.5 449 Q 284 447.5 281.5 448 L 280.5 449 L 277.5 449 L 276.5 450 L 273.5 450 L 272.5 451 L 270.5 451 L 269.5 452 Q 266 451.5 264.5 453 Q 264.3 451.7 262.5 452 L 261.5 453 Q 257.6 452.6 255.5 454 Q 254.5 452 253.5 454 Q 249.9 455.9 243.5 455 L 242.5 456 L 239.5 456 Q 238 458.1 234.5 458 Q 234.3 456.7 232.5 457 L 231.5 458 Q 228.3 457.3 227.5 459 Q 227 457.5 224.5 458 Q 224 459.5 221.5 459 Q 220.5 457 219.5 459 Q 216.7 458.7 215.5 460 Q 215.2 458.7 213.5 459 Q 213 460.5 210.5 460 Q 209.5 458 208.5 460 Q 206 460.5 205.5 459 Q 204 461.5 198.5 460 L 197.5 459 Q 196.5 461 195.5 459 Q 193.3 458.8 192.5 460 Q 192.3 458.7 190.5 459 Q 190.3 460.3 188.5 460 L 187.5 459 L 179.5 459 L 178.5 458 Q 177.5 460 176.5 458 Q 174.7 458.2 174.5 457 Q 174.3 458.3 172.5 458 L 171.5 457 L 168.5 457 L 167.5 456 L 164.5 456 Q 163.8 454.3 160.5 455 Q 158.6 451.4 152.5 452 L 150.5 450 Q 149.5 452 148.5 450 Q 143.8 451.3 142.5 449 Q 141.5 451 140.5 449 Q 138.7 449.2 138.5 448 Q 137 450.5 135.5 447 Q 131.3 447.8 130.5 445 Q 130.2 446.3 128.5 446 Q 127 442.5 125.5 445 L 123.5 445 L 118 439.5 Q 117.9 435.2 115 433.5 L 115 431.5 L 114 430.5 L 114 427.5 Q 111.7 425.8 112 421.5 L 110 419.5 L 110 416.5 Q 108.2 415.2 108 412.5 L 108 409.5 L 107 408.5 L 107 405.5 Q 105.3 404.8 106 401.5 Q 104.2 400.2 104 397.5 L 104 394.5 L 103 393.5 L 103 390.5 Q 101.2 389.8 102 386.5 Q 100.2 385.2 100 382.5 Q 98.4 369.6 94 359.5 Q 95.5 359 95 356.5 Q 93 355.1 93 351.5 Q 94.2 351.3 94 349.5 L 93 348.5 Q 93.5 345 92 343.5 Q 93.2 343.2 93 341.5 L 92 340.5 Q 92.5 335.5 90 333.5 L 90 330.5 L 89 329.5 L 89 326.5 Q 86 322 85.5 315 Q 84.3 315.3 84 314.5 L 84 311.5 Q 81 307 80.5 300 Q 79.3 300.3 79 299.5 Q 78.3 290.7 74 285.5 L 74 282.5 L 73 281.5 L 73 278.5 Q 71.3 277.8 72 274.5 Q 69.7 272.8 70 268.5 L 68 266.5 L 68 263.5 Q 65.5 261.5 66 256.5 Q 63.8 254.7 63 251.5 Q 63.4 246.1 60 244.5 Q 60.4 240.6 59 238.5 Q 56.8 236.7 56 233.5 L 56 230.5 Q 54.3 229.7 55 226.5 Q 53.2 225.2 53 222.5 L 53 219.5 Q 51.3 218.8 52 215.5 Q 50.2 214.2 50 211.5 L 50 208.5 L 49 207.5 L 49 204.5 Q 47.3 203.8 48 200.5 Q 46.2 199.2 46 196.5 L 46 193.5 L 45 192.5 L 45 189.5 L 44 188.5 Q 44.8 185.2 43 184.5 Q 44.3 184.3 44 182.5 L 43 181.5 Q 43.5 178 42 176.5 Q 43.2 176.2 43 174.5 L 42 173.5 Q 42.5 170 41 168.5 Q 42.3 168.2 42 166.5 Q 39.9 165.1 40 161.5 Q 41.2 161.3 41 159.5 L 40 158.5 L 40 155.5 L 39 154.5 L 39 151.5 Q 36.7 149.8 37 145.5 Q 39 144.5 37 143.5 L 37 140.5 L 36 139.5 Q 36.4 135.6 35 133.5 Q 36.7 132.8 35.5 132 Q 33.5 132.5 33 131.5 L 33 129.5 L 32 128.5 Q 32.5 125 31 123.5 L 32 122.5 Q 31 118.5 33 117.5 Q 31.7 117.3 32 115.5 Q 34.9 113.8 35 109.5 L 34 108.5 L 37 105.5 L 37 100.5 Q 39.9 98.4 41.5 95 Q 42.8 95.3 43 94.5 L 43 93.5 Q 45.8 92.3 46.5 89 Q 48.5 89.5 49 88.5 Q 48.8 86.3 50.5 86 Q 52.8 86.3 53 84.5 Q 52.8 83.3 53.5 83 Q 57 82.5 58.5 80 Q 60.5 80.5 61 79.5 Q 60.8 78.3 61.5 78 Q 63.5 78.5 64 77.5 Q 63.8 76.3 64.5 76 Q 67.3 76.8 68 75.5 Q 67.8 74.3 68.5 74 L 70.5 74 L 72.5 72 Q 77.4 72.4 78.5 69 L 81.5 69 L 83.5 67 Q 88.4 67.4 89.5 64 L 92.5 64 L 93.5 63 L 96.5 63 Q 97.2 61.3 100.5 62 Q 101.7 60.2 104.5 60 L 107.5 60 L 108.5 59 L 111.5 59 L 112.5 58 L 115.5 58 Q 117 56 120.5 56 Q 120.8 57.2 122.5 57 L 123.5 56 Q 127 56.5 128.5 55 Q 128.7 56.2 130.5 56 Q 132 53.9 135.5 54 Q 135.7 55.3 137.5 55 L 138.5 54 Q 142 54.5 143.5 53 Q 143.8 54.2 145.5 54 L 146.5 53 Q 151.5 53.5 153.5 51 Q 157.8 49.3 164.5 50 Q 165.7 48.2 168.5 48 L 171.5 48 L 172.5 47 L 175.5 47 L 176.5 46 Q 179.7 46.8 180.5 45 Q 181 46.5 183.5 46 L 184.5 45 Q 190 46.5 191.5 44 Z M 196 45 L 195 46 L 185 46 L 184 47 Q 181 48 181 46 L 180 47 Q 176 47 174 48 L 173 49 Q 169 48 169 50 L 166 50 L 165 51 L 158 51 Q 153 54 147 54 L 146 55 Q 143 56 143 54 Q 140 54 139 56 Q 132 54 131 57 Q 128 58 128 56 Q 127 58 124 57 L 123 58 L 117 58 Q 105 63 91 65 Q 89 68 85 68 L 83 70 L 80 70 Q 78 73 74 73 L 72 75 L 70 75 L 68 77 L 66 77 Q 61 82 55 84 Q 53 84 53 87 Q 53 87 52 87 Q 50 87 50 90 Q 50 90 48 90 Q 46 95 42 97 L 42 98 Q 42 98 41 98 Q 40 101 38 103 L 38 106 Q 37 107 36 109 Q 36 113 34 116 Q 32 117 34 118 Q 33 119 33 123 L 32 124 Q 34 125 33 129 L 37 133 L 36 134 Q 36 140 39 144 Q 39 145 38 146 Q 40 147 39 151 L 40 152 L 40 155 Q 40 157 42 159 Q 43 161 41 162 Q 43 162 42 166 L 43 167 Q 43 168 42 169 Q 44 170 43 174 L 44 175 Q 44 176 43 177 Q 45 177 44 181 L 45 182 Q 46 184 44 185 L 45 186 L 45 189 L 46 190 Q 46 193 47 196 L 48 197 Q 47 200 49 201 L 49 204 Q 49 206 51 208 Q 50 211 52 212 L 52 215 L 53 216 L 53 219 Q 53 221 55 223 Q 54 226 56 227 L 56 230 L 57 231 L 57 234 Q 59 235 60 238 Q 59 241 61 242 L 61 245 Q 65 246 64 252 L 66 254 Q 66 258 68 260 L 68 263 L 69 264 L 69 267 Q 69 267 71 267 Q 72 269 72 274 L 73 275 L 73 278 L 74 279 L 74 282 Q 74 284 76 286 L 76 289 L 78 291 Q 78 295 80 297 L 80 299 L 82 301 Q 81 305 84 308 L 84 311 Q 85 314 87 316 L 87 318 L 88 319 Q 90 331 94 342 Q 95 344 93 345 Q 93 347 95 349 Q 93 355 96 357 L 96 364 Q 96 366 98 368 Q 97 371 99 372 L 99 375 L 100 376 L 100 379 Q 100 381 102 383 Q 103 393 107 402 L 107 405 Q 107 407 109 409 Q 108 412 110 413 L 110 416 L 111 417 L 111 420 Q 111 420 113 420 Q 114 422 114 427 L 115 428 L 115 431 Q 116 433 118 435 L 118 438 Q 121 438 121 442 Q 122 443 125 444 Q 126 444 127 443 Q 127 444 129 444 Q 130 446 131 444 Q 135 448 144 448 Q 145 450 146 448 Q 150 448 153 450 Q 154 452 155 450 Q 158 454 165 455 Q 174 455 181 458 Q 182 456 183 458 Q 185 459 186 457 Q 187 459 192 458 Q 193 460 194 458 Q 197 457 199 459 Q 204 461 206 458 Q 207 458 208 459 Q 209 459 210 458 Q 211 458 212 459 Q 213 456 220 458 L 221 457 Q 222 457 223 458 Q 224 458 225 457 Q 227 457 228 458 Q 228 456 232 457 L 233 456 Q 234 456 235 457 Q 235 455 239 456 L 240 455 L 243 455 L 244 454 L 247 454 Q 248 452 249 454 Q 250 453 254 453 L 255 452 Q 256 452 257 453 Q 258 452 262 452 L 263 451 Q 265 451 266 452 Q 268 452 270 450 Q 273 451 274 449 L 277 449 L 278 448 L 281 448 L 282 447 L 288 447 Q 298 443 311 441 Q 313 441 315 439 Q 318 440 319 438 L 322 438 Q 324 438 326 436 Q 329 437 330 435 L 333 435 L 334 434 L 337 434 Q 339 433 341 431 Q 344 432 345 430 L 348 430 Q 352 427 359 427 L 360 426 L 363 426 Q 365 426 367 424 L 370 424 Q 373 424 375 421 Q 377 420 381 420 L 383 418 Q 385 417 389 417 Q 390 415 393 414 L 396 414 Q 398 413 400 411 L 403 411 L 405 409 Q 407 408 411 408 L 412 407 L 414 407 Q 414 407 414 406 Q 419 405 422 402 L 425 402 Q 425 402 425 401 Q 426 399 429 400 Q 432 396 439 394 L 444 389 Q 449 382 451 374 Q 455 370 458 366 Q 460 363 460 359 Q 462 358 460 357 Q 461 356 461 354 Q 459 353 461 352 L 461 342 Q 458 338 458 332 L 456 330 L 456 327 Q 456 326 455 326 Q 453 319 449 316 L 449 313 Q 446 312 447 309 Q 445 306 443 304 Q 442 302 442 299 Q 442 298 441 298 Q 437 294 435 288 Q 435 287 434 287 Q 433 282 430 281 Q 430 280 429 280 Q 428 275 424 273 L 424 270 Q 421 268 421 264 L 419 262 Q 420 258 418 258 L 418 255 Q 416 253 415 251 L 415 248 Q 412 246 412 241 L 410 239 Q 409 236 409 233 Q 409 232 408 232 Q 406 223 402 218 Q 403 214 401 214 L 401 211 L 400 210 L 400 207 Q 397 204 398 200 Q 395 198 395 193 L 394 192 L 394 189 L 392 187 Q 392 181 389 180 L 389 178 Q 387 175 385 173 L 385 171 L 383 169 Q 382 167 382 164 Q 382 163 381 163 Q 380 154 375 148 L 375 145 L 373 143 Q 372 141 372 138 L 370 136 Q 369 129 365 126 Q 366 122 364 121 L 361 118 L 361 116 Q 361 115 360 115 Q 357 108 352 104 L 352 102 Q 352 101 351 101 Q 349 101 350 99 Q 350 97 348 97 Q 346 93 343 92 L 343 91 Q 343 90 342 90 Q 341 90 341 89 L 337 84 L 335 84 Q 333 81 329 80 Q 328 80 328 79 Q 324 75 318 73 L 316 71 Q 315 70 313 70 L 311 68 Q 308 68 307 66 L 306 66 L 304 64 Q 299 61 294 60 L 292 58 L 289 58 Q 287 55 283 55 Q 282 53 281 55 Q 279 53 275 53 L 274 52 L 269 52 Q 268 49 264 50 Q 262 46 261 49 Q 260 46 255 47 Q 254 45 253 47 L 252 46 L 233 46 L 232 45 Q 230 45 230 46 Q 228 46 228 45 Q 226 45 226 46 Q 225 45 223 45 Q 222 47 221 45 Q 218 45 217 46 Q 216 44 215 46 L 197 46 L 196 45 Z "></path><path fill="rgb(2,2,2)" stroke="rgb(2,2,2)" stroke-width="1" opacity="0.9921568627450981" d="M 373.5 11 Q 390.3 11.3 396 22.5 L 396 23.5 Q 400.7 27.3 403 33.5 L 403 37.5 Q 402.3 41.8 396.5 41 L 393 37.5 Q 393.4 32.1 390 30.5 L 382.5 23 Q 381 21.5 377.5 22 L 376.5 21 Q 367.4 30.9 370 52.5 Q 371 55 375.5 54 Q 379.9 50 389.5 51 Q 390.3 52.3 392 52.5 Q 393.5 54 393 57.5 Q 391.8 58.3 391.5 60 Q 389 62 383.5 61 Q 382.7 62.8 379.5 62 L 377.5 64 Q 374 63 373 64.5 L 374 65.5 Q 373.7 69.8 376 71.5 L 376 74.5 Q 377.7 75.7 378 78.5 L 378 83.5 Q 377 87 371.5 86 Q 368.4 84.1 367 80.5 L 367 76.5 L 366 75.5 Q 366.3 71.2 364 69.5 L 364 66.5 Q 362.8 65.8 362.5 64 Q 355.5 65.5 354 61.5 Q 353 56 356.5 55 Q 359.2 55.2 360 53.5 L 360 33.5 L 361 32.5 Q 362.2 24.2 366 18.5 Q 368.2 14.7 371.5 12 Q 373.2 12.2 373.5 11 Z "></path><path fill="rgb(2,2,2)" stroke="rgb(2,2,2)" stroke-width="1" opacity="0.9921568627450981" d="M 427.5 11 Q 434 10 435 14.5 Q 434 18.5 436 19.5 L 436 25.5 L 437 26.5 L 437 39.5 L 438 40.5 L 438 56.5 L 439 57.5 L 439 71.5 L 440 72.5 L 440 83.5 Q 439 88 432.5 87 L 430 84.5 L 430 71.5 L 429 70.5 L 429 56.5 L 428 55.5 L 428 39.5 L 427 38.5 L 427 25.5 L 426 24.5 Q 427 20.5 425 19.5 L 425 13.5 L 427.5 11 Z "></path><path fill="rgb(2,2,2)" stroke="rgb(2,2,2)" stroke-width="1" opacity="0.9921568627450981" d="M 464.5 33 Q 476.1 33.4 480 41.5 Q 483.5 46 484 53.5 Q 482.6 57.1 479.5 59 L 478.5 59 L 477.5 60 L 476.5 60 Q 473.9 62.9 469.5 64 L 459.5 64 Q 455.7 62.8 453.5 60 Q 451.7 61.2 453 65.5 Q 454.8 72.2 459.5 76 L 460.5 76 Q 462.3 78.8 465.5 80 L 471.5 80 L 474 82.5 Q 475 89 470.5 90 Q 462.8 91.2 459.5 88 Q 453.3 84.3 449 78.5 L 449 77.5 Q 444.7 73.8 443 67.5 L 443 56.5 Q 449 44.5 458.5 36 L 459.5 36 Q 461.3 33.8 464.5 33 Z M 467 43 Q 466 44 465 44 Q 461 47 458 52 Q 461 52 462 54 Q 469 55 473 52 Q 473 49 472 48 Q 470 44 467 43 Z "></path><path fill="rgb(2,2,2)" stroke="rgb(2,2,2)" stroke-width="1" opacity="0.9921568627450981" d="M 406.5 40 Q 412 39 413 42.5 Q 414 48 410.5 49 Q 405 50 404 46.5 Q 403 41 406.5 40 Z "></path><path fill="rgb(2,2,2)" stroke="rgb(2,2,2)" stroke-width="1" opacity="0.9921568627450981" d="M 400.5 55 Q 405.6 54.4 407 57.5 Q 409.5 59.5 409 64.5 L 410 65.5 L 410 70.5 L 411 71.5 L 411 75.5 Q 413 76.5 412 80.5 Q 410.8 81.3 410.5 83 Q 408.7 84.7 404.5 84 L 402 81.5 Q 402.8 78.3 401 77.5 L 401 72.5 L 400 71.5 L 400 66.5 Q 399.5 63 397 61.5 L 397 58.5 Q 398.3 57.8 398.5 56 Q 400.2 56.2 400.5 55 Z "></path><path fill="rgb(2,2,2)" stroke="rgb(2,2,2)" stroke-width="1" opacity="0.9921568627450981" d="M 195.5 76 L 197.5 76 Q 198.5 78 201 78.5 L 201 80.5 Q 203.5 82 204 85.5 L 204 88.5 L 205 89.5 L 205 92.5 Q 206.7 93.7 207 96.5 L 207 99.5 L 208 100.5 L 208 103.5 L 209 104.5 Q 208.5 108 210 109.5 Q 208.7 109.8 209 111.5 Q 211.3 113.2 211 117.5 L 213 119.5 Q 212.6 123.4 214 125.5 L 216 127.5 Q 215.5 131 218 131.5 Q 217.7 134.7 219 136.5 Q 221.5 138.5 223 141.5 Q 225.7 147.3 226 155.5 Q 226.4 158.6 228.5 160 L 244.5 160 L 245.5 159 Q 246 160.5 248.5 160 Q 248.7 158.8 250.5 159 Q 250.8 160.2 252.5 160 L 253.5 159 Q 261.7 160.2 266.5 158 Q 267.5 160 268.5 158 L 275.5 158 Q 279.3 155.3 285.5 155 Q 289 152 294.5 151 Q 298.4 151.4 300.5 150 L 302.5 148 Q 304.6 146.6 308.5 147 L 309.5 146 Q 318.2 143.7 324.5 139 Q 327.4 140.1 329 142.5 Q 329.6 146.6 327.5 148 Q 325.9 151.4 320.5 151 L 318.5 153 L 315.5 153 Q 312.9 153.9 311.5 156 L 308.5 156 Q 307.8 157.8 304.5 157 Q 301.7 160.2 296.5 161 L 293.5 161 Q 292.3 162.7 289.5 163 L 286.5 163 L 285.5 164 L 282.5 164 L 281.5 165 L 278.5 165 L 277.5 166 L 275.5 166 L 274.5 167 Q 271 166.5 269.5 168 Q 269.2 166.8 267.5 167 L 266.5 168 Q 260.2 166.3 258.5 169 Q 258.2 167.8 256.5 168 Q 256 169.5 253.5 169 Q 252.5 167 251.5 169 Q 249 169.5 248.5 168 L 247.5 169 L 236.5 169 L 235.5 170 Q 235.2 168.8 233.5 169 Q 233.2 170.2 231.5 170 Q 231.2 168.8 229.5 169 Q 229.3 170.2 227.5 170 Q 222.5 169 220 165.5 L 220 162.5 L 219 161.5 Q 219.5 156.5 217 154.5 L 217 151.5 L 215 149.5 Q 215.4 144.6 212 143.5 L 212 140.5 Q 210.6 135.4 207 132.5 L 207 129.5 L 205 127.5 Q 205.3 123.2 203 121.5 L 203 118.5 Q 199.1 110.4 198 99.5 Q 196.2 98.2 196 95.5 L 196 92.5 L 195 91.5 L 195 88.5 Q 193.3 87.8 194 84.5 L 192 82.5 L 192 78.5 Q 193.3 76.8 195.5 76 Z "></path><path fill="rgb(2,2,2)" stroke="rgb(2,2,2)" stroke-width="1" opacity="0.9921568627450981" d="M 324.5 174 Q 327.9 173.6 329 175.5 Q 333.7 179.8 334.5 188 Q 335.8 187.8 336 188.5 Q 337.4 190.6 337 194.5 L 338 195.5 L 338 198.5 L 339 199.5 L 339 202.5 L 340 203.5 Q 339.3 209.3 341 212.5 Q 339 213.5 341 214.5 Q 341.8 220.3 340 223.5 Q 337.1 230.1 332.5 235 Q 326.9 240.9 318.5 244 L 315.5 244 L 314.5 245 Q 311.2 244.2 310.5 246 L 305.5 246 L 304.5 247 L 297.5 247 L 296.5 248 L 295.5 247 L 283.5 247 Q 283.3 245.8 281.5 246 Q 280.5 248 279.5 246 L 272.5 246 Q 270.8 243.3 264.5 245 L 263.5 244 Q 259.5 245 258.5 243 Q 257.5 245 256.5 243 Q 253.3 243.8 252.5 242 L 247.5 242 L 246.5 241 Q 243.3 241.8 242.5 240 Q 242.2 241.3 240.5 241 Q 240.2 239.8 238.5 240 Q 232 243 234 254.5 Q 235.2 254.8 235 256.5 Q 233.7 256.8 234 258.5 L 235 259.5 Q 233.5 265 236 266.5 L 236 276.5 L 235 277.5 L 235 282.5 Q 232.7 284.2 233 288.5 Q 230.5 295 225.5 299 Q 222 298.5 221.5 301 L 210.5 301 Q 197.4 297.6 187.5 291 Q 173.6 280.9 162 268.5 Q 162.3 267.3 161.5 267 Q 155.6 265.4 152 261.5 Q 152.2 259.3 151 258.5 Q 152.1 255.6 154.5 254 L 157.5 254 Q 160.4 257.6 165.5 259 Q 178.8 269.7 190.5 282 L 191.5 282 Q 195 285.5 200.5 287 L 202.5 289 Q 208.5 289 211.5 292 L 215.5 292 Q 216.5 290 217.5 292 Q 222.5 292.5 223 288.5 Q 225.7 283.7 226 276.5 L 227 275.5 L 227 269.5 L 226 268.5 Q 226.8 262.8 225 259.5 Q 227 258.5 225 257.5 Q 226.8 251.3 224 249.5 L 225 248.5 Q 224.3 241.8 227 238.5 L 232.5 233 Q 235.8 229.8 243.5 231 Q 252.8 234.7 265.5 235 L 266.5 236 Q 267.5 234 268.5 236 Q 274.7 234.2 276.5 237 L 287.5 237 Q 287.8 238.2 289.5 238 Q 290.5 236 291.5 238 L 301.5 238 L 302.5 237 L 308.5 237 L 309.5 236 L 312.5 236 Q 313.3 234.3 316.5 235 Q 322.4 231.9 327 227.5 Q 332.2 223.2 332 213.5 L 331 212.5 L 331 205.5 Q 328 201.5 328 194.5 L 327 193.5 L 327 191.5 L 326 190.5 L 326 189.5 Q 323.1 186.9 322 182.5 Q 322.2 179.2 321 177.5 Q 322.3 176.8 322.5 175 Q 324.2 175.2 324.5 174 Z "></path><path fill="rgb(2,2,2)" stroke="rgb(2,2,2)" stroke-width="1" opacity="0.9921568627450981" d="M 299.5 189 Q 302.6 189.4 304 191.5 Q 305 197 301.5 198 Q 297 199 296 196.5 Q 296.2 194.3 295 193.5 Q 295.8 191.3 297.5 190 Q 299.2 190.2 299.5 189 Z "></path><path fill="rgb(2,2,2)" stroke="rgb(2,2,2)" stroke-width="1" opacity="0.9921568627450981" d="M 165.5 321 Q 171.3 320.2 173 323.5 Q 172.8 325.7 174 326.5 Q 173.3 328.8 171.5 330 Q 164.3 331.3 162 327.5 Q 161.4 323.4 163.5 322 Q 165.2 322.2 165.5 321 Z "></path><path fill="rgb(134,134,134)" stroke="rgb(134,134,134)" stroke-width="1" opacity="0.996078431372549" d="M 218.5 45 Q 220.5 44.5 221 45.5 Q 220.5 46.5 218.5 46 Q 217.5 45.5 218.5 45 Z "></path><path fill="rgb(134,134,134)" stroke="rgb(134,134,134)" stroke-width="1" opacity="0.996078431372549" d="M 202.5 46 Q 204.5 45.5 205 46.5 Q 204.5 47.5 202.5 47 Q 201.5 46.5 202.5 46 Z "></path><path fill="rgb(134,134,134)" stroke="rgb(134,134,134)" stroke-width="1" opacity="0.996078431372549" d="M 206.5 46 Q 208.5 45.5 209 46.5 Q 208.5 47.5 206.5 47 Q 205.5 46.5 206.5 46 Z "></path><path fill="rgb(134,134,134)" stroke="rgb(134,134,134)" stroke-width="1" opacity="0.996078431372549" d="M 256.5 47 Q 259.5 46.5 260 48.5 Q 259.2 49.7 258.5 48 Q 255.5 48.5 256.5 47 Z "></path><path fill="rgb(134,134,134)" stroke="rgb(134,134,134)" stroke-width="1" opacity="0.996078431372549" d="M 160.5 51 Q 162.5 50.5 163 51.5 Q 162.5 52.5 160.5 52 Q 159.5 51.5 160.5 51 Z "></path><path fill="rgb(134,134,134)" stroke="rgb(134,134,134)" stroke-width="1" opacity="0.996078431372549" d="M 272.5 52 Q 274.8 51.8 275 53.5 Q 274.2 54.7 273.5 53 Q 271.1 52.9 272.5 52 Z "></path><path fill="rgb(134,134,134)" stroke="rgb(134,134,134)" stroke-width="1" opacity="0.996078431372549" d="M 281.5 54 Q 282.3 55.3 284 55.5 Q 283.8 56.3 282.5 56 Q 280 55 281.5 54 Z "></path><path fill="rgb(134,134,134)" stroke="rgb(134,134,134)" stroke-width="1" opacity="0.996078431372549" d="M 297.5 61 Q 298.3 62.3 300 62.5 Q 299.8 63.3 298.5 63 Q 296 62 297.5 61 Z "></path><path fill="rgb(134,134,134)" stroke="rgb(134,134,134)" stroke-width="1" opacity="0.996078431372549" d="M 301.5 63 Q 303.8 63.8 305 65.5 Q 304.2 66.7 303.5 65 Q 299.7 64.3 301.5 63 Z "></path><path fill="rgb(134,134,134)" stroke="rgb(134,134,134)" stroke-width="1" opacity="0.996078431372549" d="M 308.5 67 Q 310.8 67.8 312 69.5 Q 311.2 70.7 310.5 69 Q 306.7 68.3 308.5 67 Z "></path><path fill="rgb(134,134,134)" stroke="rgb(134,134,134)" stroke-width="1" opacity="0.996078431372549" d="M 313.5 70 Q 314.3 71.3 316 71.5 Q 315.8 72.3 314.5 72 Q 312 71 313.5 70 Z "></path><path fill="rgb(134,134,134)" stroke="rgb(134,134,134)" stroke-width="1" opacity="0.996078431372549" d="M 318.5 73 Q 319.3 74.3 321 74.5 Q 320.8 75.3 319.5 75 Q 317 74 318.5 73 Z "></path><path fill="rgb(134,134,134)" stroke="rgb(134,134,134)" stroke-width="1" opacity="0.996078431372549" d="M 65.5 77 Q 66.3 77.3 66 78.5 Q 65.8 79.3 64.5 79 Q 63 78 65.5 77 Z "></path><path fill="rgb(134,134,134)" stroke="rgb(134,134,134)" stroke-width="1" opacity="0.996078431372549" d="M 59.5 81 Q 61 82 58.5 83 Q 56.7 82.7 56.5 84 Q 55 83 57.5 82 Q 59.2 82.2 59.5 81 Z "></path><path fill="rgb(134,134,134)" stroke="rgb(134,134,134)" stroke-width="1" opacity="0.996078431372549" d="M 54.5 84 Q 55.7 84.7 54 85.5 Q 54.3 86.8 53.5 87 Q 52.8 86.8 53 85.5 L 54.5 84 Z "></path><path fill="rgb(134,134,134)" stroke="rgb(134,134,134)" stroke-width="1" opacity="0.996078431372549" d="M 338.5 86 Q 342.5 87.5 340.5 89 L 338 86.5 L 338.5 86 Z "></path><path fill="rgb(134,134,134)" stroke="rgb(134,134,134)" stroke-width="1" opacity="0.996078431372549" d="M 47.5 90 Q 48.3 90.3 48 91.5 Q 47 94 46 92.5 Q 47.3 91.8 47.5 90 Z "></path><path fill="rgb(134,134,134)" stroke="rgb(134,134,134)" stroke-width="1" opacity="0.996078431372549" d="M 44.5 94 Q 45.3 94.3 45 95.5 Q 43.3 95.8 42.5 97 L 42 96.5 L 44.5 94 Z "></path><path fill="rgb(134,134,134)" stroke="rgb(134,134,134)" stroke-width="1" opacity="0.996078431372549" d="M 348.5 97 Q 351 98 349.5 99 Q 348.3 99.3 348 98.5 Q 347.8 97.3 348.5 97 Z "></path><path fill="rgb(134,134,134)" stroke="rgb(134,134,134)" stroke-width="1" opacity="0.996078431372549" d="M 40.5 98 Q 41.8 97.8 42 98.5 L 39.5 101 L 39 100.5 Q 40.3 99.8 40.5 98 Z "></path><path fill="rgb(134,134,134)" stroke="rgb(134,134,134)" stroke-width="1" opacity="0.996078431372549" d="M 37.5 106 Q 38.3 106.3 38 107.5 Q 37 110 36 108.5 Q 37.3 107.8 37.5 106 Z "></path><path fill="rgb(134,134,134)" stroke="rgb(134,134,134)" stroke-width="1" opacity="0.996078431372549" d="M 354.5 107 Q 356.3 107.3 356 109.5 Q 355.5 110.5 355 109.5 Q 353.1 107.9 354.5 107 Z "></path><path fill="rgb(134,134,134)" stroke="rgb(134,134,134)" stroke-width="1" opacity="0.996078431372549" d="M 359.5 115 Q 360.8 114.8 361 115.5 Q 361.3 116.8 360.5 117 Q 358 116 359.5 115 Z "></path><path fill="rgb(134,134,134)" stroke="rgb(134,134,134)" stroke-width="1" opacity="0.996078431372549" d="M 367.5 129 Q 367.8 130.8 369 131.5 Q 368 133 367 130.5 Q 366.8 129.3 367.5 129 Z "></path><path fill="rgb(134,134,134)" stroke="rgb(134,134,134)" stroke-width="1" opacity="0.996078431372549" d="M 36.5 133 Q 37.5 133.5 37 135.5 Q 36.5 136.5 36 135.5 Q 35.5 133.5 36.5 133 Z "></path><path fill="rgb(134,134,134)" stroke="rgb(134,134,134)" stroke-width="1" opacity="0.996078431372549" d="M 392.5 187 Q 394.3 187.3 394 189.5 Q 393.5 190.5 393 189.5 Q 391.1 187.9 392.5 187 Z "></path><path fill="rgb(134,134,134)" stroke="rgb(134,134,134)" stroke-width="1" opacity="0.996078431372549" d="M 395.5 195 Q 395.8 196.8 397 197.5 Q 396 199 395 196.5 Q 394.8 195.3 395.5 195 Z "></path><path fill="rgb(134,134,134)" stroke="rgb(134,134,134)" stroke-width="1" opacity="0.996078431372549" d="M 403.5 221 Q 403.8 222.8 405 223.5 Q 404 225 403 222.5 Q 402.8 221.3 403.5 221 Z "></path><path fill="rgb(134,134,134)" stroke="rgb(134,134,134)" stroke-width="1" opacity="0.996078431372549" d="M 57.5 232 Q 57.8 233.8 59 234.5 Q 58 236 57 233.5 Q 56.8 232.3 57.5 232 Z "></path><path fill="rgb(134,134,134)" stroke="rgb(134,134,134)" stroke-width="1" opacity="0.996078431372549" d="M 413.5 246 Q 415.3 246.3 415 248.5 Q 414.5 249.5 414 248.5 Q 412.1 246.9 413.5 246 Z "></path><path fill="rgb(134,134,134)" stroke="rgb(134,134,134)" stroke-width="1" opacity="0.996078431372549" d="M 64.5 250 Q 64.8 251.8 66 252.5 Q 65 254 64 251.5 Q 63.8 250.3 64.5 250 Z "></path><path fill="rgb(134,134,134)" stroke="rgb(134,134,134)" stroke-width="1" opacity="0.996078431372549" d="M 416.5 253 Q 418.3 253.3 418 255.5 Q 417.5 256.5 417 255.5 Q 415.1 253.9 416.5 253 Z "></path><path fill="rgb(134,134,134)" stroke="rgb(134,134,134)" stroke-width="1" opacity="0.996078431372549" d="M 69.5 265 Q 72 266 70.5 267 Q 69.3 267.3 69 266.5 Q 68.8 265.3 69.5 265 Z "></path><path fill="rgb(134,134,134)" stroke="rgb(134,134,134)" stroke-width="1" opacity="0.996078431372549" d="M 422.5 268 Q 424.3 268.3 424 270.5 Q 423.5 271.5 423 270.5 Q 421.1 268.9 422.5 268 Z "></path><path fill="rgb(134,134,134)" stroke="rgb(134,134,134)" stroke-width="1" opacity="0.996078431372549" d="M 426.5 276 Q 429 277 427.5 278 Q 426.3 278.3 426 277.5 Q 425.8 276.3 426.5 276 Z "></path><path fill="rgb(134,134,134)" stroke="rgb(134,134,134)" stroke-width="1" opacity="0.996078431372549" d="M 430.5 282 Q 434.5 283.5 432.5 285 Q 431.3 285.3 431 284.5 Q 429.1 282.9 430.5 282 Z "></path><path fill="rgb(134,134,134)" stroke="rgb(134,134,134)" stroke-width="1" opacity="0.996078431372549" d="M 76.5 287 Q 76.8 288.8 78 289.5 Q 77 291 76 288.5 Q 75.8 287.3 76.5 287 Z "></path><path fill="rgb(134,134,134)" stroke="rgb(134,134,134)" stroke-width="1" opacity="0.996078431372549" d="M 435.5 289 Q 437.3 289.3 437 291.5 Q 436.5 292.5 436 291.5 Q 434.1 289.9 435.5 289 Z "></path><path fill="rgb(134,134,134)" stroke="rgb(134,134,134)" stroke-width="1" opacity="0.996078431372549" d="M 437.5 293 Q 439.3 293.3 439 295.5 Q 438.5 296.5 438 295.5 Q 436.1 293.9 437.5 293 Z "></path><path fill="rgb(134,134,134)" stroke="rgb(134,134,134)" stroke-width="1" opacity="0.996078431372549" d="M 447.5 311 Q 449.3 311.3 449 313.5 Q 448.5 314.5 448 313.5 Q 446.1 311.9 447.5 311 Z "></path><path fill="rgb(134,134,134)" stroke="rgb(134,134,134)" stroke-width="1" opacity="0.996078431372549" d="M 451.5 319 Q 451.8 320.8 453 321.5 Q 452 323 451 320.5 Q 450.8 319.3 451.5 319 Z "></path><path fill="rgb(134,134,134)" stroke="rgb(134,134,134)" stroke-width="1" opacity="0.996078431372549" d="M 460.5 344 Q 461.5 344.5 461 346.5 Q 460.5 347.5 460 346.5 Q 459.5 344.5 460.5 344 Z "></path><path fill="rgb(134,134,134)" stroke="rgb(134,134,134)" stroke-width="1" opacity="0.996078431372549" d="M 460.5 348 Q 461.8 348.8 461 351.5 Q 460.5 352.5 460 351.5 Q 459.3 348.8 460.5 348 Z "></path><path fill="rgb(134,134,134)" stroke="rgb(134,134,134)" stroke-width="1" opacity="0.996078431372549" d="M 454.5 368 Q 455.8 367.8 456 368.5 L 453.5 371 L 453 370.5 Q 454.3 369.8 454.5 368 Z "></path><path fill="rgb(134,134,134)" stroke="rgb(134,134,134)" stroke-width="1" opacity="0.996078431372549" d="M 449.5 376 Q 450.7 376.7 449 377.5 Q 449.3 378.8 448.5 379 Q 447.8 378.8 448 377.5 L 449.5 376 Z "></path><path fill="rgb(134,134,134)" stroke="rgb(134,134,134)" stroke-width="1" opacity="0.996078431372549" d="M 443.5 388 Q 445.5 389.5 441.5 391 Q 440.8 390.8 441 389.5 Q 442.8 389.3 443.5 388 Z "></path><path fill="rgb(134,134,134)" stroke="rgb(134,134,134)" stroke-width="1" opacity="0.996078431372549" d="M 436.5 394 Q 438 395 435.5 396 Q 434.3 396.3 434 395.5 Q 435.8 395.3 436.5 394 Z "></path><path fill="rgb(134,134,134)" stroke="rgb(134,134,134)" stroke-width="1" opacity="0.996078431372549" d="M 429.5 398 Q 431 399 428.5 400 Q 427.3 400.3 427 399.5 Q 428.8 399.3 429.5 398 Z "></path><path fill="rgb(134,134,134)" stroke="rgb(134,134,134)" stroke-width="1" opacity="0.996078431372549" d="M 120.5 439 Q 122.3 440.3 123 442.5 Q 122 444 121 441.5 Q 119.1 439.9 120.5 439 Z "></path><path fill="rgb(134,134,134)" stroke="rgb(134,134,134)" stroke-width="1" opacity="0.996078431372549" d="M 127.5 443 Q 129.8 442.8 130 444.5 Q 129.3 445.7 128.5 444 Q 126.1 443.9 127.5 443 Z "></path><path fill="rgb(134,134,134)" stroke="rgb(134,134,134)" stroke-width="1" opacity="0.996078431372549" d="M 147.5 448 Q 149.5 447.5 150 448.5 Q 149.5 449.5 147.5 449 Q 146.5 448.5 147.5 448 Z "></path><path fill="rgb(134,134,134)" stroke="rgb(134,134,134)" stroke-width="1" opacity="0.996078431372549" d="M 151.5 449 Q 153.8 448.8 154 450.5 Q 153.2 451.7 152.5 450 Q 150.1 449.9 151.5 449 Z "></path><path fill="rgb(134,134,134)" stroke="rgb(134,134,134)" stroke-width="1" opacity="0.996078431372549" d="M 156.5 451 Q 158.8 450.8 159 452.5 Q 158.2 453.7 157.5 452 Q 155.1 451.9 156.5 451 Z "></path><path fill="rgb(134,134,134)" stroke="rgb(134,134,134)" stroke-width="1" opacity="0.996078431372549" d="M 164.5 454 Q 166.5 453.5 167 454.5 Q 166.5 455.5 164.5 455 Q 163.5 454.5 164.5 454 Z "></path><path fill="rgb(134,134,134)" stroke="rgb(134,134,134)" stroke-width="1" opacity="0.996078431372549" d="M 168.5 454 Q 169.3 455.3 171 455.5 Q 170.8 456.3 169.5 456 Q 167 455 168.5 454 Z "></path><path fill="rgb(134,134,134)" stroke="rgb(134,134,134)" stroke-width="1" opacity="0.996078431372549" d="M 175.5 456 Q 177.5 455.5 178 456.5 Q 177.5 457.5 175.5 457 Q 174.5 456.5 175.5 456 Z "></path><path fill="rgb(134,134,134)" stroke="rgb(134,134,134)" stroke-width="1" opacity="0.996078431372549" d="M 198.5 458 Q 201.3 457.3 202 458.5 Q 201.3 459.8 198.5 459 Q 197.5 458.5 198.5 458 Z "></path><path fill="rgb(0,0,0)" stroke="rgb(0,0,0)" stroke-width="1" opacity="0" d="M 0.5 0 L 499.5 0 L 500 0.5 L 500 499.5 L 499.5 500 L 0.5 500 L 0 499.5 L 0 0.5 L 0.5 0 Z M 374 11 Q 373 12 372 12 Q 368 15 366 19 Q 362 24 361 33 L 360 34 L 360 54 Q 359 55 357 55 Q 353 56 354 62 Q 356 66 363 64 Q 363 66 364 67 L 364 70 Q 366 71 366 76 L 367 77 L 367 81 Q 368 84 372 86 Q 377 87 378 84 L 378 79 Q 378 76 376 75 L 376 72 Q 374 70 374 66 L 373 65 Q 374 63 378 64 L 380 62 Q 383 63 384 61 Q 389 62 392 60 Q 392 58 393 58 Q 394 54 392 53 Q 390 52 390 51 Q 380 50 376 54 Q 371 55 370 53 Q 367 31 377 21 L 378 22 Q 381 22 383 23 L 390 31 Q 393 32 393 38 L 397 41 Q 402 42 403 38 L 403 34 Q 401 27 396 24 L 396 23 Q 390 11 374 11 Z M 428 11 L 425 14 L 425 20 Q 427 20 426 25 L 427 26 L 427 39 L 428 40 L 428 56 L 429 57 L 429 71 L 430 72 L 430 85 L 433 87 Q 439 88 440 84 L 440 73 L 439 72 L 439 58 L 438 57 L 438 41 L 437 40 L 437 27 L 436 26 L 436 20 Q 434 19 435 15 Q 434 10 428 11 Z M 465 33 Q 461 34 460 36 L 459 36 Q 449 44 443 57 L 443 68 Q 445 74 449 78 L 449 79 Q 453 84 460 88 Q 463 91 471 90 Q 475 89 474 83 L 472 80 L 466 80 Q 462 79 461 76 L 460 76 Q 455 72 453 66 Q 452 61 454 60 Q 456 63 460 64 L 470 64 Q 474 63 477 60 L 478 60 L 479 59 L 480 59 Q 483 57 484 54 Q 484 46 480 42 Q 476 33 465 33 Z M 407 40 Q 403 41 404 47 Q 405 50 411 49 Q 414 48 413 43 Q 412 39 407 40 Z M 192 44 Q 190 47 185 45 L 184 46 Q 181 47 181 45 Q 180 47 177 46 L 176 47 L 173 47 L 172 48 L 169 48 Q 166 48 165 50 Q 158 49 154 51 Q 151 53 147 53 L 146 54 Q 144 54 144 53 Q 142 55 139 54 L 138 55 Q 136 55 136 54 Q 132 54 131 56 Q 129 56 129 55 Q 127 57 124 56 L 123 57 Q 121 57 121 56 Q 117 56 116 58 L 113 58 L 112 59 L 109 59 L 108 60 L 105 60 Q 102 60 101 62 Q 97 61 97 63 L 94 63 L 93 64 L 90 64 Q 88 67 84 67 L 82 69 L 79 69 Q 77 72 73 72 L 71 74 L 69 74 Q 68 74 68 76 Q 67 77 65 76 Q 64 76 64 78 Q 63 78 62 78 Q 61 78 61 80 Q 60 81 59 80 Q 57 83 54 83 Q 53 83 53 85 Q 53 86 51 86 Q 49 86 49 89 Q 49 90 47 89 Q 46 92 43 94 L 43 95 Q 43 95 42 95 Q 40 98 37 101 L 37 106 L 34 109 L 35 110 Q 35 114 32 116 Q 32 117 33 118 Q 31 118 32 123 L 31 124 Q 33 125 32 129 L 33 130 L 33 132 Q 34 132 36 132 Q 37 133 35 134 Q 36 136 36 140 L 37 141 L 37 144 Q 39 145 37 146 Q 37 150 39 152 L 39 155 L 40 156 L 40 159 L 41 160 Q 41 161 40 162 Q 40 165 42 167 Q 42 168 41 169 Q 43 170 42 174 L 43 175 Q 43 176 42 177 Q 44 178 43 182 L 44 183 Q 44 184 43 185 Q 45 185 44 189 L 45 190 L 45 193 L 46 194 L 46 197 Q 46 199 48 201 Q 47 204 49 205 L 49 208 L 50 209 L 50 212 Q 50 214 52 216 Q 51 219 53 220 L 53 223 Q 53 225 55 227 Q 54 230 56 231 L 56 234 Q 57 237 59 239 Q 60 241 60 245 Q 63 246 63 252 Q 64 255 66 257 Q 66 262 68 264 L 68 267 L 70 269 Q 70 273 72 275 Q 71 278 73 279 L 73 282 L 74 283 L 74 286 Q 78 291 79 300 Q 79 300 81 300 Q 81 307 84 312 L 84 315 Q 84 315 86 315 Q 86 322 89 327 L 89 330 L 90 331 L 90 334 Q 92 335 92 341 L 93 342 Q 93 343 92 344 Q 94 345 93 349 L 94 350 Q 94 351 93 352 Q 93 355 95 357 Q 96 359 94 360 Q 98 370 100 383 Q 100 385 102 387 Q 101 390 103 391 L 103 394 L 104 395 L 104 398 Q 104 400 106 402 Q 105 405 107 406 L 107 409 L 108 410 L 108 413 Q 108 415 110 417 L 110 420 L 112 422 Q 112 426 114 428 L 114 431 L 115 432 L 115 434 Q 118 435 118 440 L 124 445 L 126 445 Q 127 442 129 446 Q 130 446 131 445 Q 131 448 136 447 Q 137 450 139 448 Q 139 449 141 449 Q 142 451 143 449 Q 144 451 149 450 Q 150 452 151 450 L 153 452 Q 159 451 161 455 Q 164 454 165 456 L 168 456 L 169 457 L 172 457 L 173 458 Q 174 458 175 457 Q 175 458 177 458 Q 178 460 179 458 L 180 459 L 188 459 L 189 460 Q 190 460 191 459 Q 192 459 193 460 Q 193 459 196 459 Q 197 461 198 459 L 199 460 Q 204 462 206 459 Q 206 461 209 460 Q 210 458 211 460 Q 213 461 214 459 Q 215 459 216 460 Q 217 459 220 459 Q 221 457 222 459 Q 224 460 225 458 Q 227 458 228 459 Q 228 457 232 458 L 233 457 Q 234 457 235 458 Q 238 458 240 456 L 243 456 L 244 455 Q 250 456 254 454 Q 255 452 256 454 Q 258 453 262 453 L 263 452 Q 264 452 265 453 Q 266 452 270 452 L 271 451 L 273 451 L 274 450 L 277 450 L 278 449 L 281 449 L 282 448 Q 284 448 285 449 Q 291 446 300 445 Q 302 445 304 443 Q 307 444 308 442 L 311 442 L 312 441 L 315 441 Q 317 441 319 439 L 322 439 L 323 438 L 326 438 Q 331 435 340 434 Q 340 434 340 433 Q 343 433 345 431 L 348 431 L 349 430 L 352 430 L 353 429 L 356 429 Q 357 426 363 427 L 364 426 L 367 426 Q 369 426 371 424 L 374 424 Q 376 421 382 421 Q 383 419 386 418 Q 389 418 392 417 Q 392 417 392 416 Q 398 416 401 412 L 404 412 Q 404 412 404 411 Q 406 409 411 409 L 412 408 L 415 408 Q 415 408 415 407 Q 420 406 423 403 L 426 403 Q 426 403 426 402 Q 427 401 429 401 L 431 399 L 433 399 Q 435 396 440 395 Q 440 395 440 394 Q 440 393 442 393 Q 446 390 447 385 L 449 383 Q 449 379 450 378 Q 454 371 459 367 L 459 365 L 461 363 Q 460 359 462 359 Q 463 356 461 356 Q 462 355 462 354 Q 460 353 462 352 L 462 342 L 461 341 Q 461 337 460 335 L 459 334 L 459 331 L 457 329 L 457 327 Q 455 325 454 323 L 454 321 L 452 319 L 452 317 Q 452 316 451 316 Q 449 306 443 301 L 443 298 Q 443 297 442 297 Q 438 293 436 287 Q 436 286 435 286 Q 433 286 434 284 Q 434 283 433 283 Q 431 283 431 280 Q 431 279 430 279 Q 428 278 429 277 Q 429 276 428 276 Q 426 276 427 274 Q 427 273 426 273 Q 425 267 422 265 L 422 263 L 420 261 Q 419 258 419 255 Q 416 253 416 248 L 414 246 Q 413 243 413 240 Q 411 238 410 236 L 410 233 L 408 231 Q 408 226 406 225 L 406 223 L 404 221 L 404 218 Q 404 215 402 214 Q 403 210 401 210 L 401 207 L 400 206 L 400 203 Q 398 201 398 197 L 396 195 Q 396 191 395 189 Q 394 185 392 184 L 392 181 Q 392 180 391 180 Q 390 174 386 172 L 386 170 Q 386 169 385 169 Q 383 167 383 163 Q 383 162 382 162 Q 382 159 380 158 L 380 156 L 379 155 L 379 153 L 377 151 L 377 148 Q 375 146 375 142 L 373 140 L 373 137 Q 370 135 370 131 L 368 129 L 368 127 Q 368 126 367 126 Q 367 123 365 122 L 365 120 Q 365 118 363 118 Q 362 115 360 114 L 360 112 Q 360 111 359 111 Q 356 109 355 105 Q 355 104 354 104 Q 352 103 353 101 Q 353 100 352 100 Q 351 99 351 98 Q 351 97 350 97 Q 348 97 348 95 Q 348 94 347 94 Q 345 93 345 91 Q 345 90 344 90 Q 342 90 342 88 Q 342 86 340 86 Q 339 86 339 85 Q 339 84 338 84 Q 336 80 335 83 Q 334 83 334 82 Q 334 80 331 80 Q 329 80 329 78 Q 329 77 327 77 L 324 74 L 322 74 L 320 72 Q 314 71 311 67 L 310 67 L 307 64 L 305 64 Q 303 62 300 61 Q 298 57 297 60 Q 296 57 293 58 L 291 56 Q 288 56 287 55 Q 286 53 285 55 L 283 53 L 279 53 Q 274 50 268 50 Q 266 46 265 49 L 263 47 Q 259 48 259 46 L 256 46 L 255 45 L 247 45 Q 246 43 245 45 Q 243 45 243 44 Q 241 44 241 45 Q 239 45 239 44 Q 238 45 236 45 Q 235 43 234 45 Q 233 44 231 44 Q 230 46 229 44 Q 226 44 226 45 Q 225 44 223 44 Q 222 46 221 44 Q 218 44 218 45 Q 216 45 216 44 Q 214 44 214 45 Q 212 45 212 44 Q 208 47 201 45 Q 200 43 199 45 Q 197 45 197 44 Q 195 44 195 45 Q 192 46 192 44 Z M 401 55 Q 400 56 399 56 Q 398 58 397 59 L 397 62 Q 400 63 400 67 L 400 72 L 401 73 L 401 78 Q 403 78 402 82 L 405 84 Q 409 85 411 83 Q 411 81 412 81 Q 413 76 411 76 L 411 72 L 410 71 L 410 66 L 409 65 Q 410 59 407 58 Q 406 54 401 55 Z "></path><path fill="rgb(0,0,0)" stroke="rgb(0,0,0)" stroke-width="1" opacity="0" d="M 466.5 43 Q 470.1 44.4 472 47.5 Q 473.3 48.7 473 51.5 Q 469.4 54.9 461.5 54 Q 460.5 52 458 51.5 Q 460.6 47.1 464.5 44 Q 466.2 44.2 466.5 43 Z "></path><path fill="rgb(134,134,134)" stroke="rgb(134,134,134)" stroke-width="1" opacity="1" d="M 231.5 45 Q 232.7 46.7 235.5 47 Q 235.7 45.8 237.5 46 Q 237.7 47.3 239.5 47 Q 239.7 45.8 241.5 46 Q 242.5 48 243.5 46 Q 246 45.5 246.5 47 Q 246.7 45.8 248.5 46 Q 248.7 47.3 250.5 47 Q 251.5 45 252.5 47 Q 254.2 46.7 254.5 48 Q 255.5 46 256.5 48 L 258.5 48 L 259.5 49 L 261.5 49 Q 263.2 51.3 267.5 51 Q 268.6 52.4 270.5 53 Q 271.5 51 272.5 53 Q 274.2 52.7 274.5 54 Q 275.5 52 276.5 54 Q 278.2 53.7 278.5 55 Q 279.5 53 280.5 55 Q 282 56.5 285.5 56 Q 287.1 59.4 292.5 59 L 295.5 62 Q 297 59.5 298.5 63 L 300.5 63 L 302.5 65 Q 309.7 67.3 314.5 72 L 316.5 72 L 319.5 75 L 321.5 75 Q 324 78 328 79.5 Q 327.8 80.8 328.5 81 L 330.5 81 Q 332.8 84.8 338 85.5 L 338 86.5 Q 341.5 88 342.5 92 Q 343.8 91.8 344 92.5 Q 343.8 94.8 345.5 95 Q 346.8 94.8 347 95.5 Q 346.8 98.2 348.5 99 Q 349.8 98.8 350 99.5 Q 349.5 101.5 350.5 102 Q 351.8 101.8 352 102.5 L 352 104.5 Q 354.7 106.4 355.5 110 Q 356.8 109.8 357 110.5 Q 356.5 112.5 357.5 113 Q 358.8 112.8 359 113.5 L 359 115.5 Q 361 119.1 364 121.5 Q 363.7 125.3 365.5 127 Q 366.8 126.8 367 127.5 L 367 130.5 L 369 132.5 Q 368.6 137.4 372 138.5 L 372 141.5 L 374 143.5 L 374 145.5 L 375 146.5 L 375 148.5 Q 376.9 149.6 376.5 153 Q 377.8 152.8 378 153.5 L 378 156.5 L 379 157.5 L 379 159.5 Q 380.9 160.6 380.5 164 Q 381.8 163.8 382 164.5 L 382 167.5 Q 382.9 170.1 385 171.5 L 385 173.5 L 388 176.5 Q 387.7 179.3 389 180.5 L 391 182.5 L 391 185.5 Q 393.2 187.3 394 190.5 Q 395.4 192.6 395 196.5 L 397 198.5 Q 396.7 202.8 399 204.5 L 399 207.5 L 400 208.5 L 400 211.5 Q 401.7 212.3 401 215.5 Q 402.7 216.7 403 219.5 L 403 222.5 L 405 224.5 Q 405.5 231 409 234.5 L 409 237.5 Q 409.9 240.1 412 241.5 L 412 244.5 L 413 245.5 Q 414.5 252 418 256.5 Q 417.6 260.9 419.5 263 Q 420.8 262.8 421 263.5 L 421 266.5 Q 423.9 269.1 424.5 274 Q 425.8 273.8 426 274.5 Q 425.3 277.3 426.5 278 Q 427.8 277.8 428 278.5 L 428 279.5 Q 430.6 281.4 431.5 285 Q 432.8 284.8 433 285.5 L 433 286.5 Q 437.1 289.9 438.5 296 Q 439.8 295.8 440 296.5 Q 439.5 298.5 440.5 299 Q 441.8 298.8 442 299.5 L 442 302.5 Q 444.4 304.6 446 307.5 L 446 309.5 Q 448.9 312.1 449.5 317 Q 450.8 316.8 451 317.5 L 451 320.5 L 453 322.5 L 453 324.5 L 455 326.5 Q 455.1 330.9 458 332.5 L 458 335.5 L 459 336.5 Q 460.4 338.6 460 342.5 L 461 343.5 Q 459.5 344 460 346.5 Q 462 347.5 460 348.5 L 460 357.5 L 459 358.5 Q 461 359.5 459 360.5 L 459 362.5 Q 458 366 455.5 368 Q 454.3 367.8 454 368.5 Q 454.2 371.2 452.5 372 Q 451.3 371.8 451 372.5 Q 450.5 376 448 377.5 L 448 380.5 Q 444.2 383.7 442.5 389 Q 441.3 388.8 441 389.5 Q 441.5 391.5 440.5 392 Q 433.4 397.4 424 400.5 Q 424.3 401.8 423.5 402 L 420.5 402 Q 418.3 405.3 413 405.5 Q 413.3 406.8 412.5 407 L 409.5 407 Q 408.8 408.8 405.5 408 Q 402.9 408.9 401.5 411 L 398.5 411 L 396.5 413 Q 393.2 412.7 391.5 414 Q 390 416.5 386.5 417 L 383.5 417 L 381.5 419 Q 378.5 421 373.5 421 L 371.5 423 Q 369.4 424.4 365.5 424 L 364.5 425 L 361.5 425 L 360.5 426 L 357.5 426 Q 356.2 427.7 353.5 428 L 350.5 428 L 349.5 429 L 346.5 429 L 345.5 430 Q 341.1 429.6 339 431.5 Q 339.3 432.8 338.5 433 L 335.5 433 Q 334.7 434.8 331.5 434 Q 330.2 435.7 327.5 436 L 324.5 436 L 323.5 437 L 320.5 437 Q 319.8 438.8 316.5 438 Q 315.2 439.7 312.5 440 L 309.5 440 L 308.5 441 L 305.5 441 Q 304.8 442.8 301.5 442 Q 300.2 443.7 297.5 444 L 294.5 444 L 293.5 445 L 290.5 445 Q 289.1 447.1 285.5 447 Q 285.2 445.8 283.5 446 L 282.5 447 L 279.5 447 L 278.5 448 L 275.5 448 L 274.5 449 L 271.5 449 Q 269.8 451.3 265.5 451 Q 264.5 449 263.5 451 Q 258.5 450.5 256.5 453 Q 256 451.5 253.5 452 L 252.5 453 Q 249.2 452.3 248.5 454 Q 248 452.5 245.5 453 L 244.5 454 L 241.5 454 L 240.5 455 Q 237.3 454.3 236.5 456 Q 230.8 455.3 227.5 457 Q 226.5 455 225.5 457 Q 219.3 455.8 216.5 458 Q 215.5 456 214.5 458 L 203.5 458 L 202.5 459 L 201.5 458 Q 197.3 458.7 195.5 457 Q 195 458.5 192.5 458 Q 191.5 456 190.5 458 Q 188.7 458.2 188.5 457 Q 187.5 459 186.5 457 Q 184 456.5 183.5 458 L 182.5 457 L 178.5 457 L 177.5 456 Q 173.5 457 172.5 455 Q 171.5 457 170.5 455 Q 168.8 455.2 168.5 454 Q 167.5 456 166.5 454 Q 161.5 455 160.5 452 Q 159 454.5 157.5 451 L 155.5 451 Q 153.5 448.5 149.5 448 L 142.5 448 L 141.5 447 L 138.5 447 Q 137.8 445.3 134.5 446 L 132.5 444 Q 129.3 444.8 128.5 443 L 123.5 443 L 122 441.5 Q 122.3 439.3 120.5 439 Q 119.3 439.3 119 438.5 Q 119.2 435.2 118 433.5 Q 115.5 432 115 428.5 Q 115.4 424.6 114 422.5 Q 111.8 420.7 111 417.5 L 111 414.5 Q 109.2 413.2 109 410.5 L 109 407.5 L 108 406.5 L 108 403.5 Q 106.3 402.8 107 399.5 Q 105.2 398.2 105 395.5 L 105 392.5 L 104 391.5 L 104 388.5 Q 102.3 387.8 103 384.5 Q 101.2 383.2 101 380.5 L 101 377.5 L 100 376.5 L 100 373.5 L 99 372.5 L 99 369.5 L 98 368.5 L 98 366.5 L 97 365.5 Q 97.5 362 96 360.5 Q 97.3 360.3 97 358.5 L 96 357.5 Q 96.5 354 95 352.5 Q 97 351.5 95 350.5 Q 95.4 346.6 94 344.5 Q 96 343.5 94 342.5 L 94 339.5 Q 89.7 329.8 88 317.5 Q 87.5 314 85 312.5 L 85 309.5 L 84 308.5 Q 83.7 302.8 81.5 299 Q 80.3 299.3 80 298.5 L 80 295.5 Q 78.3 294.8 79 291.5 Q 75.8 288.7 75 283.5 L 75 280.5 L 74 279.5 L 74 276.5 Q 72.3 275.8 73 272.5 Q 70.7 270.8 71 266.5 L 69 264.5 L 69 261.5 Q 66.5 259.5 67 254.5 Q 63.6 252.9 64 247.5 L 62 245.5 Q 61.3 236.7 57 231.5 L 57 228.5 Q 55.3 227.8 56 224.5 Q 54.2 223.2 54 220.5 L 54 217.5 L 53 216.5 Q 53.5 211.5 51 209.5 L 51 206.5 L 50 205.5 L 50 202.5 Q 46.3 194.7 45 184.5 Q 47 183.5 45 182.5 Q 43.1 178.9 44 172.5 L 43 171.5 L 43 164.5 L 42 163.5 L 42 157.5 L 41 156.5 L 41 153.5 L 40 152.5 Q 40.8 149.2 39 148.5 L 39 142.5 Q 36.3 138.3 36.5 131 Q 34.3 131.3 34 129.5 Q 32.4 126.6 33 121.5 Q 35.2 120.2 34 115.5 Q 34.9 112.9 37 111.5 Q 35.8 111.2 36 109.5 Q 38.9 107.9 39 103.5 L 38 102.5 L 42 98.5 Q 41.8 96.3 43.5 96 Q 44.8 96.3 45 95.5 Q 44.5 93.5 45.5 93 Q 47.8 93.3 48 91.5 Q 47.8 90.3 48.5 90 L 49.5 90 Q 50.8 87.3 54 86.5 Q 53.8 84.3 55.5 84 Q 59.6 83.1 62 80.5 Q 61.8 79.3 62.5 79 Q 65.3 79.8 66 78.5 Q 65.8 77.3 66.5 77 Q 68.5 77.5 69 76.5 Q 68.8 75.3 69.5 75 L 72.5 75 L 74.5 73 Q 79.4 73.4 80.5 70 Q 83.3 70.8 84 69.5 Q 83.8 68.3 84.5 68 Q 90.1 68.6 91.5 65 L 94.5 65 Q 95.3 63.3 98.5 64 L 99.5 63 L 102.5 63 Q 103.7 61.2 106.5 61 L 109.5 61 L 110.5 60 L 113.5 60 L 114.5 59 Q 118 59.5 119.5 58 Q 120.5 60 121.5 58 Q 125.4 58.4 127.5 57 Q 128.5 59 129.5 57 Q 133 57.5 134.5 56 Q 134.7 57.2 136.5 57 Q 138.2 54.7 142.5 55 Q 143.5 57 144.5 55 Q 153.4 54.4 159.5 51 Q 160 52.5 162.5 52 Q 170.3 48.3 180.5 47 Q 181.5 49 182.5 47 Q 185.3 47.3 186.5 46 Q 186.8 47.3 188.5 47 Q 189 45.5 191.5 46 Q 192.5 48 193.5 46 Q 196 45.5 196.5 47 Q 196.7 45.8 198.5 46 Q 198.8 47.3 200.5 47 Q 201.5 45 202.5 47 Q 205 47.5 205.5 46 Q 206 47.5 208.5 47 Q 208.7 45.8 210.5 46 Q 210.7 47.3 212.5 47 L 213.5 46 L 230.5 46 L 231.5 45 Z M 196 76 Q 193 77 192 79 L 192 83 L 194 85 Q 193 88 195 89 L 195 92 L 196 93 L 196 96 Q 196 98 198 100 Q 199 110 203 119 L 203 122 Q 205 123 205 128 L 207 130 L 207 133 Q 211 135 212 141 L 212 144 Q 215 145 215 150 L 217 152 L 217 155 Q 219 156 219 162 L 220 163 L 220 166 Q 222 169 228 170 Q 229 170 230 169 Q 231 169 232 170 Q 233 170 234 169 Q 235 169 236 170 L 237 169 L 248 169 L 249 168 Q 249 170 252 169 Q 253 167 254 169 Q 256 170 257 168 Q 258 168 259 169 Q 260 166 267 168 L 268 167 Q 269 167 270 168 Q 271 167 275 167 L 276 166 L 278 166 L 279 165 L 282 165 L 283 164 L 286 164 L 287 163 L 290 163 Q 292 163 294 161 L 297 161 Q 302 160 305 157 Q 308 158 309 156 L 312 156 Q 313 154 316 153 L 319 153 L 321 151 Q 326 151 328 148 Q 330 147 329 143 Q 327 140 325 139 Q 318 144 310 146 L 309 147 Q 305 147 303 148 L 301 150 Q 298 151 295 151 Q 289 152 286 155 Q 279 155 276 158 L 269 158 Q 268 160 267 158 Q 262 160 254 159 L 253 160 Q 251 160 251 159 Q 249 159 249 160 Q 246 161 246 159 L 245 160 L 229 160 Q 226 159 226 156 Q 226 147 223 142 Q 221 139 219 137 Q 218 135 218 132 Q 215 131 216 128 L 214 126 Q 213 123 213 120 L 211 118 Q 211 113 209 112 Q 209 110 210 110 Q 209 108 209 105 L 208 104 L 208 101 L 207 100 L 207 97 Q 207 94 205 93 L 205 90 L 204 89 L 204 86 Q 204 82 201 81 L 201 79 Q 199 78 198 76 L 196 76 Z M 325 174 Q 324 175 323 175 Q 322 177 321 178 Q 322 179 322 183 Q 323 187 326 190 L 326 191 L 327 192 L 327 194 L 328 195 Q 328 201 331 206 L 331 213 L 332 214 Q 332 223 327 228 Q 322 232 317 235 Q 313 234 313 236 L 310 236 L 309 237 L 303 237 L 302 238 L 292 238 Q 291 236 290 238 Q 288 238 288 237 L 277 237 Q 275 234 269 236 Q 268 234 267 236 L 266 235 Q 253 235 244 231 Q 236 230 233 233 L 227 239 Q 224 242 225 249 L 224 250 Q 227 251 225 258 Q 227 259 225 260 Q 227 263 226 269 L 227 270 L 227 276 L 226 277 Q 226 284 223 289 Q 222 293 218 292 Q 217 290 216 292 L 212 292 Q 209 289 203 289 L 201 287 Q 195 286 192 282 L 191 282 Q 179 270 166 259 Q 160 258 158 254 L 155 254 Q 152 256 151 259 Q 152 259 152 262 Q 156 265 162 267 Q 162 267 162 269 Q 174 281 188 291 Q 197 298 211 301 L 222 301 Q 222 298 226 299 Q 230 295 233 289 Q 233 284 235 283 L 235 278 L 236 277 L 236 267 Q 234 265 235 260 L 234 259 Q 234 257 235 257 Q 235 255 234 255 Q 232 243 239 240 Q 240 240 241 241 Q 242 241 243 240 Q 243 242 247 241 L 248 242 L 253 242 Q 253 244 257 243 Q 258 245 259 243 Q 260 245 264 244 L 265 245 Q 271 243 273 246 L 280 246 Q 281 248 282 246 Q 283 246 284 247 L 296 247 L 297 248 L 298 247 L 305 247 L 306 246 L 311 246 Q 311 244 315 245 L 316 244 L 319 244 Q 327 241 333 235 Q 337 230 340 224 Q 342 220 341 215 Q 339 214 341 213 Q 339 209 340 204 L 339 203 L 339 200 L 338 199 L 338 196 L 337 195 Q 337 191 336 189 Q 336 188 335 188 Q 334 180 329 176 Q 328 174 325 174 Z M 300 189 Q 299 190 298 190 Q 296 191 295 194 Q 296 194 296 197 Q 297 199 302 198 Q 305 197 304 192 Q 303 189 300 189 Z M 166 321 Q 165 322 164 322 Q 161 323 162 328 Q 164 331 172 330 Q 173 329 174 327 Q 173 326 173 324 Q 171 320 166 321 Z "></path></svg>