<?xml version="1.0" encoding="UTF-8" standalone="no"?>
<!DOCTYPE svg PUBLIC "-//W3C//DTD SVG 20010904//EN"
              "http://www.w3.org/TR/2001/REC-SVG-20010904/DTD/svg10.dtd">

<svg xmlns="http://www.w3.org/2000/svg"
     width="1.66667in" height="1.66667in"
     viewBox="0 0 500 500">
  <path id="grey"
        fill="#868686" stroke="none" stroke-width="1"
        d="M 91.00,94.00
           C 91.00,94.00 115.83,81.98 115.83,81.98
             115.83,81.98 141.00,67.42 141.00,67.42
             141.00,67.42 164.00,58.54 164.00,58.54
             164.00,58.54 203.00,43.17 203.00,43.17
             203.00,43.17 245.00,34.83 245.00,34.83
             256.95,32.55 268.96,29.66 281.20,29.26
             289.13,29.00 301.11,32.20 308.91,33.77
             319.54,35.90 328.86,36.58 339.09,41.13
             339.09,41.13 359.17,52.93 359.17,52.93
             359.17,52.93 376.00,55.96 376.00,55.96
             376.00,55.96 390.00,55.00 390.00,55.00
             390.00,55.00 409.00,55.00 409.00,55.00
             411.24,55.01 413.89,54.93 416.00,55.74
             422.23,58.12 432.45,71.91 435.45,78.00
             435.45,78.00 439.88,89.00 439.88,89.00
             442.83,94.49 446.97,98.51 448.47,105.00
             449.43,109.14 448.45,111.65 449.96,116.00
             449.96,116.00 457.35,132.00 457.35,132.00
             458.86,134.56 461.50,137.47 462.41,140.00
             462.41,140.00 464.00,155.00 464.00,155.00
             464.00,155.00 465.00,172.00 465.00,172.00
             465.00,172.00 465.00,186.00 465.00,186.00
             465.00,186.00 468.51,208.91 468.51,208.91
             468.51,208.91 470.05,229.00 470.05,229.00
             470.05,229.00 472.68,240.00 472.68,240.00
             472.68,240.00 474.04,256.16 474.04,256.16
             474.04,256.16 477.91,277.00 477.91,277.00
             477.91,277.00 477.02,294.99 477.02,294.99
             477.02,294.99 474.94,320.00 474.94,320.00
             474.94,320.00 470.20,334.00 470.20,334.00
             468.33,339.45 463.44,353.74 460.25,357.68
             460.25,357.68 455.59,362.23 455.59,362.23
             455.59,362.23 451.34,366.71 451.34,366.71
             446.49,370.57 436.69,372.98 431.00,375.66
             431.00,375.66 381.00,397.46 381.00,397.46
             381.00,397.46 363.91,404.55 363.91,404.55
             363.91,404.55 341.04,410.67 341.04,410.67
             341.04,410.67 332.96,413.84 332.96,413.84
             332.96,413.84 299.00,422.88 299.00,422.88
             299.00,422.88 260.00,433.51 260.00,433.51
             260.00,433.51 252.00,433.51 252.00,433.51
             252.00,433.51 213.00,438.88 213.00,438.88
             213.00,438.88 194.96,444.62 194.96,444.62
             183.40,447.87 157.67,452.76 145.96,452.07
             145.96,452.07 140.28,450.97 140.28,450.97
             124.54,448.28 121.71,445.44 108.00,439.90
             108.00,439.90 94.22,434.92 94.22,434.92
             90.93,432.30 91.92,429.72 88.70,426.72
             88.70,426.72 79.32,419.63 79.32,419.63
             74.32,415.11 69.90,407.91 67.25,401.72
             59.09,382.60 57.18,371.28 51.61,352.01
             51.61,352.01 48.60,343.91 48.60,343.91
             48.60,343.91 41.46,317.00 41.46,317.00
             41.46,317.00 37.44,294.00 37.44,294.00
             37.44,294.00 34.33,272.00 34.33,272.00
             33.05,265.79 31.04,260.70 28.91,254.83
             28.91,254.83 25.54,243.00 25.54,243.00
             25.54,243.00 22.46,235.00 22.46,235.00
             20.61,229.09 20.30,220.41 19.86,214.20
             19.86,214.20 19.86,204.00 19.86,204.00
             19.86,204.00 19.86,196.58 19.86,196.58
             19.86,196.58 19.86,188.00 19.86,188.00
             19.86,188.00 20.56,164.99 20.56,164.99
             20.56,164.99 21.92,153.72 21.92,153.72
             21.93,150.93 19.95,144.95 19.15,142.00
             19.15,142.00 13.12,119.00 13.12,119.00
             12.15,115.33 10.41,111.05 10.76,107.29
             11.05,104.26 12.28,98.55 13.85,96.04
             16.41,91.95 20.63,89.75 24.72,87.50
             36.22,81.18 48.27,79.86 61.17,79.13
             66.84,78.81 76.98,76.81 81.99,79.70
             87.14,82.67 89.05,88.74 91.00,94.00 Z
           M 326.00,48.00
           C 326.00,48.00 280.00,40.40 280.00,40.40
             280.00,40.40 253.99,43.69 253.99,43.69
             253.99,43.69 245.00,45.95 245.00,45.95
             245.00,45.95 218.00,50.19 218.00,50.19
             203.89,53.39 185.56,61.39 172.00,67.04
             172.00,67.04 151.00,75.04 151.00,75.04
             151.00,75.04 120.01,92.49 120.01,92.49
             120.01,92.49 108.04,97.58 108.04,97.58
             91.83,104.83 72.26,113.96 58.00,124.29
             54.11,127.11 43.54,136.39 40.90,140.04
             28.87,156.66 31.14,183.33 31.00,203.00
             31.00,203.00 32.60,231.04 32.60,231.04
             32.60,231.04 35.20,238.00 35.20,238.00
             36.65,242.11 36.45,246.25 40.00,249.00
             40.00,249.00 35.04,209.00 35.04,209.00
             35.22,204.80 36.13,202.91 37.11,199.00
             37.11,199.00 40.03,187.00 40.03,187.00
             40.03,187.00 52.88,157.00 52.88,157.00
             56.67,149.36 57.58,144.18 63.47,137.00
             68.44,130.94 85.57,120.22 93.00,117.61
             93.00,117.61 106.00,114.62 106.00,114.62
             106.00,114.62 130.00,106.80 130.00,106.80
             130.00,106.80 167.00,91.49 167.00,91.49
             167.00,91.49 178.00,86.42 178.00,86.42
             178.00,86.42 195.00,80.44 195.00,80.44
             195.00,80.44 208.00,77.00 208.00,77.00
             208.00,77.00 218.00,72.76 218.00,72.76
             218.00,72.76 257.00,66.57 257.00,66.57
             257.00,66.57 298.00,51.51 298.00,51.51
             298.00,51.51 314.00,49.09 314.00,49.09
             318.25,48.80 321.97,49.60 326.00,48.00 Z
           M 449.00,98.00
           C 449.00,98.00 452.00,101.00 452.00,101.00
             452.00,101.00 449.00,98.00 449.00,98.00 Z
           M 283.00,267.00
           C 274.22,264.70 262.83,271.47 262.19,281.00
             261.28,294.56 273.84,317.45 288.96,317.25
             296.08,317.15 306.10,315.39 307.57,307.00
             308.63,300.91 301.05,282.99 298.31,277.00
             293.34,266.14 293.30,262.14 289.96,252.00
             289.96,252.00 282.15,230.00 282.15,230.00
             280.49,224.57 277.24,210.12 274.11,206.31
             271.02,202.56 264.32,203.84 265.36,211.00
             265.36,211.00 274.83,241.00 274.83,241.00
             274.83,241.00 283.00,267.00 283.00,267.00 Z
           M 385.21,221.00
           C 391.49,220.09 395.21,218.25 401.96,220.39
             406.26,221.75 408.68,225.97 412.85,223.78
             419.22,220.44 412.89,213.51 409.00,211.44
             400.73,207.04 383.72,207.61 377.42,215.11
             373.96,219.22 374.38,223.18 373.37,228.00
             372.74,231.01 370.39,235.86 370.52,238.00
             370.72,241.20 374.33,244.97 375.92,248.00
             379.71,255.25 380.69,261.22 385.70,269.00
             388.28,273.01 399.59,287.97 404.97,279.69
             407.89,275.21 401.33,264.95 398.95,261.00
             398.95,261.00 385.21,239.99 385.21,239.99
             383.37,233.82 384.49,227.25 385.21,221.00 Z
           M 140.00,325.00
           C 135.78,315.81 133.87,306.73 131.37,297.00
             127.81,283.16 126.00,281.76 125.78,266.80
             125.64,257.70 127.46,243.81 134.47,237.31
             141.45,230.83 151.89,240.02 156.13,245.58
             157.46,247.32 158.68,250.18 160.30,251.39
             163.84,254.05 168.36,251.56 168.31,246.98
             168.26,242.69 164.72,237.99 161.91,235.02
             154.73,227.43 141.42,221.34 131.09,225.84
             126.10,228.01 122.47,235.29 120.12,240.00
             106.94,266.37 121.93,301.73 129.00,328.00
             126.53,328.38 122.56,328.95 120.74,330.81
             118.20,333.41 119.41,338.37 124.04,339.26
             126.36,339.70 130.55,338.49 133.00,338.00
             133.00,338.00 144.44,377.00 144.44,377.00
             145.19,378.71 146.16,381.25 147.51,382.53
             150.13,385.03 154.47,384.67 155.56,380.87
             156.69,376.92 154.08,372.60 152.80,369.00
             152.80,369.00 146.71,347.00 146.71,347.00
             146.00,344.61 143.30,338.42 144.23,336.42
             145.25,334.22 152.61,331.75 155.00,330.94
             162.93,328.25 178.67,325.96 184.47,320.78
             191.33,314.65 189.06,306.47 183.03,307.54
             178.67,308.31 178.84,312.39 172.98,314.75
             172.98,314.75 157.00,319.15 157.00,319.15
             157.00,319.15 140.00,325.00 140.00,325.00 Z
           M 227.96,224.91
           C 226.10,225.13 225.24,224.93 223.77,226.49
             220.50,229.96 223.70,242.74 224.85,247.00
             224.85,247.00 229.34,264.00 229.34,264.00
             229.34,264.00 231.37,275.00 231.37,275.00
             231.37,275.00 239.87,307.00 239.87,307.00
             241.16,312.11 245.14,324.81 251.00,325.92
             254.16,326.52 256.46,324.03 256.44,320.98
             256.42,318.19 251.95,309.97 250.72,306.00
             250.72,306.00 235.37,245.00 235.37,245.00
             235.37,245.00 231.69,227.28 231.69,227.28
             230.49,225.36 229.84,225.50 227.96,224.91 Z
           M 338.00,265.22
           C 334.41,265.25 326.71,264.20 324.34,265.22
             320.81,267.31 320.26,272.68 325.12,274.84
             328.75,276.48 339.24,276.30 343.00,274.84
             349.34,272.34 349.59,266.83 348.33,261.00
             346.43,252.21 340.42,245.57 331.00,245.04
             311.22,243.94 305.41,259.02 307.87,276.00
             310.47,293.93 322.79,308.71 342.00,307.96
             355.73,307.43 369.69,300.92 377.00,289.00
             378.86,285.96 382.62,280.82 381.22,277.15
             379.45,272.49 374.48,274.22 371.92,277.15
             369.18,280.28 368.08,283.84 363.91,287.82
             355.32,296.00 338.06,301.78 328.09,292.78
             320.63,286.04 314.15,269.41 320.09,260.11
             325.79,251.17 336.11,256.14 338.00,265.22 Z
           M 296.00,305.00
           C 286.01,311.13 276.73,298.68 274.10,290.00
             273.36,287.26 272.43,282.92 274.10,280.34
             275.26,278.33 276.98,277.82 279.00,277.00
             283.58,285.05 289.67,299.33 296.00,305.00 Z
           M 203.00,299.00
           C 183.80,308.28 191.95,336.87 207.00,339.57
             212.85,340.62 218.72,336.07 221.21,331.00
             225.36,321.50 224.57,311.58 221.21,302.00
             220.63,299.74 219.72,294.84 218.40,293.33
             216.58,291.24 214.46,291.51 212.00,291.14
             205.20,290.11 199.44,289.13 203.00,299.00 Z
           M 210.00,306.00
           C 215.62,312.10 213.42,322.29 210.00,329.00
             203.34,325.78 199.57,318.91 203.85,312.04
             205.36,309.62 207.83,307.80 210.00,306.00 Z" />
  <path id="darkgrey"
        fill="#555555" stroke="none" stroke-width="1"
        d="M 40.00,248.00
           C 36.74,245.48 36.97,242.74 35.83,239.01
             32.77,228.94 32.70,233.58 31.82,221.00
             30.61,203.83 30.76,182.06 32.63,164.96
             32.63,164.96 33.27,158.00 33.27,158.00
             34.11,153.70 39.81,140.94 42.92,137.78
             61.28,119.13 85.06,108.47 108.42,97.63
             108.42,97.63 119.00,93.32 119.00,93.32
             119.00,93.32 130.46,86.46 130.46,86.46
             130.46,86.46 149.28,76.17 149.28,76.17
             149.28,76.17 171.00,67.71 171.00,67.71
             182.21,62.93 204.73,53.59 216.00,50.90
             216.00,50.90 245.00,46.12 245.00,46.12
             256.83,43.89 268.82,40.60 281.00,41.04
             289.40,41.35 297.71,43.14 305.91,44.77
             310.96,45.77 320.00,46.33 324.00,49.00
             314.35,49.00 305.42,49.44 296.00,51.92
             296.00,51.92 269.00,61.60 269.00,61.60
             262.64,64.18 262.19,64.99 255.00,66.99
             255.00,66.99 217.00,72.94 217.00,72.94
             217.00,72.94 208.00,77.00 208.00,77.00
             208.00,77.00 195.00,80.43 195.00,80.43
             195.00,80.43 177.00,86.54 177.00,86.54
             177.00,86.54 166.00,91.77 166.00,91.77
             166.00,91.77 128.00,107.55 128.00,107.55
             128.00,107.55 92.00,117.86 92.00,117.86
             83.60,121.02 68.10,131.06 62.47,138.00
             56.25,145.65 56.93,148.34 53.19,156.00
             46.54,169.63 35.31,195.01 35.02,210.00
             35.02,210.00 40.00,248.00 40.00,248.00 Z" />
  <path id="black"
        fill="black" stroke="none" stroke-width="1"
        d="M 284.00,268.00
           C 284.00,268.00 276.15,242.00 276.15,242.00
             276.15,242.00 272.46,232.00 272.46,232.00
             272.46,232.00 267.50,214.00 267.50,214.00
             266.69,211.29 265.17,205.61 270.01,205.74
             273.33,205.83 274.58,209.43 275.49,212.00
             275.49,212.00 282.46,234.00 282.46,234.00
             282.46,234.00 298.03,279.00 298.03,279.00
             302.08,287.70 302.49,289.90 304.88,299.00
             305.61,301.75 306.94,305.17 306.26,307.98
             304.84,313.82 295.20,315.83 290.00,316.20
             275.50,317.22 262.11,294.18 263.34,281.00
             263.97,274.36 271.64,268.01 278.00,267.26
             280.19,267.00 281.92,267.50 284.00,268.00 Z
           M 392.00,209.72
           C 398.07,209.28 405.84,210.33 410.81,214.11
             413.12,215.86 416.67,220.60 412.68,222.72
             409.64,224.34 406.10,220.92 403.17,219.61
             397.53,217.07 386.43,217.41 383.74,224.04
             382.22,227.78 383.59,238.34 385.26,242.00
             385.26,242.00 400.56,266.00 400.56,266.00
             402.17,268.84 408.49,279.46 401.77,280.60
             394.19,281.88 385.93,267.53 383.04,262.00
             383.04,262.00 376.32,246.30 376.32,246.30
             375.16,244.00 372.51,241.06 372.09,238.91
             371.51,235.92 373.47,233.64 374.14,230.58
             374.14,230.58 376.09,219.91 376.09,219.91
             379.00,212.70 385.08,211.03 392.00,209.72 Z
           M 130.00,329.00
           C 129.41,323.47 126.75,318.42 125.37,313.00
             119.40,289.46 110.19,263.49 121.32,240.00
             123.96,234.42 127.66,227.79 133.97,225.97
             144.17,223.03 155.40,229.71 161.95,237.02
             164.22,239.56 167.35,243.32 167.09,246.98
             166.84,250.57 163.49,252.61 160.49,250.24
             159.07,249.11 157.33,245.30 155.89,243.42
             151.38,237.52 141.21,230.41 134.10,236.31
             130.33,239.45 127.97,245.39 126.59,250.00
             124.07,258.43 123.94,271.40 125.89,280.00
             125.89,280.00 130.42,297.71 130.42,297.71
             131.28,302.34 135.46,318.42 137.42,321.90
             140.26,326.98 146.66,324.04 151.00,322.66
             156.56,320.88 172.01,317.07 175.82,314.73
             178.96,312.79 179.80,310.11 181.61,309.01
             184.18,307.45 187.18,309.16 187.55,312.06
             188.17,316.78 182.71,321.11 179.00,322.94
             179.00,322.94 155.00,329.88 155.00,329.88
             155.00,329.88 142.00,334.00 142.00,334.00
             142.68,341.54 149.28,360.99 151.88,369.00
             152.91,372.17 156.19,378.47 153.97,381.47
             149.96,386.91 145.82,377.73 144.70,375.00
             141.63,367.58 139.64,358.83 137.63,351.00
             136.93,348.29 135.48,341.28 133.91,339.35
             130.81,335.52 122.69,340.35 120.62,335.61
             118.34,330.39 126.94,329.26 130.00,329.00 Z
           M 225.45,227.04
           C 232.91,224.65 231.16,232.94 234.15,244.00
             234.15,244.00 241.90,279.00 241.90,279.00
             241.90,279.00 245.25,289.00 245.25,289.00
             245.25,289.00 248.71,302.00 248.71,302.00
             248.71,302.00 251.59,311.00 251.59,311.00
             251.59,311.00 254.80,318.00 254.80,318.00
             255.46,319.93 256.02,322.56 254.25,324.12
             252.13,325.99 249.34,324.43 247.80,322.64
             244.83,319.20 242.07,311.45 240.85,307.00
             240.85,307.00 232.75,277.00 232.75,277.00
             232.75,277.00 231.33,268.00 231.33,268.00
             231.33,268.00 226.58,250.00 226.58,250.00
             224.91,244.01 221.01,232.14 225.45,227.04 Z
           M 339.00,266.06
           C 336.72,250.23 323.65,253.72 319.56,259.11
             312.63,268.23 319.78,286.73 327.30,293.61
             337.20,302.67 355.53,297.40 364.33,289.24
             368.34,285.53 369.62,282.15 372.61,278.13
             374.52,275.57 378.84,273.60 380.37,277.43
             381.56,280.40 377.37,286.50 375.77,289.00
             369.04,299.54 355.38,306.19 343.00,306.91
             322.06,308.13 309.16,289.92 308.32,270.59
             307.96,262.41 310.81,251.38 319.00,247.85
             326.44,244.65 336.74,245.40 342.61,251.38
             346.73,255.57 350.13,266.71 345.49,271.57
             341.87,275.36 328.55,276.26 324.45,272.91
             321.36,270.40 323.01,266.44 326.87,266.06
             326.87,266.06 333.44,266.06 333.44,266.06
             333.44,266.06 339.00,266.06 339.00,266.06 Z
           M 297.00,306.97
           C 295.45,302.20 292.91,301.39 289.84,295.00
             289.84,295.00 285.52,286.72 285.52,286.72
             283.13,282.53 279.89,272.08 273.58,278.57
             272.86,279.31 272.36,280.11 272.02,281.09
             269.54,288.43 279.31,304.36 286.01,306.97
             289.44,308.26 293.45,307.42 297.00,306.97 Z
           M 204.47,292.06
           C 206.93,291.35 215.43,291.97 217.40,293.77
             219.42,295.63 218.37,298.12 219.61,301.28
             219.61,301.28 222.04,307.00 222.04,307.00
             224.24,315.17 222.48,329.93 215.90,335.72
             206.50,344.00 195.68,332.09 193.40,323.00
             190.26,310.41 199.29,303.59 201.49,300.00
             203.81,296.21 201.49,295.73 204.47,292.06 Z
           M 209.87,305.87
           C 203.84,308.04 200.44,313.47 201.12,319.91
             201.48,323.38 205.41,330.41 209.66,329.28
             212.07,328.64 213.04,325.09 213.61,323.00
             214.90,318.19 216.12,307.32 209.87,305.87 Z" />
</svg>
