<?xml version="1.0" encoding="UTF-8" standalone="no"?>
<!DOCTYPE svg PUBLIC "-//W3C//DTD SVG 20010904//EN"
              "http://www.w3.org/TR/2001/REC-SVG-20010904/DTD/svg10.dtd">

<svg xmlns="http://www.w3.org/2000/svg"
     width="1.66667in" height="1.66667in"
     viewBox="0 0 500 500">
  <path id="grey"
        fill="#868686" stroke="none" stroke-width="1"
        d="M 84.00,102.00
           C 84.00,102.00 108.83,89.98 108.83,89.98
             108.83,89.98 136.00,74.43 136.00,74.43
             136.00,74.43 157.00,66.54 157.00,66.54
             157.00,66.54 195.00,51.46 195.00,51.46
             208.73,47.05 222.84,45.35 237.00,43.01
             249.81,40.88 263.49,36.70 276.61,37.26
             285.15,37.63 293.58,40.10 301.91,41.77
             301.91,41.77 319.00,44.72 319.00,44.72
             331.14,48.11 341.11,52.97 351.20,60.61
             351.20,60.61 373.88,77.58 373.88,77.58
             376.55,78.71 381.24,77.08 384.00,76.37
             391.01,74.57 392.46,73.75 400.00,74.55
             403.85,74.96 410.39,75.88 413.96,77.04
             423.56,80.16 435.99,89.42 440.92,98.29
             445.98,107.40 447.92,121.63 448.00,132.00
             448.17,156.25 450.97,162.62 455.04,185.00
             455.04,185.00 455.97,192.00 455.97,192.00
             455.97,192.00 460.68,210.00 460.68,210.00
             460.68,210.00 462.92,236.00 462.92,236.00
             462.92,236.00 465.68,248.00 465.68,248.00
             465.68,248.00 466.91,263.27 466.91,263.27
             466.91,263.27 469.08,272.00 469.08,272.00
             469.08,272.00 470.83,284.00 470.83,284.00
             471.38,289.50 470.44,296.45 470.07,302.00
             470.07,302.00 467.94,328.00 467.94,328.00
             467.94,328.00 460.92,348.42 460.92,348.42
             459.25,353.02 456.10,362.17 453.25,365.68
             453.25,365.68 448.59,370.23 448.59,370.23
             448.59,370.23 444.34,374.71 444.34,374.71
             439.49,378.57 429.69,380.98 424.00,383.66
             424.00,383.66 374.00,405.46 374.00,405.46
             374.00,405.46 356.91,412.55 356.91,412.55
             356.91,412.55 334.04,418.67 334.04,418.67
             334.04,418.67 325.96,421.84 325.96,421.84
             325.96,421.84 292.00,430.88 292.00,430.88
             292.00,430.88 253.00,441.51 253.00,441.51
             253.00,441.51 245.00,441.51 245.00,441.51
             245.00,441.51 206.00,446.88 206.00,446.88
             206.00,446.88 187.96,452.62 187.96,452.62
             176.40,455.87 150.67,460.76 138.96,460.07
             138.96,460.07 133.28,458.97 133.28,458.97
             117.54,456.28 114.71,453.44 101.00,447.90
             101.00,447.90 87.22,442.92 87.22,442.92
             83.93,440.30 84.92,437.72 81.70,434.72
             81.70,434.72 72.32,427.63 72.32,427.63
             67.32,423.11 62.90,415.91 60.25,409.72
             52.09,390.60 50.18,379.28 44.61,360.01
             44.61,360.01 41.60,351.91 41.60,351.91
             41.60,351.91 34.46,325.00 34.46,325.00
             34.46,325.00 30.44,302.00 30.44,302.00
             30.44,302.00 27.33,280.00 27.33,280.00
             26.05,273.79 24.04,268.70 21.91,262.83
             21.91,262.83 18.54,251.00 18.54,251.00
             18.54,251.00 15.46,243.00 15.46,243.00
             13.61,237.09 13.30,228.41 12.86,222.20
             12.86,222.20 12.86,212.00 12.86,212.00
             12.86,212.00 12.86,204.58 12.86,204.58
             12.86,204.58 12.86,196.00 12.86,196.00
             12.86,196.00 13.56,172.99 13.56,172.99
             13.56,172.99 14.92,161.72 14.92,161.72
             14.93,158.93 12.95,152.95 12.15,150.00
             12.15,150.00 6.12,127.00 6.12,127.00
             5.15,123.33 3.41,119.05 3.76,115.29
             4.05,112.26 5.28,106.55 6.85,104.04
             9.41,99.95 13.63,97.75 17.72,95.50
             29.22,89.18 41.27,87.86 54.17,87.13
             59.84,86.81 69.98,84.81 74.99,87.70
             80.14,90.67 82.05,96.74 84.00,102.00 Z
           M 364.00,84.00
           C 357.77,80.11 358.16,79.67 353.00,75.68
             339.31,65.08 334.89,61.28 318.04,56.12
             318.04,56.12 291.86,51.01 291.86,51.01
             291.86,51.01 273.00,48.40 273.00,48.40
             273.00,48.40 246.99,51.69 246.99,51.69
             246.99,51.69 238.00,53.95 238.00,53.95
             238.00,53.95 210.00,58.44 210.00,58.44
             193.69,62.58 178.57,69.73 163.00,75.87
             163.00,75.87 145.00,82.58 145.00,82.58
             145.00,82.58 106.72,103.35 106.72,103.35
             106.72,103.35 83.00,113.66 83.00,113.66
             83.00,113.66 70.00,120.95 70.00,120.95
             56.85,127.71 52.04,130.63 41.00,140.91
             38.26,143.47 36.15,144.94 33.90,148.04
             24.05,161.64 23.86,181.79 24.00,198.00
             24.00,198.00 25.42,238.09 25.42,238.09
             25.42,238.09 34.54,266.00 34.54,266.00
             36.02,270.54 38.17,278.35 38.87,283.00
             39.52,287.37 39.33,292.38 42.00,296.00
             42.38,278.54 43.03,261.34 49.39,244.83
             49.39,244.83 64.15,218.00 64.15,218.00
             70.54,206.81 77.52,192.69 87.00,184.17
             95.24,176.77 97.44,177.39 105.00,172.62
             120.24,163.00 131.51,158.39 148.00,151.83
             148.00,151.83 160.00,146.75 160.00,146.75
             160.00,146.75 179.91,141.35 179.91,141.35
             179.91,141.35 196.00,135.20 196.00,135.20
             196.00,135.20 219.00,128.71 219.00,128.71
             219.00,128.71 241.00,120.88 241.00,120.88
             241.00,120.88 287.91,111.33 287.91,111.33
             292.35,109.77 293.09,107.34 296.72,106.17
             297.57,105.89 304.76,105.21 312.00,102.80
             312.00,102.80 323.00,98.17 323.00,98.17
             323.00,98.17 346.00,89.80 346.00,89.80
             351.64,87.81 358.93,87.01 364.00,84.00 Z
           M 276.00,275.00
           C 267.22,272.70 255.83,279.47 255.19,289.00
             254.28,302.56 266.84,325.45 281.96,325.25
             289.08,325.15 299.10,323.39 300.57,315.00
             301.63,308.91 294.05,290.99 291.31,285.00
             286.34,274.14 286.30,270.14 282.96,260.00
             282.96,260.00 275.15,238.00 275.15,238.00
             273.49,232.57 270.24,218.12 267.11,214.31
             264.02,210.56 257.32,211.84 258.36,219.00
             258.36,219.00 267.83,249.00 267.83,249.00
             267.83,249.00 276.00,275.00 276.00,275.00 Z
           M 378.21,229.00
           C 384.49,228.09 388.21,226.25 394.96,228.39
             399.26,229.75 401.68,233.97 405.85,231.78
             412.22,228.44 405.89,221.51 402.00,219.44
             393.73,215.04 376.72,215.61 370.42,223.11
             366.96,227.22 367.38,231.18 366.37,236.00
             365.74,239.01 363.39,243.86 363.52,246.00
             363.72,249.20 367.33,252.97 368.92,256.00
             372.71,263.25 373.69,269.22 378.70,277.00
             381.28,281.01 392.59,295.97 397.97,287.69
             400.89,283.21 394.33,272.95 391.95,269.00
             391.95,269.00 378.21,247.99 378.21,247.99
             376.37,241.82 377.49,235.25 378.21,229.00 Z
           M 133.00,333.00
           C 128.78,323.81 126.87,314.73 124.37,305.00
             120.81,291.16 119.00,289.76 118.78,274.80
             118.64,265.70 120.46,251.81 127.47,245.31
             134.45,238.83 144.89,248.02 149.13,253.58
             150.46,255.32 151.68,258.18 153.30,259.39
             156.84,262.05 161.36,259.56 161.31,254.98
             161.26,250.69 157.72,245.99 154.91,243.02
             147.73,235.43 134.42,229.34 124.09,233.84
             119.10,236.01 115.47,243.29 113.12,248.00
             99.94,274.37 114.93,309.73 122.00,336.00
             119.53,336.38 115.56,336.95 113.74,338.81
             111.20,341.41 112.41,346.37 117.04,347.26
             119.36,347.70 123.55,346.49 126.00,346.00
             126.00,346.00 137.44,385.00 137.44,385.00
             138.19,386.71 139.16,389.25 140.51,390.53
             143.13,393.03 147.47,392.67 148.56,388.87
             149.69,384.92 147.08,380.60 145.80,377.00
             145.80,377.00 139.71,355.00 139.71,355.00
             139.00,352.61 136.30,346.42 137.23,344.42
             138.25,342.22 145.61,339.75 148.00,338.94
             155.93,336.25 171.67,333.96 177.47,328.78
             184.33,322.65 182.06,314.47 176.03,315.54
             171.67,316.31 171.84,320.39 165.98,322.75
             165.98,322.75 150.00,327.15 150.00,327.15
             150.00,327.15 133.00,333.00 133.00,333.00 Z
           M 220.96,232.91
           C 219.10,233.13 218.24,232.93 216.77,234.49
             213.50,237.96 216.70,250.74 217.85,255.00
             217.85,255.00 222.34,272.00 222.34,272.00
             222.34,272.00 224.37,283.00 224.37,283.00
             224.37,283.00 232.87,315.00 232.87,315.00
             234.16,320.11 238.14,332.81 244.00,333.92
             247.16,334.52 249.46,332.03 249.44,328.98
             249.42,326.19 244.95,317.97 243.72,314.00
             243.72,314.00 228.37,253.00 228.37,253.00
             228.37,253.00 224.69,235.28 224.69,235.28
             223.49,233.36 222.84,233.50 220.96,232.91 Z
           M 331.00,273.22
           C 327.41,273.25 319.71,272.20 317.34,273.22
             313.81,275.31 313.26,280.68 318.12,282.84
             321.75,284.48 332.24,284.30 336.00,282.84
             342.34,280.34 342.59,274.83 341.33,269.00
             339.43,260.21 333.42,253.57 324.00,253.04
             304.22,251.94 298.41,267.02 300.87,284.00
             303.47,301.93 315.79,316.71 335.00,315.96
             348.73,315.43 362.69,308.92 370.00,297.00
             371.86,293.96 375.62,288.82 374.22,285.15
             372.45,280.49 367.48,282.22 364.92,285.15
             362.18,288.28 361.08,291.84 356.91,295.82
             348.32,304.00 331.06,309.78 321.09,300.78
             313.63,294.04 307.15,277.41 313.09,268.11
             318.79,259.17 329.11,264.14 331.00,273.22 Z
           M 289.00,313.00
           C 279.01,319.13 269.73,306.68 267.10,298.00
             266.36,295.26 265.43,290.92 267.10,288.34
             268.26,286.33 269.98,285.82 272.00,285.00
             276.58,293.05 282.67,307.33 289.00,313.00 Z
           M 196.00,307.00
           C 176.80,316.28 184.95,344.87 200.00,347.57
             205.85,348.62 211.72,344.07 214.21,339.00
             218.36,329.50 217.57,319.58 214.21,310.00
             213.63,307.74 212.72,302.84 211.40,301.33
             209.58,299.24 207.46,299.51 205.00,299.14
             198.20,298.11 192.44,297.13 196.00,307.00 Z
           M 203.00,314.00
           C 208.62,320.10 206.42,330.29 203.00,337.00
             196.34,333.78 192.57,326.91 196.85,320.04
             198.36,317.62 200.83,315.80 203.00,314.00 Z" />
  <path id="black"
        fill="black" stroke="none" stroke-width="1"
        d="M 277.00,276.00
           C 277.00,276.00 269.15,250.00 269.15,250.00
             269.15,250.00 265.46,240.00 265.46,240.00
             265.46,240.00 260.50,222.00 260.50,222.00
             259.69,219.29 258.17,213.61 263.01,213.74
             266.33,213.83 267.58,217.43 268.49,220.00
             268.49,220.00 275.46,242.00 275.46,242.00
             275.46,242.00 291.03,287.00 291.03,287.00
             295.08,295.70 295.49,297.90 297.88,307.00
             298.61,309.75 299.94,313.17 299.26,315.98
             297.84,321.82 288.20,323.83 283.00,324.20
             268.50,325.22 255.11,302.18 256.34,289.00
             256.97,282.36 264.64,276.01 271.00,275.26
             273.19,275.00 274.92,275.50 277.00,276.00 Z
           M 385.00,217.72
           C 391.07,217.28 398.84,218.33 403.81,222.11
             406.12,223.86 409.67,228.60 405.68,230.72
             402.64,232.34 399.10,228.92 396.17,227.61
             390.53,225.07 379.43,225.41 376.74,232.04
             375.22,235.78 376.59,246.34 378.26,250.00
             378.26,250.00 393.56,274.00 393.56,274.00
             395.17,276.84 401.49,287.46 394.77,288.60
             387.19,289.88 378.93,275.53 376.04,270.00
             376.04,270.00 369.32,254.30 369.32,254.30
             368.16,252.00 365.51,249.06 365.09,246.91
             364.51,243.92 366.47,241.64 367.14,238.58
             367.14,238.58 369.09,227.91 369.09,227.91
             372.00,220.70 378.08,219.03 385.00,217.72 Z
           M 123.00,337.00
           C 122.41,331.47 119.75,326.42 118.37,321.00
             112.40,297.46 103.19,271.49 114.32,248.00
             116.96,242.42 120.66,235.79 126.97,233.97
             137.17,231.03 148.40,237.71 154.95,245.02
             157.22,247.56 160.35,251.32 160.09,254.98
             159.84,258.57 156.49,260.61 153.49,258.24
             152.07,257.11 150.33,253.30 148.89,251.42
             144.38,245.52 134.21,238.41 127.10,244.31
             123.33,247.45 120.97,253.39 119.59,258.00
             117.07,266.43 116.94,279.40 118.89,288.00
             118.89,288.00 123.42,305.71 123.42,305.71
             124.28,310.34 128.46,326.42 130.42,329.90
             133.26,334.98 139.66,332.04 144.00,330.66
             149.56,328.88 165.01,325.07 168.82,322.73
             171.96,320.79 172.80,318.11 174.61,317.01
             177.18,315.45 180.18,317.16 180.55,320.06
             181.17,324.78 175.71,329.11 172.00,330.94
             172.00,330.94 148.00,337.88 148.00,337.88
             148.00,337.88 135.00,342.00 135.00,342.00
             135.68,349.54 142.28,368.99 144.88,377.00
             145.91,380.17 149.19,386.47 146.97,389.47
             142.96,394.91 138.82,385.73 137.70,383.00
             134.63,375.58 132.64,366.83 130.63,359.00
             129.93,356.29 128.48,349.28 126.91,347.35
             123.81,343.52 115.69,348.35 113.62,343.61
             111.34,338.39 119.94,337.26 123.00,337.00 Z
           M 218.45,235.04
           C 225.91,232.65 224.16,240.94 227.15,252.00
             227.15,252.00 234.90,287.00 234.90,287.00
             234.90,287.00 238.25,297.00 238.25,297.00
             238.25,297.00 241.71,310.00 241.71,310.00
             241.71,310.00 244.59,319.00 244.59,319.00
             244.59,319.00 247.80,326.00 247.80,326.00
             248.46,327.93 249.02,330.56 247.25,332.12
             245.13,333.99 242.34,332.43 240.80,330.64
             237.83,327.20 235.07,319.45 233.85,315.00
             233.85,315.00 225.75,285.00 225.75,285.00
             225.75,285.00 224.33,276.00 224.33,276.00
             224.33,276.00 219.58,258.00 219.58,258.00
             217.91,252.01 214.01,240.14 218.45,235.04 Z
           M 332.00,274.06
           C 329.72,258.23 316.65,261.72 312.56,267.11
             305.63,276.23 312.78,294.73 320.30,301.61
             330.20,310.67 348.53,305.40 357.33,297.24
             361.34,293.53 362.62,290.15 365.61,286.13
             367.52,283.57 371.84,281.60 373.37,285.43
             374.56,288.40 370.37,294.50 368.77,297.00
             362.04,307.54 348.38,314.19 336.00,314.91
             315.06,316.13 302.16,297.92 301.32,278.59
             300.96,270.41 303.81,259.38 312.00,255.85
             319.44,252.65 329.74,253.40 335.61,259.38
             339.73,263.57 343.13,274.71 338.49,279.57
             334.87,283.36 321.55,284.26 317.45,280.91
             314.36,278.40 316.01,274.44 319.87,274.06
             319.87,274.06 326.44,274.06 326.44,274.06
             326.44,274.06 332.00,274.06 332.00,274.06 Z
           M 290.00,314.97
           C 288.45,310.20 285.91,309.39 282.84,303.00
             282.84,303.00 278.52,294.72 278.52,294.72
             276.13,290.53 272.89,280.08 266.58,286.57
             265.86,287.31 265.36,288.11 265.02,289.09
             262.54,296.43 272.31,312.36 279.01,314.97
             282.44,316.26 286.45,315.42 290.00,314.97 Z
           M 197.47,300.06
           C 199.93,299.35 208.43,299.97 210.40,301.77
             212.42,303.63 211.37,306.12 212.61,309.28
             212.61,309.28 215.04,315.00 215.04,315.00
             217.24,323.17 215.48,337.93 208.90,343.72
             199.50,352.00 188.68,340.09 186.40,331.00
             183.26,318.41 192.29,311.59 194.49,308.00
             196.81,304.21 194.49,303.73 197.47,300.06 Z
           M 202.87,313.87
           C 196.84,316.04 193.44,321.47 194.12,327.91
             194.48,331.38 198.41,338.41 202.66,337.28
             205.07,336.64 206.04,333.09 206.61,331.00
             207.90,326.19 209.12,315.32 202.87,313.87 Z" />
  <path id="darkgrey"
        fill="#555555" stroke="none" stroke-width="1"
        d="M 40.00,294.00
           C 40.81,281.68 35.49,269.49 31.89,258.00
             31.89,258.00 28.53,246.04 28.53,246.04
             28.53,246.04 26.03,239.83 26.03,239.83
             26.03,239.83 24.25,212.39 24.25,212.39
             24.33,201.51 24.01,174.41 26.49,165.00
             26.49,165.00 32.27,151.01 32.27,151.01
             35.46,144.90 47.29,135.28 53.15,131.19
             62.52,124.65 63.01,125.16 72.05,120.28
             72.05,120.28 80.04,115.49 80.04,115.49
             80.04,115.49 101.42,105.63 101.42,105.63
             101.42,105.63 113.00,100.84 113.00,100.84
             113.00,100.84 123.46,94.46 123.46,94.46
             123.46,94.46 143.17,83.77 143.17,83.77
             143.17,83.77 163.00,76.14 163.00,76.14
             176.61,70.58 193.92,62.80 208.00,59.15
             208.00,59.15 217.00,57.71 217.00,57.71
             217.00,57.71 238.00,54.12 238.00,54.12
             249.83,51.89 261.82,48.60 274.00,49.04
             282.77,49.36 291.26,51.39 299.83,52.94
             308.68,54.54 321.96,56.63 330.00,60.40
             340.14,65.15 348.43,72.93 357.17,79.72
             359.82,81.77 361.51,82.50 364.00,85.00
             353.31,86.51 332.50,94.05 322.00,98.17
             322.00,98.17 312.00,102.46 312.00,102.46
             303.47,105.51 298.00,105.45 296.04,106.10
             291.14,107.73 293.51,109.63 283.00,112.58
             276.15,114.49 269.05,115.88 262.00,116.83
             262.00,116.83 252.00,117.88 252.00,117.88
             252.00,117.88 240.00,120.88 240.00,120.88
             240.00,120.88 217.00,129.09 217.00,129.09
             217.00,129.09 196.00,134.94 196.00,134.94
             196.00,134.94 180.00,141.04 180.00,141.04
             180.00,141.04 157.00,147.54 157.00,147.54
             157.00,147.54 139.00,155.29 139.00,155.29
             123.66,161.75 118.09,164.29 103.72,172.99
             93.46,179.20 90.08,179.44 81.43,189.29
             77.04,194.28 66.61,213.16 62.72,220.00
             57.46,229.24 48.80,242.78 46.14,252.83
             43.90,261.34 42.58,271.22 42.14,280.00
             41.84,285.92 43.99,288.99 40.00,294.00 Z" />
</svg>
