<?xml version="1.0" encoding="UTF-8" standalone="no"?>
<!DOCTYPE svg PUBLIC "-//W3C//DTD SVG 20010904//EN"
              "http://www.w3.org/TR/2001/REC-SVG-20010904/DTD/svg10.dtd">

<svg xmlns="http://www.w3.org/2000/svg"
     width="42.3334mm" height="42.3334mm"
     viewBox="0 0 500 500">
  <path id="orange"
        fill="#ff6400" stroke="none" stroke-width="1"
        d="M 144.00,141.00
           C 151.44,157.34 156.79,151.34 167.32,164.60
             173.96,172.95 172.45,183.07 170.05,192.56
             169.31,195.50 168.58,200.07 166.22,202.15
             160.67,207.06 156.16,200.60 156.71,195.00
             156.71,195.00 159.64,180.00 159.64,180.00
             160.25,171.53 150.06,166.07 144.04,161.90
             140.07,159.15 133.98,151.53 132.46,146.91
             129.15,136.88 138.41,131.42 139.89,128.74
             140.39,127.19 140.18,125.64 139.89,124.00
             139.86,116.46 137.69,108.42 143.65,102.67
             145.07,101.30 146.17,100.14 148.13,99.58
             152.38,98.38 155.59,100.54 155.71,105.02
             155.83,109.48 152.78,111.17 152.15,116.00
             150.91,125.42 157.74,137.56 144.00,141.00 Z
           M 193.00,152.00
           C 191.66,149.69 189.88,146.80 189.98,144.02
             190.14,139.60 195.26,137.64 198.76,139.39
             202.36,141.18 204.54,148.29 204.49,152.00
             204.44,155.67 201.48,159.46 200.00,163.00
             200.00,163.00 213.72,173.39 213.72,173.39
             217.39,176.43 219.18,178.30 223.56,180.66
             225.85,181.89 228.08,182.47 229.09,185.19
             230.87,190.01 226.89,194.17 222.00,193.13
             215.01,191.65 199.54,178.58 194.12,173.37
             191.76,171.11 187.60,167.87 186.37,164.99
             184.22,159.94 188.86,154.28 193.00,152.00 Z" />
  <path id="blue"
        fill="#00c6f2" stroke="none" stroke-width="1"
        d="M 380.91,138.53
           C 389.77,137.75 394.95,141.93 402.00,146.46
             406.25,149.20 410.84,151.60 414.31,155.37
             422.12,163.86 428.43,185.48 428.43,196.99
             428.44,199.80 427.13,206.24 426.33,209.00
             421.15,226.98 404.00,236.99 388.17,244.18
             383.67,246.23 371.09,254.44 367.11,253.63
             363.31,252.87 359.22,246.00 368.04,240.59
             368.04,240.59 386.91,231.61 386.91,231.61
             393.02,228.51 408.98,217.07 412.40,211.38
             413.74,209.15 414.86,202.78 415.63,200.00
             416.17,196.10 416.35,193.99 415.63,190.00
             415.28,185.49 413.95,181.15 412.12,177.00
             409.85,171.84 407.99,167.23 403.87,163.16
             400.53,159.85 389.58,152.04 384.99,151.14
             375.57,149.31 357.91,158.17 351.53,164.81
             351.53,164.81 339.70,182.44 339.70,182.44
             338.26,183.67 335.95,184.52 334.05,184.10
             332.64,183.78 331.68,183.00 330.86,181.84
             327.00,176.37 334.36,167.48 337.50,163.04
             349.23,146.41 361.56,142.48 380.91,138.53 Z
           M 286.91,158.58
           C 302.59,156.57 290.08,179.33 286.91,185.00
             277.20,201.50 258.19,210.28 241.00,216.83
             241.00,216.83 231.00,219.75 231.00,219.75
             231.00,219.75 213.00,225.62 213.00,225.62
             213.00,225.62 197.00,228.87 197.00,228.87
             197.00,228.87 184.00,232.33 184.00,232.33
             184.00,232.33 176.00,233.51 176.00,233.51
             159.86,236.90 153.06,239.20 136.00,239.27
             130.59,239.29 122.52,237.72 118.21,234.15
             115.10,231.48 113.66,225.86 118.21,223.67
             122.87,221.35 124.84,224.64 128.66,225.98
             131.82,227.09 138.54,227.04 142.00,227.00
             156.44,226.83 184.43,219.92 199.00,216.15
             199.00,216.15 210.00,214.25 210.00,214.25
             210.00,214.25 226.00,208.97 226.00,208.97
             226.00,208.97 234.00,206.76 234.00,206.76
             245.10,203.00 255.41,196.94 264.95,190.20
             271.88,185.30 275.20,181.84 278.70,174.00
             281.70,167.26 281.22,161.09 286.91,158.58 Z
           M 338.02,218.66
           C 343.23,218.98 344.90,221.89 343.93,227.00
             342.76,233.16 338.54,241.03 334.99,246.17
             325.47,259.92 314.80,264.36 300.00,270.71
             290.22,274.91 292.18,274.83 281.00,277.85
             263.75,282.51 246.44,285.65 228.73,287.90
             218.82,289.16 209.09,291.19 199.04,290.87
             199.04,290.87 138.28,290.87 138.28,290.87
             127.47,290.87 119.82,290.64 109.00,289.28
             104.80,288.76 100.52,289.07 99.14,283.98
             97.71,278.77 102.75,276.72 107.00,276.47
             107.00,276.47 117.83,278.50 117.83,278.50
             117.83,278.50 141.00,278.50 141.00,278.50
             141.00,278.50 161.80,278.50 161.80,278.50
             161.80,278.50 178.00,278.50 178.00,278.50
             178.00,278.50 193.00,278.50 193.00,278.50
             193.00,278.50 204.00,278.50 204.00,278.50
             217.74,278.41 231.51,275.66 245.00,273.32
             264.86,269.87 270.55,270.38 290.00,261.87
             300.78,257.15 314.84,251.18 322.35,241.96
             324.68,239.09 327.52,235.49 329.09,232.17
             332.00,226.04 330.98,220.33 338.02,218.66 Z
           M 335.00,256.99
           C 336.93,256.79 339.91,256.26 341.72,256.99
             348.12,259.50 342.75,268.20 340.03,271.38
             340.03,271.38 334.00,277.51 334.00,277.51
             323.94,288.24 318.93,293.81 306.17,301.92
             279.64,318.80 255.47,322.62 225.00,326.00
             209.08,327.77 196.27,329.95 180.00,329.74
             169.40,329.61 155.98,328.98 146.29,324.72
             142.20,322.92 135.77,318.72 140.60,313.56
             144.54,309.36 150.52,313.51 154.72,314.80
             163.03,317.38 180.75,317.31 189.80,317.24
             189.80,317.24 229.00,313.29 229.00,313.29
             229.00,313.29 251.08,310.80 251.08,310.80
             273.21,306.33 290.96,298.23 308.83,284.43
             317.01,278.12 318.03,275.92 324.66,269.11
             328.43,265.25 332.70,261.95 335.00,256.99 Z
           M 389.09,258.64
           C 392.69,258.08 396.32,257.95 399.96,258.03
             399.96,258.03 410.00,258.70 410.00,258.70
             420.74,261.01 437.56,270.94 443.56,280.17
             449.85,289.85 449.30,296.31 450.23,307.00
             450.24,311.02 451.04,314.87 450.23,318.91
             449.17,328.25 442.42,338.01 437.85,346.00
             432.69,355.03 429.75,362.04 421.00,368.41
             408.14,377.75 402.25,378.26 388.04,382.67
             388.04,382.67 379.96,385.84 379.96,385.84
             379.96,385.84 344.00,395.43 344.00,395.43
             344.00,395.43 330.00,400.29 330.00,400.29
             330.00,400.29 315.00,404.12 315.00,404.12
             315.00,404.12 307.00,405.39 307.00,405.39
             307.00,405.39 293.00,409.09 293.00,409.09
             293.00,409.09 272.00,411.79 272.00,411.79
             272.00,411.79 246.96,416.24 246.96,416.24
             246.96,416.24 219.00,418.06 219.00,418.06
             219.00,418.06 171.00,422.75 171.00,422.75
             171.00,422.75 150.00,423.42 150.00,423.42
             150.00,423.42 132.39,422.75 132.39,422.75
             126.90,422.72 108.86,421.41 104.04,419.95
             95.07,417.23 80.57,407.44 72.83,401.82
             64.83,396.01 56.53,392.02 56.04,381.00
             55.45,367.80 61.71,363.80 68.79,353.96
             78.36,340.67 76.01,336.43 92.15,327.47
             96.35,325.15 105.99,318.71 110.72,321.26
             113.74,322.89 114.92,328.09 111.57,330.95
             111.57,330.95 93.44,341.19 93.44,341.19
             88.19,345.12 80.22,357.95 76.54,363.83
             73.42,368.80 68.44,372.54 68.74,379.00
             69.03,385.26 81.07,392.34 85.99,395.81
             92.53,400.43 98.07,405.00 106.00,407.39
             115.58,410.28 146.97,411.05 158.00,411.00
             158.00,411.00 204.27,408.10 204.27,408.10
             204.27,408.10 224.72,405.32 224.72,405.32
             224.72,405.32 251.00,403.84 251.00,403.84
             251.00,403.84 260.00,401.80 260.00,401.80
             260.00,401.80 272.91,399.52 272.91,399.52
             272.91,399.52 293.00,396.83 293.00,396.83
             293.00,396.83 308.00,393.09 308.00,393.09
             308.00,393.09 327.00,388.85 327.00,388.85
             327.00,388.85 336.00,385.46 336.00,385.46
             336.00,385.46 378.42,373.52 378.42,373.52
             385.20,370.54 394.12,369.61 403.00,364.81
             419.77,355.76 421.26,350.57 430.22,335.00
             434.72,327.20 438.38,321.66 438.22,312.39
             438.16,308.78 437.35,296.12 436.30,293.29
             432.57,283.18 417.95,273.02 407.72,270.80
             398.22,268.73 391.92,271.71 388.14,269.67
             383.74,267.30 382.99,261.19 389.09,258.64 Z
           M 387.98,309.79
           C 395.50,311.01 395.06,317.88 387.05,322.51
             387.05,322.51 367.83,331.06 367.83,331.06
             367.83,331.06 360.17,333.31 360.17,333.31
             360.17,333.31 345.00,340.09 345.00,340.09
             345.00,340.09 324.00,348.03 324.00,348.03
             324.00,348.03 274.00,361.34 274.00,361.34
             274.00,361.34 255.00,364.51 255.00,364.51
             255.00,364.51 248.00,366.28 248.00,366.28
             248.00,366.28 240.00,367.46 240.00,367.46
             240.00,367.46 229.04,370.30 229.04,370.30
             229.04,370.30 215.00,372.29 215.00,372.29
             203.98,374.00 193.26,376.25 182.00,375.43
             170.47,374.59 161.14,371.16 150.59,366.87
             150.59,366.87 137.51,361.69 137.51,361.69
             132.98,358.43 135.09,349.50 144.00,351.06
             144.00,351.06 160.00,357.59 160.00,357.59
             172.62,362.02 179.44,363.38 192.80,363.23
             206.88,363.07 238.30,356.07 252.99,352.90
             252.99,352.90 272.00,349.76 272.00,349.76
             272.00,349.76 317.96,337.53 317.96,337.53
             317.96,337.53 352.00,323.58 352.00,323.58
             352.00,323.58 361.72,320.32 361.72,320.32
             368.06,317.60 382.13,310.69 387.98,309.79 Z" />
  <path id="black"
        fill="black" stroke="none" stroke-width="1"
        d="M 284.31,35.03
           C 292.43,32.24 293.31,40.64 289.69,42.97
             285.45,45.70 278.96,40.79 284.31,35.03 Z
           M 365.00,73.00
           C 365.27,68.09 369.75,49.91 377.69,55.03
             380.07,56.57 379.99,59.54 379.47,62.00
             378.60,66.13 375.72,70.02 374.46,77.00
             374.46,77.00 373.40,87.85 373.40,87.85
             372.41,90.13 370.38,91.03 368.00,90.34
             365.35,89.58 361.96,86.02 360.09,84.00
             356.88,80.53 348.30,68.25 345.87,64.00
             344.36,61.35 342.06,57.12 342.25,54.02
             342.54,49.05 347.54,48.12 350.61,50.60
             352.57,52.18 355.46,59.11 357.36,62.00
             357.36,62.00 365.00,73.00 365.00,73.00 Z
           M 334.00,77.00
           C 327.45,83.18 325.93,84.10 317.00,84.00
             315.02,83.97 312.87,83.98 311.00,83.26
             304.29,80.69 300.02,71.74 302.93,65.00
             304.45,61.49 308.03,58.14 311.00,55.82
             318.11,50.28 323.51,51.11 331.00,55.23
             333.28,56.49 334.63,57.05 336.37,59.14
             338.82,62.10 341.53,69.28 343.48,73.00
             345.31,76.47 351.21,84.01 348.96,87.69
             348.29,88.78 347.19,89.41 345.94,89.63
             339.66,90.76 335.40,81.81 334.00,77.00 Z
           M 280.00,116.00
           C 281.83,111.67 285.83,107.10 286.57,103.00
             286.57,103.00 285.00,78.00 285.00,78.00
             285.00,78.00 285.82,68.00 285.82,68.00
             285.82,68.00 285.23,61.02 285.23,61.02
             285.42,58.98 286.13,57.40 288.14,56.62
             294.36,54.20 295.88,61.70 295.99,66.00
             295.99,66.00 295.04,81.00 295.04,81.00
             295.54,96.66 301.40,105.11 290.33,119.00
             288.06,121.84 285.65,124.59 282.00,125.57
             279.54,126.23 276.28,125.97 274.00,124.83
             268.11,121.87 259.69,109.80 260.07,103.00
             260.46,96.11 266.25,96.52 268.41,98.60
             269.78,99.93 270.34,103.09 271.27,105.00
             273.33,109.25 276.31,113.10 280.00,116.00 Z
           M 417.00,80.00
           C 413.71,82.35 410.02,84.75 406.00,85.61
             386.87,89.74 382.20,67.44 396.00,58.60
             398.81,56.80 401.79,56.94 405.00,57.01
             420.59,57.37 422.55,68.29 428.78,80.00
             428.78,80.00 435.26,91.00 435.26,91.00
             436.64,95.37 433.80,98.44 430.00,97.34
             424.35,95.71 418.92,85.24 417.00,80.00 Z
           M 327.00,62.80
           C 327.00,62.80 321.00,62.80 321.00,62.80
             319.34,62.79 318.42,63.23 317.04,64.16
             305.16,72.17 321.53,78.82 325.99,68.90
             326.87,66.95 326.88,65.07 327.00,62.80 Z
           M 411.00,72.00
           C 410.49,70.69 410.44,69.89 409.28,68.82
             408.17,67.80 406.47,67.32 404.99,67.24
             397.38,66.85 396.14,78.24 406.00,74.52
             406.00,74.52 411.00,72.00 411.00,72.00 Z
           M 245.31,91.03
           C 253.43,88.24 254.31,96.64 250.69,98.97
             246.45,101.70 239.96,96.79 245.31,91.03 Z" />
</svg>
