<?xml version="1.0" encoding="UTF-8" standalone="no"?>
<!DOCTYPE svg PUBLIC "-//W3C//DTD SVG 20010904//EN"
              "http://www.w3.org/TR/2001/REC-SVG-20010904/DTD/svg10.dtd">

<svg xmlns="http://www.w3.org/2000/svg"
     width="42.3334mm" height="42.3334mm"
     viewBox="0 0 500 500">
  <path id="yellow"
        fill="#ffc100" stroke="none" stroke-width="1"
        d="M 324.04,270.59
           C 333.07,269.60 332.86,279.95 326.91,281.40
             320.51,282.95 315.72,274.17 324.04,270.59 Z
           M 400.98,271.69
           C 406.63,272.52 408.54,277.81 405.40,281.32
             405.40,281.32 399.17,285.71 399.17,285.71
             392.37,291.39 380.27,306.98 388.39,315.53
             394.53,321.99 404.67,323.14 412.83,325.32
             412.83,325.32 457.00,340.56 457.00,340.56
             464.63,343.38 471.21,343.99 476.69,351.10
             479.16,354.30 481.45,358.61 481.63,362.72
             482.00,370.73 474.51,380.51 467.91,384.42
             463.17,387.23 447.11,392.06 441.72,391.65
             441.72,391.65 422.07,388.03 422.07,388.03
             418.55,387.12 411.12,385.78 408.85,383.24
             406.47,380.56 406.41,375.55 410.11,373.92
             413.96,372.22 421.80,375.07 426.04,375.93
             426.04,375.93 442.27,379.16 442.27,379.16
             448.85,379.74 459.04,376.04 463.90,371.66
             470.36,365.83 469.52,359.60 461.99,355.28
             461.99,355.28 435.96,345.86 435.96,345.86
             435.96,345.86 415.58,338.80 415.58,338.80
             404.17,336.06 385.98,332.41 377.99,323.32
             375.81,320.85 374.98,318.12 374.16,315.00
             370.84,302.44 377.40,292.58 384.82,283.00
             389.92,276.40 392.34,272.91 400.98,271.69 Z
           M 340.09,310.65
           C 346.90,310.37 348.50,314.16 350.39,320.00
             350.39,320.00 358.71,351.00 358.71,351.00
             358.71,351.00 367.03,382.00 367.03,382.00
             367.03,382.00 370.67,403.00 370.67,403.00
             374.39,421.06 379.17,435.22 375.33,453.83
             375.33,453.83 372.65,465.01 372.65,465.01
             370.97,469.67 363.93,481.42 359.96,484.12
             357.46,485.83 353.97,486.75 351.00,487.04
             345.55,488.03 343.81,487.54 338.66,487.04
             322.51,484.81 310.86,477.88 298.30,467.66
             293.72,463.94 286.93,458.15 284.22,452.99
             279.34,443.67 276.43,434.20 274.03,424.00
             272.82,418.89 274.54,413.92 280.89,415.35
             284.56,416.18 285.05,419.92 285.88,423.00
             287.73,429.87 290.06,437.77 293.50,444.00
             296.97,450.27 300.11,452.44 305.26,456.93
             316.04,466.33 325.51,472.71 340.00,474.55
             342.39,474.85 345.63,475.38 348.00,475.12
             359.81,473.85 363.21,454.00 364.34,444.58
             365.66,433.55 364.10,429.38 361.78,419.04
             361.78,419.04 360.80,411.92 360.80,411.92
             360.80,411.92 358.80,404.00 358.80,404.00
             358.80,404.00 354.59,381.00 354.59,381.00
             354.59,381.00 345.58,347.00 345.58,347.00
             345.58,347.00 339.79,326.00 339.79,326.00
             339.79,326.00 335.67,316.92 335.67,316.92
             335.19,313.25 337.11,311.86 340.09,310.65 Z" />
  <path id="black"
        fill="black" stroke="none" stroke-width="1"
        d="M 382.31,37.03
           C 390.43,34.24 391.31,42.64 387.69,44.97
             383.45,47.70 376.96,42.79 382.31,37.03 Z
           M 443.00,79.00
           C 443.00,79.00 429.00,64.00 429.00,64.00
             426.26,61.25 422.42,57.85 421.43,54.00
             418.69,43.28 434.71,35.19 442.69,40.98
             445.71,43.18 445.36,47.88 441.85,49.40
             439.96,50.23 434.30,50.00 432.00,50.00
             435.25,57.61 442.27,63.21 448.00,69.00
             450.75,71.79 455.18,75.93 455.67,80.00
             456.96,90.74 436.38,89.99 430.00,88.06
             427.34,87.26 424.53,85.83 423.66,82.96
             421.69,76.56 429.29,77.10 433.00,77.88
             437.92,78.93 437.93,78.95 443.00,79.00 Z
           M 366.00,120.00
           C 379.53,112.57 380.12,91.80 381.01,78.00
             381.01,78.00 381.01,71.00 381.01,71.00
             380.72,67.66 378.80,62.29 382.31,60.03
             383.36,59.35 384.78,59.16 385.99,59.37
             391.73,60.37 392.21,70.40 391.83,75.00
             391.83,75.00 390.17,88.00 390.17,88.00
             389.32,96.71 389.48,107.08 385.33,115.00
             383.49,118.50 380.77,121.23 378.00,124.00
             376.36,125.63 373.93,128.07 372.00,129.26
             363.00,134.82 358.12,126.61 353.95,120.00
             351.48,116.08 346.26,106.89 350.60,102.60
             352.71,100.51 356.29,100.99 358.02,103.31
             358.02,103.31 366.00,120.00 366.00,120.00 Z
           M 339.31,74.03
           C 347.43,71.24 348.31,79.64 344.69,81.97
             340.45,84.70 333.96,79.79 339.31,74.03 Z" />
</svg>
