<?xml version="1.0" encoding="UTF-8" standalone="no"?>
<!DOCTYPE svg PUBLIC "-//W3C//DTD SVG 20010904//EN"
              "http://www.w3.org/TR/2001/REC-SVG-20010904/DTD/svg10.dtd">

<svg xmlns="http://www.w3.org/2000/svg"
     width="1.66667in" height="1.66667in"
     viewBox="0 0 500 500">
  <path id="black"
        fill="black" stroke="none" stroke-width="1"
        d="M 323.31,11.03
           C 331.43,8.24 332.31,16.64 328.69,18.97
             324.45,21.70 317.96,16.79 323.31,11.03 Z
           M 416.00,53.00
           C 412.16,50.13 402.98,43.03 401.03,39.00
             398.89,34.58 401.70,30.42 406.00,31.66
             408.35,32.33 421.21,43.59 424.00,46.00
             426.53,42.64 431.19,37.67 435.94,38.42
             439.58,38.99 443.96,45.11 432.00,51.00
             432.00,51.00 432.00,53.00 432.00,53.00
             436.52,54.73 452.73,66.46 455.69,70.09
             458.26,73.25 458.95,78.71 453.95,79.63
             450.31,80.29 447.51,77.02 444.91,75.01
             444.91,75.01 426.17,61.32 426.17,61.32
             420.47,58.25 418.27,66.46 412.02,66.63
             407.82,66.75 406.20,62.54 408.03,59.17
             409.59,56.29 413.20,54.44 416.00,53.00 Z
           M 375.00,67.00
           C 375.00,67.00 350.00,58.51 350.00,58.51
             345.07,56.86 339.64,55.55 337.60,50.00
             333.58,39.04 347.46,33.69 356.00,34.04
             359.64,34.19 367.22,35.35 365.34,40.86
             363.85,45.25 357.55,42.90 348.00,46.00
             353.95,48.61 360.75,50.91 367.00,52.71
             370.14,53.61 376.33,55.21 379.00,56.56
             388.48,61.34 387.67,69.50 380.00,75.61
             373.80,80.55 360.82,82.54 353.00,81.91
             348.92,81.58 339.70,78.91 341.66,73.14
             342.69,70.10 346.31,69.89 349.00,70.21
             351.95,70.57 353.78,71.74 357.00,71.73
             362.78,71.70 369.69,69.11 375.00,67.00 Z
           M 323.14,45.03
           C 333.62,41.50 332.57,53.98 333.28,60.00
             333.85,64.74 333.99,65.05 334.00,70.00
             334.02,84.41 335.42,111.17 314.00,109.96
             306.75,109.54 295.19,99.10 298.60,91.15
             299.27,89.58 300.37,88.68 302.05,88.37
             308.71,87.16 308.19,96.63 314.04,98.60
             320.31,100.72 322.38,91.14 323.14,87.00
             325.47,75.46 324.10,69.49 323.14,58.00
             322.36,52.77 319.22,49.43 323.14,45.03 Z
           M 293.31,61.03
           C 298.04,59.41 301.73,61.80 300.34,65.86
             298.37,71.65 287.06,67.85 293.31,61.03 Z" />
  <path id="blue"
        fill="#009bff" stroke="none" stroke-width="1"
        d="M 44.00,179.00
           C 44.00,179.00 40.92,151.58 40.92,151.58
             40.92,151.58 38.40,145.00 38.40,145.00
             38.40,145.00 38.40,139.00 38.40,139.00
             38.40,139.00 36.11,125.91 36.11,125.91
             36.11,125.91 35.18,105.09 35.18,105.09
             35.21,97.47 35.25,81.55 38.21,75.00
             38.96,73.34 40.38,71.52 41.44,70.00
             42.58,68.37 43.93,66.07 45.53,64.90
             47.79,63.24 51.30,63.21 54.00,62.56
             64.31,60.09 64.21,59.93 75.00,60.00
             91.63,60.12 90.58,61.24 106.00,66.18
             106.00,66.18 115.00,68.54 115.00,68.54
             130.57,73.87 140.13,79.59 153.17,89.50
             153.17,89.50 161.71,95.54 161.71,95.54
             161.71,95.54 186.47,118.91 186.47,118.91
             188.18,120.51 193.40,126.71 195.37,126.33
             196.81,126.06 199.05,123.36 200.08,122.28
             207.69,114.27 207.18,107.92 213.17,104.58
             217.58,102.13 226.76,102.54 230.05,106.68
             231.40,108.39 231.71,111.87 232.00,114.00
             232.00,114.00 249.00,102.67 249.00,102.67
             249.00,102.67 259.32,96.15 259.32,96.15
             267.95,88.60 265.88,82.16 279.91,80.57
             286.09,79.87 294.68,89.08 297.15,94.00
             297.15,94.00 299.45,100.83 299.45,100.83
             299.45,100.83 303.66,110.28 303.66,110.28
             306.54,119.09 307.48,128.21 308.95,137.27
             310.02,143.87 311.04,139.92 311.00,151.00
             311.00,151.00 311.00,167.00 311.00,167.00
             306.34,173.32 311.57,185.89 307.00,190.00
             307.00,190.00 309.00,200.00 309.00,200.00
             306.38,206.28 307.37,212.29 306.88,218.83
             306.88,218.83 305.25,227.00 305.25,227.00
             305.25,227.00 304.28,237.00 304.28,237.00
             303.59,242.83 304.93,243.43 302.00,249.00
             307.44,250.68 308.69,252.10 313.28,254.29
             313.28,254.29 324.91,259.50 324.91,259.50
             338.16,266.73 349.66,276.08 361.57,285.24
             371.13,292.59 382.07,299.12 390.62,307.67
             398.98,316.03 401.13,320.50 407.31,329.91
             407.31,329.91 411.79,336.67 411.79,336.67
             419.16,345.59 426.06,350.01 428.90,362.00
             430.57,369.06 428.13,377.33 420.00,378.00
             420.00,378.00 420.00,381.00 420.00,381.00
             420.00,381.00 407.00,383.56 407.00,383.56
             407.00,383.56 386.72,384.92 386.72,384.92
             386.72,384.92 369.00,384.92 369.00,384.92
             369.00,384.92 350.00,384.00 350.00,384.00
             350.00,384.00 325.00,383.00 325.00,383.00
             325.00,383.00 310.30,382.31 310.30,382.31
             310.30,382.31 305.00,394.00 305.00,394.00
             305.85,399.58 304.35,403.54 303.96,409.00
             303.72,412.29 304.57,414.64 302.00,417.00
             303.17,424.67 300.52,427.39 297.58,434.00
             291.83,446.93 282.57,458.49 272.10,467.86
             272.10,467.86 267.77,471.79 267.77,471.79
             263.61,474.52 246.78,478.22 243.00,474.00
             235.90,475.42 226.00,470.81 220.29,466.66
             214.17,462.21 213.58,459.91 206.00,457.00
             200.36,468.41 181.76,480.62 171.00,487.63
             163.21,492.71 163.58,494.77 154.00,497.41
             147.24,499.27 139.72,501.37 133.00,498.01
             124.71,493.86 113.81,476.80 110.64,468.00
             110.64,468.00 107.97,458.00 107.97,458.00
             107.97,458.00 103.83,444.54 103.83,444.54
             104.02,443.35 104.64,443.38 105.00,443.00
             105.00,443.00 105.00,441.00 105.00,441.00
             102.24,438.62 99.52,426.94 98.94,423.00
             98.94,423.00 98.26,416.17 98.26,416.17
             97.59,412.93 95.11,410.67 94.26,406.00
             94.26,406.00 92.46,388.01 92.46,388.01
             92.46,388.01 91.29,378.15 91.29,378.15
             90.46,369.46 91.82,360.64 92.86,352.04
             92.86,352.04 94.00,343.00 94.00,343.00
             94.00,343.00 87.00,341.16 87.00,341.16
             87.00,341.16 80.00,337.13 80.00,337.13
             66.68,329.44 60.43,324.07 49.64,313.42
             49.64,313.42 20.72,284.95 20.72,284.95
             17.72,281.15 14.12,275.09 12.00,270.72
             12.00,270.72 9.72,265.09 9.72,265.09
             9.72,265.09 6.45,259.87 6.45,259.87
             4.42,255.95 0.20,240.37 0.04,236.00
             -0.04,233.75 0.14,228.19 0.62,226.09
             3.01,215.56 13.34,196.87 21.67,190.00
             25.34,186.97 39.36,179.93 44.00,179.00 Z
           M 150.00,116.00
           C 148.14,110.47 137.89,104.23 133.00,100.80
             133.00,100.80 120.00,91.56 120.00,91.56
             116.05,89.46 107.53,87.00 103.00,85.64
             88.33,81.24 87.72,79.41 71.00,79.24
             69.35,79.02 66.66,78.95 65.12,79.24
             57.86,81.69 63.29,94.17 59.00,100.00
             59.00,100.00 59.00,118.00 59.00,118.00
             59.00,118.00 59.00,123.00 59.00,123.00
             61.95,128.29 61.38,137.73 62.32,143.92
             62.32,143.92 63.74,149.09 63.74,149.09
             63.74,149.09 64.37,155.00 64.37,155.00
             65.60,161.52 67.92,169.49 68.00,176.00
             73.21,176.93 84.40,178.68 88.00,182.00
             95.08,181.49 101.41,184.97 108.00,186.99
             108.00,186.99 115.91,188.98 115.91,188.98
             115.91,188.98 121.16,190.80 121.16,190.80
             121.16,190.80 131.04,192.27 131.04,192.27
             134.61,193.03 139.45,195.23 142.95,194.74
             147.28,194.12 150.79,186.31 153.50,182.75
             153.50,182.75 158.83,175.09 158.83,175.09
             158.83,175.09 163.67,169.74 163.67,169.74
             163.67,169.74 173.07,157.73 173.07,157.73
             177.91,151.71 179.03,153.19 182.00,145.00
             182.00,145.00 163.49,127.00 163.49,127.00
             163.49,127.00 154.00,116.00 154.00,116.00
             154.00,116.00 150.00,116.00 150.00,116.00 Z
           M 279.00,109.00
           C 272.88,111.01 270.16,113.99 264.99,117.37
             264.99,117.37 238.83,134.05 238.83,134.05
             233.31,137.49 226.93,140.15 225.00,147.00
             225.00,147.00 213.00,148.00 213.00,148.00
             213.00,148.00 229.59,169.42 229.59,169.42
             229.59,169.42 233.51,176.09 233.51,176.09
             233.51,176.09 238.57,181.82 238.57,181.82
             238.57,181.82 255.52,208.28 255.52,208.28
             255.52,208.28 257.93,213.83 257.93,213.83
             257.93,213.83 263.90,224.00 263.90,224.00
             263.90,224.00 269.68,234.47 269.68,234.47
             269.68,234.47 279.00,238.00 279.00,238.00
             279.36,233.72 280.59,224.27 283.00,221.00
             282.39,213.83 283.79,207.06 284.20,200.00
             284.20,200.00 284.20,189.72 284.20,189.72
             284.20,189.72 285.04,171.00 285.04,171.00
             285.04,171.00 286.00,156.00 286.00,156.00
             286.08,144.23 284.92,132.70 282.76,121.17
             282.76,121.17 279.00,109.00 279.00,109.00 Z
           M 198.00,164.00
           C 198.00,164.00 193.00,164.00 193.00,164.00
             191.23,172.52 182.80,178.61 177.76,185.42
             174.73,189.51 174.81,192.22 170.00,195.00
             170.00,195.00 168.00,201.00 168.00,201.00
             168.00,201.00 181.00,204.16 181.00,204.16
             181.00,204.16 206.00,211.01 206.00,211.01
             206.00,211.01 219.28,216.57 219.28,216.57
             219.28,216.57 228.00,219.07 228.00,219.07
             228.00,219.07 237.00,223.00 237.00,223.00
             237.00,223.00 230.11,210.29 230.11,210.29
             230.11,210.29 220.32,194.98 220.32,194.98
             220.32,194.98 214.82,187.92 214.82,187.92
             214.82,187.92 209.72,179.65 209.72,179.65
             209.72,179.65 198.00,164.00 198.00,164.00 Z
           M 76.00,197.00
           C 74.58,201.45 77.60,201.78 79.92,208.99
             82.06,215.60 82.05,213.17 84.74,218.04
             84.74,218.04 87.38,224.83 87.38,224.83
             91.01,232.67 96.56,240.07 97.00,249.00
             103.01,252.06 101.42,253.81 103.93,259.00
             107.30,265.96 108.55,263.29 110.00,274.00
             110.00,274.00 112.00,274.00 112.00,274.00
             112.76,267.25 119.49,250.79 122.21,244.01
             124.79,237.56 129.67,225.05 134.00,220.00
             134.00,220.00 135.00,213.00 135.00,213.00
             135.00,213.00 109.00,207.49 109.00,207.49
             109.00,207.49 76.00,197.00 76.00,197.00 Z
           M 51.00,198.00
           C 38.02,202.02 27.95,213.17 27.00,227.00
             27.00,227.00 23.77,227.00 23.77,227.00
             23.66,231.31 22.73,235.69 23.77,240.00
             24.26,243.93 29.17,253.32 31.18,257.28
             31.18,257.28 40.47,273.70 40.47,273.70
             46.29,281.18 59.43,292.41 66.73,299.37
             66.73,299.37 72.43,305.49 72.43,305.49
             79.10,311.84 90.52,320.76 99.00,324.00
             99.00,324.00 102.00,312.00 102.00,312.00
             102.00,312.00 99.98,304.17 99.98,304.17
             99.98,304.17 94.71,294.00 94.71,294.00
             94.71,294.00 91.87,285.00 91.87,285.00
             91.87,285.00 87.88,278.00 87.88,278.00
             87.88,278.00 85.58,271.28 85.58,271.28
             85.58,271.28 81.00,259.00 81.00,259.00
             76.07,256.08 76.50,252.85 73.93,248.28
             73.93,248.28 64.28,227.43 64.28,227.43
             60.82,220.07 58.46,220.29 58.00,211.00
             53.13,208.29 52.09,203.18 51.00,198.00 Z
           M 265.00,313.00
           C 264.80,304.71 271.21,294.34 268.82,286.00
             267.86,282.64 265.80,280.90 264.30,278.00
             264.30,278.00 261.58,270.00 261.58,270.00
             261.58,270.00 257.30,263.00 257.30,263.00
             255.05,258.36 254.55,252.47 249.67,248.58
             249.67,248.58 234.58,241.70 234.58,241.70
             234.58,241.70 225.00,238.60 225.00,238.60
             225.00,238.60 207.00,232.21 207.00,232.21
             207.00,232.21 198.00,228.38 198.00,228.38
             198.00,228.38 178.00,223.26 178.00,223.26
             178.00,223.26 158.00,218.00 158.00,218.00
             157.11,226.57 154.71,226.52 152.25,232.29
             150.02,237.54 145.35,249.86 142.00,254.00
             142.11,261.86 138.13,264.61 136.43,271.28
             135.17,276.22 136.84,282.96 132.00,289.00
             133.14,299.25 129.84,298.98 128.90,304.09
             128.33,306.35 128.89,310.47 128.90,313.00
             136.00,316.57 133.39,319.18 136.23,324.71
             136.23,324.71 140.19,330.29 140.19,330.29
             141.91,333.48 141.10,334.86 145.11,336.33
             152.51,339.04 159.47,338.37 167.00,339.42
             167.00,339.42 191.00,344.29 191.00,344.29
             191.00,344.29 212.00,347.55 212.00,347.55
             217.99,348.83 227.01,347.32 232.00,351.16
             232.00,351.16 250.78,351.16 250.78,351.16
             253.34,350.06 253.83,343.81 254.75,341.00
             254.75,341.00 261.66,323.72 261.66,323.72
             263.02,319.50 262.25,316.71 265.00,313.00 Z
           M 327.00,294.00
           C 327.00,294.00 325.05,284.55 325.05,284.55
             325.05,284.55 318.01,279.33 318.01,279.33
             318.01,279.33 298.00,268.00 298.00,268.00
             295.55,272.66 293.62,286.93 294.86,292.00
             296.45,298.52 298.56,297.24 299.00,306.00
             299.00,306.00 302.00,306.00 302.00,306.00
             302.00,306.00 311.92,343.00 311.92,343.00
             311.92,343.00 311.92,353.00 311.92,353.00
             311.92,353.00 311.92,355.00 311.92,355.00
             313.47,357.49 313.24,357.39 311.92,360.00
             318.64,365.15 328.09,363.91 336.00,364.00
             336.00,364.00 360.00,365.00 360.00,365.00
             364.19,365.01 366.48,364.41 370.00,366.99
             370.00,366.99 381.00,366.99 381.00,366.99
             381.00,366.99 393.00,366.99 393.00,366.99
             393.00,366.99 406.00,364.00 406.00,364.00
             401.81,360.30 389.24,344.04 386.02,339.00
             383.65,335.29 384.20,334.07 380.97,330.36
             380.97,330.36 374.75,323.74 374.75,323.74
             374.75,323.74 370.47,320.53 370.47,320.53
             367.73,318.05 367.29,316.09 363.74,313.59
             355.14,307.54 351.25,307.51 343.99,303.20
             338.02,299.67 334.08,295.18 327.00,294.00 Z
           M 194.00,277.52
           C 200.97,277.55 210.20,284.26 204.40,291.77
             202.41,294.36 195.15,296.17 192.00,296.16
             185.19,296.14 179.63,288.13 183.74,282.11
             186.26,278.42 189.96,278.05 194.00,277.52 Z
           M 285.00,329.00
           C 285.00,329.00 275.00,354.00 275.00,354.00
             276.48,355.31 277.20,356.06 279.09,356.88
             280.82,357.63 283.06,358.07 284.94,357.84
             290.72,357.12 288.54,349.97 288.17,346.00
             287.55,339.47 288.39,341.79 286.28,335.00
             285.58,332.74 285.33,331.32 285.00,329.00 Z
           M 144.00,480.00
           C 149.39,478.13 154.42,473.33 159.17,470.07
             165.66,465.63 176.64,458.77 181.63,453.04
             183.97,450.35 189.98,444.98 188.96,441.26
             188.45,439.39 185.57,437.33 184.17,435.96
             184.17,435.96 176.02,427.55 176.02,427.55
             176.02,427.55 149.43,399.23 149.43,399.23
             149.43,399.23 142.76,388.82 142.76,388.82
             142.76,388.82 140.20,382.42 140.20,382.42
             140.20,382.42 132.87,369.83 132.87,369.83
             131.24,366.32 131.69,363.87 129.74,360.58
             126.16,354.52 123.33,351.08 116.00,353.00
             116.87,358.05 115.96,364.57 116.00,370.00
             116.00,370.00 117.48,399.00 117.48,399.00
             118.14,404.83 121.79,413.66 120.00,419.00
             123.36,424.01 126.64,434.10 127.74,440.09
             128.31,443.24 127.71,446.59 129.10,450.83
             129.10,450.83 135.98,467.71 135.98,467.71
             138.65,472.56 141.37,473.84 144.00,480.00 Z
           M 153.00,357.00
           C 151.72,361.11 154.27,361.81 156.28,365.04
             158.38,368.40 157.72,370.16 161.63,376.58
             174.28,397.32 174.13,393.81 190.27,409.66
             196.04,415.33 200.30,421.66 208.00,425.00
             208.00,425.00 215.72,413.30 215.72,413.30
             215.72,413.30 220.24,408.54 220.24,408.54
             226.04,401.38 241.91,378.97 244.00,371.00
             244.00,371.00 234.00,369.25 234.00,369.25
             234.00,369.25 216.00,367.26 216.00,367.26
             216.00,367.26 206.00,365.30 206.00,365.30
             206.00,365.30 190.00,363.75 190.00,363.75
             190.00,363.75 169.00,359.24 169.00,359.24
             169.00,359.24 153.00,357.00 153.00,357.00 Z
           M 285.00,377.00
           C 285.00,377.00 268.00,374.00 268.00,374.00
             268.00,374.00 262.83,383.96 262.83,383.96
             262.83,383.96 258.17,390.17 258.17,390.17
             258.17,390.17 238.08,418.97 238.08,418.97
             238.08,418.97 228.44,432.91 228.44,432.91
             226.91,435.02 224.58,437.33 224.14,439.99
             223.48,443.89 227.54,445.22 230.23,446.96
             233.93,449.35 233.67,450.05 236.23,452.03
             239.08,454.22 246.39,457.28 250.00,456.66
             255.70,455.68 264.78,444.56 268.09,439.85
             270.63,436.21 276.94,424.97 277.75,421.00
             279.45,412.70 277.57,403.13 283.00,396.00
             283.00,396.00 285.00,377.00 285.00,377.00 Z" />
</svg>
