<?xml version="1.0" encoding="UTF-8" standalone="no"?>
<!DOCTYPE svg PUBLIC "-//W3C//DTD SVG 20010904//EN"
              "http://www.w3.org/TR/2001/REC-SVG-20010904/DTD/svg10.dtd">

<svg xmlns="http://www.w3.org/2000/svg"
     width="1.66667in" height="1.66667in"
     viewBox="0 0 150 150">
  <path id="blue"
        fill="#95b2ff" stroke="none" stroke-width="1"
        d="M 26.00,28.00
           C 42.26,18.74 55.52,12.85 74.00,9.39
             83.99,7.52 95.44,7.23 105.00,11.36
             105.00,11.36 118.00,19.14 118.00,19.14
             122.48,20.79 130.34,16.99 137.78,24.33
             142.88,29.37 142.29,39.97 143.28,47.00
             145.28,61.07 151.07,82.31 149.28,96.00
             148.57,101.47 147.57,108.35 144.30,112.96
             140.91,117.73 131.45,120.93 126.00,123.28
             111.40,129.58 89.73,136.57 74.00,138.17
             59.13,139.68 49.60,146.97 34.00,141.19
             29.19,139.41 27.57,138.95 23.73,135.37
             21.49,133.29 19.92,131.69 18.41,129.00
             12.48,118.41 9.92,99.94 7.33,88.00
             7.33,88.00 3.21,73.00 3.21,73.00
             3.21,73.00 2.52,65.00 2.52,65.00
             2.53,61.84 1.94,60.42 2.52,57.00
             2.52,52.32 3.45,51.22 2.52,46.00
             1.82,41.90 -0.41,36.02 0.24,32.02
             1.68,23.10 19.76,22.24 22.86,24.02
             24.80,25.14 25.07,26.19 26.00,28.00 Z
           M 115.00,24.00
           C 109.95,15.22 96.46,12.23 87.00,12.01
             73.64,11.71 56.05,17.23 44.00,22.89
             44.00,22.89 33.00,28.74 33.00,28.74
             25.65,32.32 15.96,35.93 10.56,42.29
             4.03,49.96 6.56,70.84 9.14,80.00
             10.19,83.74 10.60,86.88 13.00,90.00
             13.00,84.54 12.86,81.25 14.93,76.00
             17.15,70.33 23.59,59.18 28.04,55.21
             35.37,48.67 47.79,44.72 57.00,41.65
             57.00,41.65 78.00,34.90 78.00,34.90
             78.00,34.90 89.00,32.70 89.00,32.70
             89.00,32.70 115.00,24.00 115.00,24.00 Z
           M 61.00,99.00
           C 61.00,99.00 50.85,116.00 50.85,116.00
             49.86,118.65 49.98,122.28 53.15,123.34
             56.13,124.34 58.72,121.99 60.53,119.94
             64.24,115.77 68.69,105.93 73.04,104.32
             75.97,103.24 80.14,105.34 83.00,106.26
             90.90,108.79 105.57,113.99 110.91,104.98
             113.67,100.34 113.71,91.38 114.09,86.00
             114.09,86.00 115.82,60.00 115.82,60.00
             115.57,56.58 115.06,51.11 110.94,50.37
             106.47,49.57 101.83,55.12 99.01,58.00
             99.01,58.00 80.83,78.00 80.83,78.00
             76.69,82.58 72.69,85.31 70.00,91.00
             59.11,87.90 52.69,82.15 46.00,79.36
             43.05,78.13 38.01,77.12 36.66,81.14
             35.51,84.57 38.56,87.07 41.02,88.76
             46.16,92.28 55.07,97.31 61.00,99.00 Z
           M 104.00,67.00
           C 106.42,73.10 103.70,93.26 102.00,100.00
             102.00,100.00 80.00,94.00 80.00,94.00
             80.00,94.00 104.00,67.00 104.00,67.00 Z" />
    <path id="darkblue"
        fill="#4665b7" stroke="none" stroke-width="1"
        d="M 11.00,86.00
           C 8.65,70.75 6.97,78.15 7.00,58.00
             7.01,51.45 7.35,46.23 12.21,41.18
             16.75,36.47 26.05,32.63 32.00,29.74
             50.17,20.94 54.24,17.50 75.00,13.61
             78.48,12.96 83.57,11.93 87.00,12.18
             95.91,12.83 109.34,15.67 114.00,24.00
             114.00,24.00 88.00,32.49 88.00,32.49
             88.00,32.49 77.00,34.66 77.00,34.66
             77.00,34.66 44.00,45.72 44.00,45.72
             39.36,47.71 30.70,51.94 27.09,55.22
             23.50,58.49 20.82,63.76 18.42,68.00
             14.38,75.16 13.08,77.75 13.00,86.00
             13.00,86.00 11.00,86.00 11.00,86.00 Z" />
    <path id="logo"
        fill="#001858" stroke="none" stroke-width="1"
        d="M 70.00,92.00
           C 72.57,86.56 75.82,84.42 79.72,80.00
             79.72,80.00 98.42,59.00 98.42,59.00
             101.04,55.99 106.38,49.42 110.94,50.71
             114.74,51.77 114.94,55.76 115.00,59.00
             115.20,70.00 114.59,81.09 113.28,92.00
             112.58,97.87 113.25,100.53 109.53,105.89
             104.01,113.87 89.41,107.79 82.00,105.33
             79.54,104.52 75.62,102.91 73.09,103.69
             68.39,105.14 63.98,115.06 60.53,118.94
             58.72,120.98 56.13,123.35 53.15,122.34
             49.62,121.16 50.31,117.55 51.70,115.00
             53.33,112.01 60.64,101.79 63.00,99.00
             57.15,97.63 43.26,90.58 39.16,86.61
             34.55,82.15 38.20,77.66 43.00,78.70
             45.59,79.26 51.40,83.08 54.00,84.57
             54.00,84.57 70.00,92.00 70.00,92.00 Z
           M 106.00,65.00
           C 100.36,69.66 96.08,75.77 90.99,81.00
             86.65,85.44 81.79,88.90 80.00,95.00
             80.00,95.00 102.00,101.00 102.00,101.00
             102.00,101.00 106.00,65.00 106.00,65.00 Z" />
</svg>
