<?xml version="1.0" encoding="UTF-8" standalone="no"?>
<!DOCTYPE svg PUBLIC "-//W3C//DTD SVG 20010904//EN"
              "http://www.w3.org/TR/2001/REC-SVG-20010904/DTD/svg10.dtd">

<svg xmlns="http://www.w3.org/2000/svg"
     width="1.66667in" height="1.66667in"
     viewBox="0 0 150 150">
  <path id="blue"
        fill="#95b2ff" stroke="none" stroke-width="1"
        d="M 26.00,28.00
           C 42.26,18.74 55.52,12.85 74.00,9.39
             88.66,6.65 90.11,8.12 104.00,10.68
             106.70,11.18 109.41,11.07 112.00,12.08
             112.00,12.08 121.00,16.88 121.00,16.88
             126.91,19.84 130.05,19.93 134.35,26.00
             136.76,29.40 137.96,34.08 139.42,38.00
             141.99,44.87 145.67,56.85 146.70,64.00
             146.70,64.00 147.42,72.00 147.42,72.00
             147.42,72.00 149.83,86.00 149.83,86.00
             150.51,92.51 148.28,106.37 144.92,111.98
             141.60,117.52 132.85,120.34 127.00,122.85
             115.18,127.92 92.48,135.62 80.00,137.68
             80.00,137.68 73.00,138.28 73.00,138.28
             57.46,140.17 49.31,147.03 33.00,140.81
             28.45,139.07 27.37,138.76 23.73,135.37
             21.49,133.29 19.92,131.69 18.41,129.00
             12.48,118.41 9.92,99.94 7.33,88.00
             7.33,88.00 3.21,73.00 3.21,73.00
             3.21,73.00 2.52,65.00 2.52,65.00
             2.53,61.84 1.94,60.42 2.52,57.00
             2.52,52.32 3.45,51.22 2.52,46.00
             1.82,41.90 -0.41,36.02 0.24,32.02
             1.68,23.10 19.76,22.24 22.86,24.02
             24.80,25.14 25.07,26.19 26.00,28.00 Z
           M 101.00,15.00
           C 94.13,10.47 83.70,11.33 76.00,12.80
             53.28,17.16 50.94,20.00 31.00,29.52
             24.24,32.74 14.10,36.87 9.65,43.04
             6.39,47.55 6.02,56.50 6.00,62.00
             9.84,59.06 9.31,55.14 11.44,51.00
             13.82,46.36 20.67,38.74 25.00,35.85
             29.00,33.18 44.66,28.76 50.00,27.37
             50.00,27.37 88.00,17.68 88.00,17.68
             88.00,17.68 101.00,15.00 101.00,15.00 Z
           M 58.00,90.00
           C 58.00,90.00 47.85,107.00 47.85,107.00
             46.86,109.65 46.98,113.28 50.15,114.34
             53.13,115.34 55.72,112.99 57.53,110.94
             61.24,106.77 65.69,96.93 70.04,95.32
             72.97,94.24 77.14,96.34 80.00,97.26
             87.90,99.79 102.57,104.99 107.91,95.98
             110.67,91.34 110.71,82.38 111.09,77.00
             111.09,77.00 112.82,51.00 112.82,51.00
             112.57,47.58 112.06,42.11 107.94,41.37
             103.47,40.57 98.83,46.12 96.01,49.00
             96.01,49.00 77.83,69.00 77.83,69.00
             73.69,73.58 69.69,76.31 67.00,82.00
             56.11,78.90 49.69,73.15 43.00,70.36
             40.05,69.13 35.01,68.12 33.66,72.14
             32.51,75.57 35.56,78.07 38.02,79.76
             43.16,83.28 52.07,88.31 58.00,90.00 Z
           M 101.00,58.00
           C 103.42,64.10 100.70,84.26 99.00,91.00
             99.00,91.00 77.00,85.00 77.00,85.00
             77.00,85.00 101.00,58.00 101.00,58.00 Z" />
    <path id="darkblue"
        fill="#4665b7" stroke="none" stroke-width="1"
        d="M 28.00,33.00
           C 30.64,28.93 39.45,25.47 44.00,23.37
             56.33,17.69 72.14,11.77 85.92,12.23
             90.68,12.38 95.81,12.56 100.00,15.00
             100.00,15.00 87.00,17.50 87.00,17.50
             87.00,17.50 42.42,28.81 42.42,28.81
             42.42,28.81 21.00,36.00 21.00,36.00
             18.88,40.71 14.41,46.27 10.00,49.00
             10.25,53.21 9.16,57.36 7.00,61.00
             7.08,55.93 6.87,49.82 8.97,45.17
             11.65,39.22 21.57,33.01 28.00,33.00 Z" />
    <path id="logo"
        fill="#001858" stroke="none" stroke-width="1"
        d="M 60.00,90.00
           C 54.15,88.63 40.26,81.58 36.16,77.61
             31.55,73.15 35.20,68.66 40.00,69.70
             40.00,69.70 59.00,79.58 59.00,79.58
             61.18,80.53 63.92,82.24 66.28,81.08
             68.90,79.80 76.20,71.56 78.42,69.00
             78.42,69.00 98.09,47.02 98.09,47.02
             104.45,40.40 111.77,38.01 112.00,50.00
             112.00,50.00 112.00,62.00 112.00,62.00
             112.00,62.00 109.03,92.00 109.03,92.00
             107.46,96.42 105.03,100.43 99.99,100.88
             94.84,101.34 85.03,98.34 80.00,96.67
             77.37,95.79 72.75,93.87 70.09,94.69
             63.77,96.65 59.74,111.36 52.99,113.34
             49.43,114.40 46.19,111.62 48.18,107.00
             49.30,104.40 57.84,92.55 60.00,90.00 Z
           M 103.00,56.00
           C 103.00,56.00 87.99,72.00 87.99,72.00
             83.65,76.44 78.79,79.90 77.00,86.00
             77.00,86.00 99.00,92.00 99.00,92.00
             99.00,92.00 103.00,56.00 103.00,56.00 Z" />
</svg>
