<?xml version="1.0" encoding="UTF-8" standalone="no"?>
<!DOCTYPE svg PUBLIC "-//W3C//DTD SVG 20010904//EN"
              "http://www.w3.org/TR/2001/REC-SVG-20010904/DTD/svg10.dtd">

<svg xmlns="http://www.w3.org/2000/svg"
     width="5.55556in" height="5.55556in"
     viewBox="0 0 500 500">
  <path id="Folder"
        fill="#9c5a34" stroke="none" stroke-width="1"
        d="M 86.00,94.00
           C 86.00,94.00 118.00,78.69 118.00,78.69
             118.00,78.69 142.00,65.31 142.00,65.31
             142.00,65.31 162.00,58.13 162.00,58.13
             162.00,58.13 174.00,52.45 174.00,52.45
             174.00,52.45 218.00,37.50 218.00,37.50
             218.00,37.50 247.00,32.74 247.00,32.74
             247.00,32.74 258.00,30.26 258.00,30.26
             268.70,28.27 282.14,26.88 293.00,27.00
             293.00,27.00 336.00,34.43 336.00,34.43
             336.00,34.43 351.00,39.42 351.00,39.42
             355.65,40.18 364.01,37.85 370.00,39.42
             374.86,41.10 385.07,48.62 390.00,51.55
             390.00,51.55 401.00,57.58 401.00,57.58
             413.55,64.65 414.09,61.84 422.00,65.63
             430.91,69.90 442.94,81.72 448.30,90.00
             454.40,99.41 458.68,114.17 462.68,125.00
             462.68,125.00 470.28,146.00 470.28,146.00
             470.28,146.00 474.04,161.00 474.04,161.00
             474.04,161.00 478.45,172.00 478.45,172.00
             480.79,178.56 481.88,186.15 483.08,193.00
             483.08,193.00 486.72,209.00 486.72,209.00
             486.72,209.00 489.17,235.00 489.17,235.00
             489.17,235.00 492.57,254.00 492.57,254.00
             492.57,254.00 493.30,264.00 493.30,264.00
             494.49,272.34 497.89,279.18 498.00,288.00
             498.11,297.43 497.10,326.71 495.33,335.00
             495.33,335.00 489.33,354.00 489.33,354.00
             487.18,360.45 483.80,371.86 479.62,376.91
             477.61,379.34 469.51,387.43 467.00,388.93
             467.00,388.93 449.00,396.31 449.00,396.31
             449.00,396.31 433.00,404.13 433.00,404.13
             433.00,404.13 405.00,415.28 405.00,415.28
             405.00,415.28 380.00,425.91 380.00,425.91
             380.00,425.91 358.00,431.91 358.00,431.91
             358.00,431.91 343.00,437.41 343.00,437.41
             343.00,437.41 306.00,446.88 306.00,446.88
             306.00,446.88 267.00,457.92 267.00,457.92
             267.00,457.92 257.00,457.92 257.00,457.92
             257.00,457.92 219.00,463.08 219.00,463.08
             204.49,465.53 203.86,468.31 194.00,471.08
             186.70,473.13 162.47,476.91 155.00,477.00
             142.10,477.15 135.64,477.31 123.00,473.25
             123.00,473.25 105.00,465.45 105.00,465.45
             101.07,463.86 92.01,461.50 89.21,459.30
             85.73,456.56 85.73,453.23 81.79,449.76
             75.10,443.86 72.55,445.39 65.10,434.00
             56.57,420.95 53.50,405.61 48.98,391.00
             48.98,391.00 42.80,370.00 42.80,370.00
             42.80,370.00 38.15,356.00 38.15,356.00
             38.15,356.00 29.81,319.00 29.81,319.00
             29.81,319.00 25.19,289.00 25.19,289.00
             25.19,289.00 16.25,257.00 16.25,257.00
             16.25,257.00 11.29,244.00 11.29,244.00
             9.28,234.83 10.11,225.32 10.00,216.00
             10.00,216.00 9.00,201.00 9.00,201.00
             9.00,201.00 9.00,189.00 9.00,189.00
             9.00,189.00 10.91,159.00 10.91,159.00
             10.91,159.00 2.63,124.00 2.63,124.00
             1.54,119.66 -0.15,114.43 0.18,110.00
             0.50,105.74 2.06,99.52 4.65,96.09
             16.09,80.91 49.41,78.97 67.00,79.00
             78.13,79.02 83.81,82.33 86.00,94.00 Z
           M 337.00,50.00
           C 332.10,45.01 320.88,44.58 314.00,43.20
             306.98,41.80 290.63,38.72 284.00,39.09
             284.00,39.09 246.00,45.58 246.00,45.58
             246.00,45.58 211.00,52.21 211.00,52.21
             211.00,52.21 170.00,68.14 170.00,68.14
             170.00,68.14 149.00,76.26 149.00,76.26
             149.00,76.26 113.00,95.74 113.00,95.74
             113.00,95.74 85.00,108.31 85.00,108.31
             85.00,108.31 55.00,125.03 55.00,125.03
             47.06,130.44 33.70,141.55 29.37,150.00
             23.68,161.13 23.96,170.20 22.92,182.00
             22.11,189.52 20.92,198.67 22.92,206.00
             22.92,206.00 25.00,206.00 25.00,206.00
             25.00,206.00 36.31,168.00 36.31,168.00
             40.11,159.65 48.71,149.97 54.85,143.00
             60.82,136.21 68.08,127.34 75.00,121.81
             88.37,111.11 101.29,109.01 117.00,104.28
             117.00,104.28 154.00,92.43 154.00,92.43
             154.00,92.43 172.00,88.57 172.00,88.57
             172.00,88.57 184.00,84.72 184.00,84.72
             184.00,84.72 210.00,77.48 210.00,77.48
             210.00,77.48 238.00,72.00 238.00,72.00
             238.00,72.00 266.00,65.35 266.00,65.35
             266.00,65.35 286.00,58.89 286.00,58.89
             286.00,58.89 323.00,52.57 323.00,52.57
             323.00,52.57 337.00,50.00 337.00,50.00 Z" />
    <path id="Folder Inside"
        fill="#6d3f24" stroke="none" stroke-width="1"
        d="M 22.00,206.00
           C 22.00,188.85 21.50,162.84 30.48,148.00
             34.07,142.06 40.67,136.35 46.00,131.92
             61.07,119.39 80.23,110.71 98.00,102.70
             98.00,102.70 150.00,75.78 150.00,75.78
             150.00,75.78 170.00,67.99 170.00,67.99
             170.00,67.99 212.00,51.92 212.00,51.92
             212.00,51.92 236.00,47.39 236.00,47.39
             248.23,45.10 276.09,38.62 287.00,39.04
             294.13,39.32 305.80,41.56 313.00,43.00
             318.88,44.18 333.78,45.32 337.00,50.00
             337.00,50.00 323.00,52.57 323.00,52.57
             323.00,52.57 286.00,59.04 286.00,59.04
             286.00,59.04 266.00,65.50 266.00,65.50
             266.00,65.50 255.00,67.65 255.00,67.65
             255.00,67.65 235.00,72.60 235.00,72.60
             235.00,72.60 210.00,77.48 210.00,77.48
             210.00,77.48 199.00,80.85 199.00,80.85
             199.00,80.85 184.00,84.72 184.00,84.72
             184.00,84.72 173.00,88.34 173.00,88.34
             173.00,88.34 153.00,92.74 153.00,92.74
             153.00,92.74 117.00,104.28 117.00,104.28
             104.43,108.07 91.12,110.72 80.00,118.10
             72.14,123.33 61.20,135.65 54.87,143.00
             47.89,151.10 39.49,160.05 35.45,170.00
             35.45,170.00 27.73,196.00 27.73,196.00
             26.46,200.83 27.16,204.21 22.00,206.00 Z" />
  <path id="Selection"
        fill="#522e18" stroke="none" stroke-width="1"
        d="M 312.00,351.00
           C 312.00,351.00 327.00,344.46 327.00,344.46
             327.00,344.46 338.00,341.25 338.00,341.25
             338.00,341.25 346.00,338.22 346.00,338.22
             346.00,338.22 359.00,335.39 359.00,335.39
             359.00,335.39 383.00,323.75 383.00,323.75
             383.00,323.75 408.00,315.00 408.00,315.00
             410.08,314.12 416.06,311.81 417.36,310.30
             419.97,307.29 414.37,295.73 412.94,292.00
             412.94,292.00 407.40,281.00 407.40,281.00
             406.00,278.02 404.48,272.32 403.63,269.00
             402.78,265.68 401.26,260.27 401.10,257.00
             400.60,246.71 406.74,237.81 417.00,235.69
             423.51,234.35 431.09,237.75 434.89,243.09
             439.67,249.79 437.98,255.47 441.45,264.00
             441.45,264.00 446.60,274.00 446.60,274.00
             446.60,274.00 449.52,282.00 449.52,282.00
             453.64,291.51 456.87,297.00 457.00,308.00
             457.10,316.92 458.17,327.46 452.21,334.82
             445.74,342.81 433.85,344.67 425.00,348.78
             425.00,348.78 398.00,358.60 398.00,358.60
             398.00,358.60 390.00,363.09 390.00,363.09
             390.00,363.09 372.00,370.79 372.00,370.79
             372.00,370.79 345.00,378.20 345.00,378.20
             331.74,382.61 319.50,392.61 305.00,393.81
             289.30,395.11 283.32,381.27 278.91,369.00
             274.43,356.51 269.83,342.06 267.46,329.00
             267.46,329.00 265.87,317.00 265.87,317.00
             264.50,307.92 263.02,308.84 263.00,298.00
             263.00,298.00 263.00,286.00 263.00,286.00
             263.01,279.75 263.31,274.42 267.11,269.09
             273.81,259.68 287.61,258.90 295.47,267.33
             300.11,272.30 300.97,278.52 301.00,285.00
             301.04,293.14 300.98,299.87 302.46,308.00
             302.46,308.00 304.72,318.00 304.72,318.00
             304.72,318.00 307.51,335.00 307.51,335.00
             307.51,335.00 312.00,351.00 312.00,351.00 Z" />
</svg>
