<?xml version="1.0" encoding="UTF-8" standalone="no"?>
<!DOCTYPE svg PUBLIC "-//W3C//DTD SVG 20010904//EN"
              "http://www.w3.org/TR/2001/REC-SVG-20010904/DTD/svg10.dtd">

<svg xmlns="http://www.w3.org/2000/svg"
     width="1.66667in" height="1.66667in"
     viewBox="0 0 500 500">
  <path id="Outline"
        fill="black" stroke="none" stroke-width="1"
        d="M 148.00,0.46
           C 158.09,-0.90 161.12,1.75 169.09,6.72
             179.56,13.24 192.24,23.30 199.74,33.00
             199.74,33.00 208.74,43.00 208.74,43.00
             208.74,43.00 231.89,71.91 231.89,71.91
             231.89,71.91 238.68,79.04 238.68,79.04
             238.68,79.04 257.17,102.00 257.17,102.00
             257.17,102.00 278.17,124.91 278.17,124.91
             278.17,124.91 286.83,133.01 286.83,133.01
             286.83,133.01 300.48,149.83 300.48,149.83
             300.48,149.83 314.71,166.00 314.71,166.00
             314.71,166.00 330.35,184.11 330.35,184.11
             330.35,184.11 348.71,200.17 348.71,200.17
             348.71,200.17 371.00,222.99 371.00,222.99
             371.00,222.99 392.91,243.28 392.91,243.28
             392.91,243.28 399.46,250.12 399.46,250.12
             399.46,250.12 421.16,270.82 421.16,270.82
             421.16,270.82 427.39,276.32 427.39,276.32
             427.39,276.32 432.29,281.82 432.29,281.82
             432.29,281.82 439.34,288.18 439.34,288.18
             439.34,288.18 451.33,303.00 451.33,303.00
             455.07,307.79 456.46,308.17 459.97,311.78
             459.97,311.78 465.18,317.92 465.18,317.92
             475.15,328.47 473.12,324.54 482.58,338.00
             488.07,345.82 492.39,353.22 491.96,363.00
             491.60,371.24 486.74,380.66 479.00,384.20
             479.00,384.20 457.00,389.70 457.00,389.70
             457.00,389.70 448.00,390.46 448.00,390.46
             448.00,390.46 438.00,393.53 438.00,393.53
             438.00,393.53 410.00,400.39 410.00,400.39
             410.00,400.39 401.00,403.34 401.00,403.34
             401.00,403.34 382.00,408.13 382.00,408.13
             382.00,408.13 368.00,411.51 368.00,411.51
             368.00,411.51 357.00,415.13 357.00,415.13
             357.00,415.13 325.09,423.09 325.09,423.09
             325.09,423.09 317.96,425.62 317.96,425.62
             317.96,425.62 286.00,433.38 286.00,433.38
             286.00,433.38 274.00,437.25 274.00,437.25
             274.00,437.25 245.00,444.38 245.00,444.38
             245.00,444.38 230.00,449.11 230.00,449.11
             230.00,449.11 174.00,462.76 174.00,462.76
             174.00,462.76 164.84,464.03 164.84,464.03
             164.84,464.03 150.01,467.59 150.01,467.59
             150.01,467.59 140.96,470.62 140.96,470.62
             140.96,470.62 110.00,478.39 110.00,478.39
             110.00,478.39 87.00,484.87 87.00,484.87
             79.34,486.79 65.45,491.11 58.00,489.62
             50.19,488.06 42.51,483.47 39.21,476.00
             37.06,471.14 37.58,468.15 36.54,464.00
             36.54,464.00 33.90,456.00 33.90,456.00
             32.60,450.79 32.94,441.63 33.00,436.00
             33.20,419.22 38.25,410.56 40.58,396.00
             40.58,396.00 45.67,365.00 45.67,365.00
             45.67,365.00 50.54,347.00 50.54,347.00
             50.54,347.00 54.69,323.00 54.69,323.00
             54.69,323.00 56.54,312.00 56.54,312.00
             56.54,312.00 59.16,304.00 59.16,304.00
             59.16,304.00 61.04,294.00 61.04,294.00
             61.04,294.00 69.84,265.00 69.84,265.00
             69.84,265.00 75.42,236.00 75.42,236.00
             75.42,236.00 80.81,217.09 80.81,217.09
             80.81,217.09 85.67,193.00 85.67,193.00
             85.67,193.00 88.41,184.00 88.41,184.00
             88.41,184.00 90.04,176.00 90.04,176.00
             90.04,176.00 92.81,165.00 92.81,165.00
             92.81,165.00 94.28,151.00 94.28,151.00
             96.38,133.54 97.79,115.82 103.04,99.00
             103.04,99.00 109.15,74.00 109.15,74.00
             109.15,74.00 114.41,57.00 114.41,57.00
             114.41,57.00 115.58,47.00 115.58,47.00
             115.58,47.00 117.83,34.00 117.83,34.00
             118.34,28.79 117.34,24.08 119.75,19.09
             123.17,11.99 127.92,10.65 134.00,7.25
             140.80,3.46 139.22,2.45 148.00,0.46 Z
           M 152.00,91.00
           C 149.48,94.29 148.20,103.44 146.72,108.01
             142.29,121.63 143.59,120.04 141.70,133.00
             141.70,133.00 138.17,158.00 138.17,158.00
             138.17,158.00 136.11,175.00 136.11,175.00
             136.11,175.00 128.68,204.00 128.68,204.00
             128.68,204.00 123.76,229.00 123.76,229.00
             123.76,229.00 118.51,248.00 118.51,248.00
             118.51,248.00 113.78,272.08 113.78,272.08
             113.78,272.08 101.48,316.09 101.48,316.09
             101.48,316.09 97.08,336.00 97.08,336.00
             97.08,336.00 95.54,348.00 95.54,348.00
             92.62,364.49 86.45,380.15 86.00,397.00
             91.61,395.14 99.84,383.15 103.34,378.00
             103.34,378.00 118.26,358.00 118.26,358.00
             118.26,358.00 133.58,337.04 133.58,337.04
             133.58,337.04 140.04,329.92 140.04,329.92
             140.04,329.92 154.17,313.00 154.17,313.00
             154.17,313.00 164.60,302.56 164.60,302.56
             170.12,296.75 175.12,290.48 179.86,284.04
             182.98,279.80 190.62,272.60 192.06,268.00
             192.99,265.00 189.99,256.66 189.12,253.00
             189.12,253.00 185.46,238.00 185.46,238.00
             185.46,238.00 184.11,229.00 184.11,229.00
             184.11,229.00 180.90,217.00 180.90,217.00
             177.93,204.78 179.36,202.84 178.26,196.00
             177.33,190.22 174.84,184.74 174.87,178.83
             174.93,168.00 170.07,157.34 167.38,147.00
             167.38,147.00 152.00,91.00 152.00,91.00 Z
           M 204.00,106.00
           C 204.00,106.00 201.00,106.00 201.00,106.00
             201.00,106.00 216.33,166.00 216.33,166.00
             216.33,166.00 217.17,177.00 217.17,177.00
             217.17,177.00 218.84,186.00 218.84,186.00
             218.84,186.00 220.30,202.00 220.30,202.00
             220.30,202.00 225.33,221.00 225.33,221.00
             225.33,221.00 226.46,229.00 226.46,229.00
             226.46,229.00 233.03,255.00 233.03,255.00
             233.03,255.00 236.68,264.00 236.68,264.00
             236.68,264.00 239.93,290.00 239.93,290.00
             240.29,293.94 241.16,301.65 243.72,304.69
             246.18,307.61 251.45,307.63 255.04,308.23
             255.04,308.23 286.00,312.14 286.00,312.14
             286.00,312.14 298.00,313.60 298.00,313.60
             298.00,313.60 305.00,315.69 305.00,315.69
             305.00,315.69 322.27,317.88 322.27,317.88
             322.27,317.88 332.00,319.86 332.00,319.86
             332.00,319.86 356.28,320.85 356.28,320.85
             356.28,320.85 372.00,322.96 372.00,322.96
             372.00,322.96 380.00,322.96 380.00,322.96
             390.17,323.78 401.67,328.40 411.00,326.00
             408.83,318.79 406.26,318.60 401.45,313.69
             401.45,313.69 389.83,301.68 389.83,301.68
             389.83,301.68 361.99,275.09 361.99,275.09
             361.99,275.09 343.15,257.79 343.15,257.79
             343.15,257.79 317.91,232.17 317.91,232.17
             317.91,232.17 311.09,226.54 311.09,226.54
             311.09,226.54 304.95,220.30 304.95,220.30
             304.95,220.30 289.54,205.20 289.54,205.20
             289.54,205.20 283.61,197.46 283.61,197.46
             283.61,197.46 267.72,179.72 267.72,179.72
             267.72,179.72 256.83,166.01 256.83,166.01
             256.83,166.01 244.26,153.57 244.26,153.57
             234.89,143.66 210.95,116.52 204.00,106.00 Z
           M 195.00,332.00
           C 185.86,337.59 183.75,342.88 177.03,350.49
             177.03,350.49 163.90,366.00 163.90,366.00
             163.90,366.00 152.52,382.00 152.52,382.00
             152.52,382.00 141.91,395.28 141.91,395.28
             141.91,395.28 135.42,405.00 135.42,405.00
             131.90,409.79 128.03,414.65 123.98,419.00
             120.29,422.96 116.84,425.49 116.00,431.00
             116.00,431.00 148.00,422.42 148.00,422.42
             148.00,422.42 162.00,420.09 162.00,420.09
             162.00,420.09 177.00,416.46 177.00,416.46
             177.00,416.46 184.00,415.47 184.00,415.47
             184.00,415.47 196.00,411.87 196.00,411.87
             196.00,411.87 264.00,394.12 264.00,394.12
             264.00,394.12 286.00,387.87 286.00,387.87
             286.00,387.87 336.00,374.65 336.00,374.65
             342.72,373.06 362.12,368.47 367.00,365.00
             356.64,361.83 340.23,363.35 328.00,361.71
             328.00,361.71 314.00,358.95 314.00,358.95
             314.00,358.95 296.00,356.73 296.00,356.73
             296.00,356.73 286.00,354.30 286.00,354.30
             286.00,354.30 256.73,351.10 256.73,351.10
             256.73,351.10 242.00,348.20 242.00,348.20
             234.51,346.70 207.45,340.68 202.00,337.73
             199.10,336.16 197.33,334.25 195.00,332.00 Z" />
  <path id="Blue"
      fill="#3f51b5" stroke="none" stroke-width="1"
      d="M 151.00,92.00
          C 153.89,95.60 154.26,99.59 155.37,104.00
            155.37,104.00 161.15,126.00 161.15,126.00
            161.15,126.00 173.68,173.00 173.68,173.00
            173.68,173.00 174.46,183.00 174.46,183.00
            174.46,183.00 178.00,197.00 178.00,197.00
            178.00,197.00 178.00,205.00 178.00,205.00
            178.67,210.29 179.66,215.83 180.88,221.00
            180.88,221.00 188.87,254.00 188.87,254.00
            189.74,257.46 192.14,264.77 191.18,268.00
            190.06,271.75 183.95,277.80 181.32,281.00
            181.32,281.00 173.83,291.00 173.83,291.00
            173.83,291.00 155.09,311.00 155.09,311.00
            139.09,328.18 125.04,347.31 110.90,366.00
            103.90,375.24 96.03,388.96 87.00,396.00
            87.10,384.69 90.96,373.04 93.20,362.00
            93.20,362.00 100.72,324.00 100.72,324.00
            100.72,324.00 102.90,312.00 102.90,312.00
            102.90,312.00 111.88,283.28 111.88,283.28
            111.88,283.28 114.66,269.00 114.66,269.00
            114.66,269.00 118.19,255.00 118.19,255.00
            118.19,255.00 119.60,246.00 119.60,246.00
            119.60,246.00 124.48,229.00 124.48,229.00
            124.48,229.00 129.89,203.00 129.89,203.00
            129.89,203.00 136.95,173.17 136.95,173.17
            136.95,173.17 138.52,159.00 138.52,159.00
            138.52,159.00 140.06,150.29 140.06,150.29
            140.06,150.29 140.67,141.00 140.67,141.00
            140.67,141.00 142.68,132.00 142.68,132.00
            142.68,132.00 143.48,123.72 143.48,123.72
            143.48,123.72 151.00,92.00 151.00,92.00 Z" />
  <path id="Red"
        fill="#f44336" stroke="none" stroke-width="1"
        d="M 202.00,107.00
           C 202.00,107.00 232.29,142.00 232.29,142.00
             232.29,142.00 256.68,167.91 256.68,167.91
             256.68,167.91 289.16,206.00 289.16,206.00
             289.16,206.00 315.01,231.09 315.01,231.09
             315.01,231.09 338.99,254.96 338.99,254.96
             338.99,254.96 356.00,271.01 356.00,271.01
             356.00,271.01 373.72,288.49 373.72,288.49
             373.72,288.49 396.00,309.00 396.00,309.00
             396.00,309.00 408.89,323.00 408.89,323.00
             408.89,323.00 408.89,326.00 408.89,326.00
             408.89,326.00 379.00,322.00 379.00,322.00
             379.00,322.00 370.00,322.00 370.00,322.00
             370.00,322.00 355.00,320.00 355.00,320.00
             355.00,320.00 329.00,318.19 329.00,318.19
             329.00,318.19 315.00,315.42 315.00,315.42
             315.00,315.42 306.00,314.56 306.00,314.56
             306.00,314.56 287.73,311.76 287.73,311.76
             287.73,311.76 274.09,310.11 274.09,310.11
             274.09,310.11 257.00,307.58 257.00,307.58
             257.00,307.58 244.00,305.00 244.00,305.00
             244.00,305.00 238.75,275.00 238.75,275.00
             238.75,275.00 238.75,270.00 238.75,270.00
             238.75,270.00 232.88,250.00 232.88,250.00
             232.88,250.00 221.46,202.00 221.46,202.00
             221.46,202.00 220.72,192.00 220.72,192.00
             220.72,192.00 218.17,176.00 218.17,176.00
             218.17,176.00 217.33,167.00 217.33,167.00
             217.33,167.00 202.00,107.00 202.00,107.00 Z" />
  <path id="Green"
        fill="#4caf50" stroke="none" stroke-width="1"
        d="M 194.00,333.00
           C 211.91,344.93 213.80,342.06 233.00,346.74
             233.00,346.74 276.00,354.71 276.00,354.71
             276.00,354.71 286.00,355.30 286.00,355.30
             286.00,355.30 296.00,357.54 296.00,357.54
             296.00,357.54 313.00,359.28 313.00,359.28
             313.00,359.28 326.00,361.84 326.00,361.84
             326.00,361.84 346.00,364.00 346.00,364.00
             352.34,364.01 360.30,363.09 366.00,366.00
             366.00,366.00 230.00,402.15 230.00,402.15
             230.00,402.15 185.00,414.11 185.00,414.11
             185.00,414.11 153.00,420.89 153.00,420.89
             153.00,420.89 116.00,430.00 116.00,430.00
             116.00,430.00 130.80,412.00 130.80,412.00
             130.80,412.00 142.47,396.00 142.47,396.00
             142.47,396.00 153.49,382.00 153.49,382.00
             153.49,382.00 161.73,370.00 161.73,370.00
             167.85,361.68 186.60,339.54 194.00,333.00 Z" />
</svg>
