<?xml version="1.0" encoding="UTF-8" standalone="no"?>
<!DOCTYPE svg PUBLIC "-//W3C//DTD SVG 20010904//EN"
              "http://www.w3.org/TR/2001/REC-SVG-20010904/DTD/svg10.dtd">

<svg xmlns="http://www.w3.org/2000/svg"
     width="1.66667in" height="1.66667in"
     viewBox="0 0 500 500">
  <path id="blue"
        fill="#245f9e" stroke="black" stroke-width="1"
        d="M 109.00,39.00
           C 111.35,31.94 117.09,32.38 122.83,29.67
             122.83,29.67 139.28,20.30 139.28,20.30
             139.28,20.30 154.83,16.57 154.83,16.57
             154.83,16.57 169.91,12.87 169.91,12.87
             173.91,11.56 173.28,10.51 179.00,9.62
             179.00,9.62 202.00,9.00 202.00,9.00
             210.94,9.00 220.14,8.45 228.96,10.10
             233.10,10.88 232.77,12.03 237.04,12.95
             237.04,12.95 249.95,14.59 249.95,14.59
             249.95,14.59 256.09,16.90 256.09,16.90
             256.09,16.90 265.00,19.05 265.00,19.05
             273.50,21.74 282.36,26.96 289.59,32.10
             296.53,37.04 312.41,44.77 315.00,53.00
             315.00,53.00 319.00,53.00 319.00,53.00
             319.00,53.00 329.65,70.29 329.65,70.29
             331.31,75.00 331.56,88.08 330.31,92.91
             327.81,102.54 319.17,112.92 309.00,114.00
             309.00,114.00 309.00,116.88 309.00,116.88
             301.50,117.61 291.29,119.36 284.09,116.88
             281.84,115.94 280.82,115.04 278.83,113.96
             266.99,107.52 269.70,107.47 260.91,99.75
             260.91,99.75 252.28,94.17 252.28,94.17
             249.13,91.85 247.84,89.91 243.83,88.39
             225.00,81.27 200.85,79.80 181.01,83.13
             175.43,84.06 177.08,86.45 165.00,87.00
             162.59,94.01 147.57,97.00 141.17,100.89
             136.11,103.96 136.80,106.87 130.00,108.00
             128.47,114.89 121.89,118.68 118.13,124.11
             111.82,133.20 112.88,136.46 113.00,147.00
             113.00,147.00 114.13,164.96 114.13,164.96
             114.13,164.96 115.97,171.17 115.97,171.17
             115.97,171.17 115.97,178.00 115.97,178.00
             115.97,178.00 117.87,186.91 117.87,186.91
             117.87,186.91 117.87,199.00 117.87,199.00
             117.87,199.00 119.05,207.00 119.05,207.00
             119.05,207.00 119.05,213.96 119.05,213.96
             119.67,218.17 121.21,217.99 122.38,224.00
             122.38,224.00 123.26,232.91 123.26,232.91
             123.26,232.91 127.72,250.72 127.72,250.72
             127.72,250.72 135.22,268.00 135.22,268.00
             135.22,268.00 139.43,279.97 139.43,279.97
             139.43,279.97 142.99,287.09 142.99,287.09
             142.99,287.09 144.96,293.71 144.96,293.71
             144.96,293.71 149.56,300.43 149.56,300.43
             151.97,304.55 156.41,314.36 157.00,319.00
             163.14,320.82 163.24,324.78 166.30,329.75
             166.30,329.75 172.70,338.20 172.70,338.20
             172.70,338.20 178.84,347.58 178.84,347.58
             178.84,347.58 200.64,373.61 200.64,373.61
             200.64,373.61 208.00,383.88 208.00,383.88
             214.03,391.00 215.81,390.64 218.26,392.83
             218.26,392.83 222.33,397.17 222.33,397.17
             227.08,400.83 238.06,405.54 244.00,406.36
             252.45,408.00 263.63,408.26 271.96,406.36
             271.96,406.36 278.17,404.07 278.17,404.07
             278.17,404.07 284.91,402.49 284.91,402.49
             284.91,402.49 290.17,399.98 290.17,399.98
             290.17,399.98 300.72,397.23 300.72,397.23
             314.89,390.97 325.80,382.10 337.57,372.40
             340.64,369.87 346.87,363.54 348.90,360.27
             348.90,360.27 354.65,349.44 354.65,349.44
             356.56,347.15 359.13,345.59 361.56,343.92
             370.98,337.44 374.81,337.87 386.00,338.00
             394.76,338.11 404.80,342.32 410.19,349.44
             410.19,349.44 412.79,353.93 412.79,353.93
             414.02,355.93 415.08,356.89 416.01,359.17
             417.80,363.54 417.99,368.36 418.00,373.00
             418.01,377.70 417.93,382.38 416.50,386.91
             413.90,395.12 401.41,413.24 394.84,418.98
             394.84,418.98 389.44,422.67 389.44,422.67
             383.35,427.45 382.66,432.78 374.00,434.00
             374.00,434.00 369.00,442.00 369.00,442.00
             362.18,443.92 358.04,449.86 351.71,452.82
             351.71,452.82 325.72,465.66 325.72,465.66
             325.72,465.66 310.09,468.99 310.09,468.99
             310.09,468.99 294.91,475.31 294.91,475.31
             294.91,475.31 282.09,477.26 282.09,477.26
             273.77,478.87 272.39,480.06 263.00,480.00
             263.00,480.00 240.17,478.76 240.17,478.76
             240.17,478.76 234.91,477.26 234.91,477.26
             234.91,477.26 225.00,476.40 225.00,476.40
             225.00,476.40 195.42,465.32 195.42,465.32
             195.42,465.32 177.27,453.67 177.27,453.67
             177.27,453.67 170.55,447.78 170.55,447.78
             167.77,445.73 167.13,446.32 163.09,442.66
             163.09,442.66 152.11,430.75 152.11,430.75
             152.11,430.75 146.01,421.23 146.01,421.23
             146.01,421.23 139.83,415.60 139.83,415.60
             139.83,415.60 132.95,406.26 132.95,406.26
             132.95,406.26 127.81,401.45 127.81,401.45
             127.81,401.45 123.91,394.42 123.91,394.42
             123.91,394.42 116.87,385.75 116.87,385.75
             116.87,385.75 107.81,372.15 107.81,372.15
             103.73,365.82 100.08,364.27 99.00,356.00
             99.00,356.00 96.00,356.00 96.00,356.00
             94.70,351.38 90.72,346.33 88.38,341.83
             88.38,341.83 81.25,326.25 81.25,326.25
             81.25,326.25 75.41,314.91 75.41,314.91
             75.41,314.91 72.12,303.28 72.12,303.28
             72.12,303.28 66.38,292.84 66.38,292.84
             66.38,292.84 59.07,273.83 59.07,273.83
             59.07,273.83 55.78,257.09 55.78,257.09
             55.78,257.09 50.43,236.72 50.43,236.72
             50.43,236.72 47.87,209.00 47.87,209.00
             47.87,209.00 46.05,200.00 46.05,200.00
             45.63,193.72 45.76,182.07 42.00,177.00
             42.00,177.00 44.00,172.00 44.00,172.00
             41.28,169.56 41.97,166.48 42.00,163.00
             42.00,163.00 43.00,134.00 43.00,134.00
             42.94,128.81 41.00,125.27 44.23,121.00
             41.19,118.47 43.19,116.54 44.23,111.99
             46.33,105.25 48.81,93.61 56.00,91.00
             57.25,81.82 70.77,67.66 77.09,60.61
             80.21,57.13 83.25,52.80 88.00,52.00
             90.35,44.77 101.82,39.35 109.00,39.00 Z
           M 354.00,156.00
           C 347.38,151.99 340.01,146.52 337.45,138.91
             331.49,121.20 345.34,104.69 363.83,107.52
             377.06,109.54 383.62,116.94 391.04,127.28
             392.76,129.69 397.80,139.00 399.39,139.81
             402.47,141.36 408.96,137.92 412.00,136.78
             419.47,133.99 417.32,135.16 424.00,134.26
             429.28,133.66 432.23,130.87 438.99,134.26
             446.46,137.86 446.43,141.81 448.42,149.00
             449.57,153.14 452.06,159.85 451.11,164.00
             448.44,175.68 435.63,179.18 426.00,182.54
             420.41,184.49 420.48,185.41 414.00,186.00
             414.00,186.00 419.25,206.00 419.25,206.00
             419.25,206.00 420.67,215.00 420.67,215.00
             422.48,223.47 424.88,226.83 421.94,236.00
             416.73,252.30 394.68,257.02 383.16,244.52
             378.20,239.15 377.60,234.67 375.71,228.00
             375.71,228.00 369.00,202.00 369.00,202.00
             360.25,203.79 352.04,208.66 343.00,209.52
             323.26,211.40 311.34,189.34 321.88,173.02
             327.85,163.78 344.17,160.18 354.00,156.00 Z
           M 207.00,217.00
           C 205.79,211.28 201.51,201.11 198.51,196.04
             192.45,185.78 186.47,180.29 191.11,167.00
             196.33,152.03 215.07,147.05 227.71,155.98
             236.00,161.84 244.22,178.55 247.78,188.00
             249.71,193.12 250.46,193.22 251.00,199.00
             260.80,194.00 275.67,182.15 285.99,181.18
             306.55,179.26 318.37,200.00 309.05,216.00
             304.19,224.33 290.39,231.44 282.00,236.71
             279.08,238.55 272.58,241.12 271.32,244.19
             270.03,247.34 273.33,253.75 274.39,257.00
             277.86,267.72 284.21,277.31 283.73,289.06
             282.94,308.33 258.42,317.58 244.18,305.45
             238.74,300.81 238.14,296.04 235.83,290.00
             235.83,290.00 225.00,260.00 225.00,260.00
             217.97,264.63 202.31,272.52 194.09,272.85
             176.89,273.53 165.06,255.45 172.27,239.92
             176.75,230.28 185.27,227.28 194.04,222.63
             199.31,219.84 200.88,218.15 207.00,217.00 Z" />
</svg>
