<?xml version="1.0" encoding="UTF-8" standalone="no"?>
<!DOCTYPE svg PUBLIC "-//W3C//DTD SVG 20010904//EN"
              "http://www.w3.org/TR/2001/REC-SVG-20010904/DTD/svg10.dtd">

<svg xmlns="http://www.w3.org/2000/svg"
     width="1.66667in" height="1.66667in"
     viewBox="0 0 500 500">
  <path id="purple"
        fill="#680073" stroke="none" stroke-width="1"
        d="M 10.00,250.00
           C 5.57,246.35 6.14,237.37 5.21,232.00
             5.21,232.00 2.83,207.00 2.83,207.00
             2.83,207.00 0.88,197.00 0.88,197.00
             0.88,197.00 0.00,179.00 0.00,179.00
             -0.02,164.08 -1.36,151.16 4.47,137.00
             7.07,130.69 17.26,117.29 21.95,112.00
             27.39,105.86 31.44,100.81 38.09,95.74
             43.34,91.74 45.12,91.84 49.72,89.17
             55.84,85.61 68.78,78.14 75.00,75.81
             75.00,75.81 95.00,70.61 95.00,70.61
             95.00,70.61 105.00,67.56 105.00,67.56
             105.00,67.56 132.00,67.00 132.00,67.00
             141.06,67.11 142.29,68.73 150.00,70.38
             150.00,70.38 158.00,71.71 158.00,71.71
             174.78,75.41 184.25,81.39 197.99,91.23
             210.53,100.21 220.39,108.45 219.99,125.00
             219.60,140.94 204.24,151.84 189.00,149.81
             179.96,148.61 174.15,141.68 167.70,136.30
             163.09,132.45 160.94,133.07 158.00,127.00
             158.00,127.00 129.00,121.59 129.00,121.59
             118.69,121.08 104.59,122.10 95.17,126.37
             95.17,126.37 87.00,130.92 87.00,130.92
             76.09,136.10 70.44,138.26 62.64,148.13
             54.53,158.40 52.84,157.10 53.00,171.00
             53.00,171.00 56.58,204.00 56.58,204.00
             56.58,204.00 58.21,224.00 58.21,224.00
             58.21,224.00 60.32,232.00 60.32,232.00
             60.32,232.00 65.30,255.00 65.30,255.00
             65.30,255.00 70.28,266.00 70.28,266.00
             70.28,266.00 72.67,273.00 72.67,273.00
             72.67,273.00 86.56,301.91 86.56,301.91
             86.56,301.91 100.57,322.04 100.57,322.04
             107.09,331.79 112.41,337.19 119.68,346.00
             127.01,354.89 132.02,362.66 143.00,368.02
             147.71,370.32 159.39,373.05 164.58,373.05
             178.87,373.07 204.37,362.36 215.83,354.06
             215.83,354.06 226.55,345.03 226.55,345.03
             236.31,336.48 234.79,333.40 239.38,328.13
             245.42,321.20 253.10,318.80 262.00,319.01
             275.72,319.35 286.70,331.52 286.98,345.00
             287.08,349.64 287.12,355.17 283.00,358.00
             282.08,369.05 270.26,378.42 262.88,385.59
             262.88,385.59 238.83,404.61 238.83,404.61
             238.83,404.61 227.00,410.55 227.00,410.55
             227.00,410.55 219.00,414.80 219.00,414.80
             219.00,414.80 204.00,419.07 204.00,419.07
             204.00,419.07 192.00,423.49 192.00,423.49
             186.44,425.09 171.95,427.06 166.00,426.91
             166.00,426.91 141.00,424.62 141.00,424.62
             141.00,424.62 133.00,421.86 133.00,421.86
             115.78,415.77 112.20,413.87 97.72,402.51
             97.72,402.51 91.44,397.53 91.44,397.53
             86.55,392.84 83.23,387.44 79.11,382.21
             79.11,382.21 73.13,375.90 73.13,375.90
             73.13,375.90 61.08,360.04 61.08,360.04
             48.22,342.84 38.02,327.50 28.92,307.96
             28.92,307.96 22.29,292.00 22.29,292.00
             17.97,281.48 15.19,278.19 12.13,266.00
             10.80,260.73 8.91,255.41 10.00,250.00 Z
           M 256.00,176.00
           C 256.00,176.00 246.41,152.00 246.41,152.00
             246.41,152.00 241.95,143.00 241.95,143.00
             241.95,143.00 236.81,129.00 236.81,129.00
             233.28,120.39 226.83,110.37 227.36,101.00
             228.31,84.14 239.38,74.61 256.00,75.01
             262.70,75.18 268.04,77.62 272.96,82.18
             278.77,87.57 279.74,92.27 282.63,99.00
             282.63,99.00 286.76,107.00 286.76,107.00
             286.76,107.00 291.96,121.00 291.96,121.00
             291.96,121.00 310.00,165.00 310.00,165.00
             319.59,164.97 335.65,160.97 345.00,158.04
             345.00,158.04 357.00,154.00 357.00,154.00
             354.48,150.02 344.62,129.07 343.44,125.00
             342.94,121.78 342.74,115.26 343.44,112.00
             345.82,93.86 367.56,84.96 382.96,93.71
             391.18,98.38 395.45,108.65 399.21,116.83
             402.06,123.05 408.64,136.94 410.00,143.00
             418.14,140.36 417.85,141.33 425.00,140.04
             435.25,138.18 443.60,135.77 452.99,142.64
             466.88,152.80 468.07,172.71 455.70,184.54
             450.17,189.82 446.17,190.65 439.00,192.00
             439.00,192.00 446.00,214.00 446.00,214.00
             458.84,207.58 475.09,201.88 487.98,211.30
             491.88,214.15 494.98,218.44 496.58,223.00
             497.89,226.73 498.08,231.08 497.99,235.00
             497.69,247.18 489.80,254.98 479.00,259.46
             475.42,260.94 464.90,263.43 463.77,267.14
             462.68,270.74 467.74,285.18 469.35,289.00
             473.86,299.73 478.77,317.94 473.65,328.96
             470.40,335.98 465.25,340.05 458.00,342.35
             455.90,343.01 452.05,344.36 450.01,344.50
             439.38,345.23 426.43,337.07 420.52,328.56
             415.00,320.61 417.80,311.16 417.11,306.00
             416.01,297.77 412.19,290.71 412.00,282.00
             412.00,282.00 382.00,287.46 382.00,287.46
             382.00,287.46 364.00,291.00 364.00,291.00
             364.00,291.00 369.31,305.00 369.31,305.00
             376.33,322.36 391.79,346.73 372.15,361.96
             369.92,363.69 367.64,365.42 364.99,366.44
             361.13,367.92 357.08,368.08 353.00,367.99
             341.61,367.71 333.66,359.88 329.04,350.00
             329.04,350.00 325.69,341.00 325.69,341.00
             325.69,341.00 321.33,332.00 321.33,332.00
             321.33,332.00 316.05,318.00 316.05,318.00
             314.29,313.40 311.95,303.76 307.96,301.13
             305.22,298.98 291.95,300.94 288.00,301.13
             279.21,302.24 254.65,302.43 247.00,299.53
             229.83,293.02 223.80,270.67 235.73,256.75
             237.86,254.27 239.12,252.58 242.04,250.91
             251.86,245.32 262.55,247.77 273.00,247.99
             278.48,248.10 283.57,247.65 289.00,247.00
             289.00,247.00 285.23,236.28 285.23,236.28
             285.23,236.28 280.00,225.00 280.00,225.00
             271.68,228.90 269.81,228.27 262.00,230.74
             262.00,230.74 229.04,244.27 229.04,244.27
             224.76,246.83 222.48,251.46 218.91,254.79
             212.07,261.19 204.12,262.93 195.00,261.42
             183.72,259.55 173.54,248.48 173.04,237.00
             172.65,228.19 176.50,220.89 181.76,214.04
             188.80,204.85 194.51,202.31 204.00,196.91
             216.12,190.01 225.90,185.99 239.00,181.46
             239.00,181.46 256.00,176.00 256.00,176.00 Z
           M 384.00,202.00
           C 384.00,202.00 370.00,205.77 370.00,205.77
             370.00,205.77 361.00,209.56 361.00,209.56
             361.00,209.56 336.00,216.00 336.00,216.00
             336.00,216.00 345.00,240.00 345.00,240.00
             345.00,240.00 359.00,237.62 359.00,237.62
             359.00,237.62 373.00,233.46 373.00,233.46
             373.00,233.46 395.00,231.00 395.00,231.00
             392.77,219.92 391.85,220.90 387.69,211.72
             387.69,211.72 384.00,202.00 384.00,202.00 Z" />
</svg>
