<?xml version="1.0" encoding="UTF-8" standalone="no"?>
<!DOCTYPE svg PUBLIC "-//W3C//DTD SVG 20010904//EN"
              "http://www.w3.org/TR/2001/REC-SVG-20010904/DTD/svg10.dtd">

<svg xmlns="http://www.w3.org/2000/svg"
     width="1.66667in" height="1.66667in"
     viewBox="0 0 500 500">
  <path id="green"
        fill="#00de79" stroke="black" stroke-width="1"
        d="M 358.00,4.42
           C 364.09,3.72 374.31,3.87 379.83,6.52
             390.81,11.81 393.79,26.56 387.97,36.70
             380.52,49.65 367.14,45.89 355.00,47.17
             343.66,48.37 325.99,51.40 316.00,56.63
             310.34,59.60 308.13,62.36 303.42,65.84
             297.19,70.47 285.02,78.31 285.91,87.00
             286.84,96.09 295.94,107.81 301.92,114.45
             320.31,134.89 324.25,137.04 347.17,151.17
             347.17,151.17 399.00,181.69 399.00,181.69
             399.00,181.69 430.83,205.24 430.83,205.24
             447.34,217.39 456.73,221.69 471.63,238.15
             479.48,246.82 483.44,254.94 488.93,265.00
             493.94,274.20 494.57,277.95 496.60,288.00
             499.70,303.38 500.31,307.52 495.86,323.00
             494.55,327.55 492.03,334.10 489.39,337.98
             487.22,341.18 485.79,342.04 483.37,344.58
             472.18,356.32 472.04,356.97 457.00,363.28
             449.11,366.60 446.28,368.64 437.17,368.77
             437.17,368.77 420.00,368.16 420.00,368.16
             410.75,367.39 406.88,369.00 399.51,361.32
             392.40,353.91 392.58,338.19 400.11,331.26
             405.24,326.54 410.43,326.01 417.00,326.00
             417.00,326.00 422.00,326.00 422.00,326.00
             426.35,326.03 431.96,326.78 436.00,325.40
             438.56,324.53 446.89,320.88 448.82,319.28
             456.72,312.72 456.41,303.98 454.35,295.00
             450.58,278.60 439.06,264.78 426.00,254.65
             426.00,254.65 398.11,234.66 398.11,234.66
             398.11,234.66 392.78,230.05 392.78,230.05
             392.78,230.05 365.72,211.62 365.72,211.62
             365.72,211.62 354.09,205.43 354.09,205.43
             354.09,205.43 318.72,183.85 318.72,183.85
             318.72,183.85 306.00,176.32 306.00,176.32
             292.40,167.13 275.37,150.91 265.25,137.96
             252.10,121.13 240.63,100.12 243.18,78.01
             245.72,56.04 264.14,41.27 280.83,29.02
             289.46,22.69 290.68,20.47 301.00,16.12
             301.00,16.12 313.00,11.21 313.00,11.21
             313.00,11.21 347.00,5.17 347.00,5.17
             347.00,5.17 358.00,4.42 358.00,4.42 Z
           M 195.00,374.00
           C 198.02,371.52 200.18,372.20 204.00,371.25
             210.14,369.74 216.40,368.23 221.83,364.85
             221.83,364.85 252.83,339.58 252.83,339.58
             257.73,335.55 260.53,331.46 267.00,329.42
             279.26,325.55 293.43,333.69 294.69,346.72
             296.46,365.06 279.50,373.05 267.42,383.15
             267.42,383.15 254.58,394.37 254.58,394.37
             254.58,394.37 235.58,406.40 235.58,406.40
             223.70,412.36 206.32,415.93 193.00,415.42
             193.00,415.42 178.00,414.70 178.00,414.70
             170.20,413.59 160.69,409.85 153.00,407.57
             153.00,407.57 145.00,405.56 145.00,405.56
             134.37,402.41 123.45,396.04 114.00,390.41
             114.00,390.41 105.09,385.54 105.09,385.54
             85.29,373.13 69.42,356.31 55.16,337.99
             55.16,337.99 35.94,313.00 35.94,313.00
             26.98,298.99 20.88,284.34 14.74,269.00
             14.74,269.00 10.62,259.00 10.62,259.00
             10.62,259.00 6.61,243.00 6.61,243.00
             6.61,243.00 3.48,233.00 3.48,233.00
             1.99,225.75 0.01,203.63 0.00,196.00
             0.00,196.00 0.00,184.00 0.00,184.00
             0.02,172.88 2.53,167.10 6.21,157.00
             6.21,157.00 11.90,141.09 11.90,141.09
             15.87,132.70 31.52,111.46 38.30,105.47
             38.30,105.47 43.83,101.54 43.83,101.54
             43.83,101.54 50.04,96.38 50.04,96.38
             60.13,89.13 74.16,84.22 86.00,80.66
             86.00,80.66 96.00,77.53 96.00,77.53
             96.00,77.53 103.00,76.54 103.00,76.54
             103.00,76.54 111.91,74.52 111.91,74.52
             111.91,74.52 127.00,72.71 127.00,72.71
             133.30,71.73 143.23,69.47 149.43,70.05
             162.95,71.32 171.31,77.72 170.99,92.00
             170.51,112.52 152.32,112.29 137.00,114.05
             124.57,115.47 93.62,121.94 83.00,127.30
             73.76,131.96 65.89,139.07 59.32,147.00
             50.46,157.69 49.04,163.47 44.92,176.00
             44.07,178.60 42.55,182.44 42.21,185.00
             41.53,190.12 42.80,202.64 43.63,208.00
             45.47,219.86 47.53,233.62 51.36,245.00
             51.36,245.00 55.21,254.00 55.21,254.00
             58.88,263.40 64.92,278.76 70.30,287.00
             70.30,287.00 90.76,313.00 90.76,313.00
             99.77,324.05 106.90,334.49 119.04,342.82
             126.40,347.88 148.24,361.19 156.09,364.03
             156.09,364.03 183.00,371.50 183.00,371.50
             187.98,372.62 190.11,371.71 195.00,374.00 Z
           M 216.00,249.00
           C 216.00,249.00 202.00,243.90 202.00,243.90
             202.00,243.90 176.00,237.51 176.00,237.51
             176.00,237.51 151.00,233.11 151.00,233.11
             151.00,233.11 136.00,228.47 136.00,228.47
             122.63,224.94 107.58,221.69 101.05,208.00
             94.71,194.69 102.28,178.59 110.38,167.72
             117.70,157.89 133.01,142.72 143.01,135.51
             143.01,135.51 156.72,127.21 156.72,127.21
             159.61,125.38 160.52,124.24 164.00,122.55
             168.92,120.17 186.57,115.73 192.00,116.10
             213.38,117.57 227.19,142.83 207.91,157.52
             199.02,164.28 190.42,158.98 182.00,161.80
             174.23,164.40 175.02,165.65 170.79,169.03
             170.79,169.03 164.17,173.55 164.17,173.55
             159.03,177.83 154.41,183.00 150.00,188.00
             163.73,193.19 178.80,194.47 193.00,197.87
             197.82,199.02 205.77,199.08 209.00,203.00
             214.49,202.29 219.92,204.66 225.00,206.58
             240.58,212.44 254.46,224.81 257.59,242.00
             257.96,245.27 257.78,249.99 257.59,253.42
             257.77,258.04 257.27,264.70 255.67,269.00
             253.52,274.79 243.77,288.05 239.12,292.18
             233.80,296.91 218.72,306.70 212.00,309.67
             199.34,315.26 186.96,316.84 175.67,307.38
             173.51,305.57 171.19,303.84 169.60,301.48
             159.59,286.68 169.41,265.87 188.00,267.05
             192.43,267.34 194.27,269.00 197.00,268.52
             201.29,267.76 212.40,258.36 214.56,254.34
             215.52,252.57 215.67,250.93 216.00,249.00 Z
           M 41.00,409.70
           C 49.30,407.83 58.86,410.42 64.32,417.29
             73.74,429.16 67.17,446.53 53.00,450.96
             38.17,455.60 21.19,440.63 27.76,422.00
             29.96,415.79 35.21,412.25 41.00,409.70 Z" />
</svg>
