<?xml version="1.0" encoding="UTF-8" standalone="no"?>
<!DOCTYPE svg PUBLIC "-//W3C//DTD SVG 20010904//EN"
              "http://www.w3.org/TR/2001/REC-SVG-20010904/DTD/svg10.dtd">

<svg xmlns="http://www.w3.org/2000/svg"
     width="42.3334mm" height="42.3334mm"
     viewBox="0 0 500 500">
  <path id="white"
        fill="white" stroke="none" stroke-width="1"
        d="M 73.00,36.00
           C 77.42,34.65 81.10,31.26 85.00,28.78
             92.73,23.87 100.52,19.26 109.09,16.00
             123.12,10.65 150.98,5.08 166.01,5.05
             166.01,5.05 187.00,6.84 187.00,6.84
             187.00,6.84 207.00,8.29 207.00,8.29
             207.00,8.29 219.00,10.77 219.00,10.77
             219.00,10.77 227.00,12.17 227.00,12.17
             227.00,12.17 234.28,15.21 234.28,15.21
             234.28,15.21 241.83,16.95 241.83,16.95
             241.83,16.95 255.00,21.17 255.00,21.17
             255.00,21.17 266.28,26.24 266.28,26.24
             270.42,28.00 274.08,27.23 277.00,31.00
             282.87,30.99 290.03,35.68 295.00,38.75
             295.00,38.75 312.00,48.17 312.00,48.17
             312.00,48.17 321.99,54.71 321.99,54.71
             321.99,54.71 339.68,65.01 339.68,65.01
             339.68,65.01 363.42,82.09 363.42,82.09
             363.42,82.09 377.42,94.72 377.42,94.72
             377.42,94.72 387.25,103.04 387.25,103.04
             387.25,103.04 403.51,119.11 403.51,119.11
             403.51,119.11 423.62,139.80 423.62,139.80
             430.16,147.68 446.46,164.28 448.00,174.00
             453.29,175.92 456.28,183.04 459.22,187.61
             465.70,197.68 474.37,212.70 478.02,224.00
             478.02,224.00 479.96,232.96 479.96,232.96
             479.96,232.96 482.05,239.17 482.05,239.17
             482.05,239.17 486.96,259.00 486.96,259.00
             486.96,259.00 490.73,294.72 490.73,294.72
             490.73,294.72 489.68,311.00 489.68,311.00
             489.68,311.00 487.43,322.00 487.43,322.00
             487.43,322.00 486.56,331.99 486.56,331.99
             486.56,331.99 484.18,340.09 484.18,340.09
             481.80,349.30 480.43,354.80 476.54,363.72
             470.70,377.11 466.89,389.23 455.00,398.77
             454.39,398.80 454.30,398.18 452.78,398.77
             450.97,398.98 439.49,408.84 437.00,410.79
             421.89,422.62 404.71,431.42 387.00,438.64
             387.00,438.64 366.00,445.42 366.00,445.42
             366.00,445.42 346.00,450.69 346.00,450.69
             346.00,450.69 324.00,453.16 324.00,453.16
             324.00,453.16 312.00,454.83 312.00,454.83
             312.00,454.83 288.00,457.09 288.00,457.09
             288.00,457.09 273.00,459.71 273.00,459.71
             273.00,459.71 261.00,460.75 261.00,460.75
             244.81,463.45 228.52,466.88 212.00,467.00
             212.00,467.00 191.00,467.00 191.00,467.00
             191.00,467.00 165.00,469.49 165.00,469.49
             165.00,469.49 149.00,468.41 149.00,468.41
             133.34,465.96 120.41,455.62 116.16,440.00
             113.21,429.17 115.10,425.52 114.29,422.00
             114.29,422.00 103.72,395.00 103.72,395.00
             103.72,395.00 84.31,342.00 84.31,342.00
             84.31,342.00 71.97,315.00 71.97,315.00
             71.97,315.00 64.20,293.00 64.20,293.00
             64.20,293.00 57.95,272.00 57.95,272.00
             57.95,272.00 41.47,227.00 41.47,227.00
             41.47,227.00 35.92,212.00 35.92,212.00
             35.92,212.00 31.17,188.00 31.17,188.00
             31.17,188.00 29.57,172.00 29.57,172.00
             29.57,172.00 27.17,158.00 27.17,158.00
             27.17,158.00 25.83,140.00 25.83,140.00
             25.50,136.47 24.87,134.85 25.09,131.00
             25.65,121.16 31.21,94.95 35.31,86.00
             35.31,86.00 43.87,69.18 43.87,69.18
             43.97,67.76 43.49,67.18 43.00,66.00
             43.00,66.00 61.07,47.16 61.07,47.16
             61.07,47.16 73.00,36.00 73.00,36.00 Z
           M 210.00,383.00
           C 214.83,380.45 226.89,380.44 233.00,379.91
             238.86,379.41 239.77,378.02 244.00,377.18
             244.00,377.18 259.00,375.83 259.00,375.83
             259.00,375.83 270.00,374.55 270.00,374.55
             273.81,373.71 275.50,372.64 280.00,372.17
             280.00,372.17 299.00,370.85 299.00,370.85
             299.00,370.85 311.00,369.12 311.00,369.12
             311.00,369.12 327.00,367.56 327.00,367.56
             327.00,367.56 350.00,361.20 350.00,361.20
             362.60,357.48 362.20,358.78 373.95,351.17
             373.95,351.17 380.09,347.55 380.09,347.55
             383.81,346.14 388.96,346.49 394.30,339.70
             396.87,336.44 399.23,329.07 400.42,325.00
             403.89,313.20 405.14,303.32 405.00,291.00
             404.90,282.41 402.77,272.24 400.43,264.00
             398.69,257.91 397.68,251.87 395.13,246.00
             388.03,229.68 376.60,215.39 365.13,202.00
             347.93,181.92 324.53,158.35 303.00,142.91
             290.95,134.27 277.97,126.81 265.00,119.69
             247.36,110.00 248.78,109.72 229.00,102.57
             219.71,99.21 205.48,93.93 196.00,92.44
             196.00,92.44 184.00,91.83 184.00,91.83
             184.00,91.83 168.00,90.51 168.00,90.51
             149.58,91.69 136.97,94.47 122.04,106.00
             119.00,108.35 105.87,118.93 113.00,122.00
             113.00,122.00 112.33,126.83 112.33,126.83
             112.33,126.83 119.65,142.00 119.65,142.00
             119.65,142.00 125.70,158.00 125.70,158.00
             125.70,158.00 127.81,165.83 127.81,165.83
             127.81,165.83 130.75,172.04 130.75,172.04
             130.75,172.04 132.71,179.00 132.71,179.00
             132.71,179.00 141.49,202.00 141.49,202.00
             141.49,202.00 148.09,227.00 148.09,227.00
             148.09,227.00 155.92,256.00 155.92,256.00
             155.92,256.00 158.49,264.00 158.49,264.00
             158.49,264.00 167.68,299.00 167.68,299.00
             167.68,299.00 170.99,307.00 170.99,307.00
             170.99,307.00 173.34,316.72 173.34,316.72
             173.34,316.72 178.61,330.17 178.61,330.17
             178.61,330.17 181.64,342.00 181.64,342.00
             181.64,342.00 186.62,354.17 186.62,354.17
             186.62,354.17 188.83,363.91 188.83,363.91
             188.83,363.91 193.00,383.00 193.00,383.00
             198.88,381.63 204.48,379.93 210.00,383.00 Z" />
    <path id="black"
        fill="black" stroke="none" stroke-width="1"
        d="M 17.00,205.00
           C 14.77,199.72 13.15,186.29 12.21,180.00
             12.21,180.00 8.59,145.00 8.59,145.00
             8.91,136.78 14.11,114.13 16.92,106.00
             20.34,96.12 27.33,79.90 37.00,75.00
             37.00,75.00 30.82,90.00 30.82,90.00
             30.82,90.00 26.47,105.00 26.47,105.00
             26.47,105.00 24.72,116.00 24.72,116.00
             23.36,122.56 22.15,123.38 21.89,131.00
             21.58,139.95 23.51,148.23 24.76,157.00
             24.76,157.00 26.28,172.00 26.28,172.00
             26.28,172.00 28.33,181.00 28.33,181.00
             28.33,181.00 29.29,193.00 29.29,193.00
             29.29,193.00 32.55,207.00 32.55,207.00
             32.55,207.00 33.72,215.00 33.72,215.00
             33.72,215.00 40.68,232.00 40.68,232.00
             40.68,232.00 42.83,239.91 42.83,239.91
             42.83,239.91 45.35,245.17 45.35,245.17
             45.35,245.17 47.64,253.00 47.64,253.00
             47.64,253.00 56.68,276.00 56.68,276.00
             56.68,276.00 61.70,293.99 61.70,293.99
             61.70,293.99 64.90,301.17 64.90,301.17
             64.90,301.17 67.25,310.00 67.25,310.00
             67.25,310.00 80.15,338.00 80.15,338.00
             80.15,338.00 82.60,346.00 82.60,346.00
             82.60,346.00 85.53,353.00 85.53,353.00
             85.53,353.00 95.06,381.00 95.06,381.00
             95.06,381.00 102.71,398.28 102.71,398.28
             102.71,398.28 106.70,410.00 106.70,410.00
             106.70,410.00 110.81,420.00 110.81,420.00
             110.81,420.00 111.99,436.17 111.99,436.17
             113.60,445.62 120.70,456.55 128.17,462.41
             139.31,471.15 155.04,474.23 169.00,472.83
             177.02,472.03 176.15,470.18 188.00,469.60
             188.00,469.60 213.00,469.60 213.00,469.60
             213.00,469.60 235.00,467.88 235.00,467.88
             235.00,467.88 242.00,466.51 242.00,466.51
             242.00,466.51 253.00,465.56 253.00,465.56
             253.00,465.56 266.00,462.79 266.00,462.79
             266.00,462.79 278.00,461.71 278.00,461.71
             278.00,461.71 297.00,458.37 297.00,458.37
             297.00,458.37 331.91,455.48 331.91,455.48
             345.97,453.47 359.35,450.01 373.00,445.97
             373.00,445.97 380.00,444.14 380.00,444.14
             380.00,444.14 386.00,441.45 386.00,441.45
             386.00,441.45 401.00,435.70 401.00,435.70
             401.00,435.70 410.00,430.56 410.00,430.56
             410.00,430.56 418.00,426.63 418.00,426.63
             418.00,426.63 432.04,417.09 432.04,417.09
             432.04,417.09 444.74,408.33 444.74,408.33
             447.59,406.12 448.08,404.33 452.00,405.00
             452.00,405.00 432.55,424.00 432.55,424.00
             432.55,424.00 416.29,434.55 416.29,434.55
             416.29,434.55 409.71,439.62 409.71,439.62
             409.71,439.62 387.00,452.12 387.00,452.12
             387.00,452.12 373.17,456.34 373.17,456.34
             373.17,456.34 365.71,459.66 365.71,459.66
             365.71,459.66 331.00,468.90 331.00,468.90
             331.00,468.90 316.00,470.16 316.00,470.16
             316.00,470.16 295.00,472.83 295.00,472.83
             295.00,472.83 276.00,474.12 276.00,474.12
             276.00,474.12 267.00,476.37 267.00,476.37
             267.00,476.37 250.00,478.26 250.00,478.26
             250.00,478.26 240.00,480.71 240.00,480.71
             240.00,480.71 220.04,482.56 220.04,482.56
             220.04,482.56 203.00,484.76 203.00,484.76
             203.00,484.76 175.00,484.76 175.00,484.76
             160.55,485.28 162.52,487.92 151.00,488.25
             126.84,488.94 110.03,480.55 100.61,457.58
             97.32,449.55 99.09,445.32 98.33,438.00
             97.97,434.52 95.21,429.26 93.86,425.83
             93.86,425.83 90.76,416.00 90.76,416.00
             90.76,416.00 87.57,409.00 87.57,409.00
             87.57,409.00 81.98,396.00 81.98,396.00
             81.98,396.00 79.94,389.42 79.94,389.42
             79.94,389.42 75.35,378.72 75.35,378.72
             75.35,378.72 73.48,371.04 73.48,371.04
             73.48,371.04 70.65,364.83 70.65,364.83
             70.65,364.83 68.71,358.00 68.71,358.00
             66.46,351.22 61.37,342.60 61.00,336.00
             61.00,336.00 58.00,336.00 58.00,336.00
             58.00,336.00 54.65,325.83 54.65,325.83
             54.65,325.83 52.59,318.17 52.59,318.17
             52.59,318.17 49.97,312.91 49.97,312.91
             49.97,312.91 46.97,304.00 46.97,304.00
             46.97,304.00 44.99,295.00 44.99,295.00
             44.99,295.00 42.25,289.00 42.25,289.00
             42.25,289.00 38.52,278.00 38.52,278.00
             38.52,278.00 35.35,270.72 35.35,270.72
             35.35,270.72 33.32,263.04 33.32,263.04
             33.32,263.04 30.50,256.83 30.50,256.83
             30.50,256.83 28.36,249.00 28.36,249.00
             28.36,249.00 21.59,233.00 21.59,233.00
             21.59,233.00 15.00,205.00 15.00,205.00
             15.00,205.00 17.00,205.00 17.00,205.00 Z
           M 114.00,121.00
           C 116.05,111.94 125.54,106.83 133.00,102.34
             141.93,96.97 141.97,98.31 151.00,95.91
             154.52,94.98 156.12,94.02 160.00,93.57
             173.48,92.01 200.34,94.99 213.00,99.83
             213.00,99.83 242.00,110.39 242.00,110.39
             242.00,110.39 261.00,120.70 261.00,120.70
             291.32,137.25 306.42,147.69 331.61,171.35
             331.61,171.35 356.30,195.37 356.30,195.37
             356.30,195.37 360.48,201.00 360.48,201.00
             360.48,201.00 371.69,214.00 371.69,214.00
             379.91,224.12 390.96,241.50 394.39,254.00
             394.39,254.00 401.07,278.00 401.07,278.00
             403.50,291.88 402.25,306.54 398.64,320.00
             395.26,332.58 394.78,338.73 382.00,345.00
             385.03,338.98 384.92,336.40 386.43,330.00
             388.88,319.64 391.27,306.12 387.00,296.00
             388.67,290.97 384.54,280.33 383.08,275.00
             383.08,275.00 380.55,265.17 380.55,265.17
             377.09,256.47 366.22,238.55 360.38,231.25
             360.38,231.25 344.33,212.29 344.33,212.29
             340.05,206.94 329.07,199.34 328.00,193.00
             319.80,190.95 312.12,180.78 306.03,174.86
             297.64,166.71 286.53,160.12 276.96,153.28
             276.96,153.28 253.00,138.86 253.00,138.86
             253.00,138.86 230.59,126.14 230.59,126.14
             230.59,126.14 212.28,119.70 212.28,119.70
             212.28,119.70 196.00,113.43 196.00,113.43
             196.00,113.43 183.00,110.19 183.00,110.19
             174.92,108.80 152.96,107.96 144.91,109.08
             142.03,109.48 128.36,113.18 126.17,114.29
             126.17,114.29 114.00,121.00 114.00,121.00 Z" />
</svg>
