<?xml version="1.0" encoding="UTF-8" standalone="no"?>
<!DOCTYPE svg PUBLIC "-//W3C//DTD SVG 20010904//EN"
              "http://www.w3.org/TR/2001/REC-SVG-20010904/DTD/svg10.dtd">

<svg xmlns="http://www.w3.org/2000/svg"
     width="2in" height="2in"
     viewBox="0 0 600 600">
  <path id="env"
        fill="white" stroke="none" stroke-width="1"
        d="M 133.00,58.00
           C 134.69,53.52 145.63,47.26 149.96,44.54
             149.96,44.54 167.09,32.67 167.09,32.67
             167.09,32.67 197.00,20.45 197.00,20.45
             197.00,20.45 209.00,15.95 209.00,15.95
             209.00,15.95 216.00,12.76 216.00,12.76
             223.85,10.06 254.36,3.86 262.83,3.27
             262.83,3.27 302.00,5.40 302.00,5.40
             302.00,5.40 308.00,6.75 308.00,6.75
             308.00,6.75 325.00,8.12 325.00,8.12
             331.72,9.50 345.52,14.71 351.96,17.54
             354.62,18.71 355.82,20.30 358.17,21.82
             358.17,21.82 369.72,27.60 369.72,27.60
             369.72,27.60 382.04,37.37 382.04,37.37
             391.91,43.80 402.15,50.96 409.50,60.29
             416.01,68.54 420.20,78.39 425.14,87.57
             428.61,94.01 434.57,101.67 435.00,109.00
             435.00,109.00 438.00,109.00 438.00,109.00
             438.00,109.00 442.83,126.00 442.83,126.00
             443.54,129.07 445.45,131.48 442.83,134.00
             444.17,145.54 438.95,144.42 435.00,151.00
             426.30,152.23 418.36,154.92 410.00,157.34
             399.53,160.36 374.25,166.40 364.00,166.79
             352.11,167.23 345.20,161.62 337.79,153.16
             337.79,153.16 333.34,147.91 333.34,147.91
             333.34,147.91 330.12,141.17 330.12,141.17
             330.12,141.17 321.25,128.12 321.25,128.12
             314.68,120.85 308.94,120.35 301.04,116.53
             301.04,116.53 290.00,110.92 290.00,110.92
             285.42,108.87 285.92,109.56 282.00,108.27
             269.38,104.12 266.22,103.35 253.00,101.88
             246.59,101.17 236.38,101.64 231.00,98.00
             226.77,101.60 224.81,100.48 220.17,102.31
             217.57,103.34 205.30,111.35 203.29,113.18
             198.49,117.56 190.18,126.75 187.22,132.42
             187.22,132.42 183.36,146.00 183.36,146.00
             181.72,151.60 180.08,151.86 179.15,154.80
             179.15,154.80 177.31,166.00 177.31,166.00
             175.37,173.23 171.07,180.43 171.08,188.00
             171.08,192.91 173.39,197.19 174.00,202.00
             174.00,202.00 182.99,200.37 182.99,200.37
             182.99,200.37 190.17,198.23 190.17,198.23
             190.17,198.23 211.00,195.03 211.00,195.03
             211.00,195.03 234.96,188.49 234.96,188.49
             234.96,188.49 258.00,186.03 258.00,186.03
             258.00,186.03 267.00,184.02 267.00,184.02
             267.00,184.02 294.00,182.18 294.00,182.18
             294.00,182.18 307.00,180.28 307.00,180.28
             307.00,180.28 314.00,179.67 314.00,179.67
             314.00,179.67 323.00,176.94 323.00,176.94
             330.66,175.37 344.17,173.95 352.00,174.00
             352.00,174.00 391.01,175.64 391.01,175.64
             391.01,175.64 401.27,178.30 401.27,178.30
             407.95,179.96 416.86,180.18 422.83,183.37
             433.15,188.89 444.06,201.30 451.63,210.46
             460.21,220.87 465.55,232.74 470.92,244.91
             470.92,244.91 474.47,252.04 474.47,252.04
             474.47,252.04 481.83,278.91 481.83,278.91
             481.83,278.91 485.38,288.83 485.38,288.83
             485.38,288.83 488.14,294.09 488.14,294.09
             488.14,294.09 491.05,304.00 491.05,304.00
             491.05,304.00 501.72,327.00 501.72,327.00
             501.72,327.00 507.43,340.83 507.43,340.83
             507.43,340.83 511.22,346.46 511.22,346.46
             511.22,346.46 513.68,352.00 513.68,352.00
             519.55,362.24 525.05,366.26 530.03,379.00
             532.81,386.13 533.24,393.88 533.84,401.41
             533.84,401.41 534.91,409.00 534.91,409.00
             535.44,416.42 534.03,429.12 531.21,435.99
             531.21,435.99 527.67,442.09 527.67,442.09
             526.23,445.26 525.85,447.55 523.85,450.83
             517.16,461.84 509.03,472.23 500.21,481.58
             500.21,481.58 495.60,487.28 495.60,487.28
             495.60,487.28 485.50,496.92 485.50,496.92
             485.50,496.92 471.09,510.41 471.09,510.41
             466.00,514.48 463.98,518.09 457.00,519.00
             455.43,523.53 453.15,523.56 449.42,526.28
             441.06,532.40 436.58,535.24 427.00,539.13
             427.00,539.13 412.35,546.94 412.35,546.94
             412.35,546.94 381.98,562.04 381.98,562.04
             381.98,562.04 375.72,565.81 375.72,565.81
             375.72,565.81 370.00,567.61 370.00,567.61
             370.00,567.61 362.00,571.17 362.00,571.17
             362.00,571.17 350.09,574.09 350.09,574.09
             350.09,574.09 329.15,582.31 329.15,582.31
             326.10,583.66 325.65,584.41 321.99,585.56
             311.52,588.84 292.18,590.08 281.00,590.00
             281.00,590.00 250.00,587.83 250.00,587.83
             250.00,587.83 239.17,585.94 239.17,585.94
             219.27,584.14 197.57,583.05 179.00,574.99
             172.69,572.25 163.59,565.82 157.87,561.76
             157.87,561.76 145.52,553.49 145.52,553.49
             145.52,553.49 138.83,547.32 138.83,547.32
             138.83,547.32 133.14,543.21 133.14,543.21
             123.37,533.91 112.45,519.36 105.25,507.91
             105.25,507.91 101.11,499.28 101.11,499.28
             101.11,499.28 92.25,486.83 92.25,486.83
             92.25,486.83 83.84,472.00 83.84,472.00
             83.84,472.00 73.56,449.00 73.56,449.00
             73.56,449.00 70.81,443.83 70.81,443.83
             70.81,443.83 67.66,433.00 67.66,433.00
             67.66,433.00 62.76,422.00 62.76,422.00
             62.76,422.00 60.33,414.01 60.33,414.01
             58.96,410.60 57.91,409.92 56.82,405.91
             56.82,405.91 52.61,388.00 52.61,388.00
             52.61,388.00 48.46,374.00 48.46,374.00
             47.06,366.15 46.97,358.24 43.00,351.00
             44.18,346.75 42.88,342.28 42.39,337.99
             42.39,337.99 41.30,315.83 41.30,315.83
             41.30,315.83 43.59,289.00 43.59,289.00
             43.59,289.00 49.11,270.59 49.11,270.59
             49.11,270.59 47.41,261.00 47.41,261.00
             47.41,261.00 45.80,238.00 45.80,238.00
             44.37,215.49 46.01,223.50 46.83,206.00
             46.83,206.00 46.83,197.00 46.83,197.00
             46.83,197.00 49.55,177.01 49.55,177.01
             50.28,173.28 49.68,171.18 52.00,168.00
             52.00,168.00 50.00,166.00 50.00,166.00
             52.80,161.09 52.03,159.74 54.00,155.00
             54.00,155.00 59.36,143.91 59.36,143.91
             62.93,135.20 64.18,129.07 69.37,120.18
             71.55,116.46 73.78,115.73 76.22,112.69
             76.22,112.69 90.92,94.57 90.92,94.57
             90.92,94.57 100.16,84.46 100.16,84.46
             107.75,75.38 112.02,72.54 120.96,65.20
             125.50,61.47 126.91,58.79 133.00,58.00 Z
           M 237.00,277.10
           C 232.74,279.50 227.95,280.80 223.00,280.84
             214.49,280.89 213.93,282.92 206.91,286.09
             206.91,286.09 197.00,290.27 197.00,290.27
             194.09,291.90 192.10,293.91 189.61,296.02
             178.55,305.44 176.17,308.86 170.07,322.00
             170.07,322.00 164.35,335.00 164.35,335.00
             163.16,341.15 167.45,352.21 171.56,356.55
             178.30,363.68 185.46,365.59 194.00,368.71
             194.00,368.71 203.00,372.58 203.00,372.58
             203.00,372.58 214.72,376.98 214.72,376.98
             217.40,378.19 219.14,378.21 222.00,380.00
             228.38,383.98 235.19,393.42 236.00,401.00
             242.08,404.45 241.42,410.83 243.64,417.00
             243.64,417.00 252.61,438.07 252.61,438.07
             258.00,448.85 264.82,459.73 279.00,456.54
             279.00,456.54 303.00,450.00 303.00,450.00
             303.00,450.00 302.00,444.00 302.00,444.00
             302.00,444.00 299.00,444.00 299.00,444.00
             297.39,426.67 274.36,405.95 289.63,387.01
             291.80,384.33 294.04,382.18 297.00,380.39
             303.87,376.21 307.37,375.25 315.00,373.37
             319.63,372.24 324.23,372.02 328.00,369.00
             335.52,373.10 348.98,361.15 347.46,353.00
             346.29,346.80 342.26,341.79 340.08,336.00
             340.08,336.00 337.99,329.09 337.99,329.09
             337.99,329.09 331.34,314.46 331.34,314.46
             331.34,314.46 327.34,307.91 327.34,307.91
             324.32,301.83 321.90,295.43 317.26,290.29
             315.97,288.86 309.44,283.10 307.91,282.28
             299.39,277.75 285.41,278.78 276.00,279.65
             276.00,279.65 266.00,280.65 266.00,280.65
             260.80,280.54 256.27,277.61 252.00,277.10
             247.57,276.80 240.16,278.30 237.00,277.10 Z" />
</svg>
