<?xml version="1.0" encoding="UTF-8" standalone="no"?>
<!DOCTYPE svg PUBLIC "-//W3C//DTD SVG 20010904//EN"
              "http://www.w3.org/TR/2001/REC-SVG-20010904/DTD/svg10.dtd">

<svg xmlns="http://www.w3.org/2000/svg"
     width="2in" height="2in"
     viewBox="0 0 600 600">
  <path id="purple"
        fill="#8206aa" stroke="none" stroke-width="1"
        d="M 20.00,221.00
           C 25.04,214.81 23.24,209.00 32.67,200.00
             36.88,195.97 44.46,189.73 49.39,186.69
             49.39,186.69 58.01,182.17 58.01,182.17
             64.04,178.45 69.46,175.09 76.00,172.24
             76.00,172.24 91.83,166.68 91.83,166.68
             100.34,163.18 105.87,157.66 116.00,154.36
             116.00,154.36 128.00,151.34 128.00,151.34
             128.00,151.34 143.00,146.87 143.00,146.87
             143.00,146.87 154.91,144.02 154.91,144.02
             154.91,144.02 162.04,140.71 162.04,140.71
             162.04,140.71 170.00,138.29 170.00,138.29
             170.00,138.29 188.00,131.54 188.00,131.54
             188.00,131.54 200.96,128.31 200.96,128.31
             200.96,128.31 209.04,125.38 209.04,125.38
             209.04,125.38 231.91,119.91 231.91,119.91
             231.91,119.91 241.00,116.88 241.00,116.88
             241.00,116.88 275.00,109.22 275.00,109.22
             275.00,109.22 285.00,107.73 285.00,107.73
             285.00,107.73 293.96,105.65 293.96,105.65
             293.96,105.65 300.17,105.01 300.17,105.01
             300.17,105.01 309.00,102.56 309.00,102.56
             309.00,102.56 319.00,101.71 319.00,101.71
             319.00,101.71 345.00,97.70 345.00,97.70
             348.72,97.08 350.60,96.02 354.00,94.96
             354.00,94.96 372.00,89.35 372.00,89.35
             372.00,89.35 386.00,83.43 386.00,83.43
             386.00,83.43 394.91,80.91 394.91,80.91
             408.52,76.86 409.51,76.27 424.00,75.74
             428.39,75.58 433.69,76.13 438.00,77.00
             455.86,80.62 462.06,88.62 471.71,102.87
             471.71,102.87 477.33,111.00 477.33,111.00
             477.33,111.00 480.80,118.72 480.80,118.72
             480.80,118.72 494.74,145.00 494.74,145.00
             494.74,145.00 502.69,162.00 502.69,162.00
             502.69,162.00 506.81,170.00 506.81,170.00
             506.81,170.00 510.57,178.96 510.57,178.96
             510.57,178.96 520.84,197.00 520.84,197.00
             520.84,197.00 526.58,210.09 526.58,210.09
             526.58,210.09 537.25,233.00 537.25,233.00
             537.25,233.00 540.46,242.00 540.46,242.00
             540.46,242.00 551.79,268.00 551.79,268.00
             551.79,268.00 554.39,278.00 554.39,278.00
             554.39,278.00 558.40,289.83 558.40,289.83
             558.40,289.83 561.05,295.09 561.05,295.09
             561.05,295.09 563.81,303.00 563.81,303.00
             563.81,303.00 568.83,315.00 568.83,315.00
             568.83,315.00 576.96,339.00 576.96,339.00
             576.96,339.00 583.32,358.09 583.32,358.09
             583.32,358.09 587.47,376.00 587.47,376.00
             587.47,376.00 590.90,387.17 590.90,387.17
             592.14,392.18 595.09,413.84 594.98,419.00
             594.88,423.28 594.12,431.02 592.37,434.83
             587.71,444.96 575.96,452.87 567.32,459.42
             567.32,459.42 561.82,463.78 561.82,463.78
             561.82,463.78 542.28,474.63 542.28,474.63
             542.28,474.63 524.00,488.45 524.00,488.45
             524.00,488.45 509.00,498.59 509.00,498.59
             496.62,506.42 484.97,515.62 471.00,520.56
             458.61,524.94 447.78,526.32 435.00,528.29
             435.00,528.29 424.00,530.48 424.00,530.48
             424.00,530.48 401.00,533.88 401.00,533.88
             401.00,533.88 373.91,541.18 373.91,541.18
             373.91,541.18 346.00,547.50 346.00,547.50
             346.00,547.50 328.00,552.00 328.00,552.00
             308.51,556.02 287.89,557.75 268.00,557.99
             268.00,557.99 246.00,557.34 246.00,557.34
             246.00,557.34 234.00,557.34 234.00,557.34
             234.00,557.34 226.00,557.34 226.00,557.34
             226.00,557.34 218.00,557.34 218.00,557.34
             218.00,557.34 212.00,557.34 212.00,557.34
             212.00,557.34 187.00,555.83 187.00,555.83
             187.00,555.83 176.42,553.78 176.42,553.78
             166.28,552.30 155.82,553.31 146.00,549.67
             130.31,543.86 126.91,536.18 118.65,522.99
             118.65,522.99 97.04,484.00 97.04,484.00
             97.04,484.00 92.78,474.00 92.78,474.00
             92.78,474.00 88.58,466.00 88.58,466.00
             88.58,466.00 75.28,431.00 75.28,431.00
             75.28,431.00 69.98,411.09 69.98,411.09
             67.65,405.63 61.28,405.09 58.38,394.96
             55.71,385.60 56.02,381.12 54.72,372.00
             54.72,372.00 52.36,362.00 52.36,362.00
             52.36,362.00 50.56,349.00 50.56,349.00
             50.56,349.00 48.46,339.00 48.46,339.00
             48.46,339.00 45.90,324.09 45.90,324.09
             45.22,321.76 43.06,316.14 41.49,314.49
             39.03,311.91 33.90,311.08 30.83,303.00
             30.83,303.00 22.17,271.04 22.17,271.04
             19.68,261.87 16.94,257.24 17.23,246.96
             17.23,246.96 18.17,232.00 18.17,232.00
             18.65,227.58 20.15,225.51 20.00,221.00 Z
           M 467.00,178.00
           C 465.89,170.31 459.37,160.12 455.71,153.00
             452.21,146.20 446.45,132.94 442.36,127.58
             438.06,121.92 437.58,116.99 430.00,114.79
             424.12,113.08 408.06,115.80 402.17,117.95
             402.17,117.95 395.96,121.03 395.96,121.03
             395.96,121.03 387.00,123.95 387.00,123.95
             387.00,123.95 376.96,128.38 376.96,128.38
             376.96,128.38 356.04,133.58 356.04,133.58
             356.04,133.58 349.83,135.54 349.83,135.54
             349.83,135.54 304.00,142.11 304.00,142.11
             304.00,142.11 291.00,145.54 291.00,145.54
             291.00,145.54 270.04,148.62 270.04,148.62
             270.04,148.62 257.00,152.53 257.00,152.53
             257.00,152.53 239.09,156.79 239.09,156.79
             239.09,156.79 227.00,160.53 227.00,160.53
             227.00,160.53 208.17,165.05 208.17,165.05
             208.17,165.05 194.00,170.18 194.00,170.18
             194.00,170.18 186.09,172.37 186.09,172.37
             186.09,172.37 178.96,175.54 178.96,175.54
             178.96,175.54 157.00,182.72 157.00,182.72
             157.00,182.72 135.28,188.34 135.28,188.34
             130.48,189.95 125.54,191.69 121.04,194.04
             121.04,194.04 111.99,199.04 111.99,199.04
             101.13,203.77 89.78,207.18 79.72,213.58
             67.59,221.28 59.13,222.62 56.00,239.00
             62.16,240.98 66.72,244.11 69.71,250.09
             69.71,250.09 72.16,256.55 72.16,256.55
             74.00,259.19 82.28,262.13 85.91,268.09
             87.81,271.19 87.95,274.49 88.00,278.00
             88.00,278.00 88.00,308.00 88.00,308.00
             88.00,308.00 90.47,341.09 90.47,341.09
             90.47,341.09 92.89,348.83 92.89,348.83
             92.89,348.83 93.90,357.00 93.90,357.00
             93.90,357.00 108.04,405.09 108.04,405.09
             108.04,405.09 113.32,425.91 113.32,425.91
             113.32,425.91 116.62,433.04 116.62,433.04
             116.62,433.04 121.09,445.91 121.09,445.91
             121.09,445.91 125.50,454.01 125.50,454.01
             125.50,454.01 132.88,469.01 132.88,469.01
             132.88,469.01 143.26,489.96 143.26,489.96
             143.26,489.96 148.91,499.01 148.91,499.01
             150.50,501.80 155.20,510.75 157.55,512.34
             161.89,515.28 169.96,514.37 174.91,515.26
             174.91,515.26 180.17,516.76 180.17,516.76
             180.17,516.76 197.00,518.04 197.00,518.04
             197.00,518.04 209.00,519.11 209.00,519.11
             209.00,519.11 241.00,519.11 241.00,519.11
             241.00,519.11 249.00,519.11 249.00,519.11
             249.00,519.11 259.00,519.11 259.00,519.11
             259.00,519.11 270.09,519.74 270.09,519.74
             270.09,519.74 295.00,518.00 295.00,518.00
             295.00,518.00 312.83,516.76 312.83,516.76
             312.83,516.76 329.00,512.37 329.00,512.37
             329.00,512.37 346.00,509.30 346.00,509.30
             346.00,509.30 354.00,506.69 354.00,506.69
             354.00,506.69 373.83,501.94 373.83,501.94
             373.83,501.94 382.00,499.02 382.00,499.02
             382.00,499.02 399.00,495.44 399.00,495.44
             399.00,495.44 411.83,493.78 411.83,493.78
             411.83,493.78 418.04,492.11 418.04,492.11
             428.97,490.52 445.91,489.31 456.00,485.70
             469.11,481.01 485.39,468.39 497.09,460.37
             497.09,460.37 505.58,455.00 505.58,455.00
             505.58,455.00 510.13,450.96 510.13,450.96
             510.13,450.96 537.96,433.42 537.96,433.42
             542.35,431.13 554.52,422.62 555.69,417.96
             556.93,413.02 554.98,405.93 554.28,401.00
             551.70,382.80 551.78,390.91 548.88,379.00
             548.88,379.00 544.03,359.17 544.03,359.17
             544.03,359.17 541.00,352.96 541.00,352.96
             541.00,352.96 537.56,340.01 537.56,340.01
             537.56,340.01 533.94,331.91 533.94,331.91
             533.94,331.91 522.00,299.09 522.00,299.09
             522.00,299.09 518.86,292.91 518.86,292.91
             518.86,292.91 515.41,280.00 515.41,280.00
             515.41,280.00 509.97,267.96 509.97,267.96
             509.97,267.96 506.48,258.04 506.48,258.04
             506.48,258.04 502.80,250.91 502.80,250.91
             502.80,250.91 498.65,240.00 498.65,240.00
             498.65,240.00 486.52,214.00 486.52,214.00
             484.14,208.36 481.53,207.69 480.00,202.00
             475.53,203.59 476.25,205.57 472.87,208.39
             470.37,210.47 463.18,213.83 460.00,215.08
             460.00,215.08 450.09,218.00 450.09,218.00
             450.09,218.00 444.83,220.76 444.83,220.76
             444.83,220.76 436.00,223.91 436.00,223.91
             436.00,223.91 424.28,227.29 424.28,227.29
             424.28,227.29 404.91,237.44 404.91,237.44
             404.91,237.44 377.00,248.65 377.00,248.65
             377.00,248.65 365.00,254.30 365.00,254.30
             365.00,254.30 354.17,257.84 354.17,257.84
             354.17,257.84 347.96,261.09 347.96,261.09
             347.96,261.09 337.09,265.00 337.09,265.00
             337.09,265.00 330.91,268.00 330.91,268.00
             330.91,268.00 322.00,270.51 322.00,270.51
             322.00,270.51 302.99,276.61 302.99,276.61
             302.99,276.61 285.04,281.05 285.04,281.05
             285.04,281.05 275.99,285.07 275.99,285.07
             275.99,285.07 261.00,288.67 261.00,288.67
             261.00,288.67 249.00,293.25 249.00,293.25
             249.00,293.25 236.09,296.65 236.09,296.65
             236.09,296.65 227.99,299.96 227.99,299.96
             227.99,299.96 211.00,304.39 211.00,304.39
             211.00,304.39 201.00,307.75 201.00,307.75
             201.00,307.75 180.00,311.61 180.00,311.61
             173.84,312.76 173.60,313.64 170.00,314.54
             170.00,314.54 159.00,316.42 159.00,316.42
             159.00,316.42 121.00,324.91 121.00,324.91
             100.07,326.19 86.68,303.62 105.30,290.47
             109.97,287.17 113.89,288.19 119.00,287.90
             123.22,287.66 129.83,286.59 134.00,285.65
             134.00,285.65 152.00,280.51 152.00,280.51
             152.00,280.51 160.00,279.56 160.00,279.56
             160.00,279.56 172.00,276.81 172.00,276.81
             172.00,276.81 179.83,275.77 179.83,275.77
             179.83,275.77 188.00,273.13 188.00,273.13
             188.00,273.13 208.91,268.18 208.91,268.18
             208.91,268.18 216.04,265.51 216.04,265.51
             216.04,265.51 234.83,260.06 234.83,260.06
             234.83,260.06 257.72,252.66 257.72,252.66
             257.72,252.66 263.04,250.52 263.04,250.52
             263.04,250.52 280.91,245.35 280.91,245.35
             280.91,245.35 292.00,241.73 292.00,241.73
             292.00,241.73 308.91,237.55 308.91,237.55
             308.91,237.55 315.09,234.65 315.09,234.65
             315.09,234.65 331.00,229.39 331.00,229.39
             331.00,229.39 338.00,226.09 338.00,226.09
             338.00,226.09 350.72,221.59 350.72,221.59
             350.72,221.59 371.17,212.27 371.17,212.27
             371.17,212.27 383.99,207.45 383.99,207.45
             383.99,207.45 401.00,198.90 401.00,198.90
             401.00,198.90 409.00,194.36 409.00,194.36
             409.00,194.36 423.00,190.48 423.00,190.48
             423.00,190.48 436.00,185.46 436.00,185.46
             450.29,180.39 450.80,176.74 467.00,178.00 Z
           M 467.00,253.46
           C 477.79,252.01 488.58,257.04 489.67,269.00
             490.18,274.56 487.05,282.13 482.47,285.38
             479.42,287.56 475.62,288.15 472.17,289.39
             464.26,292.23 456.26,294.27 448.00,296.00
             439.24,297.83 442.27,297.87 436.91,299.50
             436.91,299.50 417.17,305.40 417.17,305.40
             417.17,305.40 396.72,314.74 396.72,314.74
             396.72,314.74 374.00,324.05 374.00,324.05
             374.00,324.05 365.01,326.76 365.01,326.76
             365.01,326.76 357.83,330.19 357.83,330.19
             357.83,330.19 342.04,335.11 342.04,335.11
             342.04,335.11 322.09,343.54 322.09,343.54
             309.93,349.45 303.63,351.83 292.00,359.67
             284.19,364.93 279.50,371.27 269.01,369.70
             256.97,367.89 247.57,353.61 254.16,342.28
             259.14,333.72 269.70,328.25 277.91,323.46
             277.91,323.46 293.42,313.68 293.42,313.68
             293.42,313.68 317.72,303.26 317.72,303.26
             317.72,303.26 330.17,296.80 330.17,296.80
             330.17,296.80 342.91,292.35 342.91,292.35
             342.91,292.35 348.17,289.73 348.17,289.73
             348.17,289.73 357.00,286.55 357.00,286.55
             357.00,286.55 367.17,281.86 367.17,281.86
             367.17,281.86 380.99,277.39 380.99,277.39
             380.99,277.39 388.17,273.93 388.17,273.93
             388.17,273.93 401.00,269.65 401.00,269.65
             413.79,265.02 436.88,253.25 450.00,254.18
             450.00,254.18 456.00,254.91 456.00,254.91
             460.21,255.15 462.98,254.32 467.00,253.46 Z" />
    <path id="white"
        fill="white" stroke="none" stroke-width="1"
        d="M 57.00,238.00
           C 61.48,223.00 65.29,222.83 78.00,215.57
             78.00,215.57 120.00,195.87 120.00,195.87
             120.00,195.87 129.00,190.98 129.00,190.98
             129.00,190.98 168.00,180.14 168.00,180.14
             168.00,180.14 186.00,173.54 186.00,173.54
             186.00,173.54 194.00,171.20 194.00,171.20
             194.00,171.20 203.00,167.52 203.00,167.52
             203.00,167.52 226.00,161.57 226.00,161.57
             226.00,161.57 255.00,153.85 255.00,153.85
             255.00,153.85 269.00,149.89 269.00,149.89
             269.00,149.89 289.00,146.71 289.00,146.71
             289.00,146.71 302.00,143.37 302.00,143.37
             302.00,143.37 325.00,140.70 325.00,140.70
             325.00,140.70 351.00,135.73 351.00,135.73
             366.27,133.35 380.73,127.80 395.00,122.08
             404.39,118.31 418.80,112.87 429.00,115.56
             435.23,117.20 438.47,123.05 441.92,128.00
             441.92,128.00 453.78,151.00 453.78,151.00
             457.10,157.40 464.54,170.80 466.00,177.00
             456.27,175.29 455.57,177.07 447.00,180.41
             447.00,180.41 436.00,184.31 436.00,184.31
             436.00,184.31 424.00,189.22 424.00,189.22
             424.00,189.22 411.00,192.61 411.00,192.61
             411.00,192.61 390.00,203.61 390.00,203.61
             390.00,203.61 373.00,210.69 373.00,210.69
             373.00,210.69 363.00,214.67 363.00,214.67
             363.00,214.67 351.00,220.34 351.00,220.34
             351.00,220.34 340.00,224.21 340.00,224.21
             340.00,224.21 309.00,236.46 309.00,236.46
             309.00,236.46 293.00,240.72 293.00,240.72
             293.00,240.72 252.00,253.22 252.00,253.22
             252.00,253.22 225.00,261.74 225.00,261.74
             225.00,261.74 212.00,266.28 212.00,266.28
             212.00,266.28 182.00,274.24 182.00,274.24
             182.00,274.24 173.00,275.61 173.00,275.61
             173.00,275.61 153.00,279.67 153.00,279.67
             153.00,279.67 129.00,285.72 129.00,285.72
             119.32,287.33 110.32,285.25 102.18,291.88
             99.32,294.21 97.97,296.57 96.71,300.00
             91.33,314.71 107.44,326.73 121.00,325.91
             125.63,325.62 128.74,324.11 133.00,323.31
             133.00,323.31 180.00,312.67 180.00,312.67
             180.00,312.67 193.00,310.55 193.00,310.55
             193.00,310.55 222.00,302.80 222.00,302.80
             222.00,302.80 233.00,298.59 233.00,298.59
             233.00,298.59 249.00,294.19 249.00,294.19
             249.00,294.19 257.00,290.78 257.00,290.78
             257.00,290.78 270.00,287.56 270.00,287.56
             270.00,287.56 285.00,282.20 285.00,282.20
             285.00,282.20 316.00,273.56 316.00,273.56
             316.00,273.56 342.00,264.46 342.00,264.46
             342.00,264.46 352.00,259.87 352.00,259.87
             352.00,259.87 362.00,256.27 362.00,256.27
             362.00,256.27 386.00,245.76 386.00,245.76
             386.00,245.76 404.00,238.74 404.00,238.74
             404.00,238.74 425.00,228.09 425.00,228.09
             425.00,228.09 436.00,224.91 436.00,224.91
             436.00,224.91 451.00,218.94 451.00,218.94
             456.25,217.14 467.81,213.36 471.98,210.35
             474.78,208.35 476.76,205.56 479.00,203.00
             479.00,203.00 486.63,216.00 486.63,216.00
             486.63,216.00 500.17,247.00 500.17,247.00
             500.17,247.00 514.09,279.00 514.09,279.00
             514.09,279.00 518.37,293.00 518.37,293.00
             518.37,293.00 536.09,339.00 536.09,339.00
             536.09,339.00 540.66,354.00 540.66,354.00
             544.02,362.09 550.65,385.24 552.30,393.96
             552.30,393.96 553.08,401.09 553.08,401.09
             553.80,405.76 556.94,413.69 555.26,417.91
             554.12,420.78 544.79,428.41 542.00,430.16
             542.00,430.16 536.00,433.18 536.00,433.18
             536.00,433.18 524.00,441.00 524.00,441.00
             524.00,441.00 513.00,447.77 513.00,447.77
             513.00,447.77 500.99,456.77 500.99,456.77
             490.88,463.97 467.67,480.46 457.00,484.44
             450.88,486.72 444.38,487.31 438.00,488.29
             438.00,488.29 421.00,491.72 421.00,491.72
             421.00,491.72 393.00,495.47 393.00,495.47
             393.00,495.47 347.00,508.10 347.00,508.10
             347.00,508.10 331.00,510.88 331.00,510.88
             331.00,510.88 314.00,515.54 314.00,515.54
             314.00,515.54 294.00,517.00 294.00,517.00
             294.00,517.00 269.28,518.68 269.28,518.68
             269.28,518.68 247.00,518.13 247.00,518.13
             247.00,518.13 210.00,518.13 210.00,518.13
             210.00,518.13 184.00,516.07 184.00,516.07
             178.61,515.57 163.08,514.35 159.04,511.91
             154.68,509.29 153.71,505.05 151.19,501.00
             151.19,501.00 133.63,469.00 133.63,469.00
             133.63,469.00 128.09,457.00 128.09,457.00
             128.09,457.00 123.67,449.00 123.67,449.00
             123.67,449.00 114.75,427.00 114.75,427.00
             114.75,427.00 105.56,394.00 105.56,394.00
             105.56,394.00 100.72,380.00 100.72,380.00
             100.72,380.00 93.49,349.00 93.49,349.00
             93.49,349.00 91.54,341.00 91.54,341.00
             91.54,341.00 89.96,320.00 89.96,320.00
             89.96,320.00 89.05,309.17 89.05,309.17
             89.05,309.17 89.05,280.00 89.05,280.00
             88.99,275.42 89.19,272.14 86.77,268.00
             81.68,259.25 75.48,259.54 73.13,256.52
             73.13,256.52 69.27,248.01 69.27,248.01
             66.16,242.71 62.43,240.41 57.00,238.00 Z
           M 108.00,214.30
           C 103.19,215.21 98.95,216.29 95.00,219.39
             92.34,221.48 90.06,224.07 88.36,227.00
             76.75,247.00 95.03,265.60 116.00,262.81
             131.89,260.70 140.44,240.72 133.58,227.00
             128.26,216.37 119.20,213.19 108.00,214.30 Z
           M 467.00,252.30
           C 456.29,254.29 460.53,253.93 450.00,253.18
             438.75,252.38 412.52,264.31 401.00,268.46
             401.00,268.46 349.00,288.80 349.00,288.80
             349.00,288.80 335.00,293.87 335.00,293.87
             335.00,293.87 316.00,302.91 316.00,302.91
             316.00,302.91 304.00,307.67 304.00,307.67
             304.00,307.67 288.00,315.79 288.00,315.79
             288.00,315.79 278.00,322.24 278.00,322.24
             269.71,327.27 259.09,332.26 254.09,341.00
             247.26,352.91 254.49,367.69 268.00,369.70
             279.51,371.41 283.36,366.62 292.00,360.95
             301.32,354.83 309.56,349.69 320.00,345.51
             320.00,345.51 352.00,332.53 352.00,332.53
             352.00,332.53 373.00,325.39 373.00,325.39
             373.00,325.39 429.00,302.51 429.00,302.51
             429.00,302.51 465.00,292.42 465.00,292.42
             470.61,290.79 478.45,289.42 482.96,285.94
             492.29,278.74 492.25,262.71 482.96,255.43
             478.46,251.90 472.43,251.76 467.00,252.30 Z
           M 468.00,326.34
           C 442.77,333.46 451.83,368.72 477.00,363.94
             481.34,363.12 483.89,361.24 486.81,357.98
             494.14,349.82 493.37,338.92 485.79,331.18
             480.37,325.64 475.22,325.49 468.00,326.34 Z
           M 469.00,370.32
           C 461.84,371.93 457.35,375.19 452.90,381.09
             450.65,384.06 447.28,390.40 443.91,391.88
             440.70,393.28 435.21,390.18 432.00,389.08
             424.85,386.63 418.56,385.54 411.00,386.09
             406.88,386.39 400.13,388.15 396.58,390.26
             390.25,394.01 380.41,402.09 373.00,401.94
             357.38,401.63 354.87,377.67 335.00,379.18
             323.83,380.03 316.49,388.78 317.53,400.00
             318.32,408.57 322.52,410.98 327.29,416.98
             332.14,423.07 337.88,429.03 344.42,433.32
             354.95,440.22 371.41,443.65 383.72,440.57
             386.81,439.80 397.29,435.80 399.83,434.18
             403.75,431.67 410.43,426.17 415.00,425.71
             418.50,425.36 428.55,429.09 433.00,430.00
             442.54,431.94 452.87,431.01 462.00,427.58
             471.55,424.00 476.49,415.51 482.28,408.00
             485.05,404.42 490.03,398.34 491.12,394.00
             494.64,379.94 482.88,368.93 469.00,370.32 Z
           M 257.00,424.46
           C 252.23,424.97 248.73,425.79 245.11,429.21
             235.69,438.10 236.80,462.86 259.00,461.96
             270.49,461.50 277.21,454.47 276.98,443.00
             276.92,439.90 276.64,436.76 275.07,434.00
             270.96,426.79 264.76,424.75 257.00,424.46 Z" />
    <path id="black"
        fill="black" stroke="none" stroke-width="1"
        d="M 468.04,327.47
           C 476.89,326.19 483.48,328.39 488.36,336.42
             494.34,346.27 488.29,360.40 476.99,362.83
             453.74,367.82 444.30,334.38 468.04,327.47 Z
           M 469.00,371.52
           C 482.94,369.62 493.58,381.15 489.60,394.91
             488.58,398.43 483.75,403.96 481.43,407.00
             475.48,414.79 471.06,423.02 461.00,426.70
             451.04,430.34 442.29,430.65 432.00,428.55
             427.02,427.53 418.58,424.00 414.00,424.72
             408.73,425.55 402.67,431.20 398.00,433.74
             398.00,433.74 388.58,438.26 388.58,438.26
             382.38,441.02 367.67,441.21 361.09,439.46
             361.09,439.46 351.00,435.19 351.00,435.19
             346.93,433.56 345.53,432.93 342.00,430.18
             336.47,425.87 331.85,420.46 327.41,415.08
             325.31,412.54 323.09,410.85 321.36,407.96
             316.71,400.17 318.08,390.18 325.02,384.22
             326.96,382.56 328.55,381.67 331.00,380.94
             352.05,374.66 355.58,403.76 374.00,402.95
             379.78,402.70 380.56,400.88 385.17,398.56
             395.27,393.49 399.00,388.46 411.00,387.17
             419.19,386.30 426.21,388.44 433.91,390.79
             437.06,391.76 440.72,394.43 443.90,393.36
             447.11,392.28 451.80,384.86 453.90,382.03
             458.23,376.19 462.05,373.38 469.00,371.52 Z
           M 257.00,425.72
           C 264.61,425.91 270.23,428.03 274.18,435.01
             275.92,438.09 276.14,441.54 275.96,445.00
             275.46,454.58 268.37,460.61 259.00,460.96
             238.26,461.72 236.98,437.72 246.33,429.64
             249.42,426.95 253.06,426.12 257.00,425.72 Z" />
    <path id="red"
        fill="#ff0000" stroke="none" stroke-width="1"
        d="M 106.00,216.46
           C 112.06,215.62 119.53,215.62 124.79,219.22
             142.28,231.18 133.78,263.37 110.00,261.91
             105.73,261.64 102.62,260.53 99.00,258.29
             95.31,256.00 90.74,252.86 88.68,248.96
             83.28,238.74 88.71,224.92 98.17,219.19
             100.78,217.60 103.09,217.12 106.00,216.46 Z" />
</svg>
