<?xml version="1.0" encoding="UTF-8" standalone="no"?>
<!DOCTYPE svg PUBLIC "-//W3C//DTD SVG 20010904//EN"
              "http://www.w3.org/TR/2001/REC-SVG-20010904/DTD/svg10.dtd">

<svg xmlns="http://www.w3.org/2000/svg"
     width="42.3334mm" height="42.3334mm"
     viewBox="0 0 500 500">
  <path id="FileGrey"
        fill="#868686" stroke="black" stroke-width="1"
        d="M 36.00,132.00
           C 28.60,129.11 32.26,116.74 34.03,111.00
             34.03,111.00 38.42,99.04 38.42,99.04
             44.71,87.96 61.70,77.61 73.01,72.06
             87.51,64.95 103.05,59.50 119.00,56.59
             119.00,56.59 147.00,52.95 147.00,52.95
             147.00,52.95 156.00,50.67 156.00,50.67
             156.00,50.67 165.00,49.25 165.00,49.25
             165.00,49.25 179.00,45.79 179.00,45.79
             179.00,45.79 195.00,44.39 195.00,44.39
             195.00,44.39 206.00,45.10 206.00,45.10
             221.54,44.28 238.57,43.02 254.00,45.10
             254.00,45.10 273.00,50.88 273.00,50.88
             294.78,56.82 296.92,59.23 316.00,70.15
             321.78,73.45 330.56,77.18 334.00,83.00
             340.28,83.65 343.87,89.88 347.74,94.35
             356.18,104.07 368.01,125.91 373.20,138.00
             373.20,138.00 384.18,166.85 384.18,166.85
             384.18,166.85 391.39,180.42 391.39,180.42
             391.39,180.42 398.62,199.00 398.62,199.00
             398.62,199.00 403.94,218.00 403.94,218.00
             403.94,218.00 425.68,271.70 425.68,271.70
             425.68,271.70 436.71,288.17 436.71,288.17
             436.71,288.17 446.83,306.00 446.83,306.00
             446.83,306.00 451.57,316.42 451.57,316.42
             456.13,325.11 461.55,334.98 461.96,345.00
             462.18,350.29 462.02,359.28 459.90,364.00
             457.21,369.97 453.20,373.23 450.55,378.00
             446.93,384.51 446.27,389.40 439.54,394.54
             435.39,397.70 419.00,405.67 413.72,407.74
             413.72,407.74 406.17,410.18 406.17,410.18
             406.17,410.18 372.00,424.06 372.00,424.06
             372.00,424.06 344.04,431.67 344.04,431.67
             344.04,431.67 335.96,434.85 335.96,434.85
             335.96,434.85 287.00,448.03 287.00,448.03
             287.00,448.03 279.00,449.17 279.00,449.17
             279.00,449.17 268.00,452.08 268.00,452.08
             268.00,452.08 245.00,455.29 245.00,455.29
             245.00,455.29 236.00,457.41 236.00,457.41
             236.00,457.41 212.17,459.77 212.17,459.77
             198.06,459.97 183.86,460.03 169.99,457.09
             169.99,457.09 148.84,450.51 148.84,450.51
             148.84,450.51 140.20,449.12 140.20,449.12
             140.20,449.12 129.81,445.75 129.81,445.75
             125.89,444.69 123.36,445.02 120.22,441.85
             115.96,437.55 109.33,416.61 107.63,410.00
             107.63,410.00 95.17,363.00 95.17,363.00
             95.17,363.00 91.95,340.00 91.95,340.00
             89.23,323.79 80.64,303.68 75.09,288.00
             75.09,288.00 71.57,275.00 71.57,275.00
             71.57,275.00 65.46,257.00 65.46,257.00
             65.46,257.00 56.54,234.00 56.54,234.00
             56.54,234.00 43.94,187.00 43.94,187.00
             43.94,187.00 41.97,173.00 41.97,173.00
             41.97,173.00 39.78,157.00 39.78,157.00
             39.78,157.00 37.10,143.73 37.10,143.73
             36.43,138.72 34.92,137.39 36.00,132.00 Z
           M 195.10,76.47
           C 192.41,77.71 191.08,78.64 191.60,82.02
             191.60,82.02 194.36,90.00 194.36,90.00
             194.36,90.00 200.42,113.00 200.42,113.00
             206.35,134.33 209.27,135.22 216.09,153.00
             217.82,157.53 218.84,166.29 223.13,168.84
             228.73,171.82 246.17,169.08 253.00,168.84
             273.57,168.76 293.99,163.17 313.00,155.42
             316.20,154.12 325.38,150.60 327.42,148.44
             329.81,145.89 329.88,141.97 326.72,140.03
             324.17,138.46 321.41,139.58 319.00,140.76
             319.00,140.76 303.00,147.59 303.00,147.59
             303.00,147.59 275.28,156.85 275.28,156.85
             275.28,156.85 241.16,159.24 241.16,159.24
             241.16,159.24 235.00,159.24 235.00,159.24
             224.71,159.23 227.04,151.64 223.79,143.00
             223.79,143.00 211.30,115.00 211.30,115.00
             211.30,115.00 208.13,100.00 208.13,100.00
             206.86,94.94 203.64,79.80 199.56,77.18
             197.83,76.07 196.93,76.38 195.10,76.47 Z
           M 323.39,174.59
           C 317.79,178.93 323.02,185.88 325.27,191.00
             329.28,200.12 334.40,216.90 327.20,225.39
             315.74,238.90 296.89,237.39 281.00,236.15
             281.00,236.15 261.00,234.00 261.00,234.00
             256.22,233.08 240.85,229.69 236.96,230.61
             216.30,235.48 227.34,264.25 225.70,276.00
             225.07,280.51 223.22,287.68 218.95,289.98
             213.72,292.79 203.71,288.44 199.00,285.77
             184.71,277.69 183.67,273.57 172.28,263.75
             168.85,260.78 161.34,254.95 157.02,254.00
             151.22,252.72 149.40,259.43 153.31,263.22
             155.18,265.02 159.48,266.79 165.00,272.04
             165.00,272.04 174.83,281.54 174.83,281.54
             174.83,281.54 183.00,288.36 183.00,288.36
             195.02,297.22 220.75,310.80 231.12,293.00
             232.81,290.10 233.96,287.22 234.84,284.00
             235.96,279.94 236.96,275.21 236.74,271.00
             236.74,271.00 234.74,250.28 234.74,250.28
             234.77,246.95 235.55,242.93 239.11,241.64
             241.40,240.80 245.59,241.92 248.00,242.40
             248.00,242.40 265.00,245.25 265.00,245.25
             284.39,248.41 312.40,251.05 328.95,238.70
             345.79,226.13 342.59,209.50 337.33,192.00
             337.33,192.00 334.58,185.00 334.58,185.00
             332.33,179.38 330.84,173.26 323.39,174.59 Z
           M 298.14,189.64
           C 292.15,193.68 296.62,199.42 300.95,198.27
             305.65,197.02 306.56,188.65 298.14,189.64 Z
           M 166.04,320.65
           C 156.82,325.86 165.20,332.65 170.89,330.21
             175.73,328.14 174.60,319.89 166.04,320.65 Z" />
<path id="black"
        fill="black" stroke="none" stroke-width="1"
        d="M 194.41,78.04
           C 203.02,75.40 205.10,92.05 206.63,98.00
             206.63,98.00 208.68,106.00 208.68,106.00
             209.29,109.48 209.01,111.24 210.24,115.00
             210.24,115.00 219.17,136.00 219.17,136.00
             219.17,136.00 222.67,143.00 222.67,143.00
             224.23,147.02 225.61,157.65 229.28,159.62
             231.11,160.60 233.96,160.37 236.00,160.36
             236.00,160.36 276.00,157.59 276.00,157.59
             276.00,157.59 311.00,145.73 311.00,145.73
             313.34,144.77 322.33,140.50 323.96,140.59
             326.62,140.73 328.57,143.23 327.60,145.82
             326.17,149.64 314.86,153.60 311.00,155.14
             292.91,162.34 273.55,167.91 254.00,168.00
             254.00,168.00 234.00,169.00 234.00,169.00
             231.29,169.00 227.55,169.13 225.04,168.11
             218.76,165.56 219.44,157.95 215.99,150.00
             215.99,150.00 204.80,125.00 204.80,125.00
             204.80,125.00 198.71,103.00 198.71,103.00
             198.71,103.00 194.41,87.04 194.41,87.04
             193.03,82.98 191.21,81.57 194.41,78.04 Z
           M 323.60,176.04
           C 329.26,174.11 331.42,179.64 333.29,184.00
             337.67,194.22 340.47,205.56 340.65,216.72
             340.71,220.46 339.10,223.77 337.36,226.99
             329.18,242.06 310.52,247.20 294.29,246.83
             283.13,246.58 262.94,244.21 252.00,242.00
             246.89,240.96 239.42,238.19 235.57,243.15
             232.38,247.25 233.95,255.16 234.50,260.00
             234.50,260.00 235.61,273.58 235.61,273.58
             235.42,282.00 231.45,295.66 223.00,299.12
             216.09,301.96 210.09,300.31 203.42,297.99
             187.29,292.40 179.89,284.79 168.00,273.21
             161.41,266.79 156.12,264.34 154.24,262.47
             152.50,260.73 151.37,258.49 153.42,256.42
             157.42,252.37 167.97,261.32 170.99,264.05
             182.20,274.18 188.40,282.53 203.00,288.91
             206.91,290.62 214.72,293.09 218.83,291.40
             222.66,289.83 224.83,284.76 225.76,281.00
             228.44,270.22 225.44,263.25 225.04,253.00
             224.63,242.40 228.61,231.62 241.00,231.60
             241.00,231.60 262.00,235.34 262.00,235.34
             262.00,235.34 283.03,237.37 283.03,237.37
             297.74,238.41 314.71,239.48 325.96,227.98
             328.21,225.68 330.38,223.13 331.35,220.00
             333.26,213.81 329.15,198.22 326.91,192.00
             325.13,187.07 320.08,181.00 323.60,176.04 Z
           M 298.30,191.08
           C 304.11,189.76 304.04,195.30 301.56,196.72
             299.09,198.13 294.13,195.62 298.30,191.08 Z
           M 167.05,321.78
           C 175.05,322.24 173.90,328.59 169.26,329.50
             164.37,330.46 159.40,324.54 167.05,321.78 Z" />
</svg>