<?xml version="1.0" encoding="UTF-8" standalone="no"?>
<!DOCTYPE svg PUBLIC "-//W3C//DTD SVG 20010904//EN"
              "http://www.w3.org/TR/2001/REC-SVG-20010904/DTD/svg10.dtd">

<svg xmlns="http://www.w3.org/2000/svg"
     width="1.66667in" height="1.66667in"
     viewBox="0 0 500 500">
  <path id="blue"
        fill="#009bff" stroke="none" stroke-width="1"
        d="M 86.00,95.00
           C 86.00,95.00 117.00,80.34 117.00,80.34
             117.00,80.34 142.00,65.96 142.00,65.96
             142.00,65.96 164.00,58.32 164.00,58.32
             164.00,58.32 173.00,53.61 173.00,53.61
             173.00,53.61 219.00,37.78 219.00,37.78
             219.00,37.78 249.16,32.97 249.16,32.97
             249.16,32.97 258.96,30.70 258.96,30.70
             265.75,29.41 284.80,27.08 291.44,27.24
             299.35,27.43 310.08,30.22 317.91,31.77
             327.31,33.63 336.96,34.35 346.00,37.80
             346.00,37.80 363.99,47.43 363.99,47.43
             363.99,47.43 384.29,62.74 384.29,62.74
             386.32,64.31 392.91,69.01 395.17,69.61
             398.77,70.56 409.98,66.42 415.39,66.25
             423.94,65.98 436.52,67.99 444.00,72.21
             444.00,72.21 450.07,76.50 450.07,76.50
             454.31,79.27 460.99,84.00 463.77,88.18
             471.12,99.27 472.98,115.92 473.00,129.00
             473.01,136.22 474.10,154.29 475.48,161.00
             475.48,161.00 478.46,170.91 478.46,170.91
             478.46,170.91 479.23,177.08 479.23,177.08
             479.23,177.08 481.46,186.00 481.46,186.00
             481.46,186.00 482.49,194.00 482.49,194.00
             482.49,194.00 486.54,210.00 486.54,210.00
             486.54,210.00 488.91,238.28 488.91,238.28
             488.91,238.28 491.68,251.00 491.68,251.00
             491.68,251.00 493.10,267.00 493.10,267.00
             493.72,271.53 497.46,278.88 497.96,291.00
             497.96,291.00 496.86,309.71 496.86,309.71
             496.55,316.50 495.99,329.89 494.49,336.00
             494.49,336.00 489.43,351.00 489.43,351.00
             487.58,357.09 483.20,371.06 479.68,375.76
             477.70,378.40 476.38,378.57 474.40,380.54
             472.22,382.70 471.69,384.80 469.32,386.67
             465.30,389.86 454.16,393.11 449.00,395.17
             449.00,395.17 430.54,404.32 430.54,404.32
             430.54,404.32 423.00,407.04 423.00,407.04
             423.00,407.04 405.16,414.37 405.16,414.37
             405.16,414.37 377.83,426.06 377.83,426.06
             377.83,426.06 355.00,431.91 355.00,431.91
             355.00,431.91 344.00,436.53 344.00,436.53
             344.00,436.53 305.00,446.47 305.00,446.47
             305.00,446.47 266.04,457.30 266.04,457.30
             266.04,457.30 244.00,459.17 244.00,459.17
             232.74,460.25 216.68,462.28 206.01,465.39
             206.01,465.39 195.99,469.83 195.99,469.83
             186.27,472.87 154.93,477.59 145.00,476.91
             135.31,476.25 123.80,473.40 115.00,469.31
             115.00,469.31 106.00,464.75 106.00,464.75
             106.00,464.75 90.13,459.57 90.13,459.57
             85.64,456.75 87.43,453.02 83.70,449.80
             83.70,449.80 75.09,444.12 75.09,444.12
             70.46,440.43 65.86,434.10 63.00,428.91
             60.80,424.91 54.64,409.43 53.38,404.96
             53.38,404.96 49.25,389.00 49.25,389.00
             49.25,389.00 46.15,380.00 46.15,380.00
             46.15,380.00 43.03,368.09 43.03,368.09
             43.03,368.09 39.42,358.00 39.42,358.00
             39.42,358.00 33.46,334.00 33.46,334.00
             33.46,334.00 32.52,327.00 32.52,327.00
             32.52,327.00 30.56,320.17 30.56,320.17
             30.56,320.17 25.54,287.00 25.54,287.00
             25.54,287.00 19.65,266.91 19.65,266.91
             19.65,266.91 16.52,255.00 16.52,255.00
             14.82,250.03 13.06,249.31 11.67,243.00
             9.65,233.80 10.11,218.80 10.00,209.00
             10.00,209.00 9.37,192.00 9.37,192.00
             9.37,192.00 11.58,157.00 11.58,157.00
             11.58,157.00 0.58,113.04 0.58,113.04
             0.42,111.22 1.27,105.89 1.70,103.99
             3.51,95.94 9.02,92.52 15.71,88.54
             28.08,81.19 53.45,79.43 68.04,79.05
             79.06,78.77 83.28,85.03 86.00,95.00 Z
           M 383.00,76.00
           C 383.00,76.00 350.00,53.19 350.00,53.19
             341.04,48.48 326.91,45.85 316.84,44.00
             316.84,44.00 287.00,39.32 287.00,39.32
             277.57,39.15 259.68,43.27 250.00,45.04
             250.00,45.04 213.00,51.89 213.00,51.89
             213.00,51.89 203.00,55.62 203.00,55.62
             203.00,55.62 187.00,61.17 187.00,61.17
             187.00,61.17 169.83,68.82 169.83,68.82
             169.83,68.82 150.00,76.04 150.00,76.04
             150.00,76.04 112.00,96.99 112.00,96.99
             92.76,105.40 74.83,113.24 57.00,124.58
             50.15,128.94 37.37,138.71 32.95,145.04
             30.81,148.10 25.16,160.54 24.39,164.00
             24.39,164.00 22.50,194.09 22.50,194.09
             22.50,194.09 22.50,207.96 22.50,207.96
             22.22,216.59 22.58,232.80 24.17,241.00
             24.17,241.00 33.78,271.00 33.78,271.00
             33.78,271.00 37.84,287.00 37.84,287.00
             38.45,291.61 38.60,298.09 41.00,302.00
             41.00,302.00 44.42,266.00 44.42,266.00
             49.55,242.62 55.25,237.18 66.72,217.00
             70.67,210.06 78.71,195.10 83.52,189.72
             93.94,178.03 96.32,178.89 108.00,171.63
             127.37,159.59 126.91,160.93 147.00,152.31
             147.00,152.31 165.00,144.54 165.00,144.54
             165.00,144.54 189.00,138.03 189.00,138.03
             189.00,138.03 204.00,131.81 204.00,131.81
             204.00,131.81 229.00,125.03 229.00,125.03
             229.00,125.03 245.00,118.80 245.00,118.80
             245.00,118.80 263.00,113.75 263.00,113.75
             263.00,113.75 275.00,112.46 275.00,112.46
             284.06,111.11 293.17,109.24 301.96,106.61
             307.71,104.90 307.57,102.48 312.00,101.02
             312.00,101.02 326.00,97.97 326.00,97.97
             326.00,97.97 349.00,88.79 349.00,88.79
             349.00,88.79 357.83,86.09 357.83,86.09
             357.83,86.09 365.01,83.17 365.01,83.17
             365.01,83.17 383.00,78.00 383.00,78.00
             383.00,78.00 383.00,76.00 383.00,76.00 Z
           M 420.14,163.82
           C 417.00,165.78 416.86,167.17 417.17,171.00
             417.17,171.00 425.11,203.00 425.11,203.00
             427.63,213.92 426.29,214.72 427.28,223.00
             428.65,234.40 430.02,236.60 430.00,249.00
             429.99,252.75 430.22,256.64 428.15,259.96
             425.87,263.60 419.87,267.28 416.00,269.11
             405.28,274.17 391.80,277.13 380.00,277.00
             371.02,276.89 362.63,273.99 354.00,271.90
             354.00,271.90 344.00,269.85 344.00,269.85
             344.00,269.85 309.00,260.42 309.00,260.42
             309.00,260.42 298.00,258.68 298.00,258.68
             293.54,257.91 293.24,257.14 288.00,257.01
             277.94,256.77 267.17,260.45 260.39,268.17
             255.63,273.59 253.18,286.43 239.00,295.61
             231.28,300.61 221.84,302.47 213.00,304.42
             187.99,309.94 161.29,309.15 140.00,293.24
             131.97,287.24 120.03,269.83 113.88,261.00
             111.54,257.64 106.08,248.78 102.83,247.03
             99.05,244.98 94.29,247.51 94.65,252.00
             94.88,254.84 98.18,258.69 99.85,261.00
             99.85,261.00 113.50,280.00 113.50,280.00
             123.15,292.69 122.93,296.57 138.00,306.30
             147.91,312.71 168.26,318.94 180.00,319.00
             180.00,319.00 193.00,319.00 193.00,319.00
             200.53,318.99 207.67,317.03 215.00,315.42
             225.28,313.17 232.38,312.33 242.00,307.22
             249.53,303.22 256.79,296.12 261.46,289.00
             267.63,279.58 269.67,270.65 282.83,268.99
             292.25,267.81 305.80,271.53 315.00,273.77
             347.25,281.62 377.58,294.78 411.00,283.65
             420.66,280.43 434.83,273.70 439.20,264.00
             441.03,259.93 440.99,256.33 441.00,252.00
             441.00,252.00 441.00,242.00 441.00,242.00
             441.00,242.00 438.06,221.00 438.06,221.00
             438.06,221.00 438.06,213.00 438.06,213.00
             436.50,199.09 434.99,194.28 431.63,181.00
             430.62,177.04 428.18,166.02 424.78,163.82
             422.91,162.93 422.03,163.34 420.14,163.82 Z
           M 358.14,168.66
           C 351.95,172.78 356.81,179.35 361.86,177.38
             366.20,175.69 365.66,168.13 358.14,168.66 Z
           M 124.15,349.60
           C 118.25,353.70 122.07,360.93 127.90,359.53
             132.34,358.46 132.64,352.84 130.40,350.60
             128.55,348.74 126.39,349.17 124.15,349.60 Z" />
    <path id="darkblue"
        fill="#0f4467" stroke="none" stroke-width="1"
        d="M 40.00,299.00
           C 39.36,285.10 35.31,275.80 31.22,263.00
             31.22,263.00 27.33,249.04 27.33,249.04
             27.33,249.04 24.74,241.91 24.74,241.91
             22.91,233.96 23.07,208.53 23.00,199.00
             22.88,182.68 22.85,164.80 30.49,150.00
             34.20,142.81 39.20,139.36 45.04,133.95
             55.55,124.23 61.15,122.35 73.00,116.05
             73.00,116.05 86.04,108.58 86.04,108.58
             86.04,108.58 117.00,94.98 117.00,94.98
             117.00,94.98 151.00,76.04 151.00,76.04
             151.00,76.04 171.00,68.69 171.00,68.69
             171.00,68.69 187.00,61.60 187.00,61.60
             187.00,61.60 204.00,55.68 204.00,55.68
             204.00,55.68 212.00,52.64 212.00,52.64
             212.00,52.64 248.28,46.00 248.28,46.00
             248.28,46.00 258.00,43.66 258.00,43.66
             265.00,42.20 281.14,39.79 288.00,40.04
             288.00,40.04 334.00,47.78 334.00,47.78
             340.62,49.64 350.29,53.37 356.00,57.10
             356.00,57.10 383.00,77.00 383.00,77.00
             378.14,79.88 368.78,81.18 363.00,83.32
             363.00,83.32 339.00,92.17 339.00,92.17
             339.00,92.17 328.00,96.80 328.00,96.80
             328.00,96.80 318.00,99.54 318.00,99.54
             318.00,99.54 312.01,100.43 312.01,100.43
             307.24,101.79 307.56,104.46 301.00,106.56
             289.42,110.25 277.86,110.87 266.00,112.71
             266.00,112.71 253.00,115.88 253.00,115.88
             253.00,115.88 230.00,124.20 230.00,124.20
             230.00,124.20 205.00,130.97 205.00,130.97
             205.00,130.97 186.00,138.41 186.00,138.41
             186.00,138.41 165.00,144.09 165.00,144.09
             165.00,144.09 154.00,148.83 154.00,148.83
             134.71,156.53 124.93,160.65 107.00,171.62
             100.26,175.74 95.49,177.32 89.17,183.08
             78.25,193.04 72.39,206.38 65.15,219.00
             58.05,231.38 49.17,243.99 45.66,258.00
             43.08,268.31 42.02,275.82 41.78,286.41
             41.66,291.48 42.89,294.52 40.00,299.00 Z" />
    <path id="black"
        fill="black" stroke="none" stroke-width="1"
        d="M 420.31,165.07
           C 427.28,163.20 428.17,170.87 429.35,176.00
             429.35,176.00 435.54,203.00 435.54,203.00
             435.54,203.00 436.58,214.00 436.58,214.00
             436.58,214.00 437.29,223.00 437.29,223.00
             438.99,236.84 440.02,235.35 440.00,251.00
             439.99,256.23 439.92,260.25 437.25,264.99
             434.51,269.83 429.59,273.03 425.00,275.95
             412.06,284.18 396.22,287.17 381.00,287.00
             357.95,286.73 335.96,277.91 314.00,272.12
             304.96,269.73 287.94,265.99 279.00,268.49
             264.60,272.53 263.23,288.14 253.68,297.54
             241.73,309.29 211.66,317.80 195.00,318.00
             173.15,318.25 160.51,317.94 141.00,306.40
             137.63,304.41 133.95,302.35 131.00,299.79
             123.62,293.39 116.74,283.10 111.26,275.00
             111.26,275.00 98.91,258.00 98.91,258.00
             97.47,255.93 95.25,252.89 96.39,250.23
             97.79,246.94 101.38,247.53 103.68,249.45
             105.97,251.36 112.19,260.93 114.48,264.00
             114.48,264.00 131.18,286.91 131.18,286.91
             143.64,300.12 158.28,306.07 176.00,308.05
             179.47,308.44 182.46,309.11 186.00,308.91
             204.43,307.86 229.24,305.22 243.99,293.33
             253.02,286.04 254.58,277.95 260.63,270.09
             267.47,261.21 277.13,257.77 288.00,258.01
             291.89,258.10 306.40,259.98 310.00,261.04
             310.00,261.04 321.00,264.85 321.00,264.85
             321.00,264.85 344.00,271.11 344.00,271.11
             344.00,271.11 355.00,273.23 355.00,273.23
             362.35,274.93 369.38,276.91 377.00,277.00
             377.00,277.00 387.00,277.00 387.00,277.00
             400.00,276.94 423.20,271.20 429.86,259.00
             432.90,253.43 431.48,249.66 431.09,244.00
             431.09,244.00 428.17,220.00 428.17,220.00
             427.64,214.45 428.54,212.17 426.91,206.00
             426.91,206.00 419.50,177.00 419.50,177.00
             418.51,172.69 417.06,168.51 420.31,165.07 Z
           M 358.14,169.79
           C 365.54,169.03 364.17,176.19 360.79,177.29
             357.40,178.40 352.36,173.68 358.14,169.79 Z
           M 125.21,350.84
           C 131.93,350.35 131.06,356.48 127.86,357.83
             124.66,359.18 119.68,354.61 125.21,350.84 Z" />
</svg>
