<?xml version="1.0" encoding="UTF-8" standalone="no"?>
<!DOCTYPE svg PUBLIC "-//W3C//DTD SVG 20010904//EN"
              "http://www.w3.org/TR/2001/REC-SVG-20010904/DTD/svg10.dtd">

<svg xmlns="http://www.w3.org/2000/svg"
     width="1.66667in" height="1.66667in"
     viewBox="0 0 500 500">
  <path id="blue"
        fill="#009bff" stroke="none" stroke-width="1"
        d="M 86.00,95.00
           C 86.00,95.00 117.00,80.34 117.00,80.34
             117.00,80.34 142.00,65.96 142.00,65.96
             142.00,65.96 164.00,58.32 164.00,58.32
             164.00,58.32 173.00,53.61 173.00,53.61
             173.00,53.61 219.00,37.78 219.00,37.78
             219.00,37.78 249.16,32.97 249.16,32.97
             249.16,32.97 258.96,30.70 258.96,30.70
             265.75,29.41 284.80,27.08 291.44,27.24
             299.35,27.43 310.08,30.22 317.91,31.77
             317.91,31.77 335.00,34.60 335.00,34.60
             335.00,34.60 352.42,40.69 352.42,40.69
             355.55,41.16 357.27,38.64 365.00,39.04
             367.31,39.16 368.89,39.42 371.00,40.45
             371.00,40.45 391.00,53.19 391.00,53.19
             391.00,53.19 408.00,62.20 408.00,62.20
             411.75,63.63 416.16,63.46 422.00,66.38
             429.61,70.18 441.08,81.10 445.96,88.00
             453.21,98.26 455.56,107.62 459.69,119.00
             459.69,119.00 470.28,148.00 470.28,148.00
             470.28,148.00 473.16,161.00 473.16,161.00
             475.05,167.94 477.22,169.37 478.45,173.57
             478.45,173.57 481.46,186.00 481.46,186.00
             481.46,186.00 482.49,194.00 482.49,194.00
             482.49,194.00 486.54,210.00 486.54,210.00
             486.54,210.00 488.91,238.28 488.91,238.28
             488.91,238.28 491.68,251.00 491.68,251.00
             491.68,251.00 493.10,267.00 493.10,267.00
             493.72,271.53 497.46,278.88 497.96,291.00
             497.96,291.00 496.86,309.71 496.86,309.71
             496.55,316.50 495.99,329.89 494.49,336.00
             494.49,336.00 489.43,351.00 489.43,351.00
             487.75,356.53 483.61,369.42 480.84,373.95
             477.96,378.67 477.50,377.46 474.40,380.54
             472.22,382.70 471.69,384.80 469.32,386.67
             465.30,389.86 454.16,393.11 449.00,395.17
             449.00,395.17 430.54,404.32 430.54,404.32
             430.54,404.32 423.00,407.04 423.00,407.04
             423.00,407.04 405.16,414.37 405.16,414.37
             405.16,414.37 377.83,426.06 377.83,426.06
             377.83,426.06 355.00,431.91 355.00,431.91
             355.00,431.91 344.00,436.53 344.00,436.53
             344.00,436.53 305.00,446.47 305.00,446.47
             305.00,446.47 265.09,457.70 265.09,457.70
             265.09,457.70 256.99,457.70 256.99,457.70
             256.99,457.70 228.73,460.90 228.73,460.90
             221.67,461.80 211.72,463.48 205.04,465.68
             205.04,465.68 195.99,469.83 195.99,469.83
             186.27,472.87 154.93,477.59 145.00,476.91
             135.31,476.25 123.80,473.40 115.00,469.31
             115.00,469.31 106.00,464.75 106.00,464.75
             106.00,464.75 90.13,459.57 90.13,459.57
             85.64,456.75 87.43,453.02 83.70,449.80
             83.70,449.80 75.09,444.12 75.09,444.12
             70.46,440.43 65.86,434.10 63.00,428.91
             60.80,424.91 54.64,409.43 53.38,404.96
             53.38,404.96 49.25,389.00 49.25,389.00
             49.25,389.00 46.15,380.00 46.15,380.00
             46.15,380.00 43.03,368.09 43.03,368.09
             43.03,368.09 39.42,358.00 39.42,358.00
             39.42,358.00 33.46,334.00 33.46,334.00
             33.46,334.00 32.52,327.00 32.52,327.00
             32.52,327.00 30.56,320.17 30.56,320.17
             30.56,320.17 25.54,287.00 25.54,287.00
             25.54,287.00 19.65,266.91 19.65,266.91
             19.65,266.91 16.52,255.00 16.52,255.00
             14.82,250.03 13.06,249.31 11.67,243.00
             9.65,233.80 10.11,218.80 10.00,209.00
             10.00,209.00 9.37,192.00 9.37,192.00
             9.37,192.00 11.58,157.00 11.58,157.00
             11.58,157.00 0.58,113.04 0.58,113.04
             0.42,111.22 1.27,105.89 1.70,103.99
             3.51,95.94 9.02,92.52 15.71,88.54
             28.08,81.19 53.45,79.43 68.04,79.05
             79.06,78.77 83.28,85.03 86.00,95.00 Z
           M 337.00,48.00
           C 337.00,48.00 286.00,39.32 286.00,39.32
             275.11,39.62 260.80,43.06 250.00,45.04
             250.00,45.04 213.00,51.89 213.00,51.89
             213.00,51.89 203.00,55.62 203.00,55.62
             203.00,55.62 187.00,61.17 187.00,61.17
             187.00,61.17 169.83,68.82 169.83,68.82
             169.83,68.82 150.00,76.04 150.00,76.04
             150.00,76.04 118.00,94.10 118.00,94.10
             118.00,94.10 91.00,106.29 91.00,106.29
             77.09,112.04 52.73,125.69 42.00,135.99
             38.59,139.27 34.89,142.00 32.32,146.01
             30.48,148.90 25.07,160.93 24.39,164.00
             24.39,164.00 22.30,194.09 22.30,194.09
             22.40,199.15 21.98,204.25 24.00,209.00
             26.18,197.43 32.32,172.74 37.88,163.00
             41.74,156.23 53.21,143.27 58.72,137.00
             64.51,130.39 71.70,122.39 79.00,117.52
             91.20,109.39 112.17,105.59 126.00,100.56
             126.00,100.56 153.00,91.89 153.00,91.89
             153.00,91.89 175.00,87.08 175.00,87.08
             175.00,87.08 184.00,83.75 184.00,83.75
             184.00,83.75 199.00,80.09 199.00,80.09
             199.00,80.09 210.00,76.50 210.00,76.50
             210.00,76.50 228.00,73.34 228.00,73.34
             228.00,73.34 243.00,70.08 243.00,70.08
             243.00,70.08 253.00,67.21 253.00,67.21
             253.00,67.21 268.00,64.25 268.00,64.25
             268.00,64.25 282.00,58.92 282.00,58.92
             282.00,58.92 318.00,52.42 318.00,52.42
             324.26,51.54 331.47,51.29 337.00,48.00 Z
           M 449.00,76.00
           C 456.45,80.08 469.29,90.50 468.00,100.00
             461.05,84.44 456.49,86.43 449.00,76.00 Z
           M 420.14,163.82
           C 417.00,165.78 416.86,167.17 417.17,171.00
             417.17,171.00 425.11,203.00 425.11,203.00
             427.63,213.92 426.29,214.72 427.28,223.00
             428.65,234.40 430.02,236.60 430.00,249.00
             429.99,252.75 430.22,256.64 428.15,259.96
             425.87,263.60 419.87,267.28 416.00,269.11
             405.28,274.17 391.80,277.13 380.00,277.00
             371.02,276.89 362.63,273.99 354.00,271.90
             354.00,271.90 344.00,269.85 344.00,269.85
             344.00,269.85 309.00,260.42 309.00,260.42
             309.00,260.42 298.00,258.68 298.00,258.68
             293.54,257.91 293.24,257.14 288.00,257.01
             277.94,256.77 267.17,260.45 260.39,268.17
             255.63,273.59 253.18,286.43 239.00,295.61
             231.28,300.61 221.84,302.47 213.00,304.42
             187.99,309.94 161.29,309.15 140.00,293.24
             131.97,287.24 120.03,269.83 113.88,261.00
             111.54,257.64 106.08,248.78 102.83,247.03
             99.05,244.98 94.29,247.51 94.65,252.00
             94.88,254.84 98.18,258.69 99.85,261.00
             99.85,261.00 113.50,280.00 113.50,280.00
             123.15,292.69 122.93,296.57 138.00,306.30
             147.91,312.71 168.26,318.94 180.00,319.00
             180.00,319.00 193.00,319.00 193.00,319.00
             200.53,318.99 207.67,317.03 215.00,315.42
             225.28,313.17 232.38,312.33 242.00,307.22
             249.53,303.22 256.79,296.12 261.46,289.00
             267.63,279.58 269.67,270.65 282.83,268.99
             292.25,267.81 305.80,271.53 315.00,273.77
             347.25,281.62 377.58,294.78 411.00,283.65
             420.66,280.43 434.83,273.70 439.20,264.00
             441.03,259.93 440.99,256.33 441.00,252.00
             441.00,252.00 441.00,242.00 441.00,242.00
             441.00,242.00 438.06,221.00 438.06,221.00
             438.06,221.00 438.06,213.00 438.06,213.00
             436.50,199.09 434.99,194.28 431.63,181.00
             430.62,177.04 428.18,166.02 424.78,163.82
             422.91,162.93 422.03,163.34 420.14,163.82 Z
           M 358.14,168.66
           C 351.95,172.78 356.81,179.35 361.86,177.38
             366.20,175.69 365.66,168.13 358.14,168.66 Z
           M 23.00,210.00
           C 23.00,210.00 22.00,210.00 22.00,210.00
             22.00,210.00 23.00,211.00 23.00,211.00
             23.00,211.00 23.00,210.00 23.00,210.00 Z
           M 124.15,349.60
           C 118.25,353.70 122.07,360.93 127.90,359.53
             132.34,358.46 132.64,352.84 130.40,350.60
             128.55,348.74 126.39,349.17 124.15,349.60 Z
           M 311.00,199.50" />
    <path id="black"
        fill="black" stroke="none" stroke-width="1"
        d="M 420.31,165.07
           C 427.28,163.20 428.17,170.87 429.35,176.00
             429.35,176.00 435.54,203.00 435.54,203.00
             435.54,203.00 436.58,214.00 436.58,214.00
             436.58,214.00 437.29,223.00 437.29,223.00
             438.99,236.84 440.02,235.35 440.00,251.00
             439.99,256.23 439.92,260.25 437.25,264.99
             434.51,269.83 429.59,273.03 425.00,275.95
             412.06,284.18 396.22,287.17 381.00,287.00
             357.95,286.73 335.96,277.91 314.00,272.12
             304.96,269.73 287.94,265.99 279.00,268.49
             264.60,272.53 263.23,288.14 253.68,297.54
             241.73,309.29 211.66,317.80 195.00,318.00
             173.15,318.25 160.51,317.94 141.00,306.40
             137.63,304.41 133.95,302.35 131.00,299.79
             123.62,293.39 116.74,283.10 111.26,275.00
             111.26,275.00 98.91,258.00 98.91,258.00
             97.47,255.93 95.25,252.89 96.39,250.23
             97.79,246.94 101.38,247.53 103.68,249.45
             105.97,251.36 112.19,260.93 114.48,264.00
             114.48,264.00 131.18,286.91 131.18,286.91
             143.64,300.12 158.28,306.07 176.00,308.05
             179.47,308.44 182.46,309.11 186.00,308.91
             204.43,307.86 229.24,305.22 243.99,293.33
             253.02,286.04 254.58,277.95 260.63,270.09
             267.47,261.21 277.13,257.77 288.00,258.01
             291.89,258.10 306.40,259.98 310.00,261.04
             310.00,261.04 321.00,264.85 321.00,264.85
             321.00,264.85 344.00,271.11 344.00,271.11
             344.00,271.11 355.00,273.23 355.00,273.23
             362.35,274.93 369.38,276.91 377.00,277.00
             377.00,277.00 387.00,277.00 387.00,277.00
             400.00,276.94 423.20,271.20 429.86,259.00
             432.90,253.43 431.48,249.66 431.09,244.00
             431.09,244.00 428.17,220.00 428.17,220.00
             427.64,214.45 428.54,212.17 426.91,206.00
             426.91,206.00 419.50,177.00 419.50,177.00
             418.51,172.69 417.06,168.51 420.31,165.07 Z
           M 358.14,169.79
           C 365.54,169.03 364.17,176.19 360.79,177.29
             357.40,178.40 352.36,173.68 358.14,169.79 Z
           M 125.21,350.84
           C 131.93,350.35 131.06,356.48 127.86,357.83
             124.66,359.18 119.68,354.61 125.21,350.84 Z" />
     <path id="darkblue"
        fill="#0f4467" stroke="black" stroke-width="1"
        d="M 23.00,205.00
           C 23.00,186.62 22.00,159.36 33.95,144.32
             33.95,144.32 40.58,138.19 40.58,138.19
             55.07,124.73 56.35,124.91 73.00,116.05
             73.00,116.05 85.09,109.03 85.09,109.03
             85.09,109.03 94.00,105.54 94.00,105.54
             94.00,105.54 109.00,98.85 109.00,98.85
             109.00,98.85 152.00,75.59 152.00,75.59
             152.00,75.59 171.00,68.69 171.00,68.69
             171.00,68.69 187.00,61.60 187.00,61.60
             187.00,61.60 204.00,55.68 204.00,55.68
             204.00,55.68 212.00,52.64 212.00,52.64
             212.00,52.64 250.09,45.63 250.09,45.63
             260.76,43.18 277.23,39.65 288.00,40.04
             296.85,40.36 308.18,42.76 316.91,44.63
             322.17,45.75 331.82,46.57 336.00,49.00
             325.58,52.01 320.16,51.92 310.00,53.43
             310.00,53.43 284.00,58.43 284.00,58.43
             284.00,58.43 268.00,64.23 268.00,64.23
             268.00,64.23 253.00,67.21 253.00,67.21
             253.00,67.21 241.00,70.57 241.00,70.57
             241.00,70.57 210.00,76.50 210.00,76.50
             210.00,76.50 197.00,80.57 197.00,80.57
             197.00,80.57 184.00,83.75 184.00,83.75
             184.00,83.75 174.00,87.33 174.00,87.33
             174.00,87.33 154.00,91.50 154.00,91.50
             154.00,91.50 126.00,100.56 126.00,100.56
             111.92,105.68 96.23,107.79 83.00,115.05
             72.96,120.57 65.36,129.58 57.84,138.00
             52.77,143.68 40.34,157.93 37.03,164.00
             33.32,170.81 26.11,196.76 25.00,205.00
             25.00,205.00 23.00,205.00 23.00,205.00 Z" />
</svg>
