<?xml version="1.0" encoding="UTF-8" standalone="no"?>
<!DOCTYPE svg PUBLIC "-//W3C//DTD SVG 20010904//EN"
              "http://www.w3.org/TR/2001/REC-SVG-20010904/DTD/svg10.dtd">

<svg xmlns="http://www.w3.org/2000/svg"
     width="1.66667in" height="1.66667in"
     viewBox="0 0 500 500">
  <path id="red"
        fill="#ff0000" stroke="none" stroke-width="1"
        d="M 277.00,495.00
           C 269.81,490.96 263.96,493.12 257.09,490.25
             257.09,490.25 212.26,465.37 212.26,465.37
             212.26,465.37 200.96,456.37 200.96,456.37
             200.96,456.37 193.44,451.45 193.44,451.45
             193.44,451.45 176.59,437.75 176.59,437.75
             176.59,437.75 171.11,433.95 171.11,433.95
             171.11,433.95 157.76,422.67 157.76,422.67
             157.76,422.67 140.74,408.93 140.74,408.93
             140.74,408.93 125.67,394.55 125.67,394.55
             125.67,394.55 113.43,384.30 113.43,384.30
             113.43,384.30 104.50,374.44 104.50,374.44
             104.50,374.44 94.35,364.68 94.35,364.68
             94.35,364.68 87.83,357.02 87.83,357.02
             87.83,357.02 80.60,350.91 80.60,350.91
             70.33,341.43 60.74,330.85 52.01,319.96
             52.01,319.96 47.30,313.37 47.30,313.37
             47.30,313.37 43.32,308.79 43.32,308.79
             43.32,308.79 34.40,293.66 34.40,293.66
             34.40,293.66 25.28,278.91 25.28,278.91
             25.28,278.91 22.42,272.00 22.42,272.00
             12.80,251.92 10.48,247.78 11.01,225.00
             11.18,217.93 13.34,212.55 15.41,206.00
             15.41,206.00 19.74,191.00 19.74,191.00
             19.74,191.00 34.17,166.00 34.17,166.00
             34.17,166.00 42.32,150.00 42.32,150.00
             42.32,150.00 46.62,142.42 46.62,142.42
             49.60,136.19 52.30,129.94 56.09,124.09
             56.09,124.09 72.92,104.54 72.92,104.54
             72.92,104.54 87.17,82.45 87.17,82.45
             87.17,82.45 101.78,64.58 101.78,64.58
             101.78,64.58 118.78,40.96 118.78,40.96
             118.78,40.96 127.70,27.91 127.70,27.91
             128.98,24.57 127.15,22.09 129.74,18.02
             133.34,12.36 141.23,9.57 146.99,6.80
             146.99,6.80 154.17,2.84 154.17,2.84
             157.45,1.95 174.42,1.76 177.91,2.84
             184.40,4.44 182.30,6.98 196.00,7.00
             196.00,7.00 207.00,7.00 207.00,7.00
             216.86,7.02 226.37,9.07 236.00,10.77
             236.00,10.77 250.17,12.64 250.17,12.64
             250.17,12.64 288.28,22.58 288.28,22.58
             288.28,22.58 301.91,27.36 301.91,27.36
             301.91,27.36 308.87,30.42 308.87,30.42
             308.87,30.42 316.00,32.50 316.00,32.50
             316.00,32.50 324.08,36.41 324.08,36.41
             324.08,36.41 339.00,41.92 339.00,41.92
             339.00,41.92 351.83,45.31 351.83,45.31
             351.83,45.31 366.00,49.97 366.00,49.97
             386.11,55.88 406.16,62.40 424.17,73.29
             424.17,73.29 439.72,82.07 439.72,82.07
             446.78,86.89 452.23,92.75 458.45,98.43
             469.46,108.50 478.25,117.85 477.90,133.83
             477.77,139.70 478.44,156.42 481.00,161.00
             476.10,170.30 482.47,178.86 479.00,187.00
             481.57,190.49 481.50,192.50 479.00,196.00
             479.00,196.00 481.00,198.00 481.00,198.00
             480.36,199.22 480.01,199.52 479.54,201.00
             479.54,201.00 475.50,224.00 475.50,224.00
             475.50,224.00 471.06,238.58 471.06,238.58
             471.06,238.58 468.17,254.00 468.17,254.00
             468.17,254.00 460.39,278.17 460.39,278.17
             458.27,284.26 459.14,296.60 454.00,300.00
             454.00,300.00 450.00,323.00 450.00,323.00
             447.32,326.64 446.67,340.57 445.42,346.17
             445.42,346.17 440.54,359.91 440.54,359.91
             440.54,359.91 436.17,379.00 436.17,379.00
             434.31,390.35 436.28,401.98 431.42,412.83
             428.73,418.83 424.23,423.73 420.46,429.01
             411.11,442.12 401.92,454.48 388.61,463.79
             388.61,463.79 382.18,468.02 382.18,468.02
             378.69,470.61 373.45,475.57 368.43,473.39
             365.60,472.16 363.28,458.61 362.00,455.00
             362.00,455.00 358.40,442.00 358.40,442.00
             358.40,442.00 354.16,431.00 354.16,431.00
             354.16,431.00 349.91,413.09 349.91,413.09
             347.93,406.42 344.34,398.76 344.00,392.00
             344.00,392.00 341.00,392.00 341.00,392.00
             339.80,382.85 339.28,385.01 344.01,377.74
             344.01,377.74 348.77,369.00 348.77,369.00
             348.77,369.00 355.42,354.00 355.42,354.00
             358.32,347.38 357.46,345.81 359.36,340.00
             359.36,340.00 363.66,329.00 363.66,329.00
             363.66,329.00 368.85,309.17 368.85,309.17
             368.85,309.17 370.60,296.00 370.60,296.00
             371.88,292.58 374.69,291.26 377.00,287.00
             388.12,283.97 393.80,270.52 389.66,260.00
             387.47,254.44 382.92,250.14 378.00,247.00
             378.40,245.47 379.21,243.05 378.84,241.48
             377.46,235.57 365.36,236.23 361.00,237.21
             355.11,238.55 352.88,240.73 348.00,244.00
             342.80,247.48 331.47,254.85 329.03,260.75
             328.61,262.53 328.77,265.10 329.03,267.01
             328.85,274.06 330.86,279.51 336.26,284.39
             336.26,284.39 342.67,289.33 342.67,289.33
             342.67,289.33 347.59,295.63 347.59,295.63
             348.95,297.17 350.81,298.39 351.78,300.21
             353.14,302.75 352.95,308.92 353.13,312.00
             354.09,328.23 350.60,336.15 345.57,350.99
             343.49,357.12 339.85,364.87 333.00,366.00
             331.22,352.90 320.73,333.38 314.93,320.99
             314.93,320.99 310.24,311.83 310.24,311.83
             308.24,307.75 307.87,303.68 305.00,300.00
             305.00,300.00 307.00,296.00 307.00,296.00
             307.00,296.00 304.20,286.00 304.20,286.00
             304.20,286.00 301.46,274.00 301.46,274.00
             301.46,274.00 300.53,266.17 300.53,266.17
             300.53,266.17 298.38,259.96 298.38,259.96
             298.38,259.96 291.06,233.00 291.06,233.00
             291.06,233.00 284.89,218.00 284.89,218.00
             284.89,218.00 284.00,196.00 284.00,196.00
             293.73,190.40 297.81,188.60 303.44,178.00
             304.12,176.71 305.36,174.55 305.62,173.17
             305.95,171.34 304.47,167.43 304.17,165.00
             301.83,145.96 300.13,144.03 286.28,130.80
             281.98,126.69 276.42,121.58 270.00,121.34
             264.03,121.11 258.74,125.61 254.00,128.46
             249.54,131.14 248.10,129.63 242.01,134.25
             230.35,143.10 233.38,155.54 236.44,168.00
             238.49,176.37 242.17,183.78 248.51,189.67
             252.53,193.40 258.77,195.49 260.37,199.21
             261.39,201.61 261.79,212.96 262.13,216.00
             262.13,216.00 263.75,223.00 263.75,223.00
             263.75,223.00 267.44,242.00 267.44,242.00
             267.44,242.00 270.34,251.00 270.34,251.00
             270.34,251.00 273.39,264.00 273.39,264.00
             273.39,264.00 276.31,273.00 276.31,273.00
             276.31,273.00 279.84,288.00 279.84,288.00
             282.17,296.18 284.88,294.01 285.00,307.00
             267.16,305.26 247.05,292.16 233.00,281.66
             226.99,277.16 218.77,271.35 216.20,263.99
             213.26,255.56 220.41,256.29 219.98,244.00
             219.83,239.76 219.26,239.59 218.05,235.83
             214.62,225.16 213.61,226.11 205.00,219.93
             205.00,219.93 197.72,214.52 197.72,214.52
             195.57,213.18 186.53,209.48 184.00,208.72
             171.86,205.10 157.13,206.66 153.83,221.42
             153.83,221.42 154.70,245.00 154.70,245.00
             154.70,245.00 153.84,253.00 153.84,253.00
             153.53,257.38 154.05,267.98 155.27,271.99
             156.53,276.10 160.87,279.92 163.00,284.00
             163.00,284.00 165.00,284.00 165.00,284.00
             167.64,281.76 168.65,284.01 171.72,282.95
             174.31,282.06 176.25,279.04 180.17,278.38
             182.34,278.01 186.99,278.16 188.96,279.10
             188.96,279.10 208.42,294.94 208.42,294.94
             215.60,300.04 234.39,308.51 243.00,311.58
             247.87,313.31 253.91,315.88 259.00,316.00
             260.25,318.02 261.03,319.56 263.18,320.83
             263.18,320.83 287.17,326.54 287.17,326.54
             290.14,327.28 293.06,326.69 295.27,329.31
             297.05,331.43 297.53,336.20 298.48,339.00
             298.48,339.00 304.96,353.96 304.96,353.96
             304.96,353.96 308.12,360.17 308.12,360.17
             308.12,360.17 312.19,371.00 312.19,371.00
             312.19,371.00 325.71,403.00 325.71,403.00
             329.13,413.14 326.78,415.14 330.37,425.83
             330.37,425.83 334.91,437.96 334.91,437.96
             334.91,437.96 338.03,444.17 338.03,444.17
             338.03,444.17 342.26,460.00 342.26,460.00
             342.26,460.00 351.91,479.00 351.91,479.00
             353.34,485.94 344.15,485.72 335.72,488.74
             335.72,488.74 325.00,491.37 325.00,491.37
             310.91,494.84 308.01,496.13 292.99,495.78
             288.79,495.69 281.37,495.37 278.00,493.00
             278.00,493.00 277.00,495.00 277.00,495.00 Z
           M 163.00,219.00
           C 163.00,219.00 165.00,219.00 165.00,219.00
             165.00,219.00 163.00,223.00 163.00,223.00
             163.00,223.00 163.00,219.00 163.00,219.00 Z
           M 342.00,436.00
           C 342.00,436.00 346.00,433.00 346.00,433.00
             344.87,435.71 344.87,435.45 342.00,436.00 Z" />
</svg>
