<?xml version="1.0" encoding="UTF-8" standalone="no"?>
<!DOCTYPE svg PUBLIC "-//W3C//DTD SVG 20010904//EN" "http://www.w3.org/TR/2001/REC-SVG-20010904/DTD/svg10.dtd">

<svg xmlns="http://www.w3.org/2000/svg" width="5.55556in" height="5.55556in" viewBox="0 0 500 500">
  <path id="Gopher" fill="#78d5fd" stroke="none" stroke-width="1" d="M 96.00,119.00
           C 100.34,110.99 118.06,95.80 125.80,89.56
             125.80,89.56 136.09,80.23 136.09,80.23
             136.09,80.23 162.00,68.14 162.00,68.14
             174.81,62.43 187.20,55.39 200.83,51.73
             200.83,51.73 206.08,50.71 206.08,50.71
             206.08,50.71 218.28,46.34 218.28,46.34
             223.30,44.72 239.41,43.04 245.00,43.00
             245.00,43.00 261.00,43.00 261.00,43.00
             263.23,43.03 267.71,43.65 269.41,42.23
             270.93,40.96 271.95,35.17 272.59,33.00
             274.47,26.63 276.33,22.63 280.19,17.18
             283.17,12.98 285.79,11.31 290.00,8.51
             301.63,0.76 311.69,-0.62 325.00,3.75
             336.24,7.43 353.54,21.21 360.25,31.01
             363.91,36.36 365.93,42.24 368.76,48.00
             371.27,53.11 377.29,66.75 377.76,72.00
             378.08,75.53 376.34,87.60 375.45,91.00
             373.99,96.54 371.02,97.17 372.89,102.09
             377.64,114.61 391.39,127.82 397.74,140.00
             397.74,140.00 410.31,168.00 410.31,168.00
             410.31,168.00 431.05,214.00 431.05,214.00
             431.05,214.00 435.94,231.00 435.94,231.00
             435.94,231.00 447.14,259.00 447.14,259.00
             447.14,259.00 451.85,278.00 451.85,278.00
             451.85,278.00 460.98,298.91 460.98,298.91
             462.27,302.48 466.04,318.50 466.13,322.00
             466.13,322.00 466.13,330.00 466.13,330.00
             460.12,326.55 457.69,321.08 452.00,316.51
             442.57,308.95 432.29,301.19 421.00,296.60
             421.00,296.60 411.00,293.11 411.00,293.11
             407.45,291.73 404.83,290.20 401.00,289.47
             391.47,287.64 384.26,289.86 376.00,294.21
             373.57,295.49 371.46,296.22 369.17,297.92
             369.17,297.92 362.96,303.72 362.96,303.72
             354.08,311.80 349.19,316.70 344.66,328.00
             342.04,334.55 339.75,338.62 340.09,346.00
             340.40,352.74 341.35,359.46 343.00,366.00
             335.52,367.59 334.47,369.57 328.00,372.52
             328.00,372.52 294.42,387.58 294.42,387.58
             288.76,389.52 280.69,393.50 279.46,400.00
             278.44,405.37 285.72,414.59 290.01,417.26
             296.38,421.22 308.08,414.30 314.00,411.37
             316.33,410.21 321.87,407.42 324.30,409.04
             325.84,410.06 327.84,415.95 328.88,418.00
             330.51,421.18 331.95,423.31 332.49,427.00
             332.89,429.69 332.42,432.40 331.71,435.00
             328.44,447.02 317.35,447.12 307.00,447.00
             303.81,446.96 293.57,446.08 291.00,444.84
             286.25,442.55 282.56,437.32 279.79,433.00
             277.92,430.09 274.68,425.18 273.68,422.00
             272.70,418.85 273.10,415.28 272.96,412.00
             272.42,399.03 273.39,392.95 279.17,381.00
             283.84,371.35 292.81,367.78 295.85,360.00
             299.35,351.07 295.26,346.99 292.68,340.00
             290.78,334.86 288.13,328.08 281.00,329.47
             278.93,329.87 276.83,331.28 275.00,332.31
             263.53,338.71 258.61,345.68 252.28,357.00
             252.28,357.00 242.10,377.09 242.10,377.09
             241.94,378.57 242.00,381.39 242.10,383.00
             242.10,383.00 242.10,411.00 242.10,411.00
             242.01,413.99 242.00,416.04 242.68,419.00
             243.61,423.04 252.28,445.24 254.46,449.00
             260.94,460.17 264.36,460.95 271.00,469.00
             254.95,479.44 240.21,483.24 223.00,489.91
             207.79,495.80 200.78,500.18 184.00,498.34
             181.06,498.02 178.04,498.00 175.28,496.82
             154.73,487.97 150.26,473.65 141.69,455.00
             141.69,455.00 127.58,424.00 127.58,424.00
             127.58,424.00 106.14,379.00 106.14,379.00
             106.14,379.00 101.49,369.04 101.49,369.04
             101.49,369.04 96.55,355.00 96.55,355.00
             96.55,355.00 92.95,347.00 92.95,347.00
             92.95,347.00 90.65,340.00 90.65,340.00
             90.65,340.00 87.59,333.00 87.59,333.00
             87.59,333.00 82.65,315.00 82.65,315.00
             82.65,315.00 67.15,283.09 67.15,283.09
             67.15,283.09 56.43,247.00 56.43,247.00
             56.43,247.00 54.69,231.05 54.69,231.05
             53.48,226.60 48.73,226.16 45.00,224.77
             37.39,221.95 34.18,220.15 28.00,214.71
             16.04,204.19 9.15,179.68 9.18,164.00
             9.19,154.66 14.48,145.14 19.99,138.00
             22.55,134.68 24.85,131.09 28.04,128.33
             31.62,125.23 36.73,122.85 41.00,120.76
             41.00,120.76 58.00,113.61 58.00,113.61
             68.91,110.81 86.09,113.92 96.00,119.00 Z
           M 330.00,237.00
           C 333.33,240.65 340.00,237.34 344.00,236.00
             356.88,231.65 370.06,226.47 376.77,214.00
             381.76,204.72 384.98,197.70 384.85,187.00
             384.85,187.00 384.85,176.00 384.85,176.00
             383.67,168.99 376.97,153.79 373.78,147.00
             371.75,142.66 369.61,136.94 367.04,133.00
             358.30,119.62 335.71,110.32 320.00,110.02
             313.43,109.89 307.40,111.56 301.00,112.36
             297.12,112.91 294.59,111.54 290.00,112.36
             283.81,113.38 270.57,120.57 266.29,125.09
             262.90,128.67 260.14,132.80 257.60,137.00
             257.60,137.00 251.98,147.00 251.98,147.00
             250.96,149.53 250.35,153.26 249.80,156.00
             249.03,159.85 247.91,164.09 248.18,168.00
             249.30,183.68 251.16,192.31 257.00,207.00
             257.00,207.00 241.00,213.55 241.00,213.55
             241.00,213.55 214.00,225.00 214.00,225.00
             213.11,220.27 212.28,219.26 210.42,215.00
             208.41,210.38 207.12,207.17 204.07,203.00
             195.55,191.31 178.28,180.99 164.00,178.46
             152.28,176.39 140.63,177.63 129.00,179.59
             118.61,181.33 103.21,185.66 95.04,192.39
             84.02,201.47 75.64,226.84 75.04,241.00
             74.30,258.48 79.26,272.51 86.74,288.00
             91.21,297.26 91.72,300.69 99.17,309.00
             105.56,316.12 118.52,324.76 127.00,329.53
             141.96,337.96 163.06,329.61 177.00,322.76
             183.29,319.66 188.66,318.71 192.00,312.00
             208.52,324.38 218.77,317.20 235.00,310.15
             239.62,308.14 243.89,304.62 249.00,305.00
             249.00,305.00 243.00,306.00 243.00,306.00
             243.75,309.59 244.35,311.03 246.68,313.96
             257.42,327.46 270.84,322.95 284.00,316.78
             295.76,311.27 305.34,306.27 301.00,291.00
             301.00,291.00 288.00,296.00 288.00,296.00
             292.21,294.80 300.48,291.00 303.91,288.37
             308.99,284.47 321.43,270.02 324.05,264.00
             328.66,253.42 328.08,247.31 330.00,237.00 Z
           M 353.00,166.00
           C 353.00,166.00 354.00,166.00 354.00,166.00
             354.00,166.00 353.00,167.00 353.00,167.00
             353.00,167.00 353.00,166.00 353.00,166.00 Z
           M 334.00,173.00
           C 334.00,173.00 335.00,173.00 335.00,173.00
             335.00,173.00 334.00,174.00 334.00,174.00
             334.00,174.00 334.00,173.00 334.00,173.00 Z
           M 367.00,173.00
           C 367.00,173.00 368.00,173.00 368.00,173.00
             368.00,173.00 367.00,174.00 367.00,174.00
             367.00,174.00 367.00,173.00 367.00,173.00 Z
           M 331.00,177.00
           C 331.00,177.00 332.00,177.00 332.00,177.00
             332.00,177.00 331.00,178.00 331.00,178.00
             331.00,178.00 331.00,177.00 331.00,177.00 Z
           M 329.00,180.00
           C 329.00,180.00 330.00,180.00 330.00,180.00
             330.00,180.00 329.00,181.00 329.00,181.00
             329.00,181.00 329.00,180.00 329.00,180.00 Z
           M 374.00,185.00
           C 374.00,185.00 375.00,185.00 375.00,185.00
             375.00,185.00 374.00,186.00 374.00,186.00
             374.00,186.00 374.00,185.00 374.00,185.00 Z
           M 324.00,190.00
           C 324.00,190.00 325.00,190.00 325.00,190.00
             325.00,190.00 324.00,191.00 324.00,191.00
             324.00,191.00 324.00,190.00 324.00,190.00 Z
           M 374.00,196.00
           C 374.00,196.00 375.00,196.00 375.00,196.00
             375.00,196.00 374.00,197.00 374.00,197.00
             374.00,197.00 374.00,196.00 374.00,196.00 Z
           M 324.00,199.00
           C 324.00,199.00 325.00,199.00 325.00,199.00
             325.00,199.00 324.00,200.00 324.00,200.00
             324.00,200.00 324.00,199.00 324.00,199.00 Z
           M 373.00,199.00
           C 373.00,199.00 374.00,199.00 374.00,199.00
             374.00,199.00 373.00,200.00 373.00,200.00
             373.00,200.00 373.00,199.00 373.00,199.00 Z
           M 289.00,200.00
           C 289.00,200.00 294.00,201.00 294.00,201.00
             294.00,201.00 289.00,200.00 289.00,200.00 Z
           M 281.00,201.00
           C 281.00,201.00 286.00,202.00 286.00,202.00
             286.00,202.00 281.00,201.00 281.00,201.00 Z
           M 271.00,203.00
           C 271.00,203.00 272.00,203.00 272.00,203.00
             272.00,203.00 271.00,204.00 271.00,204.00
             271.00,204.00 271.00,203.00 271.00,203.00 Z
           M 307.00,203.00
           C 307.00,203.00 308.00,203.00 308.00,203.00
             308.00,203.00 307.00,204.00 307.00,204.00
             307.00,204.00 307.00,203.00 307.00,203.00 Z
           M 263.00,205.00
           C 263.00,205.00 268.00,205.00 268.00,205.00
             268.00,205.00 263.00,205.00 263.00,205.00 Z
           M 309.00,204.00
           C 309.00,204.00 310.00,204.00 310.00,204.00
             310.00,204.00 309.00,205.00 309.00,205.00
             309.00,205.00 309.00,204.00 309.00,204.00 Z
           M 261.00,206.00
           C 261.00,206.00 262.00,206.00 262.00,206.00
             262.00,206.00 261.00,207.00 261.00,207.00
             261.00,207.00 261.00,206.00 261.00,206.00 Z
           M 312.00,206.00
           C 316.85,209.51 324.86,218.60 324.00,225.00
             324.00,225.00 312.00,206.00 312.00,206.00 Z
           M 365.00,214.00
           C 365.00,214.00 363.00,217.00 363.00,217.00
             363.00,217.00 363.00,216.00 363.00,216.00
             363.00,216.00 365.00,214.00 365.00,214.00 Z
           M 331.00,215.00
           C 331.00,215.00 332.00,215.00 332.00,215.00
             332.00,215.00 331.00,216.00 331.00,216.00
             331.00,216.00 331.00,215.00 331.00,215.00 Z
           M 360.00,218.00
           C 360.00,218.00 361.00,218.00 361.00,218.00
             361.00,218.00 360.00,219.00 360.00,219.00
             360.00,219.00 360.00,218.00 360.00,218.00 Z
           M 358.00,219.00
           C 358.00,219.00 359.00,219.00 359.00,219.00
             359.00,219.00 358.00,220.00 358.00,220.00
             358.00,220.00 358.00,219.00 358.00,219.00 Z
           M 356.00,220.00
           C 356.00,220.00 357.00,220.00 357.00,220.00
             357.00,220.00 356.00,221.00 356.00,221.00
             356.00,221.00 356.00,220.00 356.00,220.00 Z
           M 340.00,222.00
           C 340.00,222.00 341.00,222.00 341.00,222.00
             341.00,222.00 340.00,223.00 340.00,223.00
             340.00,223.00 340.00,222.00 340.00,222.00 Z
           M 351.00,222.00
           C 351.00,222.00 352.00,222.00 352.00,222.00
             352.00,222.00 351.00,223.00 351.00,223.00
             351.00,223.00 351.00,222.00 351.00,222.00 Z
           M 325.00,226.00
           C 325.00,226.00 326.00,226.00 326.00,226.00
             326.00,226.00 325.00,227.00 325.00,227.00
             325.00,227.00 325.00,226.00 325.00,226.00 Z
           M 211.00,227.00
           C 211.00,227.00 212.00,227.00 212.00,227.00
             212.00,227.00 211.00,228.00 211.00,228.00
             211.00,228.00 211.00,227.00 211.00,227.00 Z
           M 326.00,228.00
           C 326.00,228.00 327.00,228.00 327.00,228.00
             327.00,228.00 326.00,229.00 326.00,229.00
             326.00,229.00 326.00,228.00 326.00,228.00 Z
           M 327.00,230.00
           C 328.67,232.59 328.95,233.02 328.00,236.00
             328.00,236.00 327.00,230.00 327.00,230.00 Z
           M 206.00,232.00
           C 206.00,232.00 207.00,232.00 207.00,232.00
             207.00,232.00 206.00,233.00 206.00,233.00
             206.00,233.00 206.00,232.00 206.00,232.00 Z
           M 198.00,240.00
           C 198.00,240.00 199.00,240.00 199.00,240.00
             199.00,240.00 198.00,241.00 198.00,241.00
             198.00,241.00 198.00,240.00 198.00,240.00 Z
           M 196.00,241.00
           C 196.00,241.00 197.00,242.00 197.00,242.00
             197.00,242.00 188.00,248.32 188.00,248.32
             188.00,248.32 179.00,256.00 179.00,256.00
             184.24,248.69 188.74,245.84 196.00,241.00 Z
           M 121.00,257.00
           C 121.00,257.00 122.00,257.00 122.00,257.00
             122.00,257.00 121.00,258.00 121.00,258.00
             121.00,258.00 121.00,257.00 121.00,257.00 Z
           M 178.00,257.00
           C 178.00,257.00 179.00,257.00 179.00,257.00
             179.00,257.00 178.00,258.00 178.00,258.00
             178.00,258.00 178.00,257.00 178.00,257.00 Z
           M 139.00,259.00
           C 139.00,259.00 140.00,259.00 140.00,259.00
             140.00,259.00 139.00,260.00 139.00,260.00
             139.00,260.00 139.00,259.00 139.00,259.00 Z
           M 177.00,259.00
           C 177.00,259.00 176.00,263.00 176.00,263.00
             176.00,263.00 177.00,259.00 177.00,259.00 Z
           M 114.00,260.00
           C 114.00,260.00 115.00,260.00 115.00,260.00
             115.00,260.00 114.00,261.00 114.00,261.00
             114.00,261.00 114.00,260.00 114.00,260.00 Z
           M 144.00,261.00
           C 144.00,261.00 145.00,261.00 145.00,261.00
             145.00,261.00 144.00,262.00 144.00,262.00
             144.00,262.00 144.00,261.00 144.00,261.00 Z
           M 147.00,262.00
           C 147.00,262.00 148.00,262.00 148.00,262.00
             148.00,262.00 147.00,263.00 147.00,263.00
             147.00,263.00 147.00,262.00 147.00,262.00 Z
           M 149.00,263.00
           C 149.00,263.00 150.00,263.00 150.00,263.00
             150.00,263.00 149.00,264.00 149.00,264.00
             149.00,264.00 149.00,263.00 149.00,263.00 Z
           M 151.00,264.00
           C 151.00,264.00 152.00,264.00 152.00,264.00
             152.00,264.00 151.00,265.00 151.00,265.00
             151.00,265.00 151.00,264.00 151.00,264.00 Z
           M 102.00,269.00
           C 102.00,269.00 103.00,269.00 103.00,269.00
             103.00,269.00 102.00,270.00 102.00,270.00
             102.00,270.00 102.00,269.00 102.00,269.00 Z
           M 174.00,270.00
           C 174.00,270.00 174.00,277.00 174.00,277.00
             174.00,277.00 174.00,270.00 174.00,270.00 Z
           M 100.00,272.00
           C 100.00,272.00 101.00,272.00 101.00,272.00
             101.00,272.00 100.00,273.00 100.00,273.00
             100.00,273.00 100.00,272.00 100.00,272.00 Z
           M 99.00,275.00
           C 99.00,275.00 100.00,275.00 100.00,275.00
             100.00,275.00 99.00,276.00 99.00,276.00
             99.00,276.00 99.00,275.00 99.00,275.00 Z
           M 98.00,282.00
           C 98.00,282.00 99.00,282.00 99.00,282.00
             99.00,282.00 98.00,283.00 98.00,283.00
             98.00,283.00 98.00,282.00 98.00,282.00 Z
           M 176.00,282.00
           C 176.00,282.00 177.00,282.00 177.00,282.00
             177.00,282.00 176.00,283.00 176.00,283.00
             176.00,283.00 176.00,282.00 176.00,282.00 Z
           M 167.00,284.00
           C 167.00,284.00 168.00,284.00 168.00,284.00
             168.00,284.00 167.00,285.00 167.00,285.00
             167.00,285.00 167.00,284.00 167.00,284.00 Z
           M 168.00,287.00
           C 168.00,287.00 169.00,287.00 169.00,287.00
             169.00,287.00 168.00,288.00 168.00,288.00
             168.00,288.00 168.00,287.00 168.00,287.00 Z
           M 99.00,289.00
           C 99.00,289.00 100.00,289.00 100.00,289.00
             100.00,289.00 99.00,290.00 99.00,290.00
             99.00,290.00 99.00,289.00 99.00,289.00 Z
           M 179.00,290.00
           C 179.00,290.00 181.00,296.00 181.00,296.00
             181.00,296.00 179.00,290.00 179.00,290.00 Z
           M 100.00,293.00
           C 100.00,293.00 101.00,293.00 101.00,293.00
             101.00,293.00 100.00,294.00 100.00,294.00
             100.00,294.00 100.00,293.00 100.00,293.00 Z
           M 182.00,297.00
           C 182.00,297.00 183.00,297.00 183.00,297.00
             183.00,297.00 182.00,298.00 182.00,298.00
             182.00,298.00 182.00,297.00 182.00,297.00 Z
           M 286.00,297.00
           C 286.00,297.00 287.00,297.00 287.00,297.00
             287.00,297.00 286.00,298.00 286.00,298.00
             286.00,298.00 286.00,297.00 286.00,297.00 Z
           M 273.00,302.00
           C 273.00,302.00 285.00,299.00 285.00,299.00
             281.09,300.66 277.26,303.15 273.00,302.00 Z
           M 183.00,299.00
           C 183.00,299.00 184.00,299.00 184.00,299.00
             184.00,299.00 183.00,300.00 183.00,300.00
             183.00,300.00 183.00,299.00 183.00,299.00 Z
           M 103.00,300.00
           C 103.00,300.00 104.00,300.00 104.00,300.00
             104.00,300.00 103.00,301.00 103.00,301.00
             103.00,301.00 103.00,300.00 103.00,300.00 Z
           M 184.00,301.00
           C 184.00,301.00 192.00,311.00 192.00,311.00
             187.41,307.63 186.34,306.13 184.00,301.00 Z
           M 104.00,302.00
           C 104.00,302.00 105.00,302.00 105.00,302.00
             105.00,302.00 104.00,303.00 104.00,303.00
             104.00,303.00 104.00,302.00 104.00,302.00 Z
           M 251.00,303.00
           C 251.00,303.00 262.00,304.00 262.00,304.00
             262.00,304.00 251.00,303.00 251.00,303.00 Z
           M 265.00,303.00
           C 265.00,303.00 272.00,304.00 272.00,304.00
             272.00,304.00 265.00,303.00 265.00,303.00 Z
           M 105.00,304.00
           C 105.00,304.00 106.00,304.00 106.00,304.00
             106.00,304.00 105.00,305.00 105.00,305.00
             105.00,305.00 105.00,304.00 105.00,304.00 Z
           M 168.00,305.00
           C 168.00,305.00 169.00,305.00 169.00,305.00
             169.00,305.00 168.00,306.00 168.00,306.00
             168.00,306.00 168.00,305.00 168.00,305.00 Z
           M 107.00,307.00
           C 107.00,307.00 108.00,307.00 108.00,307.00
             108.00,307.00 107.00,308.00 107.00,308.00
             107.00,308.00 107.00,307.00 107.00,307.00 Z
           M 166.00,309.00
           C 166.00,309.00 167.00,309.00 167.00,309.00
             167.00,309.00 166.00,310.00 166.00,310.00
             166.00,310.00 166.00,309.00 166.00,309.00 Z
           M 161.00,314.00
           C 161.00,314.00 162.00,314.00 162.00,314.00
             162.00,314.00 161.00,315.00 161.00,315.00
             161.00,315.00 161.00,314.00 161.00,314.00 Z
           M 117.00,316.00
           C 117.00,316.00 118.00,316.00 118.00,316.00
             118.00,316.00 117.00,317.00 117.00,317.00
             117.00,317.00 117.00,316.00 117.00,316.00 Z
           M 153.00,318.00
           C 153.00,318.00 154.00,318.00 154.00,318.00
             154.00,318.00 153.00,319.00 153.00,319.00
             153.00,319.00 153.00,318.00 153.00,318.00 Z
           M 122.00,319.00
           C 122.00,319.00 123.00,319.00 123.00,319.00
             123.00,319.00 122.00,320.00 122.00,320.00
             122.00,320.00 122.00,319.00 122.00,319.00 Z
           M 145.00,320.00
           C 145.00,320.00 146.00,320.00 146.00,320.00
             146.00,320.00 145.00,321.00 145.00,321.00
             145.00,321.00 145.00,320.00 145.00,320.00 Z
           M 127.00,321.00
           C 127.00,321.00 128.00,321.00 128.00,321.00
             128.00,321.00 127.00,322.00 127.00,322.00
             127.00,322.00 127.00,321.00 127.00,321.00 Z
           M 139.00,321.00
           C 139.00,321.00 140.00,321.00 140.00,321.00
             140.00,321.00 139.00,322.00 139.00,322.00
             139.00,322.00 139.00,321.00 139.00,321.00 Z
           M 133.00,322.00
           C 133.00,322.00 134.00,322.00 134.00,322.00
             134.00,322.00 133.00,323.00 133.00,323.00
             133.00,323.00 133.00,322.00 133.00,322.00 Z
           M 395.00,322.53
           C 405.93,321.26 426.80,330.49 433.32,339.29
             433.32,339.29 441.13,356.00 441.13,356.00
             442.67,360.08 445.89,369.86 445.03,374.00
             443.94,379.17 439.32,380.82 435.58,383.75
             435.58,383.75 422.00,394.32 422.00,394.32
             417.89,396.97 405.81,401.96 401.00,401.45
             393.79,400.68 382.09,393.35 377.69,387.71
             376.17,385.76 372.92,378.61 371.71,376.00
             370.40,373.19 368.81,370.08 368.34,367.00
             367.85,363.73 368.90,359.60 368.99,356.00
             369.18,348.24 369.76,341.83 374.33,335.09
             379.35,327.67 386.71,324.69 395.00,322.53 Z
           M 351.00,398.00
           C 357.18,396.63 355.94,399.46 359.80,405.00
             359.80,405.00 376.00,423.00 376.00,423.00
             376.00,423.00 363.00,428.00 363.00,428.00
             362.37,415.06 355.54,408.87 351.00,398.00 Z" />
  <path id="White" fill="white" stroke="none" stroke-width="1" d="M 318.00,111.59
           C 333.76,111.72 350.37,117.06 361.70,128.43
             366.75,133.49 370.55,142.40 373.42,149.00
             380.76,165.82 384.22,169.86 384.00,189.00
             383.88,199.30 376.76,215.88 368.96,222.53
             363.44,227.24 359.19,228.27 353.00,231.26
             348.39,233.49 339.20,237.60 334.11,237.57
             330.49,237.54 330.24,234.81 329.26,232.00
             327.81,227.89 323.82,219.68 321.53,216.00
             313.22,202.61 303.81,199.83 289.00,200.00
             281.02,200.09 280.56,201.53 274.00,202.68
             274.00,202.68 267.00,203.68 267.00,203.68
             264.69,204.20 260.61,206.07 258.51,204.88
             256.32,203.63 254.83,197.41 254.14,195.00
             249.81,179.90 249.82,180.73 250.00,165.00
             250.17,151.09 258.67,132.74 269.17,123.68
             273.03,120.35 284.04,115.17 289.00,113.76
             294.11,112.37 296.05,113.89 300.00,113.76
             300.00,113.76 308.00,112.30 308.00,112.30
             308.00,112.30 318.00,111.59 318.00,111.59 Z
           M 346.00,165.33
           C 342.91,166.07 340.67,166.72 338.04,168.65
             331.66,173.31 322.70,187.83 323.21,196.00
             323.42,199.38 324.96,203.84 326.20,207.00
             330.21,217.15 336.84,225.65 349.00,223.68
             361.38,221.67 366.76,215.69 371.78,205.00
             376.73,194.44 377.78,184.57 369.66,175.04
             365.41,170.05 363.43,170.19 358.00,167.97
             352.57,165.76 352.20,164.78 346.00,165.33 Z
           M 191.00,314.00
           C 179.29,321.14 159.80,330.83 146.00,331.00
             146.00,331.00 139.00,331.00 139.00,331.00
             130.20,330.89 127.29,328.22 120.00,323.80
             104.07,314.12 97.58,307.78 89.25,291.00
             85.27,282.99 79.49,270.59 77.67,262.00
             73.89,244.25 76.17,228.30 83.69,212.00
             86.12,206.75 88.55,201.47 92.33,197.01
             100.64,187.21 117.68,182.63 130.00,180.61
             142.84,178.74 155.11,177.44 168.00,180.61
             180.06,183.37 196.22,193.90 203.37,204.00
             205.06,206.39 206.91,210.29 208.24,213.00
             209.27,215.08 211.56,219.88 212.04,221.99
             213.10,226.66 208.45,229.69 205.74,232.96
             197.96,242.38 183.83,245.04 176.67,259.00
             174.81,262.63 172.95,269.94 173.21,274.00
             173.65,280.90 180.50,296.95 184.09,303.00
             186.54,307.13 188.95,309.44 191.00,314.00 Z
           M 123.00,256.33
           C 114.91,258.26 102.87,265.03 99.61,273.00
             90.95,294.22 113.96,326.15 137.00,322.56
             146.52,321.08 160.18,318.96 166.44,310.96
             170.63,305.61 170.72,298.45 170.05,292.00
             168.23,274.74 158.41,265.92 143.00,259.94
             134.15,256.51 133.03,255.21 123.00,256.33 Z
           M 344.00,367.00
           C 341.58,357.40 341.96,352.65 342.00,343.00
             342.08,326.83 351.55,314.37 363.00,303.93
             368.18,299.21 372.35,295.62 379.00,293.04
             381.55,292.05 391.20,290.23 394.00,290.10
             405.90,289.56 426.93,299.58 437.00,305.82
             446.56,311.74 458.74,320.39 463.00,331.00
             463.00,331.00 466.00,330.00 466.00,330.00
             466.00,330.00 473.46,348.00 473.46,348.00
             473.46,348.00 474.38,354.00 474.38,354.00
             476.91,367.45 476.13,364.19 474.38,377.00
             474.38,377.00 473.52,386.72 473.52,386.72
             473.52,386.72 468.44,396.00 468.44,396.00
             465.48,402.53 462.91,409.48 456.82,413.87
             452.56,416.93 445.03,418.69 440.09,420.65
             440.09,420.65 434.83,423.19 434.83,423.19
             421.40,428.42 410.39,430.17 396.00,430.00
             389.82,429.92 378.56,428.00 377.00,421.00
             370.61,417.98 365.50,411.65 361.39,406.00
             356.43,399.18 357.51,396.25 350.00,397.00
             350.00,397.00 355.75,408.00 355.75,408.00
             360.81,418.09 367.54,434.69 365.54,446.00
             363.15,459.49 356.29,462.69 346.15,470.44
             341.20,474.22 332.18,479.69 326.00,480.74
             321.42,481.51 315.14,479.26 310.00,479.04
             300.13,478.61 290.14,478.11 281.00,473.77
             271.43,469.22 260.73,459.17 255.52,450.00
             255.52,450.00 249.60,436.00 249.60,436.00
             245.94,426.86 244.02,424.11 243.90,414.00
             243.90,414.00 243.90,385.00 243.90,385.00
             243.90,385.00 243.90,376.00 243.90,376.00
             244.20,373.56 248.17,366.58 249.52,364.00
             253.04,357.21 254.08,353.67 258.92,347.00
             264.30,339.59 271.20,331.85 281.00,331.11
             283.32,330.93 285.83,331.10 287.73,332.60
             289.59,334.07 293.54,342.49 294.52,345.00
             295.85,348.39 296.12,351.40 295.96,355.00
             295.49,365.78 287.09,369.21 281.16,377.04
             275.77,384.15 276.46,386.41 274.22,394.00
             272.36,400.27 271.10,399.43 271.00,407.00
             270.84,419.57 273.33,424.56 280.38,435.00
             282.65,438.36 288.28,444.78 292.04,446.26
             293.93,447.01 296.90,447.02 299.00,447.28
             311.80,448.86 330.99,448.37 333.34,432.00
             333.95,427.75 332.94,424.82 331.21,421.00
             329.93,418.17 326.25,409.38 323.62,408.23
             321.07,407.12 316.39,410.10 314.00,411.22
             314.00,411.22 304.00,414.83 304.00,414.83
             297.78,417.33 292.96,419.82 287.21,414.83
             281.81,409.70 277.47,400.31 283.28,394.22
             286.91,390.41 293.33,389.48 298.00,387.10
             298.00,387.10 312.00,380.68 312.00,380.68
             321.67,376.20 333.60,368.88 344.00,367.00 Z
           M 244.00,307.00
           C 244.00,307.00 273.00,304.32 273.00,304.32
             273.00,304.32 300.00,293.00 300.00,293.00
             303.46,305.30 294.69,310.70 285.00,315.30
             271.79,321.56 259.82,326.98 248.30,313.96
             246.19,311.57 245.23,309.89 244.00,307.00 Z
           M 397.00,321.39
           C 375.82,324.65 368.32,338.04 366.77,358.00
             366.78,360.92 366.04,364.18 366.77,367.00
             367.26,370.73 370.76,376.37 372.58,380.00
             372.58,380.00 376.69,387.83 376.69,387.83
             382.34,395.35 394.37,402.76 404.00,401.90
             409.04,401.45 414.47,398.45 419.00,396.26
             428.86,391.49 435.83,389.64 442.28,380.27
             443.70,378.21 445.20,376.48 445.86,373.99
             447.11,369.29 443.06,357.48 440.99,353.00
             438.76,348.18 435.21,339.80 431.79,336.09
             425.20,328.95 406.76,321.42 397.00,321.39 Z
           M 278.00,493.00
           C 278.00,493.00 288.00,494.00 288.00,494.00
             283.84,495.18 281.62,495.67 278.00,493.00 Z" />
  <path id="Muzzle" fill="#c9b9bd" stroke="none" stroke-width="1" d="M 265.00,206.00
           C 265.00,206.00 275.00,204.48 275.00,204.48
             275.00,204.48 282.00,202.52 282.00,202.52
             288.99,201.03 300.41,201.32 307.00,204.21
             313.93,207.25 317.58,212.64 321.14,219.00
             329.28,233.55 330.26,241.06 325.16,257.00
             324.31,259.67 323.22,263.65 321.93,266.00
             318.08,273.02 305.76,286.34 299.00,290.53
             294.58,293.28 289.73,295.17 285.00,297.30
             280.40,299.38 277.04,301.11 272.00,302.18
             265.97,303.46 259.20,302.92 253.00,303.00
             234.53,303.25 219.32,324.04 200.00,315.47
             189.82,310.96 185.93,303.68 181.72,294.00
             179.91,289.84 175.67,279.80 175.41,275.58
             174.57,261.73 181.07,252.89 192.00,245.35
             195.63,242.84 197.76,241.35 202.00,240.00
             202.47,249.97 207.03,260.60 218.00,262.66
             222.46,263.50 234.69,260.40 238.83,258.60
             238.83,258.60 246.01,254.18 246.01,254.18
             259.81,247.16 255.91,250.53 268.58,240.04
             278.18,232.08 282.02,225.26 273.79,214.04
             270.91,210.10 268.67,208.86 265.00,206.00 Z" />
  <path id="Nose" fill="#6b6e7f" stroke="none" stroke-width="1" d="M 258.00,209.55
           C 272.46,209.07 279.05,224.77 271.47,233.83
             263.42,243.44 254.01,247.74 243.00,252.77
             237.91,255.09 229.43,258.89 224.00,259.52
             208.74,261.29 200.09,243.69 208.43,233.04
             211.67,228.90 217.35,226.55 222.00,224.25
             228.21,221.17 252.20,210.73 258.00,209.55 Z" />
</svg>
