<?xml version="1.0" encoding="UTF-8" standalone="no"?>
<!DOCTYPE svg PUBLIC "-//W3C//DTD SVG 20010904//EN"
              "http://www.w3.org/TR/2001/REC-SVG-20010904/DTD/svg10.dtd">

<svg xmlns="http://www.w3.org/2000/svg"
     width="1.66667in" height="1.66667in"
     viewBox="0 0 500 500">
  <path id="green"
        fill="#157a43" stroke="none" stroke-width="1"
        d="M 208.00,279.00
           C 206.65,283.69 210.36,289.38 211.61,294.00
             211.61,294.00 216.53,311.00 216.53,311.00
             216.53,311.00 221.72,331.00 221.72,331.00
             225.07,341.30 225.24,350.60 227.24,361.00
             227.24,361.00 230.10,371.00 230.10,371.00
             230.10,371.00 231.05,379.00 231.05,379.00
             231.05,379.00 233.30,393.00 233.30,393.00
             233.30,393.00 235.76,402.00 235.76,402.00
             235.76,402.00 237.73,414.83 237.73,414.83
             237.73,414.83 238.66,426.00 238.66,426.00
             238.66,426.00 243.30,443.00 243.30,443.00
             243.30,443.00 244.46,452.00 244.46,452.00
             246.32,462.49 247.91,470.53 241.38,479.98
             231.18,494.75 208.34,498.74 195.04,485.91
             182.01,473.34 172.83,448.49 168.89,431.00
             168.89,431.00 166.52,412.00 166.52,412.00
             166.52,412.00 163.22,401.00 163.22,401.00
             163.22,401.00 159.64,375.00 159.64,375.00
             159.64,375.00 158.87,353.00 158.87,353.00
             158.87,353.00 157.45,347.00 157.45,347.00
             157.45,347.00 155.63,335.00 155.63,335.00
             155.63,335.00 151.40,296.00 151.40,296.00
             151.40,296.00 148.01,285.00 148.01,285.00
             148.01,285.00 145.48,275.00 145.48,275.00
             145.48,275.00 141.22,264.00 141.22,264.00
             141.22,264.00 138.48,254.00 138.48,254.00
             138.48,254.00 134.62,244.00 134.62,244.00
             134.62,244.00 131.61,232.17 131.61,232.17
             131.61,232.17 127.44,222.00 127.44,222.00
             127.44,222.00 124.99,212.00 124.99,212.00
             124.99,212.00 121.83,205.00 121.83,205.00
             121.83,205.00 119.19,196.00 119.19,196.00
             119.19,196.00 113.66,183.00 113.66,183.00
             113.66,183.00 110.67,172.00 110.67,172.00
             110.67,172.00 107.56,165.00 107.56,165.00
             107.56,165.00 105.17,157.00 105.17,157.00
             105.17,157.00 101.96,150.00 101.96,150.00
             101.96,150.00 97.68,138.00 97.68,138.00
             97.68,138.00 94.56,131.00 94.56,131.00
             94.56,131.00 91.48,119.00 91.48,119.00
             91.48,119.00 87.97,111.00 87.97,111.00
             87.97,111.00 84.66,101.00 84.66,101.00
             84.66,101.00 74.93,71.00 74.93,71.00
             70.85,61.85 64.11,52.88 63.18,43.00
             61.47,24.85 75.19,11.58 93.00,12.01
             111.23,12.46 118.88,29.55 125.13,44.00
             125.13,44.00 129.99,56.91 129.99,56.91
             129.99,56.91 133.32,64.04 133.32,64.04
             133.32,64.04 136.97,79.00 136.97,79.00
             136.97,79.00 140.78,88.00 140.78,88.00
             140.78,88.00 143.46,97.83 143.46,97.83
             143.46,97.83 146.52,104.04 146.52,104.04
             146.52,104.04 152.00,121.00 152.00,121.00
             152.00,121.00 159.70,140.00 159.70,140.00
             159.70,140.00 164.68,156.00 164.68,156.00
             167.13,162.47 171.11,170.14 172.00,177.00
             188.66,165.99 195.10,158.84 216.00,155.76
             224.22,154.41 230.90,155.24 239.00,155.76
             247.12,156.47 247.73,155.29 257.00,157.43
             264.61,159.19 264.33,160.40 270.04,162.63
             270.04,162.63 280.00,166.17 280.00,166.17
             280.00,166.17 301.00,176.96 301.00,176.96
             301.00,176.96 313.00,183.23 313.00,183.23
             313.00,183.23 339.83,201.57 339.83,201.57
             339.83,201.57 351.67,213.02 351.67,213.02
             367.40,228.37 371.73,232.91 385.24,250.25
             385.24,250.25 390.82,257.05 390.82,257.05
             390.82,257.05 398.67,270.00 398.67,270.00
             398.67,270.00 410.95,291.04 410.95,291.04
             410.95,291.04 413.80,298.91 413.80,298.91
             413.80,298.91 417.08,306.04 417.08,306.04
             417.08,306.04 420.69,321.00 420.69,321.00
             420.69,321.00 423.70,331.00 423.70,331.00
             423.70,331.00 425.50,361.00 425.50,361.00
             425.50,361.00 425.50,371.00 425.50,371.00
             425.50,371.00 426.80,394.00 426.80,394.00
             427.12,406.09 432.03,404.23 428.36,418.00
             425.59,428.37 420.32,434.34 409.96,437.83
             406.10,438.90 404.64,440.27 401.00,437.83
             401.00,437.83 401.00,439.00 401.00,439.00
             401.00,439.00 399.00,440.00 399.00,440.00
             394.33,437.95 389.30,437.31 385.00,434.37
             377.24,429.06 376.37,425.29 373.62,417.17
             371.31,410.34 370.09,408.74 369.92,401.00
             369.92,401.00 369.92,387.00 369.92,387.00
             369.28,381.91 368.22,381.52 368.21,375.00
             368.21,375.00 368.96,364.00 368.96,364.00
             369.08,359.40 367.77,342.36 366.86,338.00
             366.86,338.00 364.51,331.00 364.51,331.00
             364.51,331.00 361.69,320.17 361.69,320.17
             361.69,320.17 347.10,294.04 347.10,294.04
             347.10,294.04 339.02,284.00 339.02,284.00
             329.33,271.05 315.24,254.97 302.49,245.05
             302.49,245.05 280.87,229.58 280.87,229.58
             280.87,229.58 258.00,219.18 258.00,219.18
             252.08,216.79 246.40,213.62 240.00,212.73
             231.66,211.57 221.31,210.32 214.49,216.68
             211.25,219.71 204.69,234.37 204.29,239.00
             204.29,239.00 204.29,253.00 204.29,253.00
             203.94,258.79 206.28,273.31 208.00,279.00 Z" />
</svg>
