<?xml version="1.0" encoding="UTF-8" standalone="no"?>
<!DOCTYPE svg PUBLIC "-//W3C//DTD SVG 20010904//EN"
              "http://www.w3.org/TR/2001/REC-SVG-20010904/DTD/svg10.dtd">

<svg xmlns="http://www.w3.org/2000/svg"
     width="5.55556in" height="5.55556in"
     viewBox="0 0 500 500">
  <path id="h"
        fill="#245f9e" stroke="none" stroke-width="1"
        d="M 150.00,207.00
           C 150.00,207.00 164.43,191.09 164.43,191.09
             170.04,184.99 176.52,180.05 182.83,174.77
             186.71,171.52 197.19,162.56 201.17,160.51
             210.64,155.64 222.77,152.42 233.00,149.58
             240.10,147.60 248.66,144.72 256.00,145.04
             268.63,145.59 278.52,152.69 289.00,158.56
             294.53,161.66 297.27,162.11 302.91,166.58
             310.12,172.30 312.24,177.47 317.46,184.00
             317.46,184.00 327.27,196.00 327.27,196.00
             331.39,202.05 341.35,221.16 344.28,228.00
             344.28,228.00 347.36,237.00 347.36,237.00
             347.36,237.00 354.25,253.00 354.25,253.00
             354.25,253.00 362.88,285.00 362.88,285.00
             362.88,285.00 386.58,373.00 386.58,373.00
             390.29,386.36 396.27,399.95 385.54,411.87
             381.84,415.98 378.18,417.33 373.00,418.63
             360.04,421.87 348.55,417.42 344.04,404.00
             344.04,404.00 334.12,367.00 334.12,367.00
             334.12,367.00 317.15,304.00 317.15,304.00
             317.15,304.00 309.00,274.00 309.00,274.00
             309.00,274.00 302.86,260.00 302.86,260.00
             302.86,260.00 299.79,251.00 299.79,251.00
             299.79,251.00 289.73,230.17 289.73,230.17
             289.73,230.17 279.45,217.00 279.45,217.00
             276.74,213.59 273.18,208.16 269.91,205.63
             267.71,203.93 252.99,196.10 250.73,196.03
             246.85,195.90 239.71,199.13 236.00,200.46
             233.33,201.42 230.59,201.98 228.09,203.41
             225.36,204.97 223.82,206.97 221.39,208.85
             206.00,220.67 198.89,226.66 187.97,243.00
             183.44,249.77 175.30,264.18 175.79,272.47
             175.79,272.47 183.54,320.00 183.54,320.00
             183.54,320.00 184.46,333.00 184.46,333.00
             184.46,333.00 194.00,369.00 194.00,369.00
             194.00,369.00 205.42,412.00 205.42,412.00
             207.61,419.88 212.81,436.62 212.99,444.00
             213.13,450.11 212.42,455.94 208.57,460.97
             198.22,474.58 176.51,474.87 167.76,460.97
             164.41,455.62 158.73,430.76 156.58,423.00
             156.58,423.00 142.12,369.00 142.12,369.00
             142.12,369.00 135.67,345.00 135.67,345.00
             135.67,345.00 134.49,337.00 134.49,337.00
             134.49,337.00 129.15,317.00 129.15,317.00
             129.15,317.00 117.88,275.00 117.88,275.00
             117.88,275.00 82.85,144.00 82.85,144.00
             82.85,144.00 67.85,88.00 67.85,88.00
             67.85,88.00 60.58,59.00 60.58,59.00
             60.24,43.81 72.21,33.44 87.00,34.04
             104.10,34.73 107.19,45.02 110.88,59.00
             110.88,59.00 114.63,73.00 114.63,73.00
             114.63,73.00 138.15,161.00 138.15,161.00
             138.15,161.00 150.00,207.00 150.00,207.00 Z" />
</svg>
