<?xml version="1.0" encoding="UTF-8" standalone="no"?>
<!DOCTYPE svg PUBLIC "-//W3C//DTD SVG 20010904//EN"
              "http://www.w3.org/TR/2001/REC-SVG-20010904/DTD/svg10.dtd">

<svg xmlns="http://www.w3.org/2000/svg"
     width="5.55556in" height="5.55556in"
     viewBox="0 0 500 500">
  <path id="hpp"
        fill="#245f9e" stroke="none" stroke-width="1"
        d="M 92.00,226.00
           C 92.00,226.00 106.43,210.09 106.43,210.09
             112.04,203.99 118.52,199.05 124.83,193.77
             128.71,190.52 139.19,181.56 143.17,179.51
             152.64,174.64 164.77,171.42 175.00,168.58
             182.10,166.60 190.66,163.72 198.00,164.04
             210.63,164.59 220.52,171.69 231.00,177.56
             236.53,180.66 239.27,181.11 244.91,185.58
             252.12,191.30 254.24,196.47 259.46,203.00
             259.46,203.00 269.27,215.00 269.27,215.00
             273.39,221.05 283.35,240.16 286.28,247.00
             286.28,247.00 289.36,256.00 289.36,256.00
             289.36,256.00 296.25,272.00 296.25,272.00
             296.25,272.00 304.88,304.00 304.88,304.00
             304.88,304.00 328.58,392.00 328.58,392.00
             332.29,405.36 338.27,418.95 327.54,430.87
             323.84,434.98 320.18,436.33 315.00,437.63
             302.04,440.87 290.55,436.42 286.04,423.00
             286.04,423.00 276.12,386.00 276.12,386.00
             276.12,386.00 259.15,323.00 259.15,323.00
             259.15,323.00 251.00,293.00 251.00,293.00
             251.00,293.00 244.86,279.00 244.86,279.00
             244.86,279.00 241.79,270.00 241.79,270.00
             241.79,270.00 231.73,249.17 231.73,249.17
             231.73,249.17 221.45,236.00 221.45,236.00
             218.74,232.59 215.18,227.16 211.91,224.63
             209.71,222.93 194.99,215.10 192.73,215.03
             188.85,214.90 181.71,218.13 178.00,219.46
             175.33,220.42 172.59,220.98 170.09,222.41
             167.36,223.97 165.82,225.97 163.39,227.85
             148.00,239.67 140.89,245.66 129.97,262.00
             125.44,268.77 117.30,283.18 117.79,291.47
             117.79,291.47 125.54,339.00 125.54,339.00
             125.54,339.00 126.46,352.00 126.46,352.00
             126.46,352.00 136.00,388.00 136.00,388.00
             136.00,388.00 147.42,431.00 147.42,431.00
             149.61,438.88 154.81,455.62 154.99,463.00
             155.13,469.11 154.42,474.94 150.57,479.97
             140.22,493.58 118.51,493.87 109.76,479.97
             106.41,474.62 100.73,449.76 98.58,442.00
             98.58,442.00 84.12,388.00 84.12,388.00
             84.12,388.00 77.67,364.00 77.67,364.00
             77.67,364.00 76.49,356.00 76.49,356.00
             76.49,356.00 71.15,336.00 71.15,336.00
             71.15,336.00 59.88,294.00 59.88,294.00
             59.88,294.00 24.85,163.00 24.85,163.00
             24.85,163.00 9.85,107.00 9.85,107.00
             9.85,107.00 2.58,78.00 2.58,78.00
             2.24,62.81 14.21,52.44 29.00,53.04
             46.10,53.73 49.19,64.02 52.88,78.00
             52.88,78.00 56.63,92.00 56.63,92.00
             56.63,92.00 80.15,180.00 80.15,180.00
             80.15,180.00 92.00,226.00 92.00,226.00 Z
           M 409.00,181.00
           C 407.37,169.45 399.37,152.73 402.80,142.00
             407.22,128.13 427.19,124.55 437.52,135.44
             442.68,140.88 447.39,161.97 449.00,170.00
             454.36,167.99 458.18,166.78 464.00,167.04
             479.24,167.71 486.37,186.12 479.95,197.98
             476.03,205.24 467.63,207.83 460.00,209.00
             461.45,218.42 466.46,227.32 463.15,237.00
             458.28,251.23 438.19,254.54 428.06,243.25
             423.70,238.40 421.89,226.52 420.00,220.00
             411.57,222.42 404.07,222.24 397.48,215.53
             385.78,203.64 391.77,182.61 409.00,181.00 Z
           M 325.00,236.00
           C 319.26,237.86 312.86,239.09 307.00,236.86
             296.41,232.82 291.79,217.94 296.57,208.00
             298.33,204.33 301.51,201.54 305.00,199.55
             307.20,198.30 310.38,197.63 311.10,194.86
             311.69,192.61 309.30,185.62 308.63,183.00
             305.82,172.08 305.21,164.45 314.84,156.55
             317.49,154.37 319.70,153.56 323.00,152.75
             335.79,149.63 344.15,157.19 347.57,169.00
             348.54,172.34 350.36,182.37 352.70,184.31
             355.07,186.28 358.91,184.20 362.00,183.76
             366.23,183.15 372.33,184.36 375.96,186.61
             385.59,192.60 388.75,207.92 381.58,216.96
             377.20,222.49 371.65,224.06 365.00,225.00
             367.11,239.68 380.88,257.31 377.47,272.00
             374.13,286.42 354.41,291.47 343.81,282.20
             338.19,277.29 338.71,274.02 336.33,268.00
             336.33,268.00 332.59,260.00 332.59,260.00
             332.59,260.00 325.00,236.00 325.00,236.00 Z" />
</svg>
