<?xml version="1.0" encoding="UTF-8" standalone="no"?>
<!DOCTYPE svg PUBLIC "-//W3C//DTD SVG 20010904//EN"
              "http://www.w3.org/TR/2001/REC-SVG-20010904/DTD/svg10.dtd">

<svg xmlns="http://www.w3.org/2000/svg"
     width="1.66667in" height="1.66667in"
     viewBox="0 0 500 500">
  <path id="orange"
        fill="#ff8300" stroke="black" stroke-width="1"
        d="M 268.00,52.63
           C 276.33,51.50 283.30,54.32 287.43,62.00
             287.43,62.00 290.78,72.00 290.78,72.00
             290.78,72.00 296.71,86.00 296.71,86.00
             296.71,86.00 303.05,105.00 303.05,105.00
             303.05,105.00 308.56,121.00 308.56,121.00
             308.56,121.00 311.67,132.00 311.67,132.00
             311.67,132.00 320.06,152.17 320.06,152.17
             320.06,152.17 324.09,166.91 324.09,166.91
             324.09,166.91 327.47,175.01 327.47,175.01
             327.47,175.01 332.88,204.00 332.88,204.00
             332.88,204.00 337.34,219.00 337.34,219.00
             337.34,219.00 345.97,248.91 345.97,248.91
             345.97,248.91 349.64,257.01 349.64,257.01
             349.64,257.01 359.41,286.17 359.41,286.17
             359.41,286.17 366.92,314.00 366.92,314.00
             369.60,322.62 376.99,329.72 373.96,341.58
             373.05,345.12 372.07,346.91 368.96,349.03
             367.27,350.18 365.00,351.18 363.00,351.61
             351.27,354.15 346.45,346.45 342.56,337.00
             342.56,337.00 332.42,307.00 332.42,307.00
             332.42,307.00 328.54,292.00 328.54,292.00
             328.54,292.00 314.46,251.00 314.46,251.00
             314.46,251.00 309.39,237.00 309.39,237.00
             309.39,237.00 299.23,196.00 299.23,196.00
             299.23,196.00 296.54,181.00 296.54,181.00
             296.54,181.00 280.44,138.00 280.44,138.00
             280.44,138.00 277.33,127.00 277.33,127.00
             277.33,127.00 272.61,112.00 272.61,112.00
             272.61,112.00 261.73,82.00 261.73,82.00
             259.63,76.98 257.11,75.10 256.28,71.00
             254.44,61.96 259.56,55.19 268.00,52.63 Z
           M 203.00,407.00
           C 202.42,417.23 188.75,419.11 181.30,414.95
             177.60,412.89 175.26,408.35 173.62,404.58
             171.14,398.84 164.38,373.57 163.50,367.09
             163.50,367.09 160.83,338.00 160.83,338.00
             160.83,338.00 156.61,322.00 156.61,322.00
             156.61,322.00 152.79,302.00 152.79,302.00
             152.79,302.00 149.54,278.00 149.54,278.00
             149.54,278.00 145.89,265.00 145.89,265.00
             145.89,265.00 139.25,239.00 139.25,239.00
             139.25,239.00 134.97,229.00 134.97,229.00
             134.97,229.00 131.92,218.00 131.92,218.00
             131.92,218.00 127.44,204.00 127.44,204.00
             127.44,204.00 124.31,197.00 124.31,197.00
             124.31,197.00 117.18,178.00 117.18,178.00
             117.18,178.00 109.00,161.00 109.00,161.00
             105.06,153.08 95.77,140.45 96.04,132.00
             96.44,119.77 109.59,112.51 119.91,119.72
             124.76,123.11 131.30,135.42 133.99,141.00
             133.99,141.00 140.65,154.00 140.65,154.00
             140.65,154.00 148.19,172.85 148.19,172.85
             148.19,172.85 156.46,192.00 156.46,192.00
             156.46,192.00 158.77,201.00 158.77,201.00
             158.77,201.00 162.46,210.00 162.46,210.00
             162.46,210.00 166.46,224.00 166.46,224.00
             173.66,246.59 177.64,256.80 181.00,281.00
             188.52,275.68 193.64,270.29 204.00,271.59
             215.04,272.97 225.06,283.55 232.32,291.15
             232.32,291.15 239.54,298.16 239.54,298.16
             252.92,312.74 261.11,328.43 267.60,347.00
             270.17,354.32 272.58,356.56 272.76,365.00
             272.88,370.93 271.90,377.12 268.06,381.87
             262.21,389.13 250.49,389.74 244.30,382.47
             238.60,375.77 242.68,369.75 240.19,362.00
             240.19,362.00 227.16,333.09 227.16,333.09
             227.16,333.09 217.35,321.04 217.35,321.04
             217.35,321.04 206.00,309.11 206.00,309.11
             204.56,307.77 202.90,305.97 200.77,306.96
             196.55,308.93 194.90,321.59 194.34,326.00
             192.02,344.29 194.99,347.41 198.20,364.00
             198.20,364.00 201.34,385.00 201.34,385.00
             202.59,392.73 208.96,402.72 203.00,407.00 Z
           M 470.00,207.00
           C 462.03,206.33 454.56,202.99 447.00,200.59
             447.00,200.59 428.00,195.79 428.00,195.79
             428.00,195.79 411.00,188.75 411.00,188.75
             396.63,182.99 386.74,181.64 372.00,172.98
             372.00,172.98 362.00,166.35 362.00,166.35
             362.00,166.35 347.00,158.37 347.00,158.37
             342.00,155.68 336.11,153.83 332.77,148.98
             325.63,138.64 332.58,125.35 345.28,125.22
             354.77,125.12 374.61,137.08 383.00,142.31
             383.00,142.31 391.17,147.88 391.17,147.88
             391.17,147.88 428.00,161.90 428.00,161.90
             428.00,161.90 448.00,169.61 448.00,169.61
             460.24,172.45 470.12,174.74 482.00,179.22
             487.03,181.11 492.65,182.77 496.01,187.30
             500.36,193.17 500.08,199.13 500.00,206.00
             499.75,227.33 486.36,259.05 475.10,277.00
             475.10,277.00 465.06,290.04 465.06,290.04
             458.72,300.64 449.61,317.65 435.00,314.66
             425.50,312.72 422.23,301.12 425.75,293.00
             429.32,284.77 441.24,269.73 446.84,262.00
             450.89,256.41 454.10,250.04 457.44,244.00
             463.91,232.26 464.89,219.03 470.00,207.00 Z
           M 115.00,410.00
           C 115.00,410.00 79.00,389.67 79.00,389.67
             79.00,389.67 33.00,361.32 33.00,361.32
             33.00,361.32 20.00,353.59 20.00,353.59
             11.42,348.59 6.98,346.48 7.15,335.28
             7.22,330.49 8.05,314.01 9.21,310.00
             12.23,299.56 17.35,293.28 21.63,284.00
             21.63,284.00 36.19,253.00 36.19,253.00
             36.19,253.00 46.18,238.00 46.18,238.00
             48.48,234.42 49.51,232.94 51.36,229.00
             51.36,229.00 56.34,218.11 56.34,218.11
             60.11,212.64 67.85,210.87 74.00,212.80
             77.67,213.96 79.67,215.79 81.67,219.02
             87.31,228.10 83.19,234.36 79.30,243.00
             79.30,243.00 75.78,251.00 75.78,251.00
             75.78,251.00 71.62,257.00 71.62,257.00
             71.62,257.00 58.90,277.00 58.90,277.00
             58.90,277.00 53.60,290.04 53.60,290.04
             53.60,290.04 47.29,303.00 47.29,303.00
             45.29,307.12 38.92,318.24 38.36,322.00
             38.11,323.66 38.17,325.30 39.03,326.79
             40.96,330.15 55.05,337.53 59.00,340.10
             59.00,340.10 69.00,346.84 69.00,346.84
             69.00,346.84 76.91,351.12 76.91,351.12
             76.91,351.12 83.09,355.66 83.09,355.66
             83.09,355.66 116.00,374.32 116.00,374.32
             123.13,378.77 133.33,381.01 133.95,391.04
             134.91,406.40 126.29,406.47 115.00,410.00 Z" />
</svg>
