<?xml version="1.0" encoding="UTF-8" standalone="no"?>
<!DOCTYPE svg PUBLIC "-//W3C//DTD SVG 20010904//EN"
              "http://www.w3.org/TR/2001/REC-SVG-20010904/DTD/svg10.dtd">

<svg xmlns="http://www.w3.org/2000/svg"
     width="2in" height="2in"
     viewBox="0 0 600 600">
  <path id="grey"
        fill="#a9a9a9" stroke="none" stroke-width="1"
        d="M 380.00,37.00
           C 380.00,37.00 381.00,37.00 381.00,37.00
             381.00,37.00 380.00,38.00 380.00,38.00
             380.00,38.00 380.00,37.00 380.00,37.00 Z
           M 378.00,38.00
           C 378.00,38.00 379.00,38.00 379.00,38.00
             379.00,38.00 378.00,39.00 378.00,39.00
             378.00,39.00 378.00,38.00 378.00,38.00 Z
           M 384.00,40.00
           C 384.00,40.00 385.00,40.00 385.00,40.00
             385.00,40.00 384.00,41.00 384.00,41.00
             384.00,41.00 384.00,40.00 384.00,40.00 Z
           M 371.00,41.00
           C 371.00,41.00 372.00,41.00 372.00,41.00
             372.00,41.00 371.00,42.00 371.00,42.00
             371.00,42.00 371.00,41.00 371.00,41.00 Z
           M 368.00,42.00
           C 368.00,42.00 369.00,42.00 369.00,42.00
             369.00,42.00 368.00,43.00 368.00,43.00
             368.00,43.00 368.00,42.00 368.00,42.00 Z
           M 364.00,44.00
           C 364.00,44.00 365.00,44.00 365.00,44.00
             365.00,44.00 364.00,45.00 364.00,45.00
             364.00,45.00 364.00,44.00 364.00,44.00 Z
           M 385.00,44.00
           C 385.00,44.00 386.00,44.00 386.00,44.00
             386.00,44.00 385.00,45.00 385.00,45.00
             385.00,45.00 385.00,44.00 385.00,44.00 Z
           M 360.00,46.00
           C 360.00,46.00 361.00,46.00 361.00,46.00
             361.00,46.00 360.00,47.00 360.00,47.00
             360.00,47.00 360.00,46.00 360.00,46.00 Z
           M 357.00,47.00
           C 357.00,47.00 358.00,47.00 358.00,47.00
             358.00,47.00 357.00,48.00 357.00,48.00
             357.00,48.00 357.00,47.00 357.00,47.00 Z
           M 353.00,49.00
           C 353.00,49.00 354.00,49.00 354.00,49.00
             354.00,49.00 353.00,50.00 353.00,50.00
             353.00,50.00 353.00,49.00 353.00,49.00 Z
           M 350.00,50.00
           C 350.00,50.00 351.00,50.00 351.00,50.00
             351.00,50.00 350.00,51.00 350.00,51.00
             350.00,51.00 350.00,50.00 350.00,50.00 Z
           M 386.00,50.00
           C 386.00,50.00 387.00,50.00 387.00,50.00
             387.00,50.00 386.00,51.00 386.00,51.00
             386.00,51.00 386.00,50.00 386.00,50.00 Z
           M 348.00,51.00
           C 348.00,51.00 349.00,51.00 349.00,51.00
             349.00,51.00 348.00,52.00 348.00,52.00
             348.00,52.00 348.00,51.00 348.00,51.00 Z
           M 346.00,52.00
           C 346.00,52.00 347.00,52.00 347.00,52.00
             347.00,52.00 346.00,53.00 346.00,53.00
             346.00,53.00 346.00,52.00 346.00,52.00 Z
           M 341.00,59.00
           C 341.00,59.00 342.00,59.00 342.00,59.00
             342.00,59.00 341.00,60.00 341.00,60.00
             341.00,60.00 341.00,59.00 341.00,59.00 Z
           M 386.00,59.00
           C 386.00,59.00 387.00,59.00 387.00,59.00
             387.00,59.00 386.00,60.00 386.00,60.00
             386.00,60.00 386.00,59.00 386.00,59.00 Z
           M 342.00,61.00
           C 342.00,61.00 343.00,61.00 343.00,61.00
             343.00,61.00 342.00,62.00 342.00,62.00
             342.00,62.00 342.00,61.00 342.00,61.00 Z
           M 347.00,70.00
           C 347.00,70.00 350.00,73.00 350.00,73.00
             350.00,73.00 347.00,70.00 347.00,70.00 Z
           M 387.00,70.00
           C 387.00,70.00 388.00,70.00 388.00,70.00
             388.00,70.00 387.00,71.00 387.00,71.00
             387.00,71.00 387.00,70.00 387.00,70.00 Z
           M 360.00,73.00
           C 360.00,73.00 369.00,74.00 369.00,74.00
             369.00,74.00 360.00,73.00 360.00,73.00 Z
           M 370.00,73.00
           C 370.00,73.00 376.00,74.00 376.00,74.00
             376.00,74.00 370.00,73.00 370.00,73.00 Z
           M 378.00,73.00
           C 378.00,73.00 384.00,74.00 384.00,74.00
             384.00,74.00 378.00,73.00 378.00,73.00 Z
           M 386.00,73.00
           C 386.00,73.00 387.00,73.00 387.00,73.00
             387.00,73.00 386.00,74.00 386.00,74.00
             386.00,74.00 386.00,73.00 386.00,73.00 Z
           M 285.00,110.00
           C 286.80,112.59 288.74,115.37 291.29,117.30
             298.92,123.08 309.80,118.04 318.00,115.88
             331.22,112.41 353.78,106.16 367.00,105.91
             367.00,105.91 384.00,105.91 384.00,105.91
             384.00,105.91 393.00,105.91 393.00,105.91
             400.64,105.99 409.00,104.72 415.96,108.75
             422.01,112.25 425.55,120.81 428.37,127.00
             428.37,127.00 444.86,180.00 444.86,180.00
             444.86,180.00 458.80,221.00 458.80,221.00
             458.80,221.00 463.91,233.00 463.91,233.00
             463.91,233.00 471.09,255.00 471.09,255.00
             471.09,255.00 488.39,305.00 488.39,305.00
             488.39,305.00 493.88,324.00 493.88,324.00
             493.88,324.00 501.63,350.00 501.63,350.00
             501.63,350.00 504.42,364.00 504.42,364.00
             504.42,364.00 507.49,376.00 507.49,376.00
             507.49,376.00 508.90,385.00 508.90,385.00
             512.44,399.86 516.12,407.48 516.72,423.57
             517.06,432.79 512.83,444.83 504.96,450.19
             500.20,453.43 487.98,456.37 482.00,457.87
             482.00,457.87 455.00,465.10 455.00,465.10
             455.00,465.10 441.00,467.87 441.00,467.87
             411.68,475.19 397.23,482.83 371.00,497.37
             371.00,497.37 348.00,511.14 348.00,511.14
             348.00,511.14 300.00,527.69 300.00,527.69
             300.00,527.69 272.00,537.80 272.00,537.80
             272.00,537.80 251.00,543.72 251.00,543.72
             251.00,543.72 241.00,547.25 241.00,547.25
             235.05,549.16 222.24,551.89 216.00,552.71
             216.00,552.71 176.00,555.89 176.00,555.89
             176.00,555.89 155.00,551.90 155.00,551.90
             148.05,549.49 133.23,540.42 128.84,534.82
             119.40,522.80 115.97,505.22 110.91,491.00
             110.91,491.00 96.75,449.00 96.75,449.00
             96.75,449.00 94.58,434.00 94.58,434.00
             93.76,428.77 91.81,419.89 92.09,415.00
             92.62,405.71 96.74,393.85 95.83,385.00
             95.83,385.00 89.42,360.00 89.42,360.00
             89.42,360.00 80.83,328.00 80.83,328.00
             80.83,328.00 77.46,319.00 77.46,319.00
             77.46,319.00 72.97,303.00 72.97,303.00
             72.97,303.00 67.05,287.00 67.05,287.00
             67.05,287.00 63.54,275.00 63.54,275.00
             63.54,275.00 60.46,267.00 60.46,267.00
             60.46,267.00 53.29,241.00 53.29,241.00
             50.37,230.71 45.08,208.88 49.20,199.00
             55.97,182.73 79.26,164.83 96.00,159.91
             96.00,159.91 120.00,155.20 120.00,155.20
             120.00,155.20 139.00,151.35 139.00,151.35
             139.00,151.35 155.00,147.28 155.00,147.28
             155.00,147.28 173.00,143.46 173.00,143.46
             173.00,143.46 182.00,141.83 182.00,141.83
             182.00,141.83 202.00,134.66 202.00,134.66
             202.00,134.66 248.00,122.25 248.00,122.25
             248.00,122.25 285.00,110.00 285.00,110.00 Z
           M 240.99,215.31
           C 240.99,215.31 193.00,223.75 193.00,223.75
             170.96,230.78 145.26,250.75 135.32,272.00
             127.58,288.56 128.42,307.85 133.29,325.00
             134.81,330.35 135.93,335.88 138.17,341.00
             147.23,361.72 169.03,384.93 187.00,398.49
             187.00,398.49 196.00,404.20 196.00,404.20
             208.52,412.50 229.78,422.82 245.00,423.00
             245.00,423.00 268.00,423.00 268.00,423.00
             289.54,422.97 323.29,411.09 337.82,394.99
             344.14,387.97 349.09,377.81 352.42,369.00
             356.67,357.80 360.10,346.10 359.98,334.00
             359.93,329.24 358.98,326.52 358.27,322.00
             353.62,292.13 339.60,270.88 318.81,249.62
             299.95,230.33 279.35,217.61 252.00,215.92
             247.56,215.64 245.76,215.02 240.99,215.31 Z" />
     <path id="blue"
        fill="#007cff" stroke="none" stroke-width="1"
        d="M 246.00,248.91
           C 260.82,245.35 281.58,258.93 291.83,268.56
             307.66,283.44 318.54,297.85 324.42,319.00
             326.10,325.05 327.98,334.79 327.15,341.00
             326.72,344.21 321.53,357.42 320.00,361.00
             314.08,374.82 309.85,378.29 296.00,383.80
             280.36,390.01 273.30,390.11 257.00,390.31
             250.52,390.39 247.89,391.14 241.00,389.41
             234.08,387.67 231.15,385.87 225.00,382.76
             206.93,373.60 196.40,365.22 182.95,350.00
             169.30,334.55 155.79,306.50 165.32,286.00
             168.68,278.79 182.24,263.50 190.00,261.37
             194.40,260.44 197.57,263.45 204.00,261.37
             211.01,258.76 218.70,253.04 226.00,251.54
             230.44,250.63 232.93,252.24 236.41,252.13
             239.88,252.02 242.92,250.30 246.00,248.91 Z" />
    <path id="white"
        fill="white" stroke="none" stroke-width="1"
        d="M 340.00,55.00
           C 340.00,55.00 384.00,37.00 384.00,37.00
             384.00,37.00 386.91,51.00 386.91,51.00
             386.91,51.00 386.91,73.06 386.91,73.06
             386.91,73.06 364.00,73.06 364.00,73.06
             359.38,73.28 354.50,74.51 350.09,71.99
             345.60,69.43 341.24,59.94 340.00,55.00 Z" />
</svg>
