<?xml version="1.0" encoding="UTF-8" standalone="no"?>
<!DOCTYPE svg PUBLIC "-//W3C//DTD SVG 20010904//EN"
              "http://www.w3.org/TR/2001/REC-SVG-20010904/DTD/svg10.dtd">

<svg xmlns="http://www.w3.org/2000/svg"
     width="5.55556in" height="5.55556in"
     viewBox="0 0 500 500">
  <path id="folder"
        fill="#619c34" stroke="none" stroke-width="1"
        d="M 86.00,94.00
           C 86.00,94.00 118.00,78.69 118.00,78.69
             118.00,78.69 142.00,65.31 142.00,65.31
             142.00,65.31 162.00,58.13 162.00,58.13
             162.00,58.13 174.00,52.45 174.00,52.45
             174.00,52.45 218.00,37.50 218.00,37.50
             218.00,37.50 247.00,32.74 247.00,32.74
             259.56,30.40 272.12,27.15 285.00,27.00
             300.46,26.82 305.22,28.44 320.00,31.40
             340.66,35.53 342.69,34.27 362.00,45.34
             362.00,45.34 385.00,62.00 385.00,62.00
             387.60,63.85 392.11,67.38 395.00,68.29
             398.98,69.53 404.93,67.48 409.00,66.66
             413.01,65.85 416.93,65.96 421.00,66.00
             439.54,66.22 461.62,78.33 468.54,96.00
             473.19,107.89 473.85,128.04 474.00,141.00
             474.18,155.70 483.09,190.78 486.49,207.00
             486.49,207.00 489.17,235.00 489.17,235.00
             489.17,235.00 492.57,254.00 492.57,254.00
             492.57,254.00 493.30,264.00 493.30,264.00
             494.55,272.76 497.88,278.16 498.00,288.00
             498.11,297.82 497.19,326.28 495.33,335.00
             495.33,335.00 489.33,354.00 489.33,354.00
             487.18,360.45 483.80,371.86 479.62,376.91
             477.61,379.34 469.51,387.43 467.00,388.93
             467.00,388.93 449.00,396.31 449.00,396.31
             449.00,396.31 433.00,404.13 433.00,404.13
             433.00,404.13 405.00,415.28 405.00,415.28
             405.00,415.28 379.00,426.30 379.00,426.30
             379.00,426.30 358.00,431.91 358.00,431.91
             358.00,431.91 343.00,437.56 343.00,437.56
             343.00,437.56 310.00,445.88 310.00,445.88
             310.00,445.88 267.00,457.54 267.00,457.54
             267.00,457.54 249.00,459.17 249.00,459.17
             249.00,459.17 223.00,462.43 223.00,462.43
             203.75,465.67 207.66,466.99 195.00,470.79
             187.62,473.01 162.67,476.91 155.00,477.00
             142.10,477.15 135.64,477.31 123.00,473.25
             123.00,473.25 105.00,465.45 105.00,465.45
             101.06,463.86 92.02,461.51 89.21,459.30
             85.93,456.73 85.79,453.59 80.96,449.32
             74.82,443.90 72.09,444.69 65.10,434.00
             56.57,420.95 53.50,405.61 48.98,391.00
             48.98,391.00 33.66,338.00 33.66,338.00
             33.66,338.00 25.54,291.00 25.54,291.00
             25.54,291.00 16.25,257.00 16.25,257.00
             16.25,257.00 11.29,244.00 11.29,244.00
             9.28,234.83 10.11,225.32 10.00,216.00
             10.00,216.00 9.00,201.00 9.00,201.00
             9.00,201.00 9.00,189.00 9.00,189.00
             9.00,189.00 10.91,159.00 10.91,159.00
             10.91,159.00 2.63,124.00 2.63,124.00
             1.54,119.66 -0.15,114.43 0.18,110.00
             0.51,105.68 2.07,99.54 4.65,96.04
             7.94,91.55 15.80,87.21 21.00,85.23
             34.89,79.94 52.26,78.98 67.00,79.00
             78.13,79.02 83.81,82.33 86.00,94.00 Z
           M 383.00,76.00
           C 373.59,69.34 354.80,54.83 345.00,51.06
             334.16,46.90 322.41,45.15 311.00,43.25
             311.00,43.25 287.00,40.00 287.00,40.00
             271.27,39.82 259.11,43.56 244.00,46.39
             244.00,46.39 213.00,52.16 213.00,52.16
             198.59,55.96 184.72,62.46 171.00,68.14
             171.00,68.14 150.00,76.31 150.00,76.31
             150.00,76.31 112.00,96.74 112.00,96.74
             112.00,96.74 86.00,108.32 86.00,108.32
             86.00,108.32 58.00,123.81 58.00,123.81
             50.53,128.39 37.86,137.85 33.10,145.00
             25.18,156.90 23.02,170.98 23.00,185.00
             22.98,199.14 22.07,227.42 24.14,240.00
             24.14,240.00 34.14,273.00 34.14,273.00
             34.14,273.00 41.00,300.00 41.00,300.00
             41.00,300.00 44.89,264.00 44.89,264.00
             49.55,243.38 57.82,232.80 68.00,215.00
             73.93,204.62 79.35,193.52 88.04,185.09
             94.76,178.57 103.03,174.67 111.00,169.99
             126.56,160.85 147.98,150.75 165.00,144.70
             165.00,144.70 188.00,138.25 188.00,138.25
             188.00,138.25 207.00,131.03 207.00,131.03
             207.00,131.03 231.00,124.31 231.00,124.31
             231.00,124.31 255.00,115.88 255.00,115.88
             255.00,115.88 300.00,107.11 300.00,107.11
             306.69,104.98 307.94,102.66 313.00,100.99
             313.00,100.99 327.00,97.48 327.00,97.48
             327.00,97.48 346.00,90.05 346.00,90.05
             346.00,90.05 383.00,78.00 383.00,78.00
             383.00,78.00 383.00,76.00 383.00,76.00 Z" />
  <path id="inside"
        fill="#446d24" stroke="none" stroke-width="1"
        d="M 40.00,301.00
           C 40.00,301.00 37.33,285.00 37.33,285.00
             37.33,285.00 31.28,264.00 31.28,264.00
             27.52,251.51 23.02,241.30 23.00,228.00
             23.00,228.00 23.00,184.00 23.00,184.00
             23.02,170.78 24.95,157.33 32.25,146.00
             36.10,140.02 42.42,135.03 48.00,130.66
             59.85,121.38 80.08,110.97 94.00,104.70
             94.00,104.70 116.00,94.69 116.00,94.69
             116.00,94.69 150.00,76.12 150.00,76.12
             150.00,76.12 171.00,68.13 171.00,68.13
             183.19,62.94 199.33,55.69 212.00,52.29
             212.00,52.29 243.00,46.40 243.00,46.40
             252.52,44.50 272.14,40.11 281.00,40.00
             295.25,39.84 294.80,40.78 308.00,42.73
             332.57,46.35 343.24,47.58 364.00,62.42
             369.48,66.34 380.04,72.30 383.00,78.00
             383.00,78.00 350.00,88.69 350.00,88.69
             350.00,88.69 328.00,97.25 328.00,97.25
             328.00,97.25 314.00,100.78 314.00,100.78
             308.49,102.58 307.39,104.98 300.00,107.28
             300.00,107.28 259.00,114.88 259.00,114.88
             259.00,114.88 232.00,124.00 232.00,124.00
             232.00,124.00 207.00,131.03 207.00,131.03
             207.00,131.03 188.00,138.26 188.00,138.26
             188.00,138.26 166.00,144.52 166.00,144.52
             151.50,149.40 124.19,162.09 111.00,170.00
             102.46,175.13 93.09,179.57 86.29,187.04
             78.17,195.96 73.01,206.70 66.99,217.00
             58.65,231.27 50.15,243.81 45.88,260.00
             43.74,268.13 42.99,279.40 42.17,288.00
             41.67,293.26 42.58,295.95 40.00,301.00 Z" />
    <path id="decoration"
        fill="#33511b" stroke="none" stroke-width="1"
        d="M 435.00,315.53
           C 440.27,314.66 446.11,314.53 451.00,317.00
             460.80,321.96 463.79,335.53 459.00,345.00
             456.32,350.29 451.17,353.61 446.00,356.19
             436.68,360.84 417.61,364.46 407.00,366.46
             407.00,366.46 390.00,371.68 390.00,371.68
             390.00,371.68 367.00,374.38 367.00,374.38
             367.00,374.38 337.00,382.89 337.00,382.89
             332.40,384.33 328.92,386.51 324.00,386.91
             310.36,388.02 301.01,381.26 301.01,367.00
             301.01,363.24 301.26,360.43 303.00,357.00
             308.84,345.46 327.38,342.84 339.00,339.87
             339.00,339.87 356.00,334.46 356.00,334.46
             356.00,334.46 376.00,332.64 376.00,332.64
             376.00,332.64 389.00,328.67 389.00,328.67
             389.00,328.67 397.00,327.54 397.00,327.54
             397.00,327.54 422.00,320.97 422.00,320.97
             422.00,320.97 435.00,315.53 435.00,315.53 Z
           M 255.00,357.53
           C 262.81,356.24 270.90,356.80 276.47,363.18
             285.66,373.73 281.11,393.11 267.00,396.47
             260.09,398.11 251.48,396.83 246.33,391.67
             237.81,383.16 237.85,362.87 255.00,357.53 Z
           M 186.00,375.53
           C 193.81,374.24 201.90,374.80 207.47,381.18
             216.66,391.73 212.11,411.11 198.00,414.47
             191.09,416.11 182.48,414.83 177.33,409.67
             168.81,401.16 168.85,380.87 186.00,375.53 Z" />
</svg>
