<?xml version="1.0" encoding="UTF-8" standalone="no"?>
<!DOCTYPE svg PUBLIC "-//W3C//DTD SVG 20010904//EN"
              "http://www.w3.org/TR/2001/REC-SVG-20010904/DTD/svg10.dtd">

<svg xmlns="http://www.w3.org/2000/svg"
     width="1.66667in" height="1.66667in"
     viewBox="0 0 150 150">
  <path id="Planet"
        fill="#ee7426" stroke="none" stroke-width="1"
        d="M 133.02,52.00
           C 122.64,50.05 117.60,47.60 106.85,47.76
             95.68,47.93 96.22,49.43 86.00,52.12
             70.32,56.24 67.28,55.84 52.00,63.46
             52.00,63.46 36.96,73.33 36.96,73.33
             36.96,73.33 28.00,78.46 28.00,78.46
             25.98,79.83 21.11,84.25 18.60,82.84
             16.06,81.40 17.26,74.39 17.58,72.00
             19.24,59.41 16.51,55.89 27.21,45.29
             33.45,39.12 44.71,34.67 53.00,32.04
             60.45,29.68 71.30,25.65 79.00,25.09
             89.23,24.35 99.79,28.26 109.00,32.29
             119.13,36.73 117.56,34.94 127.07,41.93
             129.38,43.62 132.08,45.13 133.02,48.04
             133.61,49.81 133.24,50.37 133.02,52.00 Z
           M 21.00,107.00
           C 27.55,105.20 30.29,107.20 36.58,108.12
             50.35,110.14 48.01,110.02 62.00,110.00
             75.81,109.98 93.84,106.17 107.00,101.91
             107.00,101.91 124.00,96.73 124.00,96.73
             128.77,95.06 130.79,93.19 136.00,94.00
             134.17,101.13 132.21,101.27 129.24,107.00
             126.33,112.58 125.30,117.94 120.87,123.00
             111.38,133.83 108.99,132.31 97.17,136.38
             90.14,138.79 84.04,141.28 76.39,140.69
             69.22,140.13 60.73,136.58 54.00,134.18
             42.91,130.21 24.85,118.57 21.00,107.00 Z" />
  <path id="Moons"
        fill="#6a6a6a" stroke="none" stroke-width="1"
        d="M 114.02,12.74
           C 118.97,11.55 123.99,12.00 127.49,16.21
             132.11,21.77 129.69,31.65 122.91,34.28
             109.96,39.29 99.58,20.68 114.02,12.74 Z
           M 8.00,34.48
           C 25.11,32.44 25.42,58.41 9.00,56.89
             -4.06,55.68 -0.13,39.76 1.74,37.57
             3.41,35.60 5.65,35.11 8.00,34.48 Z
           M 135.09,100.02
           C 149.09,95.30 155.50,115.34 143.83,121.69
             137.24,125.27 128.62,119.67 127.87,113.96
             127.17,108.76 131.22,102.97 135.09,100.02 Z" />
</svg>
