<?xml version="1.0" encoding="UTF-8" standalone="no"?>
<!DOCTYPE svg PUBLIC "-//W3C//DTD SVG 20010904//EN"
              "http://www.w3.org/TR/2001/REC-SVG-20010904/DTD/svg10.dtd">

<svg xmlns="http://www.w3.org/2000/svg"
     width="5.55556in" height="5.55556in"
     viewBox="0 0 500 500">
  <path id="blue"
        fill="#38f9ff" stroke="none" stroke-width="1"
        d="M 430.00,329.16
           C 422.83,329.19 417.90,322.81 417.32,316.00
             416.25,303.47 425.17,300.38 432.25,292.00
             432.25,292.00 442.30,279.00 442.30,279.00
             444.72,276.17 448.02,273.35 449.57,270.00
             450.80,267.34 450.80,264.82 451.07,262.00
             451.07,262.00 452.08,254.00 452.08,254.00
             452.07,249.29 448.22,236.44 445.75,232.42
             433.94,213.28 421.86,204.07 399.00,203.90
             399.00,203.90 387.00,203.90 387.00,203.90
             378.03,204.07 375.03,210.09 365.18,203.90
             357.30,198.94 355.95,184.05 363.24,178.01
             369.99,172.41 382.40,170.76 391.00,170.42
             398.21,170.13 424.61,172.57 431.00,174.95
             445.00,180.16 464.37,197.01 471.75,209.99
             475.88,217.23 478.57,224.95 481.07,232.83
             482.99,238.87 485.00,245.50 485.61,251.83
             486.42,260.29 483.03,281.57 478.65,288.91
             478.65,288.91 464.36,306.42 464.36,306.42
             460.91,310.91 461.14,312.00 456.33,317.08
             452.01,321.65 445.71,326.64 440.00,329.16
             436.55,330.94 432.81,332.13 430.00,329.16 Z
           M 77.00,299.00
           C 84.37,303.10 89.24,301.62 97.00,300.92
             97.00,300.92 104.00,300.92 104.00,300.92
             104.00,300.92 113.00,298.13 113.00,298.13
             113.00,298.13 126.00,295.04 126.00,295.04
             126.00,295.04 135.00,291.52 135.00,291.52
             135.00,291.52 150.17,287.07 150.17,287.07
             150.17,287.07 172.00,283.96 172.00,283.96
             172.00,283.96 184.00,280.44 184.00,280.44
             194.29,277.92 209.24,274.69 218.72,270.24
             218.72,270.24 249.61,253.77 249.61,253.77
             249.61,253.77 263.00,244.54 263.00,244.54
             263.00,244.54 279.58,233.79 279.58,233.79
             279.58,233.79 297.04,217.88 297.04,217.88
             297.04,217.88 306.98,209.95 306.98,209.95
             311.59,205.53 314.85,199.57 320.09,195.84
             331.94,187.41 347.31,196.79 345.87,211.00
             345.33,216.25 340.72,223.20 337.32,227.17
             328.46,237.52 318.34,244.23 308.40,253.28
             296.00,264.57 296.80,262.41 284.20,270.86
             284.20,270.86 273.96,278.34 273.96,278.34
             273.96,278.34 248.00,292.57 248.00,292.57
             248.00,292.57 240.00,296.90 240.00,296.90
             240.00,296.90 233.17,299.37 233.17,299.37
             230.23,300.71 229.38,302.09 225.00,303.70
             225.00,303.70 198.00,311.09 198.00,311.09
             198.00,311.09 181.00,315.79 181.00,315.79
             181.00,315.79 170.00,317.46 170.00,317.46
             170.00,317.46 163.00,319.52 163.00,319.52
             163.00,319.52 153.00,320.89 153.00,320.89
             142.42,323.28 143.90,324.53 136.00,326.62
             136.00,326.62 115.00,332.33 115.00,332.33
             106.58,334.08 87.47,335.40 79.00,334.20
             67.48,332.56 58.31,326.94 59.37,314.00
             60.36,301.93 68.78,302.01 77.00,299.00 Z
           M 351.00,238.61
           C 361.41,238.90 367.22,245.84 366.98,256.00
             366.91,259.34 366.48,261.94 364.64,264.83
             361.82,269.23 353.77,273.48 349.25,276.31
             349.25,276.31 331.17,287.72 331.17,287.72
             331.17,287.72 320.00,295.63 320.00,295.63
             320.00,295.63 290.00,310.72 290.00,310.72
             290.00,310.72 257.58,331.28 257.58,331.28
             257.58,331.28 205.00,356.33 205.00,356.33
             205.00,356.33 198.09,358.60 198.09,358.60
             198.09,358.60 192.83,361.21 192.83,361.21
             192.83,361.21 183.00,364.52 183.00,364.52
             183.00,364.52 174.00,368.44 174.00,368.44
             174.00,368.44 136.00,378.75 136.00,378.75
             130.96,379.64 125.68,379.72 120.58,379.81
             111.94,379.97 90.55,381.24 83.00,379.29
             74.25,377.04 69.63,369.97 70.53,361.00
             72.35,342.82 94.55,346.60 107.00,346.96
             107.00,346.96 116.99,346.01 116.99,346.01
             116.99,346.01 128.00,346.01 128.00,346.01
             136.15,345.24 152.14,340.80 160.00,338.00
             160.00,338.00 172.00,332.54 172.00,332.54
             172.00,332.54 180.00,330.23 180.00,330.23
             180.00,330.23 223.17,310.80 223.17,310.80
             223.17,310.80 234.00,306.17 234.00,306.17
             234.00,306.17 249.18,296.42 249.18,296.42
             249.18,296.42 262.72,288.44 262.72,288.44
             262.72,288.44 274.00,280.96 274.00,280.96
             274.00,280.96 281.96,277.59 281.96,277.59
             281.96,277.59 294.96,271.43 294.96,271.43
             294.96,271.43 331.00,248.13 331.00,248.13
             338.12,243.68 342.44,239.69 351.00,238.61 Z
           M 151.00,412.00
           C 138.61,412.27 132.03,418.57 111.99,418.98
             108.70,419.04 105.15,419.05 102.00,418.01
             91.10,414.42 87.73,397.77 99.00,389.57
             104.36,385.68 115.72,385.96 122.41,385.18
             122.41,385.18 141.00,380.37 141.00,380.37
             141.00,380.37 154.00,378.29 154.00,378.29
             154.00,378.29 187.91,369.06 187.91,369.06
             187.91,369.06 211.00,358.39 211.00,358.39
             211.00,358.39 219.00,355.63 219.00,355.63
             219.00,355.63 225.00,352.83 225.00,352.83
             225.00,352.83 241.83,348.62 241.83,348.62
             241.83,348.62 269.00,337.21 269.00,337.21
             269.00,337.21 279.91,331.21 279.91,331.21
             279.91,331.21 286.08,326.70 286.08,326.70
             305.32,315.17 324.98,302.89 345.83,294.62
             352.89,291.82 355.78,285.71 364.00,285.10
             372.57,284.46 377.75,287.69 380.98,295.58
             382.02,298.12 382.70,301.26 382.20,304.00
             380.90,311.20 374.19,317.71 367.91,320.96
             367.91,320.96 350.17,329.02 350.17,329.02
             350.17,329.02 319.00,346.20 319.00,346.20
             319.00,346.20 283.00,367.61 283.00,367.61
             283.00,367.61 253.99,379.78 253.99,379.78
             253.99,379.78 239.17,383.39 239.17,383.39
             239.17,383.39 190.91,403.63 190.91,403.63
             190.91,403.63 162.00,411.00 162.00,411.00
             170.54,411.88 187.86,407.99 196.00,404.92
             196.00,404.92 207.04,399.93 207.04,399.93
             207.04,399.93 214.00,398.17 214.00,398.17
             214.00,398.17 224.00,394.16 224.00,394.16
             224.00,394.16 237.00,391.08 237.00,391.08
             237.00,391.08 246.00,388.24 246.00,388.24
             246.00,388.24 259.00,385.00 259.00,385.00
             259.00,385.00 279.00,375.55 279.00,375.55
             279.00,375.55 286.58,371.83 286.58,371.83
             286.58,371.83 298.01,364.63 298.01,364.63
             298.01,364.63 315.72,354.44 315.72,354.44
             323.84,349.10 331.89,343.31 341.82,348.54
             349.86,352.78 351.59,364.54 346.86,371.83
             341.60,379.93 323.74,388.94 315.00,393.63
             315.00,393.63 299.72,403.23 299.72,403.23
             291.43,407.91 281.86,411.91 273.00,415.39
             273.00,415.39 259.00,418.97 259.00,418.97
             259.00,418.97 251.00,421.61 251.00,421.61
             251.00,421.61 237.00,424.96 237.00,424.96
             237.00,424.96 220.04,430.68 220.04,430.68
             220.04,430.68 211.96,434.32 211.96,434.32
             211.96,434.32 181.00,442.21 181.00,442.21
             172.51,444.12 175.18,445.16 165.00,445.00
             153.14,444.81 141.30,437.35 143.88,424.00
             144.96,418.39 147.67,416.21 151.00,412.00 Z
           M 156.00,456.00
           C 158.39,453.33 162.61,453.84 166.00,453.12
             176.90,450.79 187.98,451.41 199.00,450.80
             207.70,450.32 226.19,444.72 235.17,442.06
             235.17,442.06 249.00,438.67 249.00,438.67
             249.00,438.67 256.00,435.61 256.00,435.61
             256.00,435.61 264.96,432.75 264.96,432.75
             264.96,432.75 273.04,428.82 273.04,428.82
             273.04,428.82 281.00,426.34 281.00,426.34
             281.00,426.34 309.00,414.47 309.00,414.47
             309.00,414.47 323.00,405.58 323.00,405.58
             327.21,402.79 330.04,401.53 333.91,397.83
             333.91,397.83 340.09,391.09 340.09,391.09
             340.09,391.09 349.68,382.74 349.68,382.74
             349.68,382.74 354.76,377.39 354.76,377.39
             358.09,374.17 360.80,373.86 363.95,369.87
             370.76,361.24 377.84,345.64 389.00,342.91
             399.56,340.32 408.09,346.18 409.16,357.00
             409.49,360.36 409.17,363.89 407.55,366.91
             407.55,366.91 400.81,376.00 400.81,376.00
             400.81,376.00 388.61,393.42 388.61,393.42
             388.61,393.42 379.59,401.35 379.59,401.35
             379.59,401.35 358.40,421.63 358.40,421.63
             353.82,426.19 350.44,427.93 345.30,431.37
             345.30,431.37 330.70,441.01 330.70,441.01
             330.70,441.01 301.00,453.91 301.00,453.91
             301.00,453.91 294.00,457.17 294.00,457.17
             294.00,457.17 286.17,459.40 286.17,459.40
             286.17,459.40 279.96,462.33 279.96,462.33
             279.96,462.33 263.00,468.89 263.00,468.89
             263.00,468.89 245.00,473.43 245.00,473.43
             245.00,473.43 212.17,482.44 212.17,482.44
             212.17,482.44 185.00,484.09 185.00,484.09
             185.00,484.09 168.00,486.46 168.00,486.46
             151.91,489.38 135.32,489.35 119.00,490.07
             111.16,490.42 99.42,489.79 93.34,484.24
             87.22,478.64 85.99,463.01 97.01,458.22
             105.87,454.38 111.84,457.65 120.00,457.66
             127.29,457.67 145.33,454.02 151.00,456.00
             151.00,456.00 151.00,455.00 151.00,455.00
             151.00,455.00 153.00,454.00 153.00,454.00
             153.00,454.00 155.00,456.00 155.00,456.00
             155.00,456.00 156.00,456.00 156.00,456.00 Z" />
    <path id="orange"
        fill="#ffbf68" stroke="none" stroke-width="1"
        d="M 161.04,0.65
           C 164.75,-0.11 172.48,-0.53 176.00,0.65
             179.49,1.97 194.58,13.57 197.51,16.60
             197.51,16.60 202.28,22.58 202.28,22.58
             202.28,22.58 215.88,39.17 215.88,39.17
             224.11,51.25 230.02,70.31 229.95,84.96
             229.95,84.96 222.17,129.00 222.17,129.00
             221.44,136.54 222.73,143.74 224.69,151.00
             225.81,155.14 230.23,167.58 232.42,171.00
             237.03,178.19 251.78,192.35 258.42,198.69
             258.42,198.69 264.25,204.18 264.25,204.18
             272.16,213.46 270.04,227.28 258.00,231.57
             247.41,235.35 239.35,227.28 232.34,220.73
             226.14,214.95 226.17,215.54 220.31,208.74
             220.31,208.74 205.07,190.72 205.07,190.72
             198.47,180.20 194.89,167.98 192.12,156.00
             188.53,140.53 187.15,146.03 188.49,128.00
             188.49,128.00 194.12,95.00 194.12,95.00
             195.90,86.63 198.11,83.45 195.30,74.00
             192.02,62.95 182.75,49.74 174.34,41.92
             174.34,41.92 157.25,27.89 157.25,27.89
             148.98,19.15 149.01,5.64 161.04,0.65 Z
           M 42.00,136.00
           C 38.24,133.18 38.29,129.26 35.91,125.17
             30.97,116.66 23.57,108.73 29.43,98.73
             31.18,95.74 32.03,94.52 35.04,92.63
             37.35,91.19 39.28,90.36 42.00,90.11
             56.23,88.79 65.28,106.74 69.31,118.00
             71.31,123.59 75.84,140.44 76.34,146.00
             76.34,146.00 76.34,163.99 76.34,163.99
             76.34,163.99 74.04,199.00 74.04,199.00
             74.52,202.01 79.61,212.27 81.40,214.99
             88.46,225.66 95.99,231.35 106.00,238.96
             109.60,241.69 113.74,243.79 116.87,247.09
             121.61,252.10 122.92,260.64 119.70,266.83
             115.61,274.71 105.84,276.61 98.00,273.89
             88.98,270.77 77.52,259.84 70.41,253.36
             70.41,253.36 64.38,248.39 64.38,248.39
             61.25,245.33 60.84,243.45 58.54,240.39
             47.71,225.98 40.76,212.43 40.21,194.04
             40.02,187.80 41.27,186.23 41.83,181.00
             41.83,181.00 43.23,155.00 43.23,155.00
             43.23,155.00 42.00,136.00 42.00,136.00 Z
           M 145.00,122.61
           C 156.84,122.77 159.86,130.57 164.07,140.00
             169.84,152.89 168.75,159.89 171.26,172.91
             171.26,172.91 172.77,178.17 172.77,178.17
             174.20,185.77 173.86,188.45 177.71,196.00
             184.76,209.81 195.73,215.01 198.33,227.00
             200.43,236.66 195.01,244.82 185.00,245.82
             173.00,247.02 166.16,237.37 159.53,229.09
             159.53,229.09 151.95,219.83 151.95,219.83
             150.03,216.77 149.95,214.98 148.64,212.17
             148.64,212.17 145.10,205.96 145.10,205.96
             145.10,205.96 140.70,193.00 140.70,193.00
             140.70,193.00 139.04,176.83 139.04,176.83
             139.04,176.83 136.74,163.09 136.74,163.09
             135.13,154.85 127.97,145.66 128.08,138.00
             128.23,127.77 136.13,123.71 145.00,122.61 Z" />
</svg>
