<?xml version="1.0" encoding="UTF-8" standalone="no"?>
<!DOCTYPE svg PUBLIC "-//W3C//DTD SVG 20010904//EN"
              "http://www.w3.org/TR/2001/REC-SVG-20010904/DTD/svg10.dtd">

<svg xmlns="http://www.w3.org/2000/svg"
     width="42.3334mm" height="42.3334mm"
     viewBox="0 0 500 500">
  <path id="yellow"
        fill="#ffc100" stroke="none" stroke-width="1"
        d="M 146.00,13.71
           C 166.89,9.20 171.45,38.26 150.91,42.42
             146.79,43.26 140.14,40.55 138.02,36.87
             137.07,35.22 137.03,33.02 136.54,31.17
             135.92,28.80 134.98,27.64 135.31,24.97
             136.11,18.34 140.26,15.57 146.00,13.71 Z
           M 268.00,62.00
           C 268.79,55.92 273.29,50.89 276.98,46.18
             282.69,38.88 292.38,24.62 300.42,20.79
             300.42,20.79 308.00,18.24 308.00,18.24
             314.27,16.03 320.08,13.98 325.87,18.24
             332.39,23.17 333.09,36.89 326.67,42.08
             321.26,46.46 320.38,42.59 312.25,49.54
             312.25,49.54 299.99,65.00 299.99,65.00
             299.99,65.00 293.97,72.28 293.97,72.28
             293.97,72.28 291.74,76.84 291.74,76.84
             291.74,76.84 287.71,83.04 287.71,83.04
             282.14,93.80 280.16,105.18 289.15,114.71
             298.51,124.64 302.59,124.20 314.87,128.11
             314.87,128.11 353.00,137.94 353.00,137.94
             366.18,141.09 378.71,146.38 391.28,151.22
             391.28,151.22 404.00,155.02 404.00,155.02
             404.00,155.02 418.17,160.62 418.17,160.62
             418.17,160.62 435.91,166.92 435.91,166.92
             435.91,166.92 441.17,169.51 441.17,169.51
             441.17,169.51 458.96,174.45 458.96,174.45
             463.10,175.96 477.34,184.88 480.48,187.95
             486.88,194.18 495.49,210.08 495.49,219.00
             495.49,219.00 494.25,225.00 494.25,225.00
             491.64,239.65 491.92,232.97 486.85,243.09
             483.42,249.94 480.75,258.76 472.00,260.00
             471.76,261.38 471.87,262.12 471.01,263.41
             467.12,269.20 450.80,274.63 444.00,276.20
             444.00,276.20 425.00,280.80 425.00,280.80
             420.10,282.40 415.30,284.94 410.00,284.53
             410.00,284.53 380.00,278.11 380.00,278.11
             373.37,277.17 359.21,277.50 355.00,272.00
             348.68,273.28 335.04,270.05 331.12,264.61
             327.98,260.25 326.51,249.76 330.01,245.31
             331.52,243.38 338.53,240.88 341.02,240.65
             345.97,240.21 349.65,242.15 354.04,243.48
             358.47,244.83 361.04,244.13 365.00,246.96
             367.23,245.12 369.23,246.44 372.00,246.96
             382.02,248.67 376.34,248.83 388.00,249.00
             395.91,249.12 400.85,253.53 408.17,254.09
             415.81,254.67 418.05,253.07 425.00,251.45
             435.58,248.98 449.38,244.84 456.69,236.33
             460.05,232.41 465.67,224.52 464.71,219.09
             464.25,216.52 462.34,214.72 460.86,212.69
             451.35,199.71 444.14,202.10 431.00,196.81
             431.00,196.81 413.28,189.59 413.28,189.59
             413.28,189.59 372.00,175.62 372.00,175.62
             372.00,175.62 359.00,170.46 359.00,170.46
             359.00,170.46 337.00,165.55 337.00,165.55
             337.00,165.55 324.00,161.46 324.00,161.46
             324.00,161.46 310.00,158.24 310.00,158.24
             310.00,158.24 304.00,155.74 304.00,155.74
             304.00,155.74 293.00,152.05 293.00,152.05
             288.72,150.07 287.81,148.47 284.72,146.75
             279.47,143.81 273.90,141.13 269.08,137.47
             259.59,130.27 258.50,121.79 255.79,111.09
             254.59,106.34 254.09,107.66 254.00,102.00
             254.00,102.00 254.00,94.00 254.00,94.00
             254.02,84.02 254.94,87.56 257.58,79.83
             259.54,74.13 261.88,64.13 268.00,62.00 Z
           M 235.84,399.00
           C 233.77,396.71 235.98,390.57 235.84,387.00
             236.02,384.17 236.18,379.81 235.84,377.17
             235.84,377.17 234.24,372.83 234.24,372.83
             234.24,372.83 233.66,362.00 233.66,362.00
             233.66,362.00 228.44,344.00 228.44,344.00
             226.92,337.77 227.56,336.98 226.86,332.00
             226.86,332.00 222.25,313.00 222.25,313.00
             222.25,313.00 220.97,300.00 220.97,300.00
             220.97,300.00 216.24,279.83 216.24,279.83
             216.24,279.83 213.75,261.09 213.75,261.09
             213.75,261.09 211.37,254.91 211.37,254.91
             211.37,254.91 208.29,242.00 208.29,242.00
             208.29,242.00 202.59,223.00 202.59,223.00
             202.59,223.00 196.45,199.00 196.45,199.00
             196.45,199.00 193.51,185.17 193.51,185.17
             193.51,185.17 191.31,179.91 191.31,179.91
             191.31,179.91 187.45,166.00 187.45,166.00
             185.42,157.23 182.07,142.00 178.61,134.00
             176.09,128.19 169.87,120.94 169.90,115.00
             169.94,106.95 177.95,102.71 184.99,102.14
             187.63,101.93 188.90,102.43 191.28,103.32
             199.27,106.33 198.29,107.68 202.11,114.53
             205.74,121.07 203.73,117.80 205.48,123.84
             205.48,123.84 209.56,136.00 209.56,136.00
             209.56,136.00 214.49,156.83 214.49,156.83
             214.49,156.83 217.15,164.01 217.15,164.01
             217.15,164.01 223.46,189.83 223.46,189.83
             223.46,189.83 226.58,200.28 226.58,200.28
             226.58,200.28 229.49,213.83 229.49,213.83
             229.49,213.83 231.32,218.17 231.32,218.17
             231.32,218.17 234.41,230.00 234.41,230.00
             234.41,230.00 242.55,259.00 242.55,259.00
             243.77,264.44 242.89,268.73 243.49,272.00
             243.49,272.00 248.55,292.00 248.55,292.00
             248.55,292.00 249.26,303.91 249.26,303.91
             249.26,303.91 253.54,321.83 253.54,321.83
             253.54,321.83 255.70,327.09 255.70,327.09
             255.70,327.09 256.33,336.00 256.33,336.00
             256.33,336.00 260.41,351.00 260.41,351.00
             260.41,351.00 262.55,361.00 262.55,361.00
             262.55,361.00 262.55,367.00 262.55,367.00
             263.60,375.27 264.69,370.86 264.86,383.00
             264.94,388.49 266.33,395.33 263.09,400.00
             265.28,402.47 263.60,404.89 263.09,408.00
             263.09,408.00 258.54,432.83 258.54,432.83
             253.47,451.30 252.64,448.90 244.00,465.04
             239.54,473.39 235.81,481.42 227.72,486.97
             221.45,491.26 211.56,494.33 204.00,494.88
             204.00,494.88 198.17,494.88 198.17,494.88
             198.17,494.88 192.91,495.76 192.91,495.76
             192.91,495.76 180.00,494.08 180.00,494.08
             176.59,493.88 174.42,494.70 172.00,492.00
             166.68,494.08 164.46,493.59 160.00,490.00
             159.59,490.34 159.69,490.92 158.46,490.96
             158.46,490.96 146.00,485.88 146.00,485.88
             134.55,481.66 124.74,475.65 114.49,469.25
             114.49,469.25 109.03,466.42 109.03,466.42
             109.03,466.42 103.72,461.76 103.72,461.76
             103.72,461.76 97.18,457.57 97.18,457.57
             97.18,457.57 93.26,453.87 93.26,453.87
             93.26,453.87 87.16,449.75 87.16,449.75
             87.16,449.75 76.24,439.24 76.24,439.24
             76.24,439.24 71.46,435.51 71.46,435.51
             71.46,435.51 58.63,420.58 58.63,420.58
             56.32,417.13 55.87,413.55 54.20,410.04
             54.20,410.04 50.91,404.72 50.91,404.72
             50.91,404.72 44.72,390.00 44.72,390.00
             44.72,390.00 43.52,383.17 43.52,383.17
             43.52,383.17 40.50,375.00 40.50,375.00
             40.50,375.00 34.76,351.99 34.76,351.99
             33.56,346.02 31.74,342.59 36.54,337.28
             41.59,331.70 54.05,329.98 59.10,336.39
             61.59,339.54 63.35,349.76 64.24,354.00
             64.24,354.00 71.10,376.99 71.10,376.99
             72.45,380.52 73.37,380.73 74.62,383.28
             74.62,383.28 77.26,391.00 77.26,391.00
             77.26,391.00 82.79,402.00 82.79,402.00
             85.28,407.03 87.15,406.04 88.00,412.00
             94.31,413.60 94.05,415.51 98.44,419.55
             98.44,419.55 110.72,429.83 110.72,429.83
             110.72,429.83 115.46,434.47 115.46,434.47
             115.46,434.47 122.00,438.55 122.00,438.55
             130.67,444.70 137.11,450.09 147.00,454.75
             147.00,454.75 156.00,457.70 156.00,457.70
             156.00,457.70 164.58,461.47 164.58,461.47
             168.94,463.48 179.06,464.99 184.00,465.00
             187.64,465.01 191.45,464.15 194.00,467.00
             199.24,464.81 199.76,464.81 205.00,467.00
             205.00,467.00 211.81,460.81 211.81,460.81
             211.81,460.81 221.95,447.00 221.95,447.00
             221.95,447.00 228.04,433.00 228.04,433.00
             228.04,433.00 231.00,426.00 231.00,426.00
             229.68,419.47 232.21,415.09 233.55,409.00
             234.53,404.49 233.04,403.14 235.84,399.00 Z" />
</svg>
