<?xml version="1.0" encoding="UTF-8" standalone="no"?>
<!DOCTYPE svg PUBLIC "-//W3C//DTD SVG 20010904//EN"
              "http://www.w3.org/TR/2001/REC-SVG-20010904/DTD/svg10.dtd">

<svg xmlns="http://www.w3.org/2000/svg"
     width="1.66667in" height="1.66667in"
     viewBox="0 0 500 500">
  <path id="pink"
        fill="#ff00d8" stroke="none" stroke-width="1"
        d="M 445.00,141.00
           C 445.00,141.00 429.00,133.45 429.00,133.45
             429.00,133.45 401.05,124.81 401.05,124.81
             397.34,122.97 395.40,119.22 396.91,115.17
             398.52,110.85 405.39,108.09 409.00,105.26
             412.39,102.59 415.15,99.13 418.09,96.00
             425.77,87.80 434.07,80.48 431.52,68.00
             429.79,59.51 419.89,50.70 413.25,45.50
             413.25,45.50 399.17,35.80 399.17,35.80
             399.17,35.80 388.00,27.50 388.00,27.50
             380.68,23.18 370.30,20.26 362.00,18.35
             357.59,17.33 354.63,16.29 350.00,16.03
             339.44,15.46 331.84,18.19 322.00,21.69
             318.89,22.79 314.42,23.87 312.18,20.57
             309.45,16.57 312.24,11.70 316.04,9.76
             319.87,7.81 341.67,2.42 346.20,2.26
             352.74,2.03 358.72,3.80 365.00,5.37
             370.92,6.85 381.74,9.56 387.00,12.08
             397.66,17.21 407.30,24.82 417.00,31.49
             430.07,40.48 439.87,48.05 443.87,64.00
             444.50,66.48 445.37,69.46 445.41,72.00
             445.64,86.06 438.02,94.50 429.35,104.29
             423.73,110.63 425.11,110.11 418.00,116.00
             434.85,120.88 436.55,121.08 452.00,130.40
             455.96,132.79 462.16,135.89 462.72,141.01
             463.33,146.52 458.33,150.43 453.96,152.61
             446.93,156.14 422.99,166.36 416.00,168.00
             416.00,168.00 416.00,170.00 416.00,170.00
             425.47,174.12 424.65,175.74 431.13,182.91
             431.13,182.91 452.19,208.20 452.19,208.20
             465.11,224.83 473.98,238.09 481.41,258.00
             483.59,263.85 484.12,269.96 485.41,276.00
             487.62,286.38 491.02,302.72 490.72,313.15
             490.57,318.43 489.61,321.09 488.86,326.00
             487.91,332.23 484.39,349.72 482.12,355.00
             478.37,363.75 472.51,371.45 466.83,379.00
             466.83,379.00 459.03,389.27 459.03,389.27
             449.86,398.85 442.08,399.30 431.00,404.23
             431.00,404.23 403.00,417.53 403.00,417.53
             398.14,419.15 388.51,422.89 385.66,416.89
             385.03,415.56 384.66,413.56 385.04,412.11
             386.09,408.07 391.64,407.66 395.00,406.33
             395.00,406.33 407.42,399.59 407.42,399.59
             407.42,399.59 421.00,393.99 421.00,393.99
             421.00,393.99 441.00,385.73 441.00,385.73
             451.51,379.25 467.57,356.89 471.24,345.00
             471.24,345.00 473.07,336.44 473.07,336.44
             478.78,312.01 478.24,301.48 472.38,277.00
             472.38,277.00 470.26,266.96 470.26,266.96
             463.73,247.92 452.80,231.80 440.63,216.01
             440.63,216.01 419.73,191.20 419.73,191.20
             415.75,186.81 413.29,183.12 408.00,179.87
             403.43,177.06 392.02,174.24 394.04,167.04
             395.34,162.44 403.84,159.21 408.01,157.46
             417.50,153.49 437.60,146.46 445.00,141.00 Z
           M 88.00,248.00
           C 80.26,246.94 71.09,240.46 64.00,237.02
             64.00,237.02 49.00,229.40 49.00,229.40
             45.32,227.14 42.11,224.27 38.80,221.52
             22.52,207.99 13.50,197.04 6.21,177.00
             1.14,163.08 -0.17,161.18 0.00,146.00
             0.32,119.26 16.37,109.45 36.00,95.42
             41.62,91.40 53.00,82.93 60.00,83.14
             69.10,83.40 72.27,93.70 62.96,96.62
             50.05,100.66 52.34,101.48 42.00,108.66
             35.19,113.39 20.90,123.10 17.14,130.00
             15.95,132.18 15.24,135.54 14.63,138.00
             13.31,143.28 12.21,149.81 12.91,155.28
             14.22,165.47 24.37,185.64 30.62,193.83
             33.86,198.08 43.78,207.82 48.00,211.12
             51.92,214.18 57.83,219.11 62.00,221.36
             62.00,221.36 72.00,226.03 72.00,226.03
             82.63,231.52 90.15,236.16 102.00,239.37
             106.49,240.59 112.56,242.82 110.96,248.89
             109.79,253.37 105.34,251.70 98.00,257.96
             98.00,257.96 82.83,269.95 82.83,269.95
             72.18,277.46 63.02,281.79 55.00,293.00
             55.00,293.00 92.00,298.83 92.00,298.83
             96.64,299.28 103.17,298.36 105.97,303.21
             108.63,307.80 102.51,315.23 100.66,320.00
             97.09,329.20 92.43,352.04 92.79,361.80
             92.79,361.80 95.38,377.00 95.38,377.00
             96.93,385.27 96.38,388.93 99.54,398.00
             105.48,415.01 114.50,426.30 126.42,439.29
             143.79,458.22 156.14,468.02 182.00,470.16
             187.12,470.58 194.67,470.65 195.62,477.01
             195.91,478.97 195.57,480.89 194.26,482.43
             190.29,487.12 182.80,484.09 177.42,483.82
             171.34,483.51 170.67,482.77 165.00,481.14
             145.61,475.56 140.47,470.75 125.58,457.99
             119.96,453.17 115.07,447.60 110.21,442.05
             91.52,420.73 85.36,404.70 81.72,377.00
             80.83,370.25 80.01,367.06 80.00,360.00
             79.97,343.62 82.94,327.25 89.00,312.00
             75.64,310.24 64.08,309.58 51.00,305.34
             46.10,303.76 40.38,302.76 38.99,296.98
             37.49,290.71 43.45,284.24 47.30,279.96
             58.91,267.05 74.85,259.22 88.00,248.00 Z" />
    <path id="blue"
        fill="#003a78" stroke="none" stroke-width="1"
        d="M 212.00,115.00
           C 212.00,115.00 202.00,116.89 202.00,116.89
             202.00,116.89 179.00,123.72 179.00,123.72
             170.15,126.90 150.89,133.68 142.00,133.96
             137.37,134.10 133.03,133.41 132.24,127.99
             132.03,126.50 132.18,124.70 133.02,123.42
             135.55,119.59 141.57,120.48 145.44,120.16
             149.07,119.87 158.45,117.15 162.00,115.84
             162.00,115.84 192.00,107.29 192.00,107.29
             192.00,107.29 213.96,100.70 213.96,100.70
             213.96,100.70 231.00,98.86 231.00,98.86
             231.00,98.86 245.00,96.15 245.00,96.15
             249.12,95.55 253.27,94.42 256.96,92.45
             260.48,90.57 263.55,87.40 267.94,88.47
             273.84,89.91 274.30,98.57 265.83,103.29
             255.45,109.08 236.96,112.03 225.00,113.00
             225.00,113.00 237.11,147.00 237.11,147.00
             237.11,147.00 242.15,166.00 242.15,166.00
             242.15,166.00 251.44,198.00 251.44,198.00
             251.44,198.00 258.03,215.00 258.03,215.00
             258.03,215.00 267.09,249.00 267.09,249.00
             267.09,249.00 268.41,258.00 268.41,258.00
             268.41,258.00 272.32,272.00 272.32,272.00
             272.32,272.00 275.06,279.00 275.06,279.00
             275.06,279.00 276.32,287.00 276.32,287.00
             276.32,287.00 278.30,294.96 278.30,294.96
             278.30,294.96 279.77,312.20 279.77,312.20
             279.78,323.49 277.65,334.18 274.41,345.00
             272.97,349.82 271.53,355.15 266.96,357.91
             256.21,364.41 234.42,350.42 226.00,343.79
             218.09,337.56 217.00,335.53 210.53,328.89
             200.07,318.16 190.57,309.84 186.29,295.00
             185.54,292.38 184.64,289.75 184.58,287.00
             184.44,280.33 189.76,266.90 192.95,261.00
             195.26,256.73 198.16,250.51 203.96,251.27
             205.59,251.48 206.77,252.05 207.72,253.43
             211.22,258.48 207.68,262.70 205.20,267.00
             202.84,271.08 197.55,283.76 197.83,288.28
             198.15,293.51 202.40,299.07 205.63,302.95
             213.24,312.11 221.48,320.67 230.00,328.99
             235.85,334.69 242.49,339.82 250.00,343.14
             252.31,344.16 256.28,346.12 258.72,344.88
             261.98,343.21 263.41,334.45 263.91,330.99
             267.64,314.51 266.55,303.36 263.91,287.00
             263.91,287.00 256.89,261.00 256.89,261.00
             256.89,261.00 246.46,222.00 246.46,222.00
             246.46,222.00 239.62,206.00 239.62,206.00
             239.62,206.00 226.29,156.00 226.29,156.00
             226.29,156.00 212.00,115.00 212.00,115.00 Z
           M 325.11,104.56
           C 335.02,102.85 338.25,110.77 343.28,118.00
             352.84,131.74 363.80,152.97 364.00,170.00
             364.13,181.62 363.99,185.08 359.38,196.00
             357.95,199.40 355.85,204.44 351.90,205.40
             346.37,206.75 344.04,202.05 344.88,197.28
             345.78,192.23 349.59,186.75 350.33,179.00
             351.65,165.19 350.30,161.30 344.74,149.00
             344.74,149.00 341.96,142.04 341.96,142.04
             339.46,136.89 333.17,127.49 329.66,122.80
             326.04,117.97 315.35,109.13 325.11,104.56 Z
           M 310.00,110.95
           C 317.83,113.26 318.92,120.08 321.31,127.00
             324.36,135.84 332.19,163.57 331.55,172.00
             331.37,174.45 330.50,176.71 329.68,179.00
             327.48,185.07 322.24,201.71 314.05,200.16
             306.44,198.73 310.12,189.42 312.04,185.00
             314.10,180.24 317.23,175.22 317.81,170.00
             318.35,165.21 316.56,160.57 315.37,156.00
             315.37,156.00 308.61,131.00 308.61,131.00
             306.34,122.86 301.08,120.73 302.35,115.11
             303.22,111.29 306.78,111.01 310.00,110.95 Z
           M 112.11,157.78
           C 120.80,156.54 123.28,167.34 125.11,174.00
             129.68,190.58 136.48,206.75 146.06,221.11
             146.06,221.11 158.16,235.88 158.16,235.88
             161.29,239.85 161.36,244.90 155.96,246.81
             148.79,249.34 142.45,239.85 138.88,235.00
             127.04,218.90 118.93,200.25 113.87,181.00
             112.10,174.27 104.23,162.62 112.11,157.78 Z
           M 101.02,158.87
           C 105.90,159.81 106.88,162.26 107.68,167.00
             107.68,167.00 108.30,176.00 108.30,176.00
             108.30,176.00 111.81,196.00 111.81,196.00
             113.77,209.25 128.14,233.57 137.23,243.56
             137.23,243.56 153.10,258.42 153.10,258.42
             156.33,263.32 156.15,272.36 148.00,270.67
             143.79,269.79 134.11,259.83 130.66,256.47
             112.94,239.22 102.74,216.02 98.04,192.00
             96.50,184.16 94.87,175.99 95.00,168.00
             95.09,162.85 95.36,159.78 101.02,158.87 Z" />
</svg>
