<?xml version="1.0" encoding="UTF-8" standalone="no"?>
<!DOCTYPE svg PUBLIC "-//W3C//DTD SVG 20010904//EN"
              "http://www.w3.org/TR/2001/REC-SVG-20010904/DTD/svg10.dtd">

<svg xmlns="http://www.w3.org/2000/svg"
     width="1.66667in" height="1.66667in"
     viewBox="0 0 500 500">
  <path id="blue"
        fill="#2e9aff" stroke="none" stroke-width="1"
        d="M 0.00,0.00
           C 0.00,0.00 500.00,0.00 500.00,0.00
             500.00,0.00 500.00,500.00 500.00,500.00
             500.00,500.00 0.00,500.00 0.00,500.00
             0.00,500.00 0.00,0.00 0.00,0.00 Z
           M 135.00,322.00
           C 135.00,322.00 122.59,352.00 122.59,352.00
             122.59,352.00 115.39,383.00 115.39,383.00
             113.64,392.26 112.02,395.02 112.00,405.00
             111.98,420.86 112.29,426.26 114.05,442.00
             114.05,442.00 115.32,458.00 115.32,458.00
             116.87,467.49 122.90,481.18 134.00,481.86
             141.48,482.31 153.41,476.97 160.00,473.59
             160.00,473.59 201.00,451.68 201.00,451.68
             201.00,451.68 217.00,441.26 217.00,441.26
             218.97,439.83 222.47,436.61 224.96,436.88
             227.79,437.17 230.60,441.86 232.23,444.00
             232.23,444.00 242.99,458.00 242.99,458.00
             242.99,458.00 246.82,465.47 246.82,465.47
             250.20,469.64 262.73,470.87 268.00,470.99
             279.72,471.25 301.50,463.91 309.83,455.82
             320.55,445.40 327.05,432.17 333.63,419.00
             333.63,419.00 340.80,402.00 340.80,402.00
             341.62,399.91 343.13,395.03 344.70,393.68
             346.76,391.89 354.06,392.94 357.00,393.00
             357.00,393.00 370.00,394.00 370.00,394.00
             370.00,394.00 392.00,394.00 392.00,394.00
             392.00,394.00 414.00,395.74 414.00,395.74
             414.00,395.74 423.00,394.00 423.00,394.00
             423.00,394.00 431.00,394.00 431.00,394.00
             431.00,394.00 445.96,391.76 445.96,391.76
             445.96,391.76 455.01,391.76 455.01,391.76
             463.41,390.17 477.27,384.89 482.35,377.96
             484.47,375.07 485.29,371.39 486.29,368.00
             490.77,352.88 490.19,354.91 490.00,339.00
             489.82,324.53 478.49,301.97 470.46,290.04
             470.46,290.04 461.39,278.00 461.39,278.00
             461.39,278.00 452.46,264.00 452.46,264.00
             447.75,257.83 444.44,247.89 437.00,244.49
             431.79,242.11 429.84,245.85 425.00,243.61
             425.00,243.61 412.00,234.85 412.00,234.85
             412.00,234.85 395.00,226.11 395.00,226.11
             395.00,226.11 381.00,218.00 381.00,218.00
             377.36,215.93 364.48,210.16 362.69,207.61
             360.63,204.68 363.74,197.34 364.71,194.00
             364.71,194.00 370.31,179.00 370.31,179.00
             370.31,179.00 377.95,157.00 377.95,157.00
             383.49,141.84 382.05,135.27 384.80,121.00
             384.80,121.00 391.00,89.00 391.00,89.00
             391.96,84.13 394.14,73.59 393.82,69.00
             393.05,58.20 392.21,47.32 388.52,37.00
             385.14,27.54 376.17,22.31 368.00,17.58
             361.67,13.91 350.72,6.72 344.00,5.47
             332.88,3.39 314.83,13.55 307.00,21.00
             307.64,17.25 308.21,13.76 306.35,10.19
             303.91,5.49 297.92,5.01 294.74,9.23
             292.61,12.04 293.12,16.55 292.56,20.00
             291.76,24.99 289.35,31.16 287.59,36.00
             287.59,36.00 283.24,47.00 283.24,47.00
             281.31,52.82 281.77,54.28 278.69,61.00
             278.69,61.00 262.00,94.00 262.00,94.00
             262.00,94.00 260.00,94.00 260.00,94.00
             257.24,85.92 247.95,80.05 241.42,74.92
             217.27,55.92 215.24,57.16 190.00,42.87
             182.94,38.87 169.00,31.19 161.00,34.65
             152.13,38.48 146.24,47.58 142.40,56.00
             134.93,72.42 128.00,96.96 128.00,115.00
             128.00,115.00 106.00,113.00 106.00,113.00
             96.84,112.99 84.70,114.63 76.00,117.47
             72.12,118.73 68.63,120.90 65.00,122.71
             65.00,122.71 57.00,126.31 57.00,126.31
             48.05,130.85 37.22,138.49 29.58,145.00
             21.71,151.70 13.53,158.56 8.81,168.00
             5.57,174.47 2.67,188.76 3.11,196.00
             3.11,196.00 4.83,205.00 4.83,205.00
             5.73,211.26 6.76,218.17 9.35,224.00
             11.28,228.35 13.66,231.10 16.09,235.00
             23.06,246.23 31.00,256.81 40.91,265.68
             52.81,276.31 73.24,288.39 87.00,296.91
             87.00,296.91 97.00,303.55 97.00,303.55
             103.60,307.53 128.16,320.05 135.00,322.00 Z
           M 301.00,40.00
           C 303.69,40.09 305.47,40.30 308.00,39.04
             311.47,37.31 315.19,33.06 318.15,30.50
             323.13,26.20 326.02,24.82 332.00,22.43
             336.32,20.70 338.13,19.46 343.00,20.53
             353.79,22.90 372.10,34.80 376.58,45.00
             377.85,47.88 378.98,64.17 379.00,68.00
             379.05,78.86 375.32,92.95 373.26,104.00
             373.26,104.00 365.84,147.00 365.84,147.00
             365.84,147.00 353.74,181.00 353.74,181.00
             353.74,181.00 348.00,199.00 348.00,199.00
             348.00,199.00 327.00,187.30 327.00,187.30
             324.50,185.93 316.00,181.83 314.51,180.36
             312.23,178.11 308.97,168.60 306.90,165.00
             306.90,165.00 286.91,132.00 286.91,132.00
             286.91,132.00 276.31,114.00 276.31,114.00
             274.74,111.58 271.66,107.90 271.71,105.00
             271.78,101.96 279.81,89.74 281.74,86.00
             290.26,69.49 290.78,69.74 297.09,52.00
             299.07,46.44 299.69,46.43 301.00,40.00 Z
           M 165.00,50.06
           C 173.80,47.83 188.20,58.59 196.00,62.68
             196.00,62.68 205.00,67.03 205.00,67.03
             217.70,73.94 229.06,82.90 240.00,92.30
             242.95,94.84 252.57,104.35 252.91,108.00
             253.10,110.12 251.18,113.18 250.15,115.00
             250.15,115.00 242.17,129.00 242.17,129.00
             240.60,131.96 235.74,143.69 233.59,144.93
             230.96,146.42 224.72,143.43 222.00,142.39
             222.00,142.39 204.00,136.31 204.00,136.31
             204.00,136.31 193.00,132.08 193.00,132.08
             193.00,132.08 158.00,122.87 158.00,122.87
             155.12,122.15 145.40,119.90 143.60,118.15
             140.72,115.36 143.63,103.83 144.40,100.00
             147.45,84.73 147.89,80.70 154.15,66.00
             157.48,58.19 157.24,54.98 165.00,50.06 Z
           M 262.00,120.00
           C 267.67,125.23 276.72,143.43 281.19,151.00
             285.15,157.70 291.37,165.86 294.00,173.00
             294.00,173.00 280.00,166.59 280.00,166.59
             280.00,166.59 247.00,153.00 247.00,153.00
             247.00,153.00 262.00,120.00 262.00,120.00 Z
           M 141.00,310.00
           C 141.00,310.00 126.00,302.68 126.00,302.68
             101.18,289.66 88.07,282.12 65.00,265.71
             46.59,252.61 41.26,246.97 29.05,228.00
             25.93,223.15 22.66,218.52 20.76,213.00
             17.39,203.23 16.83,184.40 21.44,175.00
             25.07,167.57 38.20,156.32 45.00,151.43
             65.09,136.97 85.51,125.65 111.00,127.93
             116.64,128.43 120.69,128.79 126.00,131.00
             125.42,141.92 126.65,153.11 127.54,164.00
             129.37,186.31 133.10,211.48 139.15,233.00
             139.15,233.00 149.59,262.00 149.59,262.00
             151.46,266.92 155.29,275.79 154.75,281.00
             154.28,285.50 143.67,304.51 141.00,310.00 Z
           M 140.00,133.00
           C 140.00,133.00 172.00,141.63 172.00,141.63
             172.00,141.63 188.00,145.35 188.00,145.35
             188.00,145.35 225.00,158.00 225.00,158.00
             225.00,158.00 195.46,199.00 195.46,199.00
             195.46,199.00 190.68,209.00 190.68,209.00
             190.68,209.00 175.47,238.00 175.47,238.00
             175.47,238.00 164.00,262.00 164.00,262.00
             164.00,262.00 156.45,239.00 156.45,239.00
             156.45,239.00 150.17,221.00 150.17,221.00
             150.17,221.00 148.83,211.00 148.83,211.00
             148.83,211.00 146.46,201.00 146.46,201.00
             143.09,182.47 140.00,151.77 140.00,133.00 Z
           M 238.00,165.00
           C 238.00,165.00 285.00,184.42 285.00,184.42
             289.37,186.29 300.59,189.52 303.15,192.41
             304.78,194.26 306.79,199.51 307.87,202.00
             307.87,202.00 312.00,211.00 312.00,211.00
             312.00,211.00 317.38,231.00 317.38,231.00
             317.38,231.00 320.41,238.00 320.41,238.00
             322.48,243.34 327.58,261.84 326.77,267.00
             326.14,271.07 320.43,280.00 318.15,284.00
             318.15,284.00 304.77,311.00 304.77,311.00
             304.77,311.00 285.65,347.00 285.65,347.00
             283.63,350.48 278.29,359.23 274.91,360.96
             271.71,362.60 268.03,360.83 265.00,359.58
             265.00,359.58 244.00,351.72 244.00,351.72
             244.00,351.72 214.00,343.00 214.00,343.00
             210.09,341.86 201.19,339.18 198.42,336.50
             196.39,334.55 194.75,329.74 193.41,327.00
             193.41,327.00 183.06,306.00 183.06,306.00
             180.28,300.72 172.45,287.39 172.29,282.00
             172.17,278.10 174.47,274.43 176.05,271.00
             176.05,271.00 184.41,252.00 184.41,252.00
             184.41,252.00 203.76,214.00 203.76,214.00
             203.76,214.00 210.96,200.00 210.96,200.00
             210.96,200.00 216.62,193.00 216.62,193.00
             216.62,193.00 225.36,180.99 225.36,180.99
             225.36,180.99 238.00,165.00 238.00,165.00 Z
           M 323.00,202.00
           C 328.10,203.04 340.70,210.01 342.31,215.09
             343.03,217.36 341.92,220.76 341.29,223.00
             339.86,228.07 338.69,234.61 336.00,239.00
             330.95,231.52 330.78,225.29 328.28,217.00
             328.28,217.00 323.00,202.00 323.00,202.00 Z
           M 357.00,221.00
           C 357.00,221.00 383.00,235.70 383.00,235.70
             383.00,235.70 405.00,247.34 405.00,247.34
             409.62,250.09 436.83,270.72 440.50,274.52
             440.50,274.52 448.04,285.00 448.04,285.00
             455.83,295.30 459.31,299.33 465.77,311.00
             473.76,325.44 476.57,335.58 475.07,352.00
             474.66,356.58 471.94,367.28 468.69,370.45
             462.12,376.83 441.15,378.68 432.00,379.01
             432.00,379.01 413.00,380.91 413.00,380.91
             413.00,380.91 394.91,379.83 394.91,379.83
             394.91,379.83 367.00,379.00 367.00,379.00
             367.00,379.00 348.92,378.00 348.92,378.00
             354.35,348.63 352.30,324.28 348.92,295.00
             348.92,295.00 347.33,284.00 347.33,284.00
             346.35,279.21 343.15,270.03 343.18,266.00
             343.22,261.69 348.10,249.70 349.78,245.00
             349.78,245.00 357.00,221.00 357.00,221.00 Z
           M 243.00,235.73
           C 239.05,235.98 232.31,237.49 229.04,239.72
             221.93,244.58 220.55,254.19 222.38,262.00
             225.36,274.77 229.80,282.63 242.00,288.73
             244.89,290.18 247.71,291.51 251.00,291.53
             259.79,291.58 271.37,288.36 275.69,280.00
             280.09,271.47 272.15,249.62 265.82,243.10
             259.53,236.63 251.40,236.30 243.00,235.73 Z
           M 333.00,286.00
           C 333.00,286.00 334.46,299.00 334.46,299.00
             338.03,319.19 337.89,339.61 336.89,360.00
             336.74,363.00 335.68,373.26 333.42,374.98
             331.99,376.06 329.69,375.96 328.00,375.83
             316.01,374.90 300.08,372.64 289.00,368.00
             289.00,368.00 313.97,324.00 313.97,324.00
             313.97,324.00 321.31,308.00 321.31,308.00
             321.31,308.00 333.00,286.00 333.00,286.00 Z
           M 162.00,298.00
           C 165.82,302.41 175.54,322.18 177.00,328.00
             177.00,328.00 154.00,316.00 154.00,316.00
             154.00,316.00 162.00,298.00 162.00,298.00 Z
           M 178.00,328.00
           C 178.00,328.00 179.00,328.00 179.00,328.00
             179.00,328.00 178.00,329.00 178.00,329.00
             178.00,329.00 178.00,328.00 178.00,328.00 Z
           M 148.00,329.00
           C 148.00,329.00 176.00,343.51 176.00,343.51
             179.84,345.55 184.35,346.72 187.20,350.21
             190.42,354.15 190.87,360.21 192.54,365.00
             195.67,373.99 199.79,383.47 204.04,392.00
             204.04,392.00 214.19,413.00 214.19,413.00
             215.30,415.82 217.25,418.93 215.92,422.00
             214.02,426.39 205.10,431.83 201.00,434.50
             201.00,434.50 175.00,449.13 175.00,449.13
             175.00,449.13 156.00,459.41 156.00,459.41
             151.02,461.95 139.44,469.45 134.39,465.40
             129.51,461.50 129.39,449.97 128.58,444.00
             125.31,420.10 124.98,403.66 130.74,380.00
             136.80,355.13 136.89,352.90 148.00,329.00 Z
           M 205.00,355.00
           C 205.00,355.00 243.00,366.34 243.00,366.34
             243.00,366.34 264.00,374.00 264.00,374.00
             262.21,379.39 259.83,381.72 256.25,386.00
             250.20,393.22 236.48,406.18 228.00,410.00
             228.00,410.00 213.79,380.00 213.79,380.00
             213.79,380.00 208.40,366.00 208.40,366.00
             208.40,366.00 205.00,355.00 205.00,355.00 Z
           M 329.00,391.00
           C 326.17,403.09 319.52,413.77 314.58,425.00
             308.50,438.81 298.02,448.56 284.00,453.78
             279.28,455.54 278.29,456.35 273.00,456.58
             257.19,457.28 253.54,446.98 244.74,436.00
             242.73,433.48 236.58,426.44 237.45,423.17
             238.05,420.90 243.08,417.18 244.99,415.66
             253.84,408.63 253.80,409.55 261.88,400.58
             261.88,400.58 273.54,387.00 273.54,387.00
             275.25,384.91 277.20,381.60 280.09,381.19
             281.99,380.93 292.15,384.32 295.00,385.00
             295.00,385.00 316.00,389.57 316.00,389.57
             316.00,389.57 329.00,391.00 329.00,391.00 Z" />
</svg>
