<?xml version="1.0" encoding="UTF-8" standalone="no"?>
<!DOCTYPE svg PUBLIC "-//W3C//DTD SVG 20010904//EN"
              "http://www.w3.org/TR/2001/REC-SVG-20010904/DTD/svg10.dtd">

<svg xmlns="http://www.w3.org/2000/svg"
     width="1.66667in" height="1.66667in"
     viewBox="0 0 500 500">
  <path id="white"
        fill="white" stroke="none" stroke-width="1"
        d="M 311.00,75.00
           C 336.53,67.54 374.20,55.74 399.00,70.20
             418.49,81.56 426.56,100.09 436.61,119.00
             436.61,119.00 453.09,156.00 453.09,156.00
             457.80,166.78 463.15,177.71 466.56,189.00
             466.56,189.00 473.67,223.00 473.67,223.00
             476.93,238.29 480.54,243.87 481.82,262.00
             482.19,267.23 480.30,272.27 478.28,277.00
             476.23,281.80 474.23,286.98 470.67,290.90
             465.01,297.13 448.20,305.25 440.00,307.96
             440.00,307.96 426.00,312.00 426.00,312.00
             426.00,312.00 423.00,270.00 423.00,270.00
             423.00,270.00 423.00,244.00 423.00,244.00
             423.00,244.00 428.00,193.00 428.00,193.00
             428.09,186.04 431.22,170.45 424.15,165.87
             421.73,164.31 419.23,166.01 417.89,168.14
             416.07,171.02 417.04,178.29 416.99,182.00
             416.99,182.00 416.00,201.00 416.00,201.00
             416.00,201.00 412.00,237.00 412.00,237.00
             412.00,237.00 411.00,266.00 411.00,266.00
             411.07,271.65 413.59,285.65 412.00,290.00
             406.44,281.20 405.63,277.80 401.29,269.00
             401.29,269.00 394.12,256.00 394.12,256.00
             394.12,256.00 385.74,237.00 385.74,237.00
             385.74,237.00 368.47,204.00 368.47,204.00
             368.47,204.00 358.62,176.00 358.62,176.00
             358.62,176.00 352.70,161.00 352.70,161.00
             350.13,153.79 350.83,153.16 346.89,145.00
             346.89,145.00 338.59,128.00 338.59,128.00
             335.92,121.77 334.44,116.04 330.85,110.00
             328.75,106.48 324.88,101.14 320.06,103.28
             314.90,105.56 317.13,109.57 319.27,113.00
             319.27,113.00 334.98,146.00 334.98,146.00
             340.41,156.05 339.00,155.87 342.28,165.00
             342.28,165.00 347.46,178.00 347.46,178.00
             347.46,178.00 358.93,210.00 358.93,210.00
             358.93,210.00 374.96,240.00 374.96,240.00
             374.96,240.00 384.16,261.00 384.16,261.00
             387.40,267.69 391.62,273.94 394.00,281.00
             394.00,281.00 378.00,269.20 378.00,269.20
             378.00,269.20 366.00,260.59 366.00,260.59
             366.00,260.59 350.00,250.21 350.00,250.21
             350.00,250.21 341.00,242.92 341.00,242.92
             338.65,241.18 333.92,237.69 331.00,237.64
             327.73,237.59 324.19,240.42 325.40,243.96
             326.31,246.62 329.81,248.64 332.00,250.20
             332.00,250.20 348.00,262.29 348.00,262.29
             367.23,278.53 393.73,300.17 415.00,313.00
             410.21,315.93 406.06,315.96 401.00,317.99
             401.00,317.99 361.00,333.69 361.00,333.69
             361.00,333.69 331.00,346.91 331.00,346.91
             331.00,346.91 322.00,349.46 322.00,349.46
             322.00,349.46 313.00,352.96 313.00,352.96
             313.00,352.96 302.00,355.92 302.00,355.92
             302.00,355.92 293.00,359.33 293.00,359.33
             293.00,359.33 270.00,365.46 270.00,365.46
             270.00,365.46 246.00,374.68 246.00,374.68
             246.00,374.68 230.00,379.22 230.00,379.22
             230.00,379.22 221.00,382.79 221.00,382.79
             221.00,382.79 199.00,388.87 199.00,388.87
             199.00,388.87 182.00,393.33 182.00,393.33
             182.00,393.33 174.00,394.46 174.00,394.46
             174.00,394.46 145.00,399.16 145.00,399.16
             136.00,400.34 128.10,402.82 119.00,400.09
             112.71,398.20 108.63,393.86 104.35,389.13
             94.50,378.25 90.31,370.51 83.01,358.00
             77.31,348.24 78.09,347.27 74.54,338.00
             74.54,338.00 67.55,321.00 67.55,321.00
             67.55,321.00 53.78,288.00 53.78,288.00
             53.78,288.00 45.31,270.00 45.31,270.00
             45.31,270.00 37.44,248.00 37.44,248.00
             37.44,248.00 25.39,220.00 25.39,220.00
             22.81,214.56 16.78,202.40 15.92,197.00
             15.32,194.03 15.96,190.20 15.92,187.00
             16.03,184.10 15.74,179.64 16.74,177.00
             18.27,172.94 23.76,167.88 27.01,164.95
             27.01,164.95 59.00,141.14 59.00,141.14
             59.00,141.14 73.00,131.95 73.00,131.95
             95.93,119.50 129.20,113.23 155.00,109.84
             155.00,109.84 172.00,107.17 172.00,107.17
             172.00,107.17 195.00,105.70 195.00,105.70
             195.00,105.70 217.00,102.33 217.00,102.33
             217.00,102.33 231.00,98.63 231.00,98.63
             234.16,97.84 246.69,94.14 248.87,94.49
             252.23,95.02 252.87,98.51 256.05,99.26
             259.96,100.18 270.11,92.11 274.00,90.05
             278.92,87.45 294.62,86.13 301.00,85.28
             308.06,84.34 312.80,83.63 311.00,75.00 Z
           M 217.00,163.00
           C 217.00,163.00 238.30,187.17 238.30,187.17
             238.30,187.17 253.15,210.00 253.15,210.00
             253.15,210.00 268.56,230.00 268.56,230.00
             268.56,230.00 297.82,276.00 297.82,276.00
             297.82,276.00 304.94,291.00 304.94,291.00
             304.94,291.00 321.09,321.89 321.09,321.89
             323.56,325.27 329.13,327.88 332.17,323.69
             335.01,319.78 330.73,314.30 328.74,311.00
             328.74,311.00 312.31,279.00 312.31,279.00
             312.31,279.00 307.37,268.00 307.37,268.00
             307.37,268.00 275.71,219.00 275.71,219.00
             275.71,219.00 266.29,207.00 266.29,207.00
             266.29,207.00 241.25,171.72 241.25,171.72
             241.25,171.72 223.81,151.00 223.81,151.00
             221.52,148.04 217.57,141.59 214.83,139.74
             206.07,133.84 204.93,146.73 205.01,151.99
             205.01,151.99 206.09,182.00 206.09,182.00
             206.09,182.00 207.99,197.00 207.99,197.00
             207.99,197.00 211.87,231.00 211.87,231.00
             211.87,231.00 214.29,254.00 214.29,254.00
             214.29,254.00 217.49,267.00 217.49,267.00
             217.49,267.00 219.88,280.00 219.88,280.00
             221.51,286.22 223.66,293.66 222.00,300.00
             220.34,292.53 215.77,286.34 211.69,280.00
             211.69,280.00 198.45,258.00 198.45,258.00
             198.45,258.00 176.55,217.00 176.55,217.00
             170.14,206.25 160.67,193.82 152.80,184.00
             147.51,177.40 139.42,167.08 133.58,161.44
             130.17,158.15 126.11,154.85 121.10,156.89
             115.50,159.18 116.25,165.15 115.91,170.00
             115.91,170.00 115.00,180.00 115.00,180.00
             115.00,180.00 115.00,202.00 115.00,202.00
             115.21,224.84 118.22,247.35 120.86,270.00
             123.63,293.88 125.22,313.53 132.14,337.00
             132.14,337.00 140.56,361.00 140.56,361.00
             140.56,361.00 142.94,372.90 142.94,372.90
             144.50,376.82 149.24,378.59 152.60,375.48
             156.40,371.72 153.97,365.37 152.60,361.00
             152.60,361.00 140.29,323.00 140.29,323.00
             135.68,306.75 134.84,289.70 132.85,273.00
             130.03,249.41 127.21,225.78 127.00,202.00
             127.00,202.00 127.00,173.00 127.00,173.00
             133.77,178.91 137.72,185.12 143.20,192.00
             150.89,201.67 158.81,211.45 165.26,222.00
             165.26,222.00 184.57,258.00 184.57,258.00
             184.57,258.00 210.49,302.00 210.49,302.00
             210.49,302.00 215.42,314.00 215.42,314.00
             215.42,314.00 231.37,353.00 231.37,353.00
             233.42,356.38 236.30,362.94 240.99,362.28
             246.57,361.50 246.04,356.05 244.99,352.00
             241.24,337.57 238.83,330.31 236.84,315.00
             236.84,315.00 232.54,282.00 232.54,282.00
             232.54,282.00 228.90,268.00 228.90,268.00
             228.90,268.00 226.29,253.00 226.29,253.00
             226.29,253.00 219.83,195.00 219.83,195.00
             219.83,195.00 217.00,163.00 217.00,163.00 Z" />
    <path id="purple"
        fill="#520087" stroke="none" stroke-width="1"
        d="M 369.00,50.71
           C 373.25,50.84 387.38,52.25 391.00,53.38
             394.86,54.58 398.40,56.61 402.00,58.40
             425.04,69.86 434.42,86.71 445.10,108.96
             445.10,108.96 451.01,119.00 451.01,119.00
             451.01,119.00 463.30,148.83 463.30,148.83
             463.30,148.83 469.84,163.00 469.84,163.00
             477.10,181.43 482.76,200.46 485.99,220.00
             488.66,236.10 493.72,241.36 493.99,263.00
             494.11,272.55 493.45,274.40 489.36,283.00
             486.78,288.43 481.18,298.41 476.99,302.46
             466.33,312.75 436.73,322.43 422.00,325.87
             415.94,327.28 413.96,326.34 407.00,328.80
             407.00,328.80 394.00,334.22 394.00,334.22
             394.00,334.22 358.00,348.28 358.00,348.28
             358.00,348.28 336.83,358.09 336.83,358.09
             336.83,358.09 326.00,361.22 326.00,361.22
             326.00,361.22 317.00,364.56 317.00,364.56
             317.00,364.56 305.00,367.80 305.00,367.80
             305.00,367.80 298.00,370.54 298.00,370.54
             298.00,370.54 276.00,376.46 276.00,376.46
             276.00,376.46 249.83,386.23 249.83,386.23
             249.83,386.23 233.00,391.46 233.00,391.46
             233.00,391.46 225.00,394.54 225.00,394.54
             225.00,394.54 184.00,405.33 184.00,405.33
             184.00,405.33 165.00,408.32 165.00,408.32
             155.48,409.97 133.78,414.07 125.00,413.91
             103.45,413.51 87.68,390.63 77.88,374.00
             74.25,367.83 69.78,360.63 67.17,354.00
             67.17,354.00 64.33,345.00 64.33,345.00
             64.33,345.00 59.50,335.00 59.50,335.00
             59.50,335.00 56.29,326.00 56.29,326.00
             56.29,326.00 37.14,282.00 37.14,282.00
             37.14,282.00 26.29,254.00 26.29,254.00
             26.29,254.00 10.10,216.00 10.10,216.00
             6.89,208.07 3.41,201.98 3.04,193.00
             2.83,187.88 3.40,176.55 5.21,172.00
             10.02,159.93 25.91,150.02 35.91,142.15
             45.69,134.46 60.78,123.40 72.00,118.59
             72.00,118.59 80.00,115.69 80.00,115.69
             80.00,115.69 95.00,109.52 95.00,109.52
             111.58,103.82 128.81,101.57 146.00,98.72
             146.00,98.72 172.83,94.16 172.83,94.16
             172.83,94.16 187.00,94.16 187.00,94.16
             187.00,94.16 214.00,90.49 214.00,90.49
             214.00,90.49 254.00,80.13 254.00,80.13
             254.00,80.13 271.72,77.00 271.72,77.00
             271.72,77.00 277.04,74.55 277.04,74.55
             277.04,74.55 287.00,71.34 287.00,71.34
             287.00,71.34 304.00,64.29 304.00,64.29
             304.00,64.29 348.91,52.53 348.91,52.53
             348.91,52.53 369.00,50.71 369.00,50.71 Z
           M 424.12,314.00
           C 424.12,314.00 440.91,309.55 440.91,309.55
             450.97,306.17 468.97,298.16 474.48,288.96
             476.70,285.25 483.16,269.93 483.61,266.00
             484.84,255.47 476.97,232.10 474.88,221.00
             474.88,221.00 468.11,188.00 468.11,188.00
             462.13,168.95 445.86,133.68 436.51,115.42
             436.51,115.42 429.65,101.17 429.65,101.17
             420.76,85.21 406.05,68.53 388.00,63.38
             384.50,62.38 369.68,61.15 365.56,61.24
             346.37,61.68 328.57,69.25 310.00,73.00
             310.18,75.58 310.99,79.30 309.26,81.43
             307.46,83.66 303.66,83.10 301.02,83.48
             301.02,83.48 276.00,87.23 276.00,87.23
             276.00,87.23 258.73,97.02 258.73,97.02
             255.15,97.95 253.94,94.66 253.00,92.00
             245.06,92.17 236.78,95.18 229.00,97.13
             229.00,97.13 195.00,103.70 195.00,103.70
             195.00,103.70 171.00,105.28 171.00,105.28
             171.00,105.28 140.00,110.80 140.00,110.80
             118.81,114.23 98.14,118.52 78.28,127.13
             65.51,132.67 54.91,141.89 43.91,150.15
             36.47,155.74 21.40,165.79 16.39,173.01
             13.54,177.14 14.26,182.24 13.90,187.04
             13.92,189.95 13.36,194.35 13.90,197.00
             14.84,204.32 26.54,226.35 30.29,234.28
             30.29,234.28 42.77,268.83 42.77,268.83
             42.77,268.83 50.91,286.04 50.91,286.04
             50.91,286.04 59.43,307.00 59.43,307.00
             59.43,307.00 65.93,320.00 65.93,320.00
             65.93,320.00 68.66,328.00 68.66,328.00
             68.66,328.00 73.20,339.00 73.20,339.00
             73.20,339.00 75.60,347.00 75.60,347.00
             75.60,347.00 81.51,359.00 81.51,359.00
             83.86,363.51 92.59,378.33 95.48,381.83
             95.48,381.83 101.61,388.21 101.61,388.21
             105.65,392.84 110.13,399.11 116.04,401.30
             125.28,405.08 135.58,402.38 145.00,401.30
             145.00,401.30 174.00,396.46 174.00,396.46
             174.00,396.46 183.00,395.10 183.00,395.10
             183.00,395.10 205.00,388.57 205.00,388.57
             205.00,388.57 222.00,384.03 222.00,384.03
             222.00,384.03 230.00,380.92 230.00,380.92
             230.00,380.92 246.00,376.76 246.00,376.76
             246.00,376.76 260.00,371.69 260.00,371.69
             260.00,371.69 270.00,367.46 270.00,367.46
             270.00,367.46 294.00,361.08 294.00,361.08
             294.00,361.08 302.00,357.95 302.00,357.95
             302.00,357.95 321.00,351.32 321.00,351.32
             321.00,351.32 332.00,348.20 332.00,348.20
             332.00,348.20 355.17,338.26 355.17,338.26
             355.17,338.26 389.00,324.84 389.00,324.84
             389.00,324.84 403.00,318.61 403.00,318.61
             403.00,318.61 418.00,314.00 418.00,314.00
             414.00,309.32 400.01,301.36 393.98,296.72
             393.98,296.72 374.09,281.71 374.09,281.71
             374.09,281.71 368.49,276.43 368.49,276.43
             368.49,276.43 353.29,264.45 353.29,264.45
             353.29,264.45 347.57,259.46 347.57,259.46
             347.57,259.46 330.87,246.99 330.87,246.99
             329.12,245.44 325.60,242.00 329.28,240.15
             331.50,239.05 334.13,240.89 336.00,241.93
             343.36,246.05 342.13,245.53 348.17,250.85
             348.17,250.85 378.71,271.64 378.71,271.64
             384.40,275.58 389.15,281.31 396.00,283.00
             395.11,274.59 389.96,268.31 386.21,261.00
             386.21,261.00 378.79,244.00 378.79,244.00
             378.79,244.00 365.00,218.96 365.00,218.96
             358.19,205.97 354.07,190.81 349.20,177.00
             349.20,177.00 343.26,162.96 343.26,162.96
             343.26,162.96 339.05,151.04 339.05,151.04
             339.05,151.04 333.71,140.00 333.71,140.00
             333.71,140.00 324.37,118.00 324.37,118.00
             322.98,115.32 317.93,109.06 319.13,106.27
             321.54,100.62 327.48,107.99 328.89,110.47
             328.89,110.47 334.40,122.00 334.40,122.00
             334.40,122.00 336.63,128.58 336.63,128.58
             336.63,128.58 345.79,146.00 345.79,146.00
             345.79,146.00 351.09,162.00 351.09,162.00
             351.09,162.00 356.76,176.00 356.76,176.00
             356.76,176.00 366.72,205.00 366.72,205.00
             366.72,205.00 381.98,233.00 381.98,233.00
             381.98,233.00 394.50,261.00 394.50,261.00
             394.50,261.00 399.27,269.28 399.27,269.28
             399.27,269.28 406.21,284.00 406.21,284.00
             406.21,284.00 412.00,294.00 412.00,294.00
             413.56,292.96 414.12,292.93 414.68,290.86
             414.68,290.86 413.02,270.09 413.02,270.09
             413.02,270.09 413.73,245.08 413.73,245.08
             413.73,245.08 414.29,230.00 414.29,230.00
             414.29,230.00 418.00,201.00 418.00,201.00
             418.00,201.00 418.85,172.01 418.85,172.01
             419.12,170.01 420.54,166.58 423.16,167.96
             425.75,169.33 426.28,173.43 426.54,176.00
             426.54,176.00 426.00,196.00 426.00,196.00
             425.93,205.46 425.58,203.59 424.57,211.99
             424.57,211.99 423.92,220.09 423.92,220.09
             423.92,220.09 421.49,236.99 421.49,236.99
             420.54,253.59 420.83,270.45 422.31,287.00
             422.31,287.00 424.12,304.00 424.12,304.00
             424.12,304.00 424.12,314.00 424.12,314.00 Z
           M 225.00,306.00
           C 224.96,292.73 222.70,286.34 220.46,274.00
             220.46,274.00 219.33,266.00 219.33,266.00
             219.33,266.00 216.53,255.09 216.53,255.09
             216.53,255.09 213.85,230.00 213.85,230.00
             213.85,230.00 209.95,196.00 209.95,196.00
             209.95,196.00 206.83,165.00 206.83,165.00
             206.83,165.00 206.83,146.00 206.83,146.00
             207.04,143.66 208.47,140.73 211.17,140.52
             215.41,140.19 218.39,147.07 220.51,150.01
             220.51,150.01 244.62,178.04 244.62,178.04
             244.62,178.04 260.94,202.95 260.94,202.95
             260.94,202.95 274.89,220.58 274.89,220.58
             274.89,220.58 308.39,273.42 308.39,273.42
             308.39,273.42 312.65,282.80 312.65,282.80
             312.65,282.80 325.46,309.00 325.46,309.00
             326.88,311.74 331.02,317.29 331.00,320.07
             330.97,323.86 326.63,326.85 322.47,320.89
             322.47,320.89 306.49,291.00 306.49,291.00
             306.49,291.00 295.79,269.01 295.79,269.01
             295.79,269.01 286.73,255.01 286.73,255.01
             286.73,255.01 277.03,238.96 277.03,238.96
             277.03,238.96 259.75,215.99 259.75,215.99
             259.75,215.99 246.06,195.47 246.06,195.47
             246.06,195.47 239.56,186.17 239.56,186.17
             234.28,179.52 222.16,166.83 219.00,160.00
             213.46,163.12 215.26,167.45 215.71,173.00
             215.71,173.00 218.73,206.00 218.73,206.00
             218.73,206.00 224.29,253.00 224.29,253.00
             224.29,253.00 226.28,262.00 226.28,262.00
             226.28,262.00 227.64,271.00 227.64,271.00
             227.64,271.00 230.71,283.00 230.71,283.00
             230.71,283.00 236.03,321.00 236.03,321.00
             236.03,321.00 242.71,349.00 242.71,349.00
             243.51,351.82 245.52,356.91 243.22,359.40
             238.66,364.33 234.59,355.99 232.99,352.91
             232.99,352.91 218.85,317.00 218.85,317.00
             218.85,317.00 211.68,300.00 211.68,300.00
             211.68,300.00 202.17,285.04 202.17,285.04
             202.17,285.04 187.13,259.00 187.13,259.00
             175.02,237.50 169.50,222.61 153.58,202.00
             153.58,202.00 135.99,180.00 135.99,180.00
             132.82,176.29 130.21,172.50 125.83,170.00
             123.83,182.14 125.12,204.20 125.83,217.00
             126.70,241.12 129.79,265.14 133.37,289.00
             133.37,289.00 137.46,318.00 137.46,318.00
             137.46,318.00 149.87,358.00 149.87,358.00
             150.78,361.46 153.78,369.76 151.96,372.76
             150.14,375.76 146.36,375.40 144.93,371.81
             144.93,371.81 142.03,359.00 142.03,359.00
             142.03,359.00 139.24,352.00 139.24,352.00
             139.24,352.00 136.80,344.00 136.80,344.00
             134.68,338.83 134.10,339.42 132.37,333.00
             125.69,308.15 124.51,288.15 121.95,263.00
             121.95,263.00 117.00,206.00 117.00,206.00
             117.00,206.00 117.54,171.00 117.54,171.00
             117.95,167.21 117.51,161.33 121.23,159.19
             124.77,157.15 128.55,159.54 131.27,161.79
             136.58,166.17 144.51,176.34 148.73,182.00
             148.73,182.00 172.81,213.58 172.81,213.58
             172.81,213.58 186.32,240.00 186.32,240.00
             186.32,240.00 205.51,272.72 205.51,272.72
             205.51,272.72 218.47,295.00 218.47,295.00
             220.83,299.74 220.38,303.24 225.00,306.00 Z" />
</svg>
