<?xml version="1.0" encoding="UTF-8" standalone="no"?>
<!DOCTYPE svg PUBLIC "-//W3C//DTD SVG 20010904//EN"
              "http://www.w3.org/TR/2001/REC-SVG-20010904/DTD/svg10.dtd">

<svg xmlns="http://www.w3.org/2000/svg"
     width="2in" height="2in"
     viewBox="0 0 600 600">
  <path id="teal"
        fill="#33c4ae" stroke="none" stroke-width="1"
        d="M 419.00,248.00
           C 410.51,222.51 405.87,196.00 399.37,170.00
             395.35,153.90 390.04,132.90 381.19,119.00
             375.04,109.34 362.00,105.57 363.19,92.00
             364.14,81.16 374.64,74.40 385.00,75.18
             395.52,75.98 400.08,81.66 405.95,89.58
             412.02,97.77 415.42,102.23 419.42,112.00
             419.42,112.00 426.31,133.00 426.31,133.00
             434.63,153.85 438.81,176.08 443.34,198.00
             443.34,198.00 448.96,223.00 448.96,223.00
             448.96,223.00 460.39,249.42 460.39,249.42
             460.39,249.42 470.09,276.00 470.09,276.00
             473.85,284.80 476.81,289.09 479.58,299.00
             484.47,316.51 483.80,330.29 484.00,348.00
             484.15,360.13 491.32,375.00 486.35,386.00
             483.24,392.88 475.01,398.33 469.17,402.74
             469.17,402.74 457.72,411.14 457.72,411.14
             439.84,421.64 417.41,426.23 398.17,416.48
             390.77,412.74 379.75,401.62 374.44,395.13
             367.75,386.96 361.06,377.89 357.17,368.00
             350.97,352.21 348.76,326.65 350.33,309.72
             350.33,309.72 351.83,300.00 351.83,300.00
             352.46,293.77 351.85,293.03 353.42,286.00
             354.34,281.92 359.47,266.53 361.37,263.17
             361.37,263.17 367.32,255.00 367.32,255.00
             375.51,243.03 385.44,234.13 401.04,237.76
             407.48,239.25 413.67,244.23 419.00,248.00 Z
           M 490.91,113.53
           C 494.63,113.20 498.61,113.55 501.99,115.30
             516.21,122.65 513.74,151.05 491.00,149.22
             475.70,147.98 471.28,131.04 477.25,121.30
             480.34,116.25 485.48,114.61 490.91,113.53 Z
           M 284.00,176.51
           C 308.22,172.93 313.77,207.29 291.00,211.53
             269.98,215.45 263.31,193.03 273.22,182.06
             276.51,178.42 279.48,177.67 284.00,176.51 Z
           M 94.00,264.00
           C 94.61,256.77 97.76,250.45 100.90,244.00
             108.25,228.88 121.50,214.01 137.00,206.99
             144.88,203.43 148.08,202.99 156.00,200.85
             162.86,198.99 167.73,197.09 175.00,197.00
             201.05,196.71 216.08,207.28 234.00,225.00
             239.93,230.87 246.79,238.16 251.56,245.00
             251.56,245.00 258.09,256.83 258.09,256.83
             258.09,256.83 263.62,265.00 263.62,265.00
             263.62,265.00 269.28,280.00 269.28,280.00
             271.59,286.35 277.55,305.90 277.90,311.99
             277.90,311.99 274.24,345.00 274.24,345.00
             274.24,345.00 268.91,361.00 268.91,361.00
             268.91,361.00 265.53,373.00 265.53,373.00
             264.93,377.67 265.87,381.21 263.07,385.96
             253.67,401.94 229.25,394.63 227.19,377.00
             226.26,369.05 229.41,361.31 231.99,354.00
             237.25,339.10 240.86,333.37 241.23,317.00
             241.44,307.63 237.80,301.30 234.59,293.00
             226.59,272.31 222.11,265.86 206.58,250.00
             200.55,243.85 188.47,235.10 180.00,233.50
             178.10,233.30 175.92,233.10 174.00,233.50
             170.56,233.83 153.18,240.27 150.00,242.21
             138.39,249.31 130.74,266.51 127.02,279.09
             125.91,282.84 123.02,290.29 123.87,294.00
             124.70,297.60 129.16,301.96 131.57,304.87
             131.57,304.87 144.58,323.09 144.58,323.09
             149.24,330.14 149.89,333.16 153.35,339.83
             153.35,339.83 157.75,347.01 157.75,347.01
             162.18,356.23 166.36,373.76 167.48,384.00
             169.33,397.16 172.23,403.63 167.48,417.00
             165.87,420.91 163.83,424.66 160.56,427.35
             157.69,429.72 153.64,430.66 150.00,430.91
             135.93,431.88 128.37,421.53 121.33,410.83
             121.33,410.83 107.12,389.00 107.12,389.00
             100.30,375.53 97.55,360.49 93.73,346.00
             93.73,346.00 87.67,321.00 87.67,321.00
             86.86,317.10 87.16,312.42 85.21,309.00
             83.94,306.78 78.66,301.12 76.63,299.02
             73.85,296.15 72.32,295.02 68.99,292.84
             66.35,291.13 60.20,287.55 57.09,287.61
             53.16,287.69 48.20,293.70 46.81,297.09
             46.81,297.09 44.58,306.00 44.58,306.00
             41.64,319.23 41.72,318.39 41.96,332.01
             41.96,332.01 41.96,340.00 41.96,340.00
             42.26,344.68 45.86,365.74 47.28,370.00
             47.28,370.00 53.87,386.00 53.87,386.00
             53.87,386.00 62.46,408.00 62.46,408.00
             69.62,424.88 75.82,422.94 76.81,435.00
             78.00,449.33 63.57,457.26 51.00,452.89
             43.97,450.45 39.49,444.13 35.80,438.00
             35.80,438.00 28.56,422.00 28.56,422.00
             21.06,407.02 14.60,389.37 10.89,373.00
             10.89,373.00 9.00,362.00 9.00,362.00
             9.00,362.00 5.21,339.00 5.21,339.00
             5.21,339.00 6.00,328.00 6.00,328.00
             6.00,328.00 6.00,318.00 6.00,318.00
             6.14,306.36 11.61,280.81 18.47,271.44
             22.29,266.22 27.71,262.12 32.85,258.31
             40.19,252.85 44.16,249.61 53.96,249.12
             69.05,248.37 81.39,257.25 94.00,264.00 Z
           M 517.00,215.47
           C 536.14,212.97 540.63,229.61 546.44,244.00
             546.44,244.00 554.24,267.00 554.24,267.00
             554.24,267.00 558.56,277.00 558.56,277.00
             558.56,277.00 567.03,309.00 567.03,309.00
             567.03,309.00 571.58,323.00 571.58,323.00
             571.58,323.00 575.22,337.00 575.22,337.00
             577.45,343.76 579.05,342.86 581.33,354.00
             582.30,358.73 582.49,366.50 580.35,370.91
             577.44,376.91 568.53,381.13 562.00,380.45
             552.19,379.43 544.82,373.98 543.05,364.00
             543.05,364.00 542.32,354.00 542.32,354.00
             542.32,354.00 536.03,330.00 536.03,330.00
             536.03,330.00 532.16,321.00 532.16,321.00
             532.16,321.00 524.85,293.00 524.85,293.00
             524.85,293.00 519.03,275.09 519.03,275.09
             514.93,262.99 502.54,242.31 503.04,231.00
             503.45,221.77 508.44,217.51 517.00,215.47 Z
           M 291.96,236.49
           C 308.24,234.86 312.12,246.67 314.54,260.00
             314.54,260.00 322.92,314.42 322.92,314.42
             322.92,314.42 327.53,331.00 327.53,331.00
             329.77,339.97 331.94,355.72 332.69,365.00
             333.74,377.83 327.80,389.96 313.00,388.82
             295.09,387.43 295.85,369.28 294.16,356.00
             294.16,356.00 292.80,343.92 292.80,343.92
             292.80,343.92 287.83,324.00 287.83,324.00
             287.83,324.00 280.87,280.00 280.87,280.00
             280.87,280.00 278.87,270.00 278.87,270.00
             277.07,258.44 271.92,246.83 285.00,238.85
             287.25,237.48 289.44,237.04 291.96,236.49 Z
           M 397.00,280.00
           C 397.00,280.00 395.00,280.00 395.00,280.00
             387.97,293.72 385.62,309.21 386.25,324.42
             386.25,324.42 386.25,333.00 386.25,333.00
             386.25,333.00 387.95,340.00 387.95,340.00
             389.15,345.99 389.43,350.21 392.22,356.00
             397.05,366.03 401.48,371.81 410.00,379.13
             413.85,382.44 417.57,385.86 423.00,385.74
             429.76,385.58 436.47,380.46 442.00,377.00
             442.00,377.00 437.30,368.91 437.30,368.91
             437.30,368.91 426.78,348.00 426.78,348.00
             426.78,348.00 414.40,314.42 414.40,314.42
             414.40,314.42 397.00,280.00 397.00,280.00 Z" />
</svg>
