<?xml version="1.0" encoding="UTF-8" standalone="no"?>
<!DOCTYPE svg PUBLIC "-//W3C//DTD SVG 20010904//EN"
              "http://www.w3.org/TR/2001/REC-SVG-20010904/DTD/svg10.dtd">

<svg xmlns="http://www.w3.org/2000/svg"
     width="2in" height="2in"
     viewBox="0 0 600 600">
  <path id="red"
        fill="#e70031" stroke="none" stroke-width="1"
        d="M 548.00,338.00
           C 549.80,330.56 552.38,329.85 550.82,319.00
             550.24,314.99 548.45,312.63 546.91,309.00
             546.91,309.00 533.28,280.83 533.28,280.83
             533.28,280.83 528.31,270.28 528.31,270.28
             521.30,257.21 511.34,240.32 500.67,230.00
             489.41,219.10 463.14,209.81 461.78,193.00
             460.95,182.60 466.00,177.71 474.01,172.27
             483.69,165.70 495.15,162.23 505.99,157.99
             505.99,157.99 517.00,153.15 517.00,153.15
             523.14,150.78 537.78,145.97 537.41,138.00
             537.06,130.64 530.86,120.08 527.07,113.83
             527.07,113.83 514.34,93.28 514.34,93.28
             514.34,93.28 501.32,75.83 501.32,75.83
             498.08,71.12 488.16,58.80 481.99,59.74
             475.86,60.66 470.67,64.26 465.98,68.00
             455.98,75.98 443.06,92.70 437.05,104.00
             434.10,109.55 434.87,113.26 432.29,116.74
             425.50,125.91 410.29,127.80 401.81,120.07
             387.82,107.33 399.06,83.56 408.36,71.54
             408.36,71.54 413.48,64.01 413.48,64.01
             423.67,50.55 435.32,37.31 450.00,28.67
             454.61,25.96 460.02,24.23 465.00,22.35
             477.85,17.48 490.17,14.87 503.00,21.54
             511.36,25.89 524.96,38.49 530.75,46.04
             530.75,46.04 541.04,61.54 541.04,61.54
             541.04,61.54 551.29,74.28 551.29,74.28
             556.40,81.77 569.24,103.13 572.14,111.00
             572.14,111.00 576.21,128.00 576.21,128.00
             576.21,128.00 579.58,139.83 579.58,139.83
             580.17,145.20 576.71,156.16 574.37,161.00
             570.04,169.92 554.67,181.43 545.83,185.75
             545.83,185.75 535.04,189.77 535.04,189.77
             535.04,189.77 524.00,195.00 524.00,195.00
             534.71,204.62 551.01,225.55 557.79,238.17
             557.79,238.17 562.77,248.91 562.77,248.91
             562.77,248.91 566.43,255.09 566.43,255.09
             566.43,255.09 569.57,261.91 569.57,261.91
             578.56,278.81 587.81,295.97 591.17,315.00
             592.27,320.20 591.28,322.99 591.17,328.00
             590.33,342.16 590.05,347.69 582.12,360.00
             579.47,364.10 576.96,367.55 573.00,370.53
             564.76,376.73 556.24,378.00 547.00,380.77
             547.00,380.77 538.00,383.67 538.00,383.67
             532.64,384.61 525.48,384.41 520.00,384.51
             506.89,384.76 490.63,389.51 483.65,374.00
             482.75,372.00 482.23,369.19 482.09,367.00
             481.43,356.24 486.52,348.45 497.00,345.23
             501.63,343.81 504.58,344.48 509.00,344.06
             513.39,343.65 513.62,342.97 518.83,343.11
             524.37,343.25 529.55,343.83 535.00,342.52
             535.00,342.52 548.00,338.00 548.00,338.00 Z
           M 272.00,259.24
           C 270.83,251.30 273.19,246.03 274.77,238.95
             274.77,238.95 279.32,215.99 279.32,215.99
             283.43,200.76 298.36,180.54 313.00,174.21
             319.63,171.34 325.96,171.05 332.97,171.87
             337.52,172.41 340.65,172.43 344.91,174.65
             352.33,178.53 365.13,189.33 371.41,195.12
             386.67,209.17 403.44,229.88 411.76,249.00
             411.76,249.00 414.61,258.00 414.61,258.00
             417.64,266.82 419.58,268.65 420.85,279.00
             420.85,279.00 421.88,294.00 421.88,294.00
             421.40,306.68 414.92,322.32 403.96,329.33
             394.58,335.33 385.45,336.55 374.73,337.90
             368.83,338.64 362.93,340.17 357.00,339.00
             354.27,342.31 350.95,341.74 347.00,342.16
             347.00,342.16 326.00,344.00 326.00,344.00
             326.00,344.00 330.05,355.83 330.05,355.83
             330.05,355.83 333.23,362.04 333.23,362.04
             333.23,362.04 336.52,371.00 336.52,371.00
             336.52,371.00 346.22,393.00 346.22,393.00
             346.22,393.00 351.01,407.91 351.01,407.91
             351.01,407.91 354.14,414.09 354.14,414.09
             354.14,414.09 357.35,427.00 357.35,427.00
             357.35,427.00 360.57,437.04 360.57,437.04
             360.57,437.04 365.10,456.00 365.10,456.00
             365.10,456.00 368.78,465.00 368.78,465.00
             368.78,465.00 371.61,475.00 371.61,475.00
             371.61,475.00 375.08,483.00 375.08,483.00
             375.08,483.00 378.69,498.00 378.69,498.00
             381.17,507.20 385.09,516.38 385.82,526.00
             387.34,546.12 369.05,553.76 356.23,547.37
             348.68,543.60 339.75,529.43 336.04,522.00
             336.04,522.00 331.20,508.00 331.20,508.00
             331.20,508.00 322.95,490.00 322.95,490.00
             322.95,490.00 317.76,476.00 317.76,476.00
             317.76,476.00 308.30,454.00 308.30,454.00
             308.30,454.00 303.25,434.00 303.25,434.00
             303.25,434.00 298.77,422.00 298.77,422.00
             298.77,422.00 295.60,410.17 295.60,410.17
             295.60,410.17 292.36,402.99 292.36,402.99
             292.36,402.99 289.32,391.00 289.32,391.00
             289.32,391.00 285.48,382.00 285.48,382.00
             285.48,382.00 283.27,373.00 283.27,373.00
             283.27,373.00 279.66,361.00 279.66,361.00
             279.66,361.00 274.46,332.00 274.46,332.00
             272.54,325.84 258.34,304.27 253.85,298.17
             248.85,291.38 243.42,287.92 244.18,278.00
             244.84,269.46 250.27,261.38 259.01,259.24
             262.14,258.80 268.54,259.00 272.00,259.24 Z
           M 329.00,213.00
           C 320.64,218.75 320.24,223.95 317.32,233.00
             313.43,245.03 312.19,257.51 310.75,270.00
             310.01,276.46 308.89,279.97 309.02,286.96
             309.11,290.87 309.98,301.09 309.02,304.00
             309.02,304.00 311.00,309.00 311.00,309.00
             311.00,309.00 329.00,302.48 329.00,302.48
             329.00,302.48 361.00,299.28 361.00,299.28
             365.30,298.72 377.35,298.13 380.19,295.06
             381.64,293.48 381.13,290.98 381.15,289.00
             381.22,277.59 380.19,281.64 376.96,272.00
             371.68,256.24 358.67,238.49 346.43,227.42
             346.43,227.42 329.00,213.00 329.00,213.00 Z
           M 92.00,311.00
           C 92.00,311.00 93.45,298.72 93.45,298.72
             94.57,289.21 98.11,273.39 102.54,265.00
             110.64,249.66 128.89,236.57 146.58,236.22
             162.11,235.90 176.92,244.54 188.56,254.12
             188.56,254.12 217.71,281.04 217.71,281.04
             222.84,286.83 237.78,308.46 241.35,315.09
             241.35,315.09 244.66,322.00 244.66,322.00
             244.66,322.00 255.95,343.00 255.95,343.00
             255.95,343.00 259.18,351.00 259.18,351.00
             259.18,351.00 262.80,358.00 262.80,358.00
             262.80,358.00 265.39,366.83 265.39,366.83
             265.39,366.83 269.04,375.00 269.04,375.00
             269.04,375.00 274.40,396.00 274.40,396.00
             274.91,398.08 275.94,405.98 275.78,408.00
             275.78,408.00 274.00,415.58 274.00,415.58
             274.00,415.58 272.71,428.00 272.71,428.00
             272.71,428.00 271.17,437.00 271.17,437.00
             270.51,443.30 271.22,450.16 267.81,455.83
             259.51,469.67 238.63,468.35 231.45,454.00
             227.61,446.34 230.72,434.98 232.34,427.00
             232.34,427.00 234.20,404.91 234.20,404.91
             233.99,394.98 227.21,380.10 223.15,370.91
             223.15,370.91 207.51,340.00 207.51,340.00
             207.51,340.00 199.39,324.66 199.39,324.66
             199.39,324.66 194.82,318.91 194.82,318.91
             194.82,318.91 190.46,312.32 190.46,312.32
             190.46,312.32 180.03,302.29 180.03,302.29
             180.03,302.29 159.00,283.88 159.00,283.88
             156.06,281.47 151.11,277.64 147.00,278.26
             142.06,279.02 138.48,285.75 136.94,290.00
             134.74,296.10 133.39,309.19 132.48,316.00
             132.48,316.00 128.87,340.58 128.87,340.58
             128.67,343.61 128.98,352.27 129.84,355.00
             129.84,355.00 143.48,380.00 143.48,380.00
             143.48,380.00 155.25,410.00 155.25,410.00
             155.25,410.00 157.96,420.00 157.96,420.00
             157.96,420.00 163.08,434.00 163.08,434.00
             163.08,434.00 167.24,452.00 167.24,452.00
             169.02,459.24 173.35,473.94 172.82,481.00
             171.89,493.20 161.90,500.37 150.00,499.48
             137.64,498.57 132.93,489.92 127.18,480.28
             127.18,480.28 123.59,474.96 123.59,474.96
             123.59,474.96 113.20,453.00 113.20,453.00
             103.37,430.43 105.35,433.32 99.20,411.00
             99.20,411.00 96.44,402.00 96.44,402.00
             96.44,402.00 90.14,371.04 90.14,371.04
             88.56,367.50 82.40,360.92 79.63,357.73
             73.60,350.79 58.19,334.76 51.00,330.00
             51.00,330.00 40.62,355.17 40.62,355.17
             39.55,361.54 39.51,378.78 40.62,385.00
             40.62,385.00 43.64,398.91 43.64,398.91
             43.64,398.91 44.17,409.00 44.17,409.00
             44.17,409.00 45.77,423.00 45.77,423.00
             45.77,423.00 46.30,436.00 46.30,436.00
             47.30,443.03 49.04,445.34 50.62,451.04
             50.62,451.04 52.52,459.00 52.52,459.00
             53.73,462.96 56.27,466.28 58.04,470.00
             60.87,475.93 63.07,482.33 66.82,487.79
             66.82,487.79 73.01,495.09 73.01,495.09
             76.86,501.21 77.11,511.84 73.01,517.90
             65.69,528.70 50.77,528.47 41.18,521.16
             34.91,516.38 31.61,508.92 28.14,502.13
             28.14,502.13 21.31,488.02 21.31,488.02
             21.31,488.02 17.50,480.91 17.50,480.91
             7.15,456.94 4.67,430.70 2.91,405.00
             2.91,405.00 0.40,387.00 0.40,387.00
             -0.60,377.59 -0.27,353.20 1.46,344.00
             3.45,333.39 6.71,329.39 10.69,320.01
             14.44,311.18 19.37,300.28 26.26,293.42
             35.83,283.89 38.82,286.69 47.00,282.00
             47.00,282.00 66.00,288.98 66.00,288.98
             66.00,288.98 92.00,311.00 92.00,311.00 Z" />
</svg>
