<?xml version="1.0" encoding="UTF-8" standalone="no"?>
<!DOCTYPE svg PUBLIC "-//W3C//DTD SVG 20010904//EN"
              "http://www.w3.org/TR/2001/REC-SVG-20010904/DTD/svg10.dtd">

<svg xmlns="http://www.w3.org/2000/svg"
     width="2in" height="2in"
     viewBox="0 0 600 600">
  <path id="green"
        fill="#00ff4d" stroke="none" stroke-width="1"
        d="M 505.00,213.00
           C 490.01,223.00 482.52,231.54 463.00,231.99
             447.37,232.34 431.63,224.09 420.00,214.13
             415.51,210.28 411.45,207.19 408.35,202.00
             399.09,186.50 399.09,178.40 395.72,162.00
             394.67,156.92 392.33,146.57 390.54,142.00
             388.47,136.73 380.02,126.49 388.64,116.21
             395.49,108.04 412.10,108.29 418.55,124.00
             421.06,130.12 426.35,147.51 427.71,154.00
             430.53,167.39 429.57,176.99 440.29,187.71
             444.82,192.25 456.33,200.27 463.00,199.39
             469.09,198.59 474.43,194.15 479.00,190.39
             484.31,186.01 493.83,178.65 495.55,172.00
             497.02,166.28 492.44,154.76 490.78,149.00
             490.78,149.00 481.96,108.00 481.96,108.00
             478.67,96.66 469.16,79.30 485.00,72.36
             487.09,71.45 488.74,71.14 491.00,71.05
             503.87,70.49 507.76,79.42 510.74,90.00
             510.74,90.00 514.50,102.00 514.50,102.00
             514.50,102.00 518.50,122.00 518.50,122.00
             518.50,122.00 522.17,137.91 522.17,137.91
             524.09,141.50 527.61,142.94 529.36,149.00
             530.35,152.39 529.98,161.04 530.00,165.00
             530.00,165.00 535.82,196.00 535.82,196.00
             535.82,196.00 538.43,217.00 538.43,217.00
             538.43,217.00 540.84,232.00 540.84,232.00
             540.84,232.00 546.41,280.00 546.41,280.00
             546.41,280.00 549.44,311.00 549.44,311.00
             550.46,317.44 553.51,323.35 552.90,330.00
             552.32,336.18 548.87,340.90 543.00,343.03
             526.42,349.05 519.92,333.02 517.75,320.00
             517.75,320.00 513.84,282.00 513.84,282.00
             513.84,282.00 508.72,236.00 508.72,236.00
             508.72,236.00 505.00,213.00 505.00,213.00 Z
           M 276.00,275.24
           C 274.83,267.30 277.19,262.03 278.77,254.95
             278.77,254.95 283.32,231.99 283.32,231.99
             287.43,216.76 302.36,196.54 317.00,190.21
             323.63,187.34 329.96,187.05 336.97,187.87
             341.52,188.41 344.65,188.43 348.91,190.65
             356.33,194.53 369.13,205.33 375.41,211.12
             390.67,225.17 407.44,245.88 415.76,265.00
             415.76,265.00 418.61,274.00 418.61,274.00
             421.64,282.82 423.58,284.65 424.85,295.00
             424.85,295.00 425.88,310.00 425.88,310.00
             425.40,322.68 418.92,338.32 407.96,345.33
             398.58,351.33 389.45,352.55 378.73,353.90
             372.83,354.64 366.93,356.17 361.00,355.00
             358.27,358.31 354.95,357.74 351.00,358.16
             351.00,358.16 330.00,360.00 330.00,360.00
             330.00,360.00 334.05,371.83 334.05,371.83
             334.05,371.83 337.23,378.04 337.23,378.04
             337.23,378.04 340.52,387.00 340.52,387.00
             340.52,387.00 350.22,409.00 350.22,409.00
             350.22,409.00 355.01,423.91 355.01,423.91
             355.01,423.91 358.14,430.09 358.14,430.09
             358.14,430.09 361.35,443.00 361.35,443.00
             361.35,443.00 364.57,453.04 364.57,453.04
             364.57,453.04 369.10,472.00 369.10,472.00
             369.10,472.00 372.78,481.00 372.78,481.00
             372.78,481.00 375.61,491.00 375.61,491.00
             375.61,491.00 379.08,499.00 379.08,499.00
             379.08,499.00 382.69,514.00 382.69,514.00
             385.17,523.20 389.09,532.38 389.82,542.00
             391.34,562.12 373.05,569.76 360.23,563.37
             352.68,559.60 343.75,545.43 340.04,538.00
             340.04,538.00 335.20,524.00 335.20,524.00
             335.20,524.00 326.95,506.00 326.95,506.00
             326.95,506.00 321.76,492.00 321.76,492.00
             321.76,492.00 312.30,470.00 312.30,470.00
             312.30,470.00 307.25,450.00 307.25,450.00
             307.25,450.00 302.77,438.00 302.77,438.00
             302.77,438.00 299.60,426.17 299.60,426.17
             299.60,426.17 296.36,418.99 296.36,418.99
             296.36,418.99 293.32,407.00 293.32,407.00
             293.32,407.00 289.48,398.00 289.48,398.00
             289.48,398.00 287.27,389.00 287.27,389.00
             287.27,389.00 283.66,377.00 283.66,377.00
             283.66,377.00 278.46,348.00 278.46,348.00
             276.54,341.84 262.34,320.27 257.85,314.17
             252.85,307.38 247.42,303.92 248.18,294.00
             248.84,285.46 254.27,277.38 263.01,275.24
             266.14,274.80 272.54,275.00 276.00,275.24 Z
           M 333.00,229.00
           C 324.64,234.75 324.24,239.95 321.32,249.00
             317.43,261.03 316.19,273.51 314.75,286.00
             314.01,292.46 312.89,295.97 313.02,302.96
             313.11,306.87 313.98,317.09 313.02,320.00
             313.02,320.00 315.00,325.00 315.00,325.00
             315.00,325.00 333.00,318.48 333.00,318.48
             333.00,318.48 365.00,315.28 365.00,315.28
             369.30,314.72 381.35,314.13 384.19,311.06
             385.64,309.48 385.13,306.98 385.15,305.00
             385.22,293.59 384.19,297.64 380.96,288.00
             375.68,272.24 362.67,254.49 350.43,243.42
             350.43,243.42 333.00,229.00 333.00,229.00 Z
           M 96.00,327.00
           C 96.00,327.00 97.45,314.72 97.45,314.72
             98.57,305.21 102.11,289.39 106.54,281.00
             114.64,265.66 132.89,252.57 150.58,252.22
             166.11,251.90 180.92,260.54 192.56,270.12
             192.56,270.12 221.71,297.04 221.71,297.04
             226.84,302.83 241.78,324.46 245.35,331.09
             245.35,331.09 248.66,338.00 248.66,338.00
             248.66,338.00 259.95,359.00 259.95,359.00
             259.95,359.00 263.18,367.00 263.18,367.00
             263.18,367.00 266.80,374.00 266.80,374.00
             266.80,374.00 269.39,382.83 269.39,382.83
             269.39,382.83 273.04,391.00 273.04,391.00
             273.04,391.00 278.40,412.00 278.40,412.00
             278.91,414.08 279.94,421.98 279.78,424.00
             279.78,424.00 278.00,431.58 278.00,431.58
             278.00,431.58 276.71,444.00 276.71,444.00
             276.71,444.00 275.17,453.00 275.17,453.00
             274.51,459.30 275.22,466.16 271.81,471.83
             263.51,485.67 242.63,484.35 235.45,470.00
             231.61,462.34 234.72,450.98 236.34,443.00
             236.34,443.00 238.20,420.91 238.20,420.91
             237.99,410.98 231.21,396.10 227.15,386.91
             227.15,386.91 211.51,356.00 211.51,356.00
             211.51,356.00 203.39,340.66 203.39,340.66
             203.39,340.66 198.82,334.91 198.82,334.91
             198.82,334.91 194.46,328.32 194.46,328.32
             194.46,328.32 184.03,318.29 184.03,318.29
             184.03,318.29 163.00,299.88 163.00,299.88
             160.06,297.47 155.11,293.64 151.00,294.26
             146.06,295.02 142.48,301.75 140.94,306.00
             138.74,312.10 137.39,325.19 136.48,332.00
             136.48,332.00 132.87,356.58 132.87,356.58
             132.67,359.61 132.98,368.27 133.84,371.00
             133.84,371.00 147.48,396.00 147.48,396.00
             147.48,396.00 159.25,426.00 159.25,426.00
             159.25,426.00 161.96,436.00 161.96,436.00
             161.96,436.00 167.08,450.00 167.08,450.00
             167.08,450.00 171.24,468.00 171.24,468.00
             173.02,475.24 177.35,489.94 176.82,497.00
             175.89,509.20 165.90,516.37 154.00,515.48
             141.64,514.57 136.93,505.92 131.18,496.28
             131.18,496.28 127.59,490.96 127.59,490.96
             127.59,490.96 117.20,469.00 117.20,469.00
             107.37,446.43 109.35,449.32 103.20,427.00
             103.20,427.00 100.44,418.00 100.44,418.00
             100.44,418.00 94.14,387.04 94.14,387.04
             92.56,383.50 86.40,376.92 83.63,373.73
             77.60,366.79 62.19,350.76 55.00,346.00
             55.00,346.00 44.62,371.17 44.62,371.17
             43.55,377.54 43.51,394.78 44.62,401.00
             44.62,401.00 47.64,414.91 47.64,414.91
             47.64,414.91 48.17,425.00 48.17,425.00
             48.17,425.00 49.77,439.00 49.77,439.00
             49.77,439.00 50.30,452.00 50.30,452.00
             51.30,459.03 53.04,461.34 54.62,467.04
             54.62,467.04 56.52,475.00 56.52,475.00
             57.73,478.96 60.27,482.28 62.04,486.00
             64.87,491.93 67.07,498.33 70.82,503.79
             70.82,503.79 77.01,511.09 77.01,511.09
             80.86,517.21 81.11,527.84 77.01,533.90
             69.69,544.70 54.77,544.47 45.18,537.16
             38.91,532.38 35.61,524.92 32.14,518.13
             32.14,518.13 25.31,504.02 25.31,504.02
             25.31,504.02 21.50,496.91 21.50,496.91
             11.15,472.94 8.67,446.70 6.91,421.00
             6.91,421.00 4.40,403.00 4.40,403.00
             3.40,393.59 3.73,369.20 5.46,360.00
             7.45,349.39 10.71,345.39 14.69,336.01
             18.44,327.18 23.37,316.28 30.26,309.42
             39.83,299.89 42.82,302.69 51.00,298.00
             51.00,298.00 70.00,304.98 70.00,304.98
             70.00,304.98 96.00,327.00 96.00,327.00 Z" />
</svg>
