<?xml version="1.0" encoding="UTF-8" standalone="no"?>
<!DOCTYPE svg PUBLIC "-//W3C//DTD SVG 20010904//EN"
              "http://www.w3.org/TR/2001/REC-SVG-20010904/DTD/svg10.dtd">

<svg xmlns="http://www.w3.org/2000/svg"
     width="5.55556in" height="5.55556in"
     viewBox="0 0 500 500">
  <path id="Folder"
        fill="#1c5917" stroke="none" stroke-width="1"
        d="M 86.00,94.00
           C 86.00,94.00 118.00,78.69 118.00,78.69
             118.00,78.69 142.00,65.31 142.00,65.31
             142.00,65.31 162.00,58.13 162.00,58.13
             162.00,58.13 174.00,52.45 174.00,52.45
             174.00,52.45 218.00,37.50 218.00,37.50
             218.00,37.50 247.00,32.74 247.00,32.74
             247.00,32.74 258.00,30.26 258.00,30.26
             268.70,28.27 282.14,26.88 293.00,27.00
             293.00,27.00 336.00,34.43 336.00,34.43
             336.00,34.43 351.00,39.42 351.00,39.42
             355.65,40.18 364.01,37.85 370.00,39.42
             374.86,41.10 385.07,48.62 390.00,51.55
             390.00,51.55 401.00,57.58 401.00,57.58
             413.55,64.65 414.09,61.84 422.00,65.63
             430.91,69.90 442.94,81.72 448.30,90.00
             454.40,99.41 458.68,114.17 462.68,125.00
             462.68,125.00 470.28,146.00 470.28,146.00
             470.28,146.00 474.04,161.00 474.04,161.00
             474.04,161.00 478.45,172.00 478.45,172.00
             480.79,178.56 481.88,186.15 483.08,193.00
             483.08,193.00 486.72,209.00 486.72,209.00
             486.72,209.00 489.17,235.00 489.17,235.00
             489.17,235.00 492.57,254.00 492.57,254.00
             492.57,254.00 493.30,264.00 493.30,264.00
             494.49,272.34 497.89,279.18 498.00,288.00
             498.11,297.43 497.10,326.71 495.33,335.00
             495.33,335.00 489.33,354.00 489.33,354.00
             487.18,360.45 483.80,371.86 479.62,376.91
             477.61,379.34 469.51,387.43 467.00,388.93
             467.00,388.93 449.00,396.31 449.00,396.31
             449.00,396.31 433.00,404.13 433.00,404.13
             433.00,404.13 405.00,415.28 405.00,415.28
             405.00,415.28 380.00,425.91 380.00,425.91
             380.00,425.91 358.00,431.91 358.00,431.91
             358.00,431.91 343.00,437.41 343.00,437.41
             343.00,437.41 306.00,446.88 306.00,446.88
             306.00,446.88 267.00,457.92 267.00,457.92
             267.00,457.92 257.00,457.92 257.00,457.92
             257.00,457.92 219.00,463.08 219.00,463.08
             204.49,465.53 203.86,468.31 194.00,471.08
             186.70,473.13 162.47,476.91 155.00,477.00
             142.10,477.15 135.64,477.31 123.00,473.25
             123.00,473.25 105.00,465.45 105.00,465.45
             101.07,463.86 92.01,461.50 89.21,459.30
             85.73,456.56 85.73,453.23 81.79,449.76
             75.10,443.86 72.55,445.39 65.10,434.00
             56.57,420.95 53.50,405.61 48.98,391.00
             48.98,391.00 42.80,370.00 42.80,370.00
             42.80,370.00 38.15,356.00 38.15,356.00
             38.15,356.00 29.81,319.00 29.81,319.00
             29.81,319.00 25.19,289.00 25.19,289.00
             25.19,289.00 16.25,257.00 16.25,257.00
             16.25,257.00 11.29,244.00 11.29,244.00
             9.28,234.83 10.11,225.32 10.00,216.00
             10.00,216.00 9.00,201.00 9.00,201.00
             9.00,201.00 9.00,189.00 9.00,189.00
             9.00,189.00 10.91,159.00 10.91,159.00
             10.91,159.00 2.63,124.00 2.63,124.00
             1.54,119.66 -0.15,114.43 0.18,110.00
             0.50,105.74 2.06,99.52 4.65,96.09
             16.09,80.91 49.41,78.97 67.00,79.00
             78.13,79.02 83.81,82.33 86.00,94.00 Z
           M 337.00,50.00
           C 332.10,45.01 320.88,44.58 314.00,43.20
             306.98,41.80 290.63,38.72 284.00,39.09
             284.00,39.09 246.00,45.58 246.00,45.58
             246.00,45.58 211.00,52.21 211.00,52.21
             211.00,52.21 170.00,68.14 170.00,68.14
             170.00,68.14 149.00,76.26 149.00,76.26
             149.00,76.26 113.00,95.74 113.00,95.74
             113.00,95.74 85.00,108.31 85.00,108.31
             85.00,108.31 55.00,125.03 55.00,125.03
             47.06,130.44 33.70,141.55 29.37,150.00
             23.68,161.13 23.96,170.20 22.92,182.00
             22.11,189.52 20.92,198.67 22.92,206.00
             22.92,206.00 25.00,206.00 25.00,206.00
             25.00,206.00 36.31,168.00 36.31,168.00
             40.11,159.65 48.71,149.97 54.85,143.00
             60.82,136.21 68.08,127.34 75.00,121.81
             88.37,111.11 101.29,109.01 117.00,104.28
             117.00,104.28 154.00,92.43 154.00,92.43
             154.00,92.43 172.00,88.57 172.00,88.57
             172.00,88.57 184.00,84.72 184.00,84.72
             184.00,84.72 210.00,77.48 210.00,77.48
             210.00,77.48 238.00,72.00 238.00,72.00
             238.00,72.00 266.00,65.35 266.00,65.35
             266.00,65.35 286.00,58.89 286.00,58.89
             286.00,58.89 323.00,52.57 323.00,52.57
             323.00,52.57 337.00,50.00 337.00,50.00 Z" />
    <path id="Folder Inside"
        fill="#0d290b" stroke="none" stroke-width="1"
        d="M 22.00,206.00
           C 22.00,188.85 21.50,162.84 30.48,148.00
             34.07,142.06 40.67,136.35 46.00,131.92
             61.07,119.39 80.23,110.71 98.00,102.70
             98.00,102.70 150.00,75.78 150.00,75.78
             150.00,75.78 170.00,67.99 170.00,67.99
             170.00,67.99 212.00,51.92 212.00,51.92
             212.00,51.92 236.00,47.39 236.00,47.39
             248.23,45.10 276.09,38.62 287.00,39.04
             294.13,39.32 305.80,41.56 313.00,43.00
             318.88,44.18 333.78,45.32 337.00,50.00
             337.00,50.00 323.00,52.57 323.00,52.57
             323.00,52.57 286.00,59.04 286.00,59.04
             286.00,59.04 266.00,65.50 266.00,65.50
             266.00,65.50 255.00,67.65 255.00,67.65
             255.00,67.65 235.00,72.60 235.00,72.60
             235.00,72.60 210.00,77.48 210.00,77.48
             210.00,77.48 199.00,80.85 199.00,80.85
             199.00,80.85 184.00,84.72 184.00,84.72
             184.00,84.72 173.00,88.34 173.00,88.34
             173.00,88.34 153.00,92.74 153.00,92.74
             153.00,92.74 117.00,104.28 117.00,104.28
             104.43,108.07 91.12,110.72 80.00,118.10
             72.14,123.33 61.20,135.65 54.87,143.00
             47.89,151.10 39.49,160.05 35.45,170.00
             35.45,170.00 27.73,196.00 27.73,196.00
             26.46,200.83 27.16,204.21 22.00,206.00 Z" />
  <path id="Logo"
        fill="#31e917" stroke="none" stroke-width="1"
        d="M 351.00,374.00
           C 351.00,374.00 355.00,339.00 355.00,339.00
             355.00,339.00 355.00,323.00 355.00,323.00
             355.11,313.79 358.68,308.36 361.48,300.00
             361.48,300.00 365.05,286.00 365.05,286.00
             368.40,275.39 377.01,271.45 378.01,265.00
             379.49,255.38 375.20,238.02 371.55,229.00
             371.55,229.00 366.54,218.00 366.54,218.00
             366.54,218.00 357.41,191.00 357.41,191.00
             351.14,176.91 340.31,171.72 328.00,164.40
             328.00,164.40 308.00,152.78 308.00,152.78
             308.00,152.78 293.33,146.02 293.33,146.02
             291.91,144.95 291.15,143.18 292.23,141.57
             295.45,136.77 308.48,144.41 312.00,146.31
             312.00,146.31 350.99,169.33 350.99,169.33
             354.03,171.91 360.62,179.57 362.65,183.00
             362.65,183.00 372.52,211.00 372.52,211.00
             372.52,211.00 379.54,228.00 379.54,228.00
             382.63,236.07 385.89,252.33 386.00,261.00
             386.03,264.12 386.38,270.29 384.98,272.91
             383.14,276.33 377.14,279.46 373.56,286.00
             371.61,289.55 370.31,296.68 368.98,301.00
             366.64,308.53 363.29,315.07 362.29,323.00
             362.29,323.00 362.96,341.00 362.96,341.00
             362.96,341.00 358.92,365.00 358.92,365.00
             358.39,368.24 358.21,377.59 356.40,379.40
             354.14,381.67 347.16,380.97 344.00,381.00
             344.00,381.00 309.00,384.00 309.00,384.00
             309.00,384.00 289.00,384.00 289.00,384.00
             289.00,384.00 276.00,384.96 276.00,384.96
             276.00,384.96 261.00,383.11 261.00,383.11
             261.00,383.11 248.00,383.11 248.00,383.11
             241.04,382.87 225.74,386.19 221.00,384.84
             212.87,382.52 198.49,366.54 192.72,360.00
             192.72,360.00 161.62,326.00 161.62,326.00
             161.62,326.00 152.74,309.00 152.74,309.00
             148.50,300.29 145.05,294.98 144.96,285.00
             144.96,285.00 144.96,276.00 144.96,276.00
             144.96,276.00 144.08,268.00 144.08,268.00
             144.08,268.00 145.67,247.00 145.67,247.00
             147.91,236.48 159.61,216.46 166.29,208.00
             166.29,208.00 177.54,195.00 177.54,195.00
             182.62,188.78 188.73,176.96 195.01,172.81
             202.90,167.61 229.93,159.61 240.00,156.85
             251.33,153.74 262.17,148.35 274.00,147.17
             276.91,146.88 284.31,146.59 286.69,148.17
             289.32,149.93 289.43,153.43 285.87,154.57
             285.87,154.57 272.00,155.44 272.00,155.44
             260.59,157.22 257.24,159.27 247.00,162.91
             247.00,162.91 226.00,168.44 226.00,168.44
             226.00,168.44 210.00,174.80 210.00,174.80
             206.86,176.03 202.82,177.26 200.09,179.13
             195.87,182.02 186.21,196.77 182.12,202.00
             182.12,202.00 172.46,213.00 172.46,213.00
             166.38,220.39 156.19,237.82 153.75,247.00
             151.51,255.46 151.90,264.33 152.00,273.00
             152.00,273.00 153.53,291.00 153.53,291.00
             154.51,295.29 156.99,299.09 158.89,303.00
             161.64,308.65 165.90,318.27 169.53,323.00
             169.53,323.00 194.72,350.00 194.72,350.00
             203.05,359.47 203.13,360.35 213.00,369.16
             215.95,371.80 219.24,375.33 223.00,376.74
             226.72,378.13 237.74,376.01 243.00,376.00
             243.00,376.00 261.00,376.00 261.00,376.00
             261.00,376.00 276.00,377.00 276.00,377.00
             276.00,377.00 298.00,376.00 298.00,376.00
             298.00,376.00 316.00,376.00 316.00,376.00
             316.00,376.00 351.00,374.00 351.00,374.00 Z
           M 254.00,194.72
           C 261.55,193.55 260.23,198.75 255.94,202.49
             255.94,202.49 248.00,208.46 248.00,208.46
             248.00,208.46 232.00,221.09 232.00,221.09
             229.26,223.02 223.42,225.76 222.58,229.04
             221.97,231.39 223.67,234.00 224.70,236.00
             224.70,236.00 231.99,251.00 231.99,251.00
             239.96,270.21 245.58,284.95 247.68,305.96
             248.51,314.23 247.02,332.90 243.10,340.00
             239.13,347.18 233.41,351.39 225.00,349.47
             216.28,347.49 206.79,339.86 201.34,333.00
             195.91,326.16 199.70,322.97 203.02,324.17
             206.02,325.25 210.16,330.51 212.42,332.91
             215.61,336.28 217.92,337.66 222.00,339.74
             224.34,340.93 227.32,342.71 230.00,341.77
             238.58,338.74 239.55,325.44 240.09,318.00
             240.31,314.89 240.92,313.23 240.68,310.00
             239.21,290.49 232.39,271.60 224.31,254.00
             222.25,249.51 217.74,238.34 214.10,235.52
             211.14,233.22 205.88,237.30 203.00,238.75
             203.00,238.75 191.00,244.55 191.00,244.55
             191.00,244.55 180.00,248.45 180.00,248.45
             180.00,248.45 172.00,251.91 172.00,251.91
             168.93,253.01 162.99,254.82 161.17,250.79
             160.79,249.96 160.77,249.13 161.17,248.30
             162.19,246.15 166.82,245.53 169.00,244.76
             169.00,244.76 189.00,236.40 189.00,236.40
             199.30,232.28 223.02,217.89 232.00,211.10
             239.11,205.73 245.96,198.20 254.00,194.72 Z
           M 288.00,215.61
           C 291.05,215.03 298.05,213.97 299.82,217.30
             300.41,218.28 300.40,219.49 299.82,220.43
             298.62,222.15 292.37,222.49 290.00,223.22
             283.66,225.17 277.36,228.71 272.01,232.59
             269.88,234.14 266.76,236.26 266.25,239.04
             265.69,242.04 268.22,244.95 270.10,246.99
             275.55,252.89 279.89,254.80 287.00,257.85
             300.80,263.78 321.61,273.31 331.96,284.01
             338.42,290.69 342.76,298.67 339.78,308.00
             335.29,322.04 310.00,332.72 296.00,331.68
             292.80,331.44 283.64,330.50 281.06,329.30
             279.44,328.54 276.97,326.67 278.17,324.58
             279.15,322.88 282.34,323.04 284.00,323.17
             284.00,323.17 295.00,324.26 295.00,324.26
             304.70,324.62 317.04,319.26 325.00,313.90
             329.04,311.18 333.01,307.24 332.84,302.00
             332.69,297.30 329.07,293.21 325.96,290.01
             318.59,282.46 306.66,274.85 297.00,270.51
             287.48,266.24 277.51,263.43 269.00,257.08
             266.37,255.11 264.76,253.61 262.76,250.99
             252.23,237.15 260.82,229.57 273.00,222.06
             278.00,218.99 282.46,217.37 288.00,215.61 Z" />
</svg>
