<?xml version="1.0" encoding="UTF-8" standalone="no"?>
<!DOCTYPE svg PUBLIC "-//W3C//DTD SVG 20010904//EN"
              "http://www.w3.org/TR/2001/REC-SVG-20010904/DTD/svg10.dtd">

<svg xmlns="http://www.w3.org/2000/svg"
     width="1.66667in" height="1.66667in"
     viewBox="0 0 500 500">
  <path id="green"
        fill="#31e917" stroke="black" stroke-width="1"
        d="M 408.00,454.00
           C 406.03,447.02 407.76,440.89 408.81,434.00
             408.81,434.00 410.46,422.00 410.46,422.00
             412.42,411.53 415.07,402.92 414.67,392.00
             414.20,379.34 413.04,357.79 415.66,346.00
             415.66,346.00 427.99,312.00 427.99,312.00
             427.99,312.00 431.15,300.42 431.15,300.42
             432.49,293.83 432.71,289.65 435.21,283.00
             438.42,274.43 445.77,266.73 451.83,259.83
             453.72,257.68 458.68,253.01 459.41,250.95
             460.51,248.85 459.27,235.97 459.41,232.20
             459.05,215.81 452.03,189.25 445.83,173.99
             445.83,173.99 435.91,153.00 435.91,153.00
             435.91,153.00 431.08,135.00 431.08,135.00
             431.08,135.00 427.69,126.00 427.69,126.00
             427.69,126.00 423.62,111.00 423.62,111.00
             423.62,111.00 420.46,105.00 420.46,105.00
             420.46,105.00 416.75,97.00 416.75,97.00
             410.12,85.14 398.16,74.24 387.28,66.38
             387.28,66.38 358.00,49.76 358.00,49.76
             358.00,49.76 346.00,42.12 346.00,42.12
             346.00,42.12 314.00,24.61 314.00,24.61
             303.10,17.72 290.57,22.46 292.24,11.00
             293.15,4.77 298.62,3.42 304.00,4.48
             312.87,6.22 323.93,13.02 332.00,17.30
             332.00,17.30 383.00,46.24 383.00,46.24
             383.00,46.24 402.83,58.00 402.83,58.00
             409.65,63.01 425.79,80.65 430.24,88.00
             437.48,99.94 437.73,106.44 441.39,118.99
             442.83,123.90 444.12,124.09 445.52,128.04
             445.52,128.04 449.97,144.91 449.97,144.91
             449.97,144.91 460.74,170.00 460.74,170.00
             460.74,170.00 464.00,177.00 464.00,177.00
             464.00,177.00 468.87,195.00 468.87,195.00
             468.87,195.00 473.68,214.00 473.68,214.00
             473.68,214.00 476.00,248.00 476.00,248.00
             476.02,251.84 475.94,259.36 474.08,262.67
             472.57,265.35 466.14,268.27 463.07,270.85
             457.77,275.31 452.10,283.56 449.39,289.96
             449.39,289.96 443.66,313.72 443.66,313.72
             439.14,327.12 430.02,345.12 430.00,359.00
             430.00,359.00 430.79,391.00 430.79,391.00
             430.85,402.56 428.74,409.91 426.26,420.91
             426.26,420.91 423.17,438.96 423.17,438.96
             423.17,438.96 421.25,464.90 421.25,464.90
             420.06,469.41 415.08,470.41 411.00,470.76
             411.00,470.76 394.42,470.76 394.42,470.76
             394.42,470.76 382.83,470.76 382.83,470.76
             382.83,470.76 374.04,471.92 374.04,471.92
             374.04,471.92 365.96,471.92 365.96,471.92
             365.96,471.92 354.00,473.84 354.00,473.84
             354.00,473.84 335.00,474.89 335.00,474.89
             335.00,474.89 307.08,474.89 307.08,474.89
             307.08,474.89 271.00,476.66 271.00,476.66
             271.00,476.66 258.00,476.66 258.00,476.66
             258.00,476.66 236.00,474.09 236.00,474.09
             236.00,474.09 222.61,474.75 222.61,474.75
             222.61,474.75 209.00,473.96 209.00,473.96
             209.00,473.96 196.73,473.96 196.73,473.96
             196.73,473.96 170.00,477.88 170.00,477.88
             166.14,478.00 160.45,479.11 157.00,477.88
             154.61,477.16 142.95,468.10 140.09,465.88
             122.71,452.42 110.54,437.05 96.25,420.72
             96.25,420.72 81.09,405.00 81.09,405.00
             81.09,405.00 72.57,395.44 72.57,395.44
             72.57,395.44 61.20,384.68 61.20,384.68
             61.20,384.68 50.35,372.15 50.35,372.15
             50.35,372.15 42.51,363.83 42.51,363.83
             42.51,363.83 35.17,348.17 35.17,348.17
             35.17,348.17 31.12,341.96 31.12,341.96
             31.12,341.96 22.31,322.28 22.31,322.28
             18.83,315.27 12.26,302.30 10.96,295.00
             10.96,295.00 10.96,280.00 10.96,280.00
             10.96,280.00 9.76,258.00 9.76,258.00
             9.76,258.00 9.76,246.00 9.76,246.00
             10.31,233.48 9.74,220.23 12.82,207.96
             12.82,207.96 21.82,185.09 21.82,185.09
             21.82,185.09 26.77,176.99 26.77,176.99
             26.77,176.99 35.97,161.83 35.97,161.83
             42.39,151.28 44.14,146.55 52.34,135.99
             52.34,135.99 76.57,108.79 76.57,108.79
             81.64,102.70 80.92,102.09 84.62,96.00
             84.62,96.00 103.43,70.69 103.43,70.69
             106.97,67.41 111.73,66.24 116.00,64.27
             116.00,64.27 141.00,54.12 141.00,54.12
             141.00,54.12 179.00,41.42 179.00,41.42
             179.00,41.42 200.00,36.08 200.00,36.08
             200.00,36.08 218.09,29.45 218.09,29.45
             218.09,29.45 228.00,26.80 228.00,26.80
             228.00,26.80 246.00,21.37 246.00,21.37
             255.22,19.14 271.26,18.25 280.72,19.18
             286.10,19.71 291.24,22.76 290.11,28.96
             289.42,32.70 286.62,34.44 283.04,34.84
             283.04,34.84 259.00,35.42 259.00,35.42
             251.06,36.51 232.13,40.47 225.00,43.13
             225.00,43.13 207.00,50.54 207.00,50.54
             207.00,50.54 165.01,61.39 165.01,61.39
             165.01,61.39 135.00,73.84 135.00,73.84
             129.36,75.94 118.90,78.81 114.44,82.54
             110.99,85.43 106.13,93.13 103.31,97.00
             103.31,97.00 92.02,113.83 92.02,113.83
             92.02,113.83 84.34,123.28 84.34,123.28
             84.34,123.28 78.68,130.96 78.68,130.96
             78.68,130.96 69.82,139.10 69.82,139.10
             69.82,139.10 52.34,162.04 52.34,162.04
             52.34,162.04 45.17,176.00 45.17,176.00
             45.17,176.00 38.13,188.96 38.13,188.96
             38.13,188.96 33.82,196.09 33.82,196.09
             26.88,211.20 25.92,222.43 25.88,238.61
             25.88,238.61 25.88,265.00 25.88,265.00
             25.88,265.00 26.77,279.56 26.77,279.56
             26.73,289.93 26.65,296.02 31.20,305.83
             31.20,305.83 37.69,317.00 37.69,317.00
             37.69,317.00 55.38,353.99 55.38,353.99
             55.38,353.99 75.21,376.59 75.21,376.59
             75.21,376.59 84.49,385.00 84.49,385.00
             84.49,385.00 93.04,394.69 93.04,394.69
             93.04,394.69 104.13,406.20 104.13,406.20
             104.13,406.20 128.30,434.05 128.30,434.05
             128.30,434.05 138.42,443.27 138.42,443.27
             143.92,448.69 154.90,459.19 162.00,461.36
             165.67,462.79 171.19,461.61 175.00,461.36
             184.74,459.99 194.09,457.82 204.00,458.03
             204.00,458.03 219.00,458.83 219.00,458.83
             219.00,458.83 236.58,458.21 236.58,458.21
             248.55,458.96 249.29,461.14 264.00,460.74
             264.00,460.74 275.00,460.74 275.00,460.74
             275.00,460.74 304.00,459.11 304.00,459.11
             304.00,459.11 339.44,459.11 339.44,459.11
             339.44,459.11 369.00,457.00 369.00,457.00
             369.00,457.00 378.57,456.26 378.57,456.26
             378.57,456.26 396.00,455.51 396.00,455.51
             402.59,455.08 400.42,456.82 408.00,454.00 Z
           M 211.00,344.00
           C 208.23,349.08 207.64,364.51 206.85,371.00
             205.06,385.51 195.05,405.39 180.00,409.83
             170.17,412.72 162.35,408.84 154.00,404.24
             154.00,404.24 142.13,398.50 142.13,398.50
             139.26,396.64 126.28,384.55 123.80,381.85
             119.75,377.43 109.53,367.55 113.43,361.13
             114.52,359.34 116.05,358.26 118.09,357.80
             125.07,356.23 126.79,362.09 130.70,366.10
             130.70,366.10 136.34,371.31 136.34,371.31
             141.71,376.94 141.49,378.73 149.04,384.07
             149.04,384.07 161.00,390.20 161.00,390.20
             164.82,392.43 171.16,397.18 175.70,395.05
             178.01,393.97 182.07,389.07 183.71,387.00
             185.48,384.76 189.00,379.55 190.09,377.00
             192.66,371.05 193.75,353.11 194.40,346.00
             196.52,322.73 191.56,306.01 185.73,284.00
             185.73,284.00 177.03,254.09 177.03,254.09
             177.03,254.09 173.18,245.99 173.18,245.99
             173.18,245.99 171.20,240.04 171.20,240.04
             171.20,240.04 162.38,222.00 162.38,222.00
             162.38,222.00 152.43,200.07 152.43,200.07
             150.97,197.44 144.52,186.39 142.04,186.09
             140.14,185.87 137.17,188.46 135.56,189.48
             135.56,189.48 121.42,196.96 121.42,196.96
             121.42,196.96 103.71,205.75 103.71,205.75
             92.27,210.31 76.32,214.54 66.00,220.62
             59.14,224.66 39.84,229.14 39.82,216.00
             39.81,212.67 41.87,210.00 45.02,208.98
             48.00,208.01 50.20,209.36 54.00,208.30
             54.00,208.30 84.00,195.78 84.00,195.78
             84.00,195.78 112.99,183.88 112.99,183.88
             112.99,183.88 126.00,175.68 126.00,175.68
             126.00,175.68 139.91,167.62 139.91,167.62
             139.91,167.62 152.00,159.37 152.00,159.37
             152.00,159.37 171.96,147.57 171.96,147.57
             177.16,144.24 195.73,128.90 200.34,124.28
             203.35,121.27 219.38,110.14 223.15,108.84
             226.45,107.70 231.37,108.10 233.18,111.53
             237.49,119.72 223.22,127.51 218.00,131.14
             206.71,138.99 208.40,138.83 199.00,146.85
             199.00,146.85 174.91,164.75 174.91,164.75
             171.63,166.86 159.45,172.57 158.49,175.96
             157.85,178.24 162.27,185.46 163.49,187.71
             163.49,187.71 178.65,218.00 178.65,218.00
             178.65,218.00 186.73,238.72 186.73,238.72
             186.73,238.72 191.89,249.00 191.89,249.00
             196.46,260.51 201.79,280.70 204.33,293.00
             204.33,293.00 205.46,301.00 205.46,301.00
             205.46,301.00 207.71,311.00 207.71,311.00
             208.69,317.37 208.88,326.21 211.00,332.00
             211.00,332.00 209.00,334.00 209.00,334.00
             209.00,334.00 211.00,344.00 211.00,344.00 Z
           M 291.00,149.46
           C 295.35,148.86 304.00,148.40 307.89,150.43
             312.06,152.60 313.03,158.10 310.26,161.77
             306.46,166.82 298.92,164.13 293.00,165.39
             286.32,166.81 267.83,175.20 262.00,179.16
             262.00,179.16 254.82,184.77 254.82,184.77
             249.83,188.13 242.76,191.71 243.69,198.99
             244.31,203.82 247.95,206.65 251.00,210.08
             256.67,216.44 263.13,223.09 271.00,226.65
             271.00,226.65 281.00,230.39 281.00,230.39
             307.97,242.04 314.29,244.45 340.00,259.95
             340.00,259.95 351.00,266.11 351.00,266.11
             359.60,271.46 370.79,281.46 377.29,289.30
             380.93,293.69 381.37,295.59 383.86,300.20
             383.86,300.20 387.17,306.09 387.17,306.09
             391.25,316.05 388.52,325.94 383.96,335.00
             380.85,341.18 378.24,345.27 372.54,349.48
             368.10,352.74 355.42,360.69 350.39,363.02
             337.36,369.03 323.29,373.41 309.00,374.69
             301.39,375.37 279.97,373.29 273.00,371.01
             268.62,369.57 263.49,365.24 265.87,360.07
             267.02,357.56 270.32,355.83 273.00,355.81
             273.00,355.81 281.91,357.76 281.91,357.76
             281.91,357.76 300.00,359.91 300.00,359.91
             305.58,360.23 318.65,358.66 323.96,356.87
             323.96,356.87 330.17,353.76 330.17,353.76
             330.17,353.76 356.00,341.55 356.00,341.55
             363.92,336.80 371.85,330.29 373.07,320.42
             375.02,304.63 355.18,288.88 343.99,280.58
             329.22,269.64 327.86,269.64 312.09,261.29
             312.09,261.29 304.96,257.23 304.96,257.23
             304.96,257.23 296.00,253.94 296.00,253.94
             276.90,246.17 262.03,241.14 245.61,227.86
             240.04,223.34 227.74,207.27 227.30,200.00
             226.81,192.01 231.98,183.44 237.09,177.67
             240.37,173.96 252.87,166.70 257.93,163.14
             265.78,157.62 281.51,151.52 291.00,149.46 Z" />
</svg>
