<?xml version="1.0" encoding="UTF-8" standalone="no"?>
<!DOCTYPE svg PUBLIC "-//W3C//DTD SVG 20010904//EN"
              "http://www.w3.org/TR/2001/REC-SVG-20010904/DTD/svg10.dtd">

<svg xmlns="http://www.w3.org/2000/svg"
     width="1.66667in" height="1.66667in"
     viewBox="0 0 500 500">
  <path id="red"
        fill="#c20000" stroke="none" stroke-width="1"
        d="M 362.00,324.80
           C 362.00,324.80 355.90,304.00 355.90,304.00
             355.90,304.00 353.57,293.00 353.57,293.00
             353.57,293.00 346.73,269.09 346.73,269.09
             346.73,269.09 345.83,259.00 345.83,259.00
             345.83,259.00 342.33,235.00 342.33,235.00
             342.33,235.00 337.31,220.00 337.31,220.00
             337.31,220.00 335.26,211.00 335.26,211.00
             335.26,211.00 331.01,196.00 331.01,196.00
             331.01,196.00 329.49,188.00 329.49,188.00
             329.49,188.00 324.51,167.00 324.51,167.00
             324.51,167.00 322.96,159.00 322.96,159.00
             322.96,159.00 309.32,125.00 309.32,125.00
             309.32,125.00 299.77,100.00 299.77,100.00
             299.77,100.00 290.53,82.00 290.53,82.00
             290.53,82.00 285.77,72.00 285.77,72.00
             280.86,63.30 275.01,54.26 274.59,44.00
             274.21,34.76 277.94,22.94 284.30,16.17
             297.63,1.99 322.32,-0.09 336.56,14.02
             344.41,21.78 350.95,35.94 355.79,46.00
             355.79,46.00 361.87,57.00 361.87,57.00
             361.87,57.00 366.86,68.91 366.86,68.91
             366.86,68.91 372.25,81.00 372.25,81.00
             372.25,81.00 374.80,88.91 374.80,88.91
             374.80,88.91 378.54,97.01 378.54,97.01
             378.54,97.01 383.73,110.72 383.73,110.72
             388.32,121.71 392.43,130.19 395.45,142.00
             395.45,142.00 396.75,149.00 396.75,149.00
             396.75,149.00 400.37,163.00 400.37,163.00
             400.37,163.00 402.90,177.00 402.90,177.00
             402.90,177.00 410.26,202.00 410.26,202.00
             410.26,202.00 415.07,221.96 415.07,221.96
             415.07,221.96 419.46,250.00 419.46,250.00
             419.46,250.00 426.00,276.00 426.00,276.00
             426.00,276.00 431.91,299.00 431.91,299.00
             431.91,299.00 439.11,324.00 439.11,324.00
             439.11,324.00 441.31,337.00 441.31,337.00
             441.31,337.00 443.69,346.00 443.69,346.00
             445.54,355.69 444.32,366.49 439.01,375.00
             434.39,382.40 419.54,392.26 411.00,394.21
             411.00,394.21 386.00,396.17 386.00,396.17
             386.00,396.17 370.00,398.48 370.00,398.48
             370.00,398.48 352.00,400.13 352.00,400.13
             344.67,401.24 343.58,402.69 334.96,402.95
             334.96,402.95 322.00,402.00 322.00,402.00
             320.24,396.42 311.68,392.69 307.04,387.99
             299.37,380.23 294.73,371.72 289.96,362.00
             289.96,362.00 285.73,352.00 285.73,352.00
             285.73,352.00 280.15,341.00 280.15,341.00
             280.15,341.00 275.86,329.00 275.86,329.00
             275.86,329.00 262.86,300.00 262.86,300.00
             262.86,300.00 258.26,288.01 258.26,288.01
             258.26,288.01 253.28,277.99 253.28,277.99
             253.28,277.99 236.44,238.00 236.44,238.00
             236.44,238.00 222.79,207.00 222.79,207.00
             222.79,207.00 220.56,199.00 220.56,199.00
             220.56,199.00 214.62,184.00 214.62,184.00
             214.62,184.00 208.42,164.00 208.42,164.00
             208.42,164.00 203.08,153.91 203.08,153.91
             201.24,150.32 196.92,139.76 193.67,138.11
             191.20,136.85 187.50,138.54 185.00,139.28
             185.00,139.28 169.00,142.75 169.00,142.75
             169.00,142.75 145.00,145.85 145.00,145.85
             145.00,145.85 125.00,146.91 125.00,146.91
             117.10,147.94 113.55,151.06 102.00,152.00
             102.00,152.00 108.58,182.00 108.58,182.00
             108.58,182.00 113.31,228.00 113.31,228.00
             113.31,228.00 119.30,250.00 119.30,250.00
             119.30,250.00 127.22,270.00 127.22,270.00
             127.22,270.00 129.38,278.00 129.38,278.00
             129.38,278.00 136.85,301.00 136.85,301.00
             142.52,321.86 155.24,359.46 155.99,380.00
             156.55,395.51 170.17,430.19 174.48,448.99
             174.48,448.99 176.66,456.17 176.66,456.17
             176.91,458.40 175.93,461.75 175.42,464.00
             173.20,473.95 169.58,482.18 161.00,488.36
             140.04,503.45 110.61,493.80 102.84,469.00
             100.43,461.33 102.34,455.78 101.23,451.00
             101.23,451.00 90.66,418.00 90.66,418.00
             90.66,418.00 80.27,363.00 80.27,363.00
             80.27,363.00 72.42,336.00 72.42,336.00
             72.42,336.00 69.28,323.00 69.28,323.00
             69.28,323.00 64.66,310.00 64.66,310.00
             64.66,310.00 61.29,298.00 61.29,298.00
             61.29,298.00 54.66,282.00 54.66,282.00
             54.66,282.00 51.63,272.00 51.63,272.00
             51.63,272.00 43.89,246.00 43.89,246.00
             42.76,241.00 43.26,240.45 42.83,236.00
             42.83,236.00 40.44,217.30 40.44,217.30
             40.44,217.30 39.10,200.73 39.10,200.73
             38.30,194.37 35.45,181.91 33.19,176.00
             33.19,176.00 23.87,156.00 23.87,156.00
             22.31,151.69 22.23,149.37 21.58,145.00
             19.97,134.18 19.75,128.46 24.30,118.00
             29.44,106.20 40.19,101.76 51.00,96.51
             51.00,96.51 66.00,90.86 66.00,90.86
             89.45,81.40 106.24,75.19 132.00,75.00
             132.00,75.00 155.17,73.81 155.17,73.81
             169.80,70.69 189.31,61.49 204.04,61.05
             208.96,60.91 213.39,61.69 218.09,63.13
             222.26,64.40 228.25,66.01 231.83,68.24
             246.24,77.22 253.12,94.31 260.14,108.83
             260.14,108.83 277.09,143.00 277.09,143.00
             277.09,143.00 279.59,152.00 279.59,152.00
             279.59,152.00 286.20,170.00 286.20,170.00
             286.20,170.00 290.75,184.00 290.75,184.00
             290.75,184.00 296.28,196.17 296.28,196.17
             296.28,196.17 299.30,204.83 299.30,204.83
             299.30,204.83 306.85,221.00 306.85,221.00
             306.85,221.00 318.58,249.00 318.58,249.00
             318.58,249.00 323.99,261.00 323.99,261.00
             323.99,261.00 326.74,268.70 326.74,268.70
             326.74,268.70 333.99,283.00 333.99,283.00
             333.99,283.00 337.68,293.00 337.68,293.00
             337.68,293.00 344.50,309.00 344.50,309.00
             346.28,314.33 349.58,324.06 356.01,324.80
             356.01,324.80 362.00,324.80 362.00,324.80 Z" />
      <path id="white"
        fill="white" stroke="none" stroke-width="1"
        d="M 104.00,154.00
           C 114.65,151.57 119.70,148.15 132.00,148.00
             143.68,147.87 155.44,147.27 167.00,145.41
             173.71,144.33 177.54,143.26 184.00,141.42
             186.08,140.83 190.82,139.20 192.78,139.78
             195.47,140.58 200.63,152.05 202.28,155.00
             207.75,164.82 210.26,175.52 213.86,186.00
             213.86,186.00 223.42,212.00 223.42,212.00
             223.42,212.00 240.43,251.00 240.43,251.00
             240.43,251.00 259.87,297.00 259.87,297.00
             259.87,297.00 271.55,323.00 271.55,323.00
             278.95,341.14 290.57,371.67 303.18,386.00
             309.78,393.49 313.12,394.85 321.00,400.00
             321.00,400.00 321.00,402.00 321.00,402.00
             312.74,409.38 313.96,413.31 299.00,419.28
             293.10,421.64 274.14,423.28 266.99,424.14
             266.99,424.14 250.00,426.73 250.00,426.73
             250.00,426.73 238.92,428.20 238.92,428.20
             238.92,428.20 223.00,432.53 223.00,432.53
             223.00,432.53 211.00,435.36 211.00,435.36
             204.88,437.37 192.25,443.98 187.09,447.86
             184.99,449.43 180.42,453.67 177.60,451.87
             176.01,450.87 175.88,447.70 175.54,446.00
             175.54,446.00 171.98,432.00 171.98,432.00
             171.98,432.00 160.89,397.00 160.89,397.00
             160.89,397.00 156.54,371.00 156.54,371.00
             151.11,341.99 143.13,313.04 133.83,285.00
             133.83,285.00 117.73,239.00 117.73,239.00
             113.72,223.84 113.68,208.40 111.72,193.00
             111.72,193.00 108.64,173.00 108.64,173.00
             108.64,173.00 104.00,154.00 104.00,154.00 Z" />
</svg>
