<?xml version="1.0" encoding="UTF-8" standalone="no"?>
<!DOCTYPE svg PUBLIC "-//W3C//DTD SVG 20010904//EN"
              "http://www.w3.org/TR/2001/REC-SVG-20010904/DTD/svg10.dtd">

<svg xmlns="http://www.w3.org/2000/svg"
     width="5.55556in" height="5.55556in"
     viewBox="0 0 500 500">
  <path id="Folder"
        fill="#2b9681" stroke="none" stroke-width="1"
        d="M 86.00,94.00
           C 86.00,94.00 118.00,78.69 118.00,78.69
             118.00,78.69 142.00,65.31 142.00,65.31
             142.00,65.31 162.00,58.13 162.00,58.13
             162.00,58.13 174.00,52.45 174.00,52.45
             174.00,52.45 218.00,37.50 218.00,37.50
             218.00,37.50 247.00,32.74 247.00,32.74
             259.88,30.34 272.80,27.16 286.00,27.00
             301.63,26.82 305.34,28.62 320.00,31.55
             340.51,35.65 342.63,34.24 362.00,45.34
             362.00,45.34 395.00,68.29 395.00,68.29
             399.01,69.53 404.92,67.49 409.00,66.66
             413.01,65.85 416.93,65.96 421.00,66.00
             439.40,66.22 461.68,78.47 468.54,96.00
             473.19,107.89 473.85,128.04 474.00,141.00
             474.18,156.36 483.31,190.85 486.54,208.00
             486.54,208.00 489.17,235.00 489.17,235.00
             489.17,235.00 492.57,254.00 492.57,254.00
             492.57,254.00 493.30,264.00 493.30,264.00
             494.49,272.34 497.89,279.18 498.00,288.00
             498.11,297.43 497.10,326.71 495.33,335.00
             495.33,335.00 489.33,354.00 489.33,354.00
             487.18,360.45 483.80,371.86 479.62,376.91
             477.61,379.34 469.51,387.43 467.00,388.93
             467.00,388.93 449.00,396.31 449.00,396.31
             449.00,396.31 433.00,404.13 433.00,404.13
             433.00,404.13 405.00,415.28 405.00,415.28
             405.00,415.28 380.00,425.91 380.00,425.91
             380.00,425.91 358.00,431.91 358.00,431.91
             358.00,431.91 343.00,437.41 343.00,437.41
             343.00,437.41 306.00,446.88 306.00,446.88
             306.00,446.88 267.00,457.54 267.00,457.54
             267.00,457.54 249.00,459.17 249.00,459.17
             249.00,459.17 223.00,462.43 223.00,462.43
             205.06,465.45 206.27,467.63 194.00,471.08
             186.70,473.13 162.47,476.91 155.00,477.00
             142.10,477.15 135.64,477.31 123.00,473.25
             123.00,473.25 105.00,465.45 105.00,465.45
             101.07,463.86 92.01,461.50 89.21,459.30
             85.73,456.56 85.73,453.23 81.79,449.76
             75.10,443.86 72.55,445.39 65.10,434.00
             56.57,420.95 53.50,405.61 48.98,391.00
             48.98,391.00 42.80,370.00 42.80,370.00
             42.80,370.00 38.15,356.00 38.15,356.00
             38.15,356.00 29.81,319.00 29.81,319.00
             29.81,319.00 25.19,289.00 25.19,289.00
             25.19,289.00 16.25,257.00 16.25,257.00
             16.25,257.00 11.29,244.00 11.29,244.00
             9.28,234.83 10.11,225.32 10.00,216.00
             10.00,216.00 9.00,201.00 9.00,201.00
             9.00,201.00 9.00,189.00 9.00,189.00
             9.00,189.00 10.91,159.00 10.91,159.00
             10.91,159.00 2.63,124.00 2.63,124.00
             1.54,119.66 -0.15,114.43 0.18,110.00
             0.50,105.74 2.06,99.52 4.65,96.09
             16.09,80.91 49.41,78.97 67.00,79.00
             78.13,79.02 83.81,82.33 86.00,94.00 Z
           M 383.00,78.00
           C 380.08,72.37 370.36,66.98 365.00,63.14
             343.41,47.67 333.66,46.51 308.00,42.73
             308.00,42.73 287.00,40.00 287.00,40.00
             272.40,39.83 258.25,43.35 244.00,46.20
             244.00,46.20 212.00,52.43 212.00,52.43
             212.00,52.43 170.00,68.55 170.00,68.55
             170.00,68.55 150.00,76.17 150.00,76.17
             150.00,76.17 116.00,94.69 116.00,94.69
             116.00,94.69 92.00,105.70 92.00,105.70
             75.30,113.23 44.25,129.41 33.79,144.00
             25.64,155.36 23.07,169.29 23.00,183.00
             22.93,197.18 22.09,227.51 24.14,240.00
             24.14,240.00 33.86,272.00 33.86,272.00
             33.86,272.00 37.92,288.00 37.92,288.00
             38.68,292.33 38.59,296.28 41.00,300.00
             41.00,300.00 44.89,264.00 44.89,264.00
             49.14,245.20 56.48,235.23 65.72,219.00
             71.82,208.29 79.47,193.67 88.09,185.09
             94.00,179.20 102.80,174.92 110.00,170.60
             124.81,161.72 150.68,149.67 167.00,144.08
             167.00,144.08 188.00,138.26 188.00,138.26
             188.00,138.26 207.00,131.03 207.00,131.03
             207.00,131.03 232.00,124.00 232.00,124.00
             232.00,124.00 259.00,114.88 259.00,114.88
             259.00,114.88 299.00,107.56 299.00,107.56
             306.43,105.33 308.31,102.65 313.00,101.01
             313.00,101.01 327.00,97.48 327.00,97.48
             327.00,97.48 347.00,89.69 347.00,89.69
             347.00,89.69 369.00,82.02 369.00,82.02
             369.00,82.02 383.00,78.00 383.00,78.00 Z" />
    <path id="Folder Inside"
        fill="#1f6a5b" stroke="none" stroke-width="1"
        d="M 40.00,301.00
           C 40.00,301.00 34.28,274.00 34.28,274.00
             29.36,257.49 23.20,243.45 23.00,226.00
             23.00,226.00 22.03,214.00 22.03,214.00
             22.03,214.00 23.00,202.00 23.00,202.00
             23.00,202.00 23.00,183.00 23.00,183.00
             23.02,170.49 24.77,157.84 31.47,147.00
             35.19,140.96 40.59,136.54 46.00,132.08
             58.41,121.85 79.15,111.39 94.00,104.70
             94.00,104.70 114.00,95.68 114.00,95.68
             114.00,95.68 150.00,75.90 150.00,75.90
             150.00,75.90 172.00,67.57 172.00,67.57
             185.27,61.92 199.02,55.65 213.00,51.92
             213.00,51.92 248.00,45.39 248.00,45.39
             248.00,45.39 284.00,39.32 284.00,39.32
             284.00,39.32 308.00,42.58 308.00,42.58
             320.54,44.52 337.63,47.07 349.00,52.49
             353.62,54.70 359.72,59.24 364.00,62.29
             369.67,66.33 379.93,72.05 383.00,78.00
             383.00,78.00 350.00,88.69 350.00,88.69
             350.00,88.69 327.00,97.65 327.00,97.65
             327.00,97.65 313.00,101.25 313.00,101.25
             307.99,102.98 307.15,105.06 300.00,107.28
             300.00,107.28 256.00,115.88 256.00,115.88
             256.00,115.88 226.00,125.98 226.00,125.98
             226.00,125.98 204.00,132.09 204.00,132.09
             204.00,132.09 187.00,138.66 187.00,138.66
             187.00,138.66 166.00,144.54 166.00,144.54
             166.00,144.54 149.00,151.72 149.00,151.72
             131.47,159.26 128.18,159.91 111.00,170.20
             98.46,177.71 93.43,179.34 83.18,191.00
             77.88,197.04 71.25,209.61 67.00,217.00
             57.96,232.73 50.38,242.95 45.87,261.00
             45.87,261.00 42.28,288.00 42.28,288.00
             41.66,293.24 42.56,295.99 40.00,301.00 Z" />
      <path id="Logo"
        fill="#00dd83" stroke="none" stroke-width="1"
        d="M 318.00,242.00
           C 318.00,242.00 303.08,297.00 303.08,297.00
             303.08,297.00 291.57,331.00 291.57,331.00
             291.57,331.00 286.96,350.00 286.96,350.00
             285.32,355.55 282.65,362.99 278.24,366.89
             273.75,370.86 261.95,374.17 256.00,375.86
             256.00,375.86 208.00,388.89 208.00,388.89
             198.84,392.22 179.42,399.34 170.30,394.80
             161.63,390.49 160.94,377.43 161.00,369.00
             161.00,369.00 164.41,336.00 164.41,336.00
             164.41,336.00 166.83,323.00 166.83,323.00
             166.83,323.00 170.28,293.00 170.28,293.00
             170.28,293.00 173.51,274.00 173.51,274.00
             173.51,274.00 175.54,266.00 175.54,266.00
             175.54,266.00 182.63,230.00 182.63,230.00
             182.63,230.00 189.98,203.00 189.98,203.00
             192.35,195.30 193.80,189.39 203.00,187.65
             213.18,185.72 222.87,193.50 231.00,198.40
             231.00,198.40 265.00,220.20 265.00,220.20
             265.00,220.20 291.00,238.00 291.00,238.00
             291.00,238.00 297.14,216.00 297.14,216.00
             298.30,211.91 299.39,206.57 302.53,203.57
             305.40,200.83 310.15,199.85 314.00,200.19
             324.23,201.08 329.76,211.52 335.37,219.00
             335.37,219.00 347.12,234.00 347.12,234.00
             347.12,234.00 376.87,273.91 376.87,273.91
             376.87,273.91 391.32,290.79 391.32,290.79
             401.63,299.49 416.40,303.42 413.79,320.00
             412.09,330.78 400.50,331.91 392.00,334.15
             392.00,334.15 371.00,340.10 371.00,340.10
             371.00,340.10 333.00,349.84 333.00,349.84
             325.92,351.84 322.46,356.11 313.00,356.82
             303.61,357.52 297.92,351.27 298.79,342.00
             299.65,332.80 307.69,330.72 315.00,327.80
             324.19,324.14 363.32,313.49 373.00,312.00
             373.00,312.00 361.58,298.17 361.58,298.17
             361.58,298.17 354.87,290.83 354.87,290.83
             354.87,290.83 333.54,263.00 333.54,263.00
             333.54,263.00 318.00,242.00 318.00,242.00 Z
           M 214.00,219.00
           C 214.00,219.00 208.77,238.00 208.77,238.00
             208.77,238.00 201.73,273.01 201.73,273.01
             201.73,273.01 199.32,283.00 199.32,283.00
             199.32,283.00 192.72,331.00 192.72,331.00
             192.72,331.00 189.00,366.00 189.00,366.00
             189.00,366.00 207.00,361.16 207.00,361.16
             207.00,361.16 237.00,353.37 237.00,353.37
             241.61,352.22 255.42,348.81 258.52,346.03
             261.88,343.03 262.12,335.36 263.29,331.00
             263.29,331.00 265.58,324.00 265.58,324.00
             265.58,324.00 277.96,287.00 277.96,287.00
             277.96,287.00 283.00,266.00 283.00,266.00
             283.00,266.00 266.00,254.80 266.00,254.80
             266.00,254.80 232.00,230.89 232.00,230.89
             232.00,230.89 214.00,219.00 214.00,219.00 Z
           M 189.00,366.00
           C 189.00,366.00 188.00,366.00 188.00,366.00
             188.00,366.00 189.00,367.00 189.00,367.00
             189.00,367.00 189.00,366.00 189.00,366.00 Z" />
</svg>
