<?xml version="1.0" encoding="UTF-8" standalone="no"?>
<!DOCTYPE svg PUBLIC "-//W3C//DTD SVG 20010904//EN"
              "http://www.w3.org/TR/2001/REC-SVG-20010904/DTD/svg10.dtd">

<svg xmlns="http://www.w3.org/2000/svg"
     width="2in" height="2in"
     viewBox="0 0 600 600">
  <path id="blue"
        fill="#0c0ca7" stroke="none" stroke-width="1"
        d="M 541.00,282.00
           C 532.55,286.86 525.25,292.79 516.00,296.53
             500.44,302.81 474.15,303.16 458.00,298.85
             451.86,297.20 433.03,289.22 428.09,285.64
             424.42,282.98 423.60,281.35 420.65,278.48
             420.65,278.48 411.61,269.63 411.61,269.63
             411.61,269.63 405.34,260.00 405.34,260.00
             401.08,253.16 398.31,249.99 395.17,242.00
             395.17,242.00 391.77,229.00 391.77,229.00
             390.43,223.33 388.40,212.66 388.24,207.00
             387.99,198.28 392.56,181.81 396.98,174.28
             396.98,174.28 404.52,164.00 404.52,164.00
             410.16,156.38 414.88,149.62 422.01,143.13
             437.31,129.18 464.15,118.54 485.00,121.29
             488.78,121.79 494.78,123.01 497.99,125.00
             501.97,127.48 503.34,130.72 506.09,131.52
             508.52,132.23 512.49,130.18 515.00,129.60
             518.62,128.76 521.55,129.38 524.96,130.71
             528.85,132.22 531.69,135.28 535.04,137.67
             548.72,147.43 562.95,168.15 570.92,183.00
             577.27,194.82 577.17,205.20 576.14,218.00
             576.14,218.00 575.17,230.01 575.17,230.01
             574.22,235.45 570.35,244.71 571.11,249.00
             571.11,249.00 583.42,302.00 583.42,302.00
             583.42,302.00 591.54,331.00 591.54,331.00
             591.54,331.00 594.09,367.00 594.09,367.00
             594.09,367.00 596.37,389.00 596.37,389.00
             596.37,389.00 596.37,398.00 596.37,398.00
             596.37,398.00 599.84,418.00 599.84,418.00
             599.84,418.00 599.84,442.00 599.84,442.00
             599.94,448.68 599.16,455.41 598.08,462.00
             596.22,473.34 595.81,481.20 585.17,487.92
             581.91,489.97 578.96,491.21 575.09,491.64
             572.47,491.92 568.53,491.39 566.00,490.69
             559.97,489.03 545.80,478.76 540.00,474.89
             531.89,469.47 519.16,464.91 515.21,456.00
             508.14,440.02 522.33,427.00 538.17,430.66
             545.50,432.35 555.91,441.26 563.00,445.00
             563.00,445.00 562.10,418.73 562.10,418.73
             560.87,409.00 559.08,403.24 559.00,393.00
             559.00,393.00 557.31,372.00 557.31,372.00
             557.31,372.00 556.22,348.29 556.22,348.29
             556.00,336.78 553.18,331.28 550.17,321.00
             550.17,321.00 541.00,282.00 541.00,282.00 Z
           M 360.00,347.00
           C 360.00,347.00 343.00,350.03 343.00,350.03
             343.00,350.03 332.29,350.03 332.29,350.03
             318.03,349.18 306.33,347.99 293.00,342.10
             272.13,332.88 254.45,313.06 242.58,294.00
             242.58,294.00 236.64,284.00 236.64,284.00
             233.98,278.28 230.98,268.26 229.58,262.00
             228.22,255.92 225.93,241.90 226.42,236.00
             227.98,217.10 235.58,204.17 246.00,189.01
             250.33,182.71 250.96,183.48 255.56,178.71
             255.56,178.71 262.17,171.17 262.17,171.17
             269.47,163.94 279.91,158.43 290.00,156.62
             303.58,154.17 315.53,157.19 317.00,173.00
             319.69,171.37 320.94,170.60 324.00,169.67
             339.54,164.96 347.27,175.75 356.58,186.29
             360.81,191.08 364.05,197.34 367.57,202.72
             373.05,211.11 375.96,214.31 380.36,224.00
             380.36,224.00 384.78,234.91 384.78,234.91
             384.78,234.91 390.03,245.00 390.03,245.00
             390.03,245.00 397.03,271.00 397.03,271.00
             399.68,282.30 399.46,295.59 397.03,307.00
             395.83,313.86 391.51,320.83 392.23,326.00
             392.23,326.00 396.11,342.00 396.11,342.00
             396.11,342.00 397.46,351.00 397.46,351.00
             397.46,351.00 400.54,364.00 400.54,364.00
             400.54,364.00 404.08,394.09 404.08,394.09
             404.08,394.09 407.72,418.00 407.72,418.00
             407.72,418.00 408.28,427.00 408.28,427.00
             408.28,427.00 410.49,449.00 410.49,449.00
             410.49,449.00 410.49,461.00 410.49,461.00
             410.49,461.00 410.49,468.58 410.49,468.58
             410.49,468.58 410.49,477.00 410.49,477.00
             409.06,500.24 406.44,517.82 395.86,539.00
             394.48,541.76 393.31,545.10 391.52,547.54
             389.44,550.37 384.96,553.99 382.00,555.88
             370.24,563.39 360.13,565.14 347.01,559.93
             342.60,558.18 341.80,556.82 337.96,554.81
             337.96,554.81 329.00,550.37 329.00,550.37
             316.90,543.11 307.55,531.85 298.63,521.17
             298.63,521.17 285.04,504.91 285.04,504.91
             276.83,493.87 266.44,474.01 261.72,461.00
             261.72,461.00 254.81,438.00 254.81,438.00
             254.55,435.20 255.49,431.75 256.12,429.00
             257.90,421.25 258.51,416.34 266.00,411.88
             279.16,404.04 294.62,412.97 293.74,430.00
             293.85,433.01 293.04,435.99 293.74,439.00
             294.09,442.64 298.36,452.32 300.05,456.00
             304.52,465.76 311.89,478.58 318.69,486.85
             318.69,486.85 326.87,496.00 326.87,496.00
             332.61,502.73 335.34,507.18 342.58,513.22
             342.58,513.22 361.00,525.00 361.00,525.00
             361.00,525.00 367.56,509.00 367.56,509.00
             370.40,500.07 373.42,486.28 373.34,476.96
             373.34,476.96 373.34,470.00 373.34,470.00
             373.34,470.00 373.34,460.09 373.34,460.09
             373.04,453.09 374.28,453.15 373.34,443.73
             373.34,443.73 370.24,427.00 370.24,427.00
             370.24,427.00 369.72,417.00 369.72,417.00
             369.72,417.00 366.40,394.00 366.40,394.00
             366.40,394.00 364.71,373.00 364.71,373.00
             363.19,363.23 361.14,361.06 360.00,347.00 Z
           M 499.00,157.00
           C 483.10,162.20 483.94,157.17 474.00,157.75
             468.71,158.06 456.42,163.60 452.00,166.68
             444.64,171.82 437.60,181.59 432.58,189.00
             429.53,193.49 426.30,198.51 425.50,204.00
             424.96,207.75 426.31,212.18 426.87,216.00
             428.91,230.05 437.97,247.04 450.00,254.89
             453.46,257.15 456.31,257.89 460.00,259.49
             463.17,260.86 467.12,263.06 470.42,263.64
             470.42,263.64 477.96,264.25 477.96,264.25
             496.06,266.10 504.37,263.18 518.28,251.27
             521.03,248.91 528.37,242.37 529.11,238.96
             529.65,236.45 524.87,223.76 523.88,220.00
             523.88,220.00 520.95,208.00 520.95,208.00
             520.95,208.00 507.42,176.00 507.42,176.00
             504.38,169.14 500.75,164.44 499.00,157.00 Z
           M 312.00,188.00
           C 298.37,195.68 297.14,190.20 289.02,197.26
             279.52,205.52 264.89,225.32 263.73,238.00
             263.21,240.66 263.67,243.35 263.73,246.00
             266.20,267.14 277.81,281.85 292.12,296.55
             298.59,303.19 309.85,309.80 319.00,311.62
             319.00,311.62 331.58,312.66 331.58,312.66
             335.15,313.00 344.83,313.92 346.92,310.49
             348.40,308.07 345.70,303.60 344.93,301.00
             342.41,292.41 339.91,284.19 336.22,276.00
             336.22,276.00 329.71,253.00 329.71,253.00
             322.39,231.81 313.83,210.58 312.00,188.00 Z
           M 106.00,221.51
           C 106.00,221.51 115.00,221.51 115.00,221.51
             115.00,221.51 121.00,221.51 121.00,221.51
             121.00,221.51 132.00,222.73 132.00,222.73
             132.00,222.73 150.00,225.76 150.00,225.76
             159.16,228.15 175.15,236.48 182.54,242.43
             190.91,249.17 196.11,257.64 202.31,266.05
             202.31,266.05 209.24,274.04 209.24,274.04
             213.88,280.15 217.12,287.24 220.65,294.00
             220.65,294.00 227.86,306.01 227.86,306.01
             231.93,315.41 232.77,320.12 234.29,330.00
             236.62,345.10 237.25,352.82 232.83,368.00
             229.15,380.63 214.84,394.81 205.00,403.13
             197.60,409.40 169.92,429.56 161.83,433.28
             147.02,440.07 129.13,441.34 113.04,440.97
             92.09,440.48 56.85,430.44 41.01,416.70
             32.37,409.19 23.13,393.85 19.38,383.00
             16.65,375.11 10.72,345.33 10.09,337.00
             10.09,337.00 9.58,323.00 9.58,323.00
             9.58,323.00 10.11,314.00 10.11,314.00
             9.57,310.08 6.34,307.55 4.85,304.00
             2.37,298.10 3.32,286.68 5.91,281.00
             11.30,269.20 22.00,258.55 32.20,250.82
             32.20,250.82 40.01,245.45 40.01,245.45
             45.14,241.51 49.20,235.92 55.28,233.30
             55.28,233.30 66.00,230.12 66.00,230.12
             88.88,223.09 84.72,225.49 106.00,221.51 Z
           M 110.00,258.39
           C 97.31,259.45 77.42,262.90 67.92,271.81
             65.17,274.39 62.53,278.76 60.58,282.01
             52.27,295.81 46.54,311.68 46.57,328.00
             46.58,335.16 48.74,344.88 49.98,352.00
             52.04,363.82 53.96,374.97 62.25,384.38
             72.44,395.95 98.74,403.82 114.00,404.00
             122.07,404.09 134.43,403.99 142.00,401.39
             150.00,398.64 174.46,381.00 181.01,374.92
             187.98,368.46 196.34,361.70 198.48,352.00
             200.09,344.76 199.07,341.83 197.67,335.00
             197.67,335.00 196.45,327.00 196.45,327.00
             194.82,320.77 188.77,312.52 185.47,307.00
             177.23,293.20 179.42,296.60 169.47,284.00
             165.93,279.51 164.78,276.20 160.00,272.27
             157.00,269.81 154.34,269.00 151.04,267.22
             151.04,267.22 141.99,262.32 141.99,262.32
             139.25,261.22 124.05,258.43 121.00,258.39
             121.00,258.39 110.00,258.39 110.00,258.39 Z" />
</svg>
