<?xml version="1.0" encoding="UTF-8" standalone="no"?>
<!DOCTYPE svg PUBLIC "-//W3C//DTD SVG 20010904//EN"
              "http://www.w3.org/TR/2001/REC-SVG-20010904/DTD/svg10.dtd">

<svg xmlns="http://www.w3.org/2000/svg"
     width="1.66667in" height="1.66667in"
     viewBox="0 0 500 500">
  <path id="white"
        fill="white" stroke="none" stroke-width="1"
        d="M 86.00,95.00
           C 86.00,95.00 117.00,80.34 117.00,80.34
             117.00,80.34 142.00,65.96 142.00,65.96
             142.00,65.96 164.00,58.32 164.00,58.32
             164.00,58.32 173.00,53.61 173.00,53.61
             173.00,53.61 219.00,37.78 219.00,37.78
             219.00,37.78 249.16,32.97 249.16,32.97
             249.16,32.97 258.96,30.70 258.96,30.70
             265.75,29.41 284.80,27.08 291.44,27.24
             299.35,27.43 310.08,30.22 317.91,31.77
             327.31,33.63 336.96,34.35 346.00,37.80
             346.00,37.80 363.99,47.43 363.99,47.43
             363.99,47.43 384.29,62.74 384.29,62.74
             386.32,64.31 392.91,69.01 395.17,69.61
             398.77,70.56 409.98,66.42 415.39,66.25
             423.94,65.98 436.52,67.99 444.00,72.21
             444.00,72.21 450.07,76.50 450.07,76.50
             454.31,79.27 460.99,84.00 463.77,88.18
             471.12,99.27 472.98,115.92 473.00,129.00
             473.01,136.22 474.10,154.29 475.48,161.00
             475.48,161.00 478.46,170.91 478.46,170.91
             478.46,170.91 479.23,177.08 479.23,177.08
             479.23,177.08 481.46,186.00 481.46,186.00
             481.46,186.00 482.49,194.00 482.49,194.00
             482.49,194.00 486.54,210.00 486.54,210.00
             486.54,210.00 488.91,238.28 488.91,238.28
             488.91,238.28 491.68,251.00 491.68,251.00
             491.68,251.00 493.10,267.00 493.10,267.00
             493.72,271.53 497.46,278.88 497.96,291.00
             497.96,291.00 496.86,309.71 496.86,309.71
             496.55,316.50 495.99,329.89 494.49,336.00
             494.49,336.00 489.43,351.00 489.43,351.00
             487.58,357.09 483.20,371.06 479.68,375.76
             477.70,378.40 476.38,378.57 474.40,380.54
             472.22,382.70 471.69,384.80 469.32,386.67
             465.30,389.86 454.16,393.11 449.00,395.17
             449.00,395.17 430.54,404.32 430.54,404.32
             430.54,404.32 423.00,407.04 423.00,407.04
             423.00,407.04 405.16,414.37 405.16,414.37
             405.16,414.37 377.83,426.06 377.83,426.06
             377.83,426.06 355.00,431.91 355.00,431.91
             355.00,431.91 344.00,436.53 344.00,436.53
             344.00,436.53 305.00,446.47 305.00,446.47
             305.00,446.47 266.04,457.30 266.04,457.30
             266.04,457.30 244.00,459.17 244.00,459.17
             232.74,460.25 216.68,462.28 206.01,465.39
             206.01,465.39 195.99,469.83 195.99,469.83
             186.27,472.87 154.93,477.59 145.00,476.91
             135.31,476.25 123.80,473.40 115.00,469.31
             115.00,469.31 106.00,464.75 106.00,464.75
             106.00,464.75 90.13,459.57 90.13,459.57
             85.64,456.75 87.43,453.02 83.70,449.80
             83.70,449.80 75.09,444.12 75.09,444.12
             70.46,440.43 65.86,434.10 63.00,428.91
             60.80,424.91 54.64,409.43 53.38,404.96
             53.38,404.96 49.25,389.00 49.25,389.00
             49.25,389.00 46.15,380.00 46.15,380.00
             46.15,380.00 43.03,368.09 43.03,368.09
             43.03,368.09 39.42,358.00 39.42,358.00
             39.42,358.00 33.46,334.00 33.46,334.00
             33.46,334.00 32.52,327.00 32.52,327.00
             32.52,327.00 30.56,320.17 30.56,320.17
             30.56,320.17 25.54,287.00 25.54,287.00
             25.54,287.00 19.65,266.91 19.65,266.91
             19.65,266.91 16.52,255.00 16.52,255.00
             14.82,250.03 13.06,249.31 11.67,243.00
             9.65,233.80 10.11,218.80 10.00,209.00
             10.00,209.00 9.37,192.00 9.37,192.00
             9.37,192.00 11.58,157.00 11.58,157.00
             11.58,157.00 0.58,113.04 0.58,113.04
             0.42,111.22 1.27,105.89 1.70,103.99
             3.51,95.94 9.02,92.52 15.71,88.54
             28.08,81.19 53.45,79.43 68.04,79.05
             79.06,78.77 83.28,85.03 86.00,95.00 Z
           M 383.00,77.00
           C 371.47,69.21 359.00,56.69 346.04,51.50
             337.08,47.91 330.98,47.38 322.00,45.35
             313.51,43.43 293.15,39.28 285.00,39.59
             285.00,39.59 259.00,42.92 259.00,42.92
             259.00,42.92 249.00,45.54 249.00,45.54
             249.00,45.54 228.28,48.98 228.28,48.98
             228.28,48.98 221.00,49.91 221.00,49.91
             205.02,53.55 186.18,62.09 171.00,68.42
             171.00,68.42 151.42,75.52 151.42,75.52
             151.42,75.52 117.00,94.83 117.00,94.83
             117.00,94.83 85.42,108.63 85.42,108.63
             76.05,112.98 56.83,124.08 48.83,130.43
             44.90,133.55 35.57,141.23 32.96,145.04
             30.91,148.04 25.60,160.23 24.64,163.72
             24.64,163.72 23.83,174.00 23.83,174.00
             23.09,181.73 22.27,189.23 22.64,197.00
             23.34,211.58 21.49,226.50 24.21,241.00
             24.21,241.00 34.28,272.00 34.28,272.00
             34.28,272.00 38.09,287.00 38.09,287.00
             38.70,291.41 38.99,298.21 41.00,302.00
             43.64,285.19 41.02,276.61 46.46,255.96
             49.40,244.79 56.88,234.06 62.58,224.00
             62.58,224.00 81.39,192.00 81.39,192.00
             89.89,181.14 95.73,178.71 107.00,172.22
             107.00,172.22 120.17,164.02 120.17,164.02
             120.17,164.02 148.00,151.72 148.00,151.72
             148.00,151.72 165.00,144.24 165.00,144.24
             165.00,144.24 189.00,137.77 189.00,137.77
             189.00,137.77 207.00,130.72 207.00,130.72
             207.00,130.72 230.00,124.46 230.00,124.46
             230.00,124.46 258.00,114.88 258.00,114.88
             267.20,112.47 266.47,113.62 274.00,112.56
             274.00,112.56 280.72,111.04 280.72,111.04
             280.72,111.04 301.00,106.83 301.00,106.83
             307.57,104.77 306.96,102.26 312.04,100.72
             312.04,100.72 327.00,97.54 327.00,97.54
             327.00,97.54 340.00,92.16 340.00,92.16
             340.00,92.16 363.00,83.75 363.00,83.75
             369.29,81.36 377.54,80.70 383.00,77.00 Z
           M 305.00,180.39
           C 290.37,184.79 291.55,198.10 295.51,210.00
             295.51,210.00 307.11,249.00 307.11,249.00
             312.06,270.45 317.05,298.67 324.00,319.00
             324.00,319.00 328.94,331.00 328.94,331.00
             333.00,341.63 336.48,351.99 351.00,348.47
             365.94,344.85 363.72,329.74 359.13,319.00
             359.13,319.00 354.34,308.00 354.34,308.00
             354.34,308.00 338.50,241.00 338.50,241.00
             338.50,241.00 329.77,212.00 329.77,212.00
             329.77,212.00 325.02,196.00 325.02,196.00
             321.58,185.04 317.98,178.68 305.00,180.39 Z
           M 388.00,194.39
           C 381.10,196.47 376.74,200.48 376.11,208.00
             375.11,219.82 383.88,223.72 393.00,227.86
             393.00,227.86 419.00,239.77 419.00,239.77
             422.35,241.30 431.38,243.98 432.65,247.21
             433.65,249.74 429.36,261.71 428.42,265.00
             424.81,277.64 418.68,289.31 412.76,301.00
             410.03,306.37 404.57,316.27 404.11,322.00
             402.81,338.02 421.72,345.44 431.61,334.79
             434.27,331.93 441.03,317.44 443.25,313.00
             443.25,313.00 456.91,283.00 456.91,283.00
             456.91,283.00 462.67,264.00 462.67,264.00
             466.71,251.82 469.68,238.47 462.04,227.01
             455.76,217.62 433.73,211.31 423.00,206.04
             423.00,206.04 411.00,200.68 411.00,200.68
             400.94,195.98 400.51,192.70 388.00,194.39 Z
           M 235.00,304.00
           C 234.99,291.05 229.95,275.89 227.21,263.00
             224.70,251.19 222.60,244.37 218.66,233.00
             217.23,228.90 214.59,221.37 211.61,218.39
             203.99,210.77 186.33,212.63 184.21,227.00
             182.99,235.29 191.18,250.86 193.35,260.00
             193.35,260.00 202.54,300.00 202.54,300.00
             202.54,300.00 206.00,322.00 206.00,322.00
             207.91,331.36 212.90,347.65 213.00,356.00
             213.00,356.00 213.00,369.00 213.00,369.00
             213.06,380.68 218.10,398.72 232.00,399.89
             241.39,400.69 248.53,394.40 248.95,385.00
             249.12,381.42 248.49,379.34 248.00,376.00
             248.00,376.00 248.00,366.00 248.00,366.00
             246.60,353.12 244.02,342.10 253.00,331.00
             261.19,345.65 265.83,353.23 269.65,370.00
             271.28,377.17 272.56,387.63 278.11,392.78
             287.02,401.06 301.64,396.14 304.47,384.00
             305.73,378.61 301.12,361.01 299.42,355.00
             295.62,341.52 289.42,327.65 281.65,316.00
             277.63,309.98 272.78,303.63 266.00,300.56
             262.26,298.86 258.98,299.00 255.00,299.00
             245.76,298.99 243.33,299.68 235.00,304.00 Z
           M 118.00,362.00
           C 125.74,344.45 125.83,348.05 133.84,334.00
             133.84,334.00 143.88,314.00 143.88,314.00
             147.59,307.64 154.23,302.81 154.89,295.00
             156.29,278.50 137.04,272.89 126.17,283.21
             116.96,291.96 112.50,305.16 106.49,316.00
             106.49,316.00 97.92,329.00 97.92,329.00
             93.14,336.92 84.43,355.94 84.04,365.00
             83.43,379.09 93.80,385.15 105.00,390.75
             118.05,397.28 144.99,402.44 160.00,405.45
             169.58,407.37 180.37,410.88 190.00,411.00
             195.47,411.06 200.17,411.38 204.90,408.03
             212.31,402.79 212.96,390.73 206.61,384.39
             201.73,379.51 192.59,379.59 186.00,378.12
             186.00,378.12 160.00,372.65 160.00,372.65
             160.00,372.65 118.00,362.00 118.00,362.00 Z
           M 209.00,341.00
           C 209.00,341.00 208.00,341.00 208.00,341.00
             208.00,341.00 209.00,342.00 209.00,342.00
             209.00,342.00 209.00,341.00 209.00,341.00 Z" />
    <path id="grey"
        fill="#a6a6a6" stroke="none" stroke-width="1"
        d="M 40.00,299.00
           C 39.37,285.31 35.52,275.65 31.24,263.00
             31.24,263.00 27.69,250.01 27.69,250.01
             27.69,250.01 24.74,241.91 24.74,241.91
             24.74,241.91 23.00,215.00 23.00,215.00
             22.87,203.11 23.04,174.52 25.26,164.00
             25.26,164.00 30.51,150.00 30.51,150.00
             34.22,142.53 38.19,140.61 44.00,135.01
             48.69,130.49 58.20,123.33 64.01,120.40
             64.01,120.40 73.09,116.03 73.09,116.03
             73.09,116.03 85.09,109.08 85.09,109.08
             85.09,109.08 115.83,95.85 115.83,95.85
             115.83,95.85 127.00,89.15 127.00,89.15
             127.00,89.15 151.00,76.04 151.00,76.04
             151.00,76.04 176.00,66.72 176.00,66.72
             176.00,66.72 187.17,61.72 187.17,61.72
             187.17,61.72 204.00,55.68 204.00,55.68
             204.00,55.68 213.00,52.38 213.00,52.38
             213.00,52.38 249.16,45.96 249.16,45.96
             249.16,45.96 258.00,43.67 258.00,43.67
             264.58,42.26 281.55,39.81 288.00,40.04
             296.38,40.35 312.46,43.70 321.00,45.58
             329.86,47.52 338.54,48.71 347.00,52.34
             355.44,55.95 375.82,71.44 383.00,78.00
             364.09,81.81 346.93,89.69 329.00,96.41
             322.08,99.00 312.84,99.96 311.85,100.30
             306.04,102.29 310.14,104.02 296.00,107.85
             289.12,109.71 282.06,110.96 275.00,111.84
             269.54,112.53 266.76,112.22 261.00,113.63
             261.00,113.63 245.00,118.11 245.00,118.11
             245.00,118.11 228.00,124.83 228.00,124.83
             228.00,124.83 205.00,130.97 205.00,130.97
             205.00,130.97 187.00,137.96 187.00,137.96
             187.00,137.96 165.00,143.97 165.00,143.97
             165.00,143.97 140.00,154.55 140.00,154.55
             140.00,154.55 117.00,165.29 117.00,165.29
             117.00,165.29 106.00,172.22 106.00,172.22
             95.73,178.14 92.02,179.20 83.52,188.72
             78.28,194.58 69.84,210.47 65.58,218.00
             59.22,229.23 48.88,244.70 45.84,257.00
             44.01,264.40 41.76,273.55 41.90,281.09
             41.99,285.72 42.36,295.27 40.00,299.00 Z" />
    <path id="orange"
        fill="#ff5d00" stroke="none" stroke-width="1"
        d="M 303.00,181.70
           C 319.35,178.01 321.79,187.27 325.43,200.00
             325.43,200.00 329.33,212.00 329.33,212.00
             329.33,212.00 351.48,301.00 351.48,301.00
             351.48,301.00 360.76,326.00 360.76,326.00
             362.88,334.70 362.24,342.88 353.00,347.03
             350.54,348.14 347.69,348.76 345.00,348.44
             334.17,347.19 332.79,339.51 329.58,331.00
             329.58,331.00 324.67,318.00 324.67,318.00
             316.92,294.98 313.08,270.59 307.50,247.00
             307.50,247.00 298.67,218.00 298.67,218.00
             294.57,205.69 287.25,188.87 303.00,181.70 Z
           M 435.00,245.00
           C 424.40,242.15 401.49,231.40 391.00,226.24
             383.77,222.69 377.55,220.19 377.04,211.00
             376.37,198.82 385.48,192.25 397.00,194.82
             401.54,195.84 408.83,200.36 414.00,202.58
             414.00,202.58 427.00,208.91 427.00,208.91
             440.76,214.67 462.68,219.92 465.67,237.00
             467.54,247.65 463.30,259.99 460.00,270.00
             460.00,270.00 455.58,284.00 455.58,284.00
             451.08,295.96 445.10,307.66 439.26,319.00
             439.26,319.00 434.02,330.00 434.02,330.00
             427.28,342.56 410.80,340.77 406.09,330.00
             402.13,320.96 409.29,309.90 413.25,302.00
             423.15,282.19 425.45,277.21 431.77,256.00
             431.77,256.00 435.00,245.00 435.00,245.00 Z
           M 252.00,330.00
           C 241.41,347.39 247.11,357.58 248.00,376.00
             248.42,384.73 250.10,393.15 239.99,397.64
             237.63,398.68 235.55,398.97 233.00,398.97
             213.83,398.95 214.02,372.35 214.00,359.00
             213.98,346.67 208.84,332.40 206.28,320.00
             206.28,320.00 203.54,301.00 203.54,301.00
             203.54,301.00 199.42,283.00 199.42,283.00
             199.42,283.00 194.11,259.00 194.11,259.00
             194.11,259.00 185.04,231.00 185.04,231.00
             184.17,214.16 201.90,210.11 210.67,218.39
             214.20,221.72 216.43,228.41 218.00,233.00
             222.29,245.61 223.37,248.87 226.21,262.00
             226.21,262.00 233.54,294.00 233.54,294.00
             233.54,294.00 235.00,305.00 235.00,305.00
             239.47,302.46 241.90,301.14 247.00,300.02
             253.58,298.57 259.82,298.53 266.00,301.55
             279.69,308.25 292.42,334.74 296.97,349.00
             296.97,349.00 300.28,362.00 300.28,362.00
             302.26,371.38 307.45,383.49 299.47,391.47
             297.04,393.90 293.41,395.46 290.00,395.80
             282.22,396.58 276.72,392.05 274.09,385.00
             274.09,385.00 268.57,362.00 268.57,362.00
             265.47,351.07 259.38,338.60 252.00,330.00 Z
           M 118.00,363.00
           C 118.00,363.00 141.00,369.12 141.00,369.12
             141.00,369.12 158.00,372.88 158.00,372.88
             158.00,372.88 184.00,378.40 184.00,378.40
             191.28,379.86 201.35,379.50 206.47,385.21
             209.62,388.73 210.21,392.44 209.96,397.00
             209.41,406.81 201.06,411.42 192.00,410.91
             192.00,410.91 160.00,404.80 160.00,404.80
             145.23,401.80 119.15,396.41 106.00,390.56
             99.12,387.50 88.19,380.37 85.70,373.00
             84.92,370.69 84.96,367.45 85.01,365.00
             85.26,354.98 93.60,337.57 98.91,329.00
             98.91,329.00 106.69,317.00 106.69,317.00
             112.82,305.84 117.36,293.50 126.30,284.10
             136.98,272.87 154.87,278.47 153.96,295.00
             153.54,302.61 147.01,307.65 143.06,314.00
             143.06,314.00 132.99,334.00 132.99,334.00
             127.30,343.61 119.81,351.46 118.00,363.00 Z" />
</svg>
