<?xml version="1.0" encoding="UTF-8" standalone="no"?>
<!DOCTYPE svg PUBLIC "-//W3C//DTD SVG 20010904//EN"
              "http://www.w3.org/TR/2001/REC-SVG-20010904/DTD/svg10.dtd">

<svg xmlns="http://www.w3.org/2000/svg"
     width="1.66667in" height="1.66667in"
     viewBox="0 0 500 500">
  <path id="white"
        fill="white" stroke="none" stroke-width="1"
        d="M 86.00,95.00
           C 86.00,95.00 117.00,80.34 117.00,80.34
             117.00,80.34 142.00,65.96 142.00,65.96
             142.00,65.96 164.00,58.32 164.00,58.32
             164.00,58.32 173.00,53.61 173.00,53.61
             173.00,53.61 219.00,37.78 219.00,37.78
             219.00,37.78 249.16,32.97 249.16,32.97
             249.16,32.97 258.96,30.70 258.96,30.70
             265.75,29.41 284.80,27.08 291.44,27.24
             299.35,27.43 310.08,30.22 317.91,31.77
             317.91,31.77 335.00,34.60 335.00,34.60
             335.00,34.60 352.42,40.69 352.42,40.69
             355.55,41.16 357.27,38.64 365.00,39.04
             367.31,39.16 368.89,39.42 371.00,40.45
             371.00,40.45 391.00,53.19 391.00,53.19
             391.00,53.19 408.00,62.20 408.00,62.20
             411.75,63.63 416.16,63.46 422.00,66.38
             429.61,70.18 441.08,81.10 445.96,88.00
             453.21,98.26 455.56,107.62 459.69,119.00
             459.69,119.00 470.28,148.00 470.28,148.00
             470.28,148.00 473.16,161.00 473.16,161.00
             475.05,167.94 477.22,169.37 478.45,173.57
             478.45,173.57 481.46,186.00 481.46,186.00
             481.46,186.00 482.49,194.00 482.49,194.00
             482.49,194.00 486.54,210.00 486.54,210.00
             486.54,210.00 488.91,238.28 488.91,238.28
             488.91,238.28 491.68,251.00 491.68,251.00
             491.68,251.00 493.10,267.00 493.10,267.00
             493.72,271.53 497.46,278.88 497.96,291.00
             497.96,291.00 496.86,309.71 496.86,309.71
             496.55,316.50 495.99,329.89 494.49,336.00
             494.49,336.00 489.43,351.00 489.43,351.00
             487.75,356.53 483.61,369.42 480.84,373.95
             477.96,378.67 477.50,377.46 474.40,380.54
             472.22,382.70 471.69,384.80 469.32,386.67
             465.30,389.86 454.16,393.11 449.00,395.17
             449.00,395.17 430.54,404.32 430.54,404.32
             430.54,404.32 423.00,407.04 423.00,407.04
             423.00,407.04 405.16,414.37 405.16,414.37
             405.16,414.37 377.83,426.06 377.83,426.06
             377.83,426.06 355.00,431.91 355.00,431.91
             355.00,431.91 344.00,436.53 344.00,436.53
             344.00,436.53 305.00,446.47 305.00,446.47
             305.00,446.47 265.09,457.70 265.09,457.70
             265.09,457.70 256.99,457.70 256.99,457.70
             256.99,457.70 228.73,460.90 228.73,460.90
             221.67,461.80 211.72,463.48 205.04,465.68
             205.04,465.68 195.99,469.83 195.99,469.83
             186.27,472.87 154.93,477.59 145.00,476.91
             135.31,476.25 123.80,473.40 115.00,469.31
             115.00,469.31 106.00,464.75 106.00,464.75
             106.00,464.75 90.13,459.57 90.13,459.57
             85.64,456.75 87.43,453.02 83.70,449.80
             83.70,449.80 75.09,444.12 75.09,444.12
             70.46,440.43 65.86,434.10 63.00,428.91
             60.80,424.91 54.64,409.43 53.38,404.96
             53.38,404.96 49.25,389.00 49.25,389.00
             49.25,389.00 46.15,380.00 46.15,380.00
             46.15,380.00 43.03,368.09 43.03,368.09
             43.03,368.09 39.42,358.00 39.42,358.00
             39.42,358.00 33.46,334.00 33.46,334.00
             33.46,334.00 32.52,327.00 32.52,327.00
             32.52,327.00 30.56,320.17 30.56,320.17
             30.56,320.17 25.54,287.00 25.54,287.00
             25.54,287.00 19.65,266.91 19.65,266.91
             19.65,266.91 16.52,255.00 16.52,255.00
             14.82,250.03 13.06,249.31 11.67,243.00
             9.65,233.80 10.11,218.80 10.00,209.00
             10.00,209.00 9.37,192.00 9.37,192.00
             9.37,192.00 11.58,157.00 11.58,157.00
             11.58,157.00 0.58,113.04 0.58,113.04
             0.42,111.22 1.27,105.89 1.70,103.99
             3.51,95.94 9.02,92.52 15.71,88.54
             28.08,81.19 53.45,79.43 68.04,79.05
             79.06,78.77 83.28,85.03 86.00,95.00 Z
           M 337.00,48.00
           C 337.00,48.00 286.00,39.44 286.00,39.44
             286.00,39.44 259.00,42.91 259.00,42.91
             259.00,42.91 248.00,45.68 248.00,45.68
             248.00,45.68 228.28,48.98 228.28,48.98
             228.28,48.98 221.00,49.91 221.00,49.91
             215.08,51.25 209.64,53.29 204.00,55.41
             204.00,55.41 187.00,61.31 187.00,61.31
             187.00,61.31 171.00,68.42 171.00,68.42
             171.00,68.42 151.42,75.52 151.42,75.52
             151.42,75.52 119.00,93.66 119.00,93.66
             119.00,93.66 92.00,105.95 92.00,105.95
             79.62,110.78 58.31,122.92 47.91,131.16
             43.49,134.66 35.24,141.44 32.32,146.01
             29.13,151.01 29.22,151.86 27.40,157.00
             27.40,157.00 24.64,163.72 24.64,163.72
             24.64,163.72 22.92,185.00 22.92,185.00
             22.52,191.31 21.61,203.39 24.00,209.00
             26.18,197.43 32.32,172.74 37.88,163.00
             41.74,156.23 53.21,143.27 58.72,137.00
             64.51,130.39 71.70,122.39 79.00,117.52
             91.20,109.39 112.17,105.59 126.00,100.56
             126.00,100.56 153.00,91.89 153.00,91.89
             153.00,91.89 175.00,87.08 175.00,87.08
             175.00,87.08 184.00,83.75 184.00,83.75
             184.00,83.75 199.00,80.09 199.00,80.09
             199.00,80.09 210.00,76.50 210.00,76.50
             210.00,76.50 228.00,73.34 228.00,73.34
             228.00,73.34 243.00,70.08 243.00,70.08
             243.00,70.08 253.00,67.21 253.00,67.21
             253.00,67.21 268.00,64.25 268.00,64.25
             268.00,64.25 282.00,58.92 282.00,58.92
             282.00,58.92 318.00,52.42 318.00,52.42
             324.26,51.54 331.47,51.29 337.00,48.00 Z
           M 288.00,153.39
           C 273.37,157.79 274.55,171.10 278.51,183.00
             278.51,183.00 290.11,222.00 290.11,222.00
             295.06,243.45 300.05,271.67 307.00,292.00
             307.00,292.00 311.94,304.00 311.94,304.00
             316.00,314.63 319.48,324.99 334.00,321.47
             348.94,317.85 346.72,302.74 342.13,292.00
             342.13,292.00 337.34,281.00 337.34,281.00
             337.34,281.00 321.50,214.00 321.50,214.00
             321.50,214.00 312.77,185.00 312.77,185.00
             312.77,185.00 308.02,169.00 308.02,169.00
             304.58,158.04 300.98,151.68 288.00,153.39 Z
           M 371.00,167.39
           C 364.10,169.47 359.74,173.48 359.11,181.00
             358.11,192.82 366.88,196.72 376.00,200.86
             376.00,200.86 402.00,212.77 402.00,212.77
             405.35,214.30 414.38,216.98 415.65,220.21
             416.65,222.74 412.36,234.71 411.42,238.00
             407.81,250.64 401.68,262.31 395.76,274.00
             393.03,279.37 387.57,289.27 387.11,295.00
             385.81,311.02 404.72,318.44 414.61,307.79
             417.27,304.93 424.03,290.44 426.25,286.00
             426.25,286.00 439.91,256.00 439.91,256.00
             439.91,256.00 445.67,237.00 445.67,237.00
             449.71,224.82 452.68,211.47 445.04,200.01
             438.76,190.62 416.73,184.31 406.00,179.04
             406.00,179.04 394.00,173.68 394.00,173.68
             383.94,168.98 383.51,165.70 371.00,167.39 Z
           M 218.00,277.00
           C 217.99,264.05 212.95,248.89 210.21,236.00
             207.70,224.19 205.60,217.37 201.66,206.00
             200.23,201.90 197.59,194.37 194.61,191.39
             186.99,183.77 169.33,185.63 167.21,200.00
             165.99,208.29 174.18,223.86 176.35,233.00
             176.35,233.00 185.54,273.00 185.54,273.00
             185.54,273.00 189.00,295.00 189.00,295.00
             190.91,304.36 195.90,320.65 196.00,329.00
             196.00,329.00 196.00,342.00 196.00,342.00
             196.06,353.68 201.10,371.72 215.00,372.89
             224.39,373.69 231.53,367.40 231.95,358.00
             232.12,354.42 231.49,352.34 231.00,349.00
             231.00,349.00 231.00,339.00 231.00,339.00
             229.60,326.12 227.02,315.10 236.00,304.00
             244.19,318.65 248.83,326.23 252.65,343.00
             254.28,350.17 255.56,360.63 261.11,365.78
             270.02,374.06 284.64,369.14 287.47,357.00
             288.73,351.61 284.12,334.01 282.42,328.00
             278.62,314.52 272.42,300.65 264.65,289.00
             260.63,282.98 255.78,276.63 249.00,273.56
             245.26,271.86 241.98,272.00 238.00,272.00
             228.76,271.99 226.33,272.68 218.00,277.00 Z
           M 23.00,210.00
           C 23.00,210.00 22.00,210.00 22.00,210.00
             22.00,210.00 23.00,211.00 23.00,211.00
             23.00,211.00 23.00,210.00 23.00,210.00 Z
           M 101.00,335.00
           C 108.74,317.45 108.83,321.05 116.84,307.00
             116.84,307.00 126.88,287.00 126.88,287.00
             130.59,280.64 137.23,275.81 137.89,268.00
             139.29,251.50 120.04,245.89 109.17,256.21
             99.96,264.96 95.50,278.16 89.49,289.00
             89.49,289.00 80.92,302.00 80.92,302.00
             76.14,309.92 67.43,328.94 67.04,338.00
             66.43,352.09 76.80,358.15 88.00,363.75
             101.05,370.28 127.99,375.44 143.00,378.45
             152.58,380.37 163.37,383.88 173.00,384.00
             178.47,384.06 183.17,384.38 187.90,381.03
             195.31,375.79 195.96,363.73 189.61,357.39
             184.73,352.51 175.59,352.59 169.00,351.12
             169.00,351.12 143.00,345.65 143.00,345.65
             143.00,345.65 101.00,335.00 101.00,335.00 Z
           M 192.00,314.00
           C 192.00,314.00 191.00,314.00 191.00,314.00
             191.00,314.00 192.00,315.00 192.00,315.00
             192.00,315.00 192.00,314.00 192.00,314.00 Z" />
    <path id="grey"
        fill="#a6a6a6" stroke="none" stroke-width="1"
        d="M 23.00,205.00
           C 23.05,186.38 22.19,160.90 33.32,145.18
             35.39,142.26 38.39,140.32 41.00,137.91
             52.27,127.51 55.95,124.66 69.58,117.91
             69.58,117.91 84.17,109.52 84.17,109.52
             84.17,109.52 93.00,106.00 93.00,106.00
             93.00,106.00 113.96,96.71 113.96,96.71
             113.96,96.71 127.00,89.15 127.00,89.15
             127.00,89.15 151.00,76.04 151.00,76.04
             151.00,76.04 176.00,66.72 176.00,66.72
             176.00,66.72 187.17,61.72 187.17,61.72
             187.17,61.72 204.00,55.68 204.00,55.68
             204.00,55.68 213.00,52.38 213.00,52.38
             213.00,52.38 249.16,45.96 249.16,45.96
             249.16,45.96 258.00,43.67 258.00,43.67
             264.58,42.26 281.55,39.81 288.00,40.04
             288.00,40.04 333.00,47.00 333.00,47.00
             333.00,47.00 334.00,50.00 334.00,50.00
             334.00,50.00 283.00,58.66 283.00,58.66
             283.00,58.66 268.00,64.23 268.00,64.23
             268.00,64.23 253.00,67.21 253.00,67.21
             253.00,67.21 241.00,70.57 241.00,70.57
             241.00,70.57 210.00,76.50 210.00,76.50
             210.00,76.50 197.00,80.57 197.00,80.57
             197.00,80.57 184.00,83.75 184.00,83.75
             184.00,83.75 175.00,87.08 175.00,87.08
             175.00,87.08 153.00,91.75 153.00,91.75
             153.00,91.75 136.00,96.69 136.00,96.69
             136.00,96.69 124.00,101.26 124.00,101.26
             111.79,105.21 92.61,109.42 82.00,115.63
             72.43,121.23 65.13,129.83 57.84,138.00
             52.51,143.97 40.58,157.48 37.03,164.00
             33.32,170.81 26.11,196.76 25.00,205.00
             25.00,205.00 23.00,205.00 23.00,205.00 Z" />
    <path id="orange"
        fill="#ff5d00" stroke="none" stroke-width="1"
        d="M 286.00,154.70
           C 302.35,151.01 304.79,160.27 308.43,173.00
             308.43,173.00 312.33,185.00 312.33,185.00
             312.33,185.00 334.48,274.00 334.48,274.00
             334.48,274.00 343.76,299.00 343.76,299.00
             345.88,307.70 345.24,315.88 336.00,320.03
             333.54,321.14 330.69,321.76 328.00,321.44
             317.17,320.19 315.79,312.51 312.58,304.00
             312.58,304.00 307.67,291.00 307.67,291.00
             299.92,267.98 296.08,243.59 290.50,220.00
             290.50,220.00 281.67,191.00 281.67,191.00
             277.57,178.69 270.25,161.87 286.00,154.70 Z
           M 418.00,218.00
           C 407.40,215.15 384.49,204.40 374.00,199.24
             366.77,195.69 360.55,193.19 360.04,184.00
             359.37,171.82 368.48,165.25 380.00,167.82
             384.54,168.84 391.83,173.36 397.00,175.58
             397.00,175.58 410.00,181.91 410.00,181.91
             423.76,187.67 445.68,192.92 448.67,210.00
             450.54,220.65 446.30,232.99 443.00,243.00
             443.00,243.00 438.58,257.00 438.58,257.00
             434.08,268.96 428.10,280.66 422.26,292.00
             422.26,292.00 417.02,303.00 417.02,303.00
             410.28,315.56 393.80,313.77 389.09,303.00
             385.13,293.96 392.29,282.90 396.25,275.00
             406.15,255.19 408.45,250.21 414.77,229.00
             414.77,229.00 418.00,218.00 418.00,218.00 Z
           M 235.00,303.00
           C 224.41,320.39 230.11,330.58 231.00,349.00
             231.42,357.73 233.10,366.15 222.99,370.64
             220.63,371.68 218.55,371.97 216.00,371.97
             196.83,371.95 197.02,345.35 197.00,332.00
             196.98,319.67 191.84,305.40 189.28,293.00
             189.28,293.00 186.54,274.00 186.54,274.00
             186.54,274.00 182.42,256.00 182.42,256.00
             182.42,256.00 177.11,232.00 177.11,232.00
             177.11,232.00 168.04,204.00 168.04,204.00
             167.17,187.16 184.90,183.11 193.67,191.39
             197.20,194.72 199.43,201.41 201.00,206.00
             205.29,218.61 206.37,221.87 209.21,235.00
             209.21,235.00 216.54,267.00 216.54,267.00
             216.54,267.00 218.00,278.00 218.00,278.00
             222.47,275.46 224.90,274.14 230.00,273.02
             236.58,271.57 242.82,271.53 249.00,274.55
             262.69,281.25 275.42,307.74 279.97,322.00
             279.97,322.00 283.28,335.00 283.28,335.00
             285.26,344.38 290.45,356.49 282.47,364.47
             280.04,366.90 276.41,368.46 273.00,368.80
             265.22,369.58 259.72,365.05 257.09,358.00
             257.09,358.00 251.57,335.00 251.57,335.00
             248.47,324.07 242.38,311.60 235.00,303.00 Z
           M 101.00,336.00
           C 101.00,336.00 124.00,342.12 124.00,342.12
             124.00,342.12 141.00,345.88 141.00,345.88
             141.00,345.88 167.00,351.40 167.00,351.40
             174.28,352.86 184.35,352.50 189.47,358.21
             192.62,361.73 193.21,365.44 192.96,370.00
             192.41,379.81 184.06,384.42 175.00,383.91
             175.00,383.91 143.00,377.80 143.00,377.80
             128.23,374.80 102.15,369.41 89.00,363.56
             82.12,360.50 71.19,353.37 68.70,346.00
             67.92,343.69 67.96,340.45 68.01,338.00
             68.26,327.98 76.60,310.57 81.91,302.00
             81.91,302.00 89.69,290.00 89.69,290.00
             95.82,278.84 100.36,266.50 109.30,257.10
             119.98,245.87 137.87,251.47 136.96,268.00
             136.54,275.61 130.01,280.65 126.06,287.00
             126.06,287.00 115.99,307.00 115.99,307.00
             110.30,316.61 102.81,324.46 101.00,336.00 Z" />
</svg>
