<?xml version="1.0" encoding="UTF-8" standalone="no"?>
<!DOCTYPE svg PUBLIC "-//W3C//DTD SVG 20010904//EN"
              "http://www.w3.org/TR/2001/REC-SVG-20010904/DTD/svg10.dtd">

<svg xmlns="http://www.w3.org/2000/svg"
     width="2in" height="2in"
     viewBox="0 0 600 600">
  <path id="blue"
        fill="#007cff" stroke="none" stroke-width="1"
        d="M 300.00,320.00
           C 296.98,317.29 298.29,313.83 297.70,310.00
             297.70,310.00 293.14,294.17 293.14,294.17
             289.36,285.72 284.79,270.15 282.86,261.00
             282.86,261.00 281.81,250.09 281.81,250.09
             281.81,250.09 277.37,235.00 277.37,235.00
             277.37,235.00 275.57,227.17 275.57,227.17
             275.57,227.17 273.43,219.99 273.43,219.99
             273.43,219.99 269.30,188.00 269.30,188.00
             269.30,188.00 267.47,180.04 267.47,180.04
             267.47,180.04 266.68,171.96 266.68,171.96
             266.68,171.96 260.99,151.00 260.99,151.00
             260.99,151.00 256.20,139.00 256.20,139.00
             256.20,139.00 253.64,129.00 253.64,129.00
             253.64,129.00 249.38,118.00 249.38,118.00
             249.38,118.00 247.62,111.17 247.62,111.17
             247.62,111.17 243.43,101.72 243.43,101.72
             241.32,95.57 241.06,93.61 237.83,87.42
             236.19,84.28 228.38,72.97 226.10,70.44
             218.26,61.71 213.47,61.81 210.45,48.00
             209.59,44.05 210.11,39.87 211.16,36.00
             216.04,18.01 237.36,13.99 252.08,22.46
             256.60,25.06 263.22,31.14 266.26,35.42
             269.37,39.79 272.65,47.31 277.00,50.00
             277.00,50.00 285.16,66.29 285.16,66.29
             285.16,66.29 293.70,84.28 293.70,84.28
             293.70,84.28 298.01,99.91 298.01,99.91
             298.01,99.91 300.91,106.09 300.91,106.09
             300.91,106.09 305.35,122.00 305.35,122.00
             305.35,122.00 312.61,143.28 312.61,143.28
             312.61,143.28 314.18,150.91 314.18,150.91
             314.18,150.91 318.74,167.00 318.74,167.00
             318.74,167.00 319.59,176.00 319.59,176.00
             319.59,176.00 321.88,186.00 321.88,186.00
             321.88,186.00 323.47,207.83 323.47,207.83
             323.47,207.83 333.55,245.00 333.55,245.00
             333.55,245.00 335.37,258.00 335.37,258.00
             335.37,258.00 338.40,267.83 338.40,267.83
             338.40,267.83 341.97,276.00 341.97,276.00
             341.97,276.00 349.53,304.00 349.53,304.00
             349.53,304.00 350.15,313.00 350.15,313.00
             350.15,313.00 353.21,347.00 353.21,347.00
             353.21,347.00 358.16,365.00 358.16,365.00
             358.16,365.00 359.52,376.00 359.52,376.00
             359.52,376.00 365.15,398.00 365.15,398.00
             365.15,398.00 366.05,406.96 366.05,406.96
             366.05,406.96 367.61,412.28 367.61,412.28
             367.61,412.28 368.91,426.00 368.91,426.00
             368.91,426.00 368.91,444.00 368.91,444.00
             368.91,444.00 371.00,456.00 371.00,456.00
             371.00,456.00 395.58,423.83 395.58,423.83
             395.58,423.83 401.49,415.30 401.49,415.30
             401.49,415.30 414.83,403.68 414.83,403.68
             419.43,399.77 432.81,392.21 438.00,398.00
             448.29,396.96 454.90,406.11 457.67,415.00
             458.86,418.84 460.35,423.99 457.00,427.00
             458.68,438.30 450.54,440.01 444.47,447.17
             444.47,447.17 434.19,460.42 434.19,460.42
             434.19,460.42 429.41,467.95 429.41,467.95
             429.41,467.95 423.41,474.83 423.41,474.83
             423.41,474.83 412.27,489.28 412.27,489.28
             412.27,489.28 401.56,503.99 401.56,503.99
             401.56,503.99 392.68,515.00 392.68,515.00
             392.68,515.00 379.85,537.00 379.85,537.00
             377.36,541.41 378.19,544.01 375.45,548.91
             370.53,557.69 360.86,562.16 351.00,561.49
             334.81,560.39 329.49,552.76 317.00,544.19
             307.26,537.52 301.96,530.33 293.75,522.27
             293.75,522.27 238.79,464.13 238.79,464.13
             238.79,464.13 225.59,448.58 225.59,448.58
             222.83,444.89 221.92,441.42 218.00,439.00
             216.23,432.99 206.65,422.20 202.45,417.00
             202.45,417.00 174.42,384.23 174.42,384.23
             174.42,384.23 160.46,370.56 160.46,370.56
             160.46,370.56 150.72,360.75 150.72,360.75
             150.72,360.75 134.33,337.25 134.33,337.25
             134.33,337.25 126.59,326.99 126.59,326.99
             126.59,326.99 116.25,312.12 116.25,312.12
             108.43,303.31 100.65,294.12 91.71,286.39
             84.23,279.92 72.41,271.01 66.58,263.56
             66.58,263.56 52.50,245.14 52.50,245.14
             49.62,241.58 46.62,239.54 45.01,235.00
             39.84,220.32 45.30,204.40 61.00,199.59
             64.18,198.62 66.62,197.93 70.00,198.18
             88.42,199.55 90.92,212.32 101.72,224.05
             105.48,228.13 106.50,231.50 112.00,233.00
             112.00,233.00 126.54,245.93 126.54,245.93
             126.54,245.93 161.14,284.17 161.14,284.17
             161.14,284.17 169.98,297.74 169.98,297.74
             169.98,297.74 175.94,305.00 175.94,305.00
             175.94,305.00 189.28,324.56 189.28,324.56
             189.28,324.56 219.06,354.73 219.06,354.73
             219.06,354.73 224.70,362.27 224.70,362.27
             224.70,362.27 251.40,393.96 251.40,393.96
             251.40,393.96 274.88,426.00 274.88,426.00
             274.88,426.00 320.00,474.00 320.00,474.00
             320.00,474.00 319.25,461.00 319.25,461.00
             319.25,461.00 317.13,451.00 317.13,451.00
             317.13,451.00 317.13,439.00 317.13,439.00
             317.13,439.00 316.16,423.00 316.16,423.00
             316.07,415.39 314.61,415.83 313.70,410.00
             313.70,410.00 312.92,402.00 312.92,402.00
             312.92,402.00 307.46,381.00 307.46,381.00
             307.46,381.00 306.41,371.00 306.41,371.00
             306.41,371.00 303.62,360.96 303.62,360.96
             303.62,360.96 301.30,351.92 301.30,351.92
             301.30,351.92 300.00,332.00 300.00,332.00
             299.81,328.74 297.57,324.50 300.00,322.00
             300.00,322.00 300.00,320.00 300.00,320.00 Z" />
</svg>
