<?xml version="1.0" encoding="UTF-8" standalone="no"?>
<!DOCTYPE svg PUBLIC "-//W3C//DTD SVG 20010904//EN"
              "http://www.w3.org/TR/2001/REC-SVG-20010904/DTD/svg10.dtd">

<svg xmlns="http://www.w3.org/2000/svg"
     width="2in" height="2in"
     viewBox="0 0 600 600">
  <path id="blue"
        fill="#0089c5" stroke="none" stroke-width="1"
        d="M 303.00,396.00
           C 307.33,399.74 305.63,409.62 306.17,415.00
             307.28,426.13 311.07,444.47 306.86,454.96
             301.97,467.13 283.66,471.28 273.74,462.89
             265.63,456.02 261.45,443.15 259.62,433.00
             259.62,433.00 258.54,425.17 258.54,425.17
             258.54,425.17 254.21,409.00 254.21,409.00
             254.21,409.00 252.93,399.84 252.93,399.84
             252.13,395.89 250.38,393.62 249.49,387.00
             249.49,387.00 248.75,372.00 248.75,372.00
             248.75,372.00 248.00,363.00 248.00,363.00
             248.00,363.00 248.00,336.00 248.00,336.00
             248.00,336.00 251.10,313.00 251.10,313.00
             252.21,308.54 254.64,301.56 254.52,297.00
             254.52,297.00 248.01,262.00 248.01,262.00
             248.01,262.00 246.71,253.00 246.71,253.00
             246.71,253.00 243.42,242.00 243.42,242.00
             243.42,242.00 241.30,232.00 241.30,232.00
             241.30,232.00 240.30,224.00 240.30,224.00
             240.30,224.00 237.39,215.00 237.39,215.00
             237.39,215.00 233.80,200.00 233.80,200.00
             233.80,200.00 229.36,188.00 229.36,188.00
             229.36,188.00 226.62,177.17 226.62,177.17
             226.62,177.17 223.17,169.00 223.17,169.00
             223.17,169.00 218.82,155.00 218.82,155.00
             218.82,155.00 216.48,146.00 216.48,146.00
             216.48,146.00 211.66,132.00 211.66,132.00
             211.66,132.00 208.53,120.00 208.53,120.00
             208.53,120.00 204.74,111.00 204.74,111.00
             204.74,111.00 200.99,100.10 200.99,100.10
             199.07,95.66 195.27,94.83 192.85,89.00
             186.81,74.48 196.94,59.14 213.00,60.53
             229.59,61.96 234.70,73.14 240.13,87.00
             240.13,87.00 244.37,99.00 244.37,99.00
             244.37,99.00 247.00,105.00 247.00,105.00
             247.00,105.00 250.96,120.00 250.96,120.00
             250.96,120.00 255.04,131.00 255.04,131.00
             255.04,131.00 264.27,161.00 264.27,161.00
             264.27,161.00 268.29,174.00 268.29,174.00
             268.29,174.00 272.43,185.00 272.43,185.00
             272.43,185.00 276.69,203.00 276.69,203.00
             276.69,203.00 280.12,214.00 280.12,214.00
             280.12,214.00 281.96,226.00 281.96,226.00
             281.96,226.00 285.00,238.00 285.00,238.00
             289.55,236.06 292.75,233.02 297.00,230.59
             305.26,225.86 322.51,219.17 331.96,220.12
             348.45,221.77 357.01,229.28 368.41,240.30
             386.24,257.54 399.18,279.14 408.64,302.00
             408.64,302.00 411.73,311.72 411.73,311.72
             416.34,323.03 415.47,323.18 418.39,334.00
             420.39,341.41 422.29,343.56 421.96,352.00
             421.96,352.00 415.30,390.00 415.30,390.00
             414.03,398.84 414.86,407.03 412.12,416.09
             410.44,421.62 404.52,428.48 398.96,430.32
             386.41,434.49 373.03,427.52 370.85,414.00
             369.78,407.39 372.11,403.81 372.82,398.00
             372.82,398.00 373.60,386.91 373.60,386.91
             375.72,375.49 379.46,363.66 379.82,352.00
             379.92,348.73 376.69,334.24 375.40,331.09
             375.40,331.09 372.79,325.83 372.79,325.83
             372.79,325.83 370.32,318.00 370.32,318.00
             370.32,318.00 359.48,297.00 359.48,297.00
             352.67,284.90 349.04,279.85 339.01,270.04
             335.41,266.51 331.53,261.62 326.00,263.15
             314.11,266.43 309.52,273.82 304.40,284.00
             301.68,289.40 297.38,299.06 296.67,305.00
             296.23,308.69 297.82,318.56 298.22,323.00
             298.22,323.00 299.06,342.00 299.06,342.00
             299.06,342.00 300.69,352.72 300.69,352.72
             300.69,352.72 301.30,362.00 301.30,362.00
             301.30,362.00 302.77,370.72 302.77,370.72
             303.10,376.89 302.05,382.41 305.00,388.00
             305.00,388.00 303.00,396.00 303.00,396.00 Z
           M 502.00,345.00
           C 502.00,345.00 509.60,366.91 509.60,366.91
             509.60,366.91 518.40,386.00 518.40,386.00
             518.40,386.00 521.88,396.00 521.88,396.00
             521.88,396.00 526.33,407.00 526.33,407.00
             526.33,407.00 531.08,423.00 531.08,423.00
             531.08,423.00 533.48,433.00 533.48,433.00
             533.48,433.00 538.66,446.00 538.66,446.00
             541.24,452.97 545.91,460.65 545.92,468.00
             545.96,489.91 523.53,493.28 508.09,483.48
             504.23,481.03 497.58,473.82 495.22,469.83
             495.22,469.83 491.91,463.17 491.91,463.17
             491.91,463.17 471.50,423.00 471.50,423.00
             471.50,423.00 463.22,407.00 463.22,407.00
             463.22,407.00 453.96,386.00 453.96,386.00
             453.96,386.00 450.24,378.00 450.24,378.00
             450.24,378.00 447.62,368.00 447.62,368.00
             447.62,368.00 443.96,359.00 443.96,359.00
             443.96,359.00 440.61,345.00 440.61,345.00
             440.61,345.00 437.69,336.00 437.69,336.00
             437.69,336.00 429.42,300.00 429.42,300.00
             429.42,300.00 427.40,286.99 427.40,286.99
             427.40,286.99 424.73,278.00 424.73,278.00
             424.73,278.00 423.64,270.00 423.64,270.00
             423.64,270.00 419.33,248.00 419.33,248.00
             419.33,248.00 418.04,235.83 418.04,235.83
             418.04,235.83 415.46,222.00 415.46,222.00
             415.60,213.13 418.79,210.97 420.05,205.55
             420.05,205.55 425.09,175.00 425.09,175.00
             426.98,168.20 435.66,151.03 439.53,144.72
             445.20,135.47 450.14,126.88 462.00,125.29
             478.29,123.11 485.81,135.43 497.29,144.41
             497.29,144.41 520.00,159.17 520.00,159.17
             527.33,164.22 535.73,170.51 542.00,176.81
             552.84,187.71 557.75,195.99 565.42,209.00
             565.42,209.00 576.63,229.00 576.63,229.00
             576.63,229.00 579.97,242.00 579.97,242.00
             582.59,250.77 584.13,252.14 583.99,261.99
             583.85,270.83 582.82,274.88 580.70,283.27
             578.57,291.67 575.92,299.96 570.46,306.91
             567.34,310.89 564.33,312.75 560.61,315.82
             546.57,327.39 533.22,333.48 516.17,339.38
             516.17,339.38 502.00,345.00 502.00,345.00 Z
           M 116.00,488.00
           C 118.99,492.18 118.65,501.59 119.61,507.00
             119.61,507.00 121.89,519.00 121.89,519.00
             122.12,523.32 121.48,527.72 122.46,532.00
             124.48,540.86 129.69,559.64 127.48,568.00
             124.22,580.37 104.77,584.81 95.17,577.35
             88.75,572.37 87.65,566.01 85.00,559.09
             82.95,553.71 81.01,553.11 80.17,545.00
             80.17,545.00 80.91,528.00 80.91,528.00
             80.45,519.43 78.48,507.45 76.66,499.00
             75.14,491.91 70.24,490.33 68.25,483.00
             68.25,483.00 65.75,465.00 65.75,465.00
             65.75,465.00 59.99,443.00 59.99,443.00
             59.99,443.00 56.83,436.00 56.83,436.00
             56.83,436.00 50.77,419.00 50.77,419.00
             50.77,419.00 46.06,400.00 46.06,400.00
             46.06,400.00 40.39,384.00 40.39,384.00
             40.39,384.00 36.93,376.00 36.93,376.00
             36.93,376.00 33.72,363.00 33.72,363.00
             33.72,363.00 27.46,339.00 27.46,339.00
             27.46,339.00 26.11,327.42 26.11,327.42
             26.11,327.42 23.17,314.00 23.17,314.00
             23.17,314.00 20.84,288.00 20.84,288.00
             20.84,288.00 19.10,276.00 19.10,276.00
             17.04,251.19 18.06,225.31 27.42,202.00
             27.42,202.00 31.14,192.28 31.14,192.28
             36.66,181.27 45.65,171.51 55.42,164.21
             68.18,154.69 90.10,148.08 106.00,148.00
             106.00,148.00 116.00,148.00 116.00,148.00
             120.30,148.01 125.98,147.49 129.00,151.00
             135.42,150.29 158.60,153.77 165.00,155.49
             165.00,155.49 172.00,157.88 172.00,157.88
             176.30,158.99 184.51,160.41 187.00,164.00
             194.03,164.01 197.56,168.74 202.73,172.78
             217.65,184.42 226.79,199.94 231.69,218.00
             233.93,226.25 235.95,230.85 235.72,240.00
             235.28,257.48 222.38,277.54 210.59,289.71
             210.59,289.71 198.86,300.09 198.86,300.09
             188.14,310.64 164.87,331.46 152.04,338.24
             152.04,338.24 123.04,354.46 123.04,354.46
             123.04,354.46 114.96,360.00 114.96,360.00
             111.78,362.00 102.77,365.81 101.77,369.13
             101.18,371.07 102.22,374.91 102.56,377.00
             102.56,377.00 106.72,396.00 106.72,396.00
             106.72,396.00 109.26,413.91 109.26,413.91
             109.26,413.91 111.38,421.04 111.38,421.04
             113.13,429.58 116.57,451.75 116.67,460.00
             116.67,460.00 116.67,473.08 116.67,473.08
             116.72,478.37 118.81,483.87 116.00,488.00 Z
           M 470.00,176.00
           C 463.27,185.94 464.02,189.07 462.25,200.00
             461.28,205.98 459.33,220.44 460.26,226.00
             460.26,226.00 462.34,233.00 462.34,233.00
             462.34,233.00 464.41,241.00 464.41,241.00
             464.41,241.00 467.05,247.00 467.05,247.00
             467.05,247.00 469.29,253.72 469.29,253.72
             469.29,253.72 479.62,276.00 479.62,276.00
             481.89,281.10 481.56,283.76 483.01,288.00
             483.01,288.00 486.17,295.00 486.17,295.00
             486.17,295.00 489.00,305.00 489.00,305.00
             489.00,305.00 509.00,298.73 509.00,298.73
             509.00,298.73 514.99,295.42 514.99,295.42
             521.01,292.34 529.53,288.85 534.18,284.18
             539.55,278.79 544.10,266.86 542.76,259.17
             542.76,259.17 540.39,251.99 540.39,251.99
             539.45,248.63 539.04,245.22 537.41,242.09
             537.41,242.09 533.16,235.91 533.16,235.91
             527.60,227.35 524.93,219.43 517.70,211.43
             503.95,196.20 485.96,188.42 470.00,176.00 Z
           M 90.00,326.00
           C 99.14,323.17 109.40,314.40 118.09,309.24
             125.83,304.65 133.02,302.39 140.15,296.33
             140.15,296.33 151.72,287.51 151.72,287.51
             151.72,287.51 173.72,267.51 173.72,267.51
             181.69,260.33 190.23,251.58 193.53,241.00
             195.11,235.93 193.59,232.80 192.05,228.00
             188.91,218.30 180.54,204.89 170.83,200.84
             170.83,200.84 158.00,197.12 158.00,197.12
             141.93,192.80 125.69,189.64 109.00,189.99
             99.94,190.17 92.28,190.22 84.04,194.80
             74.55,200.08 70.41,207.35 66.40,216.91
             64.83,220.66 62.96,223.03 62.37,227.42
             61.58,233.36 69.64,253.92 71.91,261.00
             71.91,261.00 76.51,280.00 76.51,280.00
             76.51,280.00 79.03,287.00 79.03,287.00
             79.03,287.00 81.17,295.00 81.17,295.00
             81.17,295.00 85.04,305.00 85.04,305.00
             85.04,305.00 90.00,326.00 90.00,326.00 Z" />
</svg>
