<?xml version="1.0" encoding="UTF-8" standalone="no"?>
<!DOCTYPE svg PUBLIC "-//W3C//DTD SVG 20010904//EN"
              "http://www.w3.org/TR/2001/REC-SVG-20010904/DTD/svg10.dtd">

<svg xmlns="http://www.w3.org/2000/svg"
     width="2in" height="2in"
     viewBox="0 0 600 600">
  <path id="white"
        fill="white" stroke="none" stroke-width="1"
        d="M 247.00,19.14
           C 247.00,19.14 279.00,19.14 279.00,19.14
             279.00,19.14 297.00,19.14 297.00,19.14
             297.00,19.14 309.00,19.96 309.00,19.96
             309.00,19.96 322.00,19.96 322.00,19.96
             332.47,20.02 328.91,21.86 337.00,22.00
             337.00,22.00 377.00,25.28 377.00,25.28
             384.60,26.28 386.16,27.98 394.00,28.00
             394.00,28.00 416.00,28.00 416.00,28.00
             416.00,28.00 444.91,31.69 444.91,31.69
             444.91,31.69 452.04,34.45 452.04,34.45
             455.47,35.36 456.60,34.62 460.99,36.32
             467.46,38.84 473.11,43.01 479.03,46.49
             479.03,46.49 493.83,54.21 493.83,54.21
             493.83,54.21 515.43,72.71 515.43,72.71
             520.33,77.24 521.58,76.96 527.64,83.58
             537.15,93.96 543.49,111.02 549.66,123.91
             549.66,123.91 558.23,141.17 558.23,141.17
             558.23,141.17 561.97,152.91 561.97,152.91
             561.97,152.91 564.84,160.04 564.84,160.04
             564.84,160.04 568.04,176.96 568.04,176.96
             568.04,176.96 569.97,183.17 569.97,183.17
             569.97,183.17 569.97,189.00 569.97,189.00
             569.97,189.00 572.09,213.00 572.09,213.00
             572.09,213.00 573.00,223.00 573.00,223.00
             573.17,237.54 574.01,231.28 574.87,239.00
             574.87,239.00 576.00,257.00 576.00,257.00
             576.00,257.00 576.00,281.00 576.00,281.00
             576.00,281.00 574.76,301.83 574.76,301.83
             574.76,301.83 573.13,308.04 573.13,308.04
             573.13,308.04 569.97,333.91 569.97,333.91
             569.97,333.91 567.29,343.00 567.29,343.00
             567.29,343.00 564.53,360.96 564.53,360.96
             563.34,366.49 562.77,363.64 561.27,374.00
             561.27,374.00 557.80,398.83 557.80,398.83
             557.80,398.83 553.51,416.00 553.51,416.00
             553.51,416.00 552.46,422.91 552.46,422.91
             552.46,422.91 549.39,431.01 549.39,431.01
             549.39,431.01 546.09,445.83 546.09,445.83
             546.09,445.83 539.15,460.17 539.15,460.17
             539.15,460.17 530.59,477.91 530.59,477.91
             530.59,477.91 526.03,484.08 526.03,484.08
             523.44,488.06 523.29,489.21 519.69,493.00
             519.69,493.00 504.13,506.44 504.13,506.44
             483.13,524.87 458.03,540.36 431.83,550.23
             431.83,550.23 422.01,553.18 422.01,553.18
             422.01,553.18 412.96,556.85 412.96,556.85
             404.64,559.48 403.48,558.64 400.04,559.55
             400.04,559.55 394.72,561.57 394.72,561.57
             394.72,561.57 373.09,565.25 373.09,565.25
             373.09,565.25 367.83,566.76 367.83,566.76
             367.83,566.76 354.00,568.27 354.00,568.27
             354.00,568.27 337.09,571.22 337.09,571.22
             337.09,571.22 326.00,573.72 326.00,573.72
             313.09,575.27 300.00,575.15 287.00,575.00
             287.00,575.00 265.17,572.80 265.17,572.80
             265.17,572.80 258.96,571.04 258.96,571.04
             250.99,569.51 250.12,570.54 241.00,567.54
             241.00,567.54 220.91,559.94 220.91,559.94
             220.91,559.94 209.09,556.39 209.09,556.39
             209.09,556.39 201.96,553.24 201.96,553.24
             191.13,549.36 192.45,550.90 181.17,544.41
             181.17,544.41 145.84,518.44 145.84,518.44
             145.84,518.44 133.17,509.81 133.17,509.81
             133.17,509.81 93.39,476.25 93.39,476.25
             93.39,476.25 81.40,462.28 81.40,462.28
             81.40,462.28 76.37,456.96 76.37,456.96
             76.37,456.96 53.86,422.09 53.86,422.09
             45.55,407.94 39.00,399.08 33.45,382.91
             29.62,371.76 27.22,360.60 25.28,349.00
             25.28,349.00 23.78,339.09 23.78,339.09
             23.78,339.09 22.22,333.83 22.22,333.83
             22.22,333.83 19.11,312.01 19.11,312.01
             17.87,304.68 17.02,308.40 17.08,299.00
             17.08,299.00 17.08,262.00 17.08,262.00
             17.08,262.00 17.08,256.17 17.08,256.17
             17.08,256.17 21.81,234.17 21.81,234.17
             21.81,234.17 26.08,223.00 26.08,223.00
             26.08,223.00 27.69,214.09 27.69,214.09
             27.69,214.09 33.74,196.17 33.74,196.17
             33.74,196.17 37.11,189.96 37.11,189.96
             44.55,174.67 54.91,155.00 65.72,141.96
             65.72,141.96 72.33,135.78 72.33,135.78
             72.33,135.78 80.67,126.57 80.67,126.57
             80.67,126.57 97.42,107.27 97.42,107.27
             97.42,107.27 128.72,79.56 128.72,79.56
             128.72,79.56 143.42,67.31 143.42,67.31
             155.40,58.73 177.33,46.80 190.83,39.88
             208.62,30.77 227.10,22.49 247.00,19.14 Z
           M 386.00,49.34
           C 373.78,52.20 367.66,64.58 375.65,74.90
             380.73,81.46 387.53,79.88 395.00,85.53
             395.00,85.53 403.00,92.24 403.00,92.24
             414.47,100.79 426.56,108.05 437.00,118.04
             444.04,124.77 451.06,134.82 462.00,133.89
             470.95,133.14 476.64,125.81 475.89,117.00
             475.17,108.46 465.90,100.68 460.00,95.04
             460.00,95.04 438.00,77.04 438.00,77.04
             438.00,77.04 424.00,67.48 424.00,67.48
             412.78,58.70 401.38,48.28 386.00,49.34 Z
           M 499.00,169.34
           C 496.38,169.95 494.35,170.48 492.04,171.99
             477.20,181.74 491.06,198.30 494.37,210.00
             495.10,212.61 495.00,215.32 495.00,218.00
             495.01,224.45 493.99,236.62 497.09,242.00
             500.57,248.04 507.21,250.86 514.00,249.67
             523.39,248.02 526.89,240.71 527.00,232.00
             527.25,211.16 527.76,204.79 519.13,185.00
             515.07,175.72 510.12,168.61 499.00,169.34 Z" />
    <path id="grey"
        fill="#d5cccc" stroke="none" stroke-width="1"
        d="M 387.00,49.61
           C 403.54,49.64 412.73,58.97 425.00,68.49
             425.00,68.49 439.00,77.92 439.00,77.92
             446.12,83.15 464.16,98.49 469.70,105.00
             472.71,108.53 475.33,112.25 475.80,117.00
             476.76,126.57 468.57,134.76 459.00,133.80
             449.94,132.89 441.31,122.06 435.00,116.04
             425.85,107.30 415.28,100.66 405.00,93.43
             405.00,93.43 393.00,84.11 393.00,84.11
             387.44,80.50 380.13,80.31 375.80,74.82
             369.28,66.54 371.92,51.65 387.00,49.61 Z
           M 500.00,169.61
           C 511.85,169.74 516.30,177.89 519.99,188.00
             527.54,208.68 527.25,208.08 527.00,230.00
             526.88,239.67 523.07,249.12 512.00,249.88
             505.78,250.31 499.55,246.68 496.97,241.00
             494.23,234.96 495.01,224.76 495.00,218.00
             495.00,215.26 495.10,212.67 494.37,210.00
             491.55,199.76 482.10,188.67 487.07,178.01
             488.52,174.90 490.90,172.52 494.01,171.07
             496.09,170.11 497.79,169.91 500.00,169.61 Z" />
</svg>
