<?xml version="1.0" encoding="UTF-8" standalone="no"?>
<!DOCTYPE svg PUBLIC "-//W3C//DTD SVG 20010904//EN"
              "http://www.w3.org/TR/2001/REC-SVG-20010904/DTD/svg10.dtd">

<svg xmlns="http://www.w3.org/2000/svg"
     width="5.55556in" height="5.55556in"
     viewBox="0 0 500 500">
  <path id="Symbol"
        fill="#dd3a0a" stroke="none" stroke-width="1"
        d="M 12.00,210.00
           C 10.86,202.84 14.67,191.97 16.80,185.00
             16.80,185.00 21.22,168.00 21.22,168.00
             21.22,168.00 29.58,147.00 29.58,147.00
             29.58,147.00 45.63,117.00 45.63,117.00
             51.08,109.35 66.63,93.33 73.83,86.80
             80.04,81.17 85.93,74.71 93.09,70.20
             93.09,70.20 100.00,66.57 100.00,66.57
             100.00,66.57 116.00,57.36 116.00,57.36
             116.00,57.36 132.58,49.96 132.58,49.96
             132.58,49.96 151.00,42.09 151.00,42.09
             151.00,42.09 163.00,39.12 163.00,39.12
             163.00,39.12 183.00,33.29 183.00,33.29
             183.00,33.29 217.00,24.61 217.00,24.61
             217.00,24.61 231.00,20.46 231.00,20.46
             237.32,19.31 243.60,19.06 250.00,19.00
             250.00,19.00 262.58,18.26 262.58,18.26
             262.58,18.26 296.00,22.28 296.00,22.28
             296.00,22.28 305.00,24.54 305.00,24.54
             316.13,26.68 327.61,28.78 338.00,33.50
             359.01,43.04 376.36,58.38 392.37,74.61
             392.37,74.61 404.17,86.91 404.17,86.91
             404.17,86.91 410.67,93.09 410.67,93.09
             410.67,93.09 416.21,100.56 416.21,100.56
             416.21,100.56 423.64,109.04 423.64,109.04
             431.77,120.51 437.03,133.33 443.23,145.83
             443.23,145.83 446.44,152.04 446.44,152.04
             446.44,152.04 455.39,183.00 455.39,183.00
             455.39,183.00 461.77,205.00 461.77,205.00
             463.72,213.44 465.93,237.93 466.00,247.00
             466.00,247.00 466.00,268.00 466.00,268.00
             465.97,270.94 465.26,274.35 467.51,276.67
             470.02,279.26 475.58,280.35 479.00,281.46
             487.76,284.31 495.77,288.69 496.37,299.00
             496.37,299.00 496.37,307.00 496.37,307.00
             496.37,307.00 496.37,313.00 496.37,313.00
             496.53,326.24 485.92,328.87 476.00,331.96
             476.00,331.96 468.00,334.62 468.00,334.62
             465.31,335.37 458.36,336.80 456.58,338.58
             455.42,339.75 452.07,351.27 451.05,354.00
             447.98,362.22 443.74,367.85 438.78,375.00
             425.47,394.19 404.39,407.49 384.00,417.87
             384.00,417.87 376.00,422.48 376.00,422.48
             372.31,424.30 360.14,428.47 356.00,429.42
             356.00,429.42 333.00,438.09 333.00,438.09
             333.00,438.09 314.00,442.91 314.00,442.91
             314.00,442.91 272.00,454.23 272.00,454.23
             272.00,454.23 254.17,459.44 254.17,459.44
             240.85,461.63 227.38,460.86 213.96,460.78
             194.77,460.68 180.39,457.00 162.00,452.65
             162.00,452.65 135.00,446.23 135.00,446.23
             135.00,446.23 125.00,442.20 125.00,442.20
             125.00,442.20 103.18,434.20 103.18,434.20
             90.88,426.21 90.93,409.48 104.00,402.28
             109.02,399.51 113.66,400.33 119.00,401.00
             121.90,387.44 140.85,386.57 152.00,383.34
             158.92,381.33 159.94,380.14 168.00,379.00
             168.00,379.00 160.80,351.00 160.80,351.00
             160.80,351.00 156.22,339.00 156.22,339.00
             156.22,339.00 148.62,314.00 148.62,314.00
             148.62,314.00 144.76,305.00 144.76,305.00
             144.76,305.00 140.54,289.00 140.54,289.00
             140.54,289.00 136.17,276.00 136.17,276.00
             136.17,276.00 128.00,254.00 128.00,254.00
             123.42,256.90 120.54,258.76 115.00,258.00
             115.00,258.00 115.00,260.00 115.00,260.00
             115.00,260.00 113.00,260.00 113.00,260.00
             109.00,256.92 105.61,257.45 101.82,253.18
             92.69,242.92 99.03,233.35 103.83,223.00
             103.83,223.00 107.13,215.04 107.13,215.04
             107.13,215.04 111.15,207.91 111.15,207.91
             112.59,203.87 111.46,197.36 114.21,191.00
             118.32,181.50 123.03,181.36 127.21,174.00
             127.21,174.00 143.53,144.00 143.53,144.00
             143.53,144.00 148.94,136.00 148.94,136.00
             148.94,136.00 167.20,103.00 167.20,103.00
             167.20,103.00 175.69,88.00 175.69,88.00
             175.69,88.00 179.44,79.18 179.44,79.18
             182.50,74.12 190.17,70.54 196.00,70.57
             199.65,70.60 204.56,71.16 207.00,74.00
             213.83,74.05 216.85,78.53 221.18,83.09
             221.18,83.09 236.28,98.00 236.28,98.00
             236.28,98.00 249.49,109.28 249.49,109.28
             249.49,109.28 273.00,129.60 273.00,129.60
             276.44,132.33 280.99,138.29 285.00,139.24
             285.00,139.24 304.00,136.75 304.00,136.75
             320.61,136.07 325.79,141.71 331.46,156.00
             333.77,161.82 334.13,161.18 335.87,168.00
             336.87,171.91 339.48,184.11 341.56,186.68
             343.01,188.48 350.60,193.81 353.00,195.65
             353.00,195.65 385.00,217.90 385.00,217.90
             385.00,217.90 393.00,224.40 393.00,224.40
             404.93,233.43 416.95,243.66 430.00,251.00
             428.80,224.91 424.80,208.73 417.44,184.00
             414.83,175.23 412.77,166.39 408.95,158.00
             408.95,158.00 404.69,150.00 404.69,150.00
             404.69,150.00 397.07,135.09 397.07,135.09
             389.04,122.75 377.51,112.40 367.28,101.91
             356.03,90.36 350.82,85.99 338.00,76.41
             334.86,74.06 333.62,72.53 330.00,70.47
             319.31,64.38 304.09,60.59 292.00,58.57
             275.36,55.77 258.71,53.26 241.84,56.03
             233.69,57.37 225.87,60.22 218.00,62.56
             218.00,62.56 204.00,66.13 204.00,66.13
             186.39,70.53 165.67,75.58 149.00,82.45
             149.00,82.45 138.00,88.11 138.00,88.11
             128.72,92.50 119.37,96.70 111.00,102.75
             103.28,108.33 94.16,117.83 87.82,125.00
             84.35,128.92 80.98,131.57 77.90,136.00
             68.89,148.98 60.38,165.92 55.59,181.00
             55.59,181.00 52.71,193.00 52.71,193.00
             52.71,193.00 47.11,208.83 47.11,208.83
             45.52,215.37 45.95,224.24 46.00,231.00
             46.11,246.24 47.45,242.93 50.87,256.00
             54.26,268.97 55.63,276.16 60.45,289.00
             65.06,300.25 72.29,310.73 60.45,321.06
             56.50,324.27 53.84,324.97 49.00,324.99
             38.73,325.04 32.73,319.45 29.30,310.00
             21.08,287.39 10.50,258.11 9.79,234.00
             9.79,234.00 9.79,225.00 9.79,225.00
             10.04,220.73 8.71,212.95 12.00,210.00 Z
           M 202.00,116.00
           C 202.00,116.00 188.82,139.00 188.82,139.00
             188.82,139.00 174.00,166.00 174.00,166.00
             181.62,165.65 193.64,163.15 201.00,160.96
             201.00,160.96 212.00,157.71 212.00,157.71
             219.84,156.40 235.81,155.19 242.00,151.00
             242.00,151.00 202.00,116.00 202.00,116.00 Z
           M 281.00,188.00
           C 279.61,185.13 278.29,182.86 275.00,181.83
             270.85,180.52 258.84,184.79 255.00,187.00
             263.69,186.89 272.45,185.92 281.00,188.00 Z
           M 253.00,187.00
           C 253.00,187.00 252.00,187.00 252.00,187.00
             252.00,187.00 253.00,188.00 253.00,188.00
             253.00,188.00 253.00,187.00 253.00,187.00 Z
           M 249.00,188.00
           C 249.00,188.00 248.00,188.00 248.00,188.00
             248.00,188.00 249.00,189.00 249.00,189.00
             249.00,189.00 249.00,188.00 249.00,188.00 Z
           M 208.00,196.00
           C 208.00,196.00 207.00,196.00 207.00,196.00
             207.00,196.00 208.00,197.00 208.00,197.00
             208.00,197.00 208.00,196.00 208.00,196.00 Z
           M 207.00,197.00
           C 207.00,197.00 167.00,206.13 167.00,206.13
             163.80,206.93 154.72,208.66 153.12,211.50
             151.93,213.61 154.00,218.71 154.72,221.00
             156.49,226.71 162.77,244.99 166.00,249.00
             168.36,235.95 180.12,222.45 188.91,213.00
             188.91,213.00 195.09,206.21 195.09,206.21
             195.09,206.21 207.00,197.00 207.00,197.00 Z
           M 270.00,222.71
           C 270.00,222.71 250.00,223.46 250.00,223.46
             250.00,223.46 242.72,225.22 242.72,225.22
             242.72,225.22 234.00,225.22 234.00,225.22
             223.60,226.04 212.76,238.10 207.06,246.18
             200.88,254.95 196.26,270.30 196.01,281.00
             195.84,288.78 197.56,290.78 199.37,298.00
             200.33,301.79 202.12,311.67 204.53,314.21
             205.91,315.66 208.23,316.79 209.96,317.77
             220.62,323.78 228.03,324.14 240.00,324.00
             245.05,323.94 255.21,322.49 260.00,321.03
             260.00,321.03 269.00,317.89 269.00,317.89
             282.58,314.16 290.93,315.08 300.86,304.02
             302.32,302.39 304.71,299.71 305.74,297.83
             309.29,291.32 308.25,283.91 307.30,277.00
             307.30,277.00 306.70,267.00 306.70,267.00
             306.70,267.00 301.37,245.00 301.37,245.00
             299.84,238.88 298.66,230.89 293.53,226.70
             288.87,222.89 276.08,223.01 270.00,222.71 Z
           M 356.00,242.00
           C 356.00,242.00 355.00,242.00 355.00,242.00
             355.00,242.00 356.00,243.00 356.00,243.00
             356.00,243.00 356.00,242.00 356.00,242.00 Z
           M 357.00,243.00
           C 355.35,247.97 359.30,255.77 360.63,261.00
             360.63,261.00 372.74,306.00 372.74,306.00
             373.53,308.44 377.26,319.89 378.72,321.00
             379.95,321.93 381.58,321.86 383.02,321.66
             383.02,321.66 414.00,311.55 414.00,311.55
             416.69,310.52 422.70,309.21 424.42,307.44
             426.72,305.07 427.63,296.48 428.00,293.00
             428.00,293.00 412.00,282.60 412.00,282.60
             412.00,282.60 403.00,277.16 403.00,277.16
             403.00,277.16 393.00,269.59 393.00,269.59
             393.00,269.59 380.17,260.49 380.17,260.49
             380.17,260.49 357.00,243.00 357.00,243.00 Z
           M 94.44,262.69
           C 107.85,259.36 120.29,266.66 118.74,281.58
             117.98,288.90 115.73,289.73 112.17,295.16
             107.06,302.95 102.32,313.21 93.00,316.24
             80.87,320.18 67.83,311.08 69.17,298.00
             70.00,289.99 77.74,281.23 82.48,274.83
             87.27,268.37 86.35,266.20 94.44,262.69 Z
           M 338.00,317.00
           C 338.00,317.00 317.00,339.00 317.00,339.00
             317.00,339.00 343.00,332.00 343.00,332.00
             343.00,332.00 338.00,317.00 338.00,317.00 Z
           M 411.00,351.00
           C 411.00,351.00 381.00,360.00 381.00,360.00
             381.00,360.00 345.00,369.09 345.00,369.09
             345.00,369.09 337.00,371.83 337.00,371.83
             337.00,371.83 301.00,380.87 301.00,380.87
             301.00,380.87 289.00,384.61 289.00,384.61
             289.00,384.61 245.00,396.34 245.00,396.34
             245.00,396.34 208.00,405.69 208.00,405.69
             208.00,405.69 194.00,410.12 194.00,410.12
             194.00,410.12 169.00,417.00 169.00,417.00
             169.00,417.00 179.09,420.17 179.09,420.17
             179.09,420.17 188.00,421.44 188.00,421.44
             188.00,421.44 198.58,423.56 198.58,423.56
             198.58,423.56 220.00,425.00 220.00,425.00
             249.61,425.21 251.10,421.82 278.00,414.73
             278.00,414.73 303.00,408.61 303.00,408.61
             303.00,408.61 312.00,405.46 312.00,405.46
             312.00,405.46 325.00,402.09 325.00,402.09
             325.00,402.09 342.00,395.88 342.00,395.88
             342.00,395.88 361.00,389.25 361.00,389.25
             378.46,381.97 400.83,367.09 411.00,351.00 Z
           M 201.00,353.00
           C 201.00,353.00 203.00,369.00 203.00,369.00
             203.00,369.00 226.00,363.42 226.00,363.42
             226.00,363.42 237.00,360.00 237.00,360.00
             222.83,360.00 227.03,360.00 214.00,356.84
             207.94,355.37 207.17,355.70 201.00,353.00 Z" />
</svg>
