<?xml version="1.0" encoding="UTF-8" standalone="no"?>
<!DOCTYPE svg PUBLIC "-//W3C//DTD SVG 20010904//EN"
              "http://www.w3.org/TR/2001/REC-SVG-20010904/DTD/svg10.dtd">

<svg xmlns="http://www.w3.org/2000/svg"
     width="2in" height="2in"
     viewBox="0 0 600 600">
  <path id="yellow"
        fill="#ffd800" stroke="none" stroke-width="1"
        d="M 452.00,299.00
           C 446.63,296.99 442.22,287.95 439.19,283.08
             434.48,275.49 423.36,261.46 416.00,256.61
             413.31,254.84 412.05,254.64 409.44,253.38
             406.09,251.76 405.94,250.99 401.91,250.83
             391.29,250.40 384.94,252.79 375.00,254.54
             375.00,254.54 365.00,255.56 365.00,255.56
             365.00,255.56 358.00,258.62 358.00,258.62
             358.00,258.62 346.91,262.18 346.91,262.18
             346.91,262.18 307.04,272.68 307.04,272.68
             307.04,272.68 299.91,275.88 299.91,275.88
             299.91,275.88 291.09,278.09 291.09,278.09
             283.75,280.27 276.88,282.80 270.00,286.17
             270.00,286.17 257.72,293.02 257.72,293.02
             257.72,293.02 230.58,305.34 230.58,305.34
             230.58,305.34 220.04,307.84 220.04,307.84
             220.04,307.84 212.91,310.17 212.91,310.17
             201.83,312.99 194.25,313.71 183.00,314.44
             174.00,315.10 162.86,316.52 154.00,314.44
             144.21,312.06 137.96,308.10 129.96,302.28
             122.62,296.94 113.32,289.62 109.86,280.91
             109.86,280.91 107.97,274.00 107.97,274.00
             104.77,263.07 105.22,258.22 110.55,248.00
             112.48,244.30 114.80,240.98 117.80,238.07
             117.80,238.07 134.17,224.43 134.17,224.43
             138.87,221.92 146.89,220.69 152.00,219.31
             152.00,219.31 162.00,216.30 162.00,216.30
             167.79,215.40 167.21,216.34 175.00,214.41
             175.00,214.41 192.00,208.28 192.00,208.28
             192.00,208.28 201.91,205.87 201.91,205.87
             201.91,205.87 209.04,202.53 209.04,202.53
             209.04,202.53 216.83,200.54 216.83,200.54
             216.83,200.54 222.07,197.82 222.07,197.82
             222.07,197.82 233.91,192.45 233.91,192.45
             233.91,192.45 265.00,176.86 265.00,176.86
             265.00,176.86 311.28,164.51 311.28,164.51
             311.28,164.51 326.91,161.82 326.91,161.82
             326.91,161.82 333.09,159.68 333.09,159.68
             333.09,159.68 349.00,155.39 349.00,155.39
             349.00,155.39 359.91,152.91 359.91,152.91
             374.92,148.56 384.95,144.81 401.00,145.01
             401.00,145.01 418.00,146.00 418.00,146.00
             426.33,146.04 441.04,147.64 449.00,149.94
             449.00,149.94 459.00,154.19 459.00,154.19
             459.00,154.19 480.00,163.08 480.00,163.08
             480.00,163.08 511.91,183.80 511.91,183.80
             517.45,188.30 523.58,192.94 528.17,198.42
             528.17,198.42 539.32,214.57 539.32,214.57
             539.32,214.57 548.63,224.42 548.63,224.42
             548.63,224.42 560.23,240.72 560.23,240.72
             560.23,240.72 577.91,270.00 577.91,270.00
             577.91,270.00 584.44,294.00 584.44,294.00
             585.40,299.38 584.65,304.63 584.44,310.00
             584.44,310.00 585.00,326.00 585.00,326.00
             585.00,326.00 583.86,339.00 583.86,339.00
             583.45,356.12 585.69,362.57 581.15,380.00
             579.86,384.99 580.08,390.75 577.00,395.00
             578.45,397.05 578.86,397.16 577.00,399.00
             577.00,399.00 576.16,421.00 576.16,421.00
             576.16,421.00 574.82,441.00 574.82,441.00
             574.82,441.00 571.67,462.28 571.67,462.28
             571.67,462.28 570.00,474.00 570.00,474.00
             567.14,477.72 567.53,480.69 565.70,484.72
             565.70,484.72 556.86,501.00 556.86,501.00
             553.03,507.70 548.64,510.22 543.70,515.61
             543.70,515.61 537.87,522.23 537.87,522.23
             533.11,526.61 511.33,538.46 504.83,541.49
             504.83,541.49 498.00,544.18 498.00,544.18
             498.00,544.18 472.00,557.75 472.00,557.75
             472.00,557.75 458.09,561.13 458.09,561.13
             458.09,561.13 451.91,564.01 451.91,564.01
             451.91,564.01 420.00,572.86 420.00,572.86
             420.00,572.86 358.00,572.86 358.00,572.86
             358.00,572.86 346.00,574.37 346.00,574.37
             346.00,574.37 340.00,574.37 340.00,574.37
             340.00,574.37 335.17,575.03 335.17,575.03
             335.17,575.03 328.96,575.03 328.96,575.03
             323.53,575.26 320.98,577.56 316.00,574.01
             311.05,579.74 296.28,575.66 290.00,574.01
             276.75,570.58 264.27,563.46 257.02,551.41
             257.02,551.41 251.45,538.00 251.45,538.00
             247.83,530.11 244.30,521.85 244.05,513.01
             244.05,513.01 244.84,502.00 244.84,502.00
             245.76,490.97 245.04,486.05 249.74,475.17
             251.27,471.62 254.56,467.14 256.84,464.00
             256.84,464.00 262.04,456.23 262.04,456.23
             264.37,453.31 278.52,442.05 282.00,439.59
             282.00,439.59 309.42,421.62 309.42,421.62
             309.42,421.62 336.00,414.52 336.00,414.52
             336.00,414.52 359.00,408.34 359.00,408.34
             374.29,405.90 412.80,406.88 430.00,407.00
             430.00,407.00 453.00,408.29 453.00,408.29
             454.94,408.72 455.35,409.13 457.00,410.00
             457.00,410.00 462.40,398.00 462.40,398.00
             466.22,385.04 465.88,374.25 466.45,361.00
             466.45,361.00 465.37,338.01 465.37,338.01
             464.37,333.44 463.25,333.38 461.85,329.91
             461.85,329.91 457.53,316.00 457.53,316.00
             455.21,310.09 452.53,310.55 452.00,299.00 Z
           M 289.00,478.30
           C 282.79,479.51 278.39,481.54 274.70,487.00
             265.02,501.33 276.29,522.48 294.00,520.66
             313.48,518.66 321.06,493.30 304.96,481.65
             300.56,478.47 294.25,477.82 289.00,478.30 Z" />
    <path id="blue"
        fill="#007cff" stroke="none" stroke-width="1"
        d="M 8.00,179.00
           C 7.08,172.96 10.27,166.60 12.43,161.00
             16.02,151.70 17.37,151.51 21.68,143.91
             26.33,135.72 30.16,127.04 36.09,119.58
             36.09,119.58 42.89,112.12 42.89,112.12
             59.58,92.36 86.47,78.34 108.83,65.83
             108.83,65.83 117.17,60.31 117.17,60.31
             117.17,60.31 133.71,51.70 133.71,51.70
             133.71,51.70 143.04,46.10 143.04,46.10
             143.04,46.10 175.00,33.97 175.00,33.97
             175.00,33.97 189.83,30.62 189.83,30.62
             189.83,30.62 203.00,25.29 203.00,25.29
             215.47,21.17 247.94,15.09 261.00,15.00
             266.25,14.97 271.88,15.13 277.00,16.42
             277.00,16.42 283.00,17.88 283.00,17.88
             283.00,17.88 295.00,18.78 295.00,18.78
             301.50,19.72 330.24,27.13 336.00,29.59
             343.52,32.80 360.62,43.89 366.70,49.42
             366.70,49.42 373.18,56.30 373.18,56.30
             383.92,67.46 397.41,88.84 392.95,104.96
             390.67,113.20 384.28,114.56 381.00,120.00
             374.44,120.95 366.86,124.98 360.00,127.03
             360.00,127.03 331.00,134.29 331.00,134.29
             322.61,137.06 314.92,141.00 307.00,144.78
             307.00,144.78 291.28,151.76 291.28,151.76
             291.28,151.76 274.00,162.91 274.00,162.91
             261.36,170.05 249.47,175.55 236.00,180.88
             236.00,180.88 194.00,197.03 194.00,197.03
             194.00,197.03 184.09,199.18 184.09,199.18
             184.09,199.18 177.91,201.32 177.91,201.32
             177.91,201.32 167.00,203.69 167.00,203.69
             167.00,203.69 149.91,209.89 149.91,209.89
             149.91,209.89 128.00,218.28 128.00,218.28
             125.12,219.47 121.90,219.74 119.30,221.49
             119.30,221.49 113.25,226.99 113.25,226.99
             113.25,226.99 107.63,231.47 107.63,231.47
             104.55,234.73 100.01,242.52 99.15,247.00
             99.15,247.00 98.00,268.00 98.00,268.00
             100.45,270.11 100.74,273.09 102.10,276.00
             104.50,281.14 107.06,286.30 110.51,290.83
             110.51,290.83 125.37,309.27 125.37,309.27
             129.12,312.41 133.82,314.16 138.00,316.59
             138.00,316.59 157.09,327.32 157.09,327.32
             162.07,329.56 163.96,328.50 169.00,328.23
             169.00,328.23 194.00,326.65 194.00,326.65
             199.70,326.80 199.18,325.71 203.72,325.27
             203.72,325.27 221.00,324.34 221.00,324.34
             228.36,322.85 235.13,320.12 242.00,317.25
             242.00,317.25 252.00,314.20 252.00,314.20
             252.00,314.20 297.00,289.89 297.00,289.89
             297.00,289.89 303.72,287.17 303.72,287.17
             303.72,287.17 320.00,277.77 320.00,277.77
             320.00,277.77 336.83,270.56 336.83,270.56
             341.44,268.52 342.92,265.33 353.00,263.43
             367.81,260.63 384.15,261.47 396.71,270.70
             400.08,273.17 405.17,278.45 408.12,281.61
             415.32,289.33 420.55,295.96 419.91,307.00
             419.54,313.32 417.93,317.74 413.19,322.07
             411.25,323.85 407.44,326.03 406.31,327.79
             405.01,329.80 405.65,332.18 401.70,336.83
             398.08,341.09 395.26,342.56 391.00,345.69
             372.87,358.98 373.43,355.82 356.17,364.81
             356.17,364.81 346.20,371.46 346.20,371.46
             346.20,371.46 332.42,379.29 332.42,379.29
             332.42,379.29 318.00,388.47 318.00,388.47
             318.00,388.47 296.09,399.29 296.09,399.29
             296.09,399.29 283.83,406.40 283.83,406.40
             283.83,406.40 277.17,408.45 277.17,408.45
             277.17,408.45 261.83,415.02 261.83,415.02
             261.83,415.02 254.00,416.97 254.00,416.97
             236.47,422.20 219.43,425.86 201.00,426.19
             201.00,426.19 188.00,426.19 188.00,426.19
             188.00,426.19 179.00,426.19 179.00,426.19
             179.00,426.19 166.04,427.95 166.04,427.95
             159.72,427.99 159.32,426.95 154.17,426.01
             154.17,426.01 142.00,424.07 142.00,424.07
             142.00,424.07 133.00,420.93 133.00,420.93
             129.99,420.10 128.03,420.12 125.00,418.79
             120.22,416.69 119.58,414.90 115.87,412.48
             94.73,398.71 90.42,394.18 73.45,375.20
             73.45,375.20 46.72,345.00 46.72,345.00
             46.72,345.00 33.31,322.00 33.31,322.00
             33.31,322.00 28.17,313.00 28.17,313.00
             28.17,313.00 11.30,275.00 11.30,275.00
             11.30,275.00 7.91,261.09 7.91,261.09
             7.91,261.09 2.24,240.83 2.24,240.83
             2.24,240.83 1.27,218.00 1.27,218.00
             0.61,206.19 1.42,201.35 4.16,190.00
             5.06,186.27 4.97,181.61 8.00,179.00 Z
           M 236.00,73.33
           C 228.35,74.49 222.09,77.62 218.57,85.00
             211.45,99.92 223.34,117.69 240.00,115.81
             259.83,113.58 266.04,87.76 249.71,76.61
             245.92,74.02 240.50,73.22 236.00,73.33 Z" />
      <path id="black"
        fill="black" stroke="none" stroke-width="1"
        d="M 237.00,114.00
           C 230.28,110.30 225.74,111.25 221.30,103.00
             214.38,90.15 224.69,75.30 239.00,76.21
             252.48,77.07 260.93,92.39 253.53,104.00
             248.54,111.83 244.50,110.76 237.00,114.00 Z
           M 288.00,481.48
           C 292.28,480.87 296.98,480.92 300.96,482.90
             317.31,491.00 312.30,519.16 290.00,517.21
             270.74,515.53 267.63,487.20 288.00,481.48 Z" />
</svg>
