<?xml version="1.0" encoding="UTF-8" standalone="no"?>
<!DOCTYPE svg PUBLIC "-//W3C//DTD SVG 20010904//EN"
              "http://www.w3.org/TR/2001/REC-SVG-20010904/DTD/svg10.dtd">

<svg xmlns="http://www.w3.org/2000/svg"
     width="1.66667in" height="1.66667in"
     viewBox="0 0 500 500">
  <path id="green"
        fill="#008320" stroke="none" stroke-width="1"
        d="M 385.00,108.00
           C 385.47,106.67 385.38,106.09 386.57,105.00
             389.20,102.60 402.16,99.04 405.86,100.60
             407.90,101.45 408.04,102.29 409.00,104.00
             417.44,101.81 425.39,106.11 431.55,111.66
             443.44,122.36 445.47,128.45 452.95,141.98
             456.24,147.94 460.12,153.12 461.00,160.00
             461.00,160.00 464.00,160.00 464.00,160.00
             465.74,167.73 474.50,180.02 479.11,187.00
             479.11,187.00 489.05,205.17 489.05,205.17
             489.05,205.17 491.62,215.99 491.62,215.99
             492.81,221.15 495.48,226.37 493.42,231.91
             491.30,237.59 482.97,239.64 478.00,242.32
             478.00,242.32 462.92,251.58 462.92,251.58
             462.92,251.58 441.00,261.37 441.00,261.37
             429.12,266.15 400.48,279.14 390.00,285.41
             390.00,285.41 379.92,292.57 379.92,292.57
             379.92,292.57 369.85,299.39 369.85,299.39
             365.56,302.92 365.95,303.22 362.63,306.73
             362.63,306.73 353.88,315.42 353.88,315.42
             353.88,315.42 339.08,332.25 339.08,332.25
             339.08,332.25 321.18,350.95 321.18,350.95
             321.18,350.95 312.21,358.21 312.21,358.21
             308.36,362.00 304.28,367.77 298.02,366.48
             294.17,365.69 291.35,361.08 291.64,357.28
             291.64,357.28 293.00,352.00 293.00,352.00
             285.97,351.78 286.16,350.40 281.00,349.92
             281.00,349.92 263.00,349.92 263.00,349.92
             263.00,349.92 254.00,349.14 254.00,349.14
             254.00,349.14 246.00,349.14 246.00,349.14
             246.00,349.14 233.00,348.00 233.00,348.00
             227.08,347.94 213.77,348.84 208.00,349.89
             204.18,350.42 198.17,352.21 195.00,349.89
             195.00,349.89 191.99,351.68 191.99,351.68
             191.99,351.68 172.18,351.68 172.18,351.68
             172.18,351.68 169.00,350.00 169.00,350.00
             167.53,351.67 167.47,351.67 166.00,350.00
             166.00,350.00 164.00,350.00 164.00,350.00
             162.16,351.86 162.05,351.45 160.00,350.00
             157.56,351.70 156.44,351.70 154.00,350.00
             151.41,352.94 146.36,351.75 142.72,351.92
             142.72,351.92 112.00,351.92 112.00,351.92
             108.82,351.98 107.20,352.46 105.00,350.00
             99.66,350.56 86.36,349.33 83.00,345.00
             76.53,345.30 61.94,339.26 56.00,336.10
             56.00,336.10 34.00,324.51 34.00,324.51
             31.51,323.13 27.26,321.64 25.56,319.70
             22.58,316.30 19.42,305.62 18.39,301.00
             16.26,291.51 13.31,280.67 13.19,270.92
             13.11,263.90 13.43,256.68 11.00,250.00
             11.00,250.00 11.00,245.00 11.00,245.00
             14.74,237.90 11.39,236.04 15.56,230.44
             18.75,226.15 31.04,219.04 36.09,216.20
             36.09,216.20 68.17,197.37 68.17,197.37
             68.17,197.37 80.91,193.99 80.91,193.99
             85.54,192.22 86.75,188.84 91.09,186.33
             98.27,182.19 111.83,177.27 120.00,175.45
             120.00,175.45 133.27,174.09 133.27,174.09
             160.20,171.12 171.48,172.69 196.87,181.27
             196.87,181.27 214.00,187.34 214.00,187.34
             214.00,187.34 247.00,205.00 247.00,205.00
             247.00,205.00 250.97,190.00 250.97,190.00
             254.33,179.86 258.70,170.91 264.61,162.00
             279.02,140.24 293.70,132.95 316.96,124.00
             316.96,124.00 322.28,121.42 322.28,121.42
             327.08,119.49 334.86,117.70 340.00,116.58
             352.03,113.95 364.13,111.55 376.00,116.00
             377.53,110.88 379.72,108.85 385.00,108.00 Z
           M 425.00,167.00
           C 422.36,160.56 418.37,159.25 413.74,154.39
             403.47,143.59 397.33,140.65 384.00,135.09
             381.03,133.85 378.16,132.25 375.00,131.53
             361.34,128.39 339.73,130.73 327.00,136.51
             313.57,142.61 303.76,144.98 292.04,155.08
             279.72,165.70 272.55,176.82 267.31,192.00
             266.24,195.09 265.08,197.73 264.47,201.00
             263.17,207.90 263.46,215.07 263.91,222.00
             264.21,226.57 263.64,229.17 264.67,234.00
             266.95,244.76 270.50,250.66 275.79,260.00
             280.71,268.69 288.47,285.21 296.00,291.00
             296.00,291.00 304.30,278.00 304.30,278.00
             304.30,278.00 326.98,248.00 326.98,248.00
             326.98,248.00 336.18,235.01 336.18,235.01
             336.18,235.01 344.96,226.92 344.96,226.92
             344.96,226.92 358.00,214.29 358.00,214.29
             358.00,214.29 369.00,205.68 369.00,205.68
             369.00,205.68 398.00,181.68 398.00,181.68
             398.00,181.68 425.00,167.00 425.00,167.00 Z
           M 272.00,288.00
           C 269.94,280.80 267.17,279.19 264.22,273.00
             264.22,273.00 258.45,260.00 258.45,260.00
             258.45,260.00 239.04,230.58 239.04,230.58
             239.04,230.58 233.36,220.29 233.36,220.29
             232.31,217.47 233.30,216.01 230.44,213.36
             227.74,210.87 225.08,210.43 222.00,208.92
             222.00,208.92 214.00,204.56 214.00,204.56
             214.00,204.56 202.00,199.80 202.00,199.80
             187.29,194.02 164.84,187.24 149.00,188.10
             149.00,188.10 134.00,190.10 134.00,190.10
             119.46,191.73 121.91,190.14 108.00,196.09
             103.43,198.05 101.06,198.89 97.04,202.12
             82.34,213.92 72.68,229.88 65.28,247.00
             65.28,247.00 58.62,262.00 58.62,262.00
             57.83,266.81 60.83,273.22 61.61,278.00
             62.27,282.01 60.79,286.08 60.00,290.00
             72.96,291.40 79.68,289.11 92.00,287.30
             92.00,287.30 107.00,285.16 107.00,285.16
             107.00,285.16 116.00,284.60 116.00,284.60
             116.00,284.60 122.00,283.32 122.00,283.32
             122.00,283.32 157.00,279.00 157.00,279.00
             157.00,279.00 163.00,279.00 163.00,279.00
             163.00,279.00 173.00,278.05 173.00,278.05
             173.00,278.05 187.00,278.05 187.00,278.05
             187.00,278.05 209.00,280.00 209.00,280.00
             209.00,280.00 235.00,281.17 235.00,281.17
             235.00,281.17 257.00,285.55 257.00,285.55
             257.00,285.55 272.00,288.00 272.00,288.00 Z" />
    <path id="white"
        fill="white" stroke="none" stroke-width="1"
        d="M 295.00,291.00
           C 288.77,283.84 284.32,275.26 279.77,267.00
             279.77,267.00 267.97,245.00 267.97,245.00
             264.17,233.85 264.62,233.10 263.71,222.00
             263.71,222.00 263.71,215.00 263.71,215.00
             263.71,215.00 264.30,202.00 264.30,202.00
             266.07,190.00 274.43,174.13 282.28,165.00
             296.14,148.90 304.43,146.16 323.00,138.41
             339.18,131.65 350.42,129.07 368.00,130.83
             368.00,130.83 375.00,131.53 375.00,131.53
             375.00,131.53 397.00,140.80 397.00,140.80
             397.00,140.80 405.00,146.58 405.00,146.58
             410.19,150.38 422.35,161.46 425.00,167.00
             425.00,167.00 399.00,181.04 399.00,181.04
             399.00,181.04 369.28,205.24 369.28,205.24
             369.28,205.24 359.00,213.18 359.00,213.18
             359.00,213.18 345.05,226.68 345.05,226.68
             345.05,226.68 336.18,235.01 336.18,235.01
             336.18,235.01 305.04,277.00 305.04,277.00
             305.04,277.00 295.00,291.00 295.00,291.00 Z
           M 332.01,139.66
           C 329.84,140.80 329.25,140.89 327.72,143.06
             327.72,143.06 320.40,164.00 320.40,164.00
             318.72,168.07 316.90,172.44 312.00,173.15
             299.33,174.96 288.98,166.67 279.99,181.00
             275.55,188.08 273.15,198.70 274.29,207.00
             274.83,210.94 276.59,216.43 281.86,214.38
             286.60,212.54 284.49,205.76 284.46,202.00
             284.42,198.36 287.45,189.02 289.70,186.22
             295.00,179.62 306.48,183.10 314.00,183.00
             316.46,182.96 318.72,182.99 320.99,181.83
             328.65,177.89 333.33,162.03 335.21,154.00
             336.40,148.92 341.60,139.00 332.01,139.66 Z
           M 344.00,201.00
           C 347.62,201.29 351.38,202.27 355.00,201.67
             361.47,200.59 370.81,193.04 373.11,187.00
             373.96,184.77 373.97,182.35 374.00,180.00
             374.05,175.30 373.60,158.82 365.14,161.66
             362.06,162.69 361.94,166.30 362.18,169.00
             362.18,169.00 363.80,179.00 363.80,179.00
             363.53,186.15 355.54,191.35 349.00,191.91
             345.18,192.23 340.47,191.32 337.22,193.74
             333.50,196.50 333.78,201.10 330.35,206.00
             324.19,214.82 314.67,219.23 311.61,232.00
             309.71,239.95 316.32,241.10 319.59,238.40
             319.59,238.40 326.79,226.00 326.79,226.00
             333.85,216.13 341.91,214.33 344.00,201.00 Z
           M 60.00,290.00
           C 60.79,286.08 62.27,282.01 61.61,278.00
             60.83,273.22 57.83,266.81 58.62,262.00
             58.62,262.00 65.28,247.00 65.28,247.00
             72.68,229.88 82.34,213.92 97.04,202.12
             101.06,198.89 103.43,198.05 108.00,196.09
             121.91,190.14 119.46,191.73 134.00,190.10
             139.76,189.46 146.22,187.87 152.00,188.10
             169.32,188.78 185.97,193.50 202.00,199.80
             202.00,199.80 214.00,204.56 214.00,204.56
             214.00,204.56 222.00,208.92 222.00,208.92
             225.11,210.45 227.70,210.84 230.44,213.36
             233.25,215.94 232.31,217.27 233.37,220.17
             233.37,220.17 239.04,230.58 239.04,230.58
             239.04,230.58 258.45,260.00 258.45,260.00
             258.45,260.00 264.22,273.00 264.22,273.00
             267.17,279.19 269.94,280.80 272.00,288.00
             272.00,288.00 257.00,285.55 257.00,285.55
             257.00,285.55 235.00,281.17 235.00,281.17
             235.00,281.17 211.00,280.00 211.00,280.00
             211.00,280.00 185.00,278.04 185.00,278.04
             185.00,278.04 173.00,278.04 173.00,278.04
             173.00,278.04 163.00,279.00 163.00,279.00
             163.00,279.00 158.00,279.00 158.00,279.00
             158.00,279.00 122.00,283.32 122.00,283.32
             122.00,283.32 116.00,284.60 116.00,284.60
             116.00,284.60 107.00,285.16 107.00,285.16
             107.00,285.16 92.00,287.30 92.00,287.30
             79.68,289.11 72.96,291.40 60.00,290.00 Z
           M 183.00,209.30
           C 171.19,211.53 152.79,218.66 142.00,217.91
             131.34,217.17 127.76,213.20 119.00,210.78
             115.34,209.77 110.82,209.96 107.00,210.00
             103.69,210.04 101.20,210.19 98.00,211.22
             87.70,214.55 83.25,223.70 88.31,226.97
             92.67,229.80 95.98,224.80 99.09,222.72
             102.09,220.71 106.43,219.95 110.00,220.06
             115.48,220.23 121.74,223.71 127.00,225.56
             132.45,227.48 138.27,227.99 144.00,228.00
             156.91,228.02 165.52,224.74 178.00,221.63
             178.00,221.63 188.00,219.19 188.00,219.19
             192.15,218.74 208.32,222.91 213.00,224.34
             216.03,225.27 220.77,227.09 222.97,223.69
             226.39,218.39 219.96,215.21 216.00,214.00
             205.40,210.78 194.10,208.20 183.00,209.30 Z
           M 205.00,235.39
           C 200.57,236.71 190.85,242.06 187.00,244.79
             184.41,246.62 181.15,250.17 178.00,250.48
             174.59,250.80 162.26,243.72 158.00,242.06
             143.72,236.50 139.02,236.20 124.00,237.95
             119.40,238.49 106.46,240.93 108.66,247.98
             111.00,255.44 120.37,249.00 127.00,247.98
             139.59,246.12 146.70,248.64 158.00,254.25
             165.44,257.94 176.43,264.22 185.00,259.98
             185.00,259.98 193.00,253.79 193.00,253.79
             193.00,253.79 205.00,247.02 205.00,247.02
             207.60,245.58 211.39,244.02 212.34,240.95
             213.98,235.68 208.67,235.02 205.00,235.39 Z" />
    <path id="black"
        fill="black" stroke="none" stroke-width="1"
        d="M 332.04,139.88
           C 334.96,139.91 337.15,140.48 337.43,144.02
             337.57,145.88 336.07,149.07 335.51,151.00
             335.51,151.00 330.55,167.00 330.55,167.00
             328.43,172.22 324.50,180.14 319.00,182.15
             314.11,184.15 306.15,182.24 301.00,182.15
             292.32,181.70 290.05,183.09 286.73,191.00
             285.50,193.92 284.46,196.81 284.29,200.00
             283.81,204.51 285.52,207.93 284.29,210.94
             283.06,214.46 279.22,215.67 276.59,212.68
             275.02,210.89 274.37,206.37 274.17,204.00
             273.51,196.30 278.43,181.63 284.30,176.56
             289.45,172.09 296.65,172.93 303.00,173.00
             308.89,173.07 314.07,175.47 318.30,169.89
             322.95,163.76 325.66,146.58 328.01,143.11
             329.46,140.95 329.92,140.97 332.04,139.88 Z
           M 364.31,162.04
           C 369.53,160.49 371.02,163.38 372.17,168.00
             374.06,173.90 375.27,182.49 372.17,188.00
             368.93,193.14 361.02,200.17 355.00,201.46
             350.21,202.48 347.47,200.14 344.49,202.61
             342.53,204.25 341.64,208.14 338.61,212.00
             334.45,217.31 328.91,221.16 325.27,227.00
             323.12,230.45 320.99,238.14 316.96,239.04
             315.70,239.32 314.46,239.03 313.44,238.22
             309.94,235.43 312.72,230.10 314.27,227.00
             321.41,212.70 326.23,213.63 331.30,206.00
             334.25,201.55 333.67,196.75 338.11,193.60
             341.41,191.25 346.15,192.24 350.00,191.91
             354.76,191.50 359.53,188.89 362.28,184.91
             368.19,176.33 358.27,168.48 364.31,162.04 Z
           M 185.00,209.44
           C 192.74,208.52 208.32,212.09 216.00,214.44
             219.24,215.43 225.68,218.09 222.93,222.69
             220.93,226.06 215.95,224.50 213.00,223.71
             206.62,221.98 194.24,218.77 188.00,219.04
             176.78,219.53 160.66,228.19 144.00,228.00
             137.75,227.93 131.85,226.77 126.00,224.58
             121.78,222.99 114.25,219.44 110.00,219.35
             106.59,219.28 100.95,220.72 98.17,222.69
             95.76,224.41 93.43,228.06 90.05,227.26
             84.70,225.98 86.94,219.98 89.39,217.18
             94.02,211.91 101.26,210.17 108.00,210.01
             126.36,209.60 125.90,218.97 148.00,218.13
             148.00,218.13 185.00,209.44 185.00,209.44 Z
           M 205.00,235.65
           C 208.62,235.03 214.04,235.63 212.34,240.90
             211.39,243.88 207.54,245.14 205.00,246.48
             201.58,248.29 195.91,251.17 193.00,253.37
             189.04,256.37 186.21,259.90 181.00,260.78
             172.66,262.18 167.07,257.67 160.00,254.26
             151.91,250.35 143.08,246.81 134.00,247.01
             123.64,247.25 117.43,250.29 115.00,250.57
             112.72,250.83 110.47,250.27 109.66,247.86
             107.36,241.09 120.57,238.46 125.00,238.09
             138.64,236.93 142.67,236.17 156.00,241.87
             160.34,243.73 174.52,251.78 178.00,251.36
             181.38,250.95 185.16,246.81 188.00,244.79
             191.00,242.65 201.54,237.01 205.00,235.65 Z" />
</svg>
