<?xml version="1.0" encoding="UTF-8" standalone="no"?>
<!DOCTYPE svg PUBLIC "-//W3C//DTD SVG 20010904//EN"
              "http://www.w3.org/TR/2001/REC-SVG-20010904/DTD/svg10.dtd">

<svg xmlns="http://www.w3.org/2000/svg"
     width="1.66667in" height="1.66667in"
     viewBox="0 0 150 150">
  <path id="Selection"
        fill="black" stroke="none" stroke-width="1"
        d="M 10.00,72.00
           C -0.95,68.35 -0.02,58.78 0.21,49.00
             0.00,47.08 -0.08,43.81 0.21,42.04
             3.00,33.11 18.97,34.07 22.00,32.99
             22.00,32.99 36.73,23.87 36.73,23.87
             41.64,19.97 38.44,14.14 46.02,10.43
             52.92,7.04 63.31,6.13 66.00,15.00
             68.55,13.53 70.96,11.90 73.91,11.41
             80.80,10.26 88.46,15.62 95.00,16.91
             100.13,17.94 104.17,14.66 110.00,16.91
             118.69,20.21 124.15,35.89 120.00,44.00
             125.59,49.32 130.90,66.19 132.00,74.00
             149.78,64.20 152.38,91.96 148.83,99.00
             147.33,101.96 139.00,109.61 135.91,111.00
             133.24,112.19 130.90,111.84 128.37,113.73
             128.37,113.73 113.50,127.17 113.50,127.17
             111.26,129.97 111.14,132.87 107.87,134.84
             106.09,135.91 101.29,136.79 99.00,137.42
             94.39,138.69 84.38,141.95 80.00,141.44
             74.03,140.75 71.90,137.49 68.83,136.71
             68.83,136.71 54.00,136.00 54.00,136.00
             49.41,151.32 25.92,140.51 22.43,132.99
             18.88,125.31 25.97,122.47 21.00,111.00
             8.47,113.46 8.37,105.72 5.71,98.00
             4.14,93.46 2.18,90.08 3.42,85.00
             4.68,79.80 7.68,79.41 10.00,72.00 Z
           M 26.09,60.00
           C 26.09,60.00 26.09,75.00 26.09,75.00
             27.42,85.31 32.81,98.55 39.26,106.56
             42.35,110.41 45.35,114.56 50.01,116.61
             62.22,121.99 83.57,116.82 96.00,113.29
             102.19,111.53 107.90,110.65 112.43,105.54
             115.81,101.73 117.87,90.05 117.32,85.00
             117.32,85.00 114.87,75.00 114.87,75.00
             110.23,56.45 110.06,57.77 97.88,43.05
             92.94,37.08 87.31,30.89 79.00,30.30
             74.18,29.95 51.55,35.22 47.00,37.40
             44.04,38.82 39.72,42.00 37.00,44.01
             32.51,47.34 26.04,52.79 28.00,59.00
             30.79,53.85 31.46,54.39 35.85,51.04
             44.43,44.49 43.73,45.09 54.00,42.53
             59.08,41.25 69.20,37.85 74.00,38.34
             85.91,39.56 90.96,47.52 94.00,58.00
             94.66,60.29 95.68,63.66 95.74,66.00
             95.85,71.33 91.98,75.33 90.00,80.00
             94.96,81.97 104.22,84.77 107.26,89.13
             111.62,95.37 105.49,102.15 100.58,101.94
             97.54,101.80 90.78,98.48 88.00,97.00
             88.00,97.00 70.00,87.14 70.00,87.14
             66.41,84.76 62.93,82.12 63.63,77.28
             64.55,70.95 72.93,67.43 78.00,65.00
             77.38,61.30 76.63,58.08 72.95,56.19
             66.85,53.06 52.65,59.84 48.00,64.00
             48.00,64.00 60.80,94.00 60.80,94.00
             61.73,96.70 64.50,102.77 63.83,105.28
             61.87,112.62 52.34,113.79 48.13,107.81
             45.25,103.72 42.57,93.05 40.41,88.00
             36.66,79.21 30.02,69.09 28.00,60.00
             28.00,60.00 26.09,60.00 26.09,60.00 Z" />
</svg>
