<?xml version="1.0" encoding="UTF-8" standalone="no"?>
<!DOCTYPE svg PUBLIC "-//W3C//DTD SVG 20010904//EN"
              "http://www.w3.org/TR/2001/REC-SVG-20010904/DTD/svg10.dtd">

<svg xmlns="http://www.w3.org/2000/svg"
     width="2in" height="2in"
     viewBox="0 0 600 600">
  <path id="blue"
        fill="#00b2ff" stroke="none" stroke-width="1"
        d="M 157.00,55.00
           C 162.12,57.67 172.87,55.01 179.00,54.46
             179.00,54.46 234.91,48.49 234.91,48.49
             234.91,48.49 252.27,47.08 252.27,47.08
             252.27,47.08 260.91,44.59 260.91,44.59
             260.91,44.59 267.08,43.80 267.08,43.80
             267.08,43.80 280.00,40.67 280.00,40.67
             280.00,40.67 288.00,39.54 288.00,39.54
             288.00,39.54 312.71,34.40 312.71,34.40
             312.71,34.40 354.00,31.12 354.00,31.12
             354.00,31.12 390.01,27.94 390.01,27.94
             390.01,27.94 412.00,25.80 412.00,25.80
             412.00,25.80 419.00,24.17 419.00,24.17
             426.10,22.88 432.87,22.95 440.00,22.79
             442.99,22.91 444.77,22.22 447.83,22.79
             454.28,23.55 468.73,30.13 475.09,33.14
             475.09,33.14 489.63,41.40 489.63,41.40
             496.74,47.72 499.47,55.03 502.75,58.91
             502.75,58.91 507.79,64.11 507.79,64.11
             507.79,64.11 527.97,93.28 527.97,93.28
             527.97,93.28 532.05,101.83 532.05,101.83
             538.07,112.38 544.19,122.61 548.68,134.00
             548.68,134.00 550.83,140.91 550.83,140.91
             550.83,140.91 554.85,151.72 554.85,151.72
             554.85,151.72 558.69,159.00 558.69,159.00
             558.69,159.00 564.57,173.00 564.57,173.00
             564.57,173.00 571.89,187.00 571.89,187.00
             571.89,187.00 575.96,202.00 575.96,202.00
             575.96,202.00 579.95,211.17 579.95,211.17
             583.86,223.26 585.83,235.82 588.00,248.28
             588.00,248.28 590.71,260.00 590.71,260.00
             590.71,260.00 594.09,297.00 594.09,297.00
             594.09,297.00 595.93,318.83 595.93,318.83
             595.93,318.83 595.93,330.00 595.93,330.00
             595.93,330.00 595.24,340.00 595.24,340.00
             595.68,347.34 595.71,348.67 595.24,356.01
             595.24,356.01 598.85,392.72 598.85,392.72
             598.85,392.72 597.25,407.00 597.25,407.00
             597.25,407.00 597.25,414.00 597.25,414.00
             597.10,422.28 591.98,452.70 589.17,460.00
             585.01,470.81 577.44,484.84 570.31,493.91
             570.31,493.91 564.84,500.09 564.84,500.09
             557.92,508.69 561.35,506.99 550.41,515.56
             547.67,517.70 546.20,517.61 543.44,519.18
             543.44,519.18 526.56,529.36 526.56,529.36
             526.56,529.36 517.00,533.05 517.00,533.05
             517.00,533.05 509.72,537.74 509.72,537.74
             509.72,537.74 500.00,542.17 500.00,542.17
             500.00,542.17 487.91,548.92 487.91,548.92
             482.04,551.69 458.79,558.58 452.00,560.11
             452.00,560.11 436.00,562.27 436.00,562.27
             436.00,562.27 425.00,564.46 425.00,564.46
             425.00,564.46 411.00,566.20 411.00,566.20
             411.00,566.20 400.00,568.32 400.00,568.32
             400.00,568.32 393.00,568.32 393.00,568.32
             393.00,568.32 385.00,569.83 385.00,569.83
             375.41,570.96 365.63,571.52 356.00,571.09
             343.76,570.54 314.78,576.97 302.00,579.75
             302.00,579.75 281.00,583.05 281.00,583.05
             281.00,583.05 272.00,584.84 272.00,584.84
             263.58,585.95 259.00,585.45 251.00,589.00
             242.13,585.20 233.12,589.07 227.00,588.28
             227.00,588.28 214.00,585.32 214.00,585.32
             196.95,582.48 201.83,585.25 185.00,577.22
             181.08,575.35 178.88,574.83 175.04,572.10
             166.88,566.29 156.02,553.54 150.52,545.13
             145.77,537.87 140.56,534.96 140.00,525.00
             138.35,524.42 137.79,524.43 136.56,522.98
             136.56,522.98 126.43,502.04 126.43,502.04
             126.43,502.04 120.04,485.09 120.04,485.09
             120.04,485.09 113.45,469.91 113.45,469.91
             113.45,469.91 109.13,452.00 109.13,452.00
             109.13,452.00 104.13,435.00 104.13,435.00
             104.13,435.00 99.70,417.04 99.70,417.04
             99.70,417.04 98.23,407.00 98.23,407.00
             98.23,407.00 89.79,384.00 89.79,384.00
             89.79,384.00 83.71,364.00 83.71,364.00
             83.71,364.00 78.50,350.91 78.50,350.91
             78.50,350.91 70.96,324.00 70.96,324.00
             70.96,324.00 56.05,280.00 56.05,280.00
             56.05,280.00 49.66,264.00 49.66,264.00
             49.66,264.00 47.00,255.09 47.00,255.09
             47.00,255.09 44.25,249.83 44.25,249.83
             44.25,249.83 40.77,240.83 40.77,240.83
             40.77,240.83 35.19,224.09 35.19,224.09
             35.19,224.09 32.24,217.91 32.24,217.91
             32.24,217.91 25.04,194.00 25.04,194.00
             25.04,194.00 18.82,176.00 18.82,176.00
             18.82,176.00 16.41,167.00 16.41,167.00
             16.41,167.00 7.54,146.00 7.54,146.00
             7.54,146.00 5.00,137.00 5.00,137.00
             2.28,129.34 -2.75,121.67 1.30,113.00
             3.83,107.58 8.22,104.00 14.00,102.81
             17.16,102.16 22.14,102.30 24.47,100.40
             25.98,99.17 27.38,96.61 28.61,95.01
             28.61,95.01 35.25,87.83 35.25,87.83
             40.00,81.66 42.57,75.40 50.44,71.64
             50.44,71.64 66.00,67.49 66.00,67.49
             66.00,67.49 82.00,62.67 82.00,62.67
             82.00,62.67 123.00,58.14 123.00,58.14
             132.75,57.60 148.35,58.65 157.00,55.00 Z
           M 213.00,225.00
           C 193.58,231.74 183.14,243.22 170.72,249.32
             170.72,249.32 148.44,258.60 148.44,258.60
             148.44,258.60 136.91,264.57 136.91,264.57
             133.50,266.34 128.88,267.87 126.05,270.26
             118.75,276.45 119.01,290.03 125.34,296.79
             132.56,304.50 145.36,302.44 153.96,298.24
             153.96,298.24 159.25,294.88 159.25,294.88
             159.25,294.88 166.09,291.52 166.09,291.52
             171.57,288.77 172.41,289.53 175.83,288.16
             175.83,288.16 192.00,280.33 192.00,280.33
             192.00,280.33 219.00,263.01 219.00,263.01
             225.83,259.50 246.17,250.80 251.00,246.80
             261.50,238.12 273.39,226.40 264.61,212.04
             261.46,206.89 255.92,204.93 251.00,201.94
             232.52,190.68 227.70,190.39 209.00,182.87
             209.00,182.87 201.00,178.92 201.00,178.92
             201.00,178.92 179.42,171.28 179.42,171.28
             179.42,171.28 169.00,166.28 169.00,166.28
             169.00,166.28 139.00,152.74 139.00,152.74
             139.00,152.74 128.00,146.27 128.00,146.27
             128.00,146.27 105.00,134.66 105.00,134.66
             105.00,134.66 87.00,122.66 87.00,122.66
             78.39,117.64 71.37,114.22 62.04,119.97
             57.86,122.55 55.21,126.29 53.80,131.00
             51.56,138.49 55.48,146.43 61.37,151.14
             61.37,151.14 72.97,158.34 72.97,158.34
             72.97,158.34 86.00,167.13 86.00,167.13
             86.00,167.13 108.00,178.27 108.00,178.27
             108.00,178.27 117.00,183.60 117.00,183.60
             117.00,183.60 132.00,190.49 132.00,190.49
             132.00,190.49 163.00,204.94 163.00,204.94
             163.00,204.94 179.00,210.42 179.00,210.42
             179.00,210.42 213.00,225.00 213.00,225.00 Z
           M 263.00,422.00
           C 258.82,419.34 251.93,420.21 247.00,419.92
             247.00,419.92 220.00,417.04 220.00,417.04
             202.83,417.73 194.87,434.74 204.12,447.06
             206.20,449.84 209.86,452.01 212.99,453.46
             216.28,454.99 227.58,455.81 231.92,456.35
             249.91,458.61 270.75,458.21 289.00,458.00
             289.00,458.00 329.96,453.81 329.96,453.81
             329.96,453.81 345.00,451.16 345.00,451.16
             345.00,451.16 391.00,449.00 391.00,449.00
             391.00,449.00 405.00,448.07 405.00,448.07
             405.00,448.07 450.00,446.00 450.00,446.00
             459.20,445.91 470.27,446.81 479.00,444.08
             497.01,438.44 497.07,414.90 482.99,408.12
             476.41,405.09 473.41,407.34 467.00,408.12
             467.00,408.12 456.72,408.12 456.72,408.12
             456.72,408.12 439.00,409.00 439.00,409.00
             439.00,409.00 391.00,412.00 391.00,412.00
             367.10,412.22 343.72,414.66 320.00,417.16
             320.00,417.16 298.00,419.39 298.00,419.39
             298.00,419.39 281.00,421.33 281.00,421.33
             276.45,421.48 268.99,421.93 265.00,420.00
             265.00,420.00 263.00,421.00 263.00,421.00
             263.00,421.00 263.00,422.00 263.00,422.00 Z" />
    <path id="white"
        fill="white" stroke="black" stroke-width="1"
        d="M 216.00,223.00
           C 208.52,221.47 188.89,212.69 181.00,209.29
             181.00,209.29 164.00,203.19 164.00,203.19
             164.00,203.19 148.00,196.00 148.00,196.00
             148.00,196.00 104.00,174.41 104.00,174.41
             94.32,169.69 85.96,165.17 77.00,159.11
             77.00,159.11 69.00,153.39 69.00,153.39
             62.42,149.13 56.10,145.97 55.20,137.00
             54.06,125.66 65.23,114.60 80.00,120.88
             87.14,123.91 95.90,131.49 103.00,135.74
             103.00,135.74 125.00,146.97 125.00,146.97
             125.00,146.97 140.00,155.22 140.00,155.22
             158.54,164.98 178.51,172.26 198.00,179.81
             198.00,179.81 228.00,191.95 228.00,191.95
             234.91,194.54 233.82,194.34 240.00,197.69
             250.49,203.38 267.18,209.37 265.66,224.00
             264.67,233.55 252.87,243.94 245.00,248.47
             245.00,248.47 237.00,252.31 237.00,252.31
             237.00,252.31 211.00,265.46 211.00,265.46
             211.00,265.46 189.00,279.69 189.00,279.69
             189.00,279.69 166.00,289.67 166.00,289.67
             166.00,289.67 150.00,297.77 150.00,297.77
             140.26,301.79 127.66,301.77 123.48,290.00
             122.62,287.57 122.07,284.58 122.34,282.00
             123.50,270.87 133.48,268.21 142.00,264.00
             142.00,264.00 156.00,257.28 156.00,257.28
             161.67,254.88 169.91,252.44 175.00,249.27
             187.32,241.62 201.50,229.62 216.00,226.00
             216.00,226.00 216.00,223.00 216.00,223.00 Z
           M 475.00,408.61
           C 489.86,408.97 496.77,424.54 487.61,435.98
             480.88,444.40 470.80,443.99 461.00,444.00
             461.00,444.00 447.00,444.00 447.00,444.00
             447.00,444.00 429.00,445.00 429.00,445.00
             429.00,445.00 390.00,447.00 390.00,447.00
             390.00,447.00 358.00,448.17 358.00,448.17
             358.00,448.17 332.00,451.72 332.00,451.72
             332.00,451.72 299.00,455.08 299.00,455.08
             299.00,455.08 287.00,456.00 287.00,456.00
             268.04,456.03 248.80,456.74 230.00,454.13
             225.56,453.51 214.50,452.33 211.00,450.55
             200.32,445.09 199.28,430.91 208.04,423.22
             212.29,419.50 217.55,418.82 223.00,419.04
             223.00,419.04 234.00,420.83 234.00,420.83
             234.00,420.83 268.00,423.00 268.00,423.00
             268.00,423.00 281.00,423.00 281.00,423.00
             281.00,423.00 307.00,420.29 307.00,420.29
             307.00,420.29 324.00,418.84 324.00,418.84
             324.00,418.84 353.00,415.17 353.00,415.17
             353.00,415.17 390.00,414.00 390.00,414.00
             390.00,414.00 400.00,413.00 400.00,413.00
             400.00,413.00 408.00,413.00 408.00,413.00
             408.00,413.00 436.00,411.00 436.00,411.00
             436.00,411.00 475.00,408.61 475.00,408.61 Z" />
</svg>
