<?xml version="1.0" encoding="UTF-8" standalone="no"?>
<!DOCTYPE svg PUBLIC "-//W3C//DTD SVG 20010904//EN"
              "http://www.w3.org/TR/2001/REC-SVG-20010904/DTD/svg10.dtd">

<svg xmlns="http://www.w3.org/2000/svg"
     width="5.55556in" height="5.55556in"
     viewBox="0 0 500 500">
  <path id="Folder"
        fill="#349c67" stroke="none" stroke-width="1"
        d="M 86.00,94.00
           C 86.00,94.00 118.00,78.69 118.00,78.69
             118.00,78.69 142.00,65.31 142.00,65.31
             142.00,65.31 162.00,58.13 162.00,58.13
             162.00,58.13 174.00,52.45 174.00,52.45
             174.00,52.45 218.00,37.50 218.00,37.50
             218.00,37.50 247.00,32.74 247.00,32.74
             247.00,32.74 258.00,30.26 258.00,30.26
             268.70,28.27 282.14,26.88 293.00,27.00
             293.00,27.00 336.00,34.43 336.00,34.43
             336.00,34.43 351.00,39.42 351.00,39.42
             355.65,40.18 364.01,37.85 370.00,39.42
             374.86,41.10 385.07,48.62 390.00,51.55
             390.00,51.55 401.00,57.58 401.00,57.58
             413.55,64.65 414.09,61.84 422.00,65.63
             430.91,69.90 442.94,81.72 448.30,90.00
             454.40,99.41 458.68,114.17 462.68,125.00
             462.68,125.00 470.28,146.00 470.28,146.00
             470.28,146.00 474.04,161.00 474.04,161.00
             474.04,161.00 478.45,172.00 478.45,172.00
             480.79,178.56 481.88,186.15 483.08,193.00
             483.08,193.00 486.72,209.00 486.72,209.00
             486.72,209.00 489.17,235.00 489.17,235.00
             489.17,235.00 492.57,254.00 492.57,254.00
             492.57,254.00 493.30,264.00 493.30,264.00
             494.49,272.34 497.89,279.18 498.00,288.00
             498.11,297.43 497.10,326.71 495.33,335.00
             495.33,335.00 489.33,354.00 489.33,354.00
             487.18,360.45 483.80,371.86 479.62,376.91
             477.61,379.34 469.51,387.43 467.00,388.93
             467.00,388.93 449.00,396.31 449.00,396.31
             449.00,396.31 433.00,404.13 433.00,404.13
             433.00,404.13 405.00,415.28 405.00,415.28
             405.00,415.28 380.00,425.91 380.00,425.91
             380.00,425.91 358.00,431.91 358.00,431.91
             358.00,431.91 343.00,437.41 343.00,437.41
             343.00,437.41 306.00,446.88 306.00,446.88
             306.00,446.88 267.00,457.92 267.00,457.92
             267.00,457.92 257.00,457.92 257.00,457.92
             257.00,457.92 219.00,463.08 219.00,463.08
             204.49,465.53 203.86,468.31 194.00,471.08
             186.70,473.13 162.47,476.91 155.00,477.00
             142.10,477.15 135.64,477.31 123.00,473.25
             123.00,473.25 105.00,465.45 105.00,465.45
             101.07,463.86 92.01,461.50 89.21,459.30
             85.73,456.56 85.73,453.23 81.79,449.76
             75.10,443.86 72.55,445.39 65.10,434.00
             56.57,420.95 53.50,405.61 48.98,391.00
             48.98,391.00 42.80,370.00 42.80,370.00
             42.80,370.00 38.15,356.00 38.15,356.00
             38.15,356.00 29.81,319.00 29.81,319.00
             29.81,319.00 25.19,289.00 25.19,289.00
             25.19,289.00 16.25,257.00 16.25,257.00
             16.25,257.00 11.29,244.00 11.29,244.00
             9.28,234.83 10.11,225.32 10.00,216.00
             10.00,216.00 9.00,201.00 9.00,201.00
             9.00,201.00 9.00,189.00 9.00,189.00
             9.00,189.00 10.91,159.00 10.91,159.00
             10.91,159.00 2.63,124.00 2.63,124.00
             1.54,119.66 -0.15,114.43 0.18,110.00
             0.50,105.74 2.06,99.52 4.65,96.09
             16.09,80.91 49.41,78.97 67.00,79.00
             78.13,79.02 83.81,82.33 86.00,94.00 Z
           M 337.00,50.00
           C 332.10,45.01 320.88,44.58 314.00,43.20
             306.98,41.80 290.63,38.72 284.00,39.09
             284.00,39.09 246.00,45.58 246.00,45.58
             246.00,45.58 211.00,52.21 211.00,52.21
             211.00,52.21 170.00,68.14 170.00,68.14
             170.00,68.14 149.00,76.26 149.00,76.26
             149.00,76.26 113.00,95.74 113.00,95.74
             113.00,95.74 85.00,108.31 85.00,108.31
             85.00,108.31 55.00,125.03 55.00,125.03
             47.06,130.44 33.70,141.55 29.37,150.00
             23.68,161.13 23.96,170.20 22.92,182.00
             22.11,189.52 20.92,198.67 22.92,206.00
             22.92,206.00 25.00,206.00 25.00,206.00
             25.00,206.00 36.31,168.00 36.31,168.00
             40.11,159.65 48.71,149.97 54.85,143.00
             60.82,136.21 68.08,127.34 75.00,121.81
             88.37,111.11 101.29,109.01 117.00,104.28
             117.00,104.28 154.00,92.43 154.00,92.43
             154.00,92.43 172.00,88.57 172.00,88.57
             172.00,88.57 184.00,84.72 184.00,84.72
             184.00,84.72 210.00,77.48 210.00,77.48
             210.00,77.48 238.00,72.00 238.00,72.00
             238.00,72.00 266.00,65.35 266.00,65.35
             266.00,65.35 286.00,58.89 286.00,58.89
             286.00,58.89 323.00,52.57 323.00,52.57
             323.00,52.57 337.00,50.00 337.00,50.00 Z" />
    <path id="Folder Inside"
        fill="#256e48" stroke="none" stroke-width="1"
        d="M 22.00,206.00
           C 22.00,188.85 21.50,162.84 30.48,148.00
             34.07,142.06 40.67,136.35 46.00,131.92
             61.07,119.39 80.23,110.71 98.00,102.70
             98.00,102.70 150.00,75.78 150.00,75.78
             150.00,75.78 170.00,67.99 170.00,67.99
             170.00,67.99 212.00,51.92 212.00,51.92
             212.00,51.92 236.00,47.39 236.00,47.39
             248.23,45.10 276.09,38.62 287.00,39.04
             294.13,39.32 305.80,41.56 313.00,43.00
             318.88,44.18 333.78,45.32 337.00,50.00
             337.00,50.00 323.00,52.57 323.00,52.57
             323.00,52.57 286.00,59.04 286.00,59.04
             286.00,59.04 266.00,65.50 266.00,65.50
             266.00,65.50 255.00,67.65 255.00,67.65
             255.00,67.65 235.00,72.60 235.00,72.60
             235.00,72.60 210.00,77.48 210.00,77.48
             210.00,77.48 199.00,80.85 199.00,80.85
             199.00,80.85 184.00,84.72 184.00,84.72
             184.00,84.72 173.00,88.34 173.00,88.34
             173.00,88.34 153.00,92.74 153.00,92.74
             153.00,92.74 117.00,104.28 117.00,104.28
             104.43,108.07 91.12,110.72 80.00,118.10
             72.14,123.33 61.20,135.65 54.87,143.00
             47.89,151.10 39.49,160.05 35.45,170.00
             35.45,170.00 27.73,196.00 27.73,196.00
             26.46,200.83 27.16,204.21 22.00,206.00 Z" />
    <path id="src"
        fill="white" stroke="none" stroke-width="1"
        d="M 409.00,193.46
           C 420.37,191.89 435.81,193.87 437.44,208.00
             438.37,216.04 432.76,222.83 425.00,224.35
             421.00,225.03 419.25,223.86 416.00,224.35
             413.20,224.91 409.38,227.02 407.00,228.59
             407.00,228.59 389.00,240.38 389.00,240.38
             382.79,245.40 373.80,257.16 371.63,265.00
             370.66,268.51 370.95,279.77 371.00,284.00
             371.12,293.91 378.89,305.12 388.00,309.07
             390.97,310.35 401.42,310.99 405.00,311.00
             416.02,311.02 424.35,311.62 435.00,307.54
             444.24,304.00 455.15,297.13 464.98,302.44
             473.89,307.25 475.15,320.84 467.79,327.61
             464.59,330.55 459.08,331.90 455.00,333.42
             444.08,337.51 434.82,341.98 423.00,342.00
             405.45,342.03 382.08,344.74 367.00,334.36
             360.61,329.96 357.29,325.93 352.64,320.00
             338.24,301.64 338.74,291.27 339.00,269.00
             339.20,252.06 351.62,231.84 363.17,220.09
             367.77,215.41 376.34,210.48 382.00,206.77
             392.46,199.92 396.14,196.33 409.00,193.46 Z
           M 246.00,251.00
           C 247.61,245.48 250.57,235.64 253.61,231.00
             259.81,221.54 264.97,217.61 275.00,213.14
             289.92,206.50 292.37,207.58 308.00,205.83
             308.00,205.83 324.00,203.18 324.00,203.18
             339.97,202.03 346.92,217.21 340.00,227.96
             335.69,234.66 328.90,234.40 322.00,235.28
             322.00,235.28 307.00,237.83 307.00,237.83
             299.24,238.70 291.58,238.52 285.10,243.63
             275.88,250.92 278.00,262.60 278.00,273.00
             278.00,288.61 278.47,304.26 284.47,319.00
             288.70,329.39 297.64,339.76 300.31,353.00
             302.63,364.54 292.31,374.05 281.00,371.07
             271.12,368.46 265.38,356.52 260.89,348.00
             260.89,348.00 254.51,332.00 254.51,332.00
             254.51,332.00 235.20,300.00 235.20,300.00
             230.52,292.20 218.62,271.29 217.50,263.00
             216.22,253.50 223.42,245.34 233.00,245.34
             238.26,245.34 242.09,247.84 246.00,251.00 Z
           M 130.00,254.23
           C 130.00,254.23 136.00,254.23 136.00,254.23
             151.15,253.83 181.60,251.89 184.50,272.00
             185.81,281.16 179.08,288.94 170.00,289.61
             165.79,289.92 161.22,287.71 157.00,286.82
             151.99,285.76 147.09,285.97 142.00,286.00
             133.61,286.04 129.05,288.60 126.22,297.00
             123.65,304.63 122.24,312.34 133.00,312.96
             133.00,312.96 163.00,309.00 163.00,309.00
             163.00,309.00 198.00,309.00 198.00,309.00
             203.15,309.01 205.99,309.08 211.00,310.75
             232.69,317.96 233.09,346.37 233.00,365.00
             232.96,374.40 230.03,383.42 224.39,391.00
             209.22,411.40 174.72,408.26 152.00,408.00
             144.42,407.91 129.37,404.06 124.65,397.90
             117.72,388.85 122.04,374.06 135.00,372.56
             141.59,371.79 144.51,375.95 155.00,376.00
             155.00,376.00 183.00,376.00 183.00,376.00
             187.23,375.95 193.52,375.61 196.79,372.69
             203.11,367.04 202.32,357.49 201.08,350.00
             200.68,347.56 200.24,343.35 198.42,341.60
             196.42,339.67 192.60,340.01 190.00,340.00
             178.85,339.98 169.13,339.79 158.00,341.29
             148.97,342.50 140.19,345.19 131.00,344.99
             126.65,344.89 119.99,343.72 116.00,342.05
             91.89,331.93 88.79,308.20 96.69,286.00
             98.93,279.72 101.77,273.07 106.21,268.01
             112.14,261.26 121.30,256.40 130.00,254.23 Z" />
</svg>
