<?xml version="1.0" encoding="UTF-8" standalone="no"?>
<!DOCTYPE svg PUBLIC "-//W3C//DTD SVG 20010904//EN"
              "http://www.w3.org/TR/2001/REC-SVG-20010904/DTD/svg10.dtd">

<svg xmlns="http://www.w3.org/2000/svg"
     width="5.55556in" height="5.55556in"
     viewBox="0 0 500 500">
  <path id="Folder"
        fill="#349c67" stroke="none" stroke-width="1"
        d="M 86.00,94.00
           C 86.00,94.00 118.00,78.69 118.00,78.69
             118.00,78.69 142.00,65.31 142.00,65.31
             142.00,65.31 162.00,58.13 162.00,58.13
             162.00,58.13 174.00,52.45 174.00,52.45
             174.00,52.45 218.00,37.50 218.00,37.50
             218.00,37.50 247.00,32.74 247.00,32.74
             259.88,30.34 272.80,27.16 286.00,27.00
             301.63,26.82 305.34,28.62 320.00,31.55
             340.51,35.65 342.63,34.24 362.00,45.34
             362.00,45.34 395.00,68.29 395.00,68.29
             399.01,69.53 404.92,67.49 409.00,66.66
             413.01,65.85 416.93,65.96 421.00,66.00
             439.40,66.22 461.68,78.47 468.54,96.00
             473.19,107.89 473.85,128.04 474.00,141.00
             474.18,156.36 483.31,190.85 486.54,208.00
             486.54,208.00 489.17,235.00 489.17,235.00
             489.17,235.00 492.57,254.00 492.57,254.00
             492.57,254.00 493.30,264.00 493.30,264.00
             494.49,272.34 497.89,279.18 498.00,288.00
             498.11,297.43 497.10,326.71 495.33,335.00
             495.33,335.00 489.33,354.00 489.33,354.00
             487.18,360.45 483.80,371.86 479.62,376.91
             477.61,379.34 469.51,387.43 467.00,388.93
             467.00,388.93 449.00,396.31 449.00,396.31
             449.00,396.31 433.00,404.13 433.00,404.13
             433.00,404.13 405.00,415.28 405.00,415.28
             405.00,415.28 380.00,425.91 380.00,425.91
             380.00,425.91 358.00,431.91 358.00,431.91
             358.00,431.91 343.00,437.41 343.00,437.41
             343.00,437.41 306.00,446.88 306.00,446.88
             306.00,446.88 267.00,457.54 267.00,457.54
             267.00,457.54 249.00,459.17 249.00,459.17
             249.00,459.17 223.00,462.43 223.00,462.43
             205.06,465.45 206.27,467.63 194.00,471.08
             186.70,473.13 162.47,476.91 155.00,477.00
             142.10,477.15 135.64,477.31 123.00,473.25
             123.00,473.25 105.00,465.45 105.00,465.45
             101.07,463.86 92.01,461.50 89.21,459.30
             85.73,456.56 85.73,453.23 81.79,449.76
             75.10,443.86 72.55,445.39 65.10,434.00
             56.57,420.95 53.50,405.61 48.98,391.00
             48.98,391.00 42.80,370.00 42.80,370.00
             42.80,370.00 38.15,356.00 38.15,356.00
             38.15,356.00 29.81,319.00 29.81,319.00
             29.81,319.00 25.19,289.00 25.19,289.00
             25.19,289.00 16.25,257.00 16.25,257.00
             16.25,257.00 11.29,244.00 11.29,244.00
             9.28,234.83 10.11,225.32 10.00,216.00
             10.00,216.00 9.00,201.00 9.00,201.00
             9.00,201.00 9.00,189.00 9.00,189.00
             9.00,189.00 10.91,159.00 10.91,159.00
             10.91,159.00 2.63,124.00 2.63,124.00
             1.54,119.66 -0.15,114.43 0.18,110.00
             0.50,105.74 2.06,99.52 4.65,96.09
             16.09,80.91 49.41,78.97 67.00,79.00
             78.13,79.02 83.81,82.33 86.00,94.00 Z
           M 383.00,78.00
           C 380.08,72.37 370.36,66.98 365.00,63.14
             343.41,47.67 333.66,46.51 308.00,42.73
             308.00,42.73 287.00,40.00 287.00,40.00
             272.40,39.83 258.25,43.35 244.00,46.20
             244.00,46.20 212.00,52.43 212.00,52.43
             212.00,52.43 170.00,68.55 170.00,68.55
             170.00,68.55 150.00,76.17 150.00,76.17
             150.00,76.17 116.00,94.69 116.00,94.69
             116.00,94.69 92.00,105.70 92.00,105.70
             75.30,113.23 44.25,129.41 33.79,144.00
             25.64,155.36 23.07,169.29 23.00,183.00
             22.93,197.18 22.09,227.51 24.14,240.00
             24.14,240.00 33.86,272.00 33.86,272.00
             33.86,272.00 37.92,288.00 37.92,288.00
             38.68,292.33 38.59,296.28 41.00,300.00
             41.00,300.00 44.89,264.00 44.89,264.00
             49.14,245.20 56.48,235.23 65.72,219.00
             71.82,208.29 79.47,193.67 88.09,185.09
             94.00,179.20 102.80,174.92 110.00,170.60
             124.81,161.72 150.68,149.67 167.00,144.08
             167.00,144.08 188.00,138.26 188.00,138.26
             188.00,138.26 207.00,131.03 207.00,131.03
             207.00,131.03 232.00,124.00 232.00,124.00
             232.00,124.00 259.00,114.88 259.00,114.88
             259.00,114.88 299.00,107.56 299.00,107.56
             306.43,105.33 308.31,102.65 313.00,101.01
             313.00,101.01 327.00,97.48 327.00,97.48
             327.00,97.48 347.00,89.69 347.00,89.69
             347.00,89.69 369.00,82.02 369.00,82.02
             369.00,82.02 383.00,78.00 383.00,78.00 Z" />
    <path id="Folder Inside"
        fill="#256e48" stroke="none" stroke-width="1"
        d="M 40.00,301.00
           C 40.00,301.00 34.28,274.00 34.28,274.00
             29.36,257.49 23.20,243.45 23.00,226.00
             23.00,226.00 22.03,214.00 22.03,214.00
             22.03,214.00 23.00,202.00 23.00,202.00
             23.00,202.00 23.00,183.00 23.00,183.00
             23.02,170.49 24.77,157.84 31.47,147.00
             35.19,140.96 40.59,136.54 46.00,132.08
             58.41,121.85 79.15,111.39 94.00,104.70
             94.00,104.70 114.00,95.68 114.00,95.68
             114.00,95.68 150.00,75.90 150.00,75.90
             150.00,75.90 172.00,67.57 172.00,67.57
             185.27,61.92 199.02,55.65 213.00,51.92
             213.00,51.92 248.00,45.39 248.00,45.39
             248.00,45.39 284.00,39.32 284.00,39.32
             284.00,39.32 308.00,42.58 308.00,42.58
             320.54,44.52 337.63,47.07 349.00,52.49
             353.62,54.70 359.72,59.24 364.00,62.29
             369.67,66.33 379.93,72.05 383.00,78.00
             383.00,78.00 350.00,88.69 350.00,88.69
             350.00,88.69 327.00,97.65 327.00,97.65
             327.00,97.65 313.00,101.25 313.00,101.25
             307.99,102.98 307.15,105.06 300.00,107.28
             300.00,107.28 256.00,115.88 256.00,115.88
             256.00,115.88 226.00,125.98 226.00,125.98
             226.00,125.98 204.00,132.09 204.00,132.09
             204.00,132.09 187.00,138.66 187.00,138.66
             187.00,138.66 166.00,144.54 166.00,144.54
             166.00,144.54 149.00,151.72 149.00,151.72
             131.47,159.26 128.18,159.91 111.00,170.20
             98.46,177.71 93.43,179.34 83.18,191.00
             77.88,197.04 71.25,209.61 67.00,217.00
             57.96,232.73 50.38,242.95 45.87,261.00
             45.87,261.00 42.28,288.00 42.28,288.00
             41.66,293.24 42.56,295.99 40.00,301.00 Z" />
      <path id="src"
        fill="white" stroke="none" stroke-width="1"
        d="M 409.00,193.46
           C 420.37,191.89 435.81,193.87 437.44,208.00
             438.37,216.04 432.76,222.83 425.00,224.35
             421.00,225.03 419.25,223.86 416.00,224.35
             413.20,224.91 409.38,227.02 407.00,228.59
             407.00,228.59 389.00,240.38 389.00,240.38
             382.79,245.40 373.80,257.16 371.63,265.00
             370.66,268.51 370.95,279.77 371.00,284.00
             371.12,293.91 378.89,305.12 388.00,309.07
             390.97,310.35 401.42,310.99 405.00,311.00
             416.02,311.02 424.35,311.62 435.00,307.54
             444.24,304.00 455.15,297.13 464.98,302.44
             473.89,307.25 475.15,320.84 467.79,327.61
             464.59,330.55 459.08,331.90 455.00,333.42
             444.08,337.51 434.82,341.98 423.00,342.00
             405.45,342.03 382.08,344.74 367.00,334.36
             360.61,329.96 357.29,325.93 352.64,320.00
             338.24,301.64 338.74,291.27 339.00,269.00
             339.20,252.06 351.62,231.84 363.17,220.09
             367.77,215.41 376.34,210.48 382.00,206.77
             392.46,199.92 396.14,196.33 409.00,193.46 Z
           M 246.00,251.00
           C 247.61,245.48 250.57,235.64 253.61,231.00
             259.81,221.54 264.97,217.61 275.00,213.14
             289.92,206.50 292.37,207.58 308.00,205.83
             308.00,205.83 324.00,203.18 324.00,203.18
             339.97,202.03 346.92,217.21 340.00,227.96
             335.69,234.66 328.90,234.40 322.00,235.28
             322.00,235.28 307.00,237.83 307.00,237.83
             299.24,238.70 291.58,238.52 285.10,243.63
             275.88,250.92 278.00,262.60 278.00,273.00
             278.00,288.61 278.47,304.26 284.47,319.00
             288.70,329.39 297.64,339.76 300.31,353.00
             302.63,364.54 292.31,374.05 281.00,371.07
             271.12,368.46 265.38,356.52 260.89,348.00
             260.89,348.00 254.51,332.00 254.51,332.00
             254.51,332.00 235.20,300.00 235.20,300.00
             230.52,292.20 218.62,271.29 217.50,263.00
             216.22,253.50 223.42,245.34 233.00,245.34
             238.26,245.34 242.09,247.84 246.00,251.00 Z
           M 130.00,254.23
           C 130.00,254.23 136.00,254.23 136.00,254.23
             151.15,253.83 181.60,251.89 184.50,272.00
             185.81,281.16 179.08,288.94 170.00,289.61
             165.79,289.92 161.22,287.71 157.00,286.82
             151.99,285.76 147.09,285.97 142.00,286.00
             133.61,286.04 129.05,288.60 126.22,297.00
             123.65,304.63 122.24,312.34 133.00,312.96
             133.00,312.96 163.00,309.00 163.00,309.00
             163.00,309.00 198.00,309.00 198.00,309.00
             203.15,309.01 205.99,309.08 211.00,310.75
             232.69,317.96 233.09,346.37 233.00,365.00
             232.96,374.40 230.03,383.42 224.39,391.00
             209.22,411.40 174.72,408.26 152.00,408.00
             144.42,407.91 129.37,404.06 124.65,397.90
             117.72,388.85 122.04,374.06 135.00,372.56
             141.59,371.79 144.51,375.95 155.00,376.00
             155.00,376.00 183.00,376.00 183.00,376.00
             187.23,375.95 193.52,375.61 196.79,372.69
             203.11,367.04 202.32,357.49 201.08,350.00
             200.68,347.56 200.24,343.35 198.42,341.60
             196.42,339.67 192.60,340.01 190.00,340.00
             178.85,339.98 169.13,339.79 158.00,341.29
             148.97,342.50 140.19,345.19 131.00,344.99
             126.65,344.89 119.99,343.72 116.00,342.05
             91.89,331.93 88.79,308.20 96.69,286.00
             98.93,279.72 101.77,273.07 106.21,268.01
             112.14,261.26 121.30,256.40 130.00,254.23 Z" />
</svg>
