<?xml version="1.0" encoding="UTF-8" standalone="no"?>
<!DOCTYPE svg PUBLIC "-//W3C//DTD SVG 20010904//EN"
              "http://www.w3.org/TR/2001/REC-SVG-20010904/DTD/svg10.dtd">

<svg xmlns="http://www.w3.org/2000/svg"
     width="5.55556in" height="5.55556in"
     viewBox="0 0 500 500">
  <path id="Background"
        fill="#fe3e00" stroke="none" stroke-width="1"
        d="M 93.00,311.00
           C 73.68,300.78 65.35,293.75 51.79,276.80
             45.86,269.40 40.44,261.32 36.62,252.58
             36.62,252.58 27.37,219.00 27.37,219.00
             23.81,205.17 20.38,197.83 20.23,183.20
             20.02,163.45 22.75,135.95 31.03,118.00
             34.13,111.27 39.45,103.51 43.91,97.58
             47.62,92.65 51.21,87.77 55.60,83.37
             64.52,74.43 82.35,61.24 94.17,56.77
             94.17,56.77 130.00,47.12 130.00,47.12
             130.00,47.12 156.99,39.90 156.99,39.90
             172.56,36.54 205.44,32.19 221.00,32.41
             228.86,32.52 229.09,32.02 237.56,33.26
             237.56,33.26 246.04,34.77 246.04,34.77
             260.77,36.32 275.49,37.76 289.57,42.85
             327.36,56.49 354.32,78.42 373.25,114.00
             377.87,122.69 380.96,128.34 383.71,138.00
             387.23,150.38 391.43,162.01 389.00,175.00
             400.10,178.54 406.07,181.91 416.00,187.69
             416.00,187.69 429.34,195.78 429.34,195.78
             434.27,199.46 435.73,201.62 439.95,205.72
             455.80,221.12 460.89,229.53 470.18,248.97
             472.49,253.81 474.89,258.88 476.54,264.00
             476.54,264.00 479.42,275.00 479.42,275.00
             481.91,283.94 485.83,295.50 485.75,304.57
             485.67,315.35 483.51,333.90 480.25,344.00
             476.46,355.78 462.58,374.83 454.41,384.65
             450.38,389.50 446.25,392.40 441.46,396.27
             423.36,410.89 427.19,407.84 408.15,419.03
             383.76,433.36 371.50,438.99 345.00,448.54
             345.00,448.54 331.00,454.04 331.00,454.04
             331.00,454.04 286.00,466.15 286.00,466.15
             286.00,466.15 233.00,480.20 233.00,480.20
             233.00,480.20 220.80,480.75 220.80,480.75
             220.80,480.75 205.61,479.81 205.61,479.81
             205.61,479.81 183.91,478.45 183.91,478.45
             164.78,475.61 144.19,468.60 128.17,457.75
             122.90,454.18 117.23,448.23 113.01,443.46
             96.27,424.57 92.67,413.88 86.63,390.00
             83.00,375.68 81.30,374.48 81.03,358.99
             80.76,344.25 84.73,323.23 93.00,311.00 Z" />
      <path id="S"
        fill="white" stroke="none" stroke-width="1"
        d="M 207.00,74.42
           C 219.38,72.92 226.34,74.68 238.00,75.83
             249.21,76.93 260.09,77.71 271.00,80.91
             288.44,86.03 313.39,100.67 324.64,115.00
             333.43,126.21 348.94,151.46 348.19,166.00
             347.54,178.51 339.40,185.50 327.00,184.96
             312.33,184.32 310.85,172.63 306.28,162.00
             303.43,155.36 296.67,144.30 291.83,139.01
             284.05,130.53 264.35,120.13 253.00,117.67
             253.00,117.67 236.00,115.72 236.00,115.72
             227.93,114.75 224.44,113.91 216.00,114.00
             216.00,114.00 171.00,119.67 171.00,119.67
             171.00,119.67 148.00,125.85 148.00,125.85
             137.18,128.78 126.69,129.90 118.17,137.62
             115.60,139.94 109.74,146.20 107.99,149.00
             98.82,163.70 101.49,186.23 106.00,202.00
             111.45,221.05 116.12,232.43 136.00,240.55
             154.57,248.14 162.55,244.73 181.00,239.88
             181.00,239.88 206.00,233.25 206.00,233.25
             206.00,233.25 231.00,223.54 231.00,223.54
             231.00,223.54 267.00,213.85 267.00,213.85
             267.00,213.85 299.00,205.32 299.00,205.32
             299.00,205.32 318.00,204.00 318.00,204.00
             335.31,203.80 350.56,207.07 367.00,212.12
             385.71,217.86 398.22,223.07 412.54,237.20
             423.28,247.79 425.11,252.40 431.84,265.00
             437.99,276.53 443.45,291.84 443.96,305.00
             444.13,309.31 443.57,311.84 443.00,316.00
             442.13,322.40 441.73,326.89 439.24,333.00
             437.38,337.58 434.83,341.01 432.00,345.00
             419.12,363.14 407.11,372.18 388.00,383.13
             388.00,383.13 351.00,402.55 351.00,402.55
             351.00,402.55 327.00,411.20 327.00,411.20
             327.00,411.20 312.00,417.25 312.00,417.25
             312.00,417.25 278.00,426.42 278.00,426.42
             278.00,426.42 231.00,438.85 231.00,438.85
             231.00,438.85 220.00,438.85 220.00,438.85
             220.00,438.85 201.00,438.00 201.00,438.00
             186.93,437.83 163.33,431.72 152.00,423.39
             131.71,408.47 122.72,380.29 123.00,356.00
             123.18,340.56 127.39,325.22 146.00,326.04
             156.12,326.48 163.14,334.05 163.91,344.00
             163.91,344.00 162.88,359.17 162.88,359.17
             163.11,364.62 165.95,376.16 168.38,381.00
             176.18,396.56 192.92,397.06 208.00,398.09
             208.00,398.09 222.00,399.00 222.00,399.00
             230.25,398.90 254.32,391.31 264.00,388.87
             264.00,388.87 295.00,380.33 295.00,380.33
             295.00,380.33 314.00,373.28 314.00,373.28
             314.00,373.28 337.00,364.96 337.00,364.96
             337.00,364.96 353.00,356.60 353.00,356.60
             365.16,350.52 383.47,340.00 392.39,329.91
             395.33,326.57 401.41,319.11 402.59,315.00
             407.49,297.82 392.19,271.69 379.00,261.53
             363.85,249.85 333.91,243.78 315.00,244.00
             304.90,244.12 291.99,248.49 282.00,251.12
             282.00,251.12 241.00,262.54 241.00,262.54
             241.00,262.54 219.00,271.21 219.00,271.21
             204.69,276.20 170.72,284.82 156.00,285.00
             126.53,285.34 94.95,269.37 79.46,244.00
             71.03,230.17 69.93,221.07 65.85,206.00
             63.36,196.78 61.94,190.67 61.69,181.00
             61.69,181.00 61.69,173.00 61.69,173.00
             62.97,158.05 64.54,142.04 72.71,129.00
             79.99,117.39 94.51,102.33 107.04,96.57
             115.61,92.63 127.73,90.15 137.00,87.58
             156.87,82.05 170.64,79.20 191.00,76.13
             191.00,76.13 207.00,74.42 207.00,74.42 Z" />
</svg>
