<?xml version="1.0" encoding="UTF-8" standalone="no"?>
<!DOCTYPE svg PUBLIC "-//W3C//DTD SVG 20010904//EN"
              "http://www.w3.org/TR/2001/REC-SVG-20010904/DTD/svg10.dtd">

<svg xmlns="http://www.w3.org/2000/svg"
     width="5.55556in" height="5.55556in"
     viewBox="0 0 500 500">
  <path id="Folder"
        fill="#cb512a" stroke="none" stroke-width="1"
        d="M 86.00,94.00
           C 86.00,94.00 118.00,78.69 118.00,78.69
             118.00,78.69 142.00,65.31 142.00,65.31
             142.00,65.31 162.00,58.13 162.00,58.13
             162.00,58.13 174.00,52.45 174.00,52.45
             174.00,52.45 218.00,37.50 218.00,37.50
             218.00,37.50 247.00,32.74 247.00,32.74
             247.00,32.74 258.00,30.26 258.00,30.26
             268.70,28.27 282.14,26.88 293.00,27.00
             293.00,27.00 336.00,34.43 336.00,34.43
             336.00,34.43 351.00,39.42 351.00,39.42
             355.65,40.18 364.01,37.85 370.00,39.42
             374.86,41.10 385.07,48.62 390.00,51.55
             390.00,51.55 401.00,57.58 401.00,57.58
             413.55,64.65 414.09,61.84 422.00,65.63
             430.91,69.90 442.94,81.72 448.30,90.00
             454.40,99.41 458.68,114.17 462.68,125.00
             462.68,125.00 470.28,146.00 470.28,146.00
             470.28,146.00 474.04,161.00 474.04,161.00
             474.04,161.00 478.45,172.00 478.45,172.00
             480.79,178.56 481.88,186.15 483.08,193.00
             483.08,193.00 486.72,209.00 486.72,209.00
             486.72,209.00 489.17,235.00 489.17,235.00
             489.17,235.00 492.57,254.00 492.57,254.00
             492.57,254.00 493.30,264.00 493.30,264.00
             494.49,272.34 497.89,279.18 498.00,288.00
             498.11,297.43 497.10,326.71 495.33,335.00
             495.33,335.00 489.33,354.00 489.33,354.00
             487.18,360.45 483.80,371.86 479.62,376.91
             477.61,379.34 469.51,387.43 467.00,388.93
             467.00,388.93 449.00,396.31 449.00,396.31
             449.00,396.31 433.00,404.13 433.00,404.13
             433.00,404.13 405.00,415.28 405.00,415.28
             405.00,415.28 380.00,425.91 380.00,425.91
             380.00,425.91 358.00,431.91 358.00,431.91
             358.00,431.91 343.00,437.41 343.00,437.41
             343.00,437.41 306.00,446.88 306.00,446.88
             306.00,446.88 267.00,457.92 267.00,457.92
             267.00,457.92 257.00,457.92 257.00,457.92
             257.00,457.92 219.00,463.08 219.00,463.08
             204.49,465.53 203.86,468.31 194.00,471.08
             186.70,473.13 162.47,476.91 155.00,477.00
             142.10,477.15 135.64,477.31 123.00,473.25
             123.00,473.25 105.00,465.45 105.00,465.45
             101.07,463.86 92.01,461.50 89.21,459.30
             85.73,456.56 85.73,453.23 81.79,449.76
             75.10,443.86 72.55,445.39 65.10,434.00
             56.57,420.95 53.50,405.61 48.98,391.00
             48.98,391.00 42.80,370.00 42.80,370.00
             42.80,370.00 38.15,356.00 38.15,356.00
             38.15,356.00 29.81,319.00 29.81,319.00
             29.81,319.00 25.19,289.00 25.19,289.00
             25.19,289.00 16.25,257.00 16.25,257.00
             16.25,257.00 11.29,244.00 11.29,244.00
             9.28,234.83 10.11,225.32 10.00,216.00
             10.00,216.00 9.00,201.00 9.00,201.00
             9.00,201.00 9.00,189.00 9.00,189.00
             9.00,189.00 10.91,159.00 10.91,159.00
             10.91,159.00 2.63,124.00 2.63,124.00
             1.54,119.66 -0.15,114.43 0.18,110.00
             0.50,105.74 2.06,99.52 4.65,96.09
             16.09,80.91 49.41,78.97 67.00,79.00
             78.13,79.02 83.81,82.33 86.00,94.00 Z
           M 337.00,50.00
           C 332.10,45.01 320.88,44.58 314.00,43.20
             306.98,41.80 290.63,38.72 284.00,39.09
             284.00,39.09 246.00,45.58 246.00,45.58
             246.00,45.58 211.00,52.21 211.00,52.21
             211.00,52.21 170.00,68.14 170.00,68.14
             170.00,68.14 149.00,76.26 149.00,76.26
             149.00,76.26 113.00,95.74 113.00,95.74
             113.00,95.74 85.00,108.31 85.00,108.31
             85.00,108.31 55.00,125.03 55.00,125.03
             47.06,130.44 33.70,141.55 29.37,150.00
             23.68,161.13 23.96,170.20 22.92,182.00
             22.11,189.52 20.92,198.67 22.92,206.00
             22.92,206.00 25.00,206.00 25.00,206.00
             25.00,206.00 36.31,168.00 36.31,168.00
             40.11,159.65 48.71,149.97 54.85,143.00
             60.82,136.21 68.08,127.34 75.00,121.81
             88.37,111.11 101.29,109.01 117.00,104.28
             117.00,104.28 154.00,92.43 154.00,92.43
             154.00,92.43 172.00,88.57 172.00,88.57
             172.00,88.57 184.00,84.72 184.00,84.72
             184.00,84.72 210.00,77.48 210.00,77.48
             210.00,77.48 238.00,72.00 238.00,72.00
             238.00,72.00 266.00,65.35 266.00,65.35
             266.00,65.35 286.00,58.89 286.00,58.89
             286.00,58.89 323.00,52.57 323.00,52.57
             323.00,52.57 337.00,50.00 337.00,50.00 Z" />
    <path id="Folder Inside"
        fill="#5d2513" stroke="none" stroke-width="1"
        d="M 22.00,206.00
           C 22.00,188.85 21.50,162.84 30.48,148.00
             34.07,142.06 40.67,136.35 46.00,131.92
             61.07,119.39 80.23,110.71 98.00,102.70
             98.00,102.70 150.00,75.78 150.00,75.78
             150.00,75.78 170.00,67.99 170.00,67.99
             170.00,67.99 212.00,51.92 212.00,51.92
             212.00,51.92 236.00,47.39 236.00,47.39
             248.23,45.10 276.09,38.62 287.00,39.04
             294.13,39.32 305.80,41.56 313.00,43.00
             318.88,44.18 333.78,45.32 337.00,50.00
             337.00,50.00 323.00,52.57 323.00,52.57
             323.00,52.57 286.00,59.04 286.00,59.04
             286.00,59.04 266.00,65.50 266.00,65.50
             266.00,65.50 255.00,67.65 255.00,67.65
             255.00,67.65 235.00,72.60 235.00,72.60
             235.00,72.60 210.00,77.48 210.00,77.48
             210.00,77.48 199.00,80.85 199.00,80.85
             199.00,80.85 184.00,84.72 184.00,84.72
             184.00,84.72 173.00,88.34 173.00,88.34
             173.00,88.34 153.00,92.74 153.00,92.74
             153.00,92.74 117.00,104.28 117.00,104.28
             104.43,108.07 91.12,110.72 80.00,118.10
             72.14,123.33 61.20,135.65 54.87,143.00
             47.89,151.10 39.49,160.05 35.45,170.00
             35.45,170.00 27.73,196.00 27.73,196.00
             26.46,200.83 27.16,204.21 22.00,206.00 Z" />
    <path id="Logo Background"
        fill="#fe3e00" stroke="none" stroke-width="1"
        d="M 192.00,299.00
           C 180.54,295.65 169.11,282.62 164.31,272.00
             162.53,268.07 162.22,265.96 161.09,262.00
             158.65,253.41 155.11,245.05 155.00,236.00
             154.79,218.23 154.76,205.29 165.44,190.00
             180.14,168.95 194.04,166.37 217.00,160.63
             230.32,157.30 244.21,154.16 258.00,154.00
             265.98,153.91 268.44,154.72 276.00,155.72
             299.92,158.87 322.36,168.62 335.53,190.00
             340.15,197.49 344.03,205.50 346.27,214.00
             346.27,214.00 348.31,225.89 348.31,225.89
             349.44,229.74 353.76,230.62 357.00,232.27
             360.78,234.20 368.95,239.32 372.00,242.10
             374.87,244.73 381.95,252.78 384.04,256.00
             389.88,265.03 397.54,285.25 397.96,296.00
             399.64,338.75 355.68,361.22 321.00,373.31
             321.00,373.31 303.00,378.51 303.00,378.51
             292.56,381.76 271.32,387.98 261.00,388.00
             246.17,388.02 230.35,387.63 217.00,380.29
             195.14,368.28 186.96,345.84 187.00,322.00
             187.02,312.20 188.42,307.99 192.00,299.00 Z
           M 252.00,176.28
           C 235.32,178.68 230.55,179.32 214.00,183.85
             208.12,185.46 202.30,186.28 197.00,189.48
             191.77,192.63 185.95,198.90 182.61,204.00
             178.75,209.89 177.55,217.12 176.93,224.00
             175.29,241.96 180.71,263.75 195.00,275.68
             205.20,284.19 215.14,286.15 228.00,286.00
             243.48,285.82 257.65,279.14 272.00,274.35
             272.00,274.35 291.00,269.13 291.00,269.13
             297.10,267.59 305.85,264.71 312.00,265.30
             328.34,266.86 342.03,270.37 350.22,286.00
             352.39,290.15 354.71,295.22 353.58,300.00
             351.47,308.93 338.67,317.15 331.00,321.22
             331.00,321.22 319.00,327.56 319.00,327.56
             308.55,332.20 282.60,339.96 271.00,342.87
             262.24,345.07 247.18,346.37 239.00,341.86
             233.01,338.56 230.35,331.53 230.04,325.00
             229.82,320.51 230.73,315.08 227.99,311.21
             223.91,305.43 214.17,305.73 210.30,313.02
             207.28,318.71 207.89,325.91 208.92,332.00
             210.48,341.27 214.53,351.43 222.04,357.47
             231.32,364.95 243.74,365.32 255.00,366.09
             255.00,366.09 262.00,366.82 262.00,366.82
             262.00,366.82 291.00,359.71 291.00,359.71
             312.08,353.72 324.56,349.65 344.00,338.86
             351.57,334.66 356.58,332.46 362.91,325.96
             367.08,321.68 372.52,314.78 374.21,309.00
             379.82,289.80 368.01,264.08 351.00,254.34
             336.90,246.26 322.95,243.93 307.00,244.00
             297.08,244.05 292.15,246.70 283.00,249.12
             283.00,249.12 265.00,253.75 265.00,253.75
             254.47,257.12 234.70,265.65 224.00,264.90
             205.65,263.62 197.62,244.12 198.01,228.00
             198.23,219.24 203.93,210.32 212.00,206.65
             212.00,206.65 223.00,203.58 223.00,203.58
             243.62,197.85 272.45,193.44 291.00,206.79
             296.04,210.42 299.78,215.56 302.68,221.00
             306.43,228.03 306.83,234.88 317.00,233.89
             323.55,233.25 326.39,228.17 325.80,222.00
             325.37,217.46 322.39,211.01 320.21,207.00
             308.63,185.71 289.78,178.74 267.00,176.92
             260.20,176.37 259.54,175.58 252.00,176.28 Z" />
    <path id="S"
        fill="white" stroke="none" stroke-width="1"
        d="M 255.00,176.44
           C 260.01,176.04 265.03,177.10 270.00,177.72
             270.00,177.72 283.00,179.50 283.00,179.50
             297.80,183.00 310.73,191.89 318.55,205.00
             321.78,210.42 327.08,220.60 325.18,226.98
             323.07,234.08 314.27,235.93 309.21,231.57
             306.00,228.81 304.31,222.88 302.13,219.00
             297.84,211.41 294.55,208.18 287.00,203.87
             269.30,193.77 243.84,197.34 225.00,202.58
             213.80,205.69 202.53,208.07 198.79,221.00
             197.86,224.20 197.97,227.69 198.00,231.00
             198.18,246.53 206.44,264.19 224.00,264.96
             236.45,265.51 252.32,258.44 264.00,254.52
             274.56,250.97 302.57,243.50 313.00,244.09
             334.29,245.30 357.41,253.03 367.74,273.00
             371.45,280.17 374.85,287.82 375.25,296.00
             376.05,312.44 366.05,324.52 353.00,333.33
             335.16,345.38 314.58,352.70 294.00,358.42
             277.57,362.99 270.44,366.20 253.00,366.00
             241.99,365.87 228.03,362.94 220.04,354.96
             211.75,346.66 208.87,334.38 209.00,323.00
             209.05,318.79 209.37,313.71 212.57,310.57
             216.77,306.44 225.43,307.15 228.55,313.04
             230.39,316.53 229.57,318.46 229.32,322.00
             229.12,324.95 229.68,328.16 230.49,331.00
             234.38,344.59 247.28,345.13 259.00,345.00
             267.22,344.90 275.12,341.96 283.00,339.88
             300.53,335.26 316.05,329.95 332.00,321.23
             340.48,316.59 355.47,307.19 354.29,296.00
             353.84,291.70 351.60,286.58 349.24,283.00
             340.33,269.45 324.51,264.83 309.00,265.00
             301.75,265.09 295.89,267.31 289.00,269.29
             289.00,269.29 271.00,274.35 271.00,274.35
             250.39,281.22 228.67,291.48 207.00,282.38
             201.22,279.96 194.45,275.69 190.32,270.96
             177.79,256.59 172.86,225.47 180.90,208.00
             183.51,202.32 188.34,197.27 193.00,193.18
             200.27,186.81 205.18,186.43 214.00,184.12
             227.76,180.50 240.94,178.35 255.00,176.44 Z" />
</svg>
