<?xml version="1.0" encoding="UTF-8" standalone="no"?>
<!DOCTYPE svg PUBLIC "-//W3C//DTD SVG 20010904//EN"
              "http://www.w3.org/TR/2001/REC-SVG-20010904/DTD/svg10.dtd">

<svg xmlns="http://www.w3.org/2000/svg"
     width="5.55556in" height="5.55556in"
     viewBox="0 0 500 500">
  <path id="Squiggles"
        fill="#39bcf8" stroke="none" stroke-width="1"
        d="M 453.00,32.46
           C 458.04,31.77 464.22,31.53 469.00,33.48
             482.22,38.88 485.45,55.63 486.96,68.17
             487.59,73.45 488.11,74.14 487.97,79.96
             487.49,100.04 482.09,116.11 473.66,134.09
             470.43,140.98 467.81,146.49 463.14,152.71
             459.84,157.11 450.13,167.35 445.99,171.17
             441.04,175.73 436.54,180.50 430.71,184.00
             423.78,188.16 411.70,194.19 404.00,196.27
             404.00,196.27 393.00,198.77 393.00,198.77
             383.11,201.73 378.88,203.98 368.00,204.00
             349.31,204.03 338.01,201.70 320.00,198.75
             320.00,198.75 304.01,195.75 304.01,195.75
             304.01,195.75 297.73,193.81 297.73,193.81
             290.85,192.29 283.65,191.69 277.09,188.91
             261.97,182.52 256.31,176.56 243.09,167.59
             238.67,164.59 230.95,159.13 226.00,157.73
             221.41,156.27 210.78,156.85 206.00,157.73
             206.00,157.73 193.00,161.76 193.00,161.76
             175.04,166.20 162.94,166.71 150.04,181.92
             150.04,181.92 135.54,202.00 135.54,202.00
             135.54,202.00 131.08,209.72 131.08,209.72
             131.08,209.72 114.22,231.15 114.22,231.15
             105.90,240.95 97.62,249.12 84.00,249.91
             79.92,250.14 77.71,249.59 74.00,247.98
             71.35,246.84 68.46,245.58 66.32,243.61
             52.66,230.99 59.60,214.81 64.15,200.00
             64.15,200.00 66.97,192.00 66.97,192.00
             66.97,192.00 66.97,186.00 66.97,186.00
             67.55,183.56 70.17,174.18 71.24,172.01
             75.62,163.12 89.10,146.66 95.96,139.02
             108.62,124.95 123.29,108.80 140.00,99.51
             150.41,93.73 161.98,89.67 173.00,85.33
             173.00,85.33 183.00,80.83 183.00,80.83
             183.00,80.83 190.72,78.24 190.72,78.24
             190.72,78.24 197.01,75.36 197.01,75.36
             197.01,75.36 207.00,72.79 207.00,72.79
             222.64,68.12 231.52,64.35 248.00,69.75
             259.30,73.45 267.64,80.19 277.09,86.93
             299.77,103.10 324.50,120.28 354.00,115.56
             360.34,114.55 381.28,108.35 387.00,105.76
             387.00,105.76 401.00,98.36 401.00,98.36
             409.02,94.45 417.20,91.34 422.82,83.91
             426.06,79.63 429.01,75.18 430.56,70.00
             430.56,70.00 433.22,55.17 433.22,55.17
             433.22,55.17 435.43,49.13 435.43,49.13
             435.43,49.13 437.47,43.14 437.47,43.14
             440.61,37.10 446.65,33.89 453.00,32.46 Z
           M 410.00,213.72
           C 424.11,210.65 436.04,222.10 439.20,235.00
             440.85,241.75 443.55,251.07 443.88,257.96
             444.39,268.66 440.18,286.53 437.09,297.00
             437.09,297.00 433.01,307.00 433.01,307.00
             424.02,328.62 416.40,338.86 399.19,354.65
             395.18,358.33 391.60,362.42 387.00,365.43
             373.25,374.40 359.63,378.11 344.00,381.88
             333.81,384.35 335.76,385.98 324.00,386.00
             324.00,386.00 313.00,386.00 313.00,386.00
             313.00,386.00 299.00,384.74 299.00,384.74
             299.00,384.74 292.00,383.09 292.00,383.09
             292.00,383.09 265.00,379.53 265.00,379.53
             260.60,378.68 258.97,377.29 256.00,376.49
             256.00,376.49 248.00,375.12 248.00,375.12
             239.28,373.21 231.06,370.57 223.01,366.67
             219.69,365.07 217.85,363.27 214.91,361.21
             203.89,353.52 187.52,339.17 174.00,339.00
             161.09,338.85 156.61,341.35 144.96,344.62
             126.97,349.66 121.66,347.65 107.17,362.17
             107.17,362.17 75.66,405.72 75.66,405.72
             71.05,410.98 61.93,422.70 56.49,426.38
             53.93,428.11 50.91,428.79 48.00,429.66
             38.73,432.44 32.67,433.30 24.00,427.37
             18.11,423.33 17.01,420.55 15.17,414.04
             14.51,411.70 13.33,409.32 13.13,406.91
             12.50,399.33 19.34,383.53 21.64,376.00
             21.64,376.00 24.49,359.00 24.49,359.00
             25.70,354.77 27.49,352.69 29.67,349.01
             37.81,335.30 50.48,321.05 61.72,309.72
             72.37,298.97 80.74,290.15 94.00,282.26
             94.00,282.26 131.01,265.97 131.01,265.97
             145.07,260.11 172.12,249.56 187.00,249.23
             205.03,248.83 217.55,258.25 231.28,268.29
             248.47,280.87 272.97,297.74 295.00,298.00
             302.41,298.08 309.76,298.35 316.91,296.02
             316.91,296.02 323.09,293.68 323.09,293.68
             323.09,293.68 333.00,291.25 333.00,291.25
             341.16,288.58 348.53,283.99 356.17,280.24
             367.41,274.72 372.74,273.65 380.47,262.72
             391.68,246.85 385.18,230.19 397.43,219.47
             400.84,216.49 405.75,215.13 410.00,213.72 Z" />
</svg>
