<svg id="Layer_1" data-name="Layer 1" xmlns="http://www.w3.org/2000/svg" viewBox="0 0 248.465 246.149"><path d="M11.952,96.134a467.624,467.624,0,0,1,56-34.641q14.252-7.461,29.019-13.88c8.288-3.6,16.7-6.948,24.663-11.253,9.81-5.306,18.922-12.2,25.858-20.994a8.218,8.218,0,0,0,2.211-5.338,7.68,7.68,0,0,0-2.211-5.338,7.594,7.594,0,0,0-5.338-2.211c-1.862.083-4.128.677-5.338,2.211A68.892,68.892,0,0,1,126.61,15.138q-.612.505-1.235,1c-.432.342-1.334.881.435-.333-.215.148-.421.319-.63.474q-1.413,1.053-2.874,2.042c-1.874,1.27-3.8,2.464-5.762,3.593-7.824,4.5-16.184,7.943-24.467,11.489A453.908,453.908,0,0,0,35.066,62.733Q19.306,72.308,4.331,83.1A8.158,8.158,0,0,0,.862,87.609a7.713,7.713,0,0,0,.761,5.817c2.045,3.171,6.9,5.173,10.329,2.708Z" transform="translate(-0.608 -2.473)" style="fill:#00aeef"/><path d="M77.415,47.209q7.933,38.407,16.38,76.708,8.4,38.1,17.31,76.079,5.052,21.545,10.267,43.051a7.619,7.619,0,0,0,9.286,5.272,7.707,7.707,0,0,0,5.273-9.286q-9.254-38.173-18-76.467-8.682-38.016-16.858-76.147-4.631-21.594-9.1-43.224c-.8-3.874-5.582-6.472-9.287-5.273a7.733,7.733,0,0,0-5.272,9.287Z" transform="translate(-0.608 -2.473)" style="fill:#00aeef"/><path d="M212.243,16.4A56.826,56.826,0,0,0,191.38,6.789c-6.167-1.314-12.982-1.743-19.018.451A26.178,26.178,0,0,0,158,19.148a34.906,34.906,0,0,0-3.546,20.646c1.793,15.113,9.242,28.7,18.152,40.786a184.2,184.2,0,0,0,29.814,32.341c5.261,4.4,10.708,8.6,15.506,13.519,1.273,1.305,2.5,2.656,3.664,4.058q.318.384.631.772c1.109,1.379-.921-1.254-.066-.1.57.769,1.136,1.54,1.675,2.331a58.945,58.945,0,0,1,5.585,10.314l-.761-1.8a74.094,74.094,0,0,1,4.87,18.282l-.27-2.007a72.361,72.361,0,0,1,.1,18.925l.27-2.007a61.01,61.01,0,0,1-4.024,15.046l.761-1.8a53,53,0,0,1-3.715,7.247q-1.014,1.64-2.157,3.2c-.188.257-.866,1.139-.028.055.878-1.135.037-.057-.159.184q-.66.809-1.358,1.585a39.405,39.405,0,0,1-2.863,2.874q-.666.6-1.363,1.176c-.437.358-1.541,1.053.411-.3-.289.2-.565.423-.852.628a35.317,35.317,0,0,1-6.6,3.7l1.8-.761a35.049,35.049,0,0,1-8.8,2.384l2.007-.269a38.083,38.083,0,0,1-9.677-.042l2.006.269a45.422,45.422,0,0,1-11.387-3.185l1.8.761a55.4,55.4,0,0,1-7.644-4.021q-1.889-1.188-3.685-2.512c-.292-.215-.58-.435-.87-.652-.738-.553,1.343,1.07.315.234-.694-.565-1.384-1.132-2.063-1.716a8.037,8.037,0,0,0-5.338-2.211,7.686,7.686,0,0,0-5.338,2.211c-2.594,2.826-3.2,7.928,0,10.677,7.092,6.093,15.12,11.091,24.162,13.7a45.19,45.19,0,0,0,24.53.333c16.708-4.7,28.045-19.553,32.765-35.686,5.2-17.763,2.969-37.722-4.816-54.382a69.2,69.2,0,0,0-15.714-20.961c-5.656-5.279-11.911-9.863-17.634-15.065A173.7,173.7,0,0,1,189.7,78.239c-.723-.9-1.455-1.793-2.147-2.715.086.114,1.1,1.435.33.424l-.424-.555q-.636-.837-1.264-1.68c-1.337-1.8-2.653-3.613-3.919-5.461A106.407,106.407,0,0,1,175.509,57q-1.5-2.9-2.775-5.91l.761,1.8a58.748,58.748,0,0,1-4.111-14.284l.269,2.007a37.129,37.129,0,0,1-.1-9.692l-.269,2.007a25.534,25.534,0,0,1,1.662-6.216l-.761,1.8a20.45,20.45,0,0,1,1.727-3.21c.168-.253.355-.493.523-.744.48-.716-1.275,1.546-.535.707.388-.439.771-.877,1.189-1.287.377-.369.779-.7,1.173-1.051.639-.564-1.645,1.2-.745.574.231-.161.458-.326.693-.481a19.429,19.429,0,0,1,2.937-1.578l-1.8.761a21.786,21.786,0,0,1,5.3-1.462l-2.007.27a30.092,30.092,0,0,1,7.965.118l-2.007-.27a44.087,44.087,0,0,1,10.733,3.022l-1.8-.762a58.789,58.789,0,0,1,11.091,6.318,7.619,7.619,0,0,0,5.817.762,7.705,7.705,0,0,0,4.512-3.47c2.059-3.9.729-7.867-2.709-10.329Z" transform="translate(-0.608 -2.473)" style="fill:#00aeef"/></svg>