<?xml version="1.0" encoding="UTF-8" standalone="no"?>
<!DOCTYPE svg PUBLIC "-//W3C//DTD SVG 20010904//EN"
              "http://www.w3.org/TR/2001/REC-SVG-20010904/DTD/svg10.dtd">

<svg xmlns="http://www.w3.org/2000/svg"
     width="2in" height="2in"
     viewBox="0 0 600 600">
  <path id="orange"
        fill="#ffb115" stroke="none" stroke-width="1"
        d="M 37.96,326.00
           C 34.39,321.49 34.51,313.30 34.18,307.58
             34.18,307.58 32.80,292.00 32.80,292.00
             32.80,292.00 31.02,285.00 31.02,285.00
             31.02,285.00 31.02,276.00 31.02,276.00
             31.02,276.00 29.92,259.00 29.92,259.00
             29.92,259.00 29.08,251.00 29.08,251.00
             29.08,251.00 29.80,242.00 29.80,242.00
             29.80,242.00 27.97,206.00 27.97,206.00
             27.97,206.00 27.18,195.17 27.18,195.17
             27.18,195.17 27.18,189.92 27.18,189.92
             27.18,189.92 25.40,176.00 25.40,176.00
             25.40,176.00 23.00,128.00 23.00,128.00
             23.23,108.75 27.62,87.27 52.00,88.76
             59.60,89.22 66.06,93.85 70.57,99.80
             70.57,99.80 74.78,106.26 74.78,106.26
             74.78,106.26 91.28,126.57 91.28,126.57
             108.56,146.61 112.89,154.34 127.54,174.72
             127.54,174.72 144.14,197.01 144.14,197.01
             144.14,197.01 149.56,205.71 149.56,205.71
             149.56,205.71 163.97,224.72 163.97,224.72
             174.00,236.49 183.74,247.98 192.25,260.93
             195.82,266.36 201.07,271.39 202.00,278.00
             206.57,279.60 209.91,286.97 212.77,291.01
             212.77,291.01 235.84,325.09 235.84,325.09
             235.84,325.09 283.57,388.28 283.57,388.28
             283.57,388.28 290.87,403.20 290.87,403.20
             290.87,403.20 297.92,413.83 297.92,413.83
             297.92,413.83 301.48,420.73 301.48,420.73
             301.48,420.73 310.85,434.83 310.85,434.83
             310.85,434.83 324.79,456.01 324.79,456.01
             324.79,456.01 329.22,464.58 329.22,464.58
             333.56,471.61 339.14,476.92 338.62,486.00
             337.70,502.10 321.73,511.51 307.00,505.30
             302.60,503.45 299.70,499.81 297.11,495.98
             294.65,492.32 293.61,491.41 293.00,487.00
             293.00,487.00 290.00,487.00 290.00,487.00
             288.17,478.56 285.13,476.89 280.80,470.00
             280.80,470.00 264.67,445.83 264.67,445.83
             264.67,445.83 249.88,419.39 249.88,419.39
             249.88,419.39 243.37,408.28 243.37,408.28
             243.37,408.28 234.00,394.00 234.00,394.00
             224.69,399.36 214.10,400.95 204.00,403.97
             204.00,403.97 197.00,406.31 197.00,406.31
             197.00,406.31 186.00,408.69 186.00,408.69
             186.00,408.69 178.01,411.14 178.01,411.14
             178.01,411.14 167.99,412.44 167.99,412.44
             167.99,412.44 155.00,415.75 155.00,415.75
             155.00,415.75 133.04,418.84 133.04,418.84
             133.04,418.84 111.00,427.18 111.00,427.18
             111.00,427.18 92.58,435.34 92.58,435.34
             92.58,435.34 85.00,437.64 85.00,437.64
             82.37,438.59 76.45,440.88 74.82,443.30
             73.49,445.87 74.67,450.04 74.82,453.00
             74.82,453.00 74.82,461.00 74.82,461.00
             74.67,466.86 76.12,473.34 74.82,479.00
             77.52,481.26 76.86,482.79 77.16,486.00
             77.16,486.00 78.88,503.00 78.88,503.00
             81.01,518.09 85.83,539.14 81.29,554.00
             77.47,566.50 62.99,572.92 51.04,567.78
             43.06,564.35 38.30,555.45 38.24,547.00
             38.24,547.00 38.88,538.00 38.88,538.00
             38.88,538.00 36.87,517.00 36.87,517.00
             36.87,517.00 35.17,508.00 35.17,508.00
             35.17,508.00 32.84,480.00 32.84,480.00
             32.84,480.00 30.34,462.00 30.34,462.00
             30.34,462.00 30.34,454.00 30.34,454.00
             29.90,441.36 31.23,429.51 32.66,417.00
             32.66,417.00 33.67,405.96 33.67,405.96
             33.67,405.96 37.68,385.00 37.68,385.00
             37.68,385.00 39.00,363.00 39.00,363.00
             39.01,354.95 39.06,346.90 37.96,338.91
             37.25,334.21 35.28,330.17 37.96,326.00 Z
           M 70.00,169.00
           C 68.45,173.20 69.96,183.22 70.51,188.00
             70.51,188.00 70.51,197.00 70.51,197.00
             70.51,197.00 72.84,218.00 72.84,218.00
             72.84,218.00 72.84,227.00 72.84,227.00
             72.84,227.00 73.74,241.00 73.74,241.00
             73.74,241.00 73.74,251.00 73.74,251.00
             73.74,251.00 74.54,263.00 74.54,263.00
             74.54,263.00 75.65,288.00 75.65,288.00
             75.65,288.00 77.00,294.00 77.00,294.00
             77.00,294.00 77.57,304.00 77.57,304.00
             77.57,304.00 79.78,323.00 79.78,323.00
             79.90,327.29 81.51,333.13 79.78,337.00
             84.07,344.10 82.47,345.64 82.74,353.00
             83.04,361.16 83.86,379.08 80.00,386.00
             80.00,386.00 80.00,391.00 80.00,391.00
             86.19,392.24 86.87,390.27 92.03,387.84
             98.10,385.00 106.65,381.20 113.00,379.49
             113.00,379.49 133.00,374.30 133.00,374.30
             133.00,374.30 150.96,372.35 150.96,372.35
             150.96,372.35 160.01,369.44 160.01,369.44
             160.01,369.44 173.00,367.53 173.00,367.53
             173.00,367.53 182.00,364.77 182.00,364.77
             182.00,364.77 205.00,359.00 205.00,359.00
             205.00,359.00 178.45,318.72 178.45,318.72
             178.45,318.72 168.91,303.61 168.91,303.61
             168.91,303.61 161.53,293.71 161.53,293.71
             161.53,293.71 147.28,272.91 147.28,272.91
             147.28,272.91 123.56,244.72 123.56,244.72
             123.56,244.72 101.95,213.28 101.95,213.28
             101.95,213.28 87.16,191.71 87.16,191.71
             87.16,191.71 70.00,169.00 70.00,169.00 Z
           M 534.00,425.00
           C 534.00,425.00 526.37,440.05 526.37,440.05
             522.87,445.70 513.79,453.76 507.91,457.00
             507.91,457.00 492.00,464.82 492.00,464.82
             492.00,464.82 480.00,467.83 480.00,467.83
             469.17,470.60 464.86,472.75 453.00,472.98
             439.91,473.23 415.76,465.35 406.18,456.71
             402.56,453.45 391.43,437.47 389.23,433.00
             389.23,433.00 386.08,425.09 386.08,425.09
             383.62,419.53 381.33,417.26 378.95,409.83
             378.95,409.83 376.79,400.00 376.79,400.00
             376.79,400.00 374.46,392.00 374.46,392.00
             372.93,385.35 373.05,374.99 373.00,368.00
             372.93,357.00 373.65,352.26 378.22,342.09
             378.22,342.09 381.40,335.91 381.40,335.91
             381.40,335.91 385.27,325.72 385.27,325.72
             385.27,325.72 387.57,317.00 387.57,317.00
             387.57,317.00 393.05,303.09 393.05,303.09
             399.95,288.78 410.56,281.90 424.00,274.62
             424.00,274.62 431.00,270.86 431.00,270.86
             431.00,270.86 439.00,268.80 439.00,268.80
             442.58,267.75 445.13,266.57 449.00,266.17
             453.99,265.67 462.07,266.75 467.00,267.89
             478.48,270.53 493.31,277.44 496.00,290.00
             505.56,287.47 514.77,287.73 522.57,294.72
             522.57,294.72 529.17,302.04 529.17,302.04
             529.17,302.04 543.72,318.98 543.72,318.98
             548.28,324.98 554.81,330.23 556.00,338.00
             561.69,339.91 567.14,349.07 570.50,354.00
             578.58,365.84 584.70,378.34 591.28,391.00
             595.31,398.74 599.74,407.01 597.87,416.00
             595.43,427.77 585.69,434.05 574.00,433.18
             571.40,432.99 568.52,432.63 566.17,431.44
             563.22,429.96 560.35,426.90 558.43,424.25
             553.86,417.92 550.91,409.15 547.64,402.17
             547.64,402.17 540.00,390.00 540.00,390.00
             540.00,390.00 538.51,407.00 538.51,407.00
             538.51,407.00 534.00,425.00 534.00,425.00 Z
           M 471.00,316.00
           C 462.48,316.07 461.16,311.74 455.00,310.43
             450.55,309.48 442.20,314.01 438.51,316.55
             429.29,322.89 429.80,331.83 426.41,341.00
             426.41,341.00 417.68,363.00 417.68,363.00
             416.73,366.99 416.99,372.79 417.00,377.00
             417.02,389.39 420.20,396.52 425.96,407.17
             428.58,412.00 430.65,419.11 435.27,422.50
             448.05,431.85 463.57,428.81 477.00,423.09
             483.01,420.53 487.57,419.76 490.45,412.96
             498.01,395.11 497.33,374.93 493.77,356.17
             493.77,356.17 491.84,349.96 491.84,349.96
             490.06,343.00 490.06,339.09 487.00,332.00
             487.00,332.00 489.00,332.00 489.00,332.00
             489.00,332.00 489.00,330.00 489.00,330.00
             486.07,326.18 485.40,320.72 485.00,316.00
             477.79,316.49 475.92,319.59 471.00,316.00 Z" />
</svg>
