<?xml version="1.0" encoding="UTF-8" standalone="no"?>
<!DOCTYPE svg PUBLIC "-//W3C//DTD SVG 20010904//EN"
              "http://www.w3.org/TR/2001/REC-SVG-20010904/DTD/svg10.dtd">

<svg xmlns="http://www.w3.org/2000/svg"
     width="2in" height="2in"
     viewBox="0 0 600 600">
  <path id="txt"
        fill="white" stroke="none" stroke-width="1"
        d="M 410.00,284.00
           C 390.98,294.05 391.35,296.16 376.25,310.51
             371.70,314.83 365.52,322.06 359.72,324.69
             345.78,330.99 332.35,323.45 331.18,308.00
             330.22,295.29 338.75,291.51 346.90,284.14
             346.90,284.14 361.87,268.53 361.87,268.53
             361.87,268.53 380.58,255.13 380.58,255.13
             387.52,249.80 395.74,248.64 396.89,243.94
             397.56,241.18 393.97,232.89 392.79,230.00
             392.79,230.00 385.55,210.17 385.55,210.17
             385.55,210.17 380.13,198.00 380.13,198.00
             380.13,198.00 373.31,183.00 373.31,183.00
             373.31,183.00 359.45,148.00 359.45,148.00
             359.45,148.00 356.32,141.00 356.32,141.00
             356.32,141.00 349.41,118.00 349.41,118.00
             349.41,118.00 345.16,107.00 345.16,107.00
             345.16,107.00 339.55,90.17 339.55,90.17
             339.55,90.17 336.83,84.91 336.83,84.91
             336.83,84.91 333.50,76.00 333.50,76.00
             331.55,70.99 328.85,65.55 325.54,61.28
             322.83,57.80 318.47,53.95 316.97,49.83
             311.66,35.33 321.03,20.95 337.00,22.18
             345.75,22.86 349.26,27.52 354.37,34.00
             354.37,34.00 360.74,42.09 360.74,42.09
             364.49,47.94 371.25,64.06 373.96,71.00
             373.96,71.00 378.70,82.00 378.70,82.00
             378.70,82.00 382.44,96.00 382.44,96.00
             382.44,96.00 386.53,106.00 386.53,106.00
             386.53,106.00 392.56,125.00 392.56,125.00
             392.56,125.00 395.68,132.00 395.68,132.00
             395.68,132.00 400.81,147.00 400.81,147.00
             400.81,147.00 405.42,157.00 405.42,157.00
             405.42,157.00 408.74,166.00 408.74,166.00
             408.74,166.00 415.48,180.04 415.48,180.04
             415.48,180.04 419.95,192.00 419.95,192.00
             419.95,192.00 425.70,205.04 425.70,205.04
             426.71,208.28 429.91,219.55 432.02,221.50
             434.69,223.98 438.60,221.10 441.00,219.55
             448.28,214.84 456.01,210.51 464.00,207.09
             464.00,207.09 477.04,202.06 477.04,202.06
             477.04,202.06 509.00,187.91 509.00,187.91
             509.00,187.91 526.00,183.32 526.00,183.32
             526.00,183.32 534.00,179.83 534.00,179.83
             534.00,179.83 548.00,175.12 548.00,175.12
             548.00,175.12 557.00,171.24 557.00,171.24
             566.54,167.91 577.15,168.43 582.71,178.17
             587.02,185.71 586.36,198.91 578.96,204.35
             578.96,204.35 557.58,213.49 557.58,213.49
             557.58,213.49 548.00,216.38 548.00,216.38
             548.00,216.38 538.00,220.54 538.00,220.54
             538.00,220.54 524.00,224.28 524.00,224.28
             524.00,224.28 496.00,237.05 496.00,237.05
             496.00,237.05 471.00,248.13 471.00,248.13
             471.00,248.13 459.17,254.24 459.17,254.24
             459.17,254.24 452.41,259.01 452.41,259.01
             450.02,260.56 446.63,262.09 445.90,265.09
             445.07,268.47 448.92,278.40 450.04,282.00
             450.04,282.00 458.72,315.00 458.72,315.00
             458.72,315.00 469.12,349.00 469.12,349.00
             469.12,349.00 475.30,374.00 475.30,374.00
             475.30,374.00 478.36,383.00 478.36,383.00
             478.36,383.00 484.68,408.96 484.68,408.96
             484.68,408.96 487.63,415.17 487.63,415.17
             487.63,415.17 491.21,425.00 491.21,425.00
             494.12,433.14 504.38,449.89 504.42,457.00
             504.43,458.65 503.65,461.34 503.22,463.00
             502.10,467.31 501.46,469.15 497.90,472.10
             496.15,473.54 494.11,474.83 492.00,475.66
             488.99,476.83 485.21,477.13 482.00,476.96
             467.96,476.17 463.52,458.52 458.64,448.17
             455.69,441.92 454.58,441.77 452.47,434.00
             452.47,434.00 446.42,417.00 446.42,417.00
             446.42,417.00 441.17,395.04 441.17,395.04
             441.17,395.04 438.38,386.96 438.38,386.96
             438.38,386.96 426.69,343.00 426.69,343.00
             426.69,343.00 420.44,324.00 420.44,324.00
             420.44,324.00 414.53,300.00 414.53,300.00
             414.53,300.00 410.00,284.00 410.00,284.00 Z
           M 91.00,304.00
           C 91.00,304.00 87.61,292.17 87.61,292.17
             87.61,292.17 78.46,267.00 78.46,267.00
             78.46,267.00 72.99,255.00 72.99,255.00
             72.99,255.00 66.63,235.17 66.63,235.17
             66.63,235.17 53.59,207.00 53.59,207.00
             53.59,207.00 49.09,195.00 49.09,195.00
             49.09,195.00 44.59,186.00 44.59,186.00
             44.59,186.00 39.28,172.00 39.28,172.00
             39.28,172.00 32.61,158.96 32.61,158.96
             27.42,144.36 35.49,129.93 52.00,131.18
             68.79,132.46 73.45,152.12 79.09,165.00
             79.09,165.00 85.21,179.00 85.21,179.00
             85.21,179.00 91.75,196.00 91.75,196.00
             91.75,196.00 96.13,204.00 96.13,204.00
             96.13,204.00 100.11,214.00 100.11,214.00
             100.11,214.00 103.39,221.00 103.39,221.00
             103.39,221.00 108.97,239.00 108.97,239.00
             108.97,239.00 113.93,249.00 113.93,249.00
             113.93,249.00 125.00,281.00 125.00,281.00
             125.00,281.00 137.00,274.65 137.00,274.65
             137.00,274.65 143.04,270.05 143.04,270.05
             148.14,266.44 157.69,262.08 164.00,262.08
             178.97,262.07 187.18,279.54 179.72,291.91
             177.22,296.07 171.88,298.60 167.91,301.31
             161.38,305.78 147.13,315.35 140.00,318.00
             140.00,318.00 152.21,352.00 152.21,352.00
             152.21,352.00 155.00,362.00 155.00,362.00
             155.00,362.00 158.52,370.00 158.52,370.00
             158.52,370.00 166.76,393.00 166.76,393.00
             169.57,399.36 171.52,410.74 176.00,415.00
             177.38,407.63 188.05,386.30 192.47,380.00
             192.47,380.00 200.32,368.00 200.32,368.00
             201.31,366.65 203.54,364.19 203.57,362.48
             203.62,358.50 196.26,359.34 191.09,355.74
             180.98,348.71 178.84,333.56 187.92,324.79
             194.46,318.47 205.92,319.15 214.00,321.51
             219.32,323.07 224.05,327.42 227.96,322.82
             230.56,319.74 232.45,314.63 234.27,311.00
             234.27,311.00 240.24,300.00 240.24,300.00
             240.24,300.00 248.91,276.17 248.91,276.17
             248.91,276.17 251.48,269.96 251.48,269.96
             254.98,262.88 261.18,258.84 269.00,258.19
             281.16,257.18 289.82,266.08 289.82,278.00
             289.82,285.83 285.70,291.12 282.88,298.00
             278.62,308.40 276.27,319.19 270.39,329.00
             270.39,329.00 263.48,342.00 263.48,342.00
             262.59,343.63 260.25,346.53 260.64,348.38
             261.12,350.63 265.19,352.85 267.00,354.08
             267.00,354.08 287.04,367.22 287.04,367.22
             287.04,367.22 297.00,372.31 297.00,372.31
             297.00,372.31 315.00,384.08 315.00,384.08
             315.00,384.08 326.00,389.95 326.00,389.95
             326.00,389.95 344.00,403.21 344.00,403.21
             344.00,403.21 353.00,408.25 353.00,408.25
             353.00,408.25 363.00,414.68 363.00,414.68
             368.76,418.33 374.77,422.19 378.52,428.09
             382.10,433.72 383.38,444.02 379.90,449.97
             378.61,452.16 376.26,454.31 374.28,455.91
             371.28,458.34 369.75,458.72 366.00,459.38
             353.31,461.63 345.00,450.65 335.00,444.60
             335.00,444.60 306.99,425.69 306.99,425.69
             306.99,425.69 295.00,418.20 295.00,418.20
             295.00,418.20 286.00,413.53 286.00,413.53
             286.00,413.53 266.00,400.77 266.00,400.77
             266.00,400.77 257.00,395.76 257.00,395.76
             257.00,395.76 237.00,383.00 237.00,383.00
             234.40,390.05 232.24,391.26 228.77,397.00
             228.77,397.00 224.21,406.00 224.21,406.00
             219.06,415.47 220.39,410.97 215.42,423.00
             212.81,429.33 210.15,443.94 206.66,447.90
             201.93,453.25 195.68,453.94 189.00,454.00
             189.00,454.00 199.27,476.57 199.27,476.57
             202.67,481.73 209.11,484.83 208.22,496.00
             206.68,515.07 180.17,521.23 169.56,505.99
             167.76,503.40 167.79,501.66 166.62,499.17
             166.62,499.17 162.87,492.96 162.87,492.96
             162.87,492.96 158.69,483.17 158.69,483.17
             158.69,483.17 152.79,469.83 152.79,469.83
             152.79,469.83 148.69,458.00 148.69,458.00
             148.69,458.00 145.09,450.00 145.09,450.00
             145.09,450.00 139.37,432.01 139.37,432.01
             139.37,432.01 135.97,424.83 135.97,424.83
             135.97,424.83 130.87,409.00 130.87,409.00
             130.87,409.00 127.24,401.00 127.24,401.00
             127.24,401.00 121.32,382.00 121.32,382.00
             121.32,382.00 118.38,376.00 118.38,376.00
             118.38,376.00 112.03,356.00 112.03,356.00
             112.03,356.00 108.95,349.00 108.95,349.00
             108.95,349.00 106.00,340.00 106.00,340.00
             87.43,347.99 84.24,352.73 68.99,364.37
             68.99,364.37 55.91,373.39 55.91,373.39
             48.12,378.91 34.73,386.94 24.83,385.54
             9.89,383.43 2.74,364.76 12.52,353.29
             16.83,348.23 19.88,348.70 23.83,346.75
             23.83,346.75 37.80,338.19 37.80,338.19
             37.80,338.19 55.04,324.60 55.04,324.60
             55.04,324.60 74.09,311.72 74.09,311.72
             78.96,308.80 85.43,304.77 91.00,304.00 Z" />
</svg>
