<?xml version="1.0" encoding="UTF-8" standalone="no"?>
<!DOCTYPE svg PUBLIC "-//W3C//DTD SVG 20010904//EN"
              "http://www.w3.org/TR/2001/REC-SVG-20010904/DTD/svg10.dtd">

<svg xmlns="http://www.w3.org/2000/svg"
     width="2.05667in" height="2.05667in"
     viewBox="0 0 617 617">
  <path id="black"
        fill="black" stroke="none" stroke-width="1"
        d="M 6.00,169.00
           C 12.73,154.47 4.01,149.08 16.17,135.15
             21.47,129.07 43.56,120.80 52.00,117.07
             52.00,117.07 67.00,110.67 67.00,110.67
             67.00,110.67 74.57,107.96 74.57,107.96
             74.57,107.96 105.00,91.82 105.00,91.82
             105.00,91.82 125.09,83.66 125.09,83.66
             125.09,83.66 134.00,81.41 134.00,81.41
             134.00,81.41 154.00,73.96 154.00,73.96
             154.00,73.96 163.00,71.63 163.00,71.63
             163.00,71.63 174.00,68.23 174.00,68.23
             174.00,68.23 188.00,65.03 188.00,65.03
             188.00,65.03 195.00,62.51 195.00,62.51
             195.00,62.51 207.00,59.48 207.00,59.48
             207.00,59.48 216.00,55.80 216.00,55.80
             216.00,55.80 232.00,50.78 232.00,50.78
             232.00,50.78 242.00,46.09 242.00,46.09
             248.44,43.30 266.11,38.20 273.00,38.50
             282.32,38.90 283.78,42.08 290.00,42.88
             290.00,42.88 330.09,46.64 330.09,46.64
             330.09,46.64 346.00,50.85 346.00,50.85
             346.00,50.85 370.00,55.43 370.00,55.43
             370.00,55.43 391.00,61.44 391.00,61.44
             391.00,61.44 420.00,68.95 420.00,68.95
             420.00,68.95 429.58,72.80 429.58,72.80
             429.58,72.80 440.91,76.01 440.91,76.01
             440.91,76.01 456.72,83.80 456.72,83.80
             464.77,88.03 466.91,91.22 471.09,93.83
             481.10,100.08 491.75,104.96 501.00,112.43
             501.00,112.43 510.58,120.57 510.58,120.57
             510.58,120.57 527.25,138.41 527.25,138.41
             527.25,138.41 551.71,160.41 551.71,160.41
             555.73,163.91 560.11,165.64 561.00,171.00
             565.70,172.61 572.88,181.61 577.19,185.42
             577.19,185.42 587.66,194.90 587.66,194.90
             587.66,194.90 592.13,199.54 592.13,199.54
             592.13,199.54 601.91,205.84 601.91,205.84
             608.90,211.61 612.14,219.89 611.89,228.83
             611.80,232.33 611.70,235.67 610.44,239.00
             605.92,250.93 591.50,259.21 579.00,256.00
             579.00,256.00 574.19,273.00 574.19,273.00
             573.41,277.73 573.85,283.02 571.00,287.00
             571.00,287.00 573.00,288.00 573.00,288.00
             573.00,288.00 566.27,312.00 566.27,312.00
             566.27,312.00 560.55,327.00 560.55,327.00
             560.55,327.00 556.34,334.91 556.34,334.91
             556.34,334.91 553.42,343.01 553.42,343.01
             553.42,343.01 550.42,349.00 550.42,349.00
             550.42,349.00 547.34,362.00 547.34,362.00
             547.34,362.00 543.36,374.00 543.36,374.00
             543.36,374.00 538.79,389.00 538.79,389.00
             538.79,389.00 535.37,397.00 535.37,397.00
             535.37,397.00 532.09,406.00 532.09,406.00
             532.09,406.00 528.38,413.00 528.38,413.00
             528.38,413.00 524.81,422.00 524.81,422.00
             524.81,422.00 506.64,450.16 506.64,450.16
             506.64,450.16 503.34,455.56 503.34,455.56
             503.34,455.56 499.18,460.44 499.18,460.44
             499.18,460.44 485.26,481.61 485.26,481.61
             485.26,481.61 467.00,504.00 467.00,504.00
             467.00,504.00 463.00,504.00 463.00,504.00
             461.10,510.96 453.67,515.71 448.34,520.39
             448.34,520.39 432.09,533.75 432.09,533.75
             432.09,533.75 425.86,540.71 425.86,540.71
             425.86,540.71 413.56,551.84 413.56,551.84
             408.46,556.50 396.89,571.06 392.33,577.00
             384.10,587.75 383.73,592.09 371.00,598.34
             367.32,600.15 365.14,601.30 361.00,602.07
             345.99,604.88 338.09,594.32 332.74,591.26
             332.74,591.26 326.00,588.30 326.00,588.30
             326.00,588.30 280.83,563.86 280.83,563.86
             280.83,563.86 263.00,554.93 263.00,554.93
             263.00,554.93 255.00,552.04 255.00,552.04
             255.00,552.04 237.00,542.33 237.00,542.33
             237.00,542.33 229.96,539.40 229.96,539.40
             229.96,539.40 223.00,535.32 223.00,535.32
             223.00,535.32 209.00,529.78 209.00,529.78
             209.00,529.78 195.00,522.05 195.00,522.05
             195.00,522.05 186.00,517.95 186.00,517.95
             186.00,517.95 170.00,507.63 170.00,507.63
             170.00,507.63 156.00,499.31 156.00,499.31
             156.00,499.31 149.01,495.48 149.01,495.48
             149.01,495.48 140.92,490.22 140.92,490.22
             140.92,490.22 124.28,481.44 124.28,481.44
             124.28,481.44 116.23,476.08 116.23,476.08
             113.99,474.24 113.71,473.21 110.87,471.45
             110.87,471.45 104.17,467.83 104.17,467.83
             104.17,467.83 98.91,464.36 98.91,464.36
             98.91,464.36 90.00,459.62 90.00,459.62
             84.51,455.90 70.07,444.26 64.00,443.19
             61.85,442.80 58.45,443.76 56.01,443.90
             53.21,444.06 47.68,443.76 45.00,443.06
             41.61,442.18 39.16,440.92 36.44,438.74
             18.74,424.50 27.68,407.80 25.83,391.00
             25.83,391.00 23.46,380.00 23.46,380.00
             23.46,380.00 22.56,372.00 22.56,372.00
             22.56,372.00 20.24,363.83 20.24,363.83
             20.24,363.83 18.22,342.29 18.22,342.29
             18.22,342.29 17.09,333.00 17.09,333.00
             17.09,333.00 14.89,304.04 14.89,304.04
             14.89,304.04 12.91,296.91 12.91,296.91
             12.91,296.91 12.91,289.00 12.91,289.00
             12.91,289.00 8.96,263.00 8.96,263.00
             8.96,263.00 8.96,253.00 8.96,253.00
             8.96,253.00 7.88,242.04 7.88,242.04
             7.02,235.60 5.92,240.48 6.00,228.00
             6.02,224.82 5.54,223.20 7.94,221.00
             7.94,221.00 7.94,211.00 7.94,211.00
             7.94,211.00 6.77,204.32 6.77,204.32
             6.77,204.32 8.00,202.00 8.00,202.00
             5.84,199.58 7.32,195.98 8.00,193.00
             8.00,193.00 6.41,191.46 6.41,191.46
             6.41,191.46 6.41,174.18 6.41,174.18
             6.41,174.18 8.00,171.00 8.00,171.00
             8.00,171.00 6.00,170.00 6.00,170.00
             6.00,170.00 6.00,169.00 6.00,169.00 Z
           M 316.00,98.00
           C 316.00,98.00 286.00,96.24 286.00,96.24
             286.00,96.24 274.00,96.94 274.00,96.94
             274.00,96.94 262.04,96.94 262.04,96.94
             262.04,96.94 253.96,100.47 253.96,100.47
             253.96,100.47 246.00,102.54 246.00,102.54
             246.00,102.54 227.00,109.70 227.00,109.70
             227.00,109.70 213.00,113.80 213.00,113.80
             213.00,113.80 194.00,118.49 194.00,118.49
             194.00,118.49 182.00,122.13 182.00,122.13
             182.00,122.13 169.09,125.25 169.09,125.25
             169.09,125.25 162.91,128.34 162.91,128.34
             162.91,128.34 148.00,133.28 148.00,133.28
             148.00,133.28 139.83,136.70 139.83,136.70
             139.83,136.70 121.00,144.04 121.00,144.04
             121.00,144.04 110.91,149.71 110.91,149.71
             110.91,149.71 103.61,153.05 103.61,153.05
             103.61,153.05 97.20,157.14 97.20,157.14
             97.20,157.14 88.17,160.45 88.17,160.45
             88.17,160.45 83.00,163.00 83.00,163.00
             85.20,169.75 92.22,171.87 98.00,174.70
             107.39,179.31 103.33,178.41 115.00,182.72
             115.00,182.72 160.17,206.92 160.17,206.92
             167.77,210.99 178.92,214.86 185.00,221.00
             190.91,220.49 194.64,223.06 200.00,225.32
             200.00,225.32 212.00,229.39 212.00,229.39
             212.00,229.39 221.00,234.40 221.00,234.40
             221.00,234.40 233.00,239.94 233.00,239.94
             233.00,239.94 250.00,249.12 250.00,249.12
             250.00,249.12 258.99,252.56 258.99,252.56
             258.99,252.56 265.28,256.97 265.28,256.97
             265.28,256.97 277.99,264.64 277.99,264.64
             277.99,264.64 285.17,267.56 285.17,267.56
             288.96,269.38 302.00,278.10 304.99,278.35
             308.43,278.63 311.33,275.11 313.34,272.72
             318.26,266.83 328.13,257.85 330.00,251.00
             335.83,250.11 339.63,244.47 343.09,240.04
             348.77,232.75 354.80,224.53 361.31,218.00
             361.31,218.00 372.28,206.44 372.28,206.44
             372.28,206.44 382.48,197.00 382.48,197.00
             382.48,197.00 387.49,190.45 387.49,190.45
             387.49,190.45 404.33,172.68 404.33,172.68
             408.96,166.91 412.63,160.55 416.47,154.28
             416.47,154.28 426.79,139.00 426.79,139.00
             428.10,136.99 430.15,133.79 429.30,131.28
             428.51,128.93 424.55,127.90 422.42,126.87
             411.94,121.77 406.78,122.47 398.72,119.22
             392.55,116.73 379.50,113.28 373.00,114.00
             369.56,108.98 360.60,108.69 354.96,107.88
             354.96,107.88 328.00,101.15 328.00,101.15
             323.45,99.98 319.65,100.69 316.00,98.00 Z
           M 479.00,388.00
           C 484.61,384.63 484.52,379.51 486.76,374.00
             488.45,369.84 489.37,368.92 490.77,364.00
             490.77,364.00 492.63,356.00 492.63,356.00
             492.63,356.00 495.75,348.00 495.75,348.00
             495.75,348.00 499.13,332.00 499.13,332.00
             499.13,332.00 503.10,324.00 503.10,324.00
             503.10,324.00 507.05,313.00 507.05,313.00
             507.05,313.00 511.37,305.00 511.37,305.00
             511.37,305.00 518.39,284.00 518.39,284.00
             518.39,284.00 522.07,257.58 522.07,257.58
             522.07,257.58 524.43,251.00 524.43,251.00
             524.43,251.00 527.52,238.00 527.52,238.00
             529.40,232.36 531.90,227.02 532.66,221.02
             533.31,215.89 528.99,213.69 525.99,210.19
             514.89,197.28 510.60,196.08 499.46,186.03
             499.46,186.03 490.71,177.00 490.71,177.00
             490.71,177.00 483.66,170.78 483.66,170.78
             481.43,168.54 478.06,163.91 474.87,163.34
             469.51,162.39 463.36,173.91 460.69,177.72
             460.69,177.72 450.33,193.83 450.33,193.83
             450.33,193.83 439.32,208.83 439.32,208.83
             439.32,208.83 433.37,215.02 433.37,215.02
             433.37,215.02 423.63,226.75 423.63,226.75
             423.63,226.75 401.73,247.09 401.73,247.09
             401.73,247.09 391.67,259.12 391.67,259.12
             391.67,259.12 385.39,268.05 385.39,268.05
             385.39,268.05 369.49,285.02 369.49,285.02
             369.49,285.02 361.82,292.34 361.82,292.34
             361.82,292.34 347.13,310.96 347.13,310.96
             344.08,314.83 338.52,322.31 337.42,327.00
             336.16,332.37 338.89,336.25 339.75,341.00
             339.75,341.00 341.03,350.00 341.03,350.00
             341.03,350.00 341.56,359.00 341.56,359.00
             341.56,359.00 343.89,375.00 343.89,375.00
             343.89,375.00 353.54,406.00 353.54,406.00
             353.54,406.00 356.96,431.00 356.96,431.00
             357.27,437.87 357.43,447.12 361.00,453.00
             359.25,456.13 361.22,463.16 361.79,467.00
             361.79,467.00 363.05,474.00 363.05,474.00
             363.05,474.00 363.05,482.00 363.05,482.00
             363.05,482.00 364.95,490.00 364.95,490.00
             364.95,490.00 366.00,500.00 366.00,500.00
             366.00,500.00 369.00,500.00 369.00,500.00
             369.00,500.00 373.00,512.00 373.00,512.00
             374.95,511.84 376.12,511.89 377.99,511.02
             377.99,511.02 402.39,489.28 402.39,489.28
             412.36,480.56 425.60,469.59 434.01,459.77
             434.01,459.77 460.58,423.17 460.58,423.17
             466.99,414.66 479.61,398.98 479.00,388.00 Z
           M 309.76,474.00
           C 311.99,470.44 310.46,469.71 309.76,466.00
             309.76,466.00 309.76,458.00 309.76,458.00
             309.76,458.00 308.30,451.00 308.30,451.00
             308.30,451.00 306.46,435.00 306.46,435.00
             306.46,435.00 305.17,428.00 305.17,428.00
             305.17,428.00 304.54,419.00 304.54,419.00
             304.54,419.00 295.83,391.96 295.83,391.96
             293.03,381.64 292.10,372.57 291.02,362.00
             291.02,362.00 291.02,355.00 291.02,355.00
             291.02,355.00 288.30,345.00 288.30,345.00
             287.75,341.54 285.00,327.50 283.35,325.21
             281.64,322.83 274.02,319.09 271.00,317.18
             271.00,317.18 257.00,309.96 257.00,309.96
             257.00,309.96 234.99,296.55 234.99,296.55
             234.99,296.55 207.00,282.76 207.00,282.76
             207.00,282.76 187.04,273.16 187.04,273.16
             187.04,273.16 177.99,270.80 177.99,270.80
             173.43,269.19 173.26,268.21 170.12,266.74
             170.12,266.74 156.00,261.27 156.00,261.27
             156.00,261.27 122.00,242.69 122.00,242.69
             122.00,242.69 112.00,236.64 112.00,236.64
             112.00,236.64 92.96,227.78 92.96,227.78
             92.96,227.78 84.00,222.73 84.00,222.73
             80.55,221.23 78.83,221.41 75.01,219.22
             72.34,217.68 68.74,214.35 65.98,213.70
             59.25,212.12 60.92,223.74 60.67,228.00
             60.67,228.00 61.98,255.00 61.98,255.00
             63.18,262.11 65.13,267.75 65.21,275.04
             65.21,275.04 69.41,306.00 69.41,306.00
             69.41,306.00 70.25,328.00 70.25,328.00
             70.25,328.00 72.14,336.00 72.14,336.00
             72.14,336.00 72.14,345.09 72.14,345.09
             72.14,345.09 73.85,354.00 73.85,354.00
             73.85,354.00 78.06,378.00 78.06,378.00
             78.59,380.83 79.03,386.35 80.43,388.70
             81.84,391.07 84.72,391.81 87.00,393.13
             87.00,393.13 98.96,400.77 98.96,400.77
             98.96,400.77 106.75,406.24 106.75,406.24
             106.75,406.24 113.57,410.05 113.57,410.05
             113.57,410.05 124.42,417.67 124.42,417.67
             124.42,417.67 135.72,423.70 135.72,423.70
             135.72,423.70 146.73,430.15 146.73,430.15
             146.73,430.15 152.33,435.14 152.33,435.14
             152.33,435.14 167.91,445.26 167.91,445.26
             167.91,445.26 177.00,449.62 177.00,449.62
             177.00,449.62 193.00,458.88 193.00,458.88
             193.00,458.88 217.00,473.65 217.00,473.65
             217.00,473.65 225.00,477.28 225.00,477.28
             225.00,477.28 233.00,481.70 233.00,481.70
             233.00,481.70 243.00,485.95 243.00,485.95
             243.00,485.95 267.00,497.76 267.00,497.76
             267.00,497.76 277.00,502.75 277.00,502.75
             277.00,502.75 286.00,506.05 286.00,506.05
             286.00,506.05 294.00,510.60 294.00,510.60
             294.00,510.60 302.00,514.18 302.00,514.18
             307.90,517.20 313.09,522.12 320.00,522.00
             319.03,515.24 317.73,514.52 316.45,509.04
             316.45,509.04 314.17,494.00 314.17,494.00
             313.43,487.82 313.80,478.90 309.76,474.00 Z" />
    <path id="white"
        fill="white" stroke="none" stroke-width="1"
        d="M 86.00,165.00
           C 86.00,165.00 96.00,159.96 96.00,159.96
             96.00,159.96 105.00,155.00 105.00,155.00
             105.00,155.00 135.28,140.26 135.28,140.26
             135.28,140.26 157.00,132.69 157.00,132.69
             157.00,132.69 171.00,127.00 171.00,127.00
             171.00,127.00 187.00,122.85 187.00,122.85
             187.00,122.85 226.00,112.09 226.00,112.09
             226.00,112.09 262.16,99.25 262.16,99.25
             262.16,99.25 287.00,98.49 287.00,98.49
             287.00,98.49 295.41,99.39 295.41,99.39
             295.41,99.39 306.00,99.39 306.00,99.39
             306.00,99.39 318.83,101.94 318.83,101.94
             318.83,101.94 326.01,102.92 326.01,102.92
             326.01,102.92 349.00,108.96 349.00,108.96
             349.00,108.96 367.00,112.54 367.00,112.54
             367.00,112.54 377.00,115.96 377.00,115.96
             377.00,115.96 391.04,118.84 391.04,118.84
             391.04,118.84 400.00,122.23 400.00,122.23
             400.00,122.23 417.00,126.94 417.00,126.94
             417.00,126.94 428.00,131.00 428.00,131.00
             426.61,137.55 421.47,142.50 417.94,148.00
             412.78,156.03 408.48,164.54 402.19,171.83
             402.19,171.83 393.19,181.42 393.19,181.42
             393.19,181.42 380.58,195.54 380.58,195.54
             380.58,195.54 369.43,205.88 369.43,205.88
             369.43,205.88 358.13,218.09 358.13,218.09
             358.13,218.09 337.72,242.91 337.72,242.91
             337.72,242.91 328.19,252.07 328.19,252.07
             328.19,252.07 319.34,262.83 319.34,262.83
             319.34,262.83 307.00,277.00 307.00,277.00
             307.00,277.00 287.00,266.22 287.00,266.22
             287.00,266.22 275.00,260.15 275.00,260.15
             275.00,260.15 261.00,251.14 261.00,251.14
             261.00,251.14 249.00,246.11 249.00,246.11
             249.00,246.11 214.00,227.81 214.00,227.81
             214.00,227.81 202.00,223.90 202.00,223.90
             202.00,223.90 192.00,219.47 192.00,219.47
             192.00,219.47 184.00,216.80 184.00,216.80
             184.00,216.80 168.00,207.90 168.00,207.90
             168.00,207.90 161.00,204.77 161.00,204.77
             161.00,204.77 122.00,183.37 122.00,183.37
             122.00,183.37 108.00,177.71 108.00,177.71
             108.00,177.71 86.00,165.00 86.00,165.00 Z
           M 473.00,164.00
           C 473.00,164.00 497.07,186.81 497.07,186.81
             497.07,186.81 519.27,206.04 519.27,206.04
             519.27,206.04 530.11,218.32 530.11,218.32
             530.11,218.32 530.11,221.98 530.11,221.98
             530.11,221.98 524.78,239.00 524.78,239.00
             524.78,239.00 522.91,248.00 522.91,248.00
             522.91,248.00 520.28,255.58 520.28,255.58
             520.28,255.58 516.05,284.04 516.05,284.04
             516.05,284.04 509.54,303.00 509.54,303.00
             509.54,303.00 505.57,311.00 505.57,311.00
             505.57,311.00 501.53,322.00 501.53,322.00
             501.53,322.00 497.13,331.00 497.13,331.00
             497.13,331.00 493.96,346.00 493.96,346.00
             493.96,346.00 487.34,367.00 487.34,367.00
             487.34,367.00 470.80,405.00 470.80,405.00
             470.80,405.00 438.26,450.83 438.26,450.83
             438.26,450.83 426.56,464.56 426.56,464.56
             426.56,464.56 412.40,477.20 412.40,477.20
             412.40,477.20 387.20,500.35 387.20,500.35
             387.20,500.35 377.00,510.00 377.00,510.00
             377.00,510.00 375.00,510.00 375.00,510.00
             375.00,510.00 368.49,497.00 368.49,497.00
             368.49,497.00 365.40,482.17 365.40,482.17
             365.40,482.17 364.70,472.00 364.70,472.00
             364.70,472.00 359.00,436.00 359.00,436.00
             359.00,436.00 359.00,428.00 359.00,428.00
             357.52,415.64 355.35,402.84 351.54,391.00
             351.54,391.00 345.90,375.00 345.90,375.00
             345.90,375.00 343.83,354.00 343.83,354.00
             343.83,354.00 341.95,343.00 341.95,343.00
             341.03,335.22 337.97,331.38 340.07,326.00
             342.74,319.18 348.35,313.36 352.80,307.72
             352.80,307.72 361.74,295.75 361.74,295.75
             361.74,295.75 370.83,286.84 370.83,286.84
             370.83,286.84 379.88,276.84 379.88,276.84
             379.88,276.84 385.35,271.74 385.35,271.74
             385.35,271.74 393.16,261.00 393.16,261.00
             393.16,261.00 403.88,248.17 403.88,248.17
             403.88,248.17 425.71,227.96 425.71,227.96
             425.71,227.96 432.77,219.17 432.77,219.17
             432.77,219.17 441.90,209.54 441.90,209.54
             441.90,209.54 452.25,195.00 452.25,195.00
             452.25,195.00 459.56,183.00 459.56,183.00
             459.56,183.00 473.00,164.00 473.00,164.00 Z
           M 63.00,215.00
           C 68.90,216.96 70.58,219.54 76.00,222.11
             76.00,222.11 112.00,239.32 112.00,239.32
             112.00,239.32 133.00,251.46 133.00,251.46
             133.00,251.46 140.00,254.54 140.00,254.54
             140.00,254.54 158.00,264.82 158.00,264.82
             158.00,264.82 170.00,269.35 170.00,269.35
             170.00,269.35 176.58,272.87 176.58,272.87
             176.58,272.87 188.00,276.19 188.00,276.19
             188.00,276.19 215.00,289.05 215.00,289.05
             215.00,289.05 229.00,295.31 229.00,295.31
             229.00,295.31 258.00,313.03 258.00,313.03
             262.60,315.33 278.52,322.88 281.07,326.39
             282.85,328.85 285.68,341.50 286.32,345.00
             286.32,345.00 288.82,355.00 288.82,355.00
             288.82,355.00 291.17,381.00 291.17,381.00
             291.17,381.00 297.80,405.00 297.80,405.00
             297.80,405.00 302.22,417.96 302.22,417.96
             302.22,417.96 303.02,428.00 303.02,428.00
             303.02,428.00 305.64,444.91 305.64,444.91
             305.64,444.91 307.64,465.00 307.64,465.00
             307.64,465.00 310.82,482.00 310.82,482.00
             310.82,482.00 313.98,507.00 313.98,507.00
             314.95,512.29 316.40,513.40 317.00,520.00
             317.00,520.00 295.00,508.49 295.00,508.49
             295.00,508.49 287.00,504.03 287.00,504.03
             287.00,504.03 276.00,499.82 276.00,499.82
             276.00,499.82 249.00,485.97 249.00,485.97
             249.00,485.97 216.00,470.52 216.00,470.52
             216.00,470.52 187.00,452.85 187.00,452.85
             187.00,452.85 174.00,445.51 174.00,445.51
             174.00,445.51 167.28,442.23 167.28,442.23
             167.28,442.23 154.04,433.49 154.04,433.49
             154.04,433.49 146.91,427.92 146.91,427.92
             146.91,427.92 127.00,416.55 127.00,416.55
             127.00,416.55 110.00,405.56 110.00,405.56
             110.00,405.56 87.00,390.41 87.00,390.41
             87.00,390.41 82.00,389.00 82.00,389.00
             82.00,389.00 78.54,368.00 78.54,368.00
             78.54,368.00 74.48,346.00 74.48,346.00
             74.48,346.00 74.48,338.00 74.48,338.00
             74.48,338.00 72.21,322.04 72.21,322.04
             72.21,322.04 72.21,313.41 72.21,313.41
             72.21,313.41 67.51,280.00 67.51,280.00
             67.51,280.00 66.96,270.00 66.96,270.00
             66.96,270.00 64.00,246.00 64.00,246.00
             64.00,246.00 63.00,228.00 63.00,228.00
             63.00,228.00 63.00,215.00 63.00,215.00 Z" />
</svg>
