<?xml version="1.0" encoding="UTF-8" standalone="no"?>
<!DOCTYPE svg PUBLIC "-//W3C//DTD SVG 20010904//EN"
              "http://www.w3.org/TR/2001/REC-SVG-20010904/DTD/svg10.dtd">

<svg xmlns="http://www.w3.org/2000/svg"
     width="1.66667in" height="1.66667in"
     viewBox="0 0 500 500">
  <path id="blue"
        fill="#001fff" stroke="none" stroke-width="1"
        d="M 159.00,257.00
           C 159.00,257.00 183.34,228.00 183.34,228.00
             183.34,228.00 200.46,205.00 200.46,205.00
             200.46,205.00 214.71,188.00 214.71,188.00
             214.71,188.00 223.91,174.00 223.91,174.00
             223.91,174.00 242.70,148.00 242.70,148.00
             242.70,148.00 251.68,134.00 251.68,134.00
             251.68,134.00 261.05,123.00 261.05,123.00
             261.05,123.00 271.22,106.00 271.22,106.00
             278.72,94.91 293.18,79.47 304.00,71.71
             319.77,60.40 326.07,48.69 340.00,39.22
             345.25,35.65 360.34,31.15 367.00,28.22
             375.39,24.53 383.72,19.12 393.00,19.00
             401.36,18.90 410.06,18.41 418.00,21.47
             425.91,24.51 435.05,31.82 437.89,40.00
             437.89,40.00 441.44,64.00 441.44,64.00
             441.44,64.00 449.65,102.00 449.65,102.00
             449.65,102.00 460.54,147.00 460.54,147.00
             460.54,147.00 461.46,156.00 461.46,156.00
             461.46,156.00 466.56,180.00 466.56,180.00
             466.56,180.00 467.30,192.00 467.30,192.00
             467.30,192.00 473.39,225.00 473.39,225.00
             473.39,225.00 474.61,235.00 474.61,235.00
             474.61,235.00 486.54,285.00 486.54,285.00
             486.54,285.00 489.16,310.00 489.16,310.00
             489.16,310.00 490.44,321.00 490.44,321.00
             491.65,328.66 492.96,329.38 493.00,338.00
             493.00,338.00 493.00,369.00 493.00,369.00
             492.89,383.86 493.85,403.05 476.00,408.21
             472.32,409.28 465.98,409.04 462.00,409.00
             462.00,409.00 438.00,405.51 438.00,405.51
             438.00,405.51 428.00,402.47 428.00,402.47
             413.49,399.72 408.71,401.75 393.00,395.13
             393.00,395.13 368.00,382.67 368.00,382.67
             363.90,380.33 361.70,378.37 357.00,376.34
             357.00,376.34 336.00,369.54 336.00,369.54
             336.00,369.54 326.00,365.23 326.00,365.23
             326.00,365.23 310.00,359.91 310.00,359.91
             310.00,359.91 302.00,356.55 302.00,356.55
             302.00,356.55 293.00,353.93 293.00,353.93
             293.00,353.93 270.00,346.21 270.00,346.21
             270.00,346.21 252.00,341.90 252.00,341.90
             252.00,341.90 244.00,338.55 244.00,338.55
             244.00,338.55 235.00,336.23 235.00,336.23
             235.00,336.23 189.00,323.10 189.00,323.10
             189.00,323.10 170.00,317.14 170.00,317.14
             166.07,316.78 162.17,319.63 159.00,321.69
             150.45,327.26 142.45,334.03 135.00,340.98
             135.00,340.98 119.00,355.04 119.00,355.04
             119.00,355.04 79.17,399.00 79.17,399.00
             74.28,405.08 71.50,413.55 68.36,418.00
             64.61,423.30 56.12,428.41 50.00,430.52
             44.32,432.48 41.47,429.17 37.00,426.30
             21.91,416.64 20.72,403.16 28.25,388.00
             39.37,365.59 44.63,362.91 60.83,345.00
             60.83,345.00 73.04,331.00 73.04,331.00
             86.34,317.09 101.16,304.20 116.00,292.00
             99.09,288.81 85.73,281.73 71.00,273.33
             71.00,273.33 55.00,263.78 55.00,263.78
             55.00,263.78 34.00,247.68 34.00,247.68
             34.00,247.68 26.00,242.37 26.00,242.37
             26.00,242.37 17.00,235.22 17.00,235.22
             17.00,235.22 10.00,230.61 10.00,230.61
             -4.21,219.25 -1.95,194.35 16.00,188.11
             19.19,187.00 21.69,187.00 25.00,187.00
             40.33,187.00 45.25,195.43 57.00,202.91
             57.00,202.91 83.00,222.37 83.00,222.37
             83.00,222.37 103.00,234.74 103.00,234.74
             109.74,238.27 116.60,241.72 124.00,243.62
             124.00,243.62 134.00,246.10 134.00,246.10
             134.00,246.10 159.00,257.00 159.00,257.00 Z
           M 393.00,71.00
           C 393.00,71.00 381.00,75.91 381.00,75.91
             376.65,77.49 368.63,79.51 365.09,82.02
             365.09,82.02 340.00,105.90 340.00,105.90
             333.09,112.11 332.44,109.41 320.17,123.00
             310.54,133.66 309.49,139.89 301.78,151.00
             301.78,151.00 289.93,165.00 289.93,165.00
             289.93,165.00 280.46,180.00 280.46,180.00
             280.46,180.00 272.63,190.00 272.63,190.00
             272.63,190.00 255.85,215.00 255.85,215.00
             255.85,215.00 239.46,235.00 239.46,235.00
             239.46,235.00 226.64,252.00 226.64,252.00
             220.39,259.94 213.52,268.40 210.00,278.00
             216.46,279.01 222.73,281.92 229.00,283.79
             229.00,283.79 246.00,287.77 246.00,287.77
             246.00,287.77 261.00,292.44 261.00,292.44
             261.00,292.44 271.00,296.23 271.00,296.23
             271.00,296.23 295.00,302.74 295.00,302.74
             295.00,302.74 323.00,312.09 323.00,312.09
             323.00,312.09 331.00,315.45 331.00,315.45
             331.00,315.45 350.00,321.09 350.00,321.09
             350.00,321.09 360.00,326.14 360.00,326.14
             360.00,326.14 377.00,331.46 377.00,331.46
             383.25,333.92 384.83,335.79 390.00,338.80
             390.00,338.80 411.00,349.08 411.00,349.08
             421.38,353.19 425.53,352.88 436.00,354.18
             436.00,354.18 445.00,356.00 445.00,356.00
             445.00,356.00 442.17,328.00 442.17,328.00
             442.17,328.00 439.28,302.00 439.28,302.00
             439.28,302.00 438.54,294.00 438.54,294.00
             438.54,294.00 432.49,271.00 432.49,271.00
             432.49,271.00 427.21,247.00 427.21,247.00
             427.21,247.00 425.39,234.00 425.39,234.00
             425.39,234.00 421.17,214.00 421.17,214.00
             421.17,214.00 417.62,181.00 417.62,181.00
             417.62,181.00 413.46,165.00 413.46,165.00
             413.46,165.00 412.56,157.00 412.56,157.00
             412.56,157.00 407.62,134.00 407.62,134.00
             407.62,134.00 404.49,124.00 404.49,124.00
             404.49,124.00 396.79,89.00 396.79,89.00
             396.79,89.00 393.00,71.00 393.00,71.00 Z" />
</svg>
