<?xml version="1.0" encoding="UTF-8" standalone="no"?>
<!DOCTYPE svg PUBLIC "-//W3C//DTD SVG 20010904//EN"
              "http://www.w3.org/TR/2001/REC-SVG-20010904/DTD/svg10.dtd">

<svg xmlns="http://www.w3.org/2000/svg"
     width="5.55556in" height="5.55556in"
     viewBox="0 0 500 500">
  <path id="vue_bottom"
        fill="#40b684" stroke="none" stroke-width="1"
        d="M 360.00,385.00
           C 360.00,385.00 372.49,352.00 372.49,352.00
             372.49,352.00 379.66,321.00 379.66,321.00
             379.66,321.00 384.77,301.09 384.77,301.09
             384.77,301.09 390.83,264.00 390.83,264.00
             390.83,264.00 392.17,242.00 392.17,242.00
             392.17,242.00 393.91,231.00 393.91,231.00
             393.91,231.00 395.17,206.00 395.17,206.00
             395.17,206.00 397.71,190.00 397.71,190.00
             397.71,190.00 403.09,145.00 403.09,145.00
             403.09,145.00 407.20,126.00 407.20,126.00
             407.20,126.00 412.42,96.00 412.42,96.00
             412.42,96.00 414.28,76.00 414.28,76.00
             414.28,76.00 417.91,50.00 417.91,50.00
             418.51,41.67 418.73,26.13 423.55,19.17
             429.52,10.53 438.40,11.97 443.00,10.59
             449.19,8.73 447.51,6.77 458.00,7.01
             467.61,7.24 476.89,13.23 479.07,23.00
             481.90,35.12 478.86,57.09 479.07,70.00
             479.07,70.00 479.80,84.04 479.80,84.04
             479.80,84.04 479.00,102.00 479.00,102.00
             479.00,102.00 479.00,119.00 479.00,119.00
             479.00,119.00 478.00,132.00 478.00,132.00
             478.00,132.00 478.00,148.00 478.00,148.00
             478.00,148.00 476.36,170.01 476.36,170.01
             476.36,170.01 474.21,179.00 474.21,179.00
             474.21,179.00 473.67,190.28 473.67,190.28
             473.67,190.28 472.08,200.00 472.08,200.00
             472.08,200.00 472.08,210.00 472.08,210.00
             472.08,210.00 466.42,242.00 466.42,242.00
             465.67,246.84 465.86,253.00 463.00,257.00
             464.60,259.41 462.20,269.70 461.61,273.00
             461.61,273.00 459.71,287.00 459.71,287.00
             459.71,287.00 456.78,296.00 456.78,296.00
             456.78,296.00 452.28,314.00 452.28,314.00
             452.28,314.00 448.17,332.00 448.17,332.00
             448.17,332.00 442.16,358.00 442.16,358.00
             442.16,358.00 433.61,395.00 433.61,395.00
             433.61,395.00 431.54,411.00 431.54,411.00
             431.54,411.00 427.90,425.00 427.90,425.00
             427.90,425.00 426.39,433.00 426.39,433.00
             426.39,433.00 424.03,439.42 424.03,439.42
             424.03,439.42 420.55,457.00 420.55,457.00
             417.10,474.10 403.97,489.76 385.09,481.86
             381.83,480.50 375.30,474.92 372.01,472.67
             372.01,472.67 361.08,465.89 361.08,465.89
             361.08,465.89 347.83,455.80 347.83,455.80
             347.83,455.80 317.00,436.83 317.00,436.83
             317.00,436.83 294.96,420.19 294.96,420.19
             294.96,420.19 285.04,413.66 285.04,413.66
             285.04,413.66 264.58,398.17 264.58,398.17
             264.58,398.17 240.04,380.26 240.04,380.26
             240.04,380.26 206.00,353.33 206.00,353.33
             206.00,353.33 173.00,328.39 173.00,328.39
             173.00,328.39 148.83,307.37 148.83,307.37
             148.83,307.37 121.70,284.36 121.70,284.36
             121.70,284.36 93.05,261.08 93.05,261.08
             93.05,261.08 86.78,254.73 86.78,254.73
             86.78,254.73 65.00,236.83 65.00,236.83
             65.00,236.83 47.29,219.84 47.29,219.84
             47.29,219.84 27.04,202.66 27.04,202.66
             17.79,195.17 4.39,187.11 4.02,174.00
             3.79,166.26 4.55,168.13 6.31,161.96
             7.59,157.46 7.66,154.12 10.65,150.02
             15.43,143.45 27.34,140.58 35.00,142.79
             41.00,144.52 46.50,149.82 52.00,153.14
             52.00,153.14 78.00,170.98 78.00,170.98
             78.00,170.98 100.00,185.39 100.00,185.39
             100.00,185.39 136.00,208.48 136.00,208.48
             136.00,208.48 171.00,236.30 171.00,236.30
             171.00,236.30 180.00,244.54 180.00,244.54
             180.00,244.54 214.00,270.50 214.00,270.50
             214.00,270.50 236.00,288.41 236.00,288.41
             236.00,288.41 262.00,305.70 262.00,305.70
             262.00,305.70 276.00,315.98 276.00,315.98
             276.00,315.98 301.00,333.51 301.00,333.51
             301.00,333.51 315.00,346.71 315.00,346.71
             315.00,346.71 331.00,360.33 331.00,360.33
             331.00,360.33 343.96,370.08 343.96,370.08
             343.96,370.08 360.00,385.00 360.00,385.00 Z" />
      <path id="vue_top"
        fill="#32485d" stroke="none" stroke-width="1"
        d="M 346.00,338.00
           C 346.00,338.00 349.74,315.00 349.74,315.00
             351.21,306.15 350.92,296.95 351.19,288.00
             351.19,288.00 351.19,273.91 351.19,273.91
             351.19,273.91 353.00,258.00 353.00,258.00
             353.00,258.00 354.18,236.00 354.18,236.00
             354.18,236.00 355.88,228.09 355.88,228.09
             355.88,228.09 359.93,199.00 359.93,199.00
             359.93,199.00 362.57,186.00 362.57,186.00
             362.57,186.00 363.85,172.00 363.85,172.00
             363.85,172.00 367.98,154.28 367.98,154.28
             367.98,154.28 373.66,118.00 373.66,118.00
             373.66,118.00 376.49,105.00 376.49,105.00
             378.34,98.10 379.67,96.53 380.25,88.72
             380.25,88.72 382.51,70.00 382.51,70.00
             382.51,70.00 384.92,60.00 384.92,60.00
             386.18,52.06 388.41,36.80 392.14,30.00
             396.94,21.23 408.47,16.81 417.96,19.72
             426.06,22.21 419.12,27.22 419.00,40.00
             419.00,40.00 415.29,71.00 415.29,71.00
             415.29,71.00 413.83,91.00 413.83,91.00
             413.83,91.00 411.13,107.00 411.13,107.00
             411.13,107.00 403.14,148.00 403.14,148.00
             403.14,148.00 400.23,168.04 400.23,168.04
             400.23,168.04 398.65,188.42 398.65,188.42
             397.14,201.03 395.17,203.10 395.00,218.00
             395.00,218.00 392.00,254.00 392.00,254.00
             391.86,265.28 385.80,300.33 382.96,312.00
             382.96,312.00 379.90,322.00 379.90,322.00
             379.90,322.00 377.24,339.00 377.24,339.00
             374.32,350.49 365.08,375.08 360.00,386.00
             352.68,380.88 351.06,377.59 345.00,372.29
             345.00,372.29 326.00,357.68 326.00,357.68
             326.00,357.68 302.00,335.62 302.00,335.62
             302.00,335.62 276.00,316.98 276.00,316.98
             276.00,316.98 260.00,305.51 260.00,305.51
             260.00,305.51 227.04,282.63 227.04,282.63
             227.04,282.63 213.00,271.04 213.00,271.04
             213.00,271.04 185.00,249.74 185.00,249.74
             185.00,249.74 168.00,235.08 168.00,235.08
             146.49,217.19 132.01,206.04 108.00,191.55
             108.00,191.55 61.00,160.15 61.00,160.15
             61.00,160.15 46.00,150.23 46.00,150.23
             41.21,146.91 39.09,144.26 33.00,142.94
             26.80,141.59 22.00,144.38 16.00,145.00
             16.00,145.00 20.09,138.00 20.09,138.00
             23.30,130.92 22.72,126.23 30.09,120.71
             32.16,119.16 35.50,117.24 38.00,116.56
             40.86,115.79 44.06,116.09 47.00,115.96
             53.66,115.68 59.41,114.19 66.00,117.30
             66.00,117.30 84.28,130.63 84.28,130.63
             84.28,130.63 94.72,134.99 94.72,134.99
             94.72,134.99 121.72,151.85 121.72,151.85
             121.72,151.85 138.83,163.15 138.83,163.15
             138.83,163.15 183.83,198.81 183.83,198.81
             183.83,198.81 199.51,215.57 199.51,215.57
             199.51,215.57 216.58,231.96 216.58,231.96
             216.58,231.96 225.00,240.24 225.00,240.24
             225.00,240.24 267.96,275.58 267.96,275.58
             267.96,275.58 288.42,290.24 288.42,290.24
             288.42,290.24 298.20,299.29 298.20,299.29
             298.20,299.29 320.04,318.26 320.04,318.26
             320.04,318.26 346.00,338.00 346.00,338.00 Z" />
</svg>
