<?xml version="1.0" encoding="UTF-8" standalone="no"?>
<!DOCTYPE svg PUBLIC "-//W3C//DTD SVG 20010904//EN"
              "http://www.w3.org/TR/2001/REC-SVG-20010904/DTD/svg10.dtd">

<svg xmlns="http://www.w3.org/2000/svg"
     width="2in" height="2in"
     viewBox="0 0 600 600">
  <path id="blue"
        fill="#2e4eff" stroke="none" stroke-width="1"
        d="M 112.00,92.00
           C 113.67,87.59 123.66,82.50 128.00,80.24
             128.00,80.24 144.00,70.29 144.00,70.29
             144.00,70.29 162.72,60.21 162.72,60.21
             172.52,54.87 202.92,44.06 214.00,41.66
             214.00,41.66 225.96,40.08 225.96,40.08
             225.96,40.08 234.00,37.65 234.00,37.65
             243.61,35.85 270.08,34.38 280.00,34.74
             291.79,35.18 303.46,37.54 315.00,39.69
             315.00,39.69 330.91,42.68 330.91,42.68
             330.91,42.68 350.00,49.34 350.00,49.34
             350.00,49.34 367.17,55.60 367.17,55.60
             367.17,55.60 387.91,63.04 387.91,63.04
             392.02,64.91 398.73,67.34 401.00,71.00
             406.45,70.99 408.75,73.19 413.16,75.87
             413.16,75.87 437.00,91.51 437.00,91.51
             437.00,91.51 465.17,112.31 465.17,112.31
             488.41,128.94 508.26,143.64 526.29,166.20
             531.01,172.10 536.61,179.27 537.45,187.00
             539.07,201.87 527.38,212.49 513.00,211.90
             505.20,211.58 500.35,207.86 493.00,205.92
             478.55,202.10 474.42,202.07 460.00,201.13
             460.00,201.13 426.00,199.16 426.00,199.16
             420.19,198.67 417.51,199.71 412.00,197.00
             407.49,200.32 399.50,198.94 394.00,199.00
             394.00,199.00 384.44,199.73 384.44,199.73
             384.44,199.73 359.00,202.00 359.00,202.00
             359.00,202.00 351.00,204.31 351.00,204.31
             351.00,204.31 340.00,207.00 340.00,207.00
             326.90,211.64 309.62,221.79 300.80,232.66
             294.57,240.34 290.04,251.72 287.02,261.09
             284.13,270.05 281.13,271.63 281.54,282.98
             282.18,300.98 282.66,312.95 294.25,327.99
             298.90,334.02 311.04,341.14 313.00,347.00
             313.00,347.00 334.29,354.12 334.29,354.12
             334.29,354.12 351.00,352.52 351.00,352.52
             351.00,352.52 361.00,349.62 361.00,349.62
             361.00,349.62 370.00,348.68 370.00,348.68
             370.00,348.68 396.83,341.62 396.83,341.62
             396.83,341.62 426.00,329.81 426.00,329.81
             426.00,329.81 436.91,326.88 436.91,326.88
             436.91,326.88 444.04,323.70 444.04,323.70
             444.04,323.70 450.91,321.99 450.91,321.99
             450.91,321.99 458.04,318.70 458.04,318.70
             458.04,318.70 505.96,306.16 505.96,306.16
             505.96,306.16 513.09,303.82 513.09,303.82
             513.09,303.82 534.00,299.00 534.00,299.00
             538.05,300.66 539.43,298.89 543.84,298.39
             543.84,298.39 567.13,296.00 567.13,296.00
             571.51,295.21 576.28,291.85 580.00,296.00
             587.88,295.00 592.95,301.15 595.40,308.00
             596.03,309.77 597.31,313.26 597.44,315.00
             597.96,321.68 593.49,330.20 587.91,333.83
             577.61,340.53 565.31,338.67 557.00,340.45
             557.00,340.45 534.00,344.05 534.00,344.05
             534.00,344.05 526.00,345.00 526.00,345.00
             526.00,345.00 517.00,347.76 517.00,347.76
             517.00,347.76 485.04,355.83 485.04,355.83
             485.04,355.83 451.00,367.68 451.00,367.68
             451.00,367.68 441.00,370.61 441.00,370.61
             441.00,370.61 418.00,380.18 418.00,380.18
             418.00,380.18 380.00,390.54 380.00,390.54
             380.00,390.54 370.01,391.63 370.01,391.63
             370.01,391.63 362.83,393.77 362.83,393.77
             362.83,393.77 333.00,397.49 333.00,397.49
             329.41,397.71 325.53,396.87 322.00,396.20
             322.00,396.20 312.00,394.17 312.00,394.17
             298.98,390.01 278.28,375.12 268.80,365.41
             262.67,359.13 254.60,349.86 250.75,341.91
             250.75,341.91 248.63,336.17 248.63,336.17
             248.63,336.17 246.01,330.91 246.01,330.91
             246.01,330.91 244.31,324.00 244.31,324.00
             244.31,324.00 241.69,316.00 241.69,316.00
             240.42,311.28 238.30,296.58 238.20,291.72
             238.20,291.72 238.92,281.00 238.92,281.00
             240.23,258.18 241.37,256.25 249.75,235.00
             252.76,227.36 257.05,216.92 261.75,210.28
             270.77,197.53 284.99,187.42 297.91,178.95
             297.91,178.95 305.02,174.17 305.02,174.17
             310.98,170.92 325.30,166.06 332.00,164.58
             332.00,164.58 344.17,161.07 344.17,161.07
             344.17,161.07 364.00,158.01 364.00,158.01
             369.72,157.56 371.07,155.55 375.00,158.01
             375.49,157.46 375.26,157.14 376.54,156.54
             376.54,156.54 391.72,155.29 391.72,155.29
             391.72,155.29 432.01,155.29 432.01,155.29
             436.45,155.68 443.44,155.50 447.00,158.00
             447.00,158.00 448.00,156.00 448.00,156.00
             448.00,156.00 449.00,156.00 449.00,156.00
             449.00,156.00 451.00,158.00 451.00,158.00
             451.00,158.00 452.00,158.00 452.00,158.00
             441.20,148.50 415.49,130.55 403.00,122.46
             403.00,122.46 382.01,108.67 382.01,108.67
             382.01,108.67 348.91,94.97 348.91,94.97
             348.91,94.97 339.17,92.09 339.17,92.09
             339.17,92.09 332.96,89.38 332.96,89.38
             320.54,84.74 307.95,82.40 294.99,80.17
             287.95,78.96 283.14,77.53 275.72,77.85
             275.72,77.85 263.00,79.09 263.00,79.09
             263.00,79.09 249.01,79.09 249.01,79.09
             249.01,79.09 237.00,81.70 237.00,81.70
             237.00,81.70 224.00,83.65 224.00,83.65
             224.00,83.65 210.00,88.37 210.00,88.37
             210.00,88.37 189.00,95.79 189.00,95.79
             189.00,95.79 155.96,114.84 155.96,114.84
             155.96,114.84 146.17,120.03 146.17,120.03
             125.26,131.92 113.47,146.38 97.41,163.61
             78.82,183.58 55.95,207.27 48.10,234.09
             45.84,241.78 46.51,244.86 45.83,252.00
             44.18,269.36 45.14,285.73 47.17,303.00
             47.17,303.00 48.25,315.00 48.25,315.00
             48.25,315.00 50.48,324.00 50.48,324.00
             50.48,324.00 53.00,348.00 53.00,348.00
             53.00,348.00 56.35,364.00 56.35,364.00
             56.35,364.00 58.38,372.83 58.38,372.83
             58.38,372.83 71.25,402.00 71.25,402.00
             71.25,402.00 73.45,408.83 73.45,408.83
             76.08,415.41 78.55,417.00 79.00,425.00
             79.00,425.00 82.00,425.00 82.00,425.00
             84.01,436.05 94.23,446.50 102.57,453.34
             102.57,453.34 123.39,470.91 123.39,470.91
             130.29,476.59 137.76,481.98 142.19,490.00
             143.33,492.07 145.55,500.54 145.90,503.00
             146.31,505.85 145.67,508.27 144.95,511.00
             141.45,524.29 129.43,528.56 117.02,524.70
             110.29,522.60 107.38,515.44 102.53,510.90
             102.53,510.90 95.04,504.99 95.04,504.99
             95.04,504.99 79.00,491.44 79.00,491.44
             79.00,491.44 70.44,484.91 70.44,484.91
             63.39,478.74 51.41,463.30 47.05,455.00
             47.05,455.00 44.21,448.28 44.21,448.28
             44.21,448.28 37.26,435.00 37.26,435.00
             37.26,435.00 35.20,429.00 35.20,429.00
             35.20,429.00 21.95,398.83 21.95,398.83
             21.95,398.83 19.31,387.00 19.31,387.00
             19.31,387.00 16.39,378.00 16.39,378.00
             16.39,378.00 14.03,368.00 14.03,368.00
             14.03,368.00 11.21,359.00 11.21,359.00
             11.21,359.00 8.88,340.00 8.88,340.00
             8.88,340.00 7.25,333.00 7.25,333.00
             7.25,333.00 5.71,319.00 5.71,319.00
             3.74,304.31 0.73,290.35 1.18,275.42
             1.34,269.97 0.69,263.61 4.00,259.00
             0.54,255.90 1.98,246.35 2.74,242.00
             4.96,229.31 6.43,220.21 11.06,208.00
             12.75,203.57 14.91,197.54 19.00,195.00
             18.99,187.73 30.37,172.88 35.15,167.00
             35.15,167.00 84.82,112.71 84.82,112.71
             88.55,108.58 103.24,95.23 108.01,92.98
             109.62,92.23 110.36,92.26 112.00,92.00 Z
           M 195.00,169.00
           C 178.71,169.15 161.81,172.58 147.00,179.24
             139.80,182.48 136.27,187.55 130.00,189.36
             117.28,193.04 106.59,182.89 109.39,170.00
             110.56,164.63 113.80,161.46 118.00,158.24
             122.31,154.93 126.19,153.12 131.00,150.76
             157.60,137.67 184.89,135.66 214.00,136.00
             230.77,136.20 247.55,140.72 246.98,161.00
             246.67,172.44 238.94,177.39 231.00,184.13
             231.00,184.13 221.00,191.53 221.00,191.53
             221.00,191.53 210.00,200.98 210.00,200.98
             210.00,200.98 201.00,207.38 201.00,207.38
             201.00,207.38 185.09,221.28 185.09,221.28
             168.18,237.25 156.47,258.80 150.04,281.00
             150.04,281.00 148.24,289.00 148.24,289.00
             148.24,289.00 145.59,297.00 145.59,297.00
             144.49,300.97 143.05,313.76 143.00,318.00
             142.69,344.42 147.02,360.84 153.23,386.00
             153.23,386.00 157.65,400.00 157.65,400.00
             160.67,409.76 159.96,413.56 166.93,423.00
             173.88,432.41 179.57,430.60 183.64,440.00
             186.68,447.04 184.76,456.53 177.96,460.64
             166.09,467.78 154.97,458.08 146.83,450.15
             142.75,446.18 141.87,446.21 138.62,441.00
             130.08,427.30 126.38,411.44 122.49,396.00
             122.49,396.00 119.51,387.00 119.51,387.00
             115.06,369.32 113.20,361.37 111.91,343.00
             111.91,343.00 111.00,333.00 111.00,333.00
             110.89,322.86 110.71,306.69 112.32,297.00
             112.32,297.00 115.50,286.00 115.50,286.00
             115.50,286.00 119.04,270.00 119.04,270.00
             124.19,252.21 136.56,226.27 148.17,212.00
             164.92,191.39 178.18,185.46 195.00,169.00 Z" />
</svg>
