<?xml version="1.0" encoding="UTF-8" standalone="no"?>
<!DOCTYPE svg PUBLIC "-//W3C//DTD SVG 20010904//EN"
              "http://www.w3.org/TR/2001/REC-SVG-20010904/DTD/svg10.dtd">

<svg xmlns="http://www.w3.org/2000/svg"
     width="42.3334mm" height="42.3334mm"
     viewBox="0 0 500 500">
  <path id="black"
        fill="black" stroke="none" stroke-width="1"
        d="M 349.00,45.87
           C 349.00,45.87 350.15,32.00 350.15,32.00
             350.49,29.18 351.08,17.73 352.02,16.31
             353.84,13.60 358.16,13.60 359.98,16.31
             361.32,18.33 361.01,23.51 361.00,26.00
             361.00,26.00 359.01,46.00 359.01,46.00
             359.01,46.00 360.00,56.00 360.00,56.00
             360.00,56.00 360.00,67.00 360.00,67.00
             360.00,67.00 361.83,82.00 361.83,82.00
             362.42,89.70 358.41,91.35 352.00,88.00
             345.10,95.58 329.96,92.45 324.85,84.00
             322.39,79.92 322.33,67.51 323.85,63.00
             325.63,57.72 333.82,47.71 339.00,45.87
             342.27,44.49 345.77,45.08 349.00,45.87 Z
           M 379.00,82.00
           C 375.99,77.74 367.32,69.08 366.31,65.00
             364.56,57.92 368.63,52.12 376.00,52.03
             377.88,52.01 380.21,52.20 381.85,53.17
             385.58,55.38 385.48,60.19 382.69,61.98
             380.63,63.26 378.15,62.50 376.00,61.98
             380.77,67.81 388.16,73.66 389.53,81.00
             391.10,89.38 386.71,92.16 379.00,91.98
             376.00,91.92 372.71,91.46 370.15,89.77
             366.14,87.14 366.47,82.15 370.15,80.60
             373.14,79.35 376.31,80.75 379.00,82.00 Z
           M 342.99,55.91
           C 336.78,58.49 333.27,65.43 333.04,72.00
             332.82,78.44 335.72,83.32 342.99,81.56
             355.75,78.47 352.13,57.52 342.99,55.91 Z
           M 402.00,59.85
           C 406.15,58.72 413.49,57.98 415.18,63.11
             415.91,64.54 415.81,66.39 415.18,67.69
             412.56,71.44 408.37,68.24 404.35,72.23
             398.64,77.89 403.83,85.66 407.09,86.09
             410.22,86.50 412.78,82.56 416.00,81.65
             420.18,80.48 422.62,84.23 421.38,88.00
             420.42,90.93 416.72,94.46 414.00,95.83
             411.76,96.95 409.44,97.00 407.00,96.99
             396.85,96.96 391.45,88.44 391.04,79.00
             390.67,70.41 394.42,63.95 402.00,59.85 Z
           M 305.31,79.03
           C 313.43,76.24 314.31,84.64 310.69,86.97
             306.45,89.70 299.96,84.79 305.31,79.03 Z
           M 67.00,135.00
           C 67.00,135.00 68.00,135.00 68.00,135.00
             68.00,135.00 67.00,136.00 67.00,136.00
             67.00,136.00 67.00,135.00 67.00,135.00 Z
           M 65.00,136.00
           C 65.53,139.90 61.53,146.69 60.09,150.91
             57.85,157.54 53.48,176.45 53.75,183.00
             53.75,183.00 58.46,217.00 58.46,217.00
             58.46,217.00 59.17,226.00 59.17,226.00
             59.17,226.00 62.68,242.97 62.68,242.97
             62.68,242.97 67.54,255.00 67.54,255.00
             67.54,255.00 76.20,279.00 76.20,279.00
             76.20,279.00 88.17,315.00 88.17,315.00
             88.17,315.00 97.54,336.00 97.54,336.00
             97.54,336.00 108.29,366.83 108.29,366.83
             108.29,366.83 114.40,380.42 114.40,380.42
             116.92,386.39 117.61,392.93 122.00,398.00
             119.67,411.66 126.27,426.57 139.01,433.01
             145.10,436.08 153.25,437.07 160.00,437.00
             166.59,436.92 166.44,436.14 172.00,435.29
             172.00,435.29 183.00,434.71 183.00,434.71
             183.00,434.71 225.00,431.85 225.00,431.85
             225.00,431.85 234.00,429.96 234.00,429.96
             234.00,429.96 244.00,428.86 244.00,428.86
             244.00,428.86 253.00,427.16 253.00,427.16
             253.00,427.16 285.00,423.67 285.00,423.67
             285.00,423.67 294.16,422.97 294.16,422.97
             294.16,422.97 325.00,414.43 325.00,414.43
             325.00,414.43 336.00,410.41 336.00,410.41
             345.34,406.31 353.60,400.35 362.09,394.85
             365.74,392.49 373.05,385.56 377.00,386.00
             377.00,386.00 362.58,399.61 362.58,399.61
             356.08,405.09 336.94,417.10 329.00,420.83
             329.00,420.83 319.09,423.97 319.09,423.97
             319.09,423.97 312.91,426.55 312.91,426.55
             312.91,426.55 285.00,434.04 285.00,434.04
             285.00,434.04 275.58,434.87 275.58,434.87
             275.58,434.87 244.00,438.16 244.00,438.16
             244.00,438.16 235.00,439.87 235.00,439.87
             235.00,439.87 224.84,441.04 224.84,441.04
             224.84,441.04 217.00,442.83 217.00,442.83
             202.11,444.97 187.02,445.89 172.00,445.86
             159.16,445.83 159.83,447.82 151.00,448.25
             134.32,449.06 119.29,442.59 113.38,426.00
             110.23,417.15 112.49,413.94 110.54,408.00
             110.54,408.00 96.54,372.00 96.54,372.00
             96.54,372.00 87.71,347.17 87.71,347.17
             87.71,347.17 78.32,326.00 78.32,326.00
             78.32,326.00 66.91,292.00 66.91,292.00
             66.91,292.00 57.71,266.17 57.71,266.17
             57.71,266.17 52.92,255.00 52.92,255.00
             50.49,246.93 49.93,237.30 48.83,229.00
             48.83,229.00 46.80,220.00 46.80,220.00
             46.80,220.00 46.18,211.59 46.18,211.59
             45.54,204.09 43.10,196.57 43.84,189.00
             44.72,180.07 50.27,158.89 54.46,151.00
             57.35,145.58 61.52,141.02 65.00,136.00 Z
           M 121.00,173.00
           C 127.60,159.86 146.79,151.74 161.00,151.19
             161.00,151.19 175.00,152.02 175.00,152.02
             182.05,152.46 189.27,153.10 195.93,155.67
             195.93,155.67 223.00,165.86 223.00,165.86
             223.00,165.86 236.00,173.30 236.00,173.30
             262.63,188.50 276.88,199.25 298.47,221.23
             309.24,232.19 322.41,247.39 329.49,261.00
             338.04,277.45 342.58,300.75 338.35,319.00
             335.76,330.16 335.33,335.42 325.00,342.00
             326.89,336.07 329.83,325.13 330.21,319.00
             330.78,309.94 329.58,302.73 327.37,294.00
             321.42,270.43 314.32,262.38 299.08,244.35
             299.08,244.35 282.62,226.64 282.62,226.64
             282.62,226.64 275.79,221.07 275.79,221.07
             275.79,221.07 261.96,207.99 261.96,207.99
             252.61,200.47 242.33,194.24 232.00,188.21
             232.00,188.21 211.43,176.34 211.43,176.34
             211.43,176.34 198.08,171.49 198.08,171.49
             179.93,164.80 174.46,163.03 154.71,162.62
             138.59,162.28 134.32,166.76 121.00,173.00 Z" />
  <path id="white"
        fill="white" stroke="none" stroke-width="1"
        d="M 380.00,382.00
           C 375.93,381.03 369.32,388.40 366.00,390.84
             352.17,401.03 343.93,405.60 328.00,411.87
             305.46,420.74 287.65,422.57 264.00,425.06
             264.00,425.06 256.00,425.06 256.00,425.06
             256.00,425.06 242.00,427.71 242.00,427.71
             242.00,427.71 233.00,428.46 233.00,428.46
             221.71,430.44 210.52,432.86 199.00,433.00
             199.00,433.00 181.00,433.00 181.00,433.00
             181.00,433.00 161.00,435.00 161.00,435.00
             146.29,435.17 131.10,431.29 125.12,416.00
             121.77,407.45 124.10,403.40 121.82,397.00
             121.82,397.00 111.66,372.00 111.66,372.00
             111.66,372.00 100.09,339.00 100.09,339.00
             100.09,339.00 86.69,307.00 86.69,307.00
             86.69,307.00 82.26,292.00 82.26,292.00
             82.26,292.00 74.95,272.00 74.95,272.00
             74.95,272.00 62.75,237.00 62.75,237.00
             62.75,237.00 57.87,205.00 57.87,205.00
             57.87,205.00 55.41,180.00 55.41,180.00
             55.41,180.00 57.39,169.00 57.39,169.00
             60.27,153.12 60.14,151.45 68.27,137.00
             68.27,137.00 72.50,128.44 72.50,128.44
             77.36,121.91 88.62,112.04 95.46,107.34
             104.52,101.11 112.24,95.83 123.00,92.71
             135.83,88.99 150.55,85.24 164.00,85.74
             164.00,85.74 177.42,87.28 177.42,87.28
             177.42,87.28 187.00,87.28 187.00,87.28
             205.17,89.63 220.06,94.89 237.00,101.34
             237.00,101.34 248.08,105.27 248.08,105.27
             259.37,110.33 271.40,118.23 282.00,124.78
             292.35,131.16 302.51,137.23 311.96,145.00
             311.96,145.00 339.47,170.62 339.47,170.62
             339.47,170.62 346.12,176.65 346.12,176.65
             356.18,186.58 366.23,199.01 373.96,210.84
             382.28,223.57 389.91,233.36 395.41,248.00
             395.41,248.00 398.71,260.00 398.71,260.00
             403.92,278.36 407.14,296.89 404.84,316.00
             404.84,316.00 403.29,325.00 403.29,325.00
             403.29,325.00 402.40,333.00 402.40,333.00
             400.57,341.64 395.57,355.98 391.69,364.00
             387.31,373.06 385.00,374.57 380.00,382.00 Z
           M 182.00,370.00
           C 182.00,370.00 206.07,368.62 206.07,368.62
             206.07,368.62 221.00,366.05 221.00,366.05
             221.00,366.05 239.00,363.84 239.00,363.84
             239.00,363.84 247.99,362.16 247.99,362.16
             264.21,360.11 275.44,360.63 292.00,356.15
             292.00,356.15 311.00,350.65 311.00,350.65
             311.00,350.65 322.00,344.21 322.00,344.21
             326.03,342.08 328.12,342.28 331.87,338.70
             335.86,334.88 337.73,328.24 339.12,323.00
             343.44,306.59 341.91,293.11 337.42,277.00
             332.19,258.21 322.67,246.62 310.46,232.01
             299.93,219.42 279.12,199.31 266.00,189.91
             266.00,189.91 243.00,175.40 243.00,175.40
             243.00,175.40 222.00,163.63 222.00,163.63
             199.45,152.98 169.59,145.77 145.00,152.49
             137.25,154.61 131.13,159.16 125.32,164.53
             122.12,167.49 119.57,169.77 122.00,174.00
             119.80,178.30 124.79,183.71 126.41,188.00
             126.41,188.00 139.03,223.09 139.03,223.09
             139.03,223.09 157.58,288.00 157.58,288.00
             157.58,288.00 162.46,306.00 162.46,306.00
             162.46,306.00 170.76,330.00 170.76,330.00
             170.76,330.00 173.91,340.83 173.91,340.83
             176.99,349.34 181.19,361.06 182.00,370.00 Z" />
</svg>
