<?xml version="1.0" encoding="UTF-8" standalone="no"?>
<!DOCTYPE svg PUBLIC "-//W3C//DTD SVG 20010904//EN"
              "http://www.w3.org/TR/2001/REC-SVG-20010904/DTD/svg10.dtd">

<svg xmlns="http://www.w3.org/2000/svg"
     width="5.55556in" height="5.55556in"
     viewBox="0 0 500 500">
  <path id="blue"
        fill="#38f9ff" stroke="none" stroke-width="1"
        d="M 365.00,187.59
           C 372.07,187.02 395.62,189.30 402.00,191.96
             412.76,196.44 426.94,209.13 433.17,219.01
             438.14,226.90 444.47,244.68 445.46,254.00
             446.10,260.01 443.48,278.75 440.64,284.08
             440.64,284.08 426.00,303.00 426.00,303.00
             421.22,309.43 411.68,319.74 403.09,319.89
             392.66,320.08 386.53,309.60 390.57,301.09
             392.25,297.54 396.13,294.77 398.85,291.91
             398.85,291.91 409.92,278.17 409.92,278.17
             411.85,275.81 414.63,273.59 416.08,270.99
             420.66,262.69 417.32,245.94 412.79,238.00
             400.92,217.19 387.98,214.52 365.99,214.76
             357.79,214.85 352.95,218.52 347.08,215.37
             339.24,211.16 338.65,199.14 345.19,193.47
             350.69,188.70 358.20,188.65 365.00,187.59 Z
           M 312.91,206.63
           C 324.60,204.90 333.12,215.13 327.51,226.00
             322.23,236.21 314.29,242.04 305.85,249.23
             305.85,249.23 289.12,263.56 289.12,263.56
             289.12,263.56 278.89,270.06 278.89,270.06
             262.11,281.27 254.87,285.86 236.15,294.18
             236.15,294.18 227.83,298.09 227.83,298.09
             227.83,298.09 190.04,308.30 190.04,308.30
             190.04,308.30 169.00,311.90 169.00,311.90
             169.00,311.90 156.00,316.39 156.00,316.39
             143.91,320.27 126.38,323.99 113.72,323.74
             107.53,323.62 101.06,322.53 96.19,318.39
             90.40,313.47 89.63,304.68 95.21,299.26
             101.65,293.01 107.54,296.35 115.04,296.73
             115.04,296.73 130.00,295.54 130.00,295.54
             130.00,295.54 167.00,284.89 167.00,284.89
             167.00,284.89 185.00,282.03 185.00,282.03
             185.00,282.03 217.00,273.26 217.00,273.26
             233.71,266.99 246.36,259.11 261.00,249.35
             266.89,245.43 272.22,242.66 277.70,237.87
             277.70,237.87 288.91,227.33 288.91,227.33
             288.91,227.33 297.97,219.95 297.97,219.95
             303.44,214.56 305.27,209.40 312.91,206.63 Z
           M 333.00,244.68
           C 343.89,244.67 351.19,255.10 345.15,264.99
             342.06,270.04 331.47,275.29 326.17,278.79
             326.17,278.79 304.00,293.33 304.00,293.33
             304.00,293.33 282.00,304.14 282.00,304.14
             282.00,304.14 258.71,319.03 258.71,319.03
             258.71,319.03 211.72,341.74 211.72,341.74
             195.43,348.20 173.12,356.86 156.00,359.72
             156.00,359.72 132.00,361.60 132.00,361.60
             132.00,361.60 122.00,361.00 122.00,361.00
             116.91,360.95 110.63,361.51 106.18,358.62
             99.08,354.01 98.76,342.24 105.67,337.25
             111.52,333.02 122.16,334.33 129.00,334.67
             143.25,335.36 162.60,331.59 176.00,326.71
             176.00,326.71 186.00,322.32 186.00,322.32
             199.75,317.20 225.40,306.81 237.83,299.98
             237.83,299.98 271.00,279.22 271.00,279.22
             271.00,279.22 288.00,271.26 288.00,271.26
             288.00,271.26 317.17,252.40 317.17,252.40
             323.32,248.65 325.75,246.09 333.00,244.68 Z
           M 171.00,387.00
           C 171.00,387.00 161.00,388.67 161.00,388.67
             150.47,390.84 146.72,393.66 135.00,393.95
             131.02,394.05 127.52,394.05 124.18,391.53
             117.20,386.23 117.60,374.18 124.81,369.58
             128.71,367.08 139.95,366.83 145.00,366.01
             145.00,366.01 163.00,361.51 163.00,361.51
             163.00,361.51 182.00,357.58 182.00,357.58
             182.00,357.58 197.91,353.06 197.91,353.06
             197.91,353.06 228.00,340.17 228.00,340.17
             228.00,340.17 244.00,335.54 244.00,335.54
             244.00,335.54 265.00,326.77 265.00,326.77
             265.00,326.77 290.72,311.49 290.72,311.49
             290.72,311.49 317.42,296.59 317.42,296.59
             317.42,296.59 332.00,289.88 332.00,289.88
             338.71,286.30 340.95,281.15 350.00,283.42
             359.28,285.74 361.86,297.61 356.71,304.90
             352.56,310.78 331.57,319.61 324.01,323.50
             324.01,323.50 277.00,350.86 277.00,350.86
             277.00,350.86 253.91,360.55 253.91,360.55
             253.91,360.55 238.00,365.17 238.00,365.17
             238.00,365.17 200.00,381.06 200.00,381.06
             200.00,381.06 172.00,388.00 172.00,388.00
             196.66,388.43 205.02,381.68 227.00,374.46
             250.73,366.66 260.22,368.03 283.83,353.07
             283.83,353.07 300.09,343.84 300.09,343.84
             304.19,341.30 308.70,337.44 313.00,335.81
             317.66,334.05 323.37,333.47 327.52,336.79
             333.36,341.46 333.56,349.79 329.37,355.54
             323.91,363.02 309.88,368.77 302.04,373.60
             291.15,380.32 280.15,386.59 268.00,390.91
             268.00,390.91 236.04,399.67 236.04,399.67
             236.04,399.67 218.83,406.09 218.83,406.09
             218.83,406.09 185.00,415.20 185.00,415.20
             174.97,417.23 159.65,411.60 161.80,399.00
             162.97,392.11 166.59,391.13 171.00,387.00 Z
           M 368.00,330.64
           C 377.00,330.77 384.31,337.43 381.92,347.00
             380.95,350.90 375.05,358.34 372.48,362.04
             361.80,377.46 358.50,377.78 345.65,389.78
             345.65,389.78 338.15,397.48 338.15,397.48
             332.52,402.51 315.17,413.37 308.00,416.44
             308.00,416.44 286.83,425.23 286.83,425.23
             286.83,425.23 280.17,427.31 280.17,427.31
             280.17,427.31 262.00,434.72 262.00,434.72
             262.00,434.72 220.00,446.06 220.00,446.06
             220.00,446.06 182.00,449.46 182.00,449.46
             182.00,449.46 158.57,451.83 158.57,451.83
             158.57,451.83 143.00,453.03 143.00,453.03
             135.64,453.29 127.58,453.19 121.18,448.93
             113.95,444.11 113.28,431.62 123.01,427.21
             130.92,423.63 136.17,426.67 144.00,426.34
             144.00,426.34 154.00,425.17 154.00,425.17
             154.00,425.17 172.00,424.09 172.00,424.09
             172.00,424.09 192.58,421.34 192.58,421.34
             192.58,421.34 215.00,419.83 215.00,419.83
             225.65,417.81 251.70,410.06 262.00,406.09
             262.00,406.09 270.28,402.26 270.28,402.26
             281.15,397.99 292.81,394.56 302.91,388.57
             306.70,386.32 317.09,379.45 319.96,376.82
             319.96,376.82 327.09,369.44 327.09,369.44
             327.09,369.44 344.95,353.49 344.95,353.49
             352.35,345.13 355.46,332.95 368.00,330.64 Z" />
  <path id="orange"
        fill="#ffbf68" stroke="none" stroke-width="1"
        d="M 180.04,44.76
           C 190.98,45.03 202.54,55.75 209.37,63.72
             222.53,79.09 233.05,95.06 232.76,116.20
             232.76,116.20 225.87,157.72 225.87,157.72
             225.85,161.38 228.34,170.14 229.42,174.00
             233.26,187.71 238.05,193.12 248.17,203.00
             251.49,206.25 261.08,214.76 263.11,218.00
             268.26,226.26 262.86,237.53 253.00,238.23
             243.15,238.94 230.54,224.67 224.53,217.72
             220.70,213.29 215.53,207.97 212.49,203.13
             207.69,195.47 200.00,171.69 199.26,163.01
             199.26,163.01 199.26,151.01 199.26,151.01
             200.43,135.44 208.48,119.54 203.83,104.01
             201.94,97.70 191.54,83.57 186.53,79.20
             181.18,74.53 173.70,70.70 170.03,64.39
             165.24,56.12 170.99,46.28 180.04,44.76 Z
           M 77.00,158.00
           C 74.29,155.78 73.67,152.24 71.98,149.17
             68.34,142.51 62.51,136.00 66.61,128.02
             67.88,125.54 69.54,123.74 72.02,122.45
             73.62,121.62 75.22,121.26 77.00,121.11
             88.71,120.10 95.20,133.75 98.83,143.00
             98.83,143.00 101.42,152.00 101.42,152.00
             105.94,168.24 105.41,171.48 104.73,188.15
             104.08,203.86 99.11,207.30 108.03,222.83
             113.09,231.64 120.92,238.15 129.00,244.08
             134.76,248.30 141.24,250.91 142.30,259.00
             143.66,269.32 134.73,276.16 125.00,273.36
             117.50,271.21 99.16,256.03 94.25,250.00
             87.29,241.44 78.28,226.99 76.53,216.09
             74.48,203.39 78.40,186.56 78.24,173.00
             78.24,173.00 77.00,158.00 77.00,158.00 Z
           M 162.00,147.64
           C 171.48,147.88 174.43,154.34 177.96,162.00
             185.18,177.62 181.43,193.81 190.52,210.91
             195.16,219.62 204.38,224.76 206.48,235.00
             208.03,242.58 202.64,249.19 195.00,249.77
             186.57,250.42 179.97,241.99 175.29,236.17
             169.53,229.01 164.59,221.74 161.60,212.91
             161.60,212.91 155.68,180.00 155.68,180.00
             154.32,172.75 148.40,166.20 149.20,159.00
             150.00,151.83 155.53,148.69 162.00,147.64 Z" />
  <path id="black"
        fill="black" stroke="none" stroke-width="1"
        d="M 336.31,51.03
           C 344.43,48.24 345.31,56.64 341.69,58.97
             337.45,61.70 330.96,56.79 336.31,51.03 Z
           M 425.00,87.00
           C 425.02,81.53 425.03,81.39 425.92,76.00
             426.38,73.20 427.34,66.41 428.93,64.31
             431.35,61.14 436.57,61.58 437.67,66.06
             438.35,68.80 436.77,74.99 436.25,78.00
             436.25,78.00 433.04,103.00 433.04,103.00
             432.89,106.35 433.87,112.97 430.69,114.96
             427.03,117.25 423.21,113.90 421.35,110.96
             417.92,105.54 414.74,93.60 412.26,87.00
             411.20,84.18 409.15,80.22 411.03,77.31
             411.74,76.21 412.78,75.60 414.05,75.37
             419.94,74.30 421.89,82.46 425.00,87.00 Z
           M 477.00,95.00
           C 470.90,100.80 466.82,104.46 458.00,103.96
             444.20,103.17 440.41,84.47 450.04,76.27
             455.40,71.72 462.80,71.78 469.00,69.21
             472.06,67.94 475.43,65.88 478.49,68.60
             480.60,70.48 480.98,74.38 481.77,77.00
             481.77,77.00 487.20,91.00 487.20,91.00
             487.20,91.00 490.32,98.00 490.32,98.00
             492.08,101.29 497.23,106.98 494.96,110.69
             492.94,113.97 488.60,112.75 486.18,110.69
             482.57,107.59 478.93,99.48 477.00,95.00 Z
           M 391.00,99.00
           C 385.18,103.11 379.03,110.77 371.04,108.69
             366.47,107.49 365.79,103.01 365.08,99.00
             363.22,88.47 363.76,81.71 373.00,74.76
             378.45,70.66 386.22,66.93 393.00,70.16
             398.85,72.95 405.59,80.94 396.00,84.00
             397.03,86.94 399.94,94.52 401.81,96.69
             404.73,100.08 409.39,98.39 409.75,104.02
             410.10,109.47 406.09,119.48 399.21,114.40
             395.96,112.01 392.13,102.96 391.00,99.00 Z
           M 336.31,74.03
           C 346.32,70.60 343.34,82.34 345.29,95.00
             345.29,95.00 348.69,109.00 348.69,109.00
             351.12,121.93 350.19,128.46 347.23,141.00
             345.46,148.54 341.90,156.25 334.00,159.26
             331.90,160.06 328.28,160.07 326.00,159.98
             318.39,159.67 309.81,150.53 309.11,143.00
             308.70,138.52 310.77,131.26 316.86,133.62
             322.20,135.69 317.81,147.26 327.00,149.26
             334.83,150.95 336.98,137.03 338.27,132.00
             341.51,119.33 339.23,116.93 336.50,105.00
             336.50,105.00 334.42,92.00 334.42,92.00
             333.73,86.91 332.70,77.89 336.31,74.03 Z
           M 385.00,80.00
           C 375.24,84.36 373.67,86.65 375.00,97.00
             382.50,94.68 384.02,86.95 385.00,80.00 Z
           M 471.00,80.00
           C 471.00,80.00 463.00,81.91 463.00,81.91
             459.00,83.07 454.26,84.69 455.36,89.95
             455.62,91.19 456.19,92.27 457.31,92.94
             461.20,95.23 467.95,90.32 469.69,86.96
             470.82,84.77 470.88,82.40 471.00,80.00 Z
           M 281.31,133.03
           C 289.43,130.24 290.31,138.64 286.69,140.97
             282.45,143.70 275.96,138.79 281.31,133.03 Z" />
</svg>
